<svg width="33" height="41" viewBox="0 0 33 41" fill="none" xmlns="http://www.w3.org/2000/svg">
<g opacity="0.3">
<path opacity="0.3" d="M22.9472 8.30149C22.049 8.30061 21.1878 7.93825 20.5527 7.29397C19.9175 6.64969 19.5603 5.7761 19.5594 4.86495V0.0935059H4.42121C3.24863 0.0935059 2.12408 0.566025 1.29494 1.40709C0.465805 2.24816 0 3.38886 0 4.5783V31.6138C0.00174127 32.8021 0.468315 33.9411 1.29726 34.7808C2.12621 35.6204 3.24977 36.092 4.42121 36.092H22.5923C23.1731 36.0922 23.7482 35.9764 24.2848 35.7511C24.8214 35.5258 25.3089 35.1955 25.7197 34.779C26.1304 34.3625 26.4562 33.8681 26.6785 33.3238C26.9008 32.7796 27.0152 32.1963 27.0152 31.6072V8.29482L22.9472 8.30149Z" fill="#4EC275"/>
</g>
<path d="M27.0151 8.30149H22.9471C22.0489 8.30061 21.1877 7.93825 20.5525 7.29397C19.9174 6.64968 19.5602 5.7761 19.5593 4.86495V0.0935059L27.0151 8.30149Z" fill="#4EC275"/>
<path d="M30.2207 28.5273H9.67717C8.21991 28.5273 7.03857 29.7257 7.03857 31.2039V37.417C7.03857 38.8952 8.21991 40.0935 9.67717 40.0935H30.2207C31.678 40.0935 32.8593 38.8952 32.8593 37.417V31.2039C32.8593 29.7257 31.678 28.5273 30.2207 28.5273Z" fill="#4EC275"/>
<path d="M13.2242 35.6121V36.8203H11.9937V35.6121H13.2242Z" fill="#F3F4F6"/>
<path d="M17.6452 32.2822C18.061 32.6235 18.3434 33.1038 18.442 33.6371H17.1835C17.0996 33.4158 16.9511 33.2257 16.758 33.0922C16.5548 32.957 16.3158 32.8878 16.0729 32.8938C15.9127 32.8889 15.7536 32.9214 15.6077 32.9887C15.4619 33.056 15.3332 33.1564 15.2317 33.2821C15.0059 33.5782 14.8922 33.9466 14.9113 34.3205C14.8921 34.6928 15.0058 35.0596 15.2317 35.3537C15.3336 35.4788 15.4625 35.5785 15.6083 35.6452C15.7541 35.7119 15.913 35.7439 16.0729 35.7387C16.3158 35.7447 16.5548 35.6756 16.758 35.5404C16.9511 35.4095 17.1005 35.2224 17.1868 35.0037H18.4453C18.3446 35.5353 18.0625 36.0139 17.6485 36.3554C17.2042 36.7018 16.6541 36.8788 16.0942 36.8554C15.6533 36.8652 15.2179 36.754 14.8341 36.5337C14.4744 36.3227 14.1832 36.01 13.9962 35.6337C13.7937 35.2251 13.6922 34.7727 13.7004 34.3155C13.692 33.8577 13.7935 33.4046 13.9962 32.9955C14.1832 32.6192 14.4744 32.3065 14.8341 32.0955C15.2179 31.8752 15.6533 31.7641 16.0942 31.7739C16.6539 31.7544 17.2026 31.9342 17.6452 32.2822V32.2822Z" fill="#F3F4F6"/>
<path d="M22.4478 36.1418C22.3062 36.371 22.1034 36.5548 21.8629 36.6718C21.5702 36.8108 21.2494 36.8781 20.9264 36.8684C20.4399 36.8884 19.9605 36.7449 19.5627 36.4601C19.3871 36.3262 19.2433 36.1539 19.1421 35.956C19.0408 35.7581 18.9847 35.5397 18.9779 35.3169H20.2446C20.2534 35.4848 20.3244 35.6431 20.4434 35.7602C20.5611 35.8719 20.7176 35.9319 20.8788 35.9268C21.0109 35.9336 21.1404 35.8882 21.2402 35.8001C21.2835 35.7567 21.3175 35.7047 21.3401 35.6474C21.3627 35.59 21.3735 35.5286 21.3716 35.4668C21.3732 35.4085 21.3632 35.3504 21.3423 35.2961C21.3215 35.2417 21.2901 35.1921 21.2501 35.1502C21.1638 35.0613 21.061 34.9905 20.9478 34.9419C20.8262 34.8869 20.6602 34.8218 20.4467 34.7468C20.1859 34.6598 19.9312 34.5552 19.6843 34.4335C19.4814 34.3271 19.3072 34.1721 19.1767 33.9819C19.0265 33.7512 18.9523 33.4781 18.9647 33.2019C18.958 32.9281 19.0355 32.659 19.1865 32.432C19.3418 32.2102 19.5552 32.0369 19.8026 31.932C20.0889 31.8145 20.3959 31.7578 20.7046 31.7653C21.1714 31.7403 21.6323 31.8798 22.0091 32.1603C22.17 32.2926 22.3016 32.4577 22.3956 32.6448C22.4896 32.832 22.5437 33.0371 22.5546 33.2469H21.2681C21.2523 33.1003 21.1901 32.9629 21.0907 32.8553C21.0393 32.8059 20.9786 32.7676 20.9123 32.7427C20.8459 32.7178 20.7753 32.7068 20.7046 32.7103C20.5818 32.7039 20.4611 32.7443 20.3662 32.8236C20.3217 32.866 20.2872 32.9179 20.265 32.9756C20.2428 33.0333 20.2336 33.0952 20.238 33.1569C20.2366 33.2122 20.246 33.2671 20.2658 33.3186C20.2855 33.3701 20.3152 33.4171 20.353 33.4569C20.4344 33.5439 20.533 33.6126 20.6422 33.6586C20.7572 33.7102 20.9248 33.7769 21.1351 33.8569C21.4006 33.9436 21.6593 34.0505 21.9089 34.1769C22.1136 34.2885 22.2897 34.4472 22.4231 34.6402C22.5755 34.8738 22.6508 35.1504 22.6384 35.4302C22.6396 35.6805 22.5737 35.9265 22.4478 36.1418V36.1418Z" fill="#F3F4F6"/>
<path d="M24.2237 31.8306L25.428 35.5854L26.6323 31.8306H27.9056L26.1936 36.8204H24.6558L22.9504 31.8306H24.2237Z" fill="#F3F4F6"/>
<path d="M19.5332 25.2259H7.48211C6.43883 25.2259 5.59106 24.1726 5.59106 22.876V14.0113C5.59106 12.7164 6.43883 11.6631 7.48211 11.6631H19.5332C20.5765 11.6631 21.4243 12.7164 21.4243 14.0113V22.876C21.4243 24.1726 20.5765 25.2259 19.5332 25.2259ZM7.48211 12.8631C6.97279 12.8631 6.55713 13.378 6.55713 14.0113V22.876C6.55713 23.5093 6.97279 24.0243 7.48211 24.0243H19.5332C20.0425 24.0243 20.4566 23.5093 20.4566 22.876V14.0113C20.4566 13.378 20.0425 12.8631 19.5332 12.8631H7.48211Z" fill="#4EC275"/>
<path d="M20.9414 19.8877H6.07422V21.0893H20.9414V19.8877Z" fill="#4EC275"/>
<path d="M20.9414 15.7681H6.07422V16.9697H20.9414V15.7681Z" fill="#4EC275"/>
<path d="M17.1345 12.2629H15.95V24.6241H17.1345V12.2629Z" fill="#4EC275"/>
<path d="M11.0652 12.2629H9.88062V24.6241H11.0652V12.2629Z" fill="#4EC275"/>
</svg>
