<svg width="33" height="41" viewBox="0 0 33 41" fill="none" xmlns="http://www.w3.org/2000/svg">
<g opacity="0.3">
<path opacity="0.3" d="M22.9473 8.30152C22.0491 8.30063 21.1879 7.93827 20.5527 7.29399C19.9176 6.6497 19.5604 5.77612 19.5595 4.86497V0.0935062H4.42287C3.84213 0.0932873 3.26702 0.209109 2.73043 0.434394C2.19383 0.65968 1.70626 0.990007 1.29554 1.40648C0.884817 1.82296 0.559005 2.31743 0.336716 2.86167C0.114426 3.4059 -4.00982e-08 3.98922 0 4.57832V31.6139C-4.00982e-08 32.203 0.114426 32.7864 0.336716 33.3306C0.559005 33.8748 0.884817 34.3693 1.29554 34.7858C1.70626 35.2023 2.19383 35.5326 2.73043 35.7578C3.26702 35.9831 3.84213 36.099 4.42287 36.0988H22.5941C23.1747 36.0988 23.7496 35.9828 24.286 35.7574C24.8224 35.532 25.3098 35.2016 25.7203 34.7852C26.1309 34.3687 26.4565 33.8743 26.6787 33.3302C26.9009 32.7861 27.0153 32.2029 27.0153 31.6139V8.30152H22.9473Z" fill="#F47975"/>
</g>
<path d="M27.0153 8.30152H22.9474C22.0491 8.30063 21.1879 7.93827 20.5528 7.29399C19.9176 6.6497 19.5604 5.77612 19.5596 4.86497V0.0935059L27.0153 8.30152Z" fill="#F47975"/>
<path d="M21.4571 14.0478H4.49508C4.33212 14.0478 4.17583 13.9822 4.0606 13.8653C3.94536 13.7484 3.88062 13.5898 3.88062 13.4245C3.8804 13.3425 3.89614 13.2613 3.92693 13.1855C3.95771 13.1097 4.00294 13.0408 4.06002 12.9827C4.1171 12.9246 4.18491 12.8786 4.25957 12.8472C4.33423 12.8157 4.41425 12.7996 4.49508 12.7996H21.4571C21.6205 12.7996 21.7772 12.8654 21.8927 12.9826C22.0083 13.0998 22.0732 13.2588 22.0732 13.4245C22.0728 13.59 22.0076 13.7486 21.8921 13.8654C21.7766 13.9822 21.6202 14.0478 21.4571 14.0478V14.0478Z" fill="#F47975"/>
<path d="M21.4571 17.7761H4.49508C4.33212 17.7761 4.17583 17.7104 4.0606 17.5935C3.94536 17.4767 3.88062 17.3181 3.88062 17.1528C3.8804 17.0708 3.89614 16.9896 3.92693 16.9138C3.95771 16.8379 4.00294 16.769 4.06002 16.711C4.1171 16.6529 4.18491 16.6069 4.25957 16.5754C4.33423 16.544 4.41425 16.5278 4.49508 16.5278H21.4571C21.6205 16.5278 21.7772 16.5936 21.8927 16.7108C22.0083 16.8281 22.0732 16.9871 22.0732 17.1528C22.0728 17.3183 22.0076 17.4768 21.8921 17.5936C21.7766 17.7105 21.6202 17.7761 21.4571 17.7761V17.7761Z" fill="#F47975"/>
<path d="M21.4571 21.5044H4.49508C4.41425 21.5044 4.33423 21.4882 4.25957 21.4568C4.18491 21.4254 4.1171 21.3793 4.06002 21.3212C4.00294 21.2632 3.95771 21.1943 3.92693 21.1185C3.89614 21.0426 3.8804 20.9614 3.88062 20.8794C3.88062 20.7141 3.94536 20.5556 4.0606 20.4387C4.17583 20.3218 4.33212 20.2561 4.49508 20.2561H21.4571C21.6202 20.2561 21.7766 20.3217 21.8921 20.4386C22.0076 20.5554 22.0728 20.7139 22.0732 20.8794C22.0732 21.0452 22.0083 21.2041 21.8927 21.3213C21.7772 21.4385 21.6205 21.5044 21.4571 21.5044Z" fill="#F47975"/>
<path d="M14.7669 25.2324H4.49508C4.41425 25.2324 4.33423 25.2162 4.25957 25.1848C4.18491 25.1534 4.1171 25.1073 4.06002 25.0492C4.00294 24.9912 3.95771 24.9223 3.92693 24.8465C3.89614 24.7707 3.8804 24.6894 3.88062 24.6074C3.88062 24.4421 3.94536 24.2836 4.0606 24.1667C4.17583 24.0498 4.33212 23.9841 4.49508 23.9841H14.7669C14.9299 23.9841 15.0862 24.0498 15.2014 24.1667C15.3166 24.2836 15.3814 24.4421 15.3814 24.6074C15.3816 24.6894 15.3659 24.7707 15.3351 24.8465C15.3043 24.9223 15.2591 24.9912 15.202 25.0492C15.1449 25.1073 15.0771 25.1534 15.0024 25.1848C14.9278 25.2162 14.8477 25.2324 14.7669 25.2324Z" fill="#F47975"/>
<path d="M30.2225 28.5273H9.67887C8.22162 28.5273 7.04028 29.7257 7.04028 31.2039V37.417C7.04028 38.8952 8.22162 40.0936 9.67887 40.0936H30.2225C31.6798 40.0936 32.8611 38.8952 32.8611 37.417V31.2039C32.8611 29.7257 31.6798 28.5273 30.2225 28.5273Z" fill="#F47975"/>
<path d="M12.5226 35.6555V36.8671H11.2854V35.6555H12.5226Z" fill="#F3F4F6"/>
<path d="M17.2773 35.6588C17.0716 36.0377 16.7608 36.3472 16.3835 36.5488C15.9589 36.7691 15.4868 36.8784 15.01 36.8671H13.1436V31.8556H15.01C15.4871 31.8437 15.9599 31.9507 16.3868 32.1673C16.7626 32.3652 17.0724 32.6713 17.2773 33.0472C17.4897 33.4473 17.5966 33.8962 17.5878 34.3505C17.5962 34.8064 17.4893 35.2568 17.2773 35.6588V35.6588ZM15.9925 35.4071C16.126 35.2681 16.2295 35.1023 16.2963 34.9203C16.363 34.7384 16.3916 34.5443 16.3802 34.3505C16.3917 34.157 16.3631 33.9631 16.2964 33.7814C16.2296 33.5997 16.1261 33.4342 15.9925 33.2956C15.6931 33.0293 15.3022 32.8939 14.9048 32.9189H14.3413V35.7821H14.9065C15.3029 35.8064 15.6929 35.6717 15.9925 35.4071V35.4071Z" fill="#F3F4F6"/>
<path d="M21.8827 32.1074C22.2586 32.3239 22.5693 32.6402 22.7814 33.0223C23.0037 33.4259 23.117 33.8817 23.11 34.3439C23.1175 34.8072 23.0042 35.2643 22.7814 35.6689C22.5686 36.0524 22.2568 36.3699 21.8794 36.5872C21.4954 36.8097 21.0599 36.9247 20.6176 36.9205C20.1754 36.9244 19.74 36.8094 19.3558 36.5872C18.9786 36.3703 18.6672 36.0527 18.4555 35.6689C18.232 35.2646 18.1186 34.8073 18.1269 34.3439C18.1184 33.8816 18.2318 33.4253 18.4555 33.0223C18.6683 32.6402 18.9795 32.3239 19.3558 32.1074C19.74 31.8851 20.1754 31.7701 20.6176 31.774C21.061 31.7698 21.4975 31.8848 21.8827 32.1074V32.1074ZM19.6812 33.2906C19.4388 33.5847 19.3155 33.9612 19.3361 34.3439C19.3154 34.7252 19.4388 35.1001 19.6812 35.3922C19.7992 35.5224 19.9439 35.6247 20.1051 35.6921C20.2664 35.7595 20.4402 35.7902 20.6144 35.7822C20.788 35.7897 20.9612 35.7588 21.1218 35.6914C21.2824 35.624 21.4266 35.5219 21.5443 35.3922C21.7878 35.1006 21.9124 34.7256 21.8926 34.3439C21.9123 33.9628 21.789 33.5883 21.5476 33.2956C21.4296 33.1654 21.2849 33.063 21.1236 32.9956C20.9624 32.9282 20.7886 32.8975 20.6144 32.9056C20.4406 32.8975 20.2672 32.9278 20.1061 32.9942C19.945 33.0607 19.8 33.1618 19.6812 33.2906V33.2906Z" fill="#F3F4F6"/>
<path d="M27.5986 32.3088C28.0153 32.6527 28.2987 33.135 28.3987 33.6704H27.1336C27.0483 33.4485 26.8988 33.258 26.7048 33.1238C26.5004 32.9887 26.2604 32.9196 26.0164 32.9255C25.8554 32.9202 25.6952 32.9527 25.5485 33.0203C25.4018 33.0879 25.2724 33.1889 25.1703 33.3155C24.9415 33.6123 24.825 33.9823 24.8417 34.3588C24.825 34.7336 24.9416 35.1021 25.1703 35.397C25.2732 35.5223 25.4029 35.622 25.5495 35.6887C25.6961 35.7554 25.8558 35.7873 26.0164 35.782C26.2605 35.7886 26.5007 35.7194 26.7048 35.5837C26.8977 35.4519 27.0471 35.2644 27.1336 35.0454H28.3987C28.2971 35.5792 28.0139 36.0599 27.5986 36.4037C27.1517 36.7498 26.5996 36.9266 26.0378 36.9037C25.5951 36.9131 25.1581 36.8014 24.7727 36.5803C24.412 36.3676 24.1194 36.054 23.9299 35.677C23.7262 35.2635 23.6247 34.8059 23.6341 34.3437C23.6249 33.8816 23.7263 33.424 23.9299 33.0105C24.1194 32.6334 24.412 32.3198 24.7727 32.1072C25.1581 31.8861 25.5951 31.7744 26.0378 31.7838C26.6025 31.7687 27.1547 31.9544 27.5986 32.3088Z" fill="#F3F4F6"/>
</svg>
