<svg width="33" height="41" viewBox="0 0 33 41" fill="none" xmlns="http://www.w3.org/2000/svg">
<g opacity="0.3">
<path opacity="0.3" d="M22.9473 8.30152C22.0491 8.30063 21.1879 7.93827 20.5527 7.29399C19.9176 6.6497 19.5604 5.77612 19.5595 4.86497V0.0935062H4.42287C3.84213 0.0932873 3.26702 0.209109 2.73043 0.434394C2.19383 0.65968 1.70624 0.990007 1.29552 1.40648C0.884797 1.82296 0.558985 2.31743 0.336695 2.86167C0.114406 3.4059 -4.00982e-08 3.98922 0 4.57832V31.6139C-4.00982e-08 32.203 0.114406 32.7864 0.336695 33.3306C0.558985 33.8748 0.884797 34.3693 1.29552 34.7858C1.70624 35.2023 2.19383 35.5325 2.73043 35.7578C3.26702 35.9831 3.84213 36.099 4.42287 36.0988H22.5941C23.7666 36.0988 24.8912 35.6262 25.7203 34.7852C26.5495 33.9441 27.0153 32.8034 27.0153 31.6139V8.30152H22.9473Z" fill="#F47975"/>
</g>
<path d="M27.0153 8.30152H22.9474C22.0492 8.30063 21.188 7.93827 20.5528 7.29399C19.9177 6.6497 19.5604 5.77612 19.5596 4.86497V0.0935059L27.0153 8.30152Z" fill="#F47975"/>
<path d="M21.4571 14.0478H4.49508C4.33212 14.0478 4.17583 13.9822 4.0606 13.8653C3.94536 13.7484 3.88062 13.5898 3.88062 13.4245C3.8804 13.3425 3.89614 13.2613 3.92693 13.1855C3.95771 13.1097 4.00294 13.0408 4.06002 12.9827C4.1171 12.9246 4.18489 12.8786 4.25955 12.8472C4.33421 12.8157 4.41425 12.7996 4.49508 12.7996H21.4571C21.6205 12.7996 21.7772 12.8654 21.8927 12.9826C22.0082 13.0998 22.0732 13.2588 22.0732 13.4245C22.0727 13.59 22.0076 13.7486 21.8921 13.8654C21.7766 13.9822 21.6202 14.0478 21.4571 14.0478V14.0478Z" fill="#F47975"/>
<path d="M21.4571 17.7761H4.49508C4.33212 17.7761 4.17583 17.7104 4.0606 17.5935C3.94536 17.4767 3.88062 17.3181 3.88062 17.1528C3.8804 17.0708 3.89614 16.9896 3.92693 16.9138C3.95771 16.8379 4.00294 16.769 4.06002 16.711C4.1171 16.6529 4.18489 16.6069 4.25955 16.5754C4.33421 16.544 4.41425 16.5278 4.49508 16.5278H21.4571C21.6205 16.5278 21.7772 16.5936 21.8927 16.7108C22.0082 16.8281 22.0732 16.9871 22.0732 17.1528C22.0727 17.3183 22.0076 17.4768 21.8921 17.5936C21.7766 17.7105 21.6202 17.7761 21.4571 17.7761V17.7761Z" fill="#F47975"/>
<path d="M21.4571 21.5044H4.49508C4.41425 21.5044 4.33421 21.4882 4.25955 21.4568C4.18489 21.4254 4.1171 21.3793 4.06002 21.3212C4.00294 21.2632 3.95771 21.1943 3.92693 21.1185C3.89614 21.0426 3.8804 20.9614 3.88062 20.8794C3.88062 20.7141 3.94536 20.5556 4.0606 20.4387C4.17583 20.3218 4.33212 20.2561 4.49508 20.2561H21.4571C21.6202 20.2561 21.7766 20.3217 21.8921 20.4386C22.0076 20.5554 22.0727 20.7139 22.0732 20.8794C22.0732 21.0452 22.0082 21.2041 21.8927 21.3213C21.7772 21.4385 21.6205 21.5044 21.4571 21.5044Z" fill="#F47975"/>
<path d="M14.7636 25.2324H4.49508C4.41425 25.2324 4.33421 25.2162 4.25955 25.1848C4.18489 25.1534 4.1171 25.1073 4.06002 25.0492C4.00294 24.9912 3.95771 24.9223 3.92693 24.8465C3.89614 24.7707 3.8804 24.6894 3.88062 24.6074C3.88062 24.4421 3.94536 24.2836 4.0606 24.1667C4.17583 24.0498 4.33212 23.9841 4.49508 23.9841H14.7636C14.9266 23.9841 15.0829 24.0498 15.1981 24.1667C15.3133 24.2836 15.3781 24.4421 15.3781 24.6074C15.3783 24.6894 15.3626 24.7707 15.3318 24.8465C15.301 24.9223 15.2558 24.9912 15.1987 25.0492C15.1416 25.1073 15.0738 25.1534 14.9991 25.1848C14.9245 25.2162 14.8444 25.2324 14.7636 25.2324Z" fill="#F47975"/>
<path d="M30.2225 28.5273H9.67888C8.22162 28.5273 7.04028 29.7257 7.04028 31.2039V37.417C7.04028 38.8952 8.22162 40.0936 9.67888 40.0936H30.2225C31.6798 40.0936 32.8611 38.8952 32.8611 37.417V31.2039C32.8611 29.7257 31.6798 28.5273 30.2225 28.5273Z" fill="#F47975"/>
<path d="M10.0516 35.6555V36.8671H8.81445V35.6555H10.0516Z" fill="#F3F4F6"/>
<path d="M14.8063 35.6588C14.6001 36.0374 14.2895 36.3467 13.9125 36.5487C13.4879 36.769 13.0158 36.8784 12.539 36.8671H10.6726V31.8556H12.539C13.0162 31.8438 13.4889 31.9508 13.9158 32.1672C14.2916 32.3652 14.6014 32.6713 14.8063 33.0472C15.0187 33.4473 15.1257 33.8962 15.1168 34.3505C15.1253 34.8064 15.0184 35.2568 14.8063 35.6588V35.6588ZM13.5215 35.4071C13.6551 35.2681 13.7585 35.1023 13.8253 34.9203C13.8921 34.7384 13.9207 34.5443 13.9093 34.3505C13.9207 34.157 13.8922 33.9631 13.8254 33.7814C13.7586 33.5997 13.6551 33.4342 13.5215 33.2955C13.2222 33.0293 12.8312 32.8939 12.4339 32.9189H11.8687V35.7821H12.4339C12.8309 35.8068 13.2216 35.6721 13.5215 35.4071Z" fill="#F3F4F6"/>
<path d="M19.4116 32.1074C19.7875 32.3239 20.0982 32.6402 20.3103 33.0223C20.5327 33.4258 20.646 33.8817 20.6389 34.3439C20.6472 34.8073 20.5338 35.2646 20.3103 35.6689C20.0986 36.0527 19.7872 36.3703 19.41 36.5872C19.0259 36.8097 18.5904 36.9247 18.1482 36.9205C17.7059 36.9247 17.2705 36.8097 16.8864 36.5872C16.5091 36.3703 16.1977 36.0527 15.986 35.6689C15.7625 35.2646 15.6491 34.8073 15.6574 34.3439C15.6489 33.8816 15.7624 33.4253 15.986 33.0223C16.1988 32.6402 16.51 32.3239 16.8864 32.1074C17.2705 31.8849 17.7059 31.7698 18.1482 31.774C18.5909 31.7701 19.0268 31.8851 19.4116 32.1074V32.1074ZM17.21 33.2906C16.9677 33.5847 16.8444 33.9612 16.865 34.3439C16.8443 34.7252 16.9677 35.1001 17.21 35.3922C17.3281 35.5224 17.4728 35.6247 17.634 35.6921C17.7953 35.7595 17.9691 35.7902 18.1432 35.7822C18.3168 35.7895 18.49 35.7584 18.6505 35.6911C18.8111 35.6237 18.9553 35.5218 19.0732 35.3922C19.3167 35.1006 19.4413 34.7256 19.4215 34.3439C19.4412 33.9628 19.3179 33.5883 19.0764 33.2956C18.9585 33.1654 18.8137 33.063 18.6525 32.9956C18.4913 32.9282 18.3174 32.8975 18.1432 32.9056C17.9695 32.8975 17.7961 32.9278 17.635 32.9942C17.4739 33.0607 17.3289 33.1618 17.21 33.2906V33.2906Z" fill="#F3F4F6"/>
<path d="M25.1275 32.3088C25.5442 32.6527 25.8276 33.135 25.9277 33.6704H24.6626C24.5772 33.4485 24.4278 33.258 24.2338 33.1238C24.0293 32.9887 23.7893 32.9196 23.5454 32.9255C23.3843 32.9202 23.2242 32.9527 23.0774 33.0203C22.9307 33.0879 22.8013 33.1889 22.6993 33.3155C22.4706 33.6124 22.3541 33.9824 22.3707 34.3588C22.3539 34.7336 22.4705 35.1021 22.6993 35.397C22.8021 35.5223 22.9318 35.622 23.0784 35.6887C23.2251 35.7554 23.3847 35.7873 23.5454 35.782C23.7894 35.7886 24.0296 35.7194 24.2338 35.5837C24.4267 35.4519 24.5761 35.2644 24.6626 35.0454H25.9277C25.826 35.5792 25.5428 36.0599 25.1275 36.4037C24.6806 36.7498 24.1285 36.9266 23.5667 36.9037C23.1241 36.9131 22.6871 36.8014 22.3016 36.5803C21.941 36.3676 21.6483 36.054 21.4588 35.677C21.2546 35.2636 21.1526 34.806 21.1614 34.3437C21.1526 33.8814 21.2547 33.4239 21.4588 33.0105C21.6483 32.6334 21.941 32.3198 22.3016 32.1072C22.6871 31.8861 23.1241 31.7744 23.5667 31.7838C24.1315 31.7687 24.6836 31.9544 25.1275 32.3088Z" fill="#F3F4F6"/>
<path d="M29.5962 36.8669L28.5546 35.307L27.6608 36.8669H26.2906L27.8711 34.287L26.2429 31.8555H27.6608L28.6745 33.3654L29.5469 31.8555H30.9106L29.3514 34.3787L31.0141 36.8669H29.5962Z" fill="#F3F4F6"/>
</svg>
