<svg width="34" height="40" viewBox="0 0 34 40" fill="none" xmlns="http://www.w3.org/2000/svg">
<g opacity="0.3">
<path opacity="0.3" d="M23.5872 8.20671C22.689 8.20582 21.8277 7.84347 21.1926 7.19915C20.5574 6.55484 20.2001 5.68122 20.1993 4.77002V3.09704e-07H5.06198C4.48121 -0.000218613 3.90608 0.115629 3.36946 0.340924C2.83284 0.56622 2.34523 0.896552 1.93449 1.31305C1.52375 1.72954 1.19793 2.22404 0.975626 2.76829C0.753327 3.31255 0.638916 3.8959 0.638916 4.48502V31.5218C0.640658 32.7105 1.10748 33.8498 1.93682 34.6895C2.76616 35.5292 3.8902 36.0006 5.06198 36.0002H23.234C24.4066 36.0002 25.5312 35.5277 26.3604 34.6865C27.1896 33.8454 27.6554 32.7047 27.6554 31.5152V8.20671H23.5872Z" fill="#6871EC"/>
</g>
<path d="M27.6556 8.20671H23.5874C22.6892 8.20582 21.8279 7.84347 21.1927 7.19915C20.5576 6.55484 20.2003 5.68122 20.1995 4.77002V0L27.6556 8.20671Z" fill="#6871EC"/>
<path d="M30.8627 28.4333H10.3182C8.86084 28.4333 7.67944 29.6317 7.67944 31.11V37.3234C7.67944 38.8017 8.86084 40.0001 10.3182 40.0001H30.8627C32.32 40.0001 33.5014 38.8017 33.5014 37.3234V31.11C33.5014 29.6317 32.32 28.4333 30.8627 28.4333Z" fill="#6871EC"/>
<path d="M15.5019 35.562V36.7737H14.2646V35.562H15.5019Z" fill="#F3F4F6"/>
<path d="M19.9677 32.1668C20.3664 32.4695 20.6343 32.9168 20.7153 33.4152H19.4502C19.3673 33.2361 19.2333 33.0863 19.0657 32.9852C18.8781 32.8719 18.6629 32.8142 18.4446 32.8185C18.2746 32.8114 18.1052 32.8421 17.9482 32.9087C17.7912 32.9752 17.6505 33.0758 17.536 33.2035C17.2954 33.4959 17.1727 33.8698 17.1926 34.2502C17.1926 34.7268 17.3126 35.093 17.5525 35.3485C17.6876 35.4813 17.8486 35.584 18.0252 35.6501C18.2017 35.7161 18.3899 35.7439 18.5777 35.7319C18.8458 35.7366 19.1081 35.6529 19.3253 35.4935C19.546 35.325 19.7055 35.087 19.7788 34.8168H18.2688V33.9452H20.7777V35.1668C20.6819 35.4652 20.5301 35.7419 20.3308 35.9819C20.1153 36.2401 19.8474 36.4481 19.5455 36.5919C19.2027 36.7522 18.8286 36.832 18.4512 36.8252C17.9926 36.8372 17.539 36.7256 17.1368 36.5019C16.7685 36.292 16.4683 35.9782 16.2725 35.5985C16.065 35.1891 15.9606 34.7339 15.9686 34.2735C15.9595 33.8104 16.0639 33.3522 16.2725 32.9402C16.4679 32.5614 16.7669 32.2477 17.1335 32.0368C17.53 31.8153 17.9773 31.7043 18.4299 31.7152C18.9777 31.6879 19.5189 31.8469 19.9677 32.1668V32.1668Z" fill="#F3F4F6"/>
<path d="M22.6442 31.762V36.7737H21.4497V31.762H22.6442Z" fill="#F3F4F6"/>
<path d="M26.691 31.762V32.727H24.6635V33.8336H26.2293V34.7553H24.6635V36.782H23.469V31.7703L26.691 31.762Z" fill="#F3F4F6"/>
<path d="M13.3954 25.7382C11.6029 25.736 9.88443 25.0127 8.61695 23.727C7.34947 22.4413 6.63645 20.6981 6.63428 18.8799C6.63645 17.0616 7.34947 15.3184 8.61695 14.0327C9.88443 12.747 11.6029 12.0237 13.3954 12.0215C15.1879 12.0237 16.9063 12.747 18.1738 14.0327C19.4413 15.3184 20.1543 17.0616 20.1565 18.8799C20.1543 20.6981 19.4413 22.4413 18.1738 23.727C16.9063 25.0127 15.1879 25.736 13.3954 25.7382ZM13.3954 13.2232C11.9172 13.2258 10.5003 13.8226 9.4551 14.8829C8.40987 15.9432 7.82151 17.3804 7.8189 18.8799C7.82151 20.3793 8.40987 21.8166 9.4551 22.8768C10.5003 23.9371 11.9172 24.5339 13.3954 24.5365C14.8736 24.5339 16.2904 23.9371 17.3357 22.8768C18.3809 21.8166 18.9692 20.3793 18.9718 18.8799C18.9692 17.3804 18.3809 15.9432 17.3357 14.8829C16.2904 13.8226 14.8736 13.2258 13.3954 13.2232V13.2232Z" fill="#6871EC"/>
<path d="M13.3954 22.7235C12.6228 22.7246 11.8619 22.5322 11.1803 22.1632C10.4987 21.7942 9.91747 21.2602 9.48828 20.6085L10.4741 19.9419C10.7947 20.4286 11.2287 20.8277 11.7378 21.1036C12.2468 21.3795 12.815 21.5237 13.3921 21.5235C13.9695 21.5238 14.5379 21.3795 15.047 21.1032C15.5561 20.827 15.99 20.4275 16.3102 19.9402L17.296 20.6069C16.8677 21.258 16.2876 21.7918 15.6072 22.1611C14.9268 22.5303 14.1671 22.7235 13.3954 22.7235Z" fill="#6871EC"/>
<path d="M11.5207 17.8284C11.9553 17.8284 12.3077 17.4709 12.3077 17.03C12.3077 16.5891 11.9553 16.2317 11.5207 16.2317C11.086 16.2317 10.7336 16.5891 10.7336 17.03C10.7336 17.4709 11.086 17.8284 11.5207 17.8284Z" fill="#6871EC"/>
<path d="M15.2702 17.8284C15.7048 17.8284 16.0572 17.4709 16.0572 17.03C16.0572 16.5891 15.7048 16.2317 15.2702 16.2317C14.8355 16.2317 14.4832 16.5891 14.4832 17.03C14.4832 17.4709 14.8355 17.8284 15.2702 17.8284Z" fill="#6871EC"/>
</svg>
