<svg width="33" height="41" viewBox="0 0 33 41" fill="none" xmlns="http://www.w3.org/2000/svg">
<g opacity="0.3">
<path opacity="0.3" d="M22.6964 8.30019C21.8079 8.29975 20.9559 7.93754 20.3276 7.29313C19.6993 6.64872 19.3461 5.77484 19.3457 4.86352V0.0935059H4.37291C3.79851 0.0935058 3.22975 0.209562 2.69911 0.435059C2.16846 0.660557 1.68629 0.99107 1.28021 1.40772C0.874124 1.82437 0.552082 2.31899 0.33242 2.86333C0.112757 3.40767 -0.000213147 3.99107 3.01907e-07 4.58019V31.6153C-0.000213147 32.2044 0.112757 32.7878 0.33242 33.3321C0.552082 33.8764 0.874124 34.3711 1.28021 34.7877C1.68629 35.2044 2.16846 35.5349 2.69911 35.7604C3.22975 35.9859 3.79851 36.1019 4.37291 36.1019H22.3454C22.9198 36.1019 23.4886 35.9859 24.0192 35.7604C24.5499 35.5349 25.032 35.2044 25.4381 34.7877C25.8441 34.3711 26.1662 33.8764 26.3859 33.3321C26.6056 32.7878 26.7185 32.2044 26.7183 31.6153V8.30186L22.6964 8.30019Z" fill="#6871EC"/>
</g>
<path d="M26.7184 8.30019H22.6965C21.8079 8.29975 20.9559 7.93754 20.3276 7.29313C19.6993 6.64872 19.3461 5.77484 19.3457 4.86352V0.0935059L26.7184 8.30019Z" fill="#6871EC"/>
<path d="M29.8902 28.5269H9.57119C8.12986 28.5269 6.96143 29.7253 6.96143 31.2035V37.4169C6.96143 38.8952 8.12986 40.0936 9.57119 40.0936H29.8902C31.3315 40.0936 32.4999 38.8952 32.4999 37.4169V31.2035C32.4999 29.7253 31.3315 28.5269 29.8902 28.5269Z" fill="#6871EC"/>
<path d="M13.6857 35.6553V36.8686H12.4622V35.6553H13.6857Z" fill="#F3F4F6"/>
<path d="M17.3178 31.8567V35.28C17.3178 35.8056 17.1785 36.2095 16.9001 36.4917C16.7447 36.6387 16.562 36.7521 16.363 36.8251C16.1639 36.8981 15.9526 36.9293 15.7415 36.9167C15.5104 36.9294 15.279 36.895 15.0609 36.8155C14.8428 36.736 14.6422 36.6129 14.4707 36.4534C14.1577 36.1434 14.0006 35.6989 13.9995 35.12H15.1679C15.1679 35.5884 15.3417 35.8217 15.6862 35.8217C15.9869 35.8217 16.1364 35.6417 16.1364 35.2834V31.86L17.3178 31.8567Z" fill="#F3F4F6"/>
<path d="M19.2773 35.11V36.8684H18.0959V31.8567H20.0102C20.5898 31.8567 21.0318 32.0039 21.3362 32.2984C21.4903 32.4532 21.6106 32.6397 21.6893 32.8457C21.768 33.0517 21.8033 33.2724 21.7928 33.4934C21.7973 33.7846 21.7272 34.0719 21.5897 34.3267C21.4482 34.5752 21.2378 34.7748 20.9852 34.9C20.681 35.0481 20.3468 35.1201 20.0102 35.11H19.2773ZM20.5903 33.4934C20.5903 33.0489 20.3531 32.8267 19.8786 32.8267H19.2773V34.1317H19.8786C20.3531 34.1361 20.5903 33.9234 20.5903 33.4934V33.4934Z" fill="#F3F4F6"/>
<path d="M26.1755 32.2604C26.5689 32.5639 26.8337 33.0108 26.9149 33.5088H25.6637C25.579 33.3344 25.4454 33.1899 25.2801 33.0938C25.094 32.9804 24.8807 32.9226 24.6643 32.9271C24.4962 32.9201 24.3288 32.9511 24.1737 33.0179C24.0187 33.0847 23.8799 33.1857 23.7672 33.3138C23.5289 33.6053 23.4075 33.9789 23.4276 34.3588C23.4276 34.8354 23.5463 35.2016 23.7835 35.4571C23.9169 35.5898 24.0759 35.6924 24.2502 35.7585C24.4246 35.8245 24.6104 35.8524 24.7959 35.8404C25.061 35.8454 25.3206 35.7617 25.5353 35.6021C25.7545 35.4342 25.9129 35.1961 25.9854 34.9254H24.492V34.0538H26.9734V35.2521C26.8786 35.5504 26.7285 35.8272 26.5314 36.0671C26.3179 36.3257 26.0523 36.5338 25.753 36.6771C25.4146 36.8375 25.0451 36.9173 24.6724 36.9105C24.219 36.9227 23.7705 36.8117 23.3724 36.5888C23.0082 36.3787 22.7117 36.0642 22.5193 35.6838C22.3125 35.2719 22.2091 34.8136 22.2186 34.3505C22.2105 33.8901 22.3138 33.4348 22.5193 33.0254C22.7114 32.6459 23.0065 32.3316 23.3691 32.1204C23.7614 31.8993 24.2037 31.7883 24.6512 31.7988C25.1953 31.7744 25.7317 31.9369 26.1755 32.2604V32.2604Z" fill="#F3F4F6"/>
<path d="M16.9489 24.4951H9.77124C9.06858 24.4943 8.39494 24.2076 7.89808 23.698C7.40123 23.1884 7.12171 22.4975 7.12085 21.7768V14.4151C7.12171 13.6944 7.40123 13.0035 7.89808 12.4939C8.39494 11.9843 9.06858 11.6977 9.77124 11.6968H16.9489C17.6514 11.6977 18.3248 11.9844 18.8214 12.494C19.318 13.0037 19.5972 13.6946 19.5976 14.4151V21.7768C19.5972 22.4973 19.318 23.1882 18.8214 23.6979C18.3248 24.2075 17.6514 24.4943 16.9489 24.4951ZM9.77124 12.8984C9.37918 12.8989 9.00328 13.0588 8.72605 13.3432C8.44883 13.6275 8.2929 14.013 8.29247 14.4151V21.7768C8.2929 22.1789 8.44883 22.5644 8.72605 22.8488C9.00328 23.1331 9.37918 23.293 9.77124 23.2935H16.9489C17.3408 23.293 17.7165 23.133 17.9934 22.8487C18.2704 22.5643 18.426 22.1788 18.426 21.7768V14.4151C18.426 14.0132 18.2704 13.6276 17.9934 13.3433C17.7165 13.0589 17.3408 12.8989 16.9489 12.8984H9.77124Z" fill="#6871EC"/>
<path d="M19.0126 20.3768V21.7768C19.0122 22.338 18.7946 22.8761 18.4077 23.273C18.0208 23.6698 17.4961 23.893 16.9489 23.8934H9.77126C9.22392 23.8934 8.699 23.6704 8.31198 23.2735C7.92495 22.8765 7.70752 22.3381 7.70752 21.7768V19.4268C8.8564 19.1734 10.6065 19.0934 12.7304 19.9634L14.0467 18.6768L14.9436 21.0101C14.9436 21.0101 15.1841 20.1518 15.9609 20.2734C16.7376 20.3951 17.9954 20.8268 18.5333 20.4584C18.6782 20.3727 18.8485 20.3437 19.0126 20.3768V20.3768Z" fill="#6871EC"/>
<path d="M16.4985 15.9184C16.9392 15.9184 17.2964 15.552 17.2964 15.1001C17.2964 14.6481 16.9392 14.2817 16.4985 14.2817C16.0579 14.2817 15.7007 14.6481 15.7007 15.1001C15.7007 15.552 16.0579 15.9184 16.4985 15.9184Z" fill="#6871EC"/>
</svg>
