<svg width="33" height="41" viewBox="0 0 33 41" fill="none" xmlns="http://www.w3.org/2000/svg">
<g opacity="0.3">
<path opacity="0.3" d="M22.9472 8.30149C22.049 8.30061 21.1878 7.93825 20.5527 7.29397C19.9175 6.64969 19.5603 5.7761 19.5594 4.86495V0.0935059H4.4212C3.24862 0.0935059 2.12408 0.566025 1.29494 1.40709C0.465807 2.24816 0 3.38886 0 4.5783V31.6138C0.00174127 32.8021 0.468312 33.9411 1.29726 34.7808C2.12621 35.6204 3.24976 36.092 4.4212 36.092H22.594C23.7654 36.092 24.889 35.6204 25.7179 34.7808C26.5469 33.9411 27.0134 32.8021 27.0152 31.6138V8.30149H22.9472Z" fill="#20A1FF"/>
</g>
<path d="M27.0153 8.30149H22.9474C22.0491 8.30061 21.1879 7.93825 20.5528 7.29397C19.9176 6.64968 19.5604 5.7761 19.5596 4.86495V0.0935059L27.0153 8.30149Z" fill="#20A1FF"/>
<path d="M21.4569 25.2324H4.49502C4.33161 25.2324 4.1749 25.1666 4.05936 25.0494C3.94381 24.9321 3.87891 24.7732 3.87891 24.6074C3.87934 24.442 3.94444 24.2834 4.05994 24.1666C4.17543 24.0497 4.3319 23.9841 4.49502 23.9841H21.4569C21.6199 23.9841 21.7762 24.0498 21.8914 24.1667C22.0067 24.2836 22.0714 24.4421 22.0714 24.6074C22.0716 24.6894 22.0559 24.7707 22.0251 24.8465C21.9943 24.9223 21.9491 24.9912 21.892 25.0492C21.8349 25.1073 21.7671 25.1534 21.6925 25.1848C21.6178 25.2162 21.5378 25.2324 21.4569 25.2324Z" fill="#20A1FF"/>
<path d="M21.4569 18.1929H4.49502C4.3319 18.1929 4.17543 18.1272 4.05994 18.0104C3.94444 17.8935 3.87934 17.735 3.87891 17.5696C3.87891 17.4038 3.94381 17.2448 4.05936 17.1276C4.1749 17.0104 4.33161 16.9446 4.49502 16.9446H21.4569C21.5378 16.9446 21.6178 16.9608 21.6925 16.9922C21.7671 17.0236 21.8349 17.0697 21.892 17.1277C21.9491 17.1858 21.9943 17.2547 22.0251 17.3305C22.0559 17.4063 22.0716 17.4876 22.0714 17.5696C22.0714 17.7349 22.0067 17.8934 21.8914 18.0103C21.7762 18.1272 21.6199 18.1929 21.4569 18.1929Z" fill="#20A1FF"/>
<path d="M21.4569 21.7126H4.49502C4.33161 21.7126 4.1749 21.6468 4.05936 21.5296C3.94381 21.4124 3.87891 21.2534 3.87891 21.0877C3.87934 20.9222 3.94444 20.7636 4.05994 20.6468C4.17543 20.53 4.3319 20.4644 4.49502 20.4644H21.4569C21.6199 20.4644 21.7762 20.53 21.8914 20.6469C22.0067 20.7638 22.0714 20.9223 22.0714 21.0877C22.0716 21.1697 22.0559 21.2509 22.0251 21.3267C21.9943 21.4025 21.9491 21.4714 21.892 21.5295C21.8349 21.5876 21.7671 21.6336 21.6925 21.665C21.6178 21.6965 21.5378 21.7126 21.4569 21.7126Z" fill="#20A1FF"/>
<path d="M14.7668 14.6728H4.49502C4.3319 14.6728 4.17543 14.6072 4.05994 14.4904C3.94444 14.3735 3.87934 14.215 3.87891 14.0495C3.87891 13.8838 3.94381 13.7248 4.05936 13.6076C4.1749 13.4904 4.33161 13.4246 4.49502 13.4246H14.7668C14.9299 13.425 15.0862 13.491 15.2014 13.6082C15.3166 13.7253 15.3813 13.8841 15.3813 14.0495C15.3808 14.2147 15.316 14.373 15.2008 14.4898C15.0857 14.6066 14.9296 14.6724 14.7668 14.6728V14.6728Z" fill="#20A1FF"/>
<path d="M14.7668 11.1531H4.49502C4.3319 11.1531 4.17543 11.0874 4.05994 10.9706C3.94444 10.8537 3.87934 10.6952 3.87891 10.5298C3.87891 10.364 3.94381 10.205 4.05936 10.0878C4.1749 9.9706 4.33161 9.90479 4.49502 9.90479H14.7668C14.9299 9.90523 15.0862 9.97125 15.2014 10.0884C15.3166 10.2056 15.3813 10.3643 15.3813 10.5298C15.3808 10.6949 15.316 10.8532 15.2008 10.97C15.0857 11.0868 14.9296 11.1526 14.7668 11.1531Z" fill="#20A1FF"/>
<path d="M30.2207 28.5273H9.67717C8.21991 28.5273 7.03857 29.7257 7.03857 31.2039V37.417C7.03857 38.8952 8.21991 40.0935 9.67717 40.0935H30.2207C31.678 40.0935 32.8593 38.8952 32.8593 37.417V31.2039C32.8593 29.7257 31.678 28.5273 30.2207 28.5273Z" fill="#20A1FF"/>
<path d="M13.7777 35.6555V36.8671H12.5422V35.6555H13.7777Z" fill="#F3F4F6"/>
<path d="M15.5948 35.1087V36.8669H14.4004V31.8555H16.3358C16.9223 31.8555 17.3709 32.0038 17.6781 32.2988C17.8336 32.4537 17.9549 32.6403 18.0342 32.8463C18.1135 33.0522 18.1489 33.2729 18.1381 33.4937C18.1441 33.7851 18.0732 34.0728 17.9328 34.327C17.7893 34.5756 17.5767 34.7756 17.3216 34.902C17.0138 35.0495 16.676 35.1209 16.3358 35.1103L15.5948 35.1087ZM16.9223 33.4937C16.9223 33.0493 16.6825 32.8271 16.2027 32.8271H15.5948V34.132H16.2027C16.6825 34.1365 16.9223 33.9237 16.9223 33.4937Z" fill="#F3F4F6"/>
<path d="M22.8586 35.6588C22.6529 36.0378 22.3422 36.3472 21.9648 36.5488C21.5403 36.7693 21.0682 36.8787 20.5913 36.8671H18.7266V31.8557H20.5913C21.0685 31.8435 21.5413 31.9505 21.9681 32.1673C22.3444 32.3646 22.6544 32.6709 22.8586 33.0473C23.0724 33.4469 23.18 33.896 23.1708 34.3506C23.1797 34.8067 23.0722 35.2573 22.8586 35.6588V35.6588ZM21.5738 35.4072C21.7074 35.2681 21.8108 35.1023 21.8776 34.9204C21.9444 34.7384 21.973 34.5444 21.9616 34.3506C21.973 34.157 21.9445 33.9631 21.8777 33.7815C21.8109 33.5998 21.7074 33.4343 21.5738 33.2956C21.275 33.0296 20.8846 32.8942 20.4878 32.9189H19.921V35.7821H20.4878C20.8843 35.8066 21.2744 35.6719 21.5738 35.4072V35.4072Z" fill="#F3F4F6"/>
<path d="M27.0693 31.8555V32.8204H25.0435V33.9187H26.6076V34.8403H25.0435V36.8669H23.8474V31.8555H27.0693Z" fill="#F3F4F6"/>
<path d="M21.1565 9.90479H18.2517C17.7454 9.90479 17.335 10.3211 17.335 10.8347V13.7813C17.335 14.2949 17.7454 14.7112 18.2517 14.7112H21.1565C21.6628 14.7112 22.0733 14.2949 22.0733 13.7813V10.8347C22.0733 10.3211 21.6628 9.90479 21.1565 9.90479Z" fill="#20A1FF"/>
</svg>
