<svg width="33" height="40" viewBox="0 0 33 40" fill="none" xmlns="http://www.w3.org/2000/svg">
<g opacity="0.3">
<path opacity="0.3" d="M22.9482 8.20668C22.05 8.2058 21.1887 7.84344 20.5536 7.19913C19.9184 6.55482 19.5612 5.6812 19.5603 4.77001V0H4.4214C3.24877 0 2.12418 0.47253 1.295 1.31363C0.465828 2.15473 0 3.29551 0 4.48501V31.5217C0.00174135 32.7101 0.468333 33.8491 1.29732 34.6888C2.1263 35.5285 3.24991 36.0001 4.4214 36.0001H22.595C23.7668 36.0001 24.8906 35.5282 25.7197 34.6882C26.5487 33.8482 27.0151 32.7087 27.0164 31.5201V8.20668H22.9482Z" fill="#6871EC"/>
</g>
<path d="M27.0164 8.20668H22.9482C22.05 8.2058 21.1887 7.84344 20.5536 7.19913C19.9184 6.55482 19.5612 5.6812 19.5603 4.77001V0L27.0164 8.20668Z" fill="#6871EC"/>
<path d="M30.222 28.4333H9.67753C8.22021 28.4333 7.03882 29.6317 7.03882 31.11V37.3234C7.03882 38.8016 8.22021 40 9.67753 40H30.222C31.6793 40 32.8607 38.8016 32.8607 37.3234V31.11C32.8607 29.6317 31.6793 28.4333 30.222 28.4333Z" fill="#6871EC"/>
<path d="M12.9899 35.5618V36.7734H11.7527V35.5618H12.9899Z" fill="#F3F4F6"/>
<path d="M14.807 35.0167V36.7734H13.6108V31.7617H15.5463C16.1345 31.7617 16.582 31.9095 16.8887 32.205C17.0444 32.3599 17.166 32.5465 17.2456 32.7525C17.3251 32.9584 17.3609 33.1791 17.3504 33.4001C17.3555 33.6916 17.2841 33.9792 17.1434 34.2334C17.0007 34.4822 16.7878 34.6819 16.5322 34.8067C16.2248 34.9555 15.8867 35.0274 15.5463 35.0167H14.807ZM16.1345 33.4001C16.1345 32.9556 15.8947 32.7334 15.4149 32.7334H14.807V34.0384H15.4149C15.8947 34.0428 16.1345 33.8301 16.1345 33.4001V33.4001Z" fill="#F3F4F6"/>
<path d="M22.3255 36.7734H21.131L19.1298 33.6967V36.7734H17.9353V31.7617H19.1298L21.1294 34.8667V31.7617H22.3238L22.3255 36.7734Z" fill="#F3F4F6"/>
<path d="M26.9932 32.1666C27.3919 32.4692 27.6598 32.9165 27.7408 33.4149H26.4757C26.3927 33.2364 26.2595 33.0868 26.0929 32.9849C25.9046 32.8717 25.689 32.814 25.4702 32.8182C25.3002 32.8111 25.1307 32.8419 24.9737 32.9084C24.8167 32.9749 24.676 33.0756 24.5616 33.2033C24.3215 33.4959 24.1994 33.8698 24.2198 34.2499C24.2198 34.7266 24.3397 35.0927 24.5796 35.3483C24.7145 35.481 24.8752 35.5837 25.0515 35.6497C25.2278 35.7158 25.4157 35.7436 25.6032 35.7316C25.8713 35.7363 26.1336 35.6527 26.3508 35.4933C26.5721 35.3252 26.7317 35.0871 26.8043 34.8166H25.296V33.9449H27.8049V35.1666C27.7077 35.4647 27.5555 35.7413 27.3564 35.9816C27.1413 36.2403 26.8733 36.4484 26.571 36.5916C26.2283 36.7521 25.8542 36.8319 25.4767 36.8249C25.0181 36.8367 24.5646 36.7251 24.1623 36.5016C23.7941 36.2922 23.4943 35.9782 23.2997 35.5983C23.0915 35.1891 22.987 34.7337 22.9958 34.2733C22.9859 33.8101 23.0904 33.3517 23.2997 32.9399C23.494 32.5609 23.7925 32.2471 24.159 32.0366C24.5555 31.815 25.0028 31.7041 25.4554 31.7149C26.0033 31.6877 26.5445 31.8466 26.9932 32.1666V32.1666Z" fill="#F3F4F6"/>
<path d="M8.98744 11.1201H6.72827V13.4118H8.98744V11.1201Z" fill="#6871EC"/>
<path d="M11.2482 13.4114H8.98901V15.703H11.2482V13.4114Z" fill="#6871EC"/>
<path d="M13.5075 11.1201H11.2483V13.4118H13.5075V11.1201Z" fill="#6871EC"/>
<path d="M15.7665 13.4114H13.5073V15.703H15.7665V13.4114Z" fill="#6871EC"/>
<path d="M18.0289 11.1201H15.7698V13.4118H18.0289V11.1201Z" fill="#6871EC"/>
<path d="M20.2882 13.4114H18.0291V15.703H20.2882V13.4114Z" fill="#6871EC"/>
<path d="M8.98744 15.6997H6.72827V17.9914H8.98744V15.6997Z" fill="#6871EC"/>
<path d="M11.2482 17.9917H8.98901V20.2834H11.2482V17.9917Z" fill="#6871EC"/>
<path d="M13.5075 15.6997H11.2483V17.9914H13.5075V15.6997Z" fill="#6871EC"/>
<path d="M15.7665 17.9917H13.5073V20.2834H15.7665V17.9917Z" fill="#6871EC"/>
<path d="M18.0289 15.6997H15.7698V17.9914H18.0289V15.6997Z" fill="#6871EC"/>
<path d="M20.2882 17.9917H18.0291V20.2834H20.2882V17.9917Z" fill="#6871EC"/>
<path d="M8.98744 20.3018H6.72827V22.5934H8.98744V20.3018Z" fill="#6871EC"/>
<path d="M11.2482 22.5933H8.98901V24.8849H11.2482V22.5933Z" fill="#6871EC"/>
<path d="M13.5075 20.3018H11.2483V22.5934H13.5075V20.3018Z" fill="#6871EC"/>
<path d="M15.7665 22.5933H13.5073V24.8849H15.7665V22.5933Z" fill="#6871EC"/>
<path d="M18.0289 20.3018H15.7698V22.5934H18.0289V20.3018Z" fill="#6871EC"/>
<path d="M20.2882 22.5933H18.0291V24.8849H20.2882V22.5933Z" fill="#6871EC"/>
</svg>
