<svg width="33" height="41" viewBox="0 0 33 41" fill="none" xmlns="http://www.w3.org/2000/svg">
<g opacity="0.3">
<path opacity="0.3" d="M22.9472 8.3015C22.049 8.30061 21.1878 7.93825 20.5526 7.29397C19.9175 6.64969 19.5603 5.7761 19.5595 4.86495V0.0935059H4.42119C3.24861 0.0935059 2.12409 0.566025 1.29495 1.40709C0.465817 2.24816 0 3.38886 0 4.5783V31.6138C0 32.8033 0.465817 33.944 1.29495 34.7851C2.12409 35.6262 3.24861 36.0987 4.42119 36.0987H22.5923C23.1731 36.0989 23.7482 35.983 24.2848 35.7577C24.8214 35.5325 25.3089 35.2022 25.7197 34.7857C26.1304 34.3692 26.4562 33.8747 26.6785 33.3305C26.9008 32.7863 27.0152 32.2029 27.0152 31.6138V8.3015H22.9472Z" fill="#20A1FF"/>
</g>
<path d="M27.0151 8.30149H22.9471C22.0489 8.30061 21.1877 7.93825 20.5525 7.29397C19.9174 6.64969 19.5602 5.7761 19.5593 4.86495V0.0935059L27.0151 8.30149Z" fill="#20A1FF"/>
<path d="M30.2205 28.5273H9.67689C8.21964 28.5273 7.03833 29.7257 7.03833 31.2039V37.417C7.03833 38.8952 8.21964 40.0935 9.67689 40.0935H30.2205C31.6777 40.0935 32.8591 38.8952 32.8591 37.417V31.2039C32.8591 29.7257 31.6777 28.5273 30.2205 28.5273Z" fill="#20A1FF"/>
<path d="M14.2608 35.6555V36.8671H13.0237V35.6555H14.2608Z" fill="#F3F4F6"/>
<path d="M16.078 35.1087V36.8669H14.8835V31.8555H16.819C17.406 31.8555 17.8529 32.0032 18.1596 32.2988C18.3153 32.4537 18.4369 32.6402 18.5165 32.8461C18.596 33.0521 18.6318 33.2728 18.6213 33.4937C18.6265 33.785 18.5556 34.0725 18.4159 34.327C18.2723 34.576 18.059 34.7761 17.8031 34.902C17.4956 35.0502 17.1576 35.1216 16.8173 35.1103L16.078 35.1087ZM17.4055 33.4937C17.4055 33.0493 17.1656 32.8271 16.6859 32.8271H16.078V34.132H16.6859C17.1656 34.1365 17.4055 33.9237 17.4055 33.4937Z" fill="#F3F4F6"/>
<path d="M20.4038 35.1087V36.8669H19.2078V31.8555H21.1432C21.7314 31.8555 22.1788 32.0032 22.4855 32.2988C22.6412 32.4537 22.7628 32.6402 22.8423 32.8461C22.9219 33.0521 22.9576 33.2728 22.9471 33.4937C22.9525 33.7852 22.8811 34.0729 22.7401 34.327C22.5976 34.5763 22.3847 34.7765 22.129 34.902C21.8214 35.0502 21.4834 35.1216 21.1432 35.1103L20.4038 35.1087ZM21.7314 33.4937C21.7314 33.0493 21.4915 32.8271 21.0117 32.8271H20.4038V34.132H21.0117C21.4915 34.1365 21.7314 33.9237 21.7314 33.4937Z" fill="#F3F4F6"/>
<path d="M27.0844 31.8555V32.8204H25.7421V36.8669H24.5411V32.8204H23.2119V31.8555H27.0844Z" fill="#F3F4F6"/>
<path d="M12.2712 14.0481H5.09316C4.93004 14.0481 4.77357 13.9825 4.65807 13.8656C4.54258 13.7488 4.47749 13.5902 4.47705 13.4248C4.47705 13.259 4.54197 13.1001 4.65751 12.9829C4.77305 12.8657 4.92976 12.7998 5.09316 12.7998H12.2647C12.4281 12.7998 12.5848 12.8657 12.7004 12.9829C12.8159 13.1001 12.8808 13.259 12.8808 13.4248C12.8804 13.5891 12.8162 13.7466 12.7021 13.8633C12.588 13.9799 12.4332 14.0463 12.2712 14.0481V14.0481Z" fill="#20A1FF"/>
<path d="M12.2712 17.7761H5.09316C4.93004 17.7761 4.77357 17.7105 4.65807 17.5936C4.54258 17.4768 4.47749 17.3183 4.47705 17.1528C4.47705 16.9871 4.54197 16.8281 4.65751 16.7108C4.77305 16.5936 4.92976 16.5278 5.09316 16.5278H12.2647C12.4281 16.5278 12.5848 16.5936 12.7004 16.7108C12.8159 16.8281 12.8808 16.9871 12.8808 17.1528C12.8804 17.3171 12.8162 17.4746 12.7021 17.5913C12.588 17.708 12.4332 17.7744 12.2712 17.7761V17.7761Z" fill="#20A1FF"/>
<path d="M12.2712 21.5045H5.09316C4.92976 21.5045 4.77305 21.4386 4.65751 21.3214C4.54197 21.2042 4.47705 21.0452 4.47705 20.8795C4.47835 20.7146 4.54383 20.5569 4.65924 20.4408C4.77464 20.3247 4.93061 20.2595 5.09316 20.2595H12.2647C12.4278 20.2595 12.5843 20.3251 12.6998 20.442C12.8153 20.5588 12.8803 20.7174 12.8808 20.8828C12.8799 21.0469 12.8156 21.204 12.7015 21.3203C12.5875 21.4366 12.4329 21.5027 12.2712 21.5045V21.5045Z" fill="#20A1FF"/>
<path d="M12.2712 25.2324H5.09316C4.92976 25.2324 4.77305 25.1666 4.65751 25.0494C4.54197 24.9321 4.47705 24.7732 4.47705 24.6074C4.47749 24.442 4.54258 24.2834 4.65807 24.1666C4.77357 24.0497 4.93004 23.9841 5.09316 23.9841H12.2647C12.4278 23.9841 12.5843 24.0497 12.6998 24.1666C12.8153 24.2834 12.8803 24.442 12.8808 24.6074C12.8808 24.772 12.8168 24.93 12.7027 25.047C12.5886 25.164 12.4335 25.2307 12.2712 25.2324V25.2324Z" fill="#20A1FF"/>
<path d="M19.2636 19.7592V14.2195C17.9331 14.2907 16.6803 14.877 15.7633 15.8574C14.8463 16.8379 14.335 18.1378 14.3347 19.4892C14.3345 20.1822 14.4689 20.8685 14.7302 21.5087C14.9915 22.149 15.3747 22.7308 15.8577 23.2208C16.3408 23.7108 16.9143 24.0994 17.5455 24.3645C18.1767 24.6296 18.8532 24.7659 19.5363 24.7657C20.8686 24.7658 22.1501 24.2472 23.1165 23.3169C24.0828 22.3866 24.6603 21.1155 24.7297 19.7659L19.2636 19.7592Z" fill="#20A1FF"/>
<path d="M20.2593 13.7979V18.7976H25.1882C25.1223 17.4932 24.5819 16.26 23.6714 15.3364C22.761 14.4128 21.5452 13.8646 20.2593 13.7979V13.7979Z" fill="#20A1FF"/>
</svg>
