<svg width="33" height="41" viewBox="0 0 33 41" fill="none" xmlns="http://www.w3.org/2000/svg">
<g opacity="0.3">
<path opacity="0.3" d="M22.9473 8.25562C22.0489 8.25429 21.1877 7.89158 20.5526 7.24703C19.9175 6.60248 19.5604 5.72873 19.5595 4.81742V0.0476077H4.42287C3.84213 0.0473888 3.26702 0.163231 2.73043 0.388516C2.19383 0.613802 1.70624 0.944109 1.29552 1.36058C0.884797 1.77706 0.558985 2.27154 0.336695 2.81577C0.114406 3.36 -4.00982e-08 3.94334 0 4.53244V31.568C-4.00982e-08 32.1571 0.114406 32.7404 0.336695 33.2847C0.558985 33.8289 0.884797 34.3234 1.29552 34.7399C1.70624 35.1563 2.19383 35.4867 2.73043 35.712C3.26702 35.9372 3.84213 36.0531 4.42287 36.0529H22.5941C23.7666 36.0529 24.8912 35.5803 25.7203 34.7393C26.5495 33.8982 27.0153 32.7575 27.0153 31.568V8.25562H22.9473Z" fill="#FFA120"/>
</g>
<path d="M27.0153 8.25562H22.9474C22.049 8.25429 21.1878 7.89158 20.5527 7.24703C19.9176 6.60248 19.5604 5.72873 19.5596 4.81742V0.0476074L27.0153 8.25562Z" fill="#FFA120"/>
<path d="M30.2223 28.4814H9.67864C8.22138 28.4814 7.04004 29.6798 7.04004 31.158V37.3711C7.04004 38.8493 8.22138 40.0477 9.67864 40.0477H30.2223C31.6795 40.0477 32.8609 38.8493 32.8609 37.3711V31.158C32.8609 29.6798 31.6795 28.4814 30.2223 28.4814Z" fill="#FFA120"/>
<path d="M13.4574 35.6096V36.8212H12.2202V35.6096H13.4574Z" fill="#F3F4F6"/>
<path d="M16.6171 36.8212L15.5475 34.9279H15.2748V36.8212H14.0803V31.8097H16.1209C16.4606 31.8003 16.798 31.8704 17.1067 32.0147C17.3601 32.1369 17.5717 32.333 17.7146 32.578C17.8521 32.8284 17.9218 33.1113 17.9166 33.398C17.9263 33.7329 17.8212 34.061 17.6193 34.3263C17.3993 34.5957 17.0948 34.7804 16.7567 34.8496L17.9314 36.8212H16.6171ZM15.2748 34.0996H16.0157C16.205 34.114 16.3926 34.0544 16.5399 33.9329C16.5982 33.8703 16.643 33.796 16.6713 33.7148C16.6996 33.6335 16.7108 33.5472 16.7042 33.4613C16.7096 33.376 16.6978 33.2905 16.6696 33.21C16.6413 33.1294 16.5972 33.0556 16.5399 32.993C16.3946 32.8702 16.2075 32.8103 16.019 32.8263H15.278L15.2748 34.0996Z" fill="#F3F4F6"/>
<path d="M21.5853 35.9062H19.7337L19.4248 36.8212H18.168L19.9752 31.8447H21.3504L23.1577 36.8212H21.886L21.5853 35.9062ZM21.2781 34.9846L20.662 33.1413L20.041 34.9846H21.2781Z" fill="#F3F4F6"/>
<path d="M26.1625 36.8212L25.0929 34.9279H24.8202V36.8212H23.6257V31.8097H25.6663C26.0061 31.8003 26.3434 31.8704 26.6521 32.0147C26.9055 32.1369 27.1171 32.333 27.26 32.578C27.3975 32.8284 27.4673 33.1113 27.4621 33.398C27.4717 33.7329 27.3666 34.061 27.1647 34.3263C26.9447 34.5957 26.6402 34.7804 26.3021 34.8496L27.4769 36.8212H26.1625ZM24.8202 34.0996H25.5611C25.7504 34.1137 25.9378 34.0541 26.0853 33.9329C26.1436 33.8703 26.1884 33.796 26.2167 33.7148C26.245 33.6335 26.2562 33.5472 26.2496 33.4613C26.255 33.376 26.2433 33.2905 26.215 33.21C26.1868 33.1294 26.1426 33.0556 26.0853 32.993C25.94 32.8702 25.7529 32.8103 25.5644 32.8263H24.8235L24.8202 34.0996Z" fill="#F3F4F6"/>
<path d="M15.6031 25.1865H5.33126C5.16815 25.1861 5.01186 25.12 4.89668 25.0029C4.78149 24.8857 4.7168 24.727 4.7168 24.5615C4.7168 24.3962 4.78154 24.2377 4.89678 24.1208C5.01201 24.0039 5.1683 23.9382 5.33126 23.9382H15.6031C15.6839 23.938 15.764 23.954 15.8387 23.9852C15.9135 24.0164 15.9814 24.0623 16.0386 24.1202C16.0959 24.1781 16.1413 24.2469 16.1723 24.3226C16.2032 24.3984 16.2192 24.4795 16.2192 24.5615C16.2192 24.7273 16.1543 24.8863 16.0387 25.0035C15.9232 25.1207 15.7665 25.1865 15.6031 25.1865Z" fill="#FFA120"/>
<path d="M15.6031 21.5051H5.33126C5.16815 21.5047 5.01186 21.4386 4.89668 21.3215C4.78149 21.2043 4.7168 21.0456 4.7168 20.8801C4.71723 20.715 4.78212 20.5567 4.89726 20.4399C5.0124 20.3231 5.16843 20.2573 5.33126 20.2568H15.6031C15.7662 20.2568 15.9227 20.3225 16.0382 20.4393C16.1537 20.5561 16.2188 20.7147 16.2192 20.8801C16.2192 21.0459 16.1543 21.2049 16.0387 21.3221C15.9232 21.4393 15.7665 21.5051 15.6031 21.5051Z" fill="#FFA120"/>
<path d="M15.6031 17.8237H5.33126C5.1683 17.8237 5.01201 17.758 4.89678 17.6412C4.78154 17.5243 4.7168 17.3657 4.7168 17.2004C4.7168 17.0349 4.78149 16.8762 4.89668 16.7591C5.01186 16.6419 5.16815 16.5759 5.33126 16.5754H15.6031C15.7665 16.5754 15.9232 16.6413 16.0387 16.7585C16.1543 16.8757 16.2192 17.0347 16.2192 17.2004C16.2192 17.2824 16.2032 17.3636 16.1723 17.4393C16.1413 17.515 16.0959 17.5838 16.0386 17.6417C15.9814 17.6996 15.9135 17.7455 15.8387 17.7767C15.764 17.808 15.6839 17.8239 15.6031 17.8237V17.8237Z" fill="#FFA120"/>
<path d="M15.6031 14.1421H5.33126C5.1683 14.1421 5.01201 14.0765 4.89678 13.9596C4.78154 13.8427 4.7168 13.6841 4.7168 13.5188C4.7168 13.3535 4.78154 13.195 4.89678 13.0781C5.01201 12.9612 5.1683 12.8955 5.33126 12.8955H15.6031C15.6839 12.8953 15.764 12.9113 15.8387 12.9425C15.9135 12.9737 15.9814 13.0196 16.0386 13.0775C16.0959 13.1354 16.1413 13.2042 16.1723 13.2799C16.2032 13.3556 16.2192 13.4368 16.2192 13.5188C16.2192 13.6008 16.2032 13.682 16.1723 13.7577C16.1413 13.8335 16.0959 13.9023 16.0386 13.9602C15.9814 14.0181 15.9135 14.0639 15.8387 14.0952C15.764 14.1264 15.6839 14.1423 15.6031 14.1421V14.1421Z" fill="#FFA120"/>
<path d="M20.2102 25.4667C19.6574 25.4662 19.1273 25.2432 18.7364 24.8467C18.3455 24.4502 18.1257 23.9125 18.1252 23.3517V21.2368H22.2934V23.3517C22.293 23.9122 22.0734 24.4497 21.6829 24.8461C21.2923 25.2426 20.7627 25.4658 20.2102 25.4667V25.4667ZM19.1915 22.3184V23.3517C19.192 23.6256 19.2994 23.8882 19.4904 24.0819C19.6813 24.2756 19.9402 24.3846 20.2102 24.385C20.4802 24.3846 20.739 24.2756 20.93 24.0819C21.1209 23.8882 21.2284 23.6256 21.2288 23.3517V22.3184H19.1915Z" fill="#FFA120"/>
<path d="M18.125 21.2385H20.2148V19.1186H18.125V21.2385Z" fill="#FFA120"/>
<path d="M20.2085 19.1204H22.2983V17.0004H20.2085V19.1204Z" fill="#FFA120"/>
<path d="M18.125 17.0017H20.2148V14.8818H18.125V17.0017Z" fill="#FFA120"/>
<path d="M20.2085 14.8835H22.2983V12.7636H20.2085V14.8835Z" fill="#FFA120"/>
</svg>
