<svg width="33" height="41" viewBox="0 0 33 41" fill="none" xmlns="http://www.w3.org/2000/svg">
<g opacity="0.3">
<path opacity="0.3" d="M22.9472 8.3015C22.0488 8.30061 21.1875 7.93833 20.552 7.29409C19.9166 6.64986 19.5591 5.77626 19.5578 4.86495V0.0935059H4.42119C3.24862 0.0935059 2.12405 0.566025 1.29491 1.40709C0.465777 2.24816 0 3.38886 0 4.5783V31.6138C0 32.8033 0.465777 33.944 1.29491 34.7851C2.12405 35.6262 3.24862 36.0987 4.42119 36.0987H22.5924C23.7649 36.0987 24.8895 35.6262 25.7186 34.7851C26.5477 33.944 27.0135 32.8033 27.0135 31.6138V8.3015H22.9472Z" fill="#F47975"/>
</g>
<path d="M27.0136 8.3015H22.9473C22.0489 8.30061 21.1875 7.93833 20.5521 7.29409C19.9167 6.64986 19.5592 5.77626 19.5579 4.86495V0.0935059L27.0136 8.3015Z" fill="#F47975"/>
<path d="M21.4569 14.0481H4.49337C4.33054 14.0476 4.17451 13.9818 4.05937 13.865C3.94423 13.7482 3.87934 13.59 3.87891 13.4248C3.87891 13.2593 3.94358 13.1006 4.05877 12.9834C4.17395 12.8663 4.33025 12.8002 4.49337 12.7998H21.4569C21.6201 12.8002 21.7764 12.8663 21.8915 12.9834C22.0067 13.1006 22.0714 13.2593 22.0714 13.4248C22.071 13.59 22.0061 13.7482 21.8909 13.865C21.7758 13.9818 21.6198 14.0476 21.4569 14.0481V14.0481Z" fill="#F47975"/>
<path d="M21.4569 17.7761H4.49337C4.33054 17.7757 4.17451 17.7099 4.05937 17.5931C3.94423 17.4763 3.87934 17.318 3.87891 17.1528C3.87891 16.9873 3.94358 16.8286 4.05877 16.7115C4.17395 16.5943 4.33025 16.5283 4.49337 16.5278H21.4569C21.6201 16.5283 21.7764 16.5943 21.8915 16.7115C22.0067 16.8286 22.0714 16.9873 22.0714 17.1528C22.071 17.318 22.0061 17.4763 21.8909 17.5931C21.7758 17.7099 21.6198 17.7757 21.4569 17.7761V17.7761Z" fill="#F47975"/>
<path d="M21.4569 21.5044H4.49337C4.33025 21.5039 4.17395 21.4379 4.05877 21.3208C3.94358 21.2036 3.87891 21.0449 3.87891 20.8794C3.87934 20.7142 3.94423 20.556 4.05937 20.4392C4.17451 20.3224 4.33054 20.2565 4.49337 20.2561H21.4569C21.6198 20.2565 21.7758 20.3224 21.8909 20.4392C22.0061 20.556 22.071 20.7142 22.0714 20.8794C22.0714 21.0449 22.0067 21.2036 21.8915 21.3208C21.7764 21.4379 21.6201 21.5039 21.4569 21.5044V21.5044Z" fill="#F47975"/>
<path d="M21.4569 25.2309H4.49337C4.33041 25.2309 4.17412 25.1653 4.05889 25.0484C3.94365 24.9315 3.87891 24.773 3.87891 24.6076C3.87891 24.4422 3.94358 24.2835 4.05877 24.1663C4.17395 24.0491 4.33025 23.9831 4.49337 23.9827H21.4569C21.6201 23.9831 21.7764 24.0491 21.8915 24.1663C22.0067 24.2835 22.0714 24.4422 22.0714 24.6076C22.0714 24.773 22.0067 24.9315 21.8914 25.0484C21.7762 25.1653 21.6199 25.2309 21.4569 25.2309V25.2309Z" fill="#F47975"/>
<path d="M30.2205 28.5273H9.67693C8.21968 28.5273 7.03833 29.7257 7.03833 31.2039V37.417C7.03833 38.8952 8.21968 40.0935 9.67693 40.0935H30.2205C31.6778 40.0935 32.8591 38.8952 32.8591 37.417V31.2039C32.8591 29.7257 31.6778 28.5273 30.2205 28.5273Z" fill="#F47975"/>
<path d="M14.0572 35.6555V36.8671H12.8201V35.6555H14.0572Z" fill="#F3F4F6"/>
<path d="M18.2287 31.8555V32.8204H16.8863V36.8669H15.6854V32.8204H14.3562V31.8555H18.2287Z" fill="#F3F4F6"/>
<path d="M21.73 36.8669L20.6883 35.307L19.7929 36.8669H18.4243L20.0032 34.287L18.375 31.8555H19.7929L20.8066 33.3654L21.6807 31.8555H23.0427L21.4851 34.3787L23.1478 36.8669H21.73Z" fill="#F3F4F6"/>
<path d="M27.1581 31.8555V32.8204H25.8175V36.8669H24.6148V32.8204H23.2874V31.8555H27.1581Z" fill="#F3F4F6"/>
</svg>
