<svg width="33" height="40" viewBox="0 0 33 40" fill="none" xmlns="http://www.w3.org/2000/svg">
<g opacity="0.3">
<path opacity="0.3" d="M22.9473 8.20799C22.049 8.20711 21.1878 7.84475 20.5527 7.20046C19.9175 6.55618 19.5603 5.6826 19.5595 4.77145V0H4.42123C3.24866 0 2.12409 0.472519 1.29495 1.31358C0.465817 2.15465 0 3.29535 0 4.4848V31.5203C0 32.7098 0.465817 33.8505 1.29495 34.6916C2.12409 35.5326 3.24866 36.0052 4.42123 36.0052H22.5924C23.7649 36.0052 24.8895 35.5326 25.7186 34.6916C26.5478 33.8505 27.0136 32.7098 27.0136 31.5203V8.20799H22.9473Z" fill="#4EC275"/>
</g>
<path d="M27.0135 8.20799H22.9471C22.0489 8.20711 21.1877 7.84474 20.5526 7.20046C19.9174 6.55618 19.5602 5.6826 19.5593 4.77145V0L27.0135 8.20799Z" fill="#4EC275"/>
<path d="M30.2023 28H9.51605C8.04868 28 6.85913 29.2433 6.85913 30.7769V37.2231C6.85913 38.7567 8.04868 40 9.51605 40H30.2023C31.6696 40 32.8591 38.7567 32.8591 37.2231V30.7769C32.8591 29.2433 31.6696 28 30.2023 28Z" fill="#4EC275"/>
<path d="M11.8307 35.1355V36.3471H10.5935V35.1355H11.8307Z" fill="#F3F4F6"/>
<path d="M15.6838 36.3471L14.6439 34.7872L13.7485 36.3471H12.3799L13.9587 33.7672L12.3306 31.3357H13.7485L14.7622 32.8456L15.6362 31.3357H16.9982L15.4407 33.8589L17.1034 36.3471H15.6838Z" fill="#F3F4F6"/>
<path d="M18.7963 35.4189H20.3965V36.3471H17.6035V31.3357H18.7996L18.7963 35.4189Z" fill="#F3F4F6"/>
<path d="M24.3958 35.6153C24.254 35.8454 24.0505 36.0298 23.8092 36.1469C23.5155 36.2864 23.1937 36.3544 22.8694 36.3452C22.3803 36.366 21.8983 36.2212 21.4992 35.9336C21.3227 35.7992 21.1783 35.6262 21.0768 35.4274C20.9752 35.2286 20.9191 35.0091 20.9127 34.7853H22.1843C22.1934 34.9541 22.2643 35.1134 22.3831 35.232C22.5014 35.3438 22.6585 35.4037 22.8201 35.3986C22.886 35.4025 22.952 35.3932 23.0143 35.3712C23.0766 35.3492 23.1341 35.3149 23.1833 35.2703C23.2271 35.2272 23.2616 35.1753 23.2845 35.1179C23.3074 35.0605 23.3182 34.9989 23.3163 34.937C23.318 34.8782 23.3079 34.8198 23.2867 34.7651C23.2656 34.7104 23.2337 34.6606 23.1931 34.6187C23.1061 34.5294 23.0029 34.4581 22.8892 34.4087C22.7698 34.3553 22.6022 34.2903 22.3864 34.2136C22.1246 34.1261 21.8688 34.0209 21.6208 33.8987C21.417 33.7922 21.2421 33.6365 21.1115 33.4454C20.9599 33.214 20.8851 32.9396 20.8979 32.6621C20.892 32.3871 20.97 32.117 21.1214 31.8888C21.2768 31.6658 21.4916 31.4923 21.7408 31.3888C22.0279 31.2703 22.3362 31.2136 22.646 31.2221C23.1165 31.1958 23.5813 31.3367 23.9604 31.6205C24.1218 31.7536 24.2539 31.9195 24.3484 32.1075C24.4429 32.2954 24.4976 32.5014 24.5091 32.712H23.2161C23.2017 32.5646 23.1393 32.4262 23.0387 32.3187C22.9873 32.2688 22.9264 32.23 22.8597 32.2048C22.7931 32.1796 22.722 32.1684 22.651 32.1721C22.5277 32.1664 22.4067 32.2067 22.3109 32.2854C22.2666 32.328 22.2322 32.3799 22.21 32.4375C22.1879 32.4951 22.1785 32.557 22.1827 32.6187C22.1802 32.7308 22.2215 32.8392 22.2977 32.9204C22.3794 33.007 22.4779 33.0756 22.5869 33.1221C22.7035 33.1737 22.8711 33.2404 23.0896 33.3204C23.3562 33.4085 23.6159 33.5165 23.8667 33.6437C24.0716 33.7558 24.2481 33.9143 24.3826 34.107C24.5359 34.3421 24.6119 34.6204 24.5995 34.902C24.5973 35.1542 24.5268 35.4009 24.3958 35.6153V35.6153Z" fill="#F3F4F6"/>
<path d="M28.4541 36.3471L27.4141 34.7872L26.5187 36.3471H25.1501L26.729 33.7672L25.1008 31.3357H26.5187L27.5324 32.8456L28.4065 31.3357H29.7685L28.2109 33.8589L29.8736 36.3471H28.4541Z" fill="#F3F4F6"/>
<path d="M19.5331 25.139H7.48693C6.44365 25.139 5.59424 24.0857 5.59424 22.789V13.9244C5.59424 12.6295 6.44365 11.5762 7.48693 11.5762H19.5381C20.5797 11.5762 21.4291 12.6295 21.4291 13.9244V22.789C21.4242 24.0857 20.5748 25.139 19.5331 25.139ZM7.48693 12.7761C6.97597 12.7761 6.56196 13.2911 6.56196 13.9244V22.789C6.56196 23.4223 6.97597 23.9373 7.48693 23.9373H19.5381C20.0474 23.9373 20.4614 23.4223 20.4614 22.789V13.9244C20.4614 13.2911 20.0474 12.7761 19.5381 12.7761H7.48693Z" fill="#4EC275"/>
<path d="M20.9411 19.8008H6.07397V21.0024H20.9411V19.8008Z" fill="#4EC275"/>
<path d="M20.9411 15.6812H6.07397V16.8828H20.9411V15.6812Z" fill="#4EC275"/>
<path d="M17.1328 12.1763H15.9482V24.5374H17.1328V12.1763Z" fill="#4EC275"/>
<path d="M11.0654 12.1763H9.88086V24.5374H11.0654V12.1763Z" fill="#4EC275"/>
</svg>
