<svg width="33" height="40" viewBox="0 0 33 40" fill="none" xmlns="http://www.w3.org/2000/svg">
<g opacity="0.3">
<path opacity="0.3" d="M22.9483 8.20669C22.05 8.20581 21.1888 7.84345 20.5536 7.19914C19.9184 6.55483 19.5612 5.68121 19.5603 4.77001V0H4.42143C3.2488 0 2.12419 0.472525 1.29501 1.31363C0.465838 2.15473 0 3.29552 0 4.48501V31.5218C0.00174135 32.7101 0.468354 33.8492 1.29734 34.6888C2.12632 35.5285 3.24994 36.0001 4.42143 36.0001H22.5934C23.766 36.0001 24.8906 35.5276 25.7198 34.6865C26.549 33.8454 27.0148 32.7046 27.0148 31.5151V8.20669H22.9483Z" fill="#4EC275"/>
</g>
<path d="M27.0148 8.20669H22.9483C22.05 8.20581 21.1888 7.84345 20.5536 7.19914C19.9184 6.55483 19.5612 5.68121 19.5603 4.77001V0L27.0148 8.20669Z" fill="#4EC275"/>
<path d="M30.222 28.4333H9.67754C8.22022 28.4333 7.03882 29.6317 7.03882 31.11V37.3233C7.03882 38.8016 8.22022 40 9.67754 40H30.222C31.6794 40 32.8607 38.8016 32.8607 37.3233V31.11C32.8607 29.6317 31.6794 28.4333 30.222 28.4333Z" fill="#4EC275"/>
<path d="M13.2824 35.5618V36.7734H12.0452V35.5618H13.2824Z" fill="#F3F4F6"/>
<path d="M16.902 36.7734L15.8603 35.2134L14.9665 36.7734H13.5962L15.1769 34.1934L13.5486 31.7617H14.9665L15.9803 33.2717L16.8527 31.7617H18.2165L16.6572 34.2851L18.3216 36.7734H16.902Z" fill="#F3F4F6"/>
<path d="M24.3382 31.7969V36.7736H23.1421V33.6669L22.0807 36.7786H21.0456L19.9776 33.6602V36.7786H18.7815V31.8019H20.2421L21.5779 35.2686L22.8841 31.8019L24.3382 31.7969Z" fill="#F3F4F6"/>
<path d="M26.3576 35.8451H27.9514V36.7734H25.1582V31.7617H26.3543L26.3576 35.8451Z" fill="#F3F4F6"/>
<path d="M6.65593 19.0316C6.65365 18.96 6.67506 18.8896 6.71674 18.8316C6.76658 18.7667 6.82648 18.7104 6.89416 18.665C6.99665 18.6112 7.10262 18.5644 7.21129 18.525L7.52839 18.3916L8.79681 17.85C8.97316 17.7666 9.30176 17.6278 9.78263 17.4333L10.3856 17.1833L10.6025 17.105L10.6403 17.0883C10.6506 17.0861 10.6612 17.0861 10.6715 17.0883C10.6958 17.0774 10.7222 17.0717 10.7488 17.0716C10.7996 17.0688 10.8506 17.0763 10.8985 17.0938C10.9465 17.1112 10.9906 17.1383 11.0281 17.1733C11.0599 17.2037 11.0851 17.2404 11.1024 17.2811C11.1196 17.3218 11.1284 17.3657 11.1283 17.41V17.8333C11.1267 17.9119 11.1027 17.9883 11.0593 18.0533C11.0136 18.1259 10.9454 18.181 10.8654 18.21L8.27433 19.285L10.8654 20.36C10.9425 20.3923 11.0095 20.4453 11.0593 20.5133C11.1044 20.5756 11.1286 20.651 11.1283 20.7283V21.1517C11.1283 21.1964 11.1194 21.2408 11.1022 21.282C11.085 21.3232 11.0598 21.3605 11.0281 21.3917C10.9912 21.4278 10.9473 21.4557 10.8992 21.4738C10.8511 21.4919 10.7999 21.4997 10.7488 21.4967C10.7223 21.4964 10.6961 21.4913 10.6715 21.4817L10.6025 21.4583L10.3856 21.38L9.78756 21.1333L8.80174 20.7183L7.53332 20.1766L7.21623 20.0433C7.11436 20.0016 7.00753 19.955 6.89909 19.9016C6.8318 19.8698 6.77418 19.8202 6.73226 19.7581C6.69035 19.6959 6.66569 19.6235 6.66086 19.5483L6.65593 19.0316Z" fill="#4EC275"/>
<path d="M14.3964 21.9501C14.3142 21.9521 14.2329 21.9321 14.1608 21.892C14.0886 21.8519 14.0282 21.7931 13.9857 21.7217C13.9504 21.6703 13.9222 21.6142 13.9019 21.5551L13.8477 21.4067L12.6647 18.7551L12.5792 18.5584C12.4807 18.3451 12.2901 17.9217 12.0075 17.2884C11.6405 16.4828 11.457 16.0412 11.457 15.9634C11.4571 15.9165 11.4676 15.8703 11.4878 15.8281C11.508 15.786 11.5374 15.749 11.5737 15.7201C11.6557 15.6498 11.7605 15.6129 11.8678 15.6167H12.2523C12.3333 15.6153 12.4132 15.6357 12.4839 15.6758C12.5546 15.7159 12.6136 15.7743 12.6548 15.8451L12.7403 16.0117L12.7945 16.1601L13.1034 16.8501L13.9775 18.8117L14.0925 19.0617L14.6347 20.2701C14.8425 20.7035 15.0258 21.1487 15.1835 21.6034C15.1832 21.65 15.1725 21.6959 15.1523 21.7377C15.1321 21.7796 15.1029 21.8163 15.0668 21.8451C14.9849 21.9155 14.88 21.9524 14.7727 21.9484L14.3964 21.9501Z" fill="#4EC275"/>
<path d="M15.8273 21.5C15.7748 21.5034 15.7222 21.4959 15.6727 21.4778C15.6232 21.4598 15.578 21.4316 15.5397 21.395C15.4765 21.3315 15.4405 21.2452 15.4395 21.155V20.7316C15.4387 20.6548 15.4617 20.5796 15.5052 20.5166C15.5544 20.4467 15.623 20.3933 15.7024 20.3633L18.3017 19.2883L15.7024 18.215C15.6235 18.1799 15.5566 18.1219 15.5102 18.0483C15.4654 17.9851 15.4407 17.9095 15.4395 17.8316V17.4016C15.4389 17.3577 15.4474 17.3141 15.4644 17.2736C15.4814 17.2331 15.5065 17.1967 15.5381 17.1666C15.6153 17.0962 15.7169 17.0596 15.8207 17.065C15.8447 17.0646 15.8684 17.0703 15.8897 17.0816C15.9038 17.0791 15.9183 17.0791 15.9324 17.0816L15.9669 17.0983C15.9571 17.0983 16.026 17.1183 16.1756 17.1766L16.7868 17.4266C16.755 17.4122 17.0836 17.5511 17.7726 17.8433C18.1483 18 18.5788 18.1855 19.064 18.4L19.1872 18.4466L19.3647 18.5183C19.4693 18.556 19.5704 18.6028 19.667 18.6583C19.736 18.6902 19.795 18.7409 19.8373 18.8048C19.8797 18.8686 19.9038 18.9431 19.9069 19.02V19.5366C19.9054 19.6075 19.8825 19.6762 19.8412 19.7333C19.7953 19.798 19.7358 19.8515 19.667 19.89C19.5733 19.9366 19.4633 19.9866 19.3384 20.04L19.0098 20.1733L16.1476 21.3883C16.0655 21.43 16.0162 21.4566 16.0014 21.4666L15.9702 21.49L15.8273 21.5Z" fill="#4EC275"/>
</svg>
