<svg width="33" height="41" viewBox="0 0 33 41" fill="none" xmlns="http://www.w3.org/2000/svg">
<g opacity="0.3">
<path opacity="0.3" d="M22.9473 8.3015C22.049 8.30061 21.1878 7.93825 20.5527 7.29397C19.9175 6.64969 19.5603 5.7761 19.5595 4.86495V0.0935059H4.42123C3.24866 0.0935059 2.12409 0.566025 1.29495 1.40709C0.465817 2.24816 0 3.38886 0 4.5783V31.6138C0 32.8033 0.465817 33.944 1.29495 34.7851C2.12409 35.6262 3.24866 36.0987 4.42123 36.0987H22.5924C23.7649 36.0987 24.8895 35.6262 25.7186 34.7851C26.5478 33.944 27.0136 32.8033 27.0136 31.6138V8.3015H22.9473Z" fill="#4EC275"/>
</g>
<path d="M27.0135 8.30149H22.9471C22.0489 8.30061 21.1877 7.93825 20.5526 7.29397C19.9174 6.64969 19.5602 5.7761 19.5593 4.86495V0.0935059L27.0135 8.30149Z" fill="#4EC275"/>
<path d="M30.2205 28.5273H9.67693C8.21968 28.5273 7.03833 29.7257 7.03833 31.2039V37.417C7.03833 38.8952 8.21968 40.0935 9.67693 40.0935H30.2205C31.6778 40.0935 32.8591 38.8952 32.8591 37.417V31.2039C32.8591 29.7257 31.6778 28.5273 30.2205 28.5273Z" fill="#4EC275"/>
<path d="M14.3644 35.6555V36.8671H13.1272V35.6555H14.3644Z" fill="#F3F4F6"/>
<path d="M17.9839 36.8669L16.9439 35.307L16.0485 36.8669H14.6799L16.2588 34.287L14.6306 31.8555H16.0485L17.0622 33.3654L17.9363 31.8555H19.2983L17.7407 34.3787L19.4034 36.8669H17.9839Z" fill="#F3F4F6"/>
<path d="M23.2151 36.1871C23.0733 36.4172 22.8699 36.6016 22.6286 36.7187C22.3348 36.8582 22.013 36.9261 21.6888 36.917C21.1997 36.9378 20.7177 36.793 20.3186 36.5054C20.142 36.371 19.9976 36.198 19.8961 35.9992C19.7945 35.8004 19.7385 35.5809 19.732 35.3571H21.0037C21.0128 35.5259 21.0837 35.6852 21.2025 35.8037C21.3208 35.9156 21.4778 35.9755 21.6395 35.9704C21.7054 35.9743 21.7714 35.965 21.8337 35.943C21.896 35.9209 21.9534 35.8866 22.0026 35.8421C22.0464 35.799 22.0809 35.747 22.1038 35.6896C22.1267 35.6322 22.1376 35.5706 22.1357 35.5087C22.1373 35.45 22.1272 35.3915 22.1061 35.3368C22.0849 35.2821 22.053 35.2324 22.0124 35.1904C21.9255 35.1011 21.8223 35.0298 21.7085 34.9804C21.5891 34.9271 21.4215 34.8621 21.2058 34.7854C20.9439 34.6979 20.6882 34.5927 20.4402 34.4705C20.2363 34.3639 20.0614 34.2083 19.9308 34.0171C19.7792 33.7858 19.7044 33.5114 19.7172 33.2339C19.7113 32.9589 19.7894 32.6887 19.9407 32.4605C20.0961 32.2375 20.311 32.0641 20.5601 31.9606C20.8472 31.8421 21.1555 31.7853 21.4654 31.7939C21.9358 31.7676 22.4006 31.9084 22.7797 32.1922C22.9411 32.3254 23.0733 32.4912 23.1678 32.6792C23.2623 32.8672 23.317 33.0731 23.3285 33.2838H22.0355C22.0211 33.1364 21.9586 32.998 21.858 32.8905C21.8066 32.8406 21.7458 32.8018 21.6791 32.7766C21.6124 32.7514 21.5414 32.7402 21.4703 32.7438C21.3471 32.7382 21.2261 32.7785 21.1302 32.8572C21.086 32.8998 21.0515 32.9517 21.0294 33.0093C21.0072 33.0669 20.9979 33.1288 21.002 33.1905C20.9995 33.3025 21.0409 33.411 21.117 33.4921C21.1988 33.5788 21.2972 33.6474 21.4062 33.6938C21.5228 33.7455 21.6904 33.8122 21.909 33.8922C22.1755 33.9802 22.4353 34.0883 22.6861 34.2155C22.8909 34.3276 23.0674 34.4861 23.2019 34.6788C23.3553 34.9139 23.4312 35.1922 23.4188 35.4737C23.4166 35.726 23.3461 35.9727 23.2151 36.1871V36.1871Z" fill="#F3F4F6"/>
<path d="M25.2736 35.9386H26.8738V36.8669H24.0808V31.8555H25.2769L25.2736 35.9386Z" fill="#F3F4F6"/>
<path d="M19.5331 25.2325H7.48693C6.44365 25.2325 5.59424 24.1792 5.59424 22.8825V14.0179C5.59424 12.723 6.44365 11.6697 7.48693 11.6697H19.5381C20.5797 11.6697 21.4291 12.723 21.4291 14.0179V22.8825C21.4242 24.1792 20.5748 25.2325 19.5331 25.2325ZM7.48693 12.8696C6.97597 12.8696 6.56196 13.3846 6.56196 14.0179V22.8825C6.56196 23.5159 6.97597 24.0308 7.48693 24.0308H19.5381C20.0474 24.0308 20.4614 23.5159 20.4614 22.8825V14.0179C20.4614 13.3846 20.0474 12.8696 19.5381 12.8696H7.48693Z" fill="#4EC275"/>
<path d="M20.9411 19.8943H6.07397V21.0959H20.9411V19.8943Z" fill="#4EC275"/>
<path d="M20.9411 15.7747H6.07397V16.9763H20.9411V15.7747Z" fill="#4EC275"/>
<path d="M17.1328 12.2698H15.9482V24.6309H17.1328V12.2698Z" fill="#4EC275"/>
<path d="M11.0654 12.2698H9.88086V24.6309H11.0654V12.2698Z" fill="#4EC275"/>
</svg>
