<svg width="33" height="41" viewBox="0 0 33 41" fill="none" xmlns="http://www.w3.org/2000/svg">
<g opacity="0.3">
<path opacity="0.3" d="M22.9472 8.25559C22.0488 8.25427 21.1876 7.89156 20.5526 7.24701C19.9175 6.60246 19.5603 5.72871 19.5594 4.81741V0.0476074H4.4212C3.24862 0.0476074 2.12408 0.520106 1.29494 1.36117C0.465807 2.20224 0 3.34298 0 4.53242V31.5679C0.00174127 32.7562 0.468312 33.8953 1.29726 34.7349C2.12621 35.5745 3.24976 36.0461 4.4212 36.0461H22.594C23.7654 36.0461 24.889 35.5745 25.7179 34.7349C26.5469 33.8953 27.0134 32.7562 27.0152 31.5679V8.25559H22.9472Z" fill="#FFA120"/>
</g>
<path d="M27.0153 8.25559H22.9474C22.049 8.25427 21.1878 7.89156 20.5527 7.24701C19.9176 6.60246 19.5604 5.72871 19.5596 4.8174V0.0476074L27.0153 8.25559Z" fill="#FFA120"/>
<path d="M30.2207 28.4814H9.67717C8.21991 28.4814 7.03857 29.6798 7.03857 31.158V37.3711C7.03857 38.8493 8.21991 40.0476 9.67717 40.0476H30.2207C31.678 40.0476 32.8593 38.8493 32.8593 37.3711V31.158C32.8593 29.6798 31.678 28.4814 30.2207 28.4814Z" fill="#FFA120"/>
<path d="M15.1729 35.6096V36.8212H13.9358V35.6096H15.1729Z" fill="#F3F4F6"/>
<path d="M17.0309 35.8427H19.2111V36.821H15.7034V35.8994L17.8491 32.7812H15.7313V31.8096H19.1979V32.7312L17.0309 35.8427Z" fill="#F3F4F6"/>
<path d="M21.1399 31.8096V36.821H19.9504V31.8096H21.1399Z" fill="#F3F4F6"/>
<path d="M23.159 35.0628V36.821H21.9646V31.8096H23.8934C24.48 31.8096 24.9285 31.9562 25.2357 32.2529C25.3913 32.4075 25.5128 32.5938 25.5924 32.7994C25.672 33.0051 25.7077 33.2255 25.6974 33.4462C25.7026 33.7377 25.6311 34.0253 25.4904 34.2795C25.347 34.528 25.1343 34.7281 24.8792 34.8544C24.5713 35.0013 24.2336 35.0727 23.8934 35.0628H23.159ZM24.4865 33.4462C24.4865 33.0073 24.2467 32.7851 23.7669 32.7795H23.159V34.0828H23.7669C24.2467 34.0884 24.4865 33.8762 24.4865 33.4462V33.4462Z" fill="#F3F4F6"/>
<path d="M13.5051 25.4664C12.9526 25.4655 12.423 25.2424 12.0324 24.8459C11.6419 24.4494 11.4223 23.912 11.4219 23.3515V21.2366H15.5901V23.3515C15.5896 23.9122 15.3698 24.4499 14.9789 24.8465C14.588 25.243 14.058 25.466 13.5051 25.4664V25.4664ZM12.4882 22.3182V23.3515C12.4882 23.6252 12.5952 23.8878 12.7859 24.0815C12.9766 24.2753 13.2353 24.3843 13.5051 24.3848C13.7752 24.3843 14.034 24.2753 14.2249 24.0816C14.4159 23.888 14.5233 23.6254 14.5238 23.3515V22.3182H12.4882Z" fill="#FFA120"/>
<path d="M11.4202 21.2383H13.51V19.1184H11.4202V21.2383Z" fill="#FFA120"/>
<path d="M13.5051 19.1201H15.595V17.0002H13.5051V19.1201Z" fill="#FFA120"/>
<path d="M11.4202 17.002H13.51V14.882H11.4202V17.002Z" fill="#FFA120"/>
<path d="M13.5051 14.8835H15.595V12.7636H13.5051V14.8835Z" fill="#FFA120"/>
</svg>
