<svg width="12" height="12" viewBox="0 0 12 12" fill="none" xmlns="http://www.w3.org/2000/svg">
<path d="M0.799967 5.13322H1.46663C1.65552 5.13322 1.81386 5.19711 1.94163 5.32489C2.06941 5.45266 2.1333 5.611 2.1333 5.79989C2.1333 5.98878 2.06941 6.14711 1.94163 6.27489C1.81386 6.40266 1.65552 6.46655 1.46663 6.46655H0.799967C0.611079 6.46655 0.452745 6.40266 0.324967 6.27489C0.19719 6.14711 0.133301 5.98878 0.133301 5.79989C0.133301 5.611 0.19719 5.45266 0.324967 5.32489C0.452745 5.19711 0.611079 5.13322 0.799967 5.13322ZM1.9333 8.73322L2.39997 8.26655C2.5333 8.13322 2.68886 8.06933 2.86663 8.07489C3.04441 8.08044 3.19997 8.14433 3.3333 8.26655C3.46663 8.39989 3.53608 8.55822 3.54163 8.74155C3.54719 8.92489 3.4833 9.08322 3.34997 9.21655L2.8833 9.68322C2.74997 9.81655 2.59163 9.88044 2.4083 9.87489C2.22497 9.86933 2.06663 9.79989 1.9333 9.66655C1.81108 9.53322 1.74719 9.37766 1.74163 9.19989C1.73608 9.02211 1.79997 8.86655 1.9333 8.73322ZM2.39997 3.33322L1.9333 2.86655C1.79997 2.73322 1.73608 2.57766 1.74163 2.39989C1.74719 2.22211 1.81108 2.06655 1.9333 1.93322C2.06663 1.79989 2.22497 1.73044 2.4083 1.72489C2.59163 1.71933 2.74997 1.78322 2.8833 1.91655L3.34997 2.38322C3.4833 2.51655 3.54719 2.67489 3.54163 2.85822C3.53608 3.04155 3.46663 3.19989 3.3333 3.33322C3.19997 3.45544 3.04441 3.51933 2.86663 3.52489C2.68886 3.53044 2.5333 3.46655 2.39997 3.33322ZM10.3333 11.3332L7.6333 8.63322L7.1333 10.1332C7.11108 10.211 7.06941 10.2693 7.0083 10.3082C6.94719 10.3471 6.8833 10.3666 6.81663 10.3666C6.74997 10.3666 6.68608 10.3443 6.62497 10.2999C6.56386 10.2554 6.52219 10.1943 6.49997 10.1166L5.06663 5.34989C5.04441 5.261 5.04719 5.17211 5.07497 5.08322C5.10275 4.99433 5.14441 4.92211 5.19997 4.86655C5.25552 4.811 5.32775 4.76933 5.41663 4.74155C5.50552 4.71378 5.59441 4.711 5.6833 4.73322L10.4833 6.16655C10.5611 6.18878 10.6194 6.23044 10.6583 6.29155C10.6972 6.35266 10.7166 6.41655 10.7166 6.48322C10.7166 6.54989 10.7 6.61378 10.6666 6.67489C10.6333 6.736 10.5777 6.77766 10.5 6.79989L8.99997 7.33322L11.6666 9.99989C11.8 10.1332 11.8666 10.2888 11.8666 10.4666C11.8666 10.6443 11.8 10.7999 11.6666 10.9332L11.2666 11.3332C11.1333 11.4666 10.9777 11.5332 10.8 11.5332C10.6222 11.5332 10.4666 11.4666 10.3333 11.3332ZM5.46663 1.79989V1.13322C5.46663 0.944331 5.53052 0.785997 5.6583 0.658219C5.78608 0.530442 5.94441 0.466553 6.1333 0.466553C6.32219 0.466553 6.48052 0.530442 6.6083 0.658219C6.73608 0.785997 6.79997 0.944331 6.79997 1.13322V1.79989C6.79997 1.98878 6.73608 2.14711 6.6083 2.27489C6.48052 2.40266 6.32219 2.46655 6.1333 2.46655C5.94441 2.46655 5.78608 2.40266 5.6583 2.27489C5.53052 2.14711 5.46663 1.98878 5.46663 1.79989ZM8.91663 2.38322L9.39997 1.89989C9.52219 1.77766 9.67497 1.71378 9.8583 1.70822C10.0416 1.70266 10.2 1.76655 10.3333 1.89989C10.4555 2.02211 10.5194 2.17489 10.525 2.35822C10.5305 2.54155 10.4722 2.69989 10.35 2.83322L9.86663 3.33322C9.74441 3.46655 9.59163 3.53044 9.4083 3.52489C9.22497 3.51933 9.06663 3.45544 8.9333 3.33322C8.79997 3.19989 8.73052 3.04155 8.72497 2.85822C8.71941 2.67489 8.7833 2.51655 8.91663 2.38322Z" fill="#0086E6"/>
</svg>
