<svg width="20" height="20" viewBox="0 0 20 20" fill="none" xmlns="http://www.w3.org/2000/svg">
<path d="M10 20C4.48372 20 0 15.5163 0 10C0 4.48372 4.48372 0 10 0C15.5163 0 20 4.48372 20 10C20 15.5163 15.5163 20 10 20ZM10 1.39535C5.25581 1.39535 1.39535 5.25581 1.39535 10C1.39535 14.7442 5.25581 18.6047 10 18.6047C14.7442 18.6047 18.6047 14.7442 18.6047 10C18.6047 5.25581 14.7442 1.39535 10 1.39535Z" fill="#EA4E49"/>
<path d="M10 11.6279C9.6186 11.6279 9.30233 11.3116 9.30233 10.9302V6.27907C9.30233 5.89767 9.6186 5.58139 10 5.58139C10.3814 5.58139 10.6977 5.89767 10.6977 6.27907V10.9302C10.6977 11.3116 10.3814 11.6279 10 11.6279Z" fill="#EA4E49"/>
<path d="M10 14.6511C9.87907 14.6511 9.75814 14.6231 9.64651 14.5766C9.53488 14.5301 9.43256 14.465 9.33953 14.3813C9.25581 14.2883 9.1907 14.1952 9.14419 14.0743C9.09767 13.9627 9.06977 13.8418 9.06977 13.7208C9.06977 13.5999 9.09767 13.479 9.14419 13.3673C9.1907 13.2557 9.25581 13.1534 9.33953 13.0604C9.43256 12.9766 9.53488 12.9115 9.64651 12.865C9.86977 12.772 10.1302 12.772 10.3535 12.865C10.4651 12.9115 10.5674 12.9766 10.6605 13.0604C10.7442 13.1534 10.8093 13.2557 10.8558 13.3673C10.9023 13.479 10.9302 13.5999 10.9302 13.7208C10.9302 13.8418 10.9023 13.9627 10.8558 14.0743C10.8093 14.1952 10.7442 14.2883 10.6605 14.3813C10.5674 14.465 10.4651 14.5301 10.3535 14.5766C10.2419 14.6231 10.1209 14.6511 10 14.6511Z" fill="#EA4E49"/>
</svg>
