<svg width="20" height="20" viewBox="0 0 20 20" fill="none" xmlns="http://www.w3.org/2000/svg">
<path d="M10 20C4.48372 20 0 15.5163 0 10C0 4.48372 4.48372 0 10 0C15.5163 0 20 4.48372 20 10C20 15.5163 15.5163 20 10 20ZM10 1.39535C5.25581 1.39535 1.39535 5.25581 1.39535 10C1.39535 14.7442 5.25581 18.6047 10 18.6047C14.7442 18.6047 18.6047 14.7442 18.6047 10C18.6047 5.25581 14.7442 1.39535 10 1.39535Z" fill="#4EC275"/>
<path d="M8.67902 13.3299C8.49297 13.3299 8.31623 13.2555 8.18599 13.1252L5.55343 10.4927C5.28367 10.2229 5.28367 9.77638 5.55343 9.50661C5.8232 9.23685 6.26971 9.23685 6.53948 9.50661L8.67902 11.6461L13.4604 6.86475C13.7302 6.59499 14.1767 6.59499 14.4465 6.86475C14.7162 7.13452 14.7162 7.58103 14.4465 7.8508L9.17204 13.1252C9.04181 13.2555 8.86506 13.3299 8.67902 13.3299Z" fill="#4EC275"/>
</svg>
