<svg width="24" height="24" viewBox="0 0 24 24" fill="none" xmlns="http://www.w3.org/2000/svg">
<path d="M7.03513 18.8384L4.45902 18.2764C4.22482 18.2295 4.03747 18.1084 3.89696 17.9129C3.75644 17.718 3.7018 17.5035 3.73302 17.2693L3.99063 14.623L2.23419 12.6089C2.07806 12.4372 2 12.2342 2 12C2 11.7658 2.07806 11.5628 2.23419 11.3911L3.99063 9.37706L3.73302 6.73069C3.7018 6.4965 3.75644 6.28198 3.89696 6.08713C4.03747 5.89166 4.22482 5.7705 4.45902 5.72366L7.03513 5.1616L8.39344 2.86652C8.51835 2.66355 8.69009 2.53084 8.90867 2.46839C9.12724 2.40594 9.34582 2.41375 9.5644 2.49181L12 3.52226L14.4356 2.49181C14.6542 2.41375 14.8728 2.40594 15.0913 2.46839C15.3099 2.53084 15.4817 2.66355 15.6066 2.86652L16.9649 5.1616L19.541 5.72366C19.7752 5.7705 19.9625 5.89166 20.103 6.08713C20.2436 6.28198 20.2982 6.4965 20.267 6.73069L20.0094 9.37706L21.7658 11.3911C21.9219 11.5628 22 11.7658 22 12C22 12.2342 21.9219 12.4372 21.7658 12.6089L20.0094 14.623L20.267 17.2693C20.2982 17.5035 20.2436 17.718 20.103 17.9129C19.9625 18.1084 19.7752 18.2295 19.541 18.2764L16.9649 18.8384L15.6066 21.1335C15.4817 21.3365 15.3099 21.4692 15.0913 21.5316C14.8728 21.5941 14.6542 21.5863 14.4356 21.5082L12 20.4778L9.5644 21.5082C9.34582 21.5863 9.12724 21.5941 8.90867 21.5316C8.69009 21.4692 8.51835 21.3365 8.39344 21.1335L7.03513 18.8384ZM10.3607 14.6698C10.5324 14.8415 10.751 14.9274 11.0164 14.9274C11.2818 14.9274 11.5004 14.8415 11.6721 14.6698L15.6534 10.6885C15.8408 10.5012 15.9344 10.2785 15.9344 10.0206C15.9344 9.76332 15.8408 9.54099 15.6534 9.35364C15.466 9.16629 15.2437 9.07261 14.9864 9.07261C14.7285 9.07261 14.5059 9.16629 14.3185 9.35364L11.0164 12.6557L9.65808 11.3209C9.47073 11.1491 9.2484 11.067 8.9911 11.0745C8.73318 11.0826 8.51835 11.1725 8.34661 11.3443C8.17486 11.516 8.08899 11.7346 8.08899 12C8.08899 12.2654 8.17486 12.484 8.34661 12.6557L10.3607 14.6698Z" fill="#20A789"/>
</svg>
