<svg width="40" height="40" viewBox="0 0 40 40" fill="none" xmlns="http://www.w3.org/2000/svg">
<g id="Unabase">
<g id="Logo unabase">
<path id="image 95 (Traced)" fill-rule="evenodd" clip-rule="evenodd" d="M4.2107 14.83C3.27883 15.0115 1.98458 15.6926 1.43501 16.2905C-0.0866614 17.9462 -0.432173 20.5757 0.621639 22.4813C1.02101 23.2036 3.62414 25.9389 9.1564 31.4496C16.5737 38.8381 17.1912 39.4029 18.2117 39.7344C19.5555 40.1709 21.2703 40.0612 22.4155 39.4655C22.8749 39.2265 26.5987 35.6559 31.1828 31.0592C37.1524 25.0729 39.2546 22.8386 39.5621 22.1535C40.7224 19.5674 39.4027 16.2029 36.8016 15.1162C35.8289 14.7097 33.5498 14.7656 32.563 15.2201C32.0322 15.4644 29.7174 17.6271 25.8938 21.4509L20.0374 27.3073L14.2074 21.4974C10.6433 17.9458 8.06113 15.5335 7.5642 15.291C6.61221 14.8266 5.21472 14.6345 4.2107 14.83Z" fill="black"/>
<ellipse id="Ellipse 114" cx="19.9617" cy="5.2843" rx="5.38593" ry="5.2843" fill="#33CC00"/>
</g>
</g>
</svg>
