<svg width="120" height="102" viewBox="0 0 120 102" fill="none" xmlns="http://www.w3.org/2000/svg">
<path d="M28.8308 8.19188C28.0608 6.27753 26.5159 4.56126 24.5026 4.10871C22.4555 3.64839 20.3475 4.54487 18.5718 5.66303C16.8194 6.76675 15.1517 8.19661 14.4142 10.1318C13.7019 12.0009 14.1283 14.4053 15.7576 15.5279C14.0677 14.4758 11.4828 15.749 11.0708 17.7356C10.6446 19.7916 12.2484 21.9235 14.2772 22.4647C16.0502 22.9375 17.9712 22.3658 19.4444 21.2498C18.2259 22.5508 18.027 24.7485 18.9863 26.2934C20.0878 28.0674 22.4233 28.8786 24.4607 28.4197C26.4978 27.9605 28.1819 26.3775 29.0317 24.4701L29.7668 14.2758C29.7162 12.2131 29.6009 10.1062 28.8308 8.19188Z" fill="#1B3D4C"/>
<path d="M27.4528 12.8701C25.4924 13.5052 25.0912 15.0928 24.6837 16.416C23.8069 19.2638 24.7928 23.4781 26.3866 25.9958C27.9804 28.5136 29.7278 29.7931 32.6769 30.219C32.7728 25.6983 32.8689 21.1776 32.9647 16.6569L27.4528 12.8701Z" fill="#00A887"/>
<path d="M26.3459 20.656C25.0071 18.917 25.1966 16.1862 26.7628 14.6488C25.9044 13.5706 26.2128 11.9071 27.0851 10.8398C27.9574 9.77304 29.2534 9.16076 30.5043 8.58237C31.191 5.42734 34.7331 3.20796 37.872 3.96609C39.5071 1.56252 42.9908 1.18526 45.7819 1.99867C46.4636 2.1973 47.1448 2.45399 47.8549 2.45122C48.3758 2.44899 48.8847 2.30676 49.4011 2.23731C52.2406 1.85505 55.0592 3.85413 56.1662 6.49661C56.3432 6.91915 56.4888 7.36447 56.7694 7.72645C57.1377 8.2015 57.6964 8.48097 58.1725 8.84795C59.2018 9.64108 59.8552 10.9023 59.9097 12.2008C59.9558 13.3034 59.6049 14.474 60.0694 15.4753C60.3019 15.9772 60.7225 16.3823 60.9039 16.9051C61.429 18.42 59.7496 19.9687 60.0608 21.5417C60.1241 21.8625 60.2689 22.1615 60.358 22.4765C60.54 23.1202 60.478 23.8297 60.1875 24.4322C59.9633 24.8973 59.6021 25.3231 59.5716 25.8388C59.5485 26.2299 59.7227 26.6022 59.801 26.9861C59.993 27.9251 57.9667 31.5457 57.1558 32.0563L32.9107 32.2733C31.0755 31.8993 29.5812 30.2367 29.4048 28.3723C29.3753 28.0623 29.3706 27.7259 29.1786 27.4806C29.015 27.2717 28.7505 27.1761 28.5169 27.0505C26.9556 26.2124 26.7673 24.0689 26.9317 22.3048C26.9548 22.0578 26.9804 21.8048 26.9181 21.5645C26.8276 21.2153 26.5659 20.9419 26.3459 20.656Z" fill="#1B3D4C"/>
<path d="M33.2922 20.6902C33.2205 16.3995 35.9116 11.4688 40.1739 9.37054C42.8606 8.04791 44.9569 8.0393 46.3695 7.87456C49.534 7.50563 52.0876 9.07384 52.0876 9.07384C53.4238 9.38748 58.3213 13.8718 58.5754 18.7376C58.858 24.1431 58.9897 30.754 58.3065 34.7777C56.9325 42.8688 50.7097 43.8339 50.7097 43.8339C50.7089 43.8214 51.2889 57.2832 51.2889 57.2832L39.3294 67.0847L34.6726 51.516L33.2922 20.6902Z" fill="#FFC19D"/>
<path d="M50.7098 43.8342C50.7098 43.8342 45.2173 44.129 39.8501 40.8242C39.8501 40.8242 42.6784 46.5678 50.7984 45.8961L50.7098 43.8342Z" fill="#FF9C6A"/>
<path d="M34.5151 28.3859C34.5201 27.7822 33.8378 26.3518 33.2427 26.2523C31.6534 25.9873 28.7831 26.0843 28.7131 30.1263C28.6176 35.6518 34.1848 34.6081 34.1975 34.4498C34.207 34.3262 34.4979 30.47 34.5151 28.3859Z" fill="#FFC19D"/>
<path d="M32.7079 32.4053C32.684 32.3872 32.6104 32.4711 32.4468 32.5428C32.2865 32.6125 32.0128 32.6581 31.7267 32.5453C31.1466 32.3209 30.671 31.3858 30.6616 30.3893C30.6563 29.8859 30.7697 29.4089 30.9547 29.0153C31.1305 28.6141 31.3967 28.3363 31.6917 28.2893C31.9851 28.2266 32.1901 28.4063 32.2554 28.5627C32.3268 28.7186 32.2895 28.8286 32.3187 28.838C32.334 28.8525 32.439 28.748 32.3984 28.5191C32.3776 28.4088 32.3151 28.2771 32.1867 28.1688C32.0562 28.0588 31.8623 28.0004 31.657 28.019C31.2303 28.0413 30.8399 28.4263 30.6369 28.8583C30.4099 29.2917 30.2704 29.8276 30.2766 30.3926C30.2924 31.5069 30.8444 32.5584 31.6395 32.8031C32.0262 32.9112 32.3526 32.7998 32.5223 32.6723C32.6957 32.5389 32.7268 32.4156 32.7079 32.4053Z" fill="#FF9C6A"/>
<path d="M59.7607 17.9193C59.5851 15.9121 58.7853 14.0089 57.8172 12.2423C57.1468 11.0197 56.3759 9.82597 55.3211 8.91422C54.4393 8.1522 53.3898 7.61354 52.3369 7.11432C49.5686 5.80142 46.4808 4.68714 43.4919 5.36082C41.8876 5.72252 40.443 6.5751 39.0376 7.42963C37.9608 8.08469 36.8793 8.75587 35.9773 9.63651C35.1858 10.4088 34.5496 11.327 33.9882 12.2798C32.6503 14.5514 31.7057 17.0908 31.5246 19.7208C31.3438 22.3511 29.3539 24.6766 30.8959 26.8148C31.0154 26.9804 33.7618 27.5488 33.9515 27.6244C34.398 27.8022 34.8886 27.3177 34.8852 26.8373C34.8819 26.357 34.551 25.9428 34.1952 25.62C34.8791 25.5969 35.3478 24.8358 35.3047 24.1529C35.2617 23.4698 34.8574 22.8686 34.4513 22.318C34.3985 22.2461 34.3435 22.1699 34.3324 22.0813C34.3038 21.8482 34.5677 21.7049 34.7697 21.5854C35.7542 21.0029 35.8639 19.3827 34.9669 18.6729C36.2851 18.3674 37.1391 16.7825 36.6696 15.5135C36.5954 15.3129 36.4943 15.0879 36.5904 14.897C36.6826 14.7134 36.9107 14.6556 37.1077 14.5973C38.5661 14.165 39.5462 12.5171 39.2298 11.0291C39.9968 11.0694 40.7766 11.1086 41.5228 10.9272C42.269 10.7461 42.9907 10.3094 43.3319 9.62151C43.8211 10.5027 44.7817 11.103 45.7882 11.1572C46.7947 11.2111 47.814 10.7169 48.3946 9.89292C49.6814 10.016 50.9982 9.81208 52.1877 9.30564C52.4797 10.5049 53.4253 11.5234 54.5999 11.9028C54.828 11.9765 55.09 12.0481 55.2 12.2612C55.27 12.3968 55.2589 12.5579 55.2508 12.7104C55.21 13.4819 55.7359 13.8105 56.1612 14.4556C56.5865 15.1001 57.3282 16.061 58.0711 15.8482C57.9886 17.1622 58.6911 18.1187 59.8007 18.828L59.7607 17.9193Z" fill="#1B3D4C"/>
<path d="M60.904 16.9052C60.904 16.9052 60.8509 16.6766 60.6117 16.3096C60.4962 16.1246 60.3328 15.909 60.1789 15.6334C60.0286 15.3575 59.9095 15.0075 59.8783 14.5983C59.8378 14.1902 59.8753 13.7321 59.9147 13.2318C59.9542 12.7326 59.9961 12.1761 59.8858 11.5905C59.7808 11.0077 59.5508 10.4023 59.1747 9.84311C58.9869 9.5642 58.7627 9.29723 58.5021 9.05498C58.2429 8.80996 57.939 8.60383 57.6348 8.39798C57.3328 8.19018 57.0272 7.96738 56.8017 7.66596C56.575 7.3651 56.4366 6.99562 56.2872 6.62141C55.9868 5.86634 55.5488 5.12655 54.9637 4.47315C54.382 3.82031 53.6741 3.22775 52.8368 2.80716C52.4257 2.58214 51.9726 2.43018 51.5109 2.29544C51.0417 2.1896 50.5566 2.10626 50.0602 2.11848C49.8126 2.11487 49.564 2.14737 49.3151 2.17126C49.0676 2.20738 48.8234 2.25738 48.5786 2.29877C48.09 2.39156 47.5955 2.40128 47.1018 2.28766C46.6082 2.18571 46.1245 2.00319 45.615 1.87179C45.1089 1.72761 44.5827 1.64177 44.051 1.58148C43.5181 1.52203 42.9759 1.52176 42.4317 1.55231C41.8874 1.59287 41.3429 1.68872 40.8082 1.83706C39.7486 2.15043 38.716 2.73521 38.0104 3.64918C37.9409 3.73947 37.8718 3.83003 37.8032 3.91921L37.8915 3.88504C36.2233 3.48556 34.4753 3.92143 33.1255 4.80596C31.7662 5.68771 30.7547 7.05507 30.4269 8.56549L30.4713 8.51049C29.8004 8.82107 29.1373 9.1336 28.5253 9.5167C27.915 9.8984 27.3544 10.3559 26.9318 10.9179C26.5137 11.4824 26.2576 12.1472 26.1968 12.8192C26.1334 13.4887 26.2981 14.1816 26.709 14.6919L26.7146 14.5994C25.9189 15.3839 25.5122 16.4315 25.4183 17.4258C25.3239 18.4248 25.5253 19.3999 25.9701 20.1769C26.0712 20.3766 26.209 20.5505 26.3326 20.7269C26.4659 20.8956 26.6021 21.0534 26.709 21.2234C26.8163 21.3928 26.8871 21.5754 26.901 21.7668C26.9182 21.9579 26.8963 22.1499 26.8807 22.3402C26.8163 23.1025 26.8268 23.8097 26.9218 24.4381C27.0179 25.0654 27.1949 25.6155 27.4524 26.0388C27.7038 26.4661 28.0205 26.7589 28.3042 26.9431C28.5881 27.1337 28.8398 27.2087 28.979 27.3123C29.1237 27.4073 29.174 27.4854 29.179 27.4807C29.179 27.4807 29.1345 27.3979 28.9912 27.2948C28.8526 27.1834 28.6009 27.1006 28.3272 26.9081C28.0517 26.7217 27.7463 26.4303 27.5052 26.008C27.2582 25.5899 27.0899 25.0468 27.0007 24.4267C26.9124 23.8053 26.9077 23.1044 26.9768 22.3488C26.9935 22.1601 27.0182 21.9632 27.0013 21.7582C26.9882 21.552 26.9099 21.3462 26.7976 21.1681C26.686 20.9881 26.5479 20.8267 26.4179 20.66C26.2984 20.4866 26.1654 20.3177 26.0684 20.1222C25.6392 19.364 25.4475 18.4117 25.5439 17.4383C25.6395 16.4693 26.0406 15.4528 26.8115 14.6983L26.8563 14.6544L26.8171 14.6058C26.4337 14.1255 26.2784 13.4729 26.3407 12.832C26.4004 12.1895 26.649 11.5483 27.0521 11.0079C27.4602 10.4673 28.0069 10.0212 28.6073 9.64782C29.2093 9.27251 29.8668 8.96386 30.5377 8.65439L30.5736 8.638L30.5822 8.59938C30.9019 7.13535 31.8873 5.80328 33.2152 4.94375C34.5337 4.08117 36.2374 3.65974 37.8526 4.047L37.9051 4.05978L37.9409 4.01283C38.0073 3.92671 38.074 3.83948 38.1412 3.75225C38.8216 2.8705 39.8203 2.30294 40.8546 1.99625C41.3768 1.85123 41.9094 1.75678 42.4433 1.71677C42.9773 1.68622 43.5104 1.68594 44.0343 1.74372C44.5574 1.80262 45.075 1.88624 45.5728 2.02736C46.0734 2.15543 46.5607 2.33906 47.0696 2.44323C47.3235 2.49629 47.5824 2.52963 47.8422 2.52991C48.1022 2.52963 48.3569 2.49518 48.6047 2.45296C48.8531 2.41073 49.0962 2.36045 49.3376 2.32461C49.5798 2.30128 49.8207 2.26877 50.0613 2.27211C50.5435 2.25905 51.0161 2.33933 51.4739 2.44101C51.9242 2.57158 52.3673 2.71826 52.7702 2.93773C53.5905 3.34638 54.287 3.9256 54.8601 4.56483C55.4374 5.20461 55.8693 5.92746 56.1677 6.66948C56.3183 7.04062 56.4611 7.42094 56.703 7.74041C56.9453 8.05989 57.2636 8.28741 57.5681 8.49521C57.8762 8.70134 58.1723 8.90025 58.426 9.13721C58.6813 9.37196 58.9019 9.63115 59.0869 9.90257C59.458 10.4465 59.6872 11.0377 59.7942 11.6075C59.9067 12.1789 59.8706 12.7259 59.8356 13.2257C59.8008 13.7263 59.7678 14.1894 59.8139 14.6047C59.8503 15.0203 59.9778 15.3792 60.1359 15.6576C60.2967 15.9354 60.4642 16.1468 60.5834 16.3279C60.7059 16.5071 60.7854 16.6521 60.8331 16.7524C60.8815 16.8524 60.8998 16.9066 60.904 16.9052Z" fill="#375A64"/>
<path d="M40.4758 2.77317C40.4842 2.78567 40.6225 2.69066 40.8923 2.56092C41.1612 2.43369 41.5701 2.27534 42.0996 2.21922C42.6249 2.16033 43.2758 2.20978 43.9139 2.49814C44.5476 2.78483 45.1627 3.30433 45.5552 4.00856C45.6677 4.2108 45.7641 4.42583 45.8247 4.63612C45.883 4.84475 45.89 5.067 45.7799 5.21784L45.6435 5.40481L45.8672 5.34341C46.4814 5.17506 47.1112 5.29702 47.5743 5.56038C48.0457 5.82318 48.3419 6.22822 48.5033 6.59048C48.6669 6.9569 48.7044 7.28277 48.7122 7.50251C48.718 7.72392 48.6994 7.84532 48.7119 7.84727C48.7166 7.8481 48.7255 7.81838 48.7377 7.76087C48.7511 7.70309 48.7627 7.61613 48.768 7.50307C48.778 7.27805 48.7563 6.93801 48.5991 6.54964C48.4444 6.16655 48.1416 5.72762 47.6443 5.4387C47.1567 5.15006 46.4883 5.01033 45.8241 5.18729L45.9113 5.31285C46.0664 5.09756 46.0464 4.82031 45.9844 4.59278C45.9177 4.35971 45.8194 4.14219 45.7005 3.92744C45.2891 3.18876 44.6423 2.64954 43.9764 2.35812C43.3044 2.06393 42.6252 2.02643 42.0854 2.10227C41.5404 2.17561 41.1273 2.3559 40.8625 2.50342C40.7297 2.57815 40.6308 2.64287 40.5681 2.6926C40.5042 2.74094 40.4725 2.76844 40.4758 2.77317Z" fill="#375A64"/>
<path d="M31.4595 9.04637C31.4528 9.05359 31.5175 9.12721 31.6509 9.24528C31.785 9.36251 31.9884 9.52642 32.2729 9.68477C32.5559 9.84034 32.9276 9.9948 33.3724 10.0242C33.8094 10.054 34.3303 9.95812 34.7478 9.62004L34.6256 9.60059C34.6778 9.67504 34.7314 9.75116 34.7859 9.82867C34.8442 9.90312 34.9098 9.97396 34.9726 10.0479C35.3762 10.4715 35.8682 10.7629 36.3466 10.9177C36.8247 11.078 37.2839 11.1202 37.662 11.0935C38.0415 11.0671 38.3376 10.9763 38.5343 10.9018C38.7279 10.8177 38.8282 10.759 38.8238 10.7501C38.8124 10.7154 38.394 10.9496 37.6564 10.976C37.2911 10.9868 36.8516 10.9338 36.3969 10.7726C35.9413 10.6168 35.4762 10.3346 35.0942 9.93396C35.0351 9.86395 34.9728 9.79728 34.9173 9.72727C34.8656 9.65421 34.8148 9.58226 34.7653 9.51253L34.7114 9.43641L34.6428 9.4928C34.2703 9.79866 33.7916 9.89701 33.3805 9.87784C32.9643 9.85978 32.6048 9.72533 32.3237 9.58726C31.7623 9.29778 31.4775 9.02248 31.4595 9.04637Z" fill="#375A64"/>
<path d="M28.4985 14.1484C28.4929 14.1497 28.4971 14.1842 28.511 14.2503C28.5299 14.3142 28.5607 14.4106 28.6321 14.5187C28.7663 14.7362 29.066 15.0018 29.5177 15.1173C29.9717 15.2396 30.5353 15.1526 31.0973 14.9587C31.3796 14.8604 31.6724 14.7617 31.9727 14.6215C32.2644 14.4812 32.5828 14.2784 32.7414 13.9319C32.7533 13.9017 32.7653 13.8714 32.7764 13.8433L32.6458 13.8819C33.1745 14.3023 33.7204 14.6681 34.2771 14.879C34.8302 15.0979 35.3875 15.1362 35.8278 15.0515C36.2717 14.9715 36.599 14.7862 36.7873 14.6245C36.8834 14.5451 36.9496 14.4734 36.989 14.4214C37.0287 14.3698 37.0474 14.3411 37.0432 14.3375C37.0315 14.327 36.9443 14.4328 36.7482 14.5734C36.5545 14.7142 36.2348 14.8745 35.8089 14.9362C35.3847 15.002 34.8616 14.9548 34.3326 14.737C33.8009 14.5267 33.2725 14.1678 32.7492 13.7514L32.6617 13.6816L32.6186 13.7903C32.6091 13.8133 32.5994 13.8386 32.5891 13.8639C32.4597 14.1506 32.1805 14.3389 31.9016 14.4745C31.6191 14.6095 31.3229 14.7131 31.0479 14.8134C30.4992 15.0115 29.9686 15.1018 29.5452 15.0032C29.1194 14.909 28.8277 14.6753 28.6852 14.4814C28.5374 14.2861 28.5154 14.1425 28.4985 14.1484Z" fill="#375A64"/>
<path d="M56.311 24.8857C56.1885 25.0229 55.3962 24.4751 54.2963 24.5131C53.1976 24.5356 52.4086 25.1274 52.2853 24.9965C52.2245 24.9387 52.3461 24.694 52.689 24.427C53.0268 24.1611 53.609 23.8945 54.2938 23.875C54.9789 23.8569 55.5634 24.0906 55.9026 24.3381C56.249 24.5867 56.3715 24.8237 56.311 24.8857Z" fill="#1B3D4C"/>
<path d="M45.5284 25.6646C45.3922 25.7885 44.6591 25.162 43.5623 25.0873C42.4672 24.9964 41.6216 25.504 41.5121 25.3615C41.4583 25.2976 41.6024 25.0667 41.9728 24.8364C42.3358 24.6064 42.942 24.4011 43.6254 24.4522C44.3088 24.5045 44.8658 24.797 45.1783 25.0778C45.4964 25.3606 45.5945 25.6096 45.5284 25.6646Z" fill="#1B3D4C"/>
<path d="M49.8143 30.511C49.8071 30.4488 50.4866 30.3088 51.5897 30.1313C51.8695 30.0932 52.1337 30.029 52.1748 29.836C52.2342 29.6307 52.1073 29.332 51.9606 29.0098C51.6747 28.3389 51.3755 27.6355 51.0614 26.8985C49.8107 23.8915 48.895 21.4152 49.0167 21.366C49.1381 21.3165 50.251 23.714 51.5019 26.7209C51.8036 27.4624 52.092 28.1694 52.3665 28.8459C52.4832 29.1617 52.6773 29.5179 52.5476 29.9432C52.4787 30.1557 52.2776 30.3146 52.0992 30.3688C51.9209 30.4296 51.7631 30.4377 51.6245 30.4505C50.5119 30.546 49.8204 30.5735 49.8143 30.511Z" fill="#1B3D4C"/>
<path d="M48.1113 32.1526C47.6993 32.2281 46.765 32.7843 46.5247 33.2349C46.2844 33.6849 45.9622 34.3905 46.2008 34.8C46.4044 35.1495 47.8879 34.717 48.5124 34.6142C48.8016 34.5667 49.5114 34.907 49.6072 34.5475L49.7814 33.2638C49.8053 32.6632 49.4119 32.3995 49.0036 32.2323C48.7266 32.1189 48.4168 32.0964 48.1113 32.1526Z" fill="#FF9C6A"/>
<path d="M40.0404 19.5348C40.1468 19.2351 41.2463 19.3692 42.5356 19.2048C43.8288 19.0664 44.867 18.6814 45.04 18.9486C45.1175 19.0764 44.9381 19.359 44.5192 19.6515C44.1041 19.9435 43.4402 20.2229 42.6659 20.3143C41.8917 20.4043 41.1813 20.2863 40.7099 20.0982C40.2349 19.9104 39.9948 19.677 40.0404 19.5348Z" fill="#1B3D4C"/>
<path d="M51.56 17.9118C51.8184 17.6976 52.6485 18.083 53.6905 18.2502C54.7275 18.4488 55.6435 18.3708 55.8085 18.6594C55.879 18.7983 55.7029 19.025 55.282 19.2017C54.8664 19.3784 54.2014 19.4742 53.4869 19.3489C52.7726 19.2228 52.1842 18.9064 51.8587 18.5994C51.5275 18.2905 51.4444 18.018 51.56 17.9118Z" fill="#1B3D4C"/>
<path d="M49.2318 34.634C49.2279 34.6838 48.7498 34.6132 48.0197 34.7993C47.8386 34.8455 47.6411 34.9057 47.4411 34.9888C47.2388 35.0727 47.0138 35.1941 46.7185 35.2199C46.5718 35.2302 46.3946 35.1946 46.2615 35.0863C46.1268 34.9841 46.0432 34.8302 45.9982 34.6807C45.9065 34.3785 45.942 34.0443 46.0601 33.7512C46.1779 33.455 46.3529 33.2122 46.5404 32.9925C46.7299 32.7744 46.9424 32.5877 47.1702 32.4488C47.6214 32.1627 48.1097 32.0505 48.5101 32.0635C48.9134 32.0705 49.2246 32.1877 49.4165 32.293C49.611 32.3974 49.6979 32.4852 49.6893 32.498C49.6766 32.5188 49.5696 32.4641 49.3715 32.3963C49.1754 32.3269 48.879 32.2491 48.5123 32.268C48.1478 32.2813 47.7153 32.4024 47.3152 32.6725C47.1133 32.8033 46.9249 32.9767 46.7557 33.177C46.5885 33.3773 46.4274 33.6076 46.3293 33.8573C46.229 34.1054 46.2043 34.3704 46.2698 34.5999C46.334 34.8327 46.4957 34.9671 46.7057 34.9535C46.9205 34.9432 47.1388 34.8463 47.3533 34.7654C47.5741 34.6857 47.783 34.6349 47.9764 34.5993C48.7562 34.4574 49.2421 34.6057 49.2318 34.634Z" fill="#1B3D4C"/>
<path d="M34.9364 34.3859C34.9364 35.6141 33.9407 36.6098 32.7126 36.6098C31.4847 36.6098 30.489 35.6141 30.489 34.3859C30.489 33.1578 31.4847 32.1621 32.7126 32.1621C33.9407 32.1621 34.9364 33.1578 34.9364 34.3859Z" fill="#375A64"/>
<path d="M42.0172 15.4606C42.0083 15.457 42.0285 15.3859 42.0813 15.2537C42.1424 15.1264 42.2413 14.9378 42.423 14.7342C42.6033 14.5311 42.8664 14.3149 43.2187 14.1472C43.5701 13.9846 44.0201 13.8735 44.5171 13.9355C44.763 13.9621 45.0311 14.0466 45.2558 14.2258C45.368 14.3144 45.4714 14.4363 45.5253 14.5919C45.5781 14.7469 45.5683 14.9308 45.4892 15.0817C45.3383 15.3881 44.9838 15.5473 44.6591 15.5434C44.3318 15.5428 44.0193 15.4562 43.7176 15.3209C43.1206 15.0481 42.5775 14.53 42.3408 13.8352C42.1058 13.1454 42.2033 12.3225 42.6589 11.6889C43.1209 11.0494 43.9201 10.7452 44.6452 10.8285C45.0058 10.8721 45.3647 10.9977 45.6358 11.2488C45.7692 11.3716 45.8811 11.5202 45.9506 11.6947C46.0192 11.8683 46.03 12.0767 45.96 12.257C45.8906 12.4381 45.7528 12.5751 45.6081 12.6662C45.4619 12.7581 45.305 12.8151 45.1486 12.8487C44.8369 12.9145 44.5224 12.907 44.2357 12.8384C43.6609 12.7003 43.1895 12.3584 42.9117 11.9419C42.6275 11.5241 42.5519 11.0519 42.5864 10.6651C42.6183 10.2743 42.7447 9.95342 42.8861 9.72145C43.0286 9.48865 43.1787 9.33586 43.2898 9.24751C43.4015 9.15917 43.4681 9.125 43.4729 9.13167C43.4954 9.155 43.2292 9.31613 42.9845 9.77645C42.865 10.0043 42.7625 10.3115 42.7481 10.6749C42.7306 11.0352 42.8156 11.4591 43.0798 11.825C43.3381 12.1917 43.7729 12.4909 44.2882 12.6045C44.5452 12.6609 44.8222 12.6615 45.0916 12.6009C45.3541 12.5409 45.6247 12.3953 45.7106 12.1625C45.8022 11.9319 45.6692 11.6464 45.4494 11.4527C45.2341 11.2544 44.9274 11.1463 44.6144 11.1102C43.9848 11.041 43.2864 11.3105 42.8928 11.8592C42.4966 12.4075 42.4058 13.1415 42.6094 13.7446C42.812 14.3541 43.2945 14.8275 43.8296 15.0789C44.0965 15.2039 44.3888 15.2853 44.6566 15.2889C44.923 15.2953 45.1691 15.1759 45.2755 14.9725C45.3869 14.7747 45.2944 14.5405 45.1138 14.398C44.9344 14.2491 44.7119 14.1677 44.4885 14.1383C44.0401 14.0691 43.6195 14.156 43.2839 14.2952C42.9478 14.4388 42.6886 14.6297 42.5047 14.8117C42.1377 15.1828 42.0438 15.4748 42.0172 15.4606Z" fill="#1B3D4C"/>
<path d="M16.5968 14.2104C16.5979 14.2196 16.4751 14.2446 16.239 14.2821C16.0023 14.3179 15.6525 14.3707 15.1947 14.4007C14.7391 14.4249 14.166 14.4368 13.5209 14.2699C13.2009 14.1846 12.8656 14.0529 12.5436 13.8498C12.2225 13.649 11.9116 13.3728 11.6852 13.0061C11.4535 12.6419 11.3355 12.191 11.3157 11.7282C11.2968 11.2632 11.3621 10.7854 11.4749 10.3039C11.708 9.34577 12.1558 8.34178 12.9303 7.51198C13.3184 7.10249 13.7846 6.73385 14.3316 6.48771C14.5991 6.35409 14.8983 6.27269 15.1978 6.20768C15.5014 6.16379 15.8126 6.12962 16.1251 6.15796C16.7501 6.19046 17.3794 6.38743 17.9344 6.73079C18.2125 6.90386 18.4611 7.1275 18.6809 7.37974C18.8937 7.63977 19.0584 7.93952 19.1762 8.26066L19.3007 8.60014L18.9759 8.43484C18.5923 8.23983 18.2606 7.92341 18.0408 7.53809C17.8175 7.15528 17.6883 6.71384 17.6605 6.26547C17.6369 5.8896 17.6744 5.50845 17.7919 5.15258C17.9055 4.79922 18.0733 4.46807 18.2789 4.16888C18.6951 3.57215 19.2398 3.09766 19.8216 2.72401C20.9886 1.97755 22.306 1.57612 23.5761 1.5214C24.8479 1.45861 26.0691 1.78198 27.0392 2.36509C28.0123 2.94542 28.748 3.75467 29.1891 4.60975C29.6378 5.46706 29.7614 6.36437 29.7106 7.11999C29.665 7.88201 29.4472 8.51596 29.2066 8.99018C28.9594 9.46439 28.6952 9.7897 28.4966 9.9861C28.4024 10.0897 28.3146 10.1528 28.2621 10.2008C28.2071 10.2467 28.1776 10.2681 28.1743 10.2645C28.1654 10.2547 28.2715 10.1536 28.4535 9.94666C28.6357 9.74053 28.8797 9.41049 29.1055 8.94073C29.325 8.47068 29.52 7.84951 29.5489 7.11138C29.5828 6.3777 29.4497 5.52123 29.0077 4.70476C28.5732 3.88996 27.8573 3.12072 26.9175 2.57206C25.9802 2.02117 24.8126 1.72086 23.588 1.78781C22.3674 1.84698 21.0956 2.24091 19.9755 2.96209C19.4179 3.32185 18.9029 3.77578 18.5162 4.33195C18.1344 4.88895 17.8922 5.55873 17.9492 6.24602C17.9969 7.05804 18.4289 7.84729 19.104 8.17788L18.904 8.35206C18.7984 8.06536 18.6523 7.79673 18.4611 7.5617C18.2625 7.33391 18.038 7.12916 17.783 6.9697C17.2741 6.65301 16.689 6.46549 16.1073 6.43326C14.9286 6.32686 13.8463 6.91275 13.1165 7.68755C12.3742 8.47013 11.9311 9.43383 11.6963 10.3575C11.5819 10.8223 11.5144 11.2829 11.5266 11.7199C11.5399 12.1563 11.6433 12.5697 11.8497 12.9058C12.0516 13.2453 12.3364 13.5089 12.637 13.7045C12.9376 13.9023 13.2559 14.0354 13.5615 14.124C14.1766 14.2987 14.7397 14.304 15.1903 14.296C15.6434 14.2824 15.9945 14.2468 16.2323 14.2285C16.4704 14.2082 16.5957 14.201 16.5968 14.2104Z" fill="#1B3D4C"/>
<path d="M21.434 24.9062C21.4393 24.9212 21.3012 24.996 21.0304 25.0726C20.7606 25.1499 20.3545 25.2251 19.8469 25.2129C19.3419 25.1985 18.7327 25.0946 18.1179 24.8107C17.8137 24.6676 17.4973 24.4937 17.2225 24.2273C16.9497 23.9717 16.7163 23.5792 16.7416 23.1427C16.7661 22.7099 16.9889 22.3529 17.2258 22.071C17.4689 21.7854 17.7412 21.5628 18.004 21.3581C18.5354 20.9528 19.0707 20.6697 19.5361 20.4808C20.0014 20.2894 20.3975 20.1913 20.6723 20.1397C20.9473 20.088 21.1032 20.0852 21.1059 20.1019C21.1173 20.1516 20.5056 20.2538 19.6183 20.668C19.1766 20.8753 18.6704 21.167 18.1679 21.5684C17.919 21.7709 17.6595 21.9921 17.4434 22.2529C17.2281 22.5124 17.0475 22.8238 17.0308 23.1561C17.0116 23.4883 17.1836 23.7942 17.4206 24.0248C17.6564 24.2598 17.9481 24.429 18.232 24.5698C18.8035 24.8496 19.376 24.9693 19.8575 25.0085C20.8306 25.0804 21.4218 24.8509 21.434 24.9062Z" fill="#1B3D4C"/>
<path d="M46.1021 27.4525C46.0821 27.4947 45.7718 27.3677 45.2548 27.2463C44.997 27.1833 44.6851 27.1333 44.3378 27.1013C43.9894 27.0763 43.6055 27.0735 43.2049 27.1119C42.8046 27.1555 42.429 27.2361 42.0931 27.3311C41.7592 27.4327 41.4639 27.5447 41.2242 27.6586C40.7427 27.8825 40.4644 28.0695 40.4363 28.0323C40.4155 28.007 40.6533 27.7581 41.1297 27.4772C41.3667 27.3352 41.667 27.1977 42.0129 27.0769C42.3604 26.9627 42.7543 26.8696 43.1755 26.8241C43.5966 26.7835 44.0014 26.7949 44.3648 26.8363C44.7278 26.8844 45.0498 26.9583 45.3107 27.0494C45.8341 27.2277 46.1174 27.4236 46.1021 27.4525Z" fill="#FF9C6A"/>
<path d="M69.1098 101.083L65.9151 93.0398L67.9619 81.0873L68.5167 74.0288C68.4125 69.4748 68.0256 65.9575 66.1456 61.8085L60.3051 47.3824L53.1733 49.3173C52.9546 48.3591 52.6616 47.416 52.2682 46.6687C50.935 44.1365 33.6978 44.9952 32.583 45.907C31.8746 46.4862 31.5254 48.5747 31.3648 50.0212L25.3678 49.9887L18.2991 68.1535C18.5235 68.6522 22.8834 74.4722 22.8834 74.4722L27.2102 98.4237L25.8151 100.923L69.1098 101.083Z" fill="#00A887"/>
<path d="M34.1586 52.8042C34.1489 52.807 34.1144 52.7087 34.0603 52.5284C34.0036 52.3486 33.9405 52.0828 33.88 51.7511C33.7575 51.0882 33.6819 50.1495 33.7875 49.1219C33.8958 48.0946 34.1633 47.1912 34.4197 46.5681C34.5473 46.2558 34.6637 46.0088 34.7562 45.8447C34.8465 45.6791 34.9006 45.5902 34.9092 45.5949C34.9323 45.6063 34.7439 45.9772 34.5153 46.6047C34.2858 47.2309 34.0383 48.1243 33.9314 49.1369C33.8275 50.1495 33.8855 51.0746 33.9811 51.7349C34.0755 52.3958 34.1833 52.7975 34.1586 52.8042Z" fill="#1B3D4C"/>
<path d="M38.9377 53.046C38.928 53.0477 38.9011 52.941 38.8605 52.7457C38.8185 52.551 38.7724 52.2662 38.7266 51.9128C38.6338 51.2061 38.5716 50.2213 38.581 49.1348C38.5913 48.0477 38.6527 47.0665 38.7024 46.3576C38.7288 46.0281 38.7516 45.7478 38.7699 45.5186C38.7891 45.3205 38.8044 45.2114 38.8144 45.2119C38.8244 45.2125 38.828 45.3225 38.8263 45.5214C38.8247 45.7203 38.8166 46.0078 38.8044 46.3629C38.7808 47.0732 38.736 48.0536 38.7258 49.1356C38.7163 50.2177 38.7622 51.1961 38.8283 51.9017C38.893 52.6076 38.9611 53.0418 38.9377 53.046Z" fill="#1B3D4C"/>
<path d="M44.0863 52.1497C44.0647 52.1474 44.093 51.7466 44.1247 51.0996C44.1549 50.4525 44.183 49.5577 44.1235 48.5735C44.0627 47.5887 43.9116 46.7069 43.761 46.0785C43.6118 45.4496 43.484 45.0687 43.5071 45.0606C43.5165 45.0573 43.5571 45.1493 43.6227 45.3193C43.6902 45.4885 43.7721 45.7393 43.8602 46.0532C44.0374 46.6802 44.2069 47.5703 44.268 48.5643C44.3277 49.558 44.2836 50.4589 44.2266 51.1065C44.198 51.4304 44.168 51.6918 44.1413 51.8716C44.1152 52.0516 44.0963 52.1508 44.0863 52.1497Z" fill="#1B3D4C"/>
<path d="M48.9218 52.8048C48.8976 52.7962 49.0429 52.3931 49.1965 51.723C49.3504 51.0552 49.4924 50.1073 49.4152 49.0633C49.351 48.0174 49.064 47.1017 48.8165 46.4636C48.5593 45.8266 48.3498 45.453 48.3737 45.4396C48.3826 45.4349 48.4406 45.5246 48.5387 45.6919C48.6412 45.8569 48.7657 46.1089 48.911 46.4245C49.1857 47.0592 49.4941 47.9879 49.5596 49.0533C49.638 50.1168 49.4768 51.0793 49.296 51.7475C49.2079 52.0833 49.1168 52.3495 49.0454 52.5298C48.9746 52.7103 48.9312 52.8081 48.9218 52.8048Z" fill="#1B3D4C"/>
<path d="M53.5663 52.4063C53.5452 52.408 53.5049 52.0899 53.4418 51.5771C53.3768 51.0645 53.2921 50.3556 53.126 49.5883C52.9604 48.8204 52.7409 48.1415 52.5865 47.6481C52.4298 47.1555 52.3359 46.8488 52.3556 46.8419C52.3737 46.8355 52.5012 47.1294 52.6832 47.615C52.8626 48.1006 53.0996 48.7801 53.2674 49.5577C53.4357 50.3345 53.5046 51.0506 53.5438 51.5668C53.5807 52.0841 53.5849 52.4049 53.5663 52.4063Z" fill="#1B3D4C"/>
<path d="M24.4881 21.229L24.8993 18.369C24.8993 18.369 25.0046 16.228 24.4881 15.1576C23.9717 14.0869 24.614 13.5161 25.8986 14.515C27.1831 15.5143 27.3259 16.3708 27.3259 16.3708C27.3259 16.3708 29.2528 11.018 29.9665 9.59068C30.6801 8.16332 32.5359 5.59418 32.5359 5.59418C32.5359 5.59418 35.462 1.09791 35.6762 1.02652C35.8901 0.955123 36.3899 0.955123 36.1757 1.7402L37.3177 0.99707C37.3177 0.99707 38.6023 1.52601 37.6744 3.23895C36.7466 4.95162 35.5334 7.44964 35.5334 7.44964L35.462 8.66281L38.7451 4.66631C38.7451 4.66631 40.1724 4.02403 39.6727 5.7367C39.1732 7.44964 37.4602 10.1616 37.4602 10.1616L36.6038 14.515C36.6038 14.515 36.8893 16.1566 36.4612 18.1551C36.0329 20.1534 33.1851 26.0117 31.433 26.5795C29.6812 27.1474 24.4881 21.229 24.4881 21.229Z" fill="#FFC19D"/>
<path d="M24.4882 21.2285C24.4882 21.2285 24.5143 21.2527 24.5632 21.3049C24.6143 21.3599 24.6854 21.4363 24.7782 21.5358C24.9679 21.7391 25.2496 22.0408 25.6233 22.4262C25.9969 22.8115 26.4625 23.281 27.0259 23.8141C27.5921 24.3433 28.2496 24.9456 29.0453 25.5401C29.4434 25.8351 29.8787 26.1293 30.3712 26.3593C30.6182 26.4668 30.8846 26.5641 31.1608 26.5679C31.4355 26.576 31.6964 26.4251 31.9269 26.2471C32.3881 25.879 32.782 25.3931 33.156 24.8742C33.531 24.3538 33.8794 23.7866 34.2199 23.1909C34.8914 21.9953 35.5359 20.681 36.0662 19.245C36.1954 18.8853 36.3171 18.5169 36.4015 18.1382C36.4807 17.7557 36.5413 17.3643 36.5802 16.9665C36.6549 16.1722 36.658 15.3452 36.5396 14.5259L36.5377 14.5129L36.5399 14.5021C36.8102 13.1219 37.0977 11.6557 37.393 10.148L37.3955 10.1358L37.4025 10.1244C37.9909 9.17015 38.5579 8.17088 39.0535 7.11856C39.2949 6.59156 39.5285 6.04679 39.6619 5.48118C39.6894 5.34061 39.7121 5.19643 39.7027 5.05808C39.693 4.92279 39.6605 4.78305 39.561 4.70777C39.4666 4.6286 39.3249 4.61054 39.1863 4.62359C39.0476 4.6361 38.9037 4.67749 38.7745 4.73111L38.8004 4.7111C37.7497 5.99067 36.6427 7.33858 35.5178 8.70816L35.3767 8.88012L35.3898 8.65815C35.3956 8.56148 35.4017 8.45647 35.4078 8.35146C35.4256 8.04837 35.4434 7.74612 35.4612 7.44498L35.462 7.4297L35.4684 7.41748C36.036 6.30181 36.5966 5.19948 37.1491 4.11327C37.2872 3.84185 37.4247 3.57127 37.5617 3.30208C37.6322 3.16679 37.6922 3.03539 37.7578 2.90204C37.8061 2.76425 37.865 2.62896 37.8911 2.48617C37.9567 2.20558 37.9556 1.91056 37.8517 1.65025C37.7444 1.39551 37.5353 1.17576 37.2908 1.06214L37.3561 1.05603C36.9722 1.30577 36.5916 1.55302 36.214 1.79832L36.0618 1.8975L36.1079 1.72109C36.1615 1.51718 36.1965 1.26966 36.0715 1.14131C36.0107 1.08048 35.9112 1.05936 35.8123 1.06908C35.7876 1.07103 35.7631 1.07547 35.7387 1.08075L35.7034 1.09048C35.6926 1.0952 35.7006 1.09603 35.6934 1.09853C35.6595 1.13187 35.6237 1.17409 35.5892 1.2166C35.3159 1.56469 35.0642 1.93445 34.8131 2.29615C34.3133 3.02372 33.8316 3.74712 33.3607 4.45886C33.1262 4.81528 32.8937 5.16865 32.6634 5.51868C32.4234 5.8626 32.1853 6.20319 31.9497 6.54045C31.4841 7.21635 31.0363 7.88502 30.6257 8.55453C30.421 8.88929 30.2229 9.22348 30.0498 9.56352C29.8792 9.90466 29.7284 10.2525 29.5848 10.5983C29.2961 11.2895 29.0308 11.9704 28.775 12.633C28.2652 13.9589 27.8002 15.2152 27.3734 16.3872L27.3173 16.5411L27.2762 16.3786C27.1704 15.9594 26.9073 15.5877 26.6375 15.2696C26.3583 14.9527 26.0467 14.6779 25.725 14.4445C25.4074 14.2204 25.0452 14.0106 24.6896 14.0484C24.601 14.0551 24.5276 14.1012 24.4659 14.1545C24.4134 14.2181 24.3745 14.294 24.3626 14.3787C24.3357 14.5471 24.3651 14.724 24.4218 14.8846C24.4757 15.0457 24.5518 15.1993 24.6148 15.3602C24.671 15.5213 24.716 15.6816 24.7529 15.8402C24.8229 16.158 24.8624 16.467 24.8899 16.7623C24.9427 17.3534 24.9457 17.8907 24.9263 18.3699V18.3713L24.926 18.3724C24.7868 19.2995 24.6799 20.0109 24.6068 20.496C24.5696 20.7338 24.5412 20.9152 24.5215 21.0421C24.5018 21.1652 24.4882 21.2285 24.4882 21.2285C24.4882 21.2285 24.4926 21.1677 24.5079 21.046C24.5246 20.9193 24.5485 20.7382 24.5796 20.5007C24.6465 20.0131 24.7449 19.2975 24.8726 18.3649L24.8724 18.3671C24.8874 17.8915 24.8801 17.3551 24.8235 16.7684C24.7676 16.18 24.6574 15.5466 24.3468 14.9093C24.2873 14.7418 24.2529 14.5551 24.282 14.3643C24.2954 14.2687 24.3398 14.1754 24.4054 14.097C24.4804 14.0284 24.5746 13.9737 24.676 13.9648C25.0843 13.9228 25.4485 14.1454 25.7772 14.3709C26.1069 14.6079 26.4225 14.8838 26.7098 15.2068C26.9873 15.5355 27.2565 15.9 27.3757 16.362L27.2787 16.3531C27.7013 15.1785 28.1621 13.9206 28.6686 12.5921C28.9225 11.9282 29.1864 11.2462 29.4739 10.5522C29.6173 10.2052 29.7681 9.85493 29.9404 9.50796C30.1154 9.16237 30.3137 8.82595 30.519 8.48925C30.9299 7.81557 31.3772 7.14495 31.8428 6.46683C32.077 6.13013 32.3139 5.78982 32.5528 5.44645C32.7826 5.09586 33.0145 4.74194 33.2487 4.38496C33.7191 3.67212 34.1999 2.9476 34.6997 2.21836C34.9517 1.85444 35.2009 1.4869 35.4812 1.12909C35.5176 1.08436 35.5537 1.04047 35.6001 0.995189C35.6159 0.981854 35.6454 0.962407 35.6606 0.957962L35.7067 0.945184C35.7373 0.938239 35.7681 0.932682 35.7995 0.930182C35.9218 0.918514 36.0657 0.940739 36.169 1.0413C36.2726 1.14187 36.2957 1.28327 36.2968 1.40328C36.299 1.52774 36.2704 1.64303 36.2435 1.75804L36.1373 1.68081C36.5149 1.43495 36.8952 1.18743 37.2791 0.937405L37.3119 0.916016L37.3447 0.931295C37.635 1.06631 37.8575 1.30494 37.9831 1.59608C38.1011 1.89028 38.1003 2.21781 38.0303 2.51756C38.002 2.67091 37.9409 2.81231 37.8895 2.95788C37.8225 3.09484 37.7567 3.23735 37.6878 3.37014C37.5511 3.63933 37.4139 3.90936 37.2761 4.1805C36.7246 5.26533 36.1649 6.36654 35.5984 7.48082L35.6056 7.45331C35.5878 7.75445 35.5701 8.05698 35.5523 8.36007C35.5462 8.46508 35.5401 8.57009 35.5342 8.66649L35.4062 8.61648C36.5313 7.24718 37.6386 5.89928 38.6895 4.62026L38.7009 4.60637L38.7157 4.60054C38.8643 4.53886 39.0132 4.49636 39.1735 4.48108C39.3296 4.46719 39.511 4.48247 39.6516 4.59748C39.7969 4.71305 39.8338 4.89501 39.8447 5.04864C39.8552 5.2081 39.8302 5.36089 39.8013 5.51035C39.661 6.10124 39.4252 6.64518 39.181 7.17801C38.6804 8.23839 38.1117 9.23821 37.5183 10.1977L37.5278 10.1744C37.23 11.6818 36.9405 13.1478 36.668 14.5273L36.6682 14.5034C36.7882 15.3444 36.7824 16.1733 36.7057 16.9787C36.6655 17.3812 36.6035 17.7768 36.5221 18.1641C36.4346 18.553 36.3107 18.9239 36.1799 19.2861C35.6423 20.7304 34.9925 22.0456 34.3144 23.2448C33.9705 23.8416 33.6182 24.4105 33.2385 24.9336C32.8593 25.4553 32.4612 25.9443 31.9844 26.3218C31.7475 26.5032 31.4686 26.6668 31.1605 26.6585C30.861 26.6524 30.5885 26.549 30.3357 26.4379C29.8337 26.2007 29.3973 25.902 28.9986 25.6028C28.2019 25.0003 27.5471 24.3925 26.9842 23.858C26.4242 23.3196 25.9628 22.8451 25.5936 22.4548C25.2241 22.0647 24.9474 21.7583 24.7626 21.55C24.6732 21.4474 24.6046 21.3688 24.5551 21.3122C24.5096 21.2585 24.4882 21.2285 24.4882 21.2285Z" fill="#FF9C6A"/>
<path d="M36.004 1.78532C36.0123 1.79116 35.9234 1.93506 35.7562 2.19036C35.5748 2.46539 35.3345 2.82903 35.0442 3.2688C34.4497 4.18139 33.6213 5.44568 32.927 6.9536C32.2273 8.46013 31.86 9.93 31.6819 11.0015C31.5905 11.5377 31.5433 11.9763 31.5136 12.2794C31.4833 12.5828 31.4694 12.7511 31.4583 12.7505C31.4533 12.7503 31.4505 12.708 31.45 12.6275C31.45 12.5469 31.4494 12.428 31.4575 12.2755C31.47 11.9699 31.5019 11.5277 31.5811 10.9857C31.7342 9.90361 32.0892 8.41402 32.7954 6.89332C33.4963 5.37206 34.3425 4.1111 34.9595 3.21157C35.2703 2.76264 35.529 2.40427 35.7101 2.15841C35.8915 1.91256 35.996 1.77977 36.004 1.78532Z" fill="#FF9C6A"/>
<path d="M35.6065 8.57875C35.6246 8.59848 35.3373 8.83016 34.9934 9.3041C34.6464 9.77359 34.2755 10.5034 34.0489 11.3679C33.8216 12.233 33.7444 13.0459 33.686 13.6317C33.631 14.2187 33.5966 14.5832 33.5755 14.5818C33.5655 14.5813 33.561 14.4896 33.5619 14.3243C33.563 14.1587 33.5688 13.9195 33.5841 13.6242C33.6166 13.0347 33.6777 12.2122 33.9088 11.3307C34.1397 10.4492 34.5358 9.70608 34.912 9.24243C35.0981 9.00879 35.2698 8.83794 35.397 8.73043C35.5237 8.62265 35.601 8.57181 35.6065 8.57875Z" fill="#FF9C6A"/>
<path d="M31.8575 6.80384C31.8772 6.8119 31.7686 7.11415 31.5997 7.60392C31.4303 8.09341 31.2058 8.77236 30.9902 9.5316C30.7752 10.2917 30.6102 10.9876 30.4974 11.4932C30.3843 11.9985 30.3182 12.3127 30.2971 12.3094C30.2788 12.3063 30.3093 11.986 30.3971 11.4732C30.4843 10.9606 30.6346 10.2567 30.851 9.49216C31.0677 8.72847 31.3094 8.05035 31.5039 7.56808C31.6981 7.08554 31.8403 6.79662 31.8575 6.80384Z" fill="#FF9C6A"/>
<path d="M27.409 15.8995C27.4284 15.9056 27.372 16.149 27.2723 16.5396C27.1581 16.983 27.0256 17.4966 26.8795 18.0639C26.7372 18.6323 26.6083 19.1471 26.4972 19.591C26.3986 19.9819 26.3322 20.2227 26.3122 20.2188C26.293 20.2149 26.3241 19.9663 26.3975 19.569C26.4705 19.1718 26.5878 18.6259 26.7394 18.0283C26.8911 17.4308 27.0486 16.8952 27.1739 16.5112C27.2989 16.127 27.3903 15.8937 27.409 15.8995Z" fill="#FF9C6A"/>
<path d="M52.2807 5.43334C51.6523 4.74272 50.55 5.53613 51.0161 6.34537C51.0239 6.35843 51.0317 6.37149 51.0395 6.38482C51.8381 7.71578 54.5667 12.0712 54.5667 12.0712L55.2321 13.5722C55.2321 13.5722 56.6706 15.8552 56.9367 16.5205C57.2028 17.1861 60.8554 23.1553 61.338 23.6879C61.8205 24.2202 64.3494 23.6879 64.3494 23.6879L67.078 18.2988L64.3494 12.0712C64.3494 12.0712 64.4824 11.1764 63.9502 11.3761C63.4179 11.5759 63.1515 11.7753 63.1515 11.7753L57.1237 3.04978C57.1237 3.04978 55.5493 0.410077 54.4162 2.19664C54.4162 2.19664 53.0922 2.59612 53.8422 4.39602C54.7026 6.46094 55.8977 7.78246 55.8977 7.78246L56.9625 10.5774L52.2807 5.43334Z" fill="#FFC19D"/>
<path d="M52.2807 5.43384C52.2807 5.43384 52.3104 5.46079 52.3648 5.51746C52.4221 5.5783 52.5015 5.66247 52.6049 5.77248C52.8179 6.00278 53.1274 6.33754 53.5291 6.77147C54.3364 7.65155 55.511 8.93223 56.9942 10.5491L56.9225 10.5932C56.6005 9.75454 56.2391 8.81222 55.8507 7.80074L55.8605 7.81657C55.2215 7.0715 54.6503 6.19475 54.155 5.21354C54.0322 4.96768 53.9161 4.7146 53.8055 4.45541C53.7016 4.19205 53.5997 3.91814 53.5708 3.62283C53.5355 3.33141 53.5638 3.01694 53.7052 2.73997C53.8517 2.46661 54.0942 2.24742 54.3986 2.1388L54.3648 2.16436C54.5053 1.94156 54.6915 1.72904 54.9454 1.60097C55.2034 1.47735 55.5176 1.49624 55.7716 1.6143C56.2869 1.85127 56.6611 2.28937 56.9939 2.73914C57.6284 3.65895 58.2843 4.60959 58.9588 5.58747C60.3092 7.53988 61.7341 9.60035 63.2106 11.735L63.1087 11.7186C63.3709 11.5405 63.6487 11.4094 63.9629 11.2986C64.0435 11.2675 64.1624 11.265 64.2532 11.3255C64.3438 11.3877 64.3824 11.4839 64.4057 11.5686C64.4466 11.7436 64.4407 11.9109 64.4207 12.0823L64.4155 12.0428C64.7894 12.8962 65.188 13.8058 65.5906 14.7242C66.1156 15.9229 66.634 17.1064 67.1438 18.2704L67.1574 18.3015L67.1421 18.3318C66.2037 20.1833 65.2905 21.9849 64.4116 23.7195L64.396 23.7501L64.3638 23.7562C63.6557 23.892 62.9523 23.9973 62.2455 23.992C62.0686 23.9851 61.8916 23.9765 61.7157 23.9367C61.546 23.912 61.3468 23.8184 61.2388 23.6706C61.0237 23.3911 60.8429 23.1072 60.6562 22.8244C59.9214 21.6921 59.2411 20.5811 58.5913 19.5119C58.271 18.9746 57.9573 18.4484 57.6509 17.9342C57.3559 17.4142 57.0422 16.9163 56.815 16.3891C56.3013 15.3804 55.7185 14.4636 55.1884 13.6002L55.1865 13.5966L55.1851 13.5935C54.9479 13.0557 54.7315 12.5643 54.5228 12.0912L54.5259 12.0973C53.0432 9.68897 51.8592 7.76601 51.043 6.4406C50.9419 6.27614 50.8661 6.09001 50.8833 5.91083C50.8947 5.73304 50.9711 5.57802 51.068 5.46245C51.2639 5.22326 51.5409 5.15159 51.7417 5.15826C51.9517 5.16687 52.0865 5.26577 52.1695 5.323C52.2451 5.39523 52.2807 5.43384 52.2807 5.43384C52.2807 5.43384 52.2384 5.40134 52.1615 5.33383C52.0768 5.28105 51.9434 5.18882 51.7406 5.1852C51.547 5.18298 51.2822 5.25688 51.0989 5.48773C51.0078 5.59913 50.938 5.74665 50.9291 5.91333C50.9158 6.08251 50.9864 6.25142 51.0878 6.41366C51.9126 7.73351 53.1088 9.64814 54.6073 12.0461L54.6092 12.0492L54.6106 12.0523C54.8212 12.5245 55.0398 13.0148 55.2793 13.5518L55.2757 13.5452C55.811 14.41 56.3944 15.3187 56.9186 16.3399C57.1442 16.8599 57.4578 17.3544 57.7542 17.8734C58.0618 18.3865 58.3765 18.9113 58.698 19.4471C59.3494 20.5139 60.0325 21.6235 60.7673 22.7519C60.9523 23.0314 61.1387 23.3208 61.3421 23.5845C61.4399 23.712 61.5755 23.7745 61.7449 23.8045C61.906 23.8412 62.0774 23.8495 62.248 23.8559C62.935 23.8606 63.6379 23.7553 64.3352 23.6203L64.2874 23.6567C65.1652 21.9213 66.0767 20.1191 67.0138 18.2667L67.0121 18.3279C66.502 17.1641 65.9834 15.9807 65.458 14.7822C65.0558 13.8638 64.6571 12.954 64.2835 12.1006L64.2754 12.0825L64.2782 12.0611C64.2965 11.9095 64.3002 11.7456 64.266 11.6047C64.2301 11.4561 64.141 11.3864 64.0035 11.4366C63.7184 11.5361 63.4273 11.6742 63.1945 11.8331L63.1331 11.8753L63.0925 11.8167C61.6177 9.67925 60.1942 7.61655 58.8455 5.66192C58.1737 4.68432 57.5203 3.73395 56.8886 2.8147C56.5661 2.3741 56.1947 1.94684 55.7216 1.72987C55.4874 1.6218 55.2221 1.60847 54.9981 1.7132C54.777 1.82405 54.602 2.01712 54.4678 2.22992L54.4564 2.24742L54.4339 2.25548C54.1708 2.34826 53.9405 2.55106 53.8111 2.79581C53.683 3.045 53.6544 3.33364 53.6869 3.6095C53.7527 4.16705 54.0261 4.67265 54.255 5.16381C54.742 6.13724 55.3093 7.01371 55.9349 7.74934L55.9413 7.75712L55.9444 7.76518C56.3277 8.77861 56.6847 9.72259 57.0025 10.5627L57.0828 10.7752L56.9308 10.6068C55.4601 8.97835 54.2956 7.68878 53.4949 6.80231C53.1007 6.36171 52.7968 6.02223 52.5874 5.78832C52.4876 5.67497 52.4112 5.58802 52.3559 5.52552C52.3046 5.46606 52.2807 5.43384 52.2807 5.43384Z" fill="#FF9C6A"/>
<path d="M58.7497 13.1024C58.7097 13.1152 58.5072 12.5515 58.1769 11.8957C58.0227 11.5623 57.8319 11.2973 57.6124 11.2225C57.3993 11.1364 57.2527 11.2064 57.2457 11.1845C57.2302 11.1739 57.3827 11.0531 57.6452 11.1256C57.7713 11.1592 57.9111 11.2467 58.0222 11.3756C58.1355 11.5031 58.2239 11.6648 58.3064 11.8309C58.6428 12.4996 58.7864 13.0924 58.7497 13.1024Z" fill="#FF9C6A"/>
<path d="M59.979 10.5201C59.9698 10.5242 59.9003 10.4031 59.7828 10.1803C59.6662 9.95722 59.495 9.6358 59.2778 9.24215C58.8458 8.45347 58.206 7.38809 57.4276 6.2577C56.6517 5.12509 55.9125 4.12361 55.3896 3.38992C55.1421 3.03933 54.9357 2.74681 54.7743 2.51817C54.6315 2.31037 54.5565 2.19286 54.5646 2.18675C54.5726 2.18092 54.6632 2.28732 54.8196 2.48484C54.9904 2.70597 55.2096 2.98961 55.4721 3.32936C56.0158 4.04749 56.7687 5.0398 57.5471 6.17603C58.328 7.31002 58.9578 8.39013 59.3681 9.19382C59.5745 9.59524 59.7323 9.92472 59.8334 10.1559C59.9356 10.3864 59.9881 10.5159 59.979 10.5201Z" fill="#FF9C6A"/>
<path d="M61.1889 12.5745C61.145 12.5728 61.2247 12.0461 60.9411 11.491C60.6694 10.9299 60.2013 10.6757 60.2266 10.6399C60.2338 10.6246 60.3621 10.6637 60.5372 10.7882C60.7116 10.9113 60.923 11.1316 61.0705 11.4266C61.2169 11.7225 61.265 12.0239 61.2578 12.2372C61.2517 12.452 61.2053 12.5778 61.1889 12.5745Z" fill="#FF9C6A"/>
<path d="M65.1205 15.5521C65.1021 15.5613 64.9766 15.3448 64.779 14.9931C64.5568 14.5923 64.299 14.1275 64.0145 13.6141C63.7189 13.0732 63.4606 12.5779 63.2861 12.2129C63.1111 11.8481 63.018 11.6153 63.0355 11.6067C63.0539 11.5978 63.1794 11.814 63.377 12.1657C63.5992 12.5665 63.857 13.0316 64.1415 13.545C64.4371 14.0856 64.6951 14.5809 64.8696 14.9459C65.0446 15.3107 65.138 15.5435 65.1205 15.5521Z" fill="#FF9C6A"/>
<path d="M41.1419 82.16C41.1408 82.155 41.1921 82.1358 41.2913 82.1039C41.4058 82.0686 41.5497 82.0244 41.7258 81.9702C41.8219 81.9416 41.9269 81.9105 42.0403 81.8772C42.1542 81.8399 42.2756 81.7924 42.4075 81.7455C42.6695 81.6474 42.974 81.5524 43.294 81.4041C43.456 81.3341 43.6252 81.2613 43.8013 81.1854C43.9771 81.1085 44.1522 81.011 44.338 80.9201C44.7128 80.7437 45.0897 80.5126 45.492 80.2792C46.2801 79.7858 47.1108 79.1855 47.9114 78.4702C48.7045 77.7459 49.386 76.98 49.9569 76.2461C50.2294 75.8694 50.4978 75.5174 50.7111 75.1623C50.8206 74.9871 50.935 74.8226 51.0295 74.6554C51.1228 74.4881 51.2126 74.327 51.2984 74.1728C51.4784 73.8697 51.6037 73.5764 51.7279 73.3255C51.7879 73.1991 51.8476 73.0833 51.896 72.9735C51.9407 72.8641 51.9824 72.7629 52.0204 72.6702C52.0921 72.5004 52.1504 72.3618 52.1971 72.2515C52.2393 72.1562 52.2635 72.1068 52.2682 72.1084C52.2729 72.1101 52.2579 72.1626 52.2246 72.2612C52.1846 72.3746 52.1343 72.5168 52.0726 72.691C52.0379 72.7857 52.0001 72.8888 51.9593 73.0005C51.9146 73.1121 51.8582 73.2305 51.8015 73.3591C51.6837 73.6144 51.564 73.9128 51.3887 74.2209C51.3048 74.3775 51.217 74.5415 51.1262 74.7115C51.0334 74.8815 50.9206 75.0484 50.8125 75.2265C50.6019 75.5871 50.3352 75.9444 50.063 76.3263C49.4935 77.0711 48.8087 77.8468 48.0084 78.5777C47.2008 79.2994 46.3599 79.902 45.5615 80.3931C45.1539 80.6251 44.7714 80.8543 44.3913 81.0274C44.2033 81.1168 44.0258 81.2121 43.8471 81.2871C43.6688 81.3604 43.4971 81.431 43.3326 81.4985C43.0082 81.6419 42.6992 81.7308 42.4334 81.8222C42.2995 81.8655 42.1764 81.9097 42.0606 81.943C41.9453 81.9722 41.8389 81.9994 41.7411 82.0244C41.5616 82.068 41.4152 82.1036 41.2983 82.1319C41.1969 82.155 41.143 82.1647 41.1419 82.16Z" fill="#1B3D4C"/>
<path d="M26.9148 21.8151C26.3937 21.8729 0.136983 34.6955 0.0055813 40.7222C-0.12582 46.7489 2.08495 49.4422 4.31655 52.8692C6.54788 56.2962 18.5282 69.1605 19.1847 69.3969C19.8408 69.6333 28.7525 57.2657 28.7525 57.2657L25.0772 48.8757C25.0772 48.8757 23.8957 45.5699 20.2203 47.1636L17.2011 44.2673L33.478 28.6688C33.478 28.6688 36.4972 20.7516 26.9148 21.8151Z" fill="#00A887"/>
<path d="M21.9383 62.6533C21.9335 62.6514 21.9452 62.6058 21.9713 62.5205C22.0041 62.4199 22.0438 62.2977 22.0916 62.1505C22.148 61.9913 22.2133 61.7954 22.2705 61.5626C22.3305 61.3307 22.4144 61.0709 22.4666 60.7737C22.4972 60.6256 22.5291 60.4714 22.5622 60.3109C22.5942 60.1497 22.6111 59.9792 22.6378 59.8044C22.6972 59.4549 22.7172 59.0768 22.7489 58.6804C22.7836 57.8859 22.7611 57.0091 22.6389 56.0988C22.5061 55.1895 22.2869 54.3403 22.0352 53.5858C21.896 53.2129 21.7727 52.8551 21.6196 52.5354C21.5457 52.3748 21.4829 52.2154 21.4077 52.0692C21.3318 51.9239 21.2587 51.7842 21.1887 51.6503C21.0571 51.3789 20.9048 51.1522 20.7834 50.9458C20.6642 50.7374 20.5481 50.5671 20.4501 50.4296C20.3634 50.3013 20.2917 50.1949 20.2325 50.1071C20.1842 50.0324 20.1606 49.9915 20.1645 49.9885C20.1684 49.9854 20.1998 50.0201 20.2559 50.0893C20.3212 50.1729 20.4003 50.2746 20.4959 50.3971C20.6015 50.5302 20.7251 50.6969 20.8518 50.9022C20.9804 51.1058 21.1398 51.3305 21.2785 51.6011C21.3518 51.7347 21.4282 51.8742 21.5077 52.0192C21.586 52.1653 21.6521 52.3251 21.7291 52.4862C21.8883 52.8068 22.0172 53.1666 22.1611 53.5419C22.4225 54.3017 22.648 55.1595 22.7822 56.0788C22.9056 56.9991 22.9245 57.8859 22.882 58.6882C22.8467 59.0885 22.8217 59.4697 22.7564 59.8216C22.7269 59.9978 22.7072 60.1695 22.6719 60.3314C22.6353 60.4925 22.6003 60.6478 22.5664 60.7965C22.5072 61.0945 22.4158 61.3546 22.348 61.5857C22.2827 61.8179 22.2097 62.0121 22.1447 62.1691C22.0866 62.3133 22.0383 62.4327 21.9983 62.5311C21.9635 62.613 21.943 62.6553 21.9383 62.6533Z" fill="#1B3D4C"/>
<path d="M23.64 73.7208C23.6358 73.7183 23.6697 73.6483 23.7383 73.5175C23.815 73.3761 23.917 73.1869 24.0448 72.9499C24.1128 72.826 24.1878 72.6899 24.2689 72.5415C24.3473 72.3904 24.4231 72.2215 24.5101 72.0429C24.6779 71.6826 24.8901 71.2822 25.0687 70.8144C25.1643 70.583 25.264 70.3408 25.3677 70.0888C25.4702 69.836 25.5535 69.564 25.6527 69.2873C25.8599 68.7367 26.0199 68.1289 26.2025 67.4938C26.5275 66.2134 26.7972 64.7825 26.9342 63.2629C27.0553 61.7416 27.0306 60.2854 26.9261 58.968C26.8531 58.3113 26.7978 57.6851 26.6864 57.1073C26.635 56.8181 26.5989 56.5358 26.5405 56.2694C26.4805 56.0035 26.423 55.748 26.368 55.5038C26.2705 55.0126 26.1291 54.582 26.0244 54.1987C25.9688 54.0081 25.9224 53.8286 25.8708 53.6664C25.8155 53.5069 25.7649 53.36 25.7185 53.2263C25.6324 52.971 25.5638 52.7677 25.5124 52.6152C25.4666 52.4749 25.4449 52.4001 25.4496 52.3985C25.4541 52.3965 25.4849 52.4676 25.5396 52.6049C25.5974 52.7552 25.6746 52.9558 25.7716 53.2077C25.8216 53.3402 25.8766 53.4864 25.9363 53.645C25.9922 53.8064 26.0424 53.985 26.1019 54.1753C26.2141 54.5579 26.3633 54.9882 26.4675 55.4796C26.5258 55.7244 26.5864 55.9805 26.6497 56.2469C26.7114 56.5142 26.7506 56.797 26.8047 57.0873C26.9217 57.667 26.982 58.296 27.0589 58.9561C27.1712 60.2798 27.2003 61.7449 27.0784 63.2751C26.9406 64.8036 26.6653 66.2423 26.3314 67.528C26.1444 68.1656 25.9788 68.7753 25.766 69.3271C25.6638 69.6043 25.5774 69.8763 25.4716 70.1294C25.3643 70.3813 25.2615 70.6233 25.1629 70.855C24.9771 71.322 24.7579 71.7209 24.5826 72.079C24.4917 72.2565 24.412 72.4243 24.3301 72.574C24.2445 72.7202 24.1656 72.8549 24.0939 72.9771C23.9559 73.2091 23.8458 73.3941 23.7636 73.5325C23.6867 73.6586 23.6442 73.7233 23.64 73.7208Z" fill="#1B3D4C"/>
<path d="M19.7777 41.9428C19.7844 41.9503 19.6791 42.0567 19.483 42.2434C19.2871 42.4304 18.9976 42.694 18.6337 43.0129C17.9073 43.6524 16.8758 44.505 15.6984 45.3965C14.5214 46.2896 13.4257 47.0561 12.6256 47.5997C12.225 47.8709 11.8986 48.0873 11.6706 48.2326C11.4425 48.3784 11.3138 48.4551 11.3083 48.4468C11.3027 48.4387 11.4205 48.3462 11.6386 48.1862C11.8792 48.0126 12.1914 47.787 12.567 47.5158C13.3515 46.9513 14.4364 46.1727 15.6109 45.2812C16.786 44.3914 17.825 43.5535 18.5673 42.9351C18.9226 42.6384 19.2179 42.3915 19.4455 42.2012C19.653 42.0278 19.7711 41.9353 19.7777 41.9428Z" fill="#1B3D4C"/>
<path d="M60.4592 22.9267C60.4592 22.9267 62.0021 16.3869 69.0606 17.7334C69.0606 17.7334 84.2971 28.3625 88.7289 34.0089C93.1607 39.6553 91.8356 41.7749 90.6429 44.6985C89.4503 47.6222 85.2608 52.4979 77.6136 58.8519L67.4432 66.5279C67.4432 66.5279 58.9088 49.004 59.7652 47.7402C60.1786 47.1302 73.2671 41.4818 73.2671 41.4818C73.2671 41.4818 72.7554 40.8768 73.6249 39.912L68.3986 33.5247L60.4592 22.9267Z" fill="#00A887"/>
<path d="M88.6657 38.3742C88.6779 38.3678 88.7996 38.5983 88.8315 39.0103C88.8657 39.4145 88.7746 40.0168 88.3879 40.5285C88.0023 41.04 87.4589 41.3028 87.065 41.3983C86.6652 41.4978 86.4085 41.4639 86.4099 41.4494C86.4085 41.4242 86.6602 41.4206 87.0366 41.3003C87.4086 41.1833 87.9123 40.9197 88.2723 40.4419C88.6335 39.964 88.7363 39.4031 88.7293 39.0145C88.7249 38.6197 88.6407 38.3811 88.6657 38.3742Z" fill="#1B3D4C"/>
<path d="M67.5583 82.7452C67.5558 82.7449 67.5577 82.718 67.5636 82.666C67.5714 82.606 67.5814 82.5305 67.5936 82.436C67.6244 82.224 67.6675 81.929 67.7225 81.5545C67.8464 80.7911 67.99 79.681 68.15 78.3084C68.4337 75.5678 68.6934 71.7177 67.9956 67.5526C67.638 65.4752 67.0649 63.5439 66.4229 61.8362C66.2554 61.4117 66.1009 60.9942 65.9348 60.595C65.7573 60.2005 65.5848 59.8177 65.4181 59.4474C65.3333 59.2629 65.2556 59.079 65.1697 58.9029C65.0808 58.7284 64.9933 58.557 64.9078 58.389C64.7366 58.0531 64.5724 57.7308 64.4158 57.4227C63.7543 56.2099 63.1998 55.2375 62.7853 54.5847C62.5892 54.2611 62.435 54.006 62.3239 53.823C62.2758 53.7407 62.2375 53.6749 62.2069 53.6227C62.1811 53.5771 62.1692 53.5532 62.1711 53.5518C62.1733 53.5504 62.1894 53.5718 62.2192 53.6146C62.2531 53.6649 62.2956 53.7282 62.3483 53.8071C62.465 53.9869 62.6273 54.2372 62.8334 54.5547C63.2626 55.1992 63.8315 56.1648 64.5058 57.3744C64.6658 57.6819 64.833 58.0036 65.0075 58.3389C65.0947 58.5067 65.1833 58.6779 65.2739 58.8521C65.3611 59.0282 65.4406 59.2121 65.5267 59.3966C65.6962 59.7674 65.8715 60.1505 66.052 60.545C66.2207 60.9448 66.3776 61.3634 66.5476 61.789C67.1991 63.5008 67.7791 65.4407 68.1381 67.5282C68.8395 71.7147 68.5617 75.5784 68.2517 78.3198C68.0786 79.6932 67.9192 80.8022 67.778 81.5634C67.7119 81.9365 67.6597 82.2299 67.6222 82.441C67.6041 82.5343 67.5897 82.6091 67.5783 82.6685C67.5675 82.7196 67.5608 82.7458 67.5583 82.7452Z" fill="#1B3D4C"/>
<path d="M75.1034 44.6207C75.0904 44.6332 74.919 44.4835 74.6756 44.2082C74.4323 43.9334 74.1231 43.5281 73.8386 43.0439C73.5549 42.5591 73.3522 42.0913 73.231 41.7449C73.1099 41.3982 73.0627 41.1754 73.0802 41.1701C73.123 41.1554 73.3999 42.0174 73.9633 42.9708C74.52 43.9276 75.137 44.5904 75.1034 44.6207Z" fill="#1B3D4C"/>
<path d="M78.5906 44.4774C78.5847 44.4854 78.5005 44.4365 78.353 44.3412C78.205 44.2462 77.9958 44.1015 77.7413 43.917C77.2324 43.5484 76.5484 43.0119 75.8317 42.3738C75.1155 41.7349 74.5041 41.1165 74.0798 40.6531C73.8673 40.4214 73.6998 40.2303 73.5884 40.0942C73.4767 39.9586 73.4187 39.8802 73.4259 39.8736C73.442 39.8591 73.7115 40.1386 74.1537 40.5823C74.5957 41.0262 75.2152 41.6299 75.9281 42.2658C76.6412 42.9008 77.3118 43.4473 77.8033 43.8356C78.2944 44.224 78.6031 44.4599 78.5906 44.4774Z" fill="#1B3D4C"/>
<g opacity="0.3">
<path d="M11.5391 48.2382C12.8625 48.4354 14.259 48.0868 15.3344 47.2909C16.4101 46.4947 17.1513 45.261 17.3491 43.9375C15.4861 45.1301 13.277 46.8697 11.5391 48.2382Z" fill="black"/>
</g>
<g opacity="0.3">
<path d="M67.6019 59.6181C66.6716 57.384 64.895 55.583 62.7518 54.459L62.7312 54.499C65.2314 58.146 66.8685 62.437 67.9434 66.726C68.6554 64.413 68.5323 61.8522 67.6019 59.6181Z" fill="black"/>
</g>
<path d="M80.8257 91.707L84.97 100.858H86.9704L87.2571 100.16L87.6122 100.858H88.9248L88.7723 95.5163L88.7076 92.3599L80.8257 91.707Z" fill="#95A3B5"/>
<g opacity="0.3">
<path d="M80.8257 91.707L84.97 100.858H86.9704L87.2571 100.16L87.6122 100.858H88.9248L88.7723 95.5163L88.7076 92.3599L80.8257 91.707Z" fill="black"/>
</g>
<path d="M98.9653 92.6875L103.007 100.858H105.008L105.295 100.219L105.65 100.858H106.962L106.81 95.9681L106.745 93.0786L98.9653 92.6875Z" fill="#95A3B5"/>
<g opacity="0.3">
<path d="M98.9656 92.6885L103.008 100.859H105.008L105.295 100.22L105.65 100.859H106.962L106.81 95.9691L106.745 93.0796L98.9656 92.6885Z" fill="black"/>
</g>
<path d="M119.977 76.8855C120.579 90.4654 109.195 97.2414 96.3078 97.2414C83.421 97.2414 72.9739 88.418 72.9739 77.5339C72.9739 66.6498 83.421 57.8262 96.3078 57.8262C109.195 57.8262 119.496 66.012 119.977 76.8855Z" fill="#95A3B5"/>
<g opacity="0.3">
<path d="M94.6816 62.6942C94.6816 62.6942 96.2293 62.2028 97.6772 63.8388C99.1248 65.475 101.139 68.2642 101.139 68.2642C100.958 69.1718 100.428 69.8788 99.401 70.3L94.6816 62.6942Z" fill="black"/>
</g>
<path d="M88.954 85.5302C88.954 88.9122 85.3767 91.6535 80.9641 91.6535C76.5515 91.6535 72.9739 88.9122 72.9739 85.5302C72.9739 82.1482 76.5515 79.4062 80.9641 79.4062C85.3767 79.4062 88.954 82.1482 88.954 85.5302Z" fill="#95A3B5"/>
<path d="M88.416 69.1608C88.416 69.1608 93.099 61.8959 95.2433 62.6838C97.388 63.4713 99.401 70.2987 99.401 70.2987" fill="#95A3B5"/>
<path d="M83.1206 67.4957L82.902 65.5285C82.902 65.5285 79.9695 64.3032 77.3437 63.7031C74.7179 63.1033 74.2014 63.7031 74.2014 63.7031L78.3551 69.5228L83.1206 67.4957Z" fill="#95A3B5"/>
<g opacity="0.3">
<path d="M89.3706 60.5273L90.9244 61.4499C90.9244 61.4499 98.4512 59.4592 104.23 61.4499L102.109 59.6453C102.109 59.6453 95.1006 58.1393 89.3706 60.5273Z" fill="black"/>
</g>
<g opacity="0.3">
<path d="M88.954 85.5302C88.954 88.9122 85.3767 91.6535 80.9641 91.6535C76.5515 91.6535 72.9739 88.9122 72.9739 85.5302C72.9739 82.1482 76.5515 79.4062 80.9641 79.4062C85.3767 79.4062 88.954 82.1482 88.954 85.5302Z" fill="black"/>
</g>
<path d="M86.4188 85.5302C86.4188 88.9122 83.0676 91.6535 78.9336 91.6535C74.7999 91.6535 71.4487 88.9122 71.4487 85.5302C71.4487 82.1482 74.7999 79.4062 78.9336 79.4062C83.0676 79.4062 86.4188 82.1482 86.4188 85.5302Z" fill="#95A3B5"/>
<g opacity="0.3">
<path d="M76.0582 88.4019C75.6162 88.4019 75.2578 88.0436 75.2578 87.6016V83.4579C75.2578 83.0156 75.6162 82.6572 76.0582 82.6572C76.5004 82.6572 76.8588 83.0156 76.8588 83.4579V87.6016C76.8588 88.0436 76.5004 88.4019 76.0582 88.4019Z" fill="black"/>
</g>
<g opacity="0.3">
<path d="M80.5276 88.4019H80.1906C79.8414 88.4019 79.5586 88.1189 79.5586 87.7699V83.2892C79.5586 82.9403 79.8414 82.6572 80.1906 82.6572H80.5276C80.8765 82.6572 81.1596 82.9403 81.1596 83.2892V87.7699C81.1596 88.1189 80.8765 88.4019 80.5276 88.4019Z" fill="black"/>
</g>
<g opacity="0.3">
<path d="M82.6664 67.6897C83.3401 67.3091 83.7015 66.7416 83.4473 65.804C83.4473 65.804 79.9698 64.3041 77.3437 63.7041C74.7179 63.1043 74.2014 63.7041 74.2014 63.7041L78.3551 69.5241L82.6664 67.6897Z" fill="black"/>
</g>
<path d="M82.902 67.8481C82.902 67.8481 82.707 67.7153 82.3781 67.4958C80.8287 66.4616 76.3025 63.5049 75.1554 63.4718C73.58 63.4263 73.5778 64.7847 73.58 65.8351C73.5814 66.5802 74.1928 73.0561 74.1928 73.0561" fill="#95A3B5"/>
<path d="M99.4011 70.2994C99.4 70.3 99.3938 70.2847 99.3836 70.2547C99.3719 70.2205 99.3569 70.1763 99.3386 70.1211C99.2972 69.9985 99.2394 69.8263 99.1661 69.6071C99.0144 69.1615 98.7896 68.5184 98.4821 67.7353C98.1718 66.9538 97.7851 66.0273 97.2545 65.0511C96.9856 64.5663 96.688 64.0616 96.3049 63.5971C96.1146 63.3651 95.9041 63.1395 95.6546 62.959C95.4071 62.7798 95.1159 62.632 94.8012 62.6689C94.4889 62.6945 94.1947 62.8237 93.9255 62.9737C93.6552 63.1251 93.4066 63.3062 93.171 63.4937C92.7018 63.8727 92.2859 64.2838 91.9051 64.6875C91.1453 65.4989 90.5213 66.2851 90.0102 66.9527C89.4998 67.6219 89.1059 68.1772 88.8359 68.5628C88.7039 68.7529 88.6003 68.9018 88.5264 69.0082C88.4931 69.0559 88.4664 69.094 88.4458 69.1237C88.4272 69.1496 88.4175 69.1623 88.4161 69.1618C88.415 69.161 88.4228 69.1465 88.4389 69.119C88.4581 69.0884 88.4825 69.0487 88.5131 68.9993C88.5795 68.8943 88.6789 68.7409 88.81 68.5453C89.0726 68.1542 89.4601 67.593 89.9652 66.9185C90.4716 66.2454 91.0917 65.4545 91.8512 64.6372C92.2323 64.2302 92.649 63.8163 93.1219 63.4326C93.3597 63.2429 93.6108 63.059 93.8867 62.9042C94.1611 62.7512 94.4631 62.617 94.7948 62.5892C94.9593 62.5753 95.1298 62.5948 95.2821 62.6581C95.4332 62.7198 95.5726 62.8009 95.7013 62.8945C95.9593 63.0818 96.1727 63.3118 96.3655 63.5474C96.753 64.0191 97.0503 64.5277 97.3195 65.0158C97.8487 65.9987 98.2307 66.9293 98.5346 67.7147C98.836 68.5017 99.053 69.1485 99.1955 69.5974C99.2669 69.8219 99.3197 69.9971 99.3538 70.1163C99.3691 70.1724 99.3816 70.2174 99.3914 70.2524C99.3994 70.2833 99.4025 70.2991 99.4011 70.2994Z" fill="#1B3D4C"/>
<path d="M102.11 59.6456C102.11 59.6447 102.123 59.6539 102.148 59.6733C102.176 59.6958 102.211 59.7245 102.255 59.7606C102.353 59.842 102.49 59.9562 102.664 60.1014C103.021 60.4043 103.529 60.836 104.156 61.3677L104.255 61.4518L104.13 61.4166C103.356 61.2004 102.428 60.9801 101.383 60.8185C100.339 60.6559 99.181 60.5515 97.9637 60.5393C95.0656 60.4918 92.5237 61.0371 90.9875 61.4774L90.9775 61.4802L90.9686 61.4752C90.4655 61.1802 90.066 60.946 89.7871 60.7823C89.6545 60.7032 89.5509 60.6409 89.4756 60.5959C89.4434 60.5759 89.4176 60.5595 89.3962 60.5465C89.3787 60.5351 89.3701 60.5287 89.3706 60.5276C89.3712 60.5268 89.3809 60.5309 89.3998 60.5404C89.4217 60.552 89.4487 60.5665 89.4823 60.5843C89.559 60.6268 89.6651 60.6851 89.8001 60.7598C90.0815 60.9187 90.4846 61.1463 90.9927 61.4332L90.9738 61.431C91.7442 61.2035 92.7598 60.9443 93.953 60.7546C94.5489 60.6562 95.1895 60.5848 95.8615 60.5265C96.5347 60.482 97.2392 60.4456 97.9645 60.4593C99.1857 60.4715 100.348 60.5784 101.395 60.7457C102.442 60.9118 103.373 61.1385 104.145 61.3618L104.119 61.4107C103.499 60.871 102.996 60.4326 102.643 60.1253C102.474 59.9753 102.34 59.857 102.245 59.7728C102.203 59.7342 102.169 59.7036 102.142 59.6795C102.12 59.6583 102.109 59.6467 102.11 59.6456Z" fill="#1B3D4C"/>
<path d="M83.398 80.6144C83.3971 80.6155 83.3821 80.6069 83.3538 80.5886C83.3224 80.5678 83.2816 80.5408 83.2299 80.5066C83.1743 80.4691 83.1079 80.4239 83.0302 80.3711C82.9482 80.3219 82.8507 80.2705 82.7432 80.2094C82.309 79.9741 81.6384 79.6966 80.7661 79.5382C80.3293 79.4643 79.8462 79.4135 79.3256 79.4038C78.805 79.4007 78.2483 79.4352 77.6702 79.5254C76.5176 79.7035 75.2658 80.1216 74.1551 80.8928C73.8804 81.0881 73.6195 81.2959 73.3812 81.5217C73.1456 81.7501 72.9234 81.986 72.7308 82.2388C72.3425 82.7408 72.041 83.2839 71.8338 83.8281C71.4374 84.9304 71.4463 86.0247 71.638 86.8825C71.7349 87.3145 71.8891 87.686 72.041 88.0021C72.2072 88.3113 72.3755 88.5641 72.5314 88.7563C72.6108 88.8505 72.6817 88.9344 72.7436 89.008C72.8106 89.0739 72.8681 89.1303 72.9159 89.1772C72.9595 89.2208 72.9942 89.2555 73.0209 89.2822C73.0442 89.3064 73.0559 89.3192 73.055 89.3203C73.0539 89.3214 73.0406 89.3105 73.0153 89.2886C72.9873 89.2633 72.9509 89.2303 72.9047 89.1889C72.8553 89.143 72.7958 89.0883 72.7264 89.0241C72.6622 88.9519 72.5892 88.8688 72.5072 88.7761C72.3466 88.5855 72.1727 88.3332 72.0013 88.0226C71.8441 87.7054 71.6846 87.3315 71.5829 86.8953C71.3818 86.0294 71.3663 84.9226 71.7646 83.8028C71.8716 83.5267 71.9941 83.2489 72.1486 82.9808C72.2961 82.7088 72.4741 82.4463 72.6689 82.191C72.8636 81.9346 73.0881 81.6954 73.3264 81.464C73.5676 81.2353 73.8315 81.0247 74.1093 80.8272C75.2325 80.0474 76.4965 79.6282 77.6588 79.4527C78.2416 79.3635 78.8025 79.3315 79.3268 79.3376C79.851 79.3501 80.3371 79.4046 80.7761 79.4824C81.6536 79.6493 82.3262 79.9371 82.7582 80.1822C82.8654 80.2458 82.9621 80.2994 83.0429 80.3511C83.1193 80.4064 83.1849 80.4539 83.2393 80.4936C83.2891 80.5303 83.3285 80.5597 83.3588 80.5822C83.3855 80.6025 83.3988 80.6136 83.398 80.6144Z" fill="#1B3D4C"/>
<path d="M76.8138 83.1963C76.8194 83.1963 76.8249 83.2835 76.831 83.441C76.8383 83.6124 76.848 83.8369 76.8594 84.1078C76.8833 84.6709 76.9291 85.4482 76.9505 86.3091C76.9555 86.5244 76.9574 86.735 76.9566 86.938C76.9552 87.1414 76.9483 87.3403 76.9124 87.5273C76.848 87.902 76.6357 88.2193 76.3688 88.3482C76.0979 88.4796 75.8376 88.4043 75.7093 88.3137C75.6423 88.2679 75.6012 88.2187 75.5781 88.1834C75.5559 88.1473 75.5481 88.1268 75.5501 88.1257C75.5576 88.1195 75.5937 88.2068 75.7259 88.2873C75.8521 88.3654 76.0988 88.4248 76.3432 88.2979C76.5866 88.1723 76.7822 87.8737 76.8399 87.5139C76.8727 87.3339 76.878 87.1397 76.8783 86.9378C76.8783 86.7352 76.8755 86.5258 76.8705 86.311C76.8494 85.4521 76.8122 84.6737 76.803 84.1097C76.7974 83.8275 76.7972 83.5991 76.7999 83.4413C76.8033 83.2835 76.8085 83.1963 76.8138 83.1963Z" fill="#1B3D4C"/>
<path d="M81.058 83.1963C81.0635 83.1963 81.0691 83.2835 81.0755 83.441C81.0827 83.6124 81.0921 83.8369 81.1035 84.1078C81.1271 84.6709 81.1732 85.4482 81.1946 86.3091C81.1999 86.5244 81.2016 86.735 81.2007 86.938C81.1994 87.1414 81.1927 87.3403 81.1566 87.5273C81.0924 87.902 80.8799 88.2193 80.6132 88.3482C80.3423 88.4796 80.082 88.4043 79.9537 88.3137C79.8864 88.2679 79.8453 88.2187 79.8226 88.1834C79.8003 88.1473 79.7923 88.1268 79.7942 88.1257C79.8017 88.1195 79.8378 88.2068 79.9703 88.2873C80.0962 88.3654 80.3429 88.4248 80.5874 88.2979C80.8307 88.1723 81.0263 87.8737 81.0841 87.5139C81.1168 87.3339 81.1221 87.1397 81.1224 86.9378C81.1221 86.7352 81.1199 86.5258 81.1146 86.311C81.0935 85.4521 81.0563 84.6737 81.0471 84.1097C81.0416 83.8275 81.0416 83.5991 81.0441 83.4413C81.0474 83.2835 81.0524 83.1963 81.058 83.1963Z" fill="#1B3D4C"/>
<path d="M86.3286 86.8643C86.3311 86.8651 86.32 86.9015 86.2958 86.9698C86.2697 87.0373 86.2403 87.141 86.1822 87.2657C86.0786 87.521 85.896 87.878 85.621 88.2875C85.3471 88.6978 84.9646 89.1489 84.4834 89.5901C84.2401 89.8071 83.9736 90.0232 83.682 90.2263C83.3891 90.4268 83.0727 90.616 82.736 90.7844C82.0632 91.1208 81.3845 91.3711 80.7453 91.5058C80.1072 91.6483 79.5163 91.6764 79.0248 91.6789C78.532 91.6764 78.135 91.6486 77.8608 91.6295C77.7303 91.6192 77.6255 91.6108 77.5455 91.6045C77.4733 91.5978 77.4358 91.5928 77.4358 91.5903C77.4361 91.5875 77.4741 91.587 77.5464 91.5883C77.6266 91.5908 77.7317 91.5942 77.8625 91.5983C78.137 91.6078 78.5342 91.627 79.0243 91.6222C79.5132 91.6125 80.0988 91.5792 80.7294 91.4339C81.3614 91.2964 82.0321 91.0469 82.7002 90.713C83.0338 90.5463 83.3466 90.3593 83.6375 90.1615C83.927 89.9618 84.1917 89.7487 84.4342 89.5354C84.9135 89.1014 85.2968 88.6583 85.5744 88.2555C85.853 87.8535 86.0419 87.5032 86.1536 87.2529C86.2161 87.1307 86.25 87.0296 86.2808 86.964C86.3094 86.8979 86.3258 86.8634 86.3286 86.8643Z" fill="#1B3D4C"/>
<path d="M76.7213 83.0249C76.7138 83.0285 76.695 82.9613 76.6158 82.8732C76.5391 82.7863 76.3872 82.683 76.1766 82.6746C75.9704 82.6655 75.7137 82.7577 75.5293 82.9635C75.4365 83.0652 75.3687 83.1952 75.3326 83.3413C75.2962 83.4878 75.2873 83.6469 75.287 83.8106C75.2923 84.4706 75.2951 85.0698 75.292 85.5027C75.289 85.7066 75.2868 85.8783 75.2845 86.0158C75.2809 86.1372 75.2765 86.2041 75.2709 86.2041C75.2654 86.2041 75.2595 86.1372 75.2534 86.0161C75.2487 85.8785 75.2426 85.7071 75.2356 85.5035C75.224 85.0701 75.2123 84.4726 75.207 83.8103C75.2073 83.6442 75.2165 83.4786 75.2565 83.3222C75.2959 83.1661 75.3726 83.0224 75.4748 82.9138C75.6787 82.6938 75.956 82.601 76.1799 82.6182C76.408 82.6346 76.5663 82.7552 76.6397 82.8533C76.6786 82.9021 76.6977 82.9469 76.7102 82.9766C76.7202 83.0077 76.7241 83.0241 76.7213 83.0249Z" fill="white"/>
<path d="M79.5339 83.3799C79.5559 83.3799 79.5736 84.1889 79.5736 85.187C79.5736 86.1854 79.5559 86.9944 79.5339 86.9944C79.5117 86.9944 79.4939 86.1854 79.4939 85.187C79.4939 84.1889 79.5117 83.3799 79.5339 83.3799Z" fill="white"/>
<path d="M78.2456 79.8943C78.2456 79.8971 78.2129 79.8993 78.1512 79.9007C78.0895 79.9038 77.9984 79.8993 77.8811 79.9065C77.6472 79.9132 77.3083 79.9393 76.8966 80.0135C76.0776 80.156 74.9528 80.5483 73.9599 81.3564C72.9671 82.1651 72.3545 83.1874 72.0489 83.9605C71.8931 84.3486 71.7986 84.675 71.7447 84.9028C71.7142 85.0162 71.7 85.1062 71.6844 85.1662C71.6705 85.2262 71.6617 85.2576 71.6592 85.2573C71.6564 85.2568 71.6597 85.2245 71.6686 85.1632C71.6789 85.102 71.6883 85.0109 71.7144 84.8962C71.7594 84.665 71.8458 84.3336 71.9964 83.9397C72.2912 83.1546 72.9032 82.1137 73.9094 81.2944C74.9153 80.4755 76.0585 80.0871 76.8869 79.9576C77.3036 79.8901 77.6453 79.8726 77.8806 79.8754C77.9984 79.8729 78.0898 79.8824 78.1515 79.8846C78.2134 79.8885 78.2459 79.8915 78.2456 79.8943Z" fill="white"/>
<path d="M74.2313 72.0733C74.2338 72.0744 74.2241 72.1041 74.2033 72.1602C74.1783 72.2239 74.1469 72.3044 74.1082 72.4033C74.0652 72.5081 74.0141 72.6367 73.9616 72.7886C73.9077 72.94 73.8404 73.1103 73.7818 73.304C73.7188 73.4962 73.6507 73.7071 73.5896 73.9368C73.521 74.1646 73.4651 74.4124 73.4021 74.6721C73.2871 75.1939 73.1854 75.7731 73.1193 76.3865C73.0576 77.0004 73.0379 77.5883 73.0426 78.1228C73.0509 78.3897 73.0545 78.6439 73.0748 78.8809C73.087 79.1184 73.1106 79.3387 73.1326 79.5398C73.1501 79.7415 73.1809 79.9218 73.2023 80.081C73.2226 80.2407 73.2462 80.3771 73.2665 80.4885C73.284 80.5933 73.2982 80.6786 73.3096 80.7458C73.3182 80.805 73.3218 80.8364 73.319 80.8369C73.3162 80.8375 73.3076 80.8072 73.2937 80.7491C73.2784 80.6825 73.2595 80.598 73.2359 80.4944C73.2109 80.3835 73.1826 80.2477 73.1581 80.0882C73.1326 79.929 73.0979 79.7485 73.0765 79.5465C73.0506 79.3451 73.024 79.1243 73.0087 78.8856C72.9856 78.6478 72.9792 78.3928 72.969 78.1241C72.9601 77.5872 72.9776 76.9954 73.0398 76.3782C73.1062 75.7614 73.2109 75.1794 73.3301 74.6558C73.3954 74.3952 73.4543 74.1465 73.5257 73.9185C73.5899 73.6884 73.6615 73.4779 73.7282 73.2859C73.7904 73.0928 73.8618 72.9231 73.9196 72.7725C73.9766 72.6217 74.0321 72.4944 74.0796 72.3911C74.1238 72.2947 74.1599 72.2158 74.1885 72.1538C74.2141 72.1 74.2288 72.0719 74.2313 72.0733Z" fill="white"/>
<path d="M74.4604 64.088C74.4668 64.093 74.3976 64.1711 74.3056 64.3319C74.214 64.4925 74.1092 64.7423 74.0489 65.0687C73.9848 65.394 73.9645 65.7904 73.9545 66.2313C73.9425 66.6722 73.94 67.1572 73.9523 67.6659C73.9773 68.6835 74.0587 69.6025 74.1362 70.2653C74.1765 70.587 74.2095 70.852 74.2345 71.0495C74.2451 71.1346 74.254 71.2048 74.2615 71.2629C74.2667 71.3118 74.2681 71.3379 74.2653 71.3382C74.2626 71.3387 74.2559 71.3137 74.2453 71.2657C74.2342 71.2082 74.2203 71.1384 74.2037 71.0543C74.1701 70.8706 74.1256 70.6037 74.0801 70.2722C73.9881 69.61 73.8973 68.6888 73.8725 67.6678C73.86 67.1575 73.865 66.6711 73.8806 66.2291C73.895 65.7879 73.9211 65.3868 73.9937 65.0573C74.062 64.727 74.1773 64.4742 74.279 64.3158C74.3295 64.2367 74.374 64.178 74.4073 64.1417C74.4401 64.1044 74.4584 64.0861 74.4604 64.088Z" fill="white"/>
<path d="M114.738 91.3662C114.738 91.3662 114.713 91.3868 114.663 91.4234C114.609 91.4612 114.534 91.5146 114.437 91.5843C114.336 91.6549 114.213 91.7415 114.068 91.8435C113.995 91.8946 113.917 91.9496 113.832 92.0085C113.746 92.0643 113.655 92.1238 113.558 92.1866C112.789 92.7025 111.638 93.3953 110.154 94.1307C109.782 94.3126 109.387 94.4923 108.976 94.6807C108.768 94.7688 108.556 94.8588 108.34 94.9504C108.231 94.996 108.122 95.0421 108.012 95.0885C107.9 95.1313 107.788 95.1746 107.674 95.2183C107.447 95.3055 107.215 95.3938 106.98 95.4838C106.743 95.5661 106.501 95.6494 106.256 95.7341C106.012 95.8222 105.76 95.8986 105.505 95.9764C105.249 96.0519 104.993 96.1403 104.728 96.2084C103.675 96.5103 102.55 96.7587 101.376 96.962C100.202 97.1634 98.9737 97.3082 97.7103 97.3568C96.4468 97.4093 95.2089 97.371 94.0238 97.2409C93.8755 97.2265 93.7277 97.2123 93.5807 97.1979C93.4338 97.1829 93.2887 97.1579 93.1437 97.1387C92.854 97.0979 92.5673 97.057 92.2834 97.0168C92.0014 96.9645 91.7225 96.9129 91.4466 96.8617C91.3088 96.8359 91.1719 96.8101 91.0357 96.7845C90.9004 96.7537 90.766 96.7231 90.6326 96.6926C88.4938 96.2153 86.6206 95.568 85.1077 94.8949C83.592 94.2257 82.4241 93.5581 81.6537 93.045C81.2584 92.803 80.9762 92.5788 80.7764 92.4397C80.6795 92.3691 80.6053 92.3149 80.5525 92.2763C80.5022 92.2391 80.4778 92.2185 80.4778 92.2185C80.4778 92.2185 80.5056 92.2349 80.5572 92.2696C80.6111 92.3069 80.687 92.3588 80.7859 92.4266C80.9887 92.5613 81.2734 92.7814 81.6704 93.0186C82.4449 93.5231 83.6147 94.1818 85.1302 94.8432C86.6431 95.5083 88.5144 96.1483 90.6485 96.6206C90.7818 96.6506 90.9157 96.6809 91.0507 96.7115C91.1866 96.7367 91.3233 96.7623 91.4608 96.7879C91.7361 96.8387 92.0144 96.8898 92.2956 96.9412C92.5787 96.9812 92.8651 97.0215 93.154 97.062C93.2987 97.0812 93.4432 97.1057 93.5899 97.1204C93.7366 97.1346 93.8838 97.149 94.0316 97.1632C95.2137 97.2915 96.4477 97.329 97.7067 97.2768C98.966 97.2284 100.192 97.0845 101.363 96.8848C102.535 96.6828 103.656 96.437 104.708 96.1375C104.972 96.07 105.228 95.9822 105.483 95.9072C105.738 95.8303 105.989 95.7547 106.233 95.6675C106.478 95.5836 106.719 95.5011 106.957 95.4197C107.192 95.3305 107.423 95.2427 107.65 95.1566C107.763 95.1135 107.876 95.0705 107.988 95.0282C108.098 94.9821 108.207 94.9363 108.315 94.8913C108.531 94.8004 108.744 94.7115 108.952 94.624C109.362 94.4376 109.758 94.2598 110.129 94.0798C111.614 93.3522 112.768 92.668 113.541 92.1607C113.638 92.0988 113.73 92.0404 113.817 91.9854C113.902 91.9279 113.981 91.874 114.055 91.824C114.202 91.7243 114.326 91.6398 114.428 91.571C114.527 91.5043 114.604 91.4532 114.658 91.4168C114.71 91.3823 114.738 91.3662 114.738 91.3662Z" fill="#1B3D4C"/>
<path d="M108.125 93.0091L111.211 100.9H113.32L113.78 100.213L114.32 100.9H115.066L115.343 88.3945L108.125 93.0091Z" fill="#95A3B5"/>
<path d="M88.7407 94.1207L91.3485 100.901H93.7462L94.2357 100.115L94.708 100.901H95.3036C95.3036 100.901 95.5644 93.2514 95.3036 93.0342C95.043 92.8169 88.7407 94.1207 88.7407 94.1207Z" fill="#95A3B5"/>
<path d="M119.208 78.9668C119.21 78.9671 119.21 78.9824 119.208 79.0121C119.205 79.0463 119.201 79.0896 119.197 79.1438C119.186 79.2652 119.17 79.4343 119.15 79.6499C119.138 79.7602 119.127 79.8822 119.113 80.0155C119.096 80.1489 119.069 80.2922 119.044 80.4472C118.989 80.7561 118.945 81.1115 118.845 81.494C118.799 81.6865 118.752 81.8879 118.703 82.0977C118.652 82.3074 118.58 82.5199 118.515 82.743C118.393 83.1919 118.211 83.6545 118.031 84.1448C117.638 85.1129 117.134 86.1492 116.497 87.1737C115.848 88.1919 115.131 89.0947 114.428 89.8673C114.064 90.2421 113.725 90.6057 113.373 90.9099C113.2 91.0646 113.04 91.2222 112.872 91.3586C112.704 91.4936 112.543 91.623 112.389 91.7469C112.087 92.0025 111.786 92.1967 111.531 92.3795C111.402 92.4687 111.285 92.5553 111.172 92.6284C111.058 92.6978 110.953 92.7617 110.858 92.8193C110.673 92.9306 110.527 93.0182 110.422 93.0809C110.375 93.1082 110.338 93.1301 110.308 93.1471C110.282 93.1618 110.268 93.1684 110.268 93.1673C110.267 93.1662 110.279 93.1571 110.304 93.1401C110.333 93.1212 110.369 93.0971 110.414 93.0671C110.517 93.0012 110.66 92.9095 110.842 92.7929C110.935 92.7337 111.039 92.6681 111.151 92.5967C111.262 92.522 111.378 92.4337 111.506 92.3428C111.757 92.157 112.056 91.9606 112.354 91.7027C112.506 91.578 112.666 91.4475 112.832 91.3116C112.998 91.1744 113.156 91.0163 113.328 90.8613C113.677 90.556 114.012 90.1918 114.374 89.8173C115.071 89.0453 115.783 88.1452 116.429 87.1312C117.064 86.1108 117.568 85.0804 117.962 84.1176C118.144 83.63 118.327 83.17 118.451 82.7236C118.517 82.5016 118.591 82.2902 118.643 82.0818C118.694 81.8732 118.743 81.6726 118.789 81.4815C118.893 81.1009 118.941 80.7472 119 80.44C119.027 80.2858 119.056 80.143 119.076 80.0102C119.091 79.8777 119.106 79.7563 119.119 79.646C119.145 79.4318 119.166 79.2632 119.181 79.1424C119.188 79.0885 119.195 79.0451 119.199 79.0115C119.204 78.9818 119.207 78.9668 119.208 78.9668Z" fill="white"/>
<path d="M78.5395 76.0761C78.5395 76.6859 78.0453 77.1798 77.4357 77.1798C76.8262 77.1798 76.332 76.6859 76.332 76.0761C76.332 75.4666 76.8262 74.9727 77.4357 74.9727C78.0453 74.9727 78.5395 75.4666 78.5395 76.0761Z" fill="#42464C"/>
<path d="M89.8788 76.3625C89.8788 76.9717 89.3846 77.4659 88.7751 77.4659C88.1656 77.4659 87.6714 76.9717 87.6714 76.3625C87.6714 75.7527 88.1656 75.2588 88.7751 75.2588C89.3846 75.2588 89.8788 75.7527 89.8788 76.3625Z" fill="#42464C"/>
</svg>
