<svg width="100" height="110" viewBox="0 0 100 110" fill="none" xmlns="http://www.w3.org/2000/svg">
<path d="M32.8737 23.9894C34.4685 29.8662 31.0294 35.7764 25.1922 37.1907C19.3544 38.605 13.3296 34.9876 11.7347 29.1111C10.1396 23.2343 13.579 17.3239 19.4165 15.9099C25.2537 14.4955 31.2786 18.1129 32.8737 23.9894Z" fill="#95A3B5"/>
<path d="M30.3587 24.599C31.5743 29.0769 28.9533 33.5811 24.5045 34.6589C20.0566 35.7366 15.4646 32.98 14.2493 28.5021C13.0343 24.0235 15.655 19.5194 20.1032 18.4413C24.5514 17.3639 29.1431 20.1205 30.3587 24.599Z" fill="#CED5DF"/>
<path d="M30.2876 24.3449C30.2394 24.3585 30.108 24.0102 29.8097 23.4192C29.5087 22.8323 29.0222 21.9965 28.2041 21.1531C27.7964 20.7336 27.3081 20.3136 26.7369 19.9347C26.1636 19.561 25.5114 19.222 24.7879 18.9769C24.4269 18.8532 24.0492 18.7475 23.6585 18.6755C23.2678 18.6007 22.8651 18.5466 22.454 18.5327C22.0442 18.5173 21.6254 18.5244 21.2054 18.5741C20.7863 18.623 20.3653 18.7027 19.9477 18.8149C19.5317 18.933 19.1311 19.0798 18.7494 19.2526C18.3671 19.4247 18.0095 19.6318 17.6714 19.854C17.332 20.0753 17.0223 20.3266 16.7343 20.5884C16.4447 20.8486 16.1856 21.1302 15.9501 21.4186C15.4766 21.9947 15.1165 22.6138 14.8424 23.2214C14.5732 23.8324 14.3973 24.4358 14.2885 24.9986C14.0725 26.1277 14.1318 27.0815 14.2076 27.7299C14.2879 28.3814 14.3732 28.7424 14.3247 28.7554C14.2892 28.7662 14.1219 28.4263 13.9625 27.7661C13.8079 27.1096 13.6729 26.1159 13.8419 24.9117C13.9275 24.3118 14.0876 23.6637 14.3525 23.0029C14.6223 22.3455 14.9895 21.6723 15.4847 21.043C15.7307 20.7284 16.0036 20.4206 16.3102 20.1356C16.6162 19.8488 16.9466 19.5743 17.3094 19.3317C17.672 19.0878 18.0565 18.8616 18.4682 18.6733C18.8792 18.4851 19.3116 18.3256 19.7598 18.1983C20.2101 18.0774 20.6645 17.9918 21.1173 17.9414C21.571 17.8908 22.0232 17.8864 22.4658 17.9071C22.909 17.9266 23.3429 17.9903 23.7617 18.0768C24.1815 18.1612 24.5851 18.2821 24.9699 18.4224C25.7417 18.7015 26.43 19.0826 27.028 19.5001C27.6227 19.9229 28.1234 20.3893 28.5329 20.8523C29.3532 21.783 29.798 22.6913 30.0372 23.3243C30.2737 23.9632 30.3237 24.3353 30.2876 24.3449Z" fill="#B5C0D1"/>
<path d="M24.7039 28.4135C24.5772 27.9724 24.147 27.8265 23.556 27.7755L24.0546 29.5138C24.6387 29.2149 24.8192 28.8165 24.7039 28.4135ZM21.6877 25.9309L21.1746 24.1429C20.5564 24.4647 20.3997 24.8974 20.5187 25.3131C20.6448 25.7539 21.0881 25.897 21.6877 25.9309ZM24.5309 31.1766L24.9358 32.5878L23.688 32.909L23.2946 31.536C22.0379 31.7787 20.7407 31.6946 19.899 31.3296L20.1448 29.6161C20.902 29.9214 21.8975 30.0299 22.8214 29.8862L22.218 27.7826C20.736 27.8002 19.0553 27.7329 18.5388 25.9316C18.1565 24.5967 18.7882 23.2027 20.6943 22.4677L20.2934 21.0695L21.5412 20.748L21.9349 22.121C22.8921 21.9553 23.875 21.972 24.6873 22.2359L24.5083 23.9464C23.7671 23.7452 23.0572 23.6982 22.4112 23.7832L23.0254 25.9248C24.504 25.8948 26.1597 25.9687 26.6691 27.7443C27.0446 29.0542 26.4212 30.4326 24.5309 31.1766Z" fill="#95A3B5"/>
<path d="M30.6518 62.0078C30.3783 62.3073 32.6018 65.913 33.4978 68.1869C34.3935 70.461 38.8519 81.0265 42.6418 81.0954C46.4317 81.1644 49.3259 79.4416 51.8065 75.9274C54.2872 72.4129 58.4217 53.8077 58.4217 53.8077L51.6687 47.0547L43.8821 69.0365C43.8821 69.0365 37.5924 61.2342 36.3271 60.3808C35.062 59.5272 30.6518 62.0078 30.6518 62.0078Z" fill="#C27460"/>
<path d="M93.6647 94.9152L91.9571 82.2168L56.4791 83.216C56.4791 83.216 53.3921 101.654 53.5485 109.317H74.0566L74.2275 106.749L75.3214 106.986C75.3214 106.986 75.5751 108.015 75.865 109.317L95.7575 109.354L93.6647 94.9152Z" fill="#1B3D4C"/>
<path d="M57.0143 61.8788L46.6785 58.3562C46.6785 58.3562 52.3482 35.9414 60.2584 35.9414L57.0143 61.8788Z" fill="#00A887"/>
<path d="M90.365 68.6183L89.1383 35.0585C87.2022 34.1749 78.9168 33.1113 78.9168 33.1113L68.1365 34.628L59.1566 36.1675L56.7483 59.0892L55.7339 90.7924C67.2723 95.0499 81.3505 93.6158 93.7321 90.4673L90.365 68.6183Z" fill="#00A887"/>
<g opacity="0.3">
<path d="M69.8845 49.4102C69.8845 49.4102 75.9069 62.2208 81.2471 66.9793C86.587 71.7378 91.0056 72.7757 91.0056 72.7757L90.3652 68.6196L69.8845 49.4102Z" fill="black"/>
</g>
<path d="M57.0412 44.8359C57.0857 44.8378 56.9803 48.3409 56.806 52.6593C56.6317 56.9796 56.4546 60.4789 56.4101 60.4771C56.3656 60.4755 56.471 56.9731 56.6453 52.6531C56.8196 48.3344 56.9967 44.8341 57.0412 44.8359Z" fill="#1B3D4C"/>
<path d="M87.0278 34.4746C87.0278 34.4746 96.5768 35.328 97.8474 45.2846C98.4349 49.8892 99.5219 57.1596 99.5219 57.1596L90.1424 57.9786L88.8486 57.0199C88.1281 54.8693 86.8798 50.4359 87.055 50.278C87.2927 50.0638 87.0278 34.4746 87.0278 34.4746Z" fill="#00A887"/>
<path d="M66.4611 78.1053C66.4547 78.0963 66.6036 77.9801 66.8781 77.7774C67.1519 77.574 67.5553 77.2893 68.0594 76.9456C69.0673 76.2579 70.4881 75.3483 72.1049 74.4239C73.7229 73.5007 75.2284 72.7391 76.3327 72.2202C76.8847 71.9605 77.3348 71.7578 77.6491 71.6252C77.9631 71.4917 78.1387 71.4224 78.1433 71.4326C78.1479 71.4428 77.981 71.5312 77.6754 71.6821C77.3459 71.8452 76.9098 72.0613 76.3825 72.3225C75.2927 72.8668 73.7989 73.6425 72.1846 74.5639C70.5716 75.4859 69.1449 76.3782 68.1224 77.0405C67.6295 77.3623 67.2218 77.6281 66.9136 77.829C66.6283 78.0153 66.4676 78.1142 66.4611 78.1053Z" fill="#1B3D4C"/>
<path d="M71.8199 76.2965C71.8094 76.2792 72.0786 76.09 72.541 75.8288C73.0033 75.5677 73.6635 75.2425 74.4217 74.9538C75.1808 74.6661 75.8904 74.4708 76.4094 74.3592C76.9286 74.247 77.2553 74.2099 77.259 74.2297C77.2636 74.2535 76.9453 74.3301 76.4366 74.4695C75.9278 74.6086 75.2305 74.8194 74.4789 75.1044C73.7278 75.3903 73.0667 75.6959 72.5941 75.9296C72.1212 76.1633 71.8322 76.3172 71.8199 76.2965Z" fill="#1B3D4C"/>
<path d="M88.3331 56.679C88.2886 56.6769 88.4119 53.6612 88.6081 49.9449C88.8044 46.2273 88.9994 43.2163 89.0439 43.2188C89.0881 43.2209 88.9651 46.2356 88.7689 49.9535C88.5726 53.6699 88.3776 56.6815 88.3331 56.679Z" fill="#1B3D4C"/>
<path d="M58.1599 14.8154C57.0157 15.2821 55.5735 14.8469 54.8784 13.8251C54.6695 13.5176 54.5217 13.1519 54.5502 12.7811C54.5786 12.4102 54.8147 12.0414 55.1711 11.9348C54.6067 11.7256 54.1125 11.3012 53.8776 10.7473C53.6424 10.1932 53.6909 9.51319 54.0525 9.03196C54.4142 8.55072 55.0935 8.31459 55.6585 8.52136C55.4882 7.89394 55.7172 7.17626 56.2195 6.76364L58.9378 6.70801L58.1599 14.8154Z" fill="#1B3D4C"/>
<path d="M67.3672 34.9912L66.894 33.1506C66.894 33.1506 61.2991 33.6266 59.9184 28.2533C59.2521 25.6583 58.314 20.2028 57.5222 15.2557C56.671 9.93651 60.0479 4.85653 65.2812 3.58066L65.8011 3.45394C71.4881 2.41451 75.5481 6.66339 76.4299 12.3773L79.3445 33.3107L70.7652 39.7618L67.3672 34.9912Z" fill="#C27460"/>
<path d="M66.8938 33.15C66.8938 33.15 70.3607 32.6073 73.5575 29.9434C73.5575 29.9434 72.7425 33.6962 67.2465 34.5217L66.8938 33.15Z" fill="#7C4235"/>
<path d="M60.3242 20.5146C60.4089 20.9244 60.8258 21.1908 61.2554 21.1102C61.6844 21.0295 61.9645 20.6326 61.8798 20.2228C61.7948 19.813 61.3781 19.5462 60.9492 19.6266C60.5192 19.7073 60.2395 20.1047 60.3242 20.5146Z" fill="#1B3D4C"/>
<path d="M59.3235 17.6097C59.4434 17.6866 59.9209 17.113 60.7498 16.9133C61.5748 16.7019 62.2866 16.9798 62.3515 16.8564C62.3849 16.8008 62.2436 16.6435 61.9321 16.5152C61.6245 16.3866 61.135 16.3084 60.6191 16.4364C60.1042 16.565 59.7166 16.8608 59.5145 17.1161C59.3074 17.3735 59.2653 17.5763 59.3235 17.6097Z" fill="#1B3D4C"/>
<path d="M67.3782 18.9325C67.4628 19.3424 67.8798 19.6088 68.3094 19.5281C68.7384 19.4478 69.0184 19.0509 68.9337 18.6405C68.849 18.2309 68.4318 17.9642 68.0028 18.0446C67.5732 18.1249 67.2935 18.5227 67.3782 18.9325Z" fill="#1B3D4C"/>
<path d="M67.502 15.7793C67.6219 15.8565 68.1007 15.2826 68.929 15.0829C69.7536 14.8718 70.4654 15.1497 70.5306 15.0264C70.5637 14.9707 70.4234 14.8128 70.1106 14.6851C69.8034 14.5566 69.3135 14.4784 68.7983 14.6063C68.283 14.7349 67.8954 15.0304 67.6933 15.2857C67.4868 15.5431 67.4445 15.7459 67.502 15.7793Z" fill="#1B3D4C"/>
<path d="M65.9936 22.655C65.9859 22.6068 65.4493 22.6436 64.5892 22.74C64.3725 22.77 64.162 22.7768 64.0912 22.6408C64.0041 22.5002 64.0372 22.2507 64.0795 21.9797C64.1537 21.4196 64.2309 20.8324 64.3122 20.2167C64.6219 17.7123 64.791 15.6736 64.6902 15.6622C64.5889 15.6507 64.2563 17.6712 63.9466 20.1759C63.8755 20.7922 63.8069 21.3798 63.7426 21.942C63.7213 22.2016 63.6499 22.5079 63.835 22.7987C63.9308 22.9428 64.1138 23.0197 64.2585 23.0231C64.404 23.0315 64.5233 23.0046 64.6297 22.9854C65.4802 22.8259 66.002 22.7026 65.9936 22.655Z" fill="#1B3D4C"/>
<path d="M66.7681 14.5304C66.9458 14.7013 67.6614 14.2272 68.6118 13.8943C69.556 13.5419 70.4087 13.4489 70.4362 13.2038C70.4455 13.0882 70.2233 12.9547 69.8314 12.8972C69.4426 12.8388 68.8856 12.8753 68.3175 13.0802C67.7497 13.286 67.2985 13.6143 67.037 13.9082C66.7728 14.2027 66.6871 14.4478 66.7681 14.5304Z" fill="#1B3D4C"/>
<path d="M59.0434 15.1386C59.235 15.2913 59.7577 14.9569 60.4417 14.7804C61.1192 14.5801 61.7395 14.598 61.8251 14.3687C61.8606 14.2587 61.7234 14.0927 61.4258 13.9765C61.1328 13.86 60.6787 13.817 60.2108 13.9462C59.7432 14.076 59.376 14.3461 59.1843 14.5968C58.989 14.8493 58.9569 15.0626 59.0434 15.1386Z" fill="#1B3D4C"/>
<path d="M57.4379 12.6572C57.4379 12.6572 58.0366 8.93565 59.472 7.75127C61.2096 6.31747 62.5853 8.2733 64.335 7.29075C66.0844 6.3082 67.7422 4.93466 70.0149 5.91845C72.5026 6.99496 71.7902 8.34934 72.5029 10.7091C75.3925 20.276 77.8314 22.586 77.2216 17.8964C77.1549 17.3827 78.4465 16.6465 78.1368 14.4823C77.7356 11.6762 77.0294 8.32276 75.9436 6.52671C75.0281 5.01286 73.8174 4.10788 71.8366 3.26781C68.71 1.94156 65.0647 2.78534 62.657 3.6353C60.2493 4.48557 56.1828 8.48626 57.4379 12.6572Z" fill="#1B3D4C"/>
<path d="M76.8427 17.8335C76.6739 16.9934 77.2306 16.162 78.0787 16.0387C79.107 15.8891 80.3646 16.187 80.8047 18.2804C81.5854 21.9937 77.696 22.0113 77.6673 21.9062C77.6478 21.8348 77.1558 19.3903 76.8427 17.8335Z" fill="#C27460"/>
<path d="M78.1816 20.3408C78.1955 20.3253 78.2561 20.3726 78.3757 20.3995C78.4925 20.4258 78.6829 20.4211 78.8615 20.3077C79.2235 20.0815 79.4228 19.3891 79.3001 18.7163C79.2386 18.3763 79.0998 18.0694 78.9243 17.8283C78.754 17.5801 78.5382 17.4274 78.3333 17.4339C78.1275 17.4299 78.0125 17.5773 77.989 17.6914C77.9609 17.8057 78.0001 17.875 77.9819 17.8855C77.9736 17.8969 77.8892 17.8397 77.8867 17.6802C77.8867 17.6033 77.9117 17.5065 77.9841 17.4169C78.0579 17.3257 78.181 17.2611 78.3216 17.2472C78.6121 17.2067 78.9255 17.416 79.1184 17.6809C79.3276 17.9436 79.4911 18.287 79.5604 18.6687C79.6939 19.4219 79.4581 20.2026 78.9536 20.4706C78.7067 20.5936 78.4724 20.5605 78.3417 20.4968C78.2072 20.4292 78.1701 20.35 78.1816 20.3408Z" fill="#7C4235"/>
<path d="M62.3161 10.748C62.3072 10.7502 62.2998 10.7552 62.2908 10.7576C62.2692 10.7644 62.2469 10.77 62.2256 10.7777L62.3161 10.748Z" fill="#00A887"/>
<path d="M54.0048 5.96335C54.108 4.94927 54.8399 4.07211 55.7409 3.59551C56.6418 3.11892 57.6912 2.99498 58.7102 3.02063C58.3248 1.69624 59.5799 0.35083 60.9374 0.10666C62.2952 -0.137511 63.661 0.384828 64.9415 0.897586C66.362 -0.461732 68.9663 -0.245069 70.1426 1.33029C71.004 0.580783 72.2737 0.33383 73.3533 0.705649C74.4326 1.07778 75.2804 2.05446 75.4974 3.17548C76.4107 3.15601 77.3157 3.67402 77.7617 4.47144C78.2077 5.26854 78.1752 6.31106 77.6804 7.07881C78.3857 7.33998 78.8799 8.08578 78.8453 8.83683C78.8107 9.58789 78.2497 10.2852 77.5237 10.4799L74.3294 8.6721C72.9163 9.24821 71.098 8.34757 70.6999 6.8742C69.6694 7.55138 68.2266 7.53006 67.2163 6.82351C67.1186 7.56776 66.6303 8.24928 65.9571 8.58123C65.2836 8.91349 64.4457 8.88567 63.7957 8.51014C63.9156 9.52669 63.3989 10.5912 62.5257 11.1259C61.6526 11.6602 60.4698 11.6368 59.6189 11.0677C58.8548 12.0401 57.3098 12.2787 56.2876 11.5824C55.2658 10.886 54.9228 9.36041 55.5486 8.29379C54.5534 8.07341 53.9019 6.97743 54.0048 5.96335Z" fill="#1B3D4C"/>
<path d="M71.0203 7.45327C71.008 7.45945 71.0395 7.57041 71.156 7.74473C71.2722 7.91658 71.4836 8.15209 71.8264 8.3329C72.163 8.51248 72.651 8.63209 73.17 8.49888C73.6805 8.37339 74.2094 8.01208 74.4928 7.43813L74.2768 7.47738C74.5172 7.7064 74.818 7.88845 75.1502 7.99848C75.8595 8.2306 76.6251 8.12675 77.1719 7.77687C77.7288 7.42947 78.0243 6.88643 78.1495 6.43023C78.2762 5.96476 78.2369 5.5676 78.1748 5.31261C78.1074 5.05577 78.0265 4.93183 78.0135 4.9377C77.9572 4.94326 78.2369 5.51042 77.9628 6.37398C77.8246 6.78876 77.536 7.26752 77.039 7.56021C76.5522 7.85754 75.8673 7.94316 75.2364 7.73639C74.9413 7.63872 74.6767 7.47954 74.4644 7.28204L74.3281 7.15501L74.2483 7.3213C74.0125 7.81427 73.5551 8.1456 73.1091 8.26985C72.6581 8.40121 72.2233 8.31807 71.9037 8.17435C71.2515 7.86991 71.0571 7.4202 71.0203 7.45327Z" fill="#375A64"/>
<path d="M68.9502 24.2129C68.9523 24.2608 68.4946 24.2633 68.0474 24.5606C67.5936 24.8481 67.4048 25.2647 67.3618 25.2434C67.3436 25.2363 67.3637 25.12 67.4552 24.9547C67.5451 24.7903 67.7167 24.5841 67.9599 24.4255C68.2034 24.2682 68.4618 24.1956 68.6488 24.1804C68.8367 24.1644 68.9511 24.1934 68.9502 24.2129Z" fill="#1B3D4C"/>
<path d="M65.75 47.1517L65.0431 48.0765C64.5424 48.3611 64.1085 48.1429 63.8696 47.5121L58.0469 36.7003L59.7743 35.8027L66.3357 46.2563C66.3357 46.2563 66.3944 46.7855 65.75 47.1517Z" fill="#375A64"/>
<path d="M59.3139 23.9646C57.5148 22.7308 55.1673 22.3503 52.9639 23.1477C51.205 23.7841 49.7987 25.0677 49.005 26.7615C48.2112 28.4555 48.1247 30.3572 48.7611 32.1162C49.3978 33.8755 50.6811 35.2815 52.3751 36.0752C54.0692 36.8689 55.9709 36.9554 57.7299 36.319C59.4888 35.6826 60.8951 34.399 61.6888 32.705C62.4825 31.0113 62.5691 29.1095 61.9327 27.3502C61.4159 25.9223 60.48 24.7642 59.3139 23.9646ZM51.0952 35.916C49.845 35.0589 48.8424 33.818 48.2885 32.2871C47.6064 30.4021 47.6991 28.3637 48.5497 26.5482C49.4006 24.7327 50.9073 23.3573 52.7927 22.6748C56.6846 21.2667 60.9968 23.2871 62.4053 27.1793C63.0874 29.0647 62.9947 31.103 62.1438 32.9186C61.2932 34.7341 59.7865 36.1095 57.9008 36.7916C55.5394 37.6459 53.0233 37.2382 51.0952 35.916Z" fill="#1B3D4C"/>
<path d="M59.6597 23.6785C57.8606 22.4446 55.5132 22.0641 53.3097 22.8616C51.5508 23.498 50.1445 24.7815 49.3508 26.4753C48.5571 28.1693 48.4705 30.0711 49.1069 31.83C49.7433 33.5893 51.0269 34.9953 52.7209 35.789C54.415 36.5827 56.3167 36.6692 58.0757 36.0329C59.8347 35.3965 61.2406 34.1129 62.0344 32.4191C62.8284 30.7251 62.9149 28.8233 62.2785 27.0644C61.7617 25.6361 60.8259 24.478 59.6597 23.6785ZM51.4411 35.6298C50.1908 34.7728 49.1882 33.5318 48.6343 32.001C47.9519 30.1159 48.0449 28.0775 48.8955 26.262C49.7464 24.4465 51.2531 23.0711 53.1385 22.3887C57.0304 20.9805 61.3426 23.0013 62.7511 26.8932C63.4332 28.7785 63.3405 30.8169 62.4896 32.6324C61.639 34.4479 60.1323 35.8233 58.2466 36.5054C55.8853 37.36 53.3691 36.952 51.4411 35.6298Z" fill="#375A64"/>
<path d="M53.5677 35.5005C53.5748 35.4826 53.9049 35.6396 54.4739 35.7684C54.5456 35.7836 54.6204 35.7994 54.6977 35.8154C54.7755 35.8312 54.8584 35.8386 54.9431 35.8513C55.1121 35.88 55.2951 35.8868 55.487 35.9001C55.8715 35.9106 56.2956 35.8893 56.7335 35.8145C57.1709 35.7338 57.5761 35.6074 57.9337 35.4649C58.1092 35.3864 58.2789 35.3169 58.4276 35.2316C58.5027 35.1905 58.5778 35.1552 58.6455 35.1135C58.7126 35.0715 58.7772 35.0313 58.8393 34.9924C59.3289 34.6749 59.5848 34.4141 59.5978 34.4283C59.6015 34.4323 59.5372 34.4963 59.4176 34.6091C59.3585 34.6666 59.284 34.7343 59.1904 34.8041C59.0974 34.8752 58.9963 34.9627 58.8705 35.04C58.8087 35.0804 58.7444 35.1228 58.6773 35.167C58.6096 35.2103 58.5345 35.2477 58.4591 35.2903C58.3098 35.3793 58.1395 35.452 57.9621 35.5335C57.6014 35.6816 57.191 35.812 56.7478 35.8936C56.3036 35.9697 55.8734 35.9888 55.4839 35.974C55.2895 35.9588 55.1041 35.9493 54.9335 35.9174C54.8482 35.9029 54.7647 35.8939 54.6862 35.8766C54.6083 35.8584 54.5329 35.8408 54.4609 35.8238C54.3163 35.7947 54.1911 35.7474 54.0795 35.7128C53.9673 35.6797 53.8743 35.6417 53.7992 35.608C53.6477 35.5434 53.5655 35.5054 53.5677 35.5005Z" fill="white"/>
<path d="M76.357 47.9536C74.5637 46.2361 66.0749 37.7186 65.8675 37.5986C65.607 37.4478 61.5763 35.606 60.7378 36.0112C59.8996 36.4161 57.5283 38.911 57.5283 38.911C57.5283 38.911 57.5852 40.5967 59.5534 39.5659C61.0549 38.7799 61.2876 38.6578 61.3139 38.6439C61.3123 38.6449 61.3108 38.6455 61.3108 38.6455L63.2515 39.2819C63.2515 39.2819 60.747 40.0796 60.1895 40.5655C59.6319 41.051 58.6462 43.0121 59.1092 43.5243C59.5725 44.0361 60.1542 44.1273 60.1542 44.1273C60.1542 44.1273 59.0329 45.4566 60.7276 46.4664C60.7276 46.4664 60.8815 47.6801 61.7135 48.2228C62.5456 48.7659 64.1861 48.743 64.1861 48.743C64.1861 48.743 64.9792 48.3632 64.4838 47.5747C63.9883 46.7862 62.9637 46.5937 62.9637 46.5937L64.3098 45.9585C64.3098 45.9585 64.9582 46.2209 65.8786 47.0697C65.8786 47.0697 68.5772 49.9734 69.8191 49.2295L71.5752 51.3182C72.9132 50.5035 76.357 47.9536 76.357 47.9536Z" fill="#C27460"/>
<path d="M64.0093 43.5496C64.009 43.5438 63.9413 43.5391 63.8183 43.5441C63.6953 43.549 63.5173 43.5688 63.3018 43.6173C62.8732 43.7116 62.2884 43.9518 61.7858 44.4107C61.2833 44.8697 60.9909 45.4304 60.8583 45.8489C60.7903 46.0587 60.7544 46.2343 60.7387 46.3564C60.7223 46.4781 60.7211 46.5465 60.7266 46.5471C60.7445 46.5502 60.7721 46.2782 60.9217 45.8708C61.0682 45.4659 61.3618 44.9266 61.8498 44.4809C62.3378 44.0352 62.9016 43.7917 63.3182 43.6825C63.7373 43.5704 64.0109 43.5676 64.0093 43.5496Z" fill="#7C4235"/>
<path d="M64.2834 41.4003C64.2831 41.3938 64.2104 41.3929 64.0791 41.3969C64.0129 41.3979 63.9326 41.4019 63.8399 41.4149C63.7468 41.4269 63.6402 41.4353 63.5252 41.4612C63.2925 41.5014 63.0205 41.5765 62.7272 41.6847C62.4363 41.7981 62.1254 41.9474 61.82 42.1403C61.5171 42.3365 61.251 42.5563 61.026 42.7729C60.805 42.9936 60.6227 43.2094 60.4885 43.4035C60.4168 43.4971 60.3643 43.5905 60.3148 43.6699C60.2638 43.7484 60.2264 43.8198 60.198 43.8794C60.1393 43.9972 60.1096 44.0633 60.1155 44.0664C60.1322 44.0754 60.2617 43.8145 60.5426 43.4433C60.6817 43.2567 60.8662 43.0496 61.0869 42.8357C61.3113 42.6264 61.5737 42.4132 61.8713 42.2203C62.1711 42.0312 62.5155 41.8188 62.7995 41.7029C63.086 41.5923 63.311 41.575 63.5385 41.5271C63.9932 41.4275 64.2846 41.4192 64.2834 41.4003Z" fill="#7C4235"/>
<path d="M64.8616 38.957C64.865 38.9468 64.7686 38.8995 64.5977 38.8729C64.4283 38.8461 64.1835 38.8513 63.9313 38.9329C63.5898 39.0448 63.4618 39.1718 63.3567 39.2766C63.2343 39.3984 63.1839 39.4939 63.1929 39.4997C63.213 39.5214 63.4751 39.1755 63.9607 39.0232C64.4425 38.8609 64.8579 38.9864 64.8616 38.957Z" fill="#7C4235"/>
<g opacity="0.1">
<path d="M60.8952 26.569C60.7407 26.2751 60.5274 25.9678 60.2023 25.9005C59.8629 25.83 59.5189 26.0609 59.3461 26.361C59.1734 26.6611 59.1332 27.0168 59.0955 27.3615C58.9997 28.2386 58.8952 29.1266 58.5722 29.9478C58.2492 30.769 57.6784 31.5287 56.8745 31.8928C56.2242 32.1877 55.4867 32.2007 54.7733 32.2331C54.06 32.2653 53.3151 32.3317 52.7103 32.7113C52.7041 32.715 52.6982 32.7187 52.692 32.7227C51.8396 33.2657 51.9601 34.5546 52.8833 34.966C55.0107 35.9145 57.6984 35.5925 59.4735 34.0604C61.5499 32.268 62.1708 28.9974 60.8952 26.569Z" fill="black"/>
</g>
<path d="M98.8886 57.0293L90.1074 57.7665C88.0839 56.4297 73.969 45.4829 73.5576 45.1973L69.8845 49.4078C77.5861 58.7444 82.9816 65.5642 89.4673 70.3539C92.6724 72.7211 97.8915 71.4431 99.2425 67.1231C99.9033 65.01 98.8886 57.0293 98.8886 57.0293Z" fill="#C27460"/>
<g opacity="0.3">
<path d="M54.5242 109.467C54.5242 109.467 57.6805 109.907 57.9052 109.976C57.9803 109.999 66.461 109.999 66.461 109.999L66.2379 106.069L56.595 106.284L54.5242 109.467Z" fill="black"/>
</g>
<g opacity="0.3">
<path d="M54.7473 105.844C54.7473 105.844 57.9503 106.506 58.1283 106.353C58.3063 106.2 66.2382 106.07 66.2382 106.07L66.0153 102.916L56.3604 102.598L54.7473 105.844Z" fill="black"/>
</g>
<g opacity="0.3">
<path d="M54.7473 102.403C54.7473 102.403 57.6866 102.789 57.8644 102.636C58.0424 102.483 66.0153 102.917 66.0153 102.917L65.5842 95.9336L56.3044 98.4436L54.7473 102.403Z" fill="black"/>
</g>
<path d="M24.7988 47.0559C24.7988 47.0559 46.0132 79.9079 44.5253 102.257L57.1805 110.001H66.4611C65.9545 104.195 66.0238 94.6979 63.192 81.3751C55.9049 47.0948 42.9568 46.999 42.9568 46.999L24.7988 47.0559Z" fill="#E1E1E1"/>
<path d="M65.5734 99.3066L44.3806 102.93C44.5577 103.607 44.2196 104.456 43.7529 104.921C43.2862 105.387 42.6315 105.605 41.9942 105.773C40.7446 106.1 39.4595 106.292 38.1685 106.342C37.4891 106.369 36.7993 106.358 36.1431 106.535C35.4866 106.713 34.8515 107.116 34.5857 107.742C34.3199 108.368 34.5483 109.976 36.1629 109.976H57.6842C56.0693 109.976 55.8412 108.368 56.107 107.742C56.3725 107.116 57.0079 106.713 57.6641 106.535C58.3206 106.358 59.0104 106.369 59.6898 106.342C60.9805 106.292 62.2659 106.1 63.5152 105.773C64.1528 105.605 64.8072 105.387 65.2739 104.921C65.7406 104.456 65.6729 100.089 65.5734 99.3066Z" fill="#E1E1E1"/>
<path d="M65.5559 96.1729L44.7192 99.2639C44.8963 99.9414 44.5582 100.79 44.0915 101.255C43.6248 101.721 42.9705 101.939 42.3328 102.107C41.0832 102.435 39.7981 102.626 38.5074 102.676C37.8281 102.703 37.1382 102.692 36.4817 102.869C35.8252 103.047 35.1901 103.45 34.9243 104.076C34.6585 104.702 34.8869 106.31 36.5015 106.31H58.0228C56.4079 106.31 56.1798 104.702 56.4453 104.076C56.7111 103.45 57.3465 103.047 58.0027 102.869C58.6592 102.692 59.3491 102.703 60.0284 102.676C61.3191 102.626 62.6045 102.435 63.8538 102.107C64.4915 101.939 65.1458 101.721 65.6125 101.255C66.0792 100.79 65.6554 96.9551 65.5559 96.1729Z" fill="#E1E1E1"/>
<path d="M65.4692 95.415L44.3806 96.1111C44.5577 96.7496 44.2196 97.5489 43.7526 97.9875C43.2859 98.4261 42.6315 98.6319 41.9939 98.7895C40.7446 99.0986 39.4592 99.2791 38.1685 99.3264C37.4891 99.3514 36.7993 99.3409 36.1428 99.5081C35.4866 99.6753 34.8515 100.056 34.5857 100.645C34.3199 101.235 34.5483 102.75 36.1629 102.75L57.618 102.51C56.0031 102.51 55.8408 101.235 56.1066 100.645C56.3725 100.056 57.0076 99.6753 57.6641 99.5081C58.3203 99.3409 59.0104 99.3514 59.6895 99.3264C60.9805 99.2791 62.2656 99.0986 63.5149 98.7895C64.1525 98.6319 64.8068 98.4261 65.2739 97.9875C65.7406 97.5489 65.5687 96.1522 65.4692 95.415Z" fill="#E1E1E1"/>
<path d="M32.6128 63.1344C32.6128 63.1344 30.1316 57.7633 29.6491 56.2788C29.1666 54.7943 30.4073 53.9672 31.579 53.0712C32.7507 52.1752 37.024 51.8305 37.2307 52.5887C37.4375 53.3469 37.3686 54.4497 36.7483 54.5186C36.128 54.5875 33.7845 54.4549 32.4061 56.2788C32.4061 56.2788 38.1268 55.0063 39.5056 56.2788C40.884 57.5516 38.3335 58.0337 38.3335 58.0337C38.3335 58.0337 39.092 59.2747 38.4025 59.6193C37.7132 59.9639 33.9224 60.7221 33.9224 60.7221L33.8535 61.2735C33.8535 61.2735 35.7144 61.1356 36.9551 61.4802C38.1957 61.8248 38.7471 63.1344 38.7471 63.1344C38.4714 64.1683 37.9892 64.1683 37.2997 63.6858C36.6104 63.2033 36.128 63.1344 36.128 63.1344C36.128 63.1344 35.0252 64.5129 34.267 64.5818C33.5088 64.6507 32.6128 63.1344 32.6128 63.1344Z" fill="#C27460"/>
<g opacity="0.3">
<path d="M41.9196 46.9951C41.9196 46.9951 37.5421 51.8207 38.303 59.3572C39.0643 66.8938 39.051 75.2623 39.051 75.2623L36.5089 69.1191L34.7283 51.4304L38.3241 47.4859L41.9196 46.9951Z" fill="black"/>
</g>
<path d="M41.9193 46.9951L23.8673 46.9982C23.8673 46.9982 16.4133 47.1512 16.4133 61.8466C16.4133 80.8789 20.7837 87.3781 9.17725 98.2434L27.9088 100.595C27.9088 100.595 36.7713 99.7437 36.762 83.8874C36.758 76.6513 36.4273 63.8083 36.031 57.6199C35.7427 53.1105 39.069 47.3026 41.9193 46.9951Z" fill="white"/>
<path d="M41.9195 46.9953C41.8787 47.0033 41.8017 47.0188 41.6311 47.0531C41.4438 47.1041 41.165 47.19 40.8312 47.3745C40.1615 47.7374 39.2982 48.5042 38.4705 49.7065C37.6499 50.9073 36.8287 52.5367 36.3524 54.5742C35.7954 56.6187 36.2343 59.0313 36.2943 61.686C36.5277 67.0058 36.7211 73.3972 36.8101 80.5981C36.8207 82.3975 36.8707 84.2495 36.765 86.1488C36.6556 88.0444 36.4059 89.9888 35.8625 91.9078C35.3312 93.8219 34.4986 95.7302 33.1918 97.3553C32.5331 98.1583 31.7669 98.8951 30.8765 99.4734C29.9876 100.048 29.0007 100.508 27.9168 100.674L27.9097 100.675L27.8995 100.674C22.4909 99.9948 16.8015 99.2811 10.9584 98.5483C10.3449 98.471 9.73319 98.3944 9.16758 98.3233L8.99976 98.3023L9.12246 98.1848C10.0596 97.2873 10.9794 96.3814 11.8176 95.4134C12.6564 94.4472 13.4378 93.4421 14.1215 92.3829C15.4904 90.2651 16.3941 87.904 16.7882 85.4982C17.1943 83.0911 17.1816 80.6775 17.0855 78.3329C16.9885 75.9851 16.808 73.6899 16.6735 71.4488C16.5341 69.208 16.4306 67.021 16.382 64.8951C16.357 63.8322 16.3462 62.7848 16.3484 61.7537C16.3654 61.2378 16.3824 60.7263 16.399 60.2188C16.417 59.7113 16.4204 59.2072 16.4878 58.7115C16.54 58.2148 16.5916 57.7224 16.6429 57.2344C16.6602 56.9893 16.7143 56.7501 16.7576 56.5108C16.8024 56.2719 16.8469 56.0339 16.8914 55.7969C16.9359 55.5601 16.9801 55.3243 17.024 55.0897C17.0738 54.8563 17.1495 54.6298 17.2104 54.4014C17.2747 54.1739 17.3389 53.9474 17.4026 53.7217C17.4657 53.4961 17.5241 53.2702 17.6184 53.0572C18.2217 51.3069 19.1529 49.7173 20.4294 48.5784C21.051 47.9955 21.7764 47.5535 22.5336 47.2633C22.9119 47.1158 23.302 47.012 23.6967 46.9622C24.0978 46.9307 24.4795 46.9542 24.8637 46.9477C26.3927 46.9505 27.8343 46.9533 29.1821 46.956C31.8723 46.9659 34.1886 46.9746 36.082 46.9817C39.8082 46.9903 41.7038 46.9947 41.9195 46.9953C41.7019 46.9959 39.7884 47.0009 36.0276 47.0111C34.14 47.0185 31.8312 47.0277 29.1497 47.0386C27.8105 47.0417 26.3782 47.0451 24.8588 47.0485C23.3363 46.8738 21.7322 47.5207 20.5045 48.6621C19.2493 49.7869 18.3295 51.3601 17.7339 53.0983C17.6409 53.3097 17.5834 53.5341 17.521 53.7585C17.4583 53.9826 17.3949 54.2076 17.3315 54.4341C17.2713 54.661 17.1965 54.8857 17.1473 55.1178C17.104 55.3515 17.0605 55.5858 17.0166 55.8216C16.973 56.0574 16.9288 56.2942 16.8846 56.5318C16.842 56.7701 16.7885 57.0075 16.7718 57.2517C16.7214 57.7379 16.6707 58.2281 16.6194 58.7229C16.553 59.2162 16.5502 59.7187 16.5332 60.2244C16.5171 60.73 16.501 61.24 16.4847 61.754C16.484 62.7835 16.4961 63.8301 16.5221 64.8917C16.5734 67.0154 16.6791 69.2003 16.8203 71.4398C16.9569 73.68 17.1393 75.9743 17.2382 78.3267C17.3359 80.675 17.351 83.0985 16.943 85.5245C16.5474 87.9488 15.635 90.3352 14.2559 92.4691C13.5676 93.5363 12.7813 94.5479 11.9385 95.5191C11.0959 96.4923 10.1727 97.4016 9.23249 98.3023L9.18767 98.1635C9.75328 98.2346 10.3649 98.3116 10.9785 98.3885C16.8212 99.1229 22.5107 99.8381 27.9189 100.518L27.9016 100.517C28.9367 100.36 29.9221 99.907 30.7915 99.3436C31.6671 98.7755 32.4222 98.0507 33.0725 97.2589C34.3632 95.6563 35.1906 93.7678 35.7197 91.8673C36.2606 89.9628 36.5113 88.0283 36.6225 86.1404C36.7295 84.2511 36.6819 82.3988 36.6738 80.5993C36.5944 73.4006 36.4127 67.0092 36.1935 61.6903C36.1339 60.3607 36.0767 59.0981 36.0031 57.9072C35.9076 56.7124 36.0393 55.578 36.2754 54.5565C36.7622 52.5089 37.5943 50.8773 38.4257 49.6753C39.2642 48.4724 40.1389 47.7074 40.8176 47.3501C41.1561 47.1681 41.4386 47.0859 41.6277 47.0392C41.722 47.0194 41.7931 47.0145 41.8428 47.0064C41.8818 47.0009 41.9025 46.9978 41.9195 46.9953Z" fill="#1B3D4C"/>
<g opacity="0.3">
<path d="M22.5671 96.5078H25.5989C25.5989 96.5078 25.7642 100.534 29.0074 100.261C29.0074 100.261 28.3203 100.713 27.3946 100.597C26.4686 100.48 23.5784 101.19 22.5671 96.5078Z" fill="black"/>
</g>
<path d="M0.494147 94.4756C0.494147 94.4756 0.0160057 100.246 7.20018 100.591C14.3844 100.936 27.4135 100.591 27.4135 100.591C27.4135 100.591 22.8889 99.775 22.8889 94.8542L0.494147 94.4756Z" fill="#E1E1E1"/>
<path d="M0.494255 94.4761C0.492709 94.4742 0.528252 94.4733 0.599031 94.4727C0.676918 94.473 0.781695 94.473 0.917379 94.4733C1.20667 94.4758 1.62269 94.4792 2.15863 94.4838C3.25307 94.4974 4.83585 94.5165 6.81858 94.541C10.814 94.5997 16.4194 94.6819 22.8902 94.7768L22.9666 94.778V94.8547C22.9657 96.0839 23.292 97.386 24.0919 98.4276C24.8819 99.4701 26.1111 100.204 27.4278 100.512L28.0422 100.656L27.4157 100.672C27.4031 100.672 27.3895 100.672 27.3762 100.673C23.1814 100.774 19.1847 100.823 15.5494 100.818C13.7317 100.814 12.0043 100.8 10.3878 100.762C8.77194 100.71 7.26581 100.702 5.89351 100.514C4.52894 100.294 3.33745 99.7897 2.48378 99.0912C1.62022 98.3976 1.12941 97.543 0.859274 96.825C0.58605 96.1003 0.514961 95.4966 0.48869 95.0936C0.476636 94.8911 0.475399 94.7363 0.480962 94.6328C0.483744 94.5295 0.493018 94.4723 0.494255 94.4761C0.496109 94.4798 0.495798 94.5286 0.497344 94.6328C0.497035 94.7363 0.503835 94.8905 0.521144 95.0914C0.557306 95.4914 0.638592 96.0891 0.917688 96.8028C1.194 97.5096 1.68574 98.346 2.54065 99.021C3.38566 99.7013 4.56046 100.191 5.91144 100.401C7.2655 100.581 8.77781 100.583 10.3909 100.629C12.0058 100.661 13.7326 100.67 15.5494 100.67C19.1832 100.667 23.1789 100.613 27.3719 100.512C27.3855 100.512 27.3991 100.511 27.4114 100.511L27.3994 100.671C26.7083 100.515 26.0645 100.243 25.4785 99.8812C24.8952 99.5186 24.3686 99.0662 23.9655 98.5247C23.1403 97.4497 22.808 96.1067 22.8111 94.8547L22.8875 94.9323C16.4377 94.8089 10.8505 94.702 6.86803 94.626C4.8785 94.583 3.29047 94.5487 2.19201 94.5249C1.64958 94.5113 1.22831 94.5008 0.935305 94.4937C0.795912 94.489 0.688353 94.4856 0.608303 94.4829C0.534433 94.4801 0.4958 94.4776 0.494255 94.4761Z" fill="#1B3D4C"/>
<path d="M32.3188 72.7508C32.3188 72.8342 30.6906 72.9019 28.6826 72.9019C26.6736 72.9019 25.0457 72.8342 25.0457 72.7508C25.0457 72.6673 26.6736 72.5996 28.6826 72.5996C30.6906 72.5996 32.3188 72.6673 32.3188 72.7508Z" fill="#1B3D4C"/>
<path d="M19.7434 72.7732C19.7434 72.6898 20.1978 72.6221 20.7581 72.6221C21.3185 72.6221 21.7728 72.6898 21.7728 72.7732C21.7728 72.8567 21.3185 72.9243 20.7581 72.9243C20.1978 72.9243 19.7434 72.8567 19.7434 72.7732Z" fill="#1B3D4C"/>
<path d="M32.7688 70.0965C32.7688 70.1799 31.1406 70.2476 29.1325 70.2476C27.1235 70.2476 25.4956 70.1799 25.4956 70.0965C25.4956 70.013 27.1235 69.9453 29.1325 69.9453C31.1406 69.9453 32.7688 70.013 32.7688 70.0965Z" fill="#1B3D4C"/>
<path d="M19.7434 70.2478C19.7434 70.1644 20.1978 70.0967 20.7581 70.0967C21.3185 70.0967 21.7728 70.1644 21.7728 70.2478C21.7728 70.3313 21.3185 70.399 20.7581 70.399C20.1978 70.399 19.7434 70.3313 19.7434 70.2478Z" fill="#1B3D4C"/>
<path d="M32.686 67.8513C32.686 67.9348 31.0578 68.0025 29.0497 68.0025C27.0407 68.0025 25.4128 67.9348 25.4128 67.8513C25.4128 67.7679 27.0407 67.7002 29.0497 67.7002C31.0578 67.7002 32.686 67.7679 32.686 67.8513Z" fill="#1B3D4C"/>
<path d="M19.7434 67.8738C19.7434 67.7903 20.1978 67.7227 20.7581 67.7227C21.3185 67.7227 21.7728 67.7903 21.7728 67.8738C21.7728 67.9572 21.3185 68.0249 20.7581 68.0249C20.1978 68.0249 19.7434 67.9572 19.7434 67.8738Z" fill="#1B3D4C"/>
<path d="M32.4015 65.2136C32.4015 65.2971 30.7733 65.3648 28.7653 65.3648C26.7566 65.3648 25.1287 65.2971 25.1287 65.2136C25.1287 65.1302 26.7566 65.0625 28.7653 65.0625C30.7733 65.0625 32.4015 65.1302 32.4015 65.2136Z" fill="#1B3D4C"/>
<path d="M19.3767 65.364C19.3767 65.2806 19.8311 65.2129 20.3914 65.2129C20.9518 65.2129 21.4061 65.2806 21.4061 65.364C21.4061 65.4475 20.9518 65.5152 20.3914 65.5152C19.8311 65.5152 19.3767 65.4475 19.3767 65.364Z" fill="#1B3D4C"/>
<path d="M32.3188 62.9666C32.3188 63.05 30.6906 63.1177 28.6826 63.1177C26.6736 63.1177 25.0457 63.05 25.0457 62.9666C25.0457 62.8831 26.6736 62.8154 28.6826 62.8154C30.6906 62.8154 32.3188 62.8831 32.3188 62.9666Z" fill="#1B3D4C"/>
<path d="M19.3767 62.99C19.3767 62.9065 19.8311 62.8389 20.3914 62.8389C20.9518 62.8389 21.4061 62.9065 21.4061 62.99C21.4061 63.0735 20.9518 63.1411 20.3914 63.1411C19.8311 63.1411 19.3767 63.0735 19.3767 62.99Z" fill="#1B3D4C"/>
<path d="M32.0613 60.3298C32.0613 60.4133 30.4331 60.481 28.425 60.481C26.416 60.481 24.7881 60.4133 24.7881 60.3298C24.7881 60.2464 26.416 60.1787 28.425 60.1787C30.4331 60.1787 32.0613 60.2464 32.0613 60.3298Z" fill="#1B3D4C"/>
<path d="M19.0359 60.4802C19.0359 60.3968 19.4902 60.3291 20.0506 60.3291C20.6109 60.3291 21.0653 60.3968 21.0653 60.4802C21.0653 60.5637 20.6109 60.6314 20.0506 60.6314C19.4902 60.6314 19.0359 60.5637 19.0359 60.4802Z" fill="#1B3D4C"/>
<path d="M31.9783 58.0838C31.9783 58.1672 30.3501 58.2349 28.342 58.2349C26.333 58.2349 24.7051 58.1672 24.7051 58.0838C24.7051 58.0003 26.333 57.9326 28.342 57.9326C30.3501 57.9326 31.9783 58.0003 31.9783 58.0838Z" fill="#1B3D4C"/>
<path d="M32.4275 55.781C32.4275 55.8645 30.7993 55.9322 28.7912 55.9322C26.7822 55.9322 25.1543 55.8645 25.1543 55.781C25.1543 55.6976 26.7822 55.6299 28.7912 55.6299C30.7993 55.6299 32.4275 55.6976 32.4275 55.781Z" fill="#1B3D4C"/>
<path d="M19.0359 58.1062C19.0359 58.0228 19.4902 57.9551 20.0506 57.9551C20.6109 57.9551 21.0653 58.0228 21.0653 58.1062C21.0653 58.1897 20.6109 58.2574 20.0506 58.2574C19.4902 58.2574 19.0359 58.1897 19.0359 58.1062Z" fill="#1B3D4C"/>
<path d="M19.3767 55.6336C19.3767 55.5501 19.8311 55.4824 20.3914 55.4824C20.9518 55.4824 21.4061 55.5501 21.4061 55.6336C21.4061 55.717 20.9518 55.7847 20.3914 55.7847C19.8311 55.7847 19.3767 55.717 19.3767 55.6336Z" fill="#1B3D4C"/>
<path d="M32.8972 53.531C32.8972 53.6145 31.269 53.6822 29.2609 53.6822C27.2519 53.6822 25.624 53.6145 25.624 53.531C25.624 53.4476 27.2519 53.3799 29.2609 53.3799C31.269 53.3799 32.8972 53.4476 32.8972 53.531Z" fill="#1B3D4C"/>
<path d="M19.8464 53.3826C19.8464 53.2991 20.3008 53.2314 20.8611 53.2314C21.4215 53.2314 21.8758 53.2991 21.8758 53.3826C21.8758 53.466 21.4215 53.5337 20.8611 53.5337C20.3008 53.5337 19.8464 53.466 19.8464 53.3826Z" fill="#1B3D4C"/>
<path d="M33.3669 51.2791C33.3669 51.3625 31.7387 51.4302 29.7307 51.4302C27.7217 51.4302 26.0938 51.3625 26.0938 51.2791C26.0938 51.1956 27.7217 51.1279 29.7307 51.1279C31.7387 51.1279 33.3669 51.1956 33.3669 51.2791Z" fill="#1B3D4C"/>
<path d="M20.3162 51.1326C20.3162 51.0491 20.7705 50.9814 21.3309 50.9814C21.8912 50.9814 22.3456 51.0491 22.3456 51.1326C22.3456 51.216 21.8912 51.2837 21.3309 51.2837C20.7705 51.2837 20.3162 51.216 20.3162 51.1326Z" fill="#1B3D4C"/>
<path d="M35.0676 49.2537C35.0676 49.3371 33.4394 49.4048 31.4313 49.4048C29.4223 49.4048 27.7944 49.3371 27.7944 49.2537C27.7944 49.1702 29.4223 49.1025 31.4313 49.1025C33.4394 49.1025 35.0676 49.1702 35.0676 49.2537Z" fill="#1B3D4C"/>
<path d="M22.0168 49.1062C22.0168 49.0228 22.4712 48.9551 23.0315 48.9551C23.5919 48.9551 24.0462 49.0228 24.0462 49.1062C24.0462 49.1897 23.5919 49.2574 23.0315 49.2574C22.4712 49.2574 22.0168 49.1897 22.0168 49.1062Z" fill="#1B3D4C"/>
<path d="M32.3188 75.6502C32.3188 75.7336 30.6906 75.8013 28.6826 75.8013C26.6736 75.8013 25.0457 75.7336 25.0457 75.6502C25.0457 75.5667 26.6736 75.499 28.6826 75.499C30.6906 75.499 32.3188 75.5667 32.3188 75.6502Z" fill="#1B3D4C"/>
<path d="M19.7434 75.6716C19.7434 75.5882 20.1978 75.5205 20.7581 75.5205C21.3185 75.5205 21.7728 75.5882 21.7728 75.6716C21.7728 75.7551 21.3185 75.8228 20.7581 75.8228C20.1978 75.8228 19.7434 75.7551 19.7434 75.6716Z" fill="#1B3D4C"/>
<path d="M32.686 78.492C32.686 78.5754 31.0578 78.6431 29.0497 78.6431C27.0407 78.6431 25.4128 78.5754 25.4128 78.492C25.4128 78.4085 27.0407 78.3408 29.0497 78.3408C31.0578 78.3408 32.686 78.4085 32.686 78.492Z" fill="#1B3D4C"/>
<path d="M20.1104 78.5154C20.1104 78.4319 20.5647 78.3643 21.125 78.3643C21.6854 78.3643 22.1397 78.4319 22.1397 78.5154C22.1397 78.5989 21.6854 78.6665 21.125 78.6665C20.5647 78.6665 20.1104 78.5989 20.1104 78.5154Z" fill="#1B3D4C"/>
<path d="M32.8013 80.9461C32.8013 81.0295 31.173 81.0972 29.165 81.0972C27.156 81.0972 25.5281 81.0295 25.5281 80.9461C25.5281 80.8626 27.156 80.7949 29.165 80.7949C31.173 80.7949 32.8013 80.8626 32.8013 80.9461Z" fill="#1B3D4C"/>
<path d="M20.2261 80.9695C20.2261 80.886 20.6804 80.8184 21.2408 80.8184C21.8011 80.8184 22.2555 80.886 22.2555 80.9695C22.2555 81.0529 21.8011 81.1206 21.2408 81.1206C20.6804 81.1206 20.2261 81.0529 20.2261 80.9695Z" fill="#1B3D4C"/>
<path d="M32.917 83.4011C32.917 83.4846 31.2888 83.5523 29.2807 83.5523C27.272 83.5523 25.6438 83.4846 25.6438 83.4011C25.6438 83.3177 27.272 83.25 29.2807 83.25C31.2888 83.25 32.917 83.3177 32.917 83.4011Z" fill="#1B3D4C"/>
<path d="M20.3416 83.4246C20.3416 83.3411 20.7959 83.2734 21.3562 83.2734C21.9166 83.2734 22.3706 83.3411 22.3706 83.4246C22.3706 83.508 21.9166 83.5757 21.3562 83.5757C20.7959 83.5757 20.3416 83.508 20.3416 83.4246Z" fill="#1B3D4C"/>
<path d="M33.0327 85.8552C33.0327 85.9387 31.4045 86.0064 29.3964 86.0064C27.3874 86.0064 25.7595 85.9387 25.7595 85.8552C25.7595 85.7718 27.3874 85.7041 29.3964 85.7041C31.4045 85.7041 33.0327 85.7718 33.0327 85.8552Z" fill="#1B3D4C"/>
<path d="M20.4573 85.8787C20.4573 85.7952 20.9116 85.7275 21.472 85.7275C22.0323 85.7275 22.4867 85.7952 22.4867 85.8787C22.4867 85.9621 22.0323 86.0298 21.472 86.0298C20.9116 86.0298 20.4573 85.9621 20.4573 85.8787Z" fill="#1B3D4C"/>
<path d="M33.0747 88.242C33.0747 88.3254 31.4465 88.3931 29.4384 88.3931C27.4294 88.3931 25.8015 88.3254 25.8015 88.242C25.8015 88.1585 27.4294 88.0908 29.4384 88.0908C31.4465 88.0908 33.0747 88.1585 33.0747 88.242Z" fill="#1B3D4C"/>
<path d="M20.499 88.2654C20.499 88.1819 20.9534 88.1143 21.5137 88.1143C22.0741 88.1143 22.5284 88.1819 22.5284 88.2654C22.5284 88.3489 22.0741 88.4165 21.5137 88.4165C20.9534 88.4165 20.499 88.3489 20.499 88.2654Z" fill="#1B3D4C"/>
<path d="M32.686 90.6179C32.686 90.7014 31.0578 90.7691 29.0497 90.7691C27.0407 90.7691 25.4128 90.7014 25.4128 90.6179C25.4128 90.5345 27.0407 90.4668 29.0497 90.4668C31.0578 90.4668 32.686 90.5345 32.686 90.6179Z" fill="#1B3D4C"/>
<path d="M20.1104 90.6414C20.1104 90.5579 20.5647 90.4902 21.125 90.4902C21.6854 90.4902 22.1397 90.5579 22.1397 90.6414C22.1397 90.7248 21.6854 90.7925 21.125 90.7925C20.5647 90.7925 20.1104 90.7248 20.1104 90.6414Z" fill="#1B3D4C"/>
<path d="M31.7529 93.1394C31.7529 93.2229 30.1247 93.2906 28.1166 93.2906C26.1076 93.2906 24.4797 93.2229 24.4797 93.1394C24.4797 93.056 26.1076 92.9883 28.1166 92.9883C30.1247 92.9883 31.7529 93.056 31.7529 93.1394Z" fill="#1B3D4C"/>
<path d="M19.1775 93.1629C19.1775 93.0794 19.6318 93.0117 20.1922 93.0117C20.7525 93.0117 21.2069 93.0794 21.2069 93.1629C21.2069 93.2463 20.7525 93.314 20.1922 93.314C19.6318 93.314 19.1775 93.2463 19.1775 93.1629Z" fill="#1B3D4C"/>
<path d="M31.05 95.4373C31.05 95.5207 29.4218 95.5884 27.4138 95.5884C25.4048 95.5884 23.7769 95.5207 23.7769 95.4373C23.7769 95.3538 25.4048 95.2861 27.4138 95.2861C29.4218 95.2861 31.05 95.3538 31.05 95.4373Z" fill="#1B3D4C"/>
<path d="M66.015 102.916C66.0147 102.919 65.9891 102.92 65.9393 102.92C65.8797 102.918 65.807 102.916 65.7177 102.914C65.51 102.905 65.2263 102.893 64.8674 102.877C64.1293 102.84 63.0609 102.793 61.7408 102.744C59.1004 102.644 55.4505 102.573 51.4186 102.592C47.3854 102.611 43.7346 102.683 41.0917 102.72C39.7806 102.735 38.7149 102.747 37.9617 102.756C37.6025 102.756 37.3185 102.757 37.1105 102.757C37.0212 102.755 36.9485 102.754 36.8892 102.753C36.8391 102.752 36.8138 102.749 36.8135 102.747C36.8135 102.744 36.8391 102.741 36.8889 102.737C36.9482 102.734 37.0209 102.73 37.1099 102.725C37.3176 102.717 37.6016 102.707 37.9605 102.693C38.7134 102.672 39.7788 102.643 41.0896 102.606C43.7318 102.54 47.3827 102.45 51.418 102.431C55.4517 102.412 59.1047 102.501 61.7454 102.63C63.0658 102.694 64.134 102.758 64.8711 102.815C65.2293 102.843 65.5125 102.865 65.7199 102.882C65.8089 102.89 65.8812 102.897 65.9402 102.903C65.99 102.909 66.0153 102.913 66.015 102.916Z" fill="#1B3D4C"/>
<path d="M65.093 106.226C65.0933 106.271 59.1433 106.326 51.8055 106.349C44.4649 106.373 38.5164 106.356 38.5161 106.311C38.5161 106.267 44.4646 106.212 51.8049 106.188C59.143 106.165 65.093 106.182 65.093 106.226Z" fill="#1B3D4C"/>
<path d="M62.5591 96.5067C62.5609 96.5014 62.6376 96.5212 62.7819 96.5639C62.9405 96.6127 63.1497 96.677 63.4106 96.7577C63.5484 96.8012 63.6996 96.8491 63.864 96.9014C64.0188 96.9595 64.2405 96.9876 64.3644 97.2024C64.42 97.3118 64.3814 97.462 64.2859 97.5406C64.1953 97.6231 64.0837 97.6682 63.9694 97.7019C63.7438 97.7544 63.5058 97.8098 63.2564 97.8679C62.2553 98.0827 61.0489 98.2724 59.701 98.3939C58.3535 98.5178 56.8671 98.58 55.3081 98.6103C52.1979 98.6517 49.3831 98.6894 47.3247 98.7169C46.3162 98.7225 45.4943 98.7268 44.9052 98.7299C44.632 98.728 44.4132 98.7265 44.2472 98.7252C44.0967 98.7225 44.0176 98.7184 44.0176 98.7129C44.0176 98.7073 44.0964 98.7005 44.2466 98.6931C44.4126 98.6866 44.6311 98.678 44.904 98.6674C45.4931 98.6517 46.3149 98.6297 47.3228 98.6032C49.381 98.5636 52.1951 98.5092 55.3047 98.4492C56.8622 98.4192 58.3448 98.3618 59.6881 98.2462C61.0316 98.1334 62.2336 97.9559 63.2332 97.7566C63.4811 97.7028 63.7175 97.6518 63.9419 97.6033C64.0476 97.5745 64.1493 97.5331 64.2207 97.4698C64.2942 97.4089 64.3162 97.3162 64.2822 97.2392C64.2024 97.0831 63.9972 97.0312 63.8396 96.974C63.677 96.9171 63.5274 96.8649 63.3908 96.817C63.1337 96.7246 62.9278 96.6507 62.7714 96.5948C62.6305 96.5422 62.5572 96.5119 62.5591 96.5067Z" fill="#1B3D4C"/>
</svg>
