<svg width="120" height="98" viewBox="0 0 120 98" fill="none" xmlns="http://www.w3.org/2000/svg">
<path d="M101.827 48.1989L99.6829 47.2401L112.458 31.1504L114.545 31.7277C114.856 31.8137 115.135 31.9914 115.344 32.2378L117.419 34.6824C117.717 35.0343 117.674 35.5619 117.322 35.8608L102.98 48.0345C102.659 48.3066 102.211 48.3705 101.827 48.1989Z" fill="#F34843"/>
<path d="M116.329 47.0656L114.009 49.0353C113.749 49.2555 113.392 49.3191 113.073 49.2019L111.336 48.5651C111.117 48.4848 110.936 48.3269 110.827 48.1212L101.323 30.2061L103.465 30.8277C103.742 30.9078 103.988 31.0674 104.174 31.2868L116.438 45.7349C116.775 46.1325 116.727 46.7283 116.329 47.0656Z" fill="#F34843"/>
<g opacity="0.3">
<path d="M101.827 48.1998L99.6829 47.2411L112.458 31.1514L114.545 31.7287C114.856 31.8146 115.135 31.9924 115.344 32.2388L117.419 34.6834C117.717 35.0353 117.674 35.5629 117.322 35.8618L102.98 48.0355C102.659 48.3075 102.211 48.3714 101.827 48.1998Z" fill="#F34843"/>
<path d="M116.329 47.0656L114.009 49.0353C113.749 49.2555 113.392 49.3191 113.073 49.2019L111.336 48.5651C111.118 48.4848 110.936 48.3269 110.827 48.1212L101.323 30.2061L103.466 30.8277C103.742 30.9078 103.988 31.0674 104.174 31.2868L116.438 45.7349C116.776 46.1325 116.727 46.7283 116.329 47.0656Z" fill="#F34843"/>
</g>
<path d="M99.4491 47.0427L97.3396 44.5576C97.1111 44.2884 97.1443 43.8849 97.4133 43.6566L111.943 31.3239C112.212 31.0953 112.615 31.1283 112.844 31.3975L114.953 33.8826C115.182 34.1519 115.149 34.5551 114.879 34.7836L100.35 47.1164C100.081 47.3449 99.6777 47.3117 99.4491 47.0427Z" fill="#FF7A76"/>
<path d="M113.969 45.917L111.484 48.0265C111.215 48.2548 110.811 48.2219 110.583 47.9529L98.25 33.4233C98.0215 33.1543 98.0547 32.7508 98.3237 32.5223L100.88 30.3522C101.11 30.1574 101.454 30.1853 101.649 30.4153L114.043 45.016C114.271 45.2853 114.238 45.6885 113.969 45.917Z" fill="#FF7A76"/>
<path d="M102.41 40.1317C102.436 40.1621 101.49 41.0148 100.298 42.0358C99.1042 43.0571 98.1158 43.8602 98.0899 43.8297C98.0637 43.7993 99.0096 42.9469 100.203 41.9253C101.396 40.9043 102.384 40.1013 102.41 40.1317Z" fill="white"/>
<path d="M112.022 31.9051C112.048 31.9358 110.985 32.8783 109.648 34.0101C108.31 35.1421 107.205 36.0348 107.179 36.0041C107.153 35.9737 108.217 35.0311 109.554 33.8991C110.891 32.7673 111.996 31.8744 112.022 31.9051Z" fill="white"/>
<path d="M102.876 37.842C102.844 37.8668 102.02 36.8659 101.036 35.6066C100.051 34.3473 99.278 33.3065 99.3095 33.2817C99.3413 33.2571 100.165 34.2578 101.15 35.5173C102.135 36.7763 102.907 37.8171 102.876 37.842Z" fill="white"/>
<path d="M110.231 46.2082C110.201 46.2355 109.349 45.3591 108.328 44.2513C107.307 43.1432 106.503 42.223 106.533 42.1959C106.562 42.1689 107.414 43.0447 108.435 44.1528C109.456 45.2606 110.26 46.1808 110.231 46.2082Z" fill="white"/>
<path d="M0.533473 45.1662L0.0900879 43.5137L12.0512 45.8992L22.6188 31.0381L23.9082 33.4381C24.1077 33.8095 24.1063 34.2565 23.9043 34.6265L14.7333 51.4216C14.0463 52.6797 12.4569 53.124 11.2172 52.4041L1.95878 47.0276C1.25617 46.6199 0.743866 45.9505 0.533473 45.1662Z" fill="#009C57"/>
<g opacity="0.3">
<path d="M0.533473 45.1652L0.0900879 43.5128L12.0512 45.8982L22.6188 31.0371L23.9082 33.4371C24.1077 33.8085 24.1063 34.2555 23.9043 34.6255L14.7333 51.4206C14.0463 52.6788 12.4569 53.123 11.2172 52.4031L1.95878 47.0266C1.25617 46.619 0.743866 45.9496 0.533473 45.1652Z" fill="#009C57"/>
</g>
<path d="M0.12272 42.7269L1.8466 39.6748C2.09326 39.2378 2.63794 39.069 3.08858 39.2897L10.0103 42.6795C10.4693 42.9041 11.0238 42.7247 11.264 42.2735L18.1202 29.3924C18.3772 28.9099 18.9877 28.7439 19.4534 29.0302L22.2432 30.7451C22.6732 31.0094 22.8205 31.5641 22.5786 32.0069L13.6177 48.4175C13.0144 49.5225 11.6349 49.9366 10.5229 49.3464L0.503881 44.0303C0.0328707 43.7805 -0.139573 43.1912 0.12272 42.7269Z" fill="#00C371"/>
<path d="M9.53646 43.461C9.53199 43.4699 9.40057 43.4174 9.16646 43.3147C8.90891 43.1975 8.57797 43.0471 8.18146 42.8669C7.35217 42.4832 6.2112 41.9438 4.95498 41.3403C4.64107 41.1891 4.33469 41.0412 4.03835 40.8983C3.89075 40.8266 3.74537 40.7563 3.60306 40.6871C3.46299 40.6159 3.32989 40.571 3.18646 40.559C2.90324 40.5322 2.63062 40.6363 2.44088 40.802C2.24695 40.9642 2.15571 41.2044 2.036 41.4006C1.81975 41.7787 1.63921 42.094 1.49858 42.3398C1.36911 42.56 1.29321 42.6794 1.28428 42.6746C1.27563 42.6699 1.33451 42.5413 1.44891 42.3127C1.57894 42.0613 1.7458 41.7385 1.94559 41.3514C1.99917 41.2496 2.05498 41.1438 2.11274 41.0342C2.17329 40.9201 2.25532 40.8065 2.3608 40.7119C2.56979 40.5219 2.87534 40.3994 3.19706 40.4253C3.35611 40.4354 3.5213 40.4906 3.66305 40.5621C3.80592 40.6301 3.95185 40.6993 4.10002 40.7699C4.39691 40.912 4.70357 41.0587 5.01777 41.2094C6.27426 41.813 7.40826 42.3669 8.22583 42.7742C8.61453 42.9712 8.93849 43.1356 9.19101 43.2637C9.41759 43.382 9.54064 43.452 9.53646 43.461Z" fill="white"/>
<path d="M12.0734 42.9059C12.0377 42.8874 13.4923 40.0131 15.3214 36.4867C17.1513 32.9591 18.6631 30.1155 18.6988 30.1339C18.7345 30.1523 17.2802 33.0261 15.4506 36.5536C13.6212 40.0801 12.1091 42.9243 12.0734 42.9059Z" fill="white"/>
<path d="M25.6898 63.8464C25.6898 63.8464 23.3068 61.6094 22.3905 61.015C21.4744 60.4207 19.4188 59.6034 18.6512 59.5292C17.8835 59.455 14.2929 60.4949 14.2929 60.4949C14.2929 60.4949 8.9932 60.0245 8.10168 60.6436C7.21017 61.2625 7.28467 61.9066 7.65606 62.377C8.02746 62.8475 9.46393 62.699 11.0486 62.7236C12.6335 62.7484 13.0546 62.8971 13.0546 62.8971L10.7514 65.3487L16.7197 67.0079L20.36 66.8714L21.6725 68.5222L25.6898 63.8464Z" fill="#FFC19D"/>
<path d="M7.521 58.3079L7.66498 63.5886L7.92057 64.2449L10.5254 67.4206L16.8807 67.0015L11.8176 65.0287L10.0172 63.6606L9.32133 61.4044C9.32133 61.4044 9.5373 57.924 7.521 58.3079Z" fill="#FFC19D"/>
<path d="M7.96784 64.3655H6.42032C6.42032 64.3655 4.40066 61.0441 2.55234 62.1723L2.97731 62.8283C2.97731 62.8283 2.14439 62.4516 1.61646 63.1519L6.71079 67.621H6.94518L12.3732 67.2713L7.96784 64.3655Z" fill="#FFC19D"/>
<path d="M8.88975 65.3761C8.88807 65.392 8.72596 65.3842 8.45166 65.3946C8.18156 65.4102 7.78031 65.4277 7.37905 65.6102L7.32715 65.6337L7.29339 65.5862C7.13657 65.3647 6.94236 65.1258 6.74313 64.8772C6.33072 64.3683 5.95793 63.9079 5.64429 63.5208C5.36498 63.1718 5.19337 62.9558 5.20788 62.9421C5.22267 62.9282 5.42302 63.1215 5.72242 63.4541C6.02267 63.7865 6.42671 64.2541 6.85642 64.786C7.05705 65.0368 7.24679 65.2751 7.4064 65.5117L7.32101 65.488C7.76663 65.2991 8.17514 65.3055 8.45166 65.312C8.73126 65.3251 8.8917 65.3616 8.88975 65.3761Z" fill="#FF9C6A"/>
<path d="M19.9006 62.305C19.9137 62.3522 19.0431 62.5291 18.1094 63.0632C17.173 63.5931 16.5762 64.2508 16.5424 64.2153C16.5293 64.2033 16.6624 64.0258 16.9182 63.7753C17.1738 63.525 17.5606 63.2088 18.0377 62.9368C18.5152 62.6658 18.9845 62.4951 19.3302 62.4033C19.6762 62.3115 19.8969 62.2877 19.9006 62.305Z" fill="#FF9C6A"/>
<path d="M14.8232 60.9372C14.8519 60.967 14.5009 61.3457 14.0941 61.8326C13.6858 62.3184 13.3747 62.7303 13.3401 62.7074C13.3077 62.6865 13.5686 62.2322 13.9827 61.7394C14.3954 61.2455 14.7969 60.909 14.8232 60.9372Z" fill="#FF9C6A"/>
<path d="M9.51627 66.1138C9.51237 66.1169 9.47079 66.0753 9.39461 65.9927C9.30951 65.8978 9.20097 65.777 9.06703 65.6274C8.92249 65.4625 8.75172 65.2675 8.55528 65.0431C8.45538 64.9282 8.34907 64.806 8.23718 64.6768C8.12668 64.5473 7.99944 64.4128 7.89257 64.2476C7.67911 63.922 7.53262 63.499 7.53066 63.038C7.52201 62.5879 7.5128 62.108 7.50304 61.6032C7.4863 60.59 7.46788 59.4784 7.44863 58.3092L7.44751 58.2447L7.50778 58.2366C7.5608 58.2294 7.61828 58.2216 7.67576 58.2138C8.05078 58.1716 8.45148 58.3033 8.70317 58.5779C8.95681 58.8472 9.09856 59.1809 9.19483 59.5057C9.37955 60.1634 9.40912 60.8099 9.38569 61.4084L9.38317 61.3856C9.641 62.2416 9.87065 63.004 10.0643 63.6463L10.0473 63.6217C10.5931 64.0484 11.0351 64.3936 11.3559 64.6444C11.4977 64.7588 11.6124 64.8512 11.7031 64.9246C11.7812 64.9896 11.8208 65.0253 11.8178 65.0289C11.815 65.0328 11.77 65.0044 11.6866 64.9463C11.5917 64.8785 11.4717 64.7929 11.3236 64.6868C10.996 64.4449 10.5451 64.1114 9.98812 63.6996L9.97584 63.6907L9.97082 63.675C9.7688 63.0352 9.52911 62.276 9.26012 61.4235L9.25677 61.4135L9.25733 61.4003C9.27519 60.8188 9.24059 60.1765 9.05949 59.5456C8.9663 59.2334 8.82817 58.9194 8.59964 58.6784C8.37223 58.4345 8.03209 58.3229 7.68915 58.3583C7.63642 58.3656 7.58368 58.3728 7.53485 58.3792L7.594 58.307C7.60879 59.4764 7.62302 60.5881 7.63614 61.6012C7.67799 62.6044 7.52118 63.5598 7.97823 64.1926C8.07618 64.3503 8.19728 64.4837 8.30694 64.6176C8.41604 64.7493 8.51928 64.8738 8.61667 64.9912C8.80585 65.2214 8.97048 65.4221 9.10972 65.5914C9.23529 65.748 9.33685 65.8747 9.41666 65.974C9.48558 66.0625 9.5199 66.1104 9.51627 66.1138Z" fill="#FF9C6A"/>
<path d="M6.94489 67.6218C6.94684 67.6288 6.83606 67.6347 6.67422 67.5445C6.51266 67.458 6.30646 67.2928 6.07681 67.0671C5.6164 66.6156 5.05666 65.9258 4.48045 65.137C3.90452 64.3468 3.41621 63.6093 3.07356 63.0688C2.90251 62.7984 2.76802 62.5771 2.67817 62.4223C2.5886 62.2671 2.54367 62.1784 2.55232 62.1731C2.56069 62.1678 2.62152 62.2459 2.72588 62.3916C2.84698 62.5649 2.99124 62.7716 3.15922 63.0122C3.52336 63.537 4.02395 64.2642 4.59765 65.0513C5.1719 65.8374 5.71518 66.5322 6.1502 66.9951C6.36701 67.2267 6.55787 67.3989 6.70324 67.496C6.84806 67.5959 6.946 67.6084 6.94489 67.6218Z" fill="#FF9C6A"/>
<path d="M16.2177 64.213L13.4134 64.0238L12.5752 61.7259L12.4206 60.1809C12.3453 59.4258 11.7135 58.8298 10.9548 58.841C10.9456 58.8413 10.9367 58.8413 10.9275 58.8415L11.0849 62.6289L11.6611 64.9811L13.9397 66.3253H16.7258L16.2177 64.213Z" fill="#FFC19D"/>
<path d="M16.2177 64.213L13.4134 64.0238L12.5752 61.7259L12.4206 60.1809C12.3453 59.4258 11.7135 58.8298 10.9548 58.841C10.9456 58.8413 10.9367 58.8413 10.9275 58.8415L11.0849 62.6289L11.6611 64.9811L13.9397 66.3253" fill="#FFC19D"/>
<path d="M13.9396 66.3252C13.9371 66.3294 13.8804 66.3018 13.775 66.2451C13.6569 66.1796 13.5049 66.095 13.3162 65.9904C12.9049 65.7543 12.3354 65.4273 11.6351 65.0255L11.6164 65.0149L11.6111 64.9934C11.4417 64.319 11.2419 63.5226 11.0215 62.6442L11.0198 62.6381L11.0195 62.6314C10.9701 61.4929 10.914 60.2052 10.8549 58.8446L10.8518 58.7723L10.9258 58.769C10.9511 58.7679 10.9796 58.7692 11.0078 58.7701C11.7129 58.7751 12.3131 59.3254 12.4521 59.954C12.492 60.1134 12.4989 60.2685 12.5146 60.4167C12.5294 60.5668 12.5439 60.7152 12.5581 60.8617C12.5866 61.155 12.6142 61.441 12.641 61.7192L12.6374 61.7033C12.9443 62.5588 13.2219 63.3337 13.463 64.0056L13.417 63.971C14.2689 64.0383 14.9648 64.0932 15.467 64.1331C15.6967 64.1543 15.8814 64.1714 16.0243 64.1848C16.1515 64.1981 16.2182 64.2076 16.2176 64.2129C16.2174 64.2182 16.1501 64.2188 16.022 64.2149C15.8789 64.2088 15.6933 64.2009 15.4631 64.1915C14.9603 64.1633 14.2633 64.1242 13.4097 64.0765L13.376 64.0745L13.3637 64.0419C13.1153 63.3725 12.829 62.6007 12.5129 61.7485L12.5101 61.741L12.5093 61.7323C12.4805 61.4544 12.4512 61.1684 12.4208 60.8754C12.4058 60.7289 12.3907 60.5805 12.3753 60.4306C12.3586 60.2791 12.3505 60.1279 12.3139 59.9881C12.1856 59.4158 11.639 58.9188 11.0047 58.9155C10.979 58.9146 10.9539 58.9129 10.9297 58.9141L11.0003 58.8384C11.0541 60.1993 11.1052 61.487 11.1504 62.6261L11.1487 62.6132C11.3588 63.4939 11.5497 64.2925 11.711 64.9688L11.6872 64.9368C12.3778 65.3553 12.9395 65.6957 13.345 65.9416C13.528 66.056 13.6754 66.1483 13.79 66.2198C13.8908 66.2848 13.9421 66.3208 13.9396 66.3252Z" fill="#FF9C6A"/>
<path d="M76.2863 19.5307C73.8824 10.3697 71.6636 -0.290561 58.2696 0.667645C58.2696 0.667645 50.0155 2.25591 46.0956 8.34752C43.7897 11.9309 41.7923 27.3774 41.395 39.5774C41.395 39.5793 41.3947 39.5816 41.3947 39.5835C41.3785 40.0805 41.5853 43.5433 41.5716 44.0291L77.026 46.9804H83.4129C83.4129 46.9804 83.0125 40.5082 81.0874 34.2305C79.2148 28.1241 77.1371 22.7733 76.2863 19.5307Z" fill="#1B3D4C"/>
<path d="M56.4878 4.15797L57.3257 3.35938L66.3809 7.00859C67.6913 7.08114 68.7282 8.14398 68.7678 9.45573L68.6883 38.96C68.7 40.9607 68.299 42.6935 67.0908 44.2882L65.8193 45.9674C62.9195 49.7955 56.9546 49.4805 54.6587 45.2623C54.4983 44.9676 54.3869 44.709 54.3386 44.4994C54.2901 44.2366 54.2184 44.0633 54.2039 43.8395C53.9343 41.4658 53.919 39.4076 53.919 39.4076C53.7574 36.8014 53.7044 35.7322 53.7038 35.7564C53.7038 35.7564 48.1577 35.1188 46.6582 27.9995C45.9126 24.4589 46.0533 19.588 46.2628 14.7939C46.553 8.15933 51.1549 4.15155 56.4878 4.15797Z" fill="#FFC19D"/>
<path d="M58.8187 19.5273C58.826 20.0142 59.2442 20.4096 59.7526 20.4112C60.2602 20.4132 60.667 20.0212 60.6598 19.5342C60.6525 19.0473 60.2342 18.6514 59.727 18.6494C59.218 18.6475 58.8114 19.0406 58.8187 19.5273Z" fill="#1B3D4C"/>
<path d="M49.3639 19.7753C49.3711 20.2622 49.7894 20.6576 50.2978 20.6593C50.8054 20.6612 51.2122 20.2692 51.2052 19.7823C51.1977 19.2954 50.7794 18.8994 50.2721 18.8975C49.7634 18.8955 49.3566 19.2887 49.3639 19.7753Z" fill="#1B3D4C"/>
<path d="M47.2097 16.6916C47.3297 16.806 48.0013 16.2552 48.9919 16.2077C49.9805 16.1466 50.7331 16.6199 50.8344 16.4932C50.8846 16.4368 50.7571 16.2259 50.4295 16.0113C50.1064 15.7976 49.5637 15.6011 48.947 15.6346C48.33 15.6689 47.8225 15.9223 47.5359 16.1695C47.2432 16.4184 47.1508 16.6405 47.2097 16.6916Z" fill="#1B3D4C"/>
<path d="M57.0333 16.3533C57.1648 16.4546 57.777 15.8377 58.7567 15.6892C59.7338 15.5266 60.531 15.92 60.6187 15.7838C60.6625 15.7224 60.5157 15.5257 60.1661 15.346C59.8229 15.1663 59.2631 15.0268 58.6529 15.1233C58.0432 15.221 57.5643 15.5249 57.3043 15.8006C57.0395 16.0779 56.97 16.3087 57.0333 16.3533Z" fill="#1B3D4C"/>
<path d="M53.8003 24.0022C53.8023 23.9458 53.1811 23.8702 52.1772 23.7926C51.923 23.7789 51.681 23.741 51.63 23.5705C51.561 23.3905 51.6531 23.1129 51.7611 22.8124C51.9682 22.1884 52.185 21.5347 52.4124 20.8491C53.3134 18.0554 53.9524 15.7631 53.8396 15.728C53.7269 15.6925 52.9046 17.9284 52.0036 20.7224C51.7876 21.4111 51.5806 22.0673 51.3841 22.6955C51.3029 22.9876 51.1548 23.3219 51.3029 23.6947C51.3805 23.8802 51.573 24.008 51.7374 24.0437C51.9017 24.085 52.0441 24.0806 52.1696 24.0817C53.1764 24.0853 53.7995 24.0588 53.8003 24.0022Z" fill="#1B3D4C"/>
<path d="M53.7039 35.7573C53.7039 35.7573 58.5473 35.8265 63.1866 32.7119C63.1866 32.7119 61.019 37.801 53.8026 37.4893L53.7039 35.7573Z" fill="#FF9C6A"/>
<path d="M56.8956 26.0156C56.6172 25.6785 56.1724 25.4933 55.7402 25.4684C55.1173 25.4327 54.679 25.5114 54.3464 26C54.1904 26.2698 54.2038 26.6861 54.2766 26.8C54.3492 26.9144 54.295 26.9169 54.4061 26.9975C54.8082 27.288 55.2719 27.4747 55.7513 27.5855C56.2307 27.696 56.7849 27.5813 57.0332 27.192C57.2539 26.8466 57.1744 26.3524 56.8956 26.0156Z" fill="#FF9C6A"/>
<path d="M56.7951 11.8034C56.9221 12.0568 57.7759 11.7964 58.8226 11.778C59.869 11.7359 60.7477 11.9454 60.847 11.6856C60.8902 11.562 60.7078 11.3335 60.3336 11.1267C59.9627 10.92 59.396 10.7562 58.7685 10.7738C58.1412 10.7925 57.594 10.9886 57.2466 11.2163C56.8961 11.444 56.7388 11.6826 56.7951 11.8034Z" fill="#1B3D4C"/>
<path d="M47.3525 14.8987C47.5378 15.1146 48.2086 14.8473 49.0284 14.7951C49.8462 14.7142 50.5511 14.8702 50.6992 14.6269C50.7637 14.5091 50.6429 14.2893 50.3287 14.0917C50.0189 13.8944 49.5097 13.746 48.9469 13.7915C48.3841 13.8375 47.9058 14.0657 47.6321 14.3105C47.3536 14.5563 47.2702 14.7929 47.3525 14.8987Z" fill="#1B3D4C"/>
<path d="M68.587 22.0479C68.587 22.0479 64.7757 22.9696 59.366 11.3204C57.5244 7.35504 53.948 3.35982 53.948 3.35982L57.3034 2.87598C57.3034 2.87598 67.3065 5.69395 67.4748 5.82007C67.643 5.9462 69.9984 10.9934 69.9984 10.9934L68.587 22.0479Z" fill="#1B3D4C"/>
<path d="M67.3368 21.5817C67.3114 21.0474 67.8658 19.7563 68.3896 19.6474C69.7878 19.3573 72.334 19.343 72.5371 22.9211C72.8148 27.8126 67.8466 27.0823 67.8298 26.9425C67.817 26.8332 67.425 23.4273 67.3368 21.5817Z" fill="#FFC19D"/>
<path d="M69.2192 25.0044C69.2399 24.9874 69.3077 25.0591 69.4553 25.1171C69.5995 25.1732 69.8437 25.2042 70.0932 25.094C70.5993 24.8749 70.9877 24.03 70.9615 23.1469C70.9487 22.701 70.8315 22.2824 70.6537 21.9403C70.4841 21.591 70.2385 21.3541 69.9757 21.3228C69.7137 21.2776 69.5382 21.4436 69.486 21.5845C69.4282 21.7255 69.4648 21.8212 69.4394 21.8309C69.4265 21.844 69.3297 21.755 69.3576 21.5511C69.3724 21.4526 69.4232 21.334 69.5329 21.2332C69.6447 21.1314 69.8144 21.0728 69.9969 21.082C70.3758 21.087 70.7349 21.4146 70.93 21.7899C71.1462 22.1661 71.2885 22.6359 71.3028 23.1365C71.3273 24.124 70.8753 25.075 70.1797 25.3194C69.8409 25.4285 69.5476 25.3412 69.3928 25.2343C69.2346 25.1221 69.2028 25.0142 69.2192 25.0044Z" fill="#FF9C6A"/>
<path d="M57.5265 26.215C57.5117 26.3405 56.676 26.3221 55.6837 26.5141C54.6893 26.696 53.9174 27.0172 53.858 26.9056C53.7972 26.8087 54.5305 26.2842 55.6031 26.0858C56.6738 25.8807 57.548 26.1025 57.5265 26.215Z" fill="#1B3D4C"/>
<path d="M95.7539 64.1229C95.7539 64.1229 99.8507 60.6138 101.038 60.52C102.225 60.4263 105.348 61.0066 105.348 61.0066C105.348 61.0066 107.32 61.0237 108.3 60.9012C109.776 60.7167 110.786 60.8705 111.378 61.051C111.674 61.1411 112.043 61.8767 111.173 62.3775C110.805 62.5893 107.223 62.8315 107.223 62.8315L116.186 65.392L115.022 66.3521C114.867 66.4799 114.674 66.553 114.474 66.56L101.569 67.0176L100.978 68.4602L95.7539 64.1229Z" fill="#FFC19D"/>
<path d="M105.536 64.1254H109.722C109.722 64.1254 111.19 62.1758 111.721 61.3635C112.186 60.6534 112.746 60.4446 113.234 60.6123C113.361 60.6559 113.464 60.7507 113.531 60.8674C113.63 61.0401 113.633 61.2513 113.539 61.4266L111.698 64.8623L112.663 64.5364C112.663 64.5364 114.596 62.6443 114.97 62.207C115.345 61.7698 116.72 59.9265 117.938 61.2697L116.251 63.1443L117.938 61.957C117.938 61.957 119.281 60.8012 120 62.1758L114.984 66.4057" fill="#FFC19D"/>
<path d="M101.179 62.3911C101.177 62.3869 101.235 62.3674 101.346 62.3336C101.458 62.3035 101.621 62.2393 101.844 62.2189C102.282 62.145 102.952 62.1567 103.724 62.4145C104.108 62.5449 104.517 62.7276 104.931 62.9701C105.138 63.0926 105.348 63.2254 105.558 63.3725C105.663 63.4467 105.769 63.5223 105.876 63.5988C105.977 63.671 106.103 63.7673 106.185 63.8103C107.245 63.8932 108.457 63.964 109.727 64.0536L109.668 64.0784C110.059 63.6133 110.446 63.1066 110.82 62.5769C110.966 62.3713 111.105 62.1631 111.241 61.9564C111.376 61.7502 111.504 61.5359 111.653 61.338C111.8 61.1399 111.959 60.9513 112.146 60.7906C112.237 60.7088 112.34 60.6385 112.45 60.5802C112.565 60.5266 112.676 60.4741 112.834 60.4953L112.81 60.4934C113.031 60.4713 113.283 60.4948 113.47 60.6522C113.657 60.814 113.707 61.0584 113.689 61.278L113.688 61.2895L113.681 61.3018C112.884 62.7318 112.191 63.9763 111.652 64.9418L111.656 64.9314C111.535 65.3436 111.203 65.5849 110.918 65.7125C110.622 65.8411 110.347 65.867 110.129 65.8793C109.91 65.8891 109.742 65.8807 109.629 65.8749C109.516 65.8684 109.457 65.8623 109.458 65.8578C109.458 65.8534 109.517 65.8509 109.63 65.8492C109.743 65.8464 109.911 65.8467 110.126 65.8294C110.34 65.8098 110.609 65.7755 110.888 65.6463C111.159 65.5185 111.464 65.2814 111.567 64.9072L111.568 64.9019L111.571 64.8968C112.1 63.9261 112.781 62.6749 113.564 61.237L113.556 61.2607C113.57 61.0816 113.522 60.872 113.38 60.7562C113.239 60.6377 113.029 60.6109 112.824 60.6326L112.818 60.6332L112.799 60.6307C112.726 60.6209 112.606 60.6564 112.514 60.706C112.418 60.7576 112.324 60.8215 112.238 60.8985C112.064 61.0489 111.911 61.2312 111.769 61.4237C111.492 61.8127 111.236 62.251 110.939 62.6607C110.562 63.1944 110.174 63.7012 109.777 64.1716L109.753 64.199L109.717 64.1965C108.439 64.1024 107.25 64.0293 106.157 63.9328C105.997 63.856 105.918 63.7757 105.804 63.6975C105.698 63.6205 105.593 63.5446 105.49 63.4699C105.284 63.3223 105.077 63.1891 104.875 63.0661C104.469 62.8222 104.069 62.6375 103.694 62.5033C102.94 62.2385 102.285 62.212 101.851 62.2695C101.63 62.2815 101.467 62.337 101.353 62.3587C101.24 62.3841 101.18 62.3953 101.179 62.3911Z" fill="#FF9C6A"/>
<path d="M117.938 61.269C117.946 61.2757 117.887 61.3572 117.775 61.4992C117.662 61.641 117.496 61.8433 117.289 62.0908C116.873 62.586 116.292 63.2635 115.644 64.0061C114.985 64.7366 114.436 65.4506 113.954 65.8918C113.717 66.1147 113.507 66.2771 113.35 66.372C113.193 66.4671 113.096 66.4984 113.093 66.4911C113.087 66.4803 113.175 66.4323 113.318 66.3254C113.462 66.2182 113.657 66.0472 113.882 65.8184C114.339 65.3655 114.869 64.6484 115.532 63.9137C116.181 63.1703 116.775 62.5021 117.211 62.0235C117.429 61.7841 117.607 61.5924 117.732 61.4618C117.858 61.3312 117.931 61.2623 117.938 61.269Z" fill="#FF9C6A"/>
<path d="M115.642 61.4655C115.656 61.4795 115.461 61.7069 115.134 62.0632C114.806 62.4198 114.347 62.9051 113.833 63.4347C113.411 63.8691 113.019 64.2659 112.705 64.5765L112.694 64.5871L112.681 64.591C112.06 64.7869 111.653 64.8918 111.645 64.8589C111.644 64.8511 111.739 64.8139 111.913 64.7481C112.126 64.6705 112.369 64.5818 112.644 64.4811L112.621 64.4958C112.922 64.1724 113.307 63.7678 113.728 63.3337C114.242 62.8038 114.714 62.33 115.06 61.9918C115.406 61.6536 115.627 61.4516 115.642 61.4655Z" fill="#FF9C6A"/>
<path d="M81.8659 43.2998C81.8659 43.2998 87.8822 44.8501 88.4723 53.027C88.8083 57.6854 86.3291 72.6506 86.3291 72.6506L95.2135 63.5259L103.131 69.0352C103.131 69.0352 92.3596 82.2056 89.8737 84.1857C87.388 86.1654 83.4291 89.3506 82.1402 89.0922C80.8511 88.8341 80.8511 82.8943 80.8511 82.8943V50.0971L81.8659 43.2998Z" fill="#00A887"/>
<path d="M38.6169 44.3018C38.6169 44.3018 33.2641 46.0613 33.4826 56.5162C33.7011 66.9708 33.5295 70.4911 33.5295 70.4911L25.5081 62.0023L18.8447 69.3515C18.8447 69.3515 26.2994 80.4273 31.5163 85.8101C36.432 90.8821 40.8017 86.4776 42.2217 82.9118C43.3724 80.0227 44.2972 69.0413 44.2972 69.0413L38.6169 44.3018Z" fill="#00A887"/>
<g opacity="0.3">
<path d="M82.3336 62.135C82.8166 59.076 82.9453 55.7415 81.5487 52.9336C78.1182 61.4121 78.2725 71.1465 79.5006 80.1294L82.2192 87.8994C83.9316 82.6927 82.3032 77.1463 82.3409 71.7034C82.3623 68.612 81.8506 65.1941 82.3336 62.135Z" fill="black"/>
</g>
<path d="M37.5017 50.9591C37.5017 50.9591 41.0801 75.0242 41.7726 77.1314C42.4652 79.2384 42.4652 85.4489 42.4652 85.4489C42.4652 85.4489 38.7097 92.4398 38.4786 97.3001L83.7026 97.3933L80.7641 77.4244C80.6631 76.6791 80.6564 74.3841 80.6968 73.6332C80.8869 70.1168 81.1589 62.5722 82.1668 57.9361C83.3385 52.5451 81.7608 43.3194 81.7608 43.3194L68.2525 39.9922C65.055 44.5865 57.0782 44.6484 53.9316 39.9922L38.6862 44.3019L37.5017 50.9591Z" fill="#00A887"/>
<path d="M81.6505 76.4685C81.6427 76.4624 81.6912 76.3862 81.7855 76.2542C81.8796 76.1214 82.0216 75.9342 82.201 75.7059C82.5638 75.2533 83.0786 74.6302 83.753 74.0443C84.4274 73.4572 85.1384 73.0554 85.668 72.8148C85.9339 72.696 86.1524 72.6072 86.307 72.5562C86.4608 72.5029 86.5473 72.478 86.5509 72.4872C86.5827 72.5444 85.1814 72.9937 83.8482 74.1542C83.1849 74.7301 82.662 75.337 82.28 75.7715C81.9016 76.2096 81.6672 76.4819 81.6505 76.4685Z" fill="#1B3D4C"/>
<path d="M39.7745 75.9592C39.7471 75.9671 39.6419 75.4698 39.3004 74.7351C38.9639 74.0035 38.3492 73.0419 37.4074 72.2436C36.466 71.4445 35.4165 70.9949 34.6399 70.7823C33.8595 70.5652 33.3519 70.5426 33.355 70.5144C33.3556 70.5055 33.4822 70.5036 33.7102 70.5217C33.9385 70.5393 34.2677 70.5856 34.6662 70.683C35.4603 70.8727 36.5396 71.3161 37.5015 72.1326C38.4636 72.9482 39.0774 73.9404 39.3941 74.693C39.5551 75.0702 39.6545 75.3878 39.7092 75.6099C39.7644 75.832 39.7831 75.9573 39.7745 75.9592Z" fill="#1B3D4C"/>
<path d="M40.0632 62.9186C40.0576 62.9266 39.985 62.8867 39.8583 62.8072C39.7311 62.7285 39.5534 62.6049 39.3391 62.445C38.9107 62.1252 38.3474 61.6422 37.786 61.0493C37.2248 60.4555 36.7661 59.876 36.4466 59.4488C36.1279 59.0207 35.946 58.7453 35.9613 58.7339C35.9781 58.721 36.189 58.9747 36.5275 59.3851C36.8665 59.795 37.335 60.3606 37.8912 60.9491C38.4478 61.5368 38.9936 62.0265 39.4027 62.3644C39.8117 62.7029 40.0763 62.8999 40.0632 62.9186Z" fill="#1B3D4C"/>
<path d="M71.6325 75.9445C71.6345 75.9461 71.6219 75.9648 71.5957 76C71.5636 76.0416 71.5246 76.0921 71.4766 76.1537C71.3675 76.2852 71.219 76.4905 71 76.7308C70.5775 77.2249 69.9215 77.9041 69.0423 78.6659C68.1644 79.4299 67.0466 80.2553 65.7418 81.0698C64.4376 81.8851 62.9442 82.6817 61.3459 83.4488C59.7454 84.2131 58.1987 84.8906 56.7991 85.5198C55.3986 86.1474 54.1454 86.7286 53.1088 87.2495C52.0719 87.7688 51.2474 88.2178 50.6854 88.5418C50.4019 88.6994 50.1879 88.8328 50.0386 88.9162C49.9705 88.9545 49.915 88.9857 49.8692 89.0114C49.8304 89.0323 49.8101 89.0418 49.8087 89.0396C49.8073 89.0376 49.8251 89.0237 49.8614 88.9988C49.9049 88.9698 49.9582 88.9344 50.0232 88.8911C50.1678 88.7996 50.3771 88.6584 50.6567 88.4932C51.2108 88.1536 52.0295 87.6901 53.0625 87.1578C54.0949 86.6242 55.3458 86.0324 56.7441 85.3976C58.1415 84.7614 59.6857 84.0805 61.2831 83.3179C62.8781 82.5523 64.3684 81.762 65.6712 80.9559C66.9746 80.1509 68.0933 79.3384 68.9756 78.5877C69.8596 77.8394 70.5237 77.1742 70.9578 76.6931C71.1827 76.4593 71.3379 76.2606 71.454 76.135C71.5064 76.077 71.5491 76.0296 71.5843 75.9905C71.6141 75.9587 71.6306 75.9428 71.6325 75.9445Z" fill="#1B3D4C"/>
<path d="M38.584 96.921C38.5821 96.921 38.5818 96.9009 38.5829 96.8619C38.5849 96.8164 38.5877 96.7592 38.5907 96.6869C38.6008 96.5248 38.615 96.298 38.6332 96.0069C38.7138 95.4173 38.8382 94.5515 39.1438 93.4914C39.7281 91.3668 40.8752 88.4417 42.625 85.1913L42.6167 85.2278C42.4372 82.6093 42.1657 79.6851 41.8527 76.6095C41.2564 70.802 40.6299 65.5536 40.1734 61.7557C39.9435 59.8627 39.7574 58.3283 39.6274 57.2582C39.5649 56.7333 39.516 56.3229 39.482 56.0352C39.4672 55.9007 39.4558 55.7955 39.4474 55.7165C39.4404 55.6448 39.4379 55.6077 39.4404 55.6074C39.4429 55.6071 39.4502 55.6434 39.4619 55.7146C39.4742 55.793 39.4904 55.8976 39.511 56.0313C39.5515 56.3181 39.6095 56.7275 39.6834 57.2509C39.8244 58.3196 40.0264 59.8521 40.2756 61.7428C40.7583 65.5383 41.4006 70.7852 41.9972 76.5948C42.3103 79.6714 42.5773 82.5973 42.7489 85.2192L42.7503 85.2384L42.7408 85.256C40.9871 88.4897 39.8244 91.4031 39.2208 93.5132C38.9052 94.5665 38.769 95.426 38.6753 96.0119C38.6485 96.3013 38.6273 96.5268 38.6125 96.688C38.6047 96.76 38.5988 96.817 38.5941 96.8622C38.5893 96.9012 38.586 96.921 38.584 96.921Z" fill="#1B3D4C"/>
<path d="M82.7239 51.5215C82.7264 51.5215 82.7281 51.5619 82.7292 51.6406C82.7298 51.7263 82.7301 51.8424 82.7306 51.9908C82.727 52.2986 82.7359 52.7531 82.7069 53.3372C82.6745 54.5063 82.5543 56.1953 82.3467 58.2755C82.1421 60.3563 81.8399 62.8269 81.5347 65.5723C81.2308 68.3174 80.9261 71.3413 80.8298 74.5254C80.7269 77.7114 81.0386 80.7414 81.4473 83.471C81.8492 86.2033 82.3232 88.6471 82.6899 90.7044C83.0641 92.7606 83.3392 94.4306 83.4946 95.5894C83.5786 96.1679 83.6258 96.6196 83.6593 96.9255C83.6746 97.0731 83.6863 97.1886 83.6952 97.2737C83.7025 97.3521 83.705 97.3926 83.7025 97.3929C83.7 97.3931 83.6925 97.3532 83.6805 97.2754C83.6682 97.1908 83.6514 97.0759 83.6302 96.9291C83.5873 96.6244 83.5312 96.1743 83.4385 95.5975C83.2661 94.4421 82.9759 92.7765 82.5889 90.7228C82.2091 88.6683 81.7247 86.2259 81.3151 83.4905C80.8982 80.7596 80.5812 77.7178 80.6845 74.5218C80.781 71.3299 81.0905 68.3029 81.4016 65.5575C81.7144 62.8115 82.0269 60.3429 82.2445 58.2649C82.465 56.1878 82.6006 54.5019 82.6503 53.3347C82.6879 52.7518 82.6882 52.298 82.7013 51.9905C82.7069 51.8421 82.7114 51.7263 82.7144 51.6406C82.7183 51.5619 82.7214 51.5215 82.7239 51.5215Z" fill="#1B3D4C"/>
<g opacity="0.3">
<path d="M39.5724 56.6758C38.7646 64.2376 39.7314 72.2989 42.1942 79.4939L39.5724 56.6758Z" fill="black"/>
</g>
<g opacity="0.3">
<path d="M67.546 83.3363C64.1191 86.4838 60.6812 89.1737 56.4661 90.6718C59.6437 90.9419 62.8495 89.7267 65.3064 87.6931C67.7633 85.6598 69.5107 83.5162 70.636 80.5322L67.546 83.3363Z" fill="black"/>
</g>
<path d="M63.6428 86.8054C63.616 86.7756 65.7479 84.8201 68.404 82.4382C71.061 80.0558 73.2358 78.1492 73.2626 78.1791C73.2893 78.2089 71.1578 80.1638 68.5008 82.5465C65.845 84.9284 63.6696 86.8353 63.6428 86.8054Z" fill="#1B3D4C"/>
<path d="M71.2221 27.7511C71.2221 28.7165 70.4394 29.4992 69.474 29.4992C68.5085 29.4992 67.7258 28.7165 67.7258 27.7511C67.7258 26.7856 68.5085 26.0029 69.474 26.0029C70.4394 26.0029 71.2221 26.7856 71.2221 27.7511Z" fill="#375A64"/>
<path d="M81.6325 50.7278C81.1171 46.4538 80.6015 42.1799 80.0861 37.9056L69.0226 34.5664C68.8089 42.2008 67.4726 50.7747 65.552 58.1666C69.629 59.4887 73.9853 59.9421 78.247 59.4881C78.4353 57.4233 78.6237 55.3584 78.8123 53.2936C79.0885 54.8497 79.3651 56.4062 79.6416 57.9626C80.8029 57.3119 81.4874 56.0158 81.719 54.7052C81.9509 53.3943 81.7918 52.0493 81.6325 50.7278Z" fill="#1B3D4C"/>
<path d="M72.9736 59.5234C72.9736 59.5234 72.9823 59.4681 73.006 59.3621C73.0317 59.2508 73.0677 59.0948 73.1148 58.8919C73.2136 58.4737 73.357 57.8659 73.5412 57.086C73.9028 55.5162 74.4388 53.2462 74.9606 50.4137C75.4852 47.5843 75.997 44.1846 76.1647 40.3819C76.3321 36.5859 76.0999 32.3683 75.0488 28.1024C74.0136 23.8368 72.2024 19.9789 69.919 16.9407C69.6299 16.564 69.3557 16.1829 69.0462 15.838C68.7423 15.4889 68.4588 15.1301 68.1424 14.8092C67.9884 14.6451 67.8352 14.4824 67.6831 14.3209C67.5255 14.1646 67.3692 14.0097 67.2141 13.8557C66.908 13.5443 66.5879 13.2561 66.2812 12.965C65.0393 11.8154 63.826 10.8056 62.7414 9.85687C61.6551 8.9101 60.6863 8.03505 59.8844 7.2158C59.6804 7.0149 59.4962 6.80813 59.3118 6.61616C59.1265 6.42474 58.9555 6.23416 58.7973 6.04637C58.6371 5.86053 58.4839 5.68279 58.3377 5.51285C58.1998 5.33678 58.0687 5.16908 57.9442 5.01003C57.6884 4.69779 57.4944 4.3956 57.3153 4.14223C57.1331 3.89055 56.9983 3.6648 56.8909 3.48176C56.7843 3.30262 56.7025 3.16477 56.6442 3.06655C56.5893 2.9728 56.5647 2.92285 56.5647 2.92285C56.5647 2.92285 56.5982 2.96778 56.6571 3.0593C56.7182 3.15557 56.8041 3.29062 56.9157 3.46613C57.0271 3.64667 57.1655 3.86906 57.351 4.11768C57.5332 4.36797 57.7302 4.66654 57.9889 4.97515C58.1145 5.13253 58.247 5.29827 58.3862 5.47267C58.5336 5.64065 58.6879 5.81672 58.8492 6.00061C59.0085 6.18644 59.1804 6.37507 59.3668 6.56454C59.552 6.75484 59.737 6.95937 59.9421 7.1586C60.7472 7.97031 61.719 8.83811 62.8087 9.77929C63.8969 10.7224 65.1143 11.7278 66.363 12.8763C66.6713 13.1673 66.9928 13.4553 67.3014 13.7673C67.4574 13.9213 67.6148 14.0764 67.7732 14.2327C67.9262 14.3945 68.0805 14.5578 68.2359 14.7218C68.5543 15.0436 68.8403 15.4035 69.1467 15.7537C69.4583 16.0997 69.7349 16.4823 70.0262 16.8604C72.3271 19.9097 74.1509 23.7852 75.1897 28.0675C76.245 32.3501 76.4735 36.5831 76.2983 40.3877C76.1228 44.1993 75.5996 47.6027 75.0614 50.4327C74.5262 53.2658 73.9748 55.5329 73.5961 57.0991C73.4042 57.8818 73.2507 58.4884 73.1433 58.8989C73.0903 59.1001 73.0495 59.2552 73.0202 59.3655C72.9918 59.4707 72.9736 59.5234 72.9736 59.5234Z" fill="#375A64"/>
</svg>
