<svg width="350" height="396" viewBox="0 0 350 396" fill="none" xmlns="http://www.w3.org/2000/svg">
<path d="M244.023 273.683L67.113 313.109C62.8186 314.066 58.562 311.361 57.6053 307.066L0.192646 49.448C-0.764954 45.1535 1.94088 40.896 6.23439 39.9393L183.144 0.513485C187.439 -0.443193 191.695 2.2617 192.653 6.55615L250.065 264.176C251.022 268.469 248.317 272.727 244.023 273.683Z" fill="#DBDBDB"/>
<g opacity="0.3">
<path d="M76.0846 303.989L237.273 267.141L232.173 235.547L223.038 217.844L68.8445 278.41L76.0846 303.989Z" fill="black"/>
</g>
<g opacity="0.3">
<path d="M143.379 9.9613L149.476 20.0299L150.663 25.3631L146.525 26.2857L143.379 9.9613Z" fill="black"/>
</g>
<path d="M9.37622 50.9405L65.299 301.874L240.592 262.808L230.592 217.938L184.669 11.8754L9.37622 50.9405Z" fill="white"/>
<path d="M147.471 28.3248L58.7779 48.0912L54.3146 28.0618C53.6135 24.916 55.5951 21.7978 58.741 21.0966L136.042 3.86906C139.188 3.16885 142.307 5.15047 143.008 8.29634L147.471 28.3248Z" fill="#2C3F4D"/>
<path d="M106.522 0.292908L83.949 5.32348L90.8995 24.0854L107.904 20.2959L106.522 0.292908Z" fill="#2C3F4D"/>
<path d="M59.8378 43.4982C59.7351 43.5211 58.8405 39.901 57.8405 35.4131C56.8403 30.9243 56.1123 27.2671 56.2159 27.244C56.3185 27.2211 57.2122 30.8414 58.2133 35.33C59.2133 39.8179 59.9404 43.4753 59.8378 43.4982Z" fill="#375A64"/>
<path d="M143.246 22.8893C143.143 22.9124 142.324 19.6271 141.416 15.5525C140.507 11.4771 139.855 8.15556 139.957 8.13288C140.059 8.11 140.88 11.394 141.788 15.4696C142.697 19.544 143.348 22.8666 143.246 22.8893Z" fill="#375A64"/>
<path d="M139.731 27.2643C139.754 27.367 122.008 31.4097 100.101 36.2919C78.186 41.176 60.4077 45.0502 60.3839 44.9478C60.362 44.8449 78.1031 40.8041 100.017 35.9203C121.925 31.0378 139.707 27.1628 139.731 27.2643Z" fill="#375A64"/>
<path d="M93.0384 100.264C93.0617 100.368 81.0935 103.123 66.3107 106.418C51.5219 109.714 39.5188 112.3 39.4956 112.196C39.4723 112.092 51.4378 109.337 66.2266 106.04C81.0094 102.746 93.0151 100.159 93.0384 100.264Z" fill="#2C3F4D"/>
<path d="M182.261 90.2157C182.284 90.3193 151.011 97.3775 112.421 105.978C73.8178 114.581 42.5136 121.468 42.4905 121.365C42.4672 121.26 73.7337 114.203 112.337 105.6C150.927 97.0011 182.238 90.1113 182.261 90.2157Z" fill="#2C3F4D"/>
<path d="M184.183 98.8398C184.206 98.9434 152.934 106.003 114.344 114.602C75.7402 123.205 44.4359 130.092 44.4128 129.989C44.3896 129.884 75.6554 122.828 114.259 114.224C152.85 105.625 184.16 98.7354 184.183 98.8398Z" fill="#2C3F4D"/>
<path d="M186.105 107.464C186.128 107.567 154.855 114.626 116.265 123.226C77.662 131.829 46.3578 138.716 46.3347 138.613C46.3114 138.508 77.578 131.451 116.181 122.848C154.771 114.249 186.082 107.359 186.105 107.464Z" fill="#2C3F4D"/>
<path d="M188.026 116.087C188.049 116.19 156.777 123.249 118.187 131.849C79.5834 140.452 48.2792 147.339 48.2561 147.236C48.2328 147.131 79.4986 140.075 118.103 131.471C156.693 122.872 188.003 115.982 188.026 116.087Z" fill="#2C3F4D"/>
<path d="M189.948 124.711C189.971 124.814 158.699 131.872 120.109 140.473C81.5053 149.076 50.2011 155.963 50.178 155.86C50.1547 155.755 81.4205 148.699 120.025 140.095C158.615 131.496 189.925 124.606 189.948 124.711Z" fill="#2C3F4D"/>
<path d="M77.2833 185.413C77.2759 185.409 77.2473 185.309 77.1993 185.122C77.1458 184.907 77.0794 184.636 76.9964 184.3C76.8183 183.552 76.5729 182.516 76.2639 181.217C75.6485 178.549 74.7832 174.801 73.7481 170.318L73.9474 170.444C69.5422 171.433 64.3557 172.598 58.8223 173.842C58.7881 173.892 59.0981 173.406 58.968 173.614L58.9745 173.643L58.9809 173.675L58.9957 173.739L59.0243 173.869L59.0824 174.129L59.1977 174.644C59.2743 174.988 59.35 175.331 59.4256 175.671C59.5769 176.352 59.7273 177.026 59.8749 177.694C60.171 179.029 60.4607 180.336 60.7421 181.607C61.3011 184.148 61.8288 186.546 62.3141 188.749L62.1148 188.623C66.6141 187.656 70.3753 186.848 73.0516 186.272C74.3597 186 75.4013 185.782 76.1532 185.625C76.4927 185.558 76.7667 185.504 76.9835 185.461C77.1735 185.425 77.2759 185.409 77.2833 185.413C77.2907 185.418 77.2039 185.444 77.0277 185.49C76.8211 185.541 76.5609 185.605 76.2371 185.685C75.4991 185.861 74.476 186.104 73.1909 186.409C70.498 187.03 66.7146 187.904 62.1877 188.948L62.0253 188.986L61.9875 188.822C61.4912 186.621 60.9506 184.225 60.3786 181.688C60.0935 180.418 59.8011 179.112 59.5013 177.777C59.3527 177.11 59.2014 176.436 59.0492 175.755C58.9736 175.414 58.897 175.072 58.8204 174.728L58.7051 174.213L58.6479 173.953L58.6184 173.823L58.6045 173.759L58.5972 173.726L58.5916 173.702L58.5907 173.698C58.4597 173.903 58.7678 173.414 58.7383 173.464C64.2754 172.24 69.4666 171.093 73.8745 170.117L74.0387 170.081L74.0738 170.245C75.0498 174.786 75.8663 178.583 76.4475 181.285C76.7168 182.577 76.9309 183.607 77.0859 184.35C77.1504 184.677 77.2021 184.941 77.2436 185.149C77.2768 185.328 77.2907 185.418 77.2833 185.413Z" fill="#2C3F4D"/>
<path d="M84.1971 171.625L189.747 148.102L191.71 156.907L86.1595 180.43L84.1971 171.625Z" fill="#CAD2DF"/>
<path d="M83.1331 211.661C83.1258 211.657 83.0972 211.557 83.0492 211.37C82.9957 211.155 82.9293 210.884 82.8453 210.548C82.6682 209.801 82.4228 208.765 82.1137 207.465C81.4984 204.798 80.633 201.049 79.5979 196.566L79.7972 196.692C75.3921 197.681 70.2055 198.846 64.6721 200.09C64.638 200.14 64.948 199.655 64.8179 199.862L64.8243 199.891L64.8308 199.923L64.8456 199.988L64.8742 200.118L64.9323 200.377L65.0467 200.893C65.1232 201.237 65.1998 201.579 65.2755 201.919C65.4268 202.6 65.5771 203.275 65.7247 203.943C66.0209 205.277 66.3106 206.584 66.5919 207.855C67.151 210.396 67.6787 212.794 68.1639 214.997L67.9647 214.871C72.4639 213.904 76.2251 213.096 78.9014 212.52C80.2096 212.248 81.2511 212.03 82.003 211.874C82.3425 211.806 82.6165 211.752 82.8333 211.709C83.0234 211.673 83.1258 211.657 83.1331 211.661C83.1405 211.666 83.0538 211.692 82.8776 211.738C82.6709 211.789 82.4099 211.853 82.087 211.934C81.3489 212.109 80.3258 212.352 79.0407 212.658C76.3478 213.279 72.5645 214.152 68.0376 215.197L67.8743 215.234L67.8374 215.07C67.341 212.869 66.8004 210.474 66.2284 207.936C65.9434 206.666 65.6509 205.36 65.3511 204.026C65.2026 203.359 65.0513 202.684 64.8991 202.003C64.8234 201.662 64.7468 201.321 64.6703 200.977L64.5549 200.461L64.4978 200.202L64.4682 200.072L64.4544 200.007L64.447 199.975L64.4415 199.95L64.4406 199.946C64.3096 200.151 64.6177 199.662 64.5882 199.713C70.1253 198.488 75.3164 197.341 79.7243 196.367L79.8885 196.33L79.9236 196.493C80.8997 201.035 81.7161 204.831 82.2973 207.533C82.5667 208.826 82.7807 209.855 82.9357 210.599C83.0003 210.925 83.052 211.189 83.0935 211.398C83.1267 211.577 83.1405 211.666 83.1331 211.661Z" fill="#2C3F4D"/>
<path d="M90.047 197.873L195.597 174.35L197.56 183.155L92.0095 206.679L90.047 197.873Z" fill="#CAD2DF"/>
<path d="M88.9818 237.91C88.9744 237.905 88.9458 237.805 88.8978 237.618C88.8443 237.403 88.7779 237.132 88.6949 236.796C88.5168 236.049 88.2714 235.013 87.9624 233.713C87.347 231.045 86.4817 227.298 85.4466 222.813L85.6458 222.941C81.2407 223.929 76.0542 225.095 70.5207 226.338C70.4866 226.388 70.7966 225.903 70.6665 226.11L70.673 226.139L70.6794 226.171L70.6942 226.236L70.7228 226.366L70.7809 226.624L70.8962 227.141C70.9728 227.485 71.0484 227.826 71.1241 228.168C71.2754 228.848 71.4258 229.523 71.5743 230.191C71.8695 231.526 72.1592 232.832 72.4406 234.103C72.9996 236.644 73.5273 239.043 74.0126 241.246L73.8133 241.119C78.3126 240.152 82.0738 239.344 84.7501 238.769C86.0582 238.496 87.0998 238.279 87.8517 238.122C88.1911 238.055 88.4651 238 88.6819 237.957C88.872 237.921 88.9744 237.905 88.9818 237.91C88.9891 237.914 88.9024 237.94 88.7262 237.986C88.5196 238.037 88.2594 238.102 87.9356 238.182C87.1976 238.357 86.1745 238.601 84.8894 238.905C82.1965 239.527 78.4131 240.401 73.8862 241.445L73.7238 241.483L73.686 241.318C73.1897 239.117 72.6491 236.721 72.0771 234.184C71.792 232.914 71.4996 231.608 71.1997 230.274C71.0512 229.607 70.8999 228.932 70.7477 228.251C70.672 227.91 70.5955 227.569 70.5189 227.225L70.4036 226.709L70.3464 226.45L70.3169 226.32L70.303 226.255L70.2956 226.223L70.2901 226.198L70.2892 226.194C70.1582 226.399 70.4663 225.91 70.4368 225.961C75.9739 224.737 81.1651 223.589 85.573 222.614L85.7372 222.578L85.7722 222.741C86.7492 227.283 87.5647 231.079 88.1459 233.781C88.4153 235.074 88.6294 236.103 88.7843 236.847C88.8489 237.174 88.9006 237.437 88.9421 237.646C88.9753 237.825 88.9891 237.914 88.9818 237.91Z" fill="#2C3F4D"/>
<path d="M95.8966 224.121L201.447 200.598L203.409 209.404L97.8591 232.927L95.8966 224.121Z" fill="#CAD2DF"/>
<path d="M62.7468 179.991L64.3318 177.497L69.0441 180.116L75.1098 170.966L77.4577 172.583L69.6299 184.114L62.7468 179.991Z" fill="#1EA788"/>
<path d="M68.4009 205.36L69.9858 202.867L74.6982 205.486L80.7639 196.336L83.1118 197.953L75.284 209.484L68.4009 205.36Z" fill="#1EA788"/>
<path d="M74.1982 231.373L75.7832 228.879L80.4955 231.498L86.5612 222.348L88.9091 223.965L81.0813 235.496L74.1982 231.373Z" fill="#1EA788"/>
<path d="M122.51 264.016C122.533 264.12 113.621 266.194 102.608 268.649C91.5899 271.104 82.643 273.009 82.6199 272.906C82.5967 272.801 91.5058 270.727 102.524 268.273C113.537 265.817 122.487 263.912 122.51 264.016Z" fill="#2C3F4D"/>
<path d="M142.386 259.264C142.409 259.367 139.131 260.187 135.064 261.093C130.997 262 127.681 262.65 127.658 262.546C127.635 262.442 130.913 261.622 134.98 260.716C139.047 259.809 142.364 259.159 142.386 259.264Z" fill="#2C3F4D"/>
<path d="M208.2 238.548C208.223 238.652 200.204 240.528 190.293 242.736C180.377 244.947 172.322 246.653 172.3 246.549C172.277 246.445 180.292 244.57 190.209 242.359C200.12 240.151 208.178 238.444 208.2 238.548Z" fill="#2C3F4D"/>
<path d="M199.631 262.833C199.609 262.826 199.709 262.58 199.807 262.099C199.914 261.618 199.92 260.875 199.696 259.969C199.464 259.059 198.989 258.008 198.421 256.792C197.876 255.581 197.17 254.145 197.158 252.394C197.184 250.675 197.941 248.766 199.496 247.428C201.031 246.063 203.441 245.582 205.627 246.285C206.714 246.64 207.764 247.255 208.545 248.202C208.917 248.683 209.216 249.263 209.238 249.928C209.295 250.606 208.775 251.279 208.155 251.487C207.542 251.722 206.943 251.792 206.34 251.937C205.734 252.061 205.122 252.188 204.507 252.314C203.273 252.559 202.015 252.784 200.731 252.953C198.169 253.296 195.595 253.343 193.183 252.996C192.005 252.871 190.759 252.852 189.871 253.536C188.985 254.212 188.535 255.31 187.873 256.232C187.548 256.697 187.132 257.142 186.587 257.382C186.049 257.63 185.423 257.624 184.894 257.452C183.83 257.094 183.047 256.381 182.202 255.901C181.784 255.656 181.349 255.455 180.904 255.409C180.463 255.367 180.02 255.476 179.668 255.722C178.955 256.228 178.578 257.068 178.105 257.77C177.172 259.262 175.566 259.968 174.21 260.017C172.82 260.086 171.691 259.494 170.98 258.872C170.254 258.237 169.891 257.562 169.703 257.102C169.517 256.635 169.493 256.37 169.493 256.37C169.514 256.364 169.569 256.622 169.774 257.071C169.982 257.513 170.358 258.159 171.077 258.757C171.783 259.345 172.875 259.887 174.198 259.802C175.495 259.732 177.007 259.044 177.877 257.621C178.336 256.935 178.693 256.069 179.498 255.477C179.9 255.189 180.424 255.053 180.936 255.101C181.452 255.151 181.926 255.372 182.362 255.623C183.239 256.119 184.032 256.815 184.995 257.127C185.47 257.277 185.989 257.276 186.445 257.064C186.903 256.86 187.275 256.471 187.584 256.026C188.218 255.148 188.655 254.018 189.649 253.24C190.145 252.857 190.765 252.66 191.378 252.59C191.994 252.521 192.612 252.558 193.221 252.62C195.63 252.959 198.133 252.908 200.681 252.57C201.953 252.403 203.203 252.18 204.432 251.938C205.046 251.811 205.655 251.687 206.26 251.563C206.857 251.423 207.487 251.34 208.011 251.137C208.541 250.942 208.892 250.477 208.863 249.934C208.851 249.397 208.591 248.863 208.254 248.428C207.545 247.56 206.544 246.961 205.519 246.625C203.443 245.95 201.165 246.391 199.703 247.672C198.217 248.932 197.471 250.756 197.431 252.398C197.422 254.061 198.089 255.487 198.617 256.704C199.166 257.925 199.629 259 199.842 259.933C200.049 260.866 200.017 261.63 199.883 262.114C199.759 262.601 199.631 262.833 199.631 262.833Z" fill="#2C3F4D"/>
<path d="M218.705 251.023C218.707 251.036 218.541 251.084 218.223 251.166C217.865 251.252 217.402 251.364 216.826 251.502C215.566 251.795 213.82 252.2 211.681 252.695C207.338 253.703 201.344 255.124 194.75 256.796C188.154 258.47 182.207 260.077 177.908 261.263C175.791 261.846 174.064 262.323 172.816 262.666C172.244 262.818 171.784 262.941 171.429 263.036C171.11 263.116 170.941 263.152 170.937 263.139C170.933 263.126 171.095 263.066 171.407 262.961C171.756 262.849 172.21 262.703 172.774 262.522C173.964 262.147 175.692 261.626 177.833 261C182.115 259.747 188.054 258.097 194.655 256.421C201.253 254.749 207.26 253.369 211.622 252.43C213.802 251.959 215.57 251.593 216.795 251.356C217.377 251.246 217.845 251.157 218.206 251.09C218.53 251.033 218.702 251.01 218.705 251.023Z" fill="#2C3F4D"/>
<path d="M71.3923 64.5553L143.042 48.5871L146.042 62.0488L74.3925 78.0171L71.3923 64.5553Z" fill="#CAD2DF"/>
<path d="M210.819 267.052L233.967 389.345L255.121 350.26L295.217 373.793L252.656 254.707L210.819 267.052Z" fill="#1EA788"/>
<g opacity="0.3">
<path d="M218.604 308.183C222.883 309.064 227.877 307.551 230.913 304.409C233.022 302.228 234.429 299.263 237.089 297.803C239.476 296.491 242.42 296.678 245.046 297.403C247.67 298.128 250.143 299.345 252.779 300.028C257.948 301.37 263.647 300.524 268.203 297.739L261.526 279.196L230.526 275.324L215.745 293.081L218.604 308.183Z" fill="black"/>
</g>
<path d="M253.613 345.404C253.485 345.437 250.037 332.736 245.914 317.038C241.79 301.334 238.552 288.581 238.679 288.548C238.808 288.514 242.255 301.213 246.379 316.916C250.502 332.614 253.741 345.371 253.613 345.404Z" fill="#2C3F4D"/>
<path d="M214.207 273.414L191.059 395.707L169.905 356.622L129.809 380.155L172.37 261.069L214.207 273.414Z" fill="#1EA788"/>
<g opacity="0.3">
<path d="M159.64 296.687C159.64 296.687 166.223 302.107 174.078 299.609C181.933 297.112 186.809 296.587 191.058 299.609C195.307 302.632 206.811 312.484 206.811 312.484L209.482 298.374L194.033 277.158L177.9 280.414L166.409 281.562L162.137 289.648L159.64 296.687Z" fill="black"/>
</g>
<path d="M349.924 163.018C349.924 171.792 338.709 179.35 337.069 187.643C335.379 196.188 342.816 207.451 339.556 215.313C336.239 223.311 322.982 226.001 318.223 233.112C313.426 240.276 315.984 253.547 309.91 259.621C303.836 265.695 290.565 263.137 283.401 267.933C276.292 272.692 273.601 285.949 265.602 289.267C257.741 292.526 246.478 285.089 237.933 286.779C229.64 288.419 222.082 299.634 213.308 299.634C204.533 299.634 196.975 288.419 188.682 286.779C180.138 285.089 168.874 292.526 161.012 289.267C153.014 285.949 150.324 272.692 143.214 267.933C136.049 263.137 122.779 265.694 116.704 259.62C110.63 253.546 113.189 240.275 108.392 233.111C103.633 226.001 90.3759 223.311 87.0585 215.313C83.7991 207.451 91.2367 196.188 89.5466 187.643C87.9063 179.35 76.6909 171.792 76.6909 163.018C76.6909 154.243 87.9063 146.685 89.5466 138.392C91.2367 129.848 83.7991 118.584 87.0594 110.722C90.3759 102.724 103.633 100.034 108.392 92.9236C113.189 85.7601 110.631 72.4893 116.705 66.4143C122.779 60.3403 136.05 62.8985 143.215 58.1022C150.325 53.3428 153.014 40.0859 161.013 36.7684C168.874 33.509 180.138 40.9466 188.682 39.2565C196.975 37.6162 204.533 26.4008 213.308 26.4008C222.082 26.4008 229.64 37.6162 237.933 39.2565C246.478 40.9466 257.741 33.509 265.603 36.7693C273.601 40.0858 276.292 53.3428 283.402 58.1031C290.566 62.8994 303.836 60.3412 309.911 66.4152C315.985 72.4893 313.427 85.7601 318.223 92.9245C322.982 100.035 336.239 102.724 339.557 110.723C342.816 118.584 335.379 129.848 337.069 138.392C338.709 146.685 349.924 154.243 349.924 163.018Z" fill="#1EA788"/>
<path d="M181.342 86.4409C181.328 86.4483 181.243 86.3182 181.094 86.0636C180.923 85.7582 180.716 85.3874 180.466 84.939C179.925 83.9593 179.179 82.5229 178.289 80.7313C176.506 77.1491 174.203 72.1175 171.98 66.4282C169.763 60.7352 168.05 55.4721 166.937 51.6297C166.378 49.7089 165.954 48.1461 165.689 47.0594C165.57 46.5603 165.471 46.147 165.39 45.8066C165.326 45.5187 165.301 45.3656 165.317 45.361C165.332 45.3564 165.39 45.5012 165.483 45.7807C165.588 46.1147 165.715 46.5206 165.868 47.0096C166.22 48.1489 166.69 49.6766 167.262 51.5309C168.457 55.3429 170.216 60.5746 172.428 66.2538C174.645 71.9293 176.894 76.9692 178.595 80.5837C179.431 82.3347 180.119 83.7775 180.632 84.8542C180.851 85.3182 181.031 85.7029 181.18 86.0193C181.301 86.2887 181.357 86.4335 181.342 86.4409Z" fill="#2C3F4D"/>
<path d="M193.5 81.8172C193.467 81.8255 193.344 81.4629 193.147 80.7996C192.95 80.1372 192.688 79.1722 192.383 77.9739C191.774 75.5789 191.02 72.2467 190.337 68.5362C189.656 64.8248 189.177 61.4409 188.896 58.9851C188.755 57.7581 188.656 56.7627 188.606 56.0727C188.554 55.3835 188.541 55.0007 188.574 54.997C188.607 54.9933 188.683 55.3688 188.792 56.0505C188.912 56.8338 189.058 57.7997 189.233 58.9408C189.6 61.381 190.13 64.7473 190.809 68.4495C191.49 72.1508 192.191 75.4848 192.714 77.8964C192.956 79.0246 193.162 79.9804 193.329 80.7544C193.469 81.4306 193.532 81.8089 193.5 81.8172Z" fill="#2C3F4D"/>
<path d="M214.948 79.6859C214.815 79.6889 214.474 69.3412 214.186 56.5755C213.897 43.8061 213.77 33.4545 213.903 33.4515C214.037 33.4485 214.377 43.7943 214.666 56.5646C214.955 69.3294 215.082 79.6838 214.948 79.6859Z" fill="#2C3F4D"/>
<path d="M236.531 58.423C236.657 58.4629 235.168 63.6371 233.205 69.9797C231.241 76.3241 229.546 81.4336 229.42 81.3946C229.293 81.3553 230.782 76.1819 232.746 69.8367C234.71 63.4944 236.405 58.384 236.531 58.423Z" fill="#2C3F4D"/>
<path d="M245.341 85.1641C245.326 85.1586 245.366 85.0082 245.457 84.7278C245.572 84.3966 245.71 83.9953 245.878 83.5109C246.249 82.4555 246.823 80.9435 247.54 79.0772C248.982 75.3483 251.055 70.2309 253.415 64.6071C255.775 58.9823 257.968 53.9139 259.585 50.2597C260.382 48.4884 261.038 47.0308 261.528 45.9431C261.749 45.48 261.93 45.0962 262.081 44.7798C262.212 44.5159 262.288 44.3812 262.304 44.3877C262.319 44.3942 262.273 44.5427 262.169 44.8185C262.042 45.1442 261.887 45.54 261.7 46.0169C261.246 47.1203 260.637 48.5982 259.898 50.3935C258.325 54.1427 256.204 59.201 253.858 64.7934C251.528 70.3878 249.419 75.4507 247.855 79.2036C247.116 80.9979 246.507 82.4758 246.052 83.5783C245.851 84.0497 245.685 84.4409 245.548 84.7628C245.427 85.0313 245.357 85.1697 245.341 85.1641Z" fill="#2C3F4D"/>
<path d="M256.874 91.1782C256.846 91.1597 257.035 90.8267 257.4 90.239C257.764 89.6504 258.311 88.8137 259.004 87.7906C260.39 85.7435 262.379 82.9657 264.698 79.9905C267.02 77.0153 269.231 74.41 270.879 72.5677C271.703 71.6461 272.381 70.9117 272.862 70.4163C273.344 69.9191 273.621 69.6552 273.646 69.6774C273.671 69.6995 273.44 70.0058 273.003 70.54C272.497 71.1498 271.873 71.9016 271.136 72.79C269.557 74.6859 267.394 77.3188 265.077 80.2857C262.763 83.2535 260.736 85.9926 259.282 87.9862C258.6 88.917 258.022 89.7058 257.555 90.3442C257.142 90.8986 256.901 91.1966 256.874 91.1782Z" fill="#2C3F4D"/>
<path d="M273.646 104.929C273.556 104.832 280.855 97.8942 289.947 89.435C299.042 80.9738 306.488 74.1946 306.578 74.2919C306.668 74.3892 299.37 81.3251 290.274 89.7875C281.182 98.2462 273.736 105.026 273.646 104.929Z" fill="#2C3F4D"/>
<path d="M302.948 107.794C302.978 107.861 301.897 108.402 300.168 109.309C298.437 110.213 296.078 111.517 293.477 112.978C290.874 114.439 288.477 115.702 286.702 116.532C285.814 116.947 285.09 117.268 284.58 117.469C284.071 117.674 283.783 117.772 283.77 117.742C283.74 117.676 284.821 117.134 286.55 116.228C288.282 115.324 290.641 114.019 293.242 112.558C295.844 111.098 298.241 109.834 300.017 109.004C300.904 108.59 301.628 108.268 302.138 108.067C302.648 107.862 302.935 107.764 302.948 107.794Z" fill="#2C3F4D"/>
<path d="M330.075 119.046C330.119 119.172 321.43 122.345 310.671 126.132C299.907 129.923 291.149 132.891 291.104 132.767C291.06 132.641 299.748 129.468 310.51 125.68C321.27 121.892 330.03 118.921 330.075 119.046Z" fill="#2C3F4D"/>
<path d="M338.708 168.371C338.696 168.504 329.254 167.713 317.62 166.605C305.983 165.498 296.563 164.493 296.576 164.36C296.588 164.228 306.029 165.019 317.666 166.127C329.298 167.234 338.722 168.239 338.708 168.371Z" fill="#2C3F4D"/>
<path d="M331.765 212.613C331.709 212.733 322.88 208.681 312.049 203.564C301.214 198.445 292.479 194.2 292.535 194.08C292.592 193.96 301.419 198.011 312.254 203.131C323.085 208.247 331.821 212.493 331.765 212.613Z" fill="#2C3F4D"/>
<path d="M302.724 254.708C302.622 254.793 296.255 247.407 288.502 238.213C280.749 229.016 274.547 221.494 274.648 221.408C274.749 221.324 281.115 228.707 288.87 237.904C296.622 247.097 302.825 254.622 302.724 254.708Z" fill="#2C3F4D"/>
<path d="M278.483 260.268C278.456 260.286 278.183 259.916 277.714 259.232C277.244 258.547 276.582 257.544 275.781 256.295C274.177 253.797 272.028 250.304 269.764 246.381C267.5 242.456 265.551 238.846 264.191 236.208C263.512 234.889 262.974 233.815 262.617 233.065C262.259 232.316 262.075 231.895 262.104 231.88C262.133 231.864 262.374 232.256 262.783 232.979C263.231 233.784 263.804 234.815 264.491 236.048C265.927 238.643 267.919 242.222 270.18 246.142C272.441 250.059 274.541 253.575 276.07 256.116C276.794 257.327 277.399 258.339 277.872 259.131C278.293 259.847 278.511 260.251 278.483 260.268Z" fill="#2C3F4D"/>
<path d="M263.424 281.439C263.409 281.446 263.327 281.316 263.184 281.061C263.02 280.754 262.82 280.382 262.581 279.933C262.061 278.952 261.348 277.512 260.498 275.717C258.798 272.13 256.614 267.09 254.536 261.396C252.462 255.697 250.893 250.433 249.886 246.593C249.382 244.672 249.002 243.111 248.767 242.026C248.663 241.528 248.576 241.116 248.504 240.774C248.45 240.487 248.429 240.335 248.444 240.33C248.461 240.327 248.514 240.472 248.599 240.752C248.694 241.086 248.81 241.492 248.949 241.981C249.268 243.121 249.695 244.648 250.214 246.502C251.303 250.313 252.919 255.547 254.987 261.231C257.06 266.911 259.189 271.957 260.807 275.575C261.604 277.329 262.259 278.773 262.749 279.851C262.956 280.315 263.129 280.7 263.271 281.017C263.385 281.287 263.439 281.432 263.424 281.439Z" fill="#2C3F4D"/>
<path d="M232.923 266.597C232.852 266.601 232.738 265.369 232.524 263.385C232.31 261.4 231.975 258.665 231.475 255.663C230.972 252.662 230.398 249.966 229.953 248.02C229.509 246.074 229.216 244.873 229.285 244.854C229.317 244.844 229.43 245.133 229.607 245.665C229.786 246.196 230.019 246.972 230.283 247.938C230.813 249.869 231.443 252.568 231.949 255.585C232.452 258.6 232.736 261.357 232.862 263.355C232.927 264.354 232.96 265.164 232.963 265.724C232.969 266.285 232.956 266.595 232.923 266.597Z" fill="#2C3F4D"/>
<path d="M212.97 293.153C212.953 293.153 212.939 292.99 212.929 292.68C212.924 292.315 212.916 291.867 212.908 291.324C212.896 290.146 212.903 288.441 212.942 286.336C213.012 282.124 213.205 276.309 213.543 269.892C213.876 263.473 214.289 257.67 214.629 253.472C214.799 251.373 214.952 249.677 215.073 248.505C215.133 247.965 215.184 247.52 215.225 247.157C215.264 246.849 215.295 246.689 215.311 246.69C215.328 246.691 215.33 246.855 215.321 247.165C215.305 247.53 215.285 247.977 215.26 248.52C215.186 249.767 215.087 251.45 214.967 253.496C214.722 257.765 214.39 263.537 214.023 269.917C213.686 276.331 213.439 282.139 213.282 286.345C213.205 288.394 213.141 290.079 213.095 291.327C213.068 291.869 213.045 292.317 213.026 292.681C213.006 292.991 212.987 293.153 212.97 293.153Z" fill="#2C3F4D"/>
<path d="M196.751 246.69C196.814 246.702 196.715 247.601 196.474 249.044C196.234 250.486 195.846 252.468 195.337 254.641C194.828 256.814 194.294 258.763 193.869 260.161C193.443 261.56 193.133 262.411 193.071 262.393C193.005 262.374 193.201 261.491 193.541 260.072C193.921 258.488 194.371 256.609 194.87 254.531C195.347 252.449 195.777 250.565 196.141 248.977C196.467 247.555 196.684 246.678 196.751 246.69Z" fill="#2C3F4D"/>
<path d="M167.424 232.6C167.53 232.68 165.723 235.241 163.388 238.32C161.052 241.398 159.074 243.829 158.968 243.749C158.863 243.669 160.669 241.109 163.005 238.029C165.34 234.95 167.318 232.52 167.424 232.6Z" fill="#2C3F4D"/>
<path d="M152.04 222.263C152.14 222.351 146.416 229.074 139.255 237.276C132.091 245.483 126.205 252.062 126.106 251.975C126.005 251.888 131.729 245.167 138.892 236.961C146.053 228.757 151.941 222.176 152.04 222.263Z" fill="#2C3F4D"/>
<path d="M144.341 210.822C144.425 210.924 141.24 213.688 137.227 216.995C133.214 220.304 129.892 222.901 129.809 222.798C129.724 222.697 132.908 219.933 136.922 216.625C140.935 213.318 144.257 210.719 144.341 210.822Z" fill="#2C3F4D"/>
<path d="M135.335 193.558C135.392 193.677 127.419 197.639 117.528 202.406C107.632 207.174 99.5664 210.942 99.5088 210.823C99.4507 210.702 107.424 206.742 117.319 201.973C127.211 197.206 135.278 193.438 135.335 193.558Z" fill="#2C3F4D"/>
<path d="M131.716 184.946C131.723 184.979 131.427 185.065 130.888 185.192C130.349 185.321 129.564 185.483 128.59 185.663C126.642 186.025 123.934 186.435 120.924 186.738C117.915 187.039 115.178 187.172 113.198 187.204C112.207 187.221 111.405 187.218 110.852 187.198C110.297 187.18 109.991 187.154 109.991 187.121C109.99 187.051 111.212 186.983 113.184 186.864C115.157 186.745 117.878 186.559 120.877 186.26C123.874 185.959 126.579 185.602 128.535 185.327C130.492 185.053 131.703 184.877 131.716 184.946Z" fill="#2C3F4D"/>
<path d="M128.795 165.07C128.792 165.103 128.218 165.089 127.181 165.035C126.065 164.977 124.586 164.901 122.794 164.809C119.089 164.63 113.969 164.46 108.312 164.489C102.653 164.521 97.5348 164.745 93.8326 164.965C92.041 165.076 90.5622 165.168 89.4478 165.237C88.4118 165.303 87.8379 165.323 87.8342 165.29C87.8315 165.258 88.3998 165.174 89.4312 165.051C90.4616 164.925 91.958 164.778 93.8086 164.626C97.5099 164.319 102.638 164.041 108.309 164.008C113.978 163.98 119.109 164.204 122.813 164.471C124.666 164.603 126.163 164.734 127.195 164.849C128.229 164.96 128.798 165.037 128.795 165.07Z" fill="#2C3F4D"/>
<path d="M130.607 147.614C130.571 147.741 124.598 146.186 117.267 144.14C109.932 142.094 104.018 140.332 104.052 140.205C104.089 140.076 110.061 141.631 117.396 143.677C124.727 145.723 130.643 147.486 130.607 147.614Z" fill="#2C3F4D"/>
<path d="M134.468 132.977C134.462 132.992 134.313 132.958 134.033 132.879C133.7 132.778 133.297 132.656 132.812 132.509C131.754 132.182 130.237 131.666 128.376 130.989C124.656 129.637 119.582 127.568 114.157 124.9C108.733 122.225 103.999 119.464 100.66 117.339C98.9879 116.277 97.6539 115.389 96.7507 114.749C96.3384 114.455 95.9961 114.21 95.7138 114.007C95.4795 113.834 95.3614 113.736 95.3706 113.722C95.3798 113.709 95.5164 113.78 95.7673 113.927C96.0634 114.109 96.4214 114.328 96.8531 114.593C97.7877 115.185 99.1475 116.027 100.838 117.05C104.217 119.097 108.962 121.802 114.369 124.469C119.777 127.129 124.814 129.241 128.497 130.671C130.338 131.387 131.835 131.952 132.873 132.332C133.346 132.513 133.739 132.663 134.063 132.787C134.333 132.896 134.474 132.961 134.468 132.977Z" fill="#2C3F4D"/>
<path d="M143.152 118.264C143.076 118.373 138.406 115.215 132.722 111.213C127.037 107.209 122.492 103.877 122.568 103.768C122.644 103.66 127.314 106.816 132.999 110.82C138.682 114.822 143.229 118.155 143.152 118.264Z" fill="#2C3F4D"/>
<path d="M124.798 73.4201C124.809 73.4081 124.929 73.4967 125.148 73.6757C125.405 73.8962 125.714 74.1609 126.086 74.4792C126.947 75.2422 128.093 76.2588 129.484 77.4913C132.398 80.0911 136.321 83.5921 140.658 87.4613C145.014 91.312 148.953 94.7955 151.879 97.3832C153.267 98.6185 154.412 99.637 155.271 100.401C155.63 100.733 155.929 101.009 156.178 101.239C156.383 101.433 156.485 101.542 156.474 101.555C156.463 101.568 156.341 101.483 156.116 101.311C155.851 101.101 155.532 100.847 155.149 100.543C154.316 99.8685 153.122 98.8768 151.657 97.6397C148.727 95.1673 144.715 91.7068 140.339 87.8201C135.965 83.9344 132.056 80.3604 129.254 77.7423C127.853 76.4332 126.728 75.3649 125.959 74.6167C125.612 74.2726 125.322 73.9857 125.082 73.7476C124.885 73.5447 124.787 73.4321 124.798 73.4201Z" fill="#2C3F4D"/>
<path d="M153.576 74.2587C153.602 74.2384 153.825 74.4663 154.204 74.8971C154.584 75.328 155.115 75.9664 155.757 76.7662C157.042 78.3677 158.75 80.6335 160.519 83.2185C162.287 85.8053 163.779 88.2196 164.805 89.9964C165.319 90.8848 165.72 91.6118 165.983 92.1229C166.247 92.6321 166.38 92.9218 166.351 92.9384C166.29 92.9734 165.613 91.9015 164.514 90.1735C163.416 88.4447 161.885 86.0682 160.122 83.4897C158.359 80.913 156.7 78.6233 155.488 76.9728C154.276 75.3224 153.522 74.303 153.576 74.2587Z" fill="#2C3F4D"/>
<g opacity="0.2">
<path d="M116.705 66.4143L156.838 101.555L166.815 93.5722L143.525 57.8864C143.525 57.8864 141.742 59.1991 137.104 60.5239C132.612 61.8072 119.384 62.1503 116.705 66.4143Z" fill="black"/>
</g>
<g opacity="0.2">
<path d="M161.378 36.6882L180.978 85.7417L193.499 81.8181L189.327 39.2722C189.327 39.2722 187.17 39.7769 182.385 39.1698C177.75 38.5812 166.5 34.1825 161.378 36.6882Z" fill="black"/>
</g>
<g opacity="0.3">
<path d="M213.634 26.4165L214.949 79.6861L226.688 80.2497L238.573 39.3653C238.347 39.346 235.28 38.8155 231.663 36.5036C227.597 33.9057 219.321 25.9931 213.634 26.4165Z" fill="black"/>
</g>
<g opacity="0.2">
<path d="M264.816 36.4797L245.34 85.5885L255.944 90.6579L282.745 57.5746C282.544 57.4685 280.004 55.3531 277.655 51.59C275.101 47.4976 270.749 38.12 264.816 36.4797Z" fill="black"/>
</g>
<g opacity="0.2">
<path d="M310.555 67.1256L274.279 104.929L282.364 115.824L317.808 92.1671C317.808 92.1671 316.319 89.8073 315.477 85.2656C314.623 80.6722 314.5 72.3011 310.555 67.1256Z" fill="black"/>
</g>
<g opacity="0.2">
<path d="M339.19 109.801L290.341 129.906L294.394 142.386L336.894 137.774C336.894 137.774 336.629 136.46 337.186 131.67C337.726 127.029 342.601 116.663 339.19 109.801Z" fill="black"/>
</g>
<g opacity="0.2">
<path d="M350 163.018L296.747 164.882L296.304 176.627L336.928 188.512C336.947 188.285 337.309 185.991 338.54 183.662C341.53 178.006 350 170.032 350 163.018Z" fill="black"/>
</g>
<g opacity="0.2">
<path d="M340.191 213.374L291.157 194.262L286.199 204.917L319.557 231.374C319.661 231.172 321.609 229.367 325.348 226.979C329.414 224.383 339.062 220.19 340.191 213.374Z" fill="black"/>
</g>
<path d="M187.684 289.795C187.812 289.828 184.407 303.634 180.079 320.628C175.749 337.628 172.136 351.377 172.008 351.345C171.879 351.311 175.284 337.508 179.613 320.509C183.941 303.515 187.556 289.762 187.684 289.795Z" fill="#2C3F4D"/>
<path d="M297.052 163.018C297.052 209.268 259.558 246.762 213.308 246.762C167.057 246.762 129.563 209.268 129.563 163.018C129.563 116.767 167.057 79.2727 213.308 79.2727C259.558 79.2727 297.052 116.767 297.052 163.018Z" fill="white"/>
<path d="M161.742 134C160.587 135.155 154.236 146.702 153.659 156.228C153.082 165.754 154.451 219.254 154.451 219.254L154.699 222.799C169.775 240.429 224.571 266.665 273.93 222.711L276.696 189.805L268.551 120.143L240.262 113.215L233.628 102.463L189.414 112.814L185.471 122.136L161.742 134Z" fill="#375A64"/>
<path d="M230.56 74.4528C232.507 67.2154 234.422 59.9264 235.095 52.4621C235.768 44.9987 235.145 37.2862 232.176 30.405C231.726 29.3616 227.988 22.401 226.865 22.5698C226.062 22.6916 228.481 29.2398 228.109 29.9622C224.559 36.8508 223.915 44.948 224.934 52.63C225.954 60.312 227.915 67.1684 230.56 74.4528Z" fill="#2C3F4D"/>
<path d="M229.827 45.8592C229.47 27.0669 218.236 11.6116 199.461 12.4889L197.731 12.6706C180.318 14.5065 167.227 29.401 167.657 46.9062C168.056 63.1919 168.707 81.1815 169.728 89.834C171.839 107.746 190.072 108.644 190.072 108.644C190.113 108.642 190.908 120.424 190.908 120.424L198.613 128.794L234.326 106.675L229.827 45.8592Z" fill="#FFC19D"/>
<path d="M190.073 108.782C190.073 108.782 201.447 108.254 212.697 99.4165C212.697 99.4165 208.929 115.663 190.862 115.935L190.073 108.782Z" fill="#FF9C6A"/>
<path d="M177.973 61.5156C178.067 62.8724 179.296 63.9122 180.715 63.8394C182.132 63.7666 183.206 62.6094 183.112 61.2517C183.017 59.895 181.79 58.8532 180.373 58.9259C178.953 58.9988 177.878 60.1588 177.973 61.5156Z" fill="#2C3F4D"/>
<path d="M172.275 53.9462C172.627 54.2469 174.416 52.6057 177.173 52.3225C179.924 52.0005 182.096 53.2054 182.359 52.8354C182.49 52.6712 182.103 52.102 181.155 51.5531C180.221 51.0069 178.676 50.541 176.959 50.7292C175.244 50.9202 173.867 51.7044 173.105 52.4387C172.326 53.1786 172.102 53.8124 172.275 53.9462Z" fill="#2C3F4D"/>
<path d="M202.322 59.4473C202.417 60.8049 203.645 61.8448 205.065 61.7719C206.481 61.6983 207.556 60.542 207.461 59.1834C207.366 57.8267 206.138 56.7849 204.72 56.8577C203.301 56.9306 202.228 58.0905 202.322 59.4473Z" fill="#2C3F4D"/>
<path d="M199.389 52.2155C199.743 52.5153 201.534 50.875 204.29 50.5927C207.039 50.2699 209.211 51.4747 209.474 51.1048C209.605 50.9405 209.222 50.3713 208.27 49.8243C207.336 49.2763 205.792 48.8113 204.076 48.9986C202.36 49.1896 200.982 49.9746 200.219 50.7081C199.444 51.4479 199.219 52.0826 199.389 52.2155Z" fill="#2C3F4D"/>
<path d="M191.735 74.4368C191.731 74.279 189.987 74.1628 187.173 74.101C186.462 74.1028 185.781 74.0327 185.612 73.565C185.393 73.0742 185.607 72.2845 185.861 71.4293C186.344 69.6562 186.848 67.7982 187.378 65.8507C189.465 57.9159 190.895 51.4212 190.575 51.34C190.254 51.2588 188.303 57.6244 186.217 65.5592C185.72 67.514 185.244 69.3776 184.792 71.1609C184.611 71.9884 184.248 72.9441 184.718 73.9617C184.964 74.4672 185.52 74.7948 185.984 74.8686C186.45 74.959 186.846 74.9248 187.197 74.9091C190.006 74.7643 191.741 74.5946 191.735 74.4368Z" fill="#2C3F4D"/>
<path d="M200.048 75.4876C199.597 75.5088 199.906 78.5015 197.569 80.8946C195.238 83.2941 192.014 83.2941 192.034 83.7157C192.013 83.9076 192.805 84.2213 194.156 84.117C195.48 84.022 197.364 83.3947 198.794 81.9306C200.219 80.4638 200.708 78.6556 200.68 77.4175C200.662 76.1546 200.25 75.4488 200.048 75.4876Z" fill="#2C3F4D"/>
<path d="M198.362 41.0149C198.713 41.7363 201.428 41.0905 204.702 41.1394C207.978 41.1228 210.686 41.7935 211.044 41.0767C211.201 40.7354 210.672 40.0785 209.542 39.4641C208.42 38.8497 206.68 38.3367 204.716 38.3257C202.753 38.3183 201.007 38.8128 199.88 39.4161C198.743 40.0195 198.208 40.6717 198.362 41.0149Z" fill="#2C3F4D"/>
<path d="M172.447 44.6643C172.998 45.239 174.828 44.3894 177.108 44.1181C179.378 43.7667 181.369 44.0942 181.745 43.3921C181.906 43.0545 181.536 42.4594 180.629 41.9557C179.734 41.4529 178.291 41.1171 176.727 41.3293C175.163 41.5452 173.864 42.2555 173.136 42.9806C172.398 43.7085 172.201 44.382 172.447 44.6643Z" fill="#2C3F4D"/>
<path d="M229.762 59.2942C230.054 59.1299 241.702 54.3502 242.602 66.6533C243.503 78.9563 230.966 77.3225 230.918 76.9719C230.871 76.6195 229.762 59.2942 229.762 59.2942Z" fill="#FFC19D"/>
<path d="M234.335 72.0363C234.386 71.993 234.561 72.1701 234.935 72.3103C235.3 72.4459 235.915 72.5133 236.539 72.2255C237.804 71.6535 238.748 69.5104 238.645 67.288C238.594 66.1662 238.282 65.1173 237.821 64.263C237.379 63.3912 236.75 62.8044 236.088 62.7362C235.426 62.6328 234.991 63.0591 234.866 63.4161C234.726 63.7722 234.822 64.013 234.759 64.0379C234.726 64.072 234.479 63.8515 234.541 63.3358C234.574 63.0877 234.697 62.7869 234.969 62.5295C235.247 62.2684 235.672 62.1135 236.131 62.1301C237.084 62.1254 238.003 62.9364 238.51 63.8727C239.07 64.811 239.447 65.9881 239.504 67.2483C239.607 69.7327 238.507 72.1461 236.766 72.7901C235.917 73.0797 235.176 72.8712 234.783 72.6083C234.379 72.3315 234.294 72.0612 234.335 72.0363Z" fill="#FF9C6A"/>
<path d="M174.308 25.9996C172.245 25.029 177.809 18.1921 182.562 15.6551C189.746 11.821 200.912 9.02753 207.86 10.523C216.224 12.3229 223.312 15.9706 227.917 23.1821C232.522 30.3927 234.633 39.0047 234.943 47.5548C235.037 50.1637 234.942 52.8963 233.693 55.1879C232.149 58.0201 228.96 59.9464 229.346 63.6919C229.487 65.061 229.185 66.4706 228.309 67.5325C226.211 70.0732 223.311 67.9993 221.898 65.8239C218.882 61.1761 218.21 55.4389 217.617 49.9303C217.194 46.0141 216.777 42.014 217.642 38.1716C218.112 36.0811 218.955 34.0801 219.309 31.9666C219.662 29.853 219.447 27.4941 218.04 25.8769C217.812 25.6139 217.442 25.2874 216.976 24.9303C213.293 22.0981 208.354 21.4985 204.082 23.3251C197.308 26.2237 185.705 30.6492 182.461 28.495C177.796 25.3962 176.59 23.2587 176.59 23.2587L174.308 25.9996Z" fill="#2C3F4D"/>
<path d="M161.742 134C161.029 134.986 150.945 138.334 147.12 144.707C143.295 151.08 139.51 179.697 139.51 179.697L137.075 198.536C141.872 206.125 148.306 216.172 155.134 223.258L161.742 134Z" fill="#375A64"/>
<g opacity="0.3">
<path d="M237.506 161.63C237.93 165.47 238.364 169.352 239.685 172.982C241.006 176.612 243.322 180.022 246.702 181.892C248.118 182.674 249.715 183.191 250.899 184.292C252.172 185.476 252.814 187.194 253.966 188.495C255.307 190.008 257.237 190.852 259.143 191.526C264.784 193.524 270.34 194.477 276.32 194.263C276.501 192.288 276.514 185.036 276.695 183.061L237.506 161.63Z" fill="black"/>
</g>
<path d="M268.551 120.143C268.551 120.143 281.267 123.904 284.99 129.32C288.715 134.737 295.317 155.729 296.671 159.622C298.026 163.516 296.84 172.544 294.301 179.033C291.762 185.522 287.356 191.109 279.74 191.955C272.125 192.802 260.097 188.4 257.393 185.522C254.688 182.645 253.556 176.185 253.556 176.185C256.938 175.592 260.276 174.754 263.537 173.681" fill="#375A64"/>
<path d="M263.537 173.681C263.539 173.687 263.486 173.71 263.379 173.75C263.252 173.797 263.096 173.853 262.899 173.924C262.473 174.07 261.837 174.281 260.999 174.533C259.321 175.036 256.83 175.716 253.578 176.31L253.681 176.164C253.966 177.601 254.376 179.181 254.979 180.829C255.282 181.652 255.63 182.498 256.08 183.324C256.53 184.144 257.056 184.978 257.783 185.643C258.512 186.305 259.413 186.844 260.355 187.339C261.293 187.848 262.305 188.286 263.347 188.713C265.44 189.556 267.702 190.282 270.102 190.851C272.502 191.406 275.051 191.818 277.689 191.827C278.351 191.855 279.008 191.768 279.675 191.735C280.333 191.626 281.007 191.566 281.658 191.38C282.978 191.081 284.273 190.589 285.479 189.898C287.913 188.547 289.975 186.449 291.539 183.982C293.125 181.52 294.285 178.726 295.14 175.806C295.803 173.563 296.291 171.296 296.609 169.04C296.931 166.787 297.088 164.536 296.94 162.35C296.855 161.248 296.651 160.215 296.279 159.192C295.936 158.159 295.597 157.135 295.26 156.122C294.585 154.1 293.922 152.121 293.277 150.189C291.968 146.332 290.677 142.685 289.382 139.305C288.064 135.941 286.834 132.778 285.293 130.138C284.541 128.811 283.512 127.769 282.422 126.926C281.353 126.059 280.243 125.368 279.188 124.758C277.067 123.553 275.139 122.697 273.553 122.034C271.964 121.374 270.707 120.915 269.853 120.612C269.443 120.468 269.122 120.355 268.88 120.271C268.661 120.192 268.55 120.152 268.551 120.143C268.554 120.135 268.67 120.161 268.895 120.224C269.14 120.297 269.467 120.395 269.884 120.521C270.75 120.794 272.018 121.225 273.624 121.86C275.225 122.499 277.172 123.333 279.321 124.524C280.389 125.128 281.517 125.814 282.613 126.687C283.721 127.525 284.805 128.609 285.583 129.962C287.17 132.639 288.414 135.792 289.754 139.161C291.067 142.543 292.374 146.19 293.696 150.046C294.347 151.978 295.015 153.956 295.695 155.978C296.034 156.989 296.375 158.01 296.719 159.041C297.096 160.065 297.326 161.201 297.409 162.313C297.564 164.554 297.405 166.829 297.082 169.107C296.763 171.387 296.272 173.675 295.601 175.942C294.736 178.894 293.56 181.729 291.939 184.24C290.342 186.756 288.219 188.913 285.705 190.304C284.46 191.013 283.121 191.519 281.763 191.823C281.092 192.011 280.4 192.073 279.724 192.181C279.041 192.215 278.362 192.302 277.69 192.271C274.999 192.255 272.426 191.828 270.006 191.258C267.586 190.674 265.31 189.931 263.202 189.069C262.152 188.632 261.133 188.184 260.183 187.661C259.228 187.151 258.317 186.603 257.547 185.895C256.781 185.183 256.247 184.318 255.794 183.476C255.341 182.627 254.996 181.767 254.696 180.932C254.101 179.256 253.705 177.669 253.433 176.207L253.41 176.083L253.535 176.061C256.782 175.506 259.276 174.866 260.962 174.405C261.783 174.171 262.42 173.989 262.879 173.858C263.08 173.801 263.239 173.755 263.369 173.718C263.478 173.688 263.536 173.676 263.537 173.681Z" fill="#2C3F4D"/>
<path d="M286.863 166.884C286.769 166.906 286.48 165.318 285.412 162.977C284.369 160.638 282.496 157.548 279.676 154.832C278.271 153.467 276.71 152.43 275.217 151.657C274.833 151.487 274.459 151.319 274.092 151.156C273.73 150.988 273.345 150.917 272.991 150.797C272.281 150.538 271.584 150.476 270.954 150.376C270.797 150.352 270.643 150.329 270.493 150.306C270.341 150.306 270.194 150.306 270.05 150.307H269.236C268.725 150.275 268.295 150.369 267.94 150.419C267.23 150.523 266.828 150.566 266.819 150.534C266.811 150.502 267.195 150.397 267.908 150.235C268.265 150.155 268.699 150.034 269.221 150.039C269.487 150.027 269.765 150.014 270.054 150.001C270.204 149.995 270.355 149.989 270.511 149.983C270.666 150.001 270.826 150.019 270.987 150.038C271.638 150.118 272.362 150.165 273.098 150.413C273.466 150.528 273.866 150.596 274.243 150.761C274.623 150.923 275.011 151.089 275.41 151.26C276.959 152.032 278.572 153.09 280.006 154.483C282.889 157.26 284.746 160.434 285.724 162.841C285.975 163.443 286.191 163.991 286.33 164.491C286.48 164.986 286.626 165.407 286.684 165.769C286.831 166.483 286.895 166.878 286.863 166.884Z" fill="#2C3F4D"/>
<path d="M293.8 155.477C293.696 155.517 293.35 153.843 291.883 151.605C290.447 149.405 287.7 146.642 283.781 145.472C279.878 144.284 276.088 144.651 273.443 144.904C272.183 145.055 271.125 145.182 270.281 145.283C269.534 145.374 269.118 145.412 269.113 145.379C269.108 145.346 269.513 145.247 270.252 145.098C270.991 144.951 272.064 144.754 273.402 144.567C276.05 144.228 279.893 143.79 283.924 145.013C285.922 145.62 287.677 146.644 289.05 147.813C290.44 148.972 291.45 150.27 292.17 151.422C292.887 152.581 293.298 153.611 293.525 154.333C293.758 155.055 293.824 155.471 293.8 155.477Z" fill="#2C3F4D"/>
<path d="M284.213 141.828C284.18 141.985 280.865 140.917 276.656 141.104C272.443 141.248 269.224 142.573 269.178 142.419C269.156 142.367 269.927 141.971 271.26 141.545C272.59 141.12 274.497 140.711 276.637 140.625C278.776 140.543 280.709 140.801 282.068 141.121C283.431 141.439 284.231 141.775 284.213 141.828Z" fill="#2C3F4D"/>
<path d="M263.642 123.317C263.717 123.329 263.534 124.614 263.385 126.697C263.237 128.779 263.167 131.67 263.453 134.839C263.715 137.888 264.265 140.621 264.753 142.609L264.42 142.715C264.043 141.65 263.746 140.783 263.551 140.181C263.357 139.579 263.264 139.239 263.297 139.227C263.329 139.215 263.483 139.531 263.733 140.113C263.983 140.695 264.33 141.542 264.748 142.592L264.415 142.699C263.846 140.718 263.239 137.963 262.975 134.882C262.686 131.678 262.81 128.756 263.047 126.667C263.163 125.621 263.299 124.78 263.413 124.203C263.529 123.627 263.609 123.311 263.642 123.317Z" fill="#2C3F4D"/>
<path d="M245.666 99.6471C245.666 99.6471 239.066 99.6471 238.239 107.578C237.603 113.666 238.239 119.577 238.239 122.243C238.239 124.909 237.064 134.39 237.064 134.39C237.064 134.39 232.561 138.385 232.638 143.183C232.714 148.004 236.144 149.477 236.144 149.477C236.144 149.477 234.048 154.049 238.048 158.239C238.048 158.239 236.131 162.661 237.706 165.639C238.927 167.945 241.667 168.713 241.667 168.713C241.667 168.713 239.716 173.071 244.399 174.904C247.166 175.987 251.257 175.746 251.257 175.746L256.181 175.652L260.522 178.046C260.522 178.046 267.949 174.809 268.139 170.427L268.33 166.047C268.33 166.047 266.235 158.81 266.045 156.525C265.854 154.24 267.759 148.716 266.616 146.24C265.473 143.764 261.474 142.309 261.855 138.847C262.236 135.385 261.474 133.48 259.76 131.575C258.046 129.67 250.47 125.861 250.47 125.861C250.47 125.861 248.523 120.338 248.523 116.529C248.523 112.72 252.332 101.103 245.666 99.6471Z" fill="#FFC19D"/>
<path d="M250.113 127.306C250.146 127.363 249.445 127.812 248.286 128.491C247.126 129.17 245.508 130.079 243.706 131.058C241.904 132.037 240.259 132.898 239.057 133.502C237.855 134.105 237.096 134.448 237.064 134.39C237.033 134.332 237.734 133.883 238.894 133.204C240.052 132.525 241.671 131.616 243.471 130.638C245.272 129.66 246.916 128.799 248.118 128.196C249.319 127.593 250.079 127.249 250.113 127.306Z" fill="#FF9C6A"/>
<path d="M254.445 142.218C254.464 142.245 254.259 142.426 253.869 142.734C253.482 143.044 252.896 143.459 252.152 143.941C250.664 144.907 248.499 146.09 245.966 147.063C243.43 148.031 241.028 148.596 239.277 148.869C238.4 149.008 237.686 149.091 237.192 149.118C236.696 149.15 236.422 149.152 236.419 149.119C236.41 149.043 237.493 148.894 239.215 148.535C240.935 148.179 243.291 147.57 245.794 146.614C248.295 145.653 250.455 144.535 251.974 143.651C253.495 142.769 254.4 142.156 254.445 142.218Z" fill="#FF9C6A"/>
<path d="M260.111 137.475C260.23 137.517 259.983 138.364 259.201 139.071C258.424 139.784 257.558 139.951 257.527 139.828C257.481 139.697 258.188 139.354 258.877 138.716C259.576 138.088 259.984 137.417 260.111 137.475Z" fill="#FF9C6A"/>
<path d="M257.393 155.281C257.413 155.337 256.37 155.761 254.632 156.291C252.895 156.823 250.453 157.434 247.714 157.877C244.972 158.316 242.462 158.501 240.645 158.541C238.829 158.583 237.706 158.508 237.707 158.448C237.707 158.375 238.827 158.33 240.629 158.202C242.431 158.076 244.917 157.838 247.637 157.403C250.356 156.964 252.79 156.409 254.541 155.964C256.293 155.52 257.37 155.212 257.393 155.281Z" fill="#FF9C6A"/>
<path d="M263.42 154.183C263.355 154.144 263.644 153.64 263.927 152.771C264.212 151.907 264.451 150.647 264.287 149.274C264.123 147.9 263.594 146.731 263.113 145.96C262.633 145.181 262.234 144.76 262.288 144.706C262.324 144.665 262.817 145.004 263.394 145.769C263.969 146.524 264.589 147.749 264.764 149.216C264.94 150.685 264.626 152.02 264.245 152.89C263.865 153.769 263.465 154.216 263.42 154.183Z" fill="#FF9C6A"/>
<path d="M257.735 168.635C257.747 168.693 256.859 168.944 255.39 169.188C253.921 169.434 251.866 169.646 249.59 169.641C247.314 169.633 245.26 169.41 243.793 169.156C242.325 168.903 241.439 168.648 241.451 168.59C241.466 168.518 242.372 168.654 243.84 168.819C245.308 168.986 247.341 169.152 249.591 169.161C251.841 169.165 253.876 169.009 255.343 168.852C256.812 168.695 257.721 168.563 257.735 168.635Z" fill="#FF9C6A"/>
<path d="M246.022 116.639C246.049 116.689 245.723 116.937 245.107 117.158C244.494 117.379 243.578 117.534 242.579 117.417C241.579 117.296 240.726 116.931 240.181 116.572C239.634 116.212 239.376 115.896 239.414 115.853C239.497 115.733 240.752 116.735 242.635 116.94C244.513 117.183 245.969 116.503 246.022 116.639Z" fill="#FF9C6A"/>
<path d="M264.791 154.742C264.82 154.74 264.874 154.991 264.897 155.455C264.911 155.919 264.851 156.594 264.669 157.4C264.49 158.207 264.186 159.139 263.895 160.169C263.619 161.194 263.348 162.354 263.55 163.529C263.709 164.696 264.583 165.643 264.72 166.829C264.876 167.996 264.416 168.983 263.995 169.683C263.557 170.394 263.115 170.898 262.804 171.236C262.489 171.571 262.299 171.738 262.274 171.718C262.2 171.662 262.908 170.908 263.7 169.514C264.07 168.82 264.444 167.898 264.283 166.892C264.171 165.89 263.287 164.946 263.077 163.612C262.856 162.304 263.168 161.083 263.47 160.046C263.79 159.005 264.123 158.096 264.339 157.317C264.8 155.762 264.709 154.747 264.791 154.742Z" fill="#FF9C6A"/>
<path d="M267.272 160.537C267.303 160.529 267.416 160.837 267.581 161.403C267.746 161.971 267.967 162.797 268.177 163.835C268.379 164.874 268.584 166.126 268.617 167.538C268.645 168.938 268.507 170.548 267.783 172.058C267.04 173.545 265.971 174.711 264.947 175.67C263.909 176.622 262.891 177.373 262.017 177.97C261.142 178.564 260.408 179.006 259.893 179.295C259.379 179.585 259.082 179.725 259.066 179.697C259.025 179.632 260.13 178.937 261.82 177.693C262.66 177.067 263.644 176.298 264.643 175.347C265.63 174.393 266.652 173.25 267.35 171.848C268.026 170.441 268.179 168.911 268.174 167.544C268.166 166.169 268 164.93 267.842 163.895C267.502 161.826 267.195 160.555 267.272 160.537Z" fill="#2C3F4D"/>
<path d="M197.66 129.83C197.639 129.855 197.26 129.57 196.592 129.031C195.862 128.427 194.923 127.65 193.797 126.718C193.204 126.218 192.564 125.679 191.882 125.103C191.54 124.812 191.191 124.517 190.794 124.322C190.4 124.127 189.954 124.075 189.559 124.279C188.762 124.695 188.231 125.717 187.551 126.565C186.893 127.451 186.214 128.366 185.519 129.304C184.402 130.796 183.33 132.23 182.342 133.552L181.745 134.35L181.935 133.374C182.582 130.037 183.486 127.252 184.23 125.326C184.602 124.362 184.929 123.609 185.167 123.1C185.407 122.592 185.552 122.324 185.576 122.334C185.601 122.345 185.502 122.633 185.307 123.159C185.114 123.685 184.83 124.451 184.498 125.423C183.831 127.365 182.994 130.145 182.382 133.459L181.975 133.28C182.959 131.954 184.024 130.515 185.133 129.017C185.831 128.081 186.513 127.168 187.174 126.284C187.505 125.843 187.83 125.409 188.15 124.984C188.479 124.561 188.847 124.13 189.369 123.879C189.892 123.611 190.532 123.701 190.981 123.943C191.444 124.18 191.805 124.505 192.143 124.801C192.811 125.393 193.439 125.948 194.019 126.461C195.105 127.44 196.011 128.256 196.715 128.89C197.344 129.471 197.682 129.805 197.66 129.83Z" fill="#2C3F4D"/>
<path d="M236.615 122.028C236.624 122.041 236.501 122.152 236.254 122.35C235.964 122.577 235.604 122.857 235.166 123.2C234.151 123.963 232.777 124.997 231.101 126.258C227.587 128.845 222.819 132.353 217.528 136.248L217.322 136.4L217.183 136.184C217.077 136.017 216.963 135.837 216.848 135.657C214.347 131.709 212.012 128.023 210.036 124.904L210.285 124.983C207.027 126.279 204.467 127.698 202.723 128.754C201.851 129.283 201.179 129.72 200.72 130.016C200.262 130.315 200.014 130.469 200.001 130.452C199.988 130.434 200.212 130.246 200.648 129.914C201.086 129.584 201.739 129.113 202.597 128.552C204.312 127.432 206.861 125.95 210.131 124.604L210.288 124.539L210.381 124.683C212.374 127.791 214.73 131.466 217.253 135.398C217.368 135.578 217.482 135.759 217.588 135.925L217.244 135.861C222.57 132.011 227.367 128.543 230.903 125.987C232.616 124.776 234.021 123.784 235.057 123.05C235.516 122.737 235.893 122.481 236.198 122.273C236.463 122.099 236.606 122.015 236.615 122.028Z" fill="#2C3F4D"/>
<path d="M153.819 158.717C153.836 158.717 153.852 158.941 153.87 159.368C153.883 159.843 153.899 160.463 153.921 161.235C153.952 162.912 153.995 165.244 154.049 168.102C154.159 173.899 154.39 181.905 154.691 190.748C154.991 199.595 155.169 207.609 155.192 213.411C155.202 216.311 155.196 218.658 155.168 220.28C155.151 221.052 155.138 221.672 155.128 222.147C155.114 222.574 155.099 222.798 155.082 222.798C155.065 222.798 155.049 222.574 155.031 222.147C155.018 221.673 155.002 221.053 154.981 220.281C154.949 218.604 154.906 216.272 154.852 213.414C154.743 207.617 154.51 199.61 154.21 190.764C153.91 181.921 153.732 173.907 153.709 168.105C153.699 165.205 153.705 162.858 153.733 161.235C153.75 160.463 153.763 159.843 153.773 159.368C153.787 158.941 153.802 158.717 153.819 158.717Z" fill="#2C3F4D"/>
<path d="M197.964 242.049C197.956 242.05 197.94 241.96 197.917 241.783C197.894 241.58 197.865 241.322 197.828 241C197.757 240.276 197.659 239.267 197.533 237.983C197.277 235.363 196.981 231.564 196.687 226.866C196.385 222.167 196.14 216.566 195.98 210.343C195.846 204.12 195.812 197.273 195.958 190.091C196.123 182.907 196.456 176.068 196.861 169.855C197.29 163.644 197.778 158.058 198.285 153.377C198.783 148.696 199.243 144.914 199.612 142.307C199.793 141.031 199.936 140.027 200.039 139.306C200.089 138.986 200.13 138.73 200.161 138.528C200.192 138.352 200.211 138.264 200.22 138.265C200.228 138.266 200.225 138.357 200.21 138.534C200.191 138.738 200.166 138.996 200.135 139.319C200.053 140.042 199.941 141.05 199.798 142.33C199.485 144.943 199.077 148.729 198.623 153.411C198.16 158.093 197.707 163.676 197.302 169.883C196.921 176.092 196.603 182.924 196.438 190.102C196.291 197.277 196.313 204.115 196.422 210.333C196.558 216.551 196.768 222.149 197.027 226.846C197.277 231.544 197.52 235.344 197.719 237.968C197.806 239.254 197.875 240.266 197.925 240.992C197.942 241.316 197.956 241.575 197.966 241.78C197.973 241.957 197.972 242.048 197.964 242.049Z" fill="#2C3F4D"/>
</svg>
