<svg width="337" height="387" viewBox="0 0 337 387" fill="none" xmlns="http://www.w3.org/2000/svg">
<g filter="url(#filter0_dd_6466_1878)">
<path fill-rule="evenodd" clip-rule="evenodd" d="M156.873 21.4973V239.694C156.873 250.089 148.436 258.529 138.041 258.529H22.8254C12.4305 258.529 3.99121 250.089 3.99121 239.694L3.99121 21.4973C3.99121 11.1028 12.4305 2.664 22.8254 2.664L138.041 2.664C148.436 2.664 156.873 11.1028 156.873 21.4973Z" fill="white"/>
<mask id="mask0_6466_1878" style="mask-type:luminance" maskUnits="userSpaceOnUse" x="3" y="2" width="154" height="257">
<path d="M156.873 21.4973V239.694C156.873 250.089 148.436 258.529 138.041 258.529H22.8254C12.4305 258.529 3.99121 250.089 3.99121 239.694L3.99121 21.4973C3.99121 11.1028 12.4305 2.664 22.8254 2.664L138.041 2.664C148.436 2.664 156.873 11.1028 156.873 21.4973Z" fill="white"/>
</mask>
<g mask="url(#mask0_6466_1878)">
<path d="M-3.77642 258.11C-2.27363 246.23 8.82678 238.61 19.2701 238.068C29.7144 237.524 39.7487 242.171 49.6801 245.92C59.6114 249.669 70.513 252.56 80.3764 248.582C92.856 243.547 100.216 229.122 110.245 219.216C125.306 204.34 147.742 200.094 166.165 208.636V268.869H-5.2998L-3.77642 258.11Z" fill="#FF4A2C" fill-opacity="0.37"/>
<path d="M164.642 13.4226C163.139 25.302 152.038 32.9225 141.595 33.4642C131.151 34.0082 121.117 29.3612 111.185 25.6119C101.254 21.8638 90.3522 18.972 80.4888 22.9508C68.0092 27.9857 60.6488 42.4104 50.6206 52.3159C35.5588 67.1924 13.1231 71.4385 -5.29968 62.8967V2.66318H166.165L164.642 13.4226Z" fill="#FF4A2C" fill-opacity="0.42"/>
</g>
<path d="M80.4318 200.996C108.026 200.996 130.395 178.45 130.395 150.638C130.395 122.826 108.026 100.28 80.4318 100.28C52.838 100.28 30.4688 122.826 30.4688 150.638C30.4688 178.45 52.838 200.996 80.4318 200.996Z" fill="#FF4A2C" fill-opacity="0.25"/>
<path d="M53.7498 119.531C53.7498 119.531 50.3927 120.615 48.4483 123.143C46.504 125.67 19.1775 158.116 19.7612 165.116C20.3444 172.116 45.8657 193.704 49.4203 197.222L53.6846 187.413L37.3331 165.529L56.2255 148.03L59.7255 131.114L53.7498 119.531Z" fill="#C27460"/>
<path d="M30.916 164.459C30.9175 164.433 31.2604 164.426 31.8129 164.457C32.3655 164.488 33.1274 164.562 33.9617 164.694C34.7965 164.828 35.5436 164.994 36.0787 165.136C36.6134 165.278 36.9369 165.391 36.9305 165.416C36.9233 165.444 36.5876 165.378 36.0472 165.272C35.5068 165.165 34.76 165.022 33.9306 164.89C33.1016 164.758 32.3473 164.662 31.8004 164.596C31.2536 164.53 30.9141 164.487 30.916 164.459Z" fill="#7C4235"/>
<path d="M62.8529 79.9544C63.1756 77.8291 61.736 75.5002 62.4604 73.4766C63.17 71.495 64.0593 71.3281 64.0593 71.3281C61.9818 67.8277 65.2126 66.3896 65.2126 66.3896C65.2126 66.3896 64.0005 65.5716 64.456 63.7971C64.8193 62.3825 65.9707 61.9123 66.4356 61.2543C66.7898 60.7526 66.9578 60.1473 67.1698 59.5708C68.4945 55.9654 72.1501 53.1195 75.9763 53.4616C76.6718 53.5238 77.362 53.6838 78.0598 53.6558C79.0114 53.6171 79.9079 53.2325 80.8094 52.9257C84.4987 51.6697 89.1876 51.9666 91.5211 55.0882C95.6799 53.8852 100.557 56.6457 101.665 60.8307C103.375 61.5304 105.147 62.2729 106.38 63.65C107.612 65.027 108.124 67.2365 107.039 68.7322C109.228 70.6975 106.975 71.646 106.975 71.646C106.975 71.646 109.261 72.2315 107.745 76.8283C107.641 77.1442 107.712 77.7355 108.406 79.8293C109.153 82.0839 107.472 84.2315 105.431 85.4474C105.125 85.6294 104.777 85.7732 104.57 86.0629C104.328 86.4027 104.341 86.8536 104.321 87.2708C104.196 89.778 102.294 92.0944 99.8584 92.705L67.3724 93.8636C66.2555 93.2283 63.3251 88.4999 63.5264 87.231C63.6084 86.7122 63.8192 86.2028 63.765 85.6802C63.6933 84.9919 63.184 84.4431 62.8559 83.8333C62.4308 83.0437 62.3057 82.0972 62.5105 81.2238C62.611 80.7967 62.7869 80.3879 62.8529 79.9544Z" fill="#1A2E35"/>
<path d="M98.656 77.2155C98.4955 71.4642 94.5965 65.0209 88.7622 62.4655C85.0847 60.8545 82.2764 60.9687 80.3749 60.8321C76.1141 60.5272 72.7877 62.7803 72.7877 62.7803C71.0167 63.2805 64.7254 69.579 64.6757 76.1111C64.6207 83.3679 64.8391 92.2301 65.9947 97.5786C68.3187 108.334 77.636 109.216 77.636 109.216C77.636 109.199 77.0087 117.405 77.0087 117.405L88.9375 124.862L98.1057 115.631L98.9867 89.2728L98.656 77.2155Z" fill="#C27460"/>
<path d="M77.6352 109.216C77.6352 109.216 85.0669 109.267 92.0579 104.52C92.0579 104.52 88.3386 112.397 77.4229 111.983L77.6352 109.216Z" fill="#7C4235"/>
<path d="M76.8111 91.4763C76.8137 91.391 75.8736 91.2818 74.3547 91.1726C73.9705 91.154 73.6042 91.0978 73.5253 90.8407C73.4198 90.5692 73.5568 90.1482 73.7176 89.6935C74.0263 88.7481 74.3486 87.7575 74.6873 86.7191C76.0279 82.4871 76.9764 79.0151 76.8054 78.9632C76.6343 78.9105 75.4086 82.2983 74.068 86.5306C73.7468 87.5735 73.4392 88.5679 73.1472 89.5194C73.0262 89.962 72.8047 90.4683 73.0319 91.0311C73.1506 91.3114 73.4426 91.5025 73.6914 91.5552C73.9409 91.6167 74.156 91.6087 74.346 91.6098C75.8679 91.6072 76.8099 91.562 76.8111 91.4763Z" fill="#1A2E35"/>
<path d="M69.6748 84.2904C69.6814 85.0273 70.3113 85.6284 71.0804 85.635C71.8479 85.6415 72.4661 85.052 72.4591 84.3154C72.4521 83.5788 71.8226 82.977 71.055 82.9701C70.2856 82.9631 69.6674 83.5542 69.6748 84.2904Z" fill="#1A2E35"/>
<path d="M67.4166 80.1088C67.5975 80.2829 68.6169 79.455 70.1157 79.3912C71.6114 79.3067 72.7458 80.028 72.8997 79.8372C72.9763 79.7523 72.7852 79.4326 72.291 79.1057C71.8045 78.7799 70.9853 78.4784 70.052 78.5239C69.1194 78.5709 68.3496 78.9502 67.9142 79.3218C67.4693 79.6958 67.3283 80.0314 67.4166 80.1088Z" fill="#1A2E35"/>
<path d="M67.6552 75.7746C67.8521 76.1899 69.1127 76.2028 70.5098 76.6086C71.9187 76.9723 73.0147 77.6064 73.3894 77.3474C73.5585 77.2184 73.4717 76.8354 73.05 76.3708C72.6355 75.9093 71.8622 75.4011 70.8981 75.1356C69.9337 74.872 69.0152 74.916 68.43 75.1034C67.8365 75.2892 67.5733 75.5759 67.6552 75.7746Z" fill="#1A2E35"/>
<path d="M86.3409 84.1931C86.38 84.9287 85.7895 85.5685 85.0223 85.6232C84.2567 85.6782 83.6028 85.1282 83.5633 84.3926C83.5245 83.6574 84.115 83.0169 84.8803 82.9619C85.6478 82.9068 86.3014 83.4583 86.3409 84.1931Z" fill="#1A2E35"/>
<path d="M87.916 79.9979C87.7465 80.1826 86.677 79.4207 85.1775 79.451C83.6794 79.4605 82.5925 80.2516 82.4268 80.0707C82.3453 79.9911 82.5159 79.6596 82.9881 79.3023C83.4538 78.9466 84.2525 78.5943 85.1862 78.5814C86.1206 78.57 86.9121 78.9 87.3702 79.2436C87.8375 79.5891 87.9998 79.9148 87.916 79.9979Z" fill="#1A2E35"/>
<path d="M88.4831 77.3048C88.2074 77.7049 86.8061 77.6173 85.1996 77.912C83.5855 78.1638 82.2813 78.7111 81.9009 78.4221C81.7306 78.2787 81.8797 77.9025 82.4118 77.4706C82.9355 77.042 83.8631 76.5941 84.9701 76.4057C86.0772 76.2187 87.0909 76.3363 87.7151 76.5706C88.3485 76.8042 88.6014 77.1126 88.4831 77.3048Z" fill="#1A2E35"/>
<path d="M66.1613 66.5845C66.9858 64.9071 67.0867 64.0428 68.4451 62.759C69.5806 61.6854 70.9542 60.9015 72.3343 60.1699C75.9636 58.246 80.0326 56.569 84.0761 57.2926C86.2469 57.681 88.2326 58.7368 90.1656 59.7971C91.6473 60.6102 93.1358 61.4446 94.3968 62.5698C95.5031 63.5573 96.4098 64.7485 97.2188 65.9913C99.1465 68.954 100.563 72.2985 100.963 75.8103C101.362 79.3225 104.167 82.3181 102.229 85.2743C102.079 85.503 98.5055 90.1742 98.2317 90.1742C97.1406 90.1742 96.1159 87.7978 96.089 87.1542C96.0306 85.7427 96.8213 83.881 96.8213 83.881C96.8213 83.881 96.1482 82.8897 96.1652 81.9723C96.1819 81.0549 96.6875 80.2258 97.1979 79.4639C97.2647 79.3642 97.3341 79.2592 97.3432 79.1401C97.3678 78.8261 97.0056 78.6497 96.7276 78.5018C95.3745 77.7801 95.131 75.6165 96.29 74.6123C94.5064 74.2823 93.2678 72.2105 93.8207 70.4827C93.908 70.21 94.0301 69.9025 93.8898 69.6522C93.7551 69.4117 93.4464 69.3484 93.1791 69.282C91.1998 68.7901 89.7886 66.6413 90.1235 64.6298C89.0988 64.7296 88.0566 64.8286 87.0463 64.6306C86.036 64.4322 85.0431 63.8903 84.5452 62.9896C83.9426 64.199 82.6918 65.0607 81.347 65.193C80.0022 65.3254 78.6077 64.7243 77.7806 63.6556C76.0641 63.8971 74.2885 63.703 72.665 63.0962C72.3457 64.7197 71.14 66.14 69.5897 66.7187C69.2886 66.831 68.9419 66.9425 68.8073 67.2345C68.7216 67.4203 68.7463 67.6353 68.7664 67.8394C68.8669 68.8698 68.1823 69.3416 67.6514 70.2305C67.1201 71.1198 66.1837 72.4514 65.1764 72.2102C65.3653 73.9653 64.4813 75.2885 63.0375 76.3045L63.0371 75.0852C65.5432 73.5902 64.9697 69.0086 66.1613 66.5845Z" fill="#1A2E35"/>
<path d="M87.9619 53.6467C87.9512 53.6638 87.7605 53.5451 87.3915 53.3873C87.0236 53.233 86.4665 53.0452 85.7539 53.002C85.047 52.9546 84.1778 53.0593 83.3404 53.484C82.5087 53.9054 81.7161 54.6381 81.2325 55.6051C81.0937 55.8823 80.9777 56.1766 80.909 56.4615C80.8438 56.7447 80.8476 57.0425 81.0039 57.2381L81.1977 57.4801L80.8946 57.4111C80.0618 57.2226 79.2256 57.4236 78.6207 57.804C78.0056 58.1844 77.6328 58.7441 77.4382 59.239C77.241 59.7393 77.2103 60.1788 77.2133 60.4735C77.2186 60.7704 77.2509 60.9316 77.2342 60.935C77.2277 60.9365 77.2141 60.8975 77.194 60.8209C77.1731 60.7443 77.1519 60.6286 77.1382 60.4773C77.1113 60.1765 77.12 59.7199 77.3077 59.1905C77.4917 58.6679 77.8713 58.0622 78.5198 57.6451C79.1558 57.2298 80.0429 57.0023 80.9428 57.1995L80.8336 57.3732C80.6129 57.094 80.6231 56.7212 80.6925 56.4133C80.768 56.0966 80.8863 55.7997 81.0331 55.505C81.5401 54.4909 82.3741 53.7301 83.2486 53.2997C84.1311 52.8658 85.0383 52.7752 85.766 52.8442C86.5002 52.9098 87.0646 53.1268 87.4279 53.3084C87.6099 53.4006 87.7464 53.4817 87.8337 53.5439C87.922 53.6054 87.966 53.6403 87.9619 53.6467Z" fill="#375A64"/>
<path fill-rule="evenodd" clip-rule="evenodd" d="M118.406 117.928L98.5143 113.187C98.5143 113.187 95.8795 119.046 87.007 118.471C79.1328 117.96 76.936 112.675 76.936 112.675L59.2109 115.79C59.1584 115.8 59.0958 115.81 59.0183 115.824L58.7831 115.866V115.869C57.2568 116.169 53.1758 117.157 50.2533 119.595C46.5277 122.702 31.4424 141.106 31.4424 141.106L48.0565 156.574L55.3151 148.978C56.1783 153.086 59.6763 171.525 60.6171 178.183C61.0375 181.16 60.9974 184.463 59.6588 187.156C58.698 189.095 57.4394 191.956 56.7588 194.989C63.8048 198.82 71.8692 200.997 80.4314 200.997C94.0605 200.997 106.421 195.485 115.439 186.554C114.893 184.495 114.508 182.453 114.558 180.52C114.741 173.796 117.763 159.659 118.551 151.387L130.174 145.879C129.183 135.262 124.917 125.599 118.406 117.928Z" fill="#FF6E60"/>
<path d="M100.413 61.5095C100.422 61.519 100.34 61.621 100.169 61.7875C99.9961 61.952 99.7337 62.1838 99.3624 62.4128C98.9919 62.6385 98.5034 62.8675 97.9095 62.9332C97.3258 62.9995 96.6227 62.9024 96.0432 62.4746L96.2059 62.4409C96.1403 62.5437 96.0728 62.6491 96.0049 62.756C95.931 62.8592 95.8475 62.9578 95.7679 63.0606C95.2525 63.6522 94.6108 64.072 93.9794 64.3079C93.3487 64.551 92.7362 64.6352 92.228 64.6219C91.7183 64.6094 91.316 64.5055 91.0486 64.4175C90.7839 64.3159 90.6462 64.2438 90.6515 64.2313C90.6648 64.1843 91.2393 64.4733 92.2284 64.4642C92.7188 64.457 93.3039 64.3599 93.9035 64.1168C94.5043 63.8805 95.1103 63.4751 95.598 62.9153C95.6731 62.8182 95.7523 62.7249 95.8225 62.6279C95.8874 62.527 95.9515 62.4276 96.0136 62.3313L96.0812 62.2262L96.1763 62.2975C96.6936 62.6851 97.3402 62.7883 97.8898 62.7378C98.4461 62.6889 98.9198 62.4875 99.288 62.2854C100.023 61.8644 100.387 61.4788 100.413 61.5095Z" fill="#375A64"/>
<path d="M104.685 68.1656C104.692 68.1672 104.689 68.2134 104.674 68.3029C104.653 68.3898 104.617 68.5206 104.528 68.6693C104.361 68.9689 103.976 69.3428 103.378 69.5245C102.777 69.7152 102.017 69.6322 101.252 69.4061C100.868 69.2912 100.47 69.1771 100.06 69.0068C99.6606 68.8361 99.2222 68.5839 98.9889 68.1296C98.9711 68.0894 98.9533 68.0496 98.9366 68.0128L99.1141 68.0568C98.4311 68.6511 97.7219 69.174 96.9888 69.4896C96.261 69.8157 95.517 69.9003 94.9219 69.8135C94.3231 69.7327 93.8733 69.504 93.6113 69.2984C93.4778 69.1983 93.3852 69.1062 93.3295 69.0387C93.2726 68.9719 93.246 68.9347 93.2517 68.9294C93.2665 68.915 93.3898 69.0516 93.6609 69.2283C93.9287 69.405 94.3667 69.6007 94.9405 69.658C95.5128 69.7205 96.2106 69.6261 96.9061 69.3026C97.6055 68.9894 98.2915 68.477 98.9677 67.888L99.0807 67.7894L99.1448 67.932C99.1588 67.9627 99.1736 67.9957 99.1888 68.0291C99.3792 68.4053 99.7645 68.6412 100.146 68.8058C100.533 68.9696 100.936 69.091 101.31 69.2086C102.056 69.441 102.773 69.5305 103.334 69.3728C103.899 69.2215 104.275 68.8915 104.455 68.623C104.641 68.3522 104.662 68.1588 104.685 68.1656Z" fill="#375A64"/>
<path d="M98.2511 87.7961C98.2084 86.9879 98.2621 84.848 99.0538 84.6791C101.166 84.2289 105.016 84.1874 105.352 89.5971C105.81 96.9922 97.7674 96.1014 97.7408 95.89C97.7208 95.7249 98.399 90.5864 98.2511 87.7961Z" fill="#C27460"/>
<path d="M100.139 92.8695C100.17 92.8441 100.273 92.9518 100.497 93.0379C100.715 93.1221 101.085 93.1665 101.461 92.9981C102.225 92.6632 102.805 91.3821 102.759 90.0468C102.736 89.3725 102.555 88.7407 102.284 88.2242C102.025 87.6974 101.651 87.3413 101.254 87.2958C100.857 87.2298 100.593 87.4824 100.515 87.6955C100.429 87.909 100.485 88.0539 100.446 88.0687C100.427 88.0888 100.28 87.9549 100.321 87.6458C100.342 87.4968 100.418 87.317 100.583 87.1642C100.752 87.0087 101.008 86.9196 101.284 86.9317C101.857 86.9363 102.402 87.4285 102.701 87.9951C103.03 88.5621 103.249 89.2713 103.275 90.0286C103.32 91.5217 102.644 92.9632 101.593 93.3386C101.082 93.5063 100.638 93.3766 100.403 93.2158C100.163 93.0478 100.114 92.8843 100.139 92.8695Z" fill="#7C4235"/>
<path d="M77.4219 96.1049C77.4219 96.9347 78.0947 97.6075 78.9244 97.6075C79.7542 97.6075 80.427 96.9347 80.427 96.1049C80.427 95.2748 79.7542 94.6024 78.9244 94.6024C78.0947 94.6024 77.4219 95.2748 77.4219 96.1049Z" fill="#7C4235"/>
<path d="M78.0048 97.2367C78.0188 97.1923 78.4015 97.4362 79.0701 97.4597C79.3985 97.4605 79.799 97.3664 80.1323 97.0896C80.2992 96.9511 80.4445 96.7809 80.5082 96.5628C80.5753 96.3462 80.5757 96.099 80.5245 95.8566C80.4183 95.372 80.1267 94.9502 79.7793 94.7007C79.43 94.444 79.0212 94.381 78.7056 94.4644C78.3848 94.5376 78.1671 94.7144 78.0495 94.8539C77.9316 94.9973 77.8948 95.0993 77.8785 95.0928C77.8694 95.0909 77.8804 94.9779 77.9877 94.808C78.0947 94.6427 78.3196 94.4288 78.6704 94.3294C79.0136 94.2172 79.4918 94.2733 79.8843 94.5517C80.2772 94.824 80.5981 95.2753 80.7175 95.8157C80.7744 96.0846 80.7748 96.3656 80.6925 96.6212C80.6136 96.8817 80.4316 97.0869 80.2469 97.231C79.868 97.5321 79.4182 97.6194 79.0663 97.5993C78.7102 97.5754 78.4394 97.4737 78.2634 97.3926C78.0882 97.3076 77.9995 97.2473 78.0048 97.2367Z" fill="#1A2E35"/>
<path d="M133.938 140.736C134.331 141.414 139.634 150.956 140.703 155.132C142.079 160.51 140.111 167.872 133.167 167.872C126.717 167.872 118.406 152.883 118.406 152.883L115.535 147.781L122.708 120.088C122.708 120.088 125.7 121.613 128.462 128.759C129.848 132.343 133.938 140.736 133.938 140.736Z" fill="#C27460"/>
<path d="M131.063 148.327C131.074 148.302 131.487 148.46 132.143 148.743C132.798 149.027 133.697 149.436 134.675 149.918C135.653 150.399 136.525 150.865 137.134 151.245C137.438 151.435 137.676 151.604 137.828 151.738C137.981 151.874 138.038 151.978 138.029 151.98C138.014 151.991 137.94 151.91 137.781 151.799C137.618 151.687 137.373 151.538 137.063 151.365C136.442 151.02 135.563 150.575 134.587 150.095C133.638 149.63 132.78 149.211 132.084 148.87C131.444 148.555 131.052 148.352 131.063 148.327Z" fill="#7C4235"/>
<path fill-rule="evenodd" clip-rule="evenodd" d="M130.174 145.878C130.174 145.878 137.072 145.106 136.329 142.96C134.748 138.392 127.674 120.887 120.684 118.47L118.407 117.927C124.918 125.597 129.184 135.26 130.174 145.878Z" fill="#FF6E60"/>
<path d="M53.1803 132.175C53.1871 132.174 53.1977 132.235 53.2121 132.352C53.2261 132.492 53.2436 132.66 53.2644 132.862C53.3107 133.337 53.3729 133.97 53.448 134.738C53.6126 136.321 53.8792 138.504 54.2277 140.908C54.5831 143.297 54.9047 145.458 55.1436 147.062C55.2589 147.85 55.3473 148.489 55.4022 148.931C55.4254 149.133 55.4447 149.301 55.4606 149.441C55.4716 149.558 55.4743 149.62 55.4679 149.621C55.461 149.622 55.4451 149.562 55.4212 149.447C55.3954 149.309 55.3639 149.143 55.3264 148.943C55.2452 148.473 55.1372 147.845 55.0056 147.084C54.7412 145.514 54.3775 143.343 54.032 140.936C53.6835 138.529 53.4381 136.34 53.3088 134.751C53.2455 133.957 53.203 133.313 53.1878 132.868C53.1814 132.664 53.1765 132.495 53.1723 132.355C53.1708 132.237 53.1734 132.175 53.1803 132.175Z" fill="#1A2E35"/>
<path d="M73.6778 167.871C73.6809 167.865 73.7639 167.898 73.9198 167.967C74.0927 168.045 74.3176 168.148 74.5967 168.275C75.2024 168.56 76.0428 168.956 77.0717 169.44C79.1568 170.433 82.0348 171.813 85.1731 173.42C88.3121 175.027 91.1041 176.581 93.0716 177.795C93.5658 178.095 94.0083 178.373 94.3921 178.625C94.7778 178.874 95.1097 179.089 95.374 179.275C95.6254 179.451 95.828 179.592 95.9838 179.701C96.1219 179.8 96.1928 179.855 96.189 179.861C96.1852 179.867 96.1071 179.823 95.9615 179.734C95.8007 179.633 95.5917 179.502 95.3319 179.339C95.0615 179.163 94.724 178.958 94.3334 178.718C93.9446 178.476 93.4975 178.206 92.9996 177.914C91.0172 176.733 88.2192 175.201 85.0828 173.595C81.9476 171.99 79.0802 170.591 77.0106 169.566C75.9931 169.058 75.1622 168.643 74.5634 168.344C74.2907 168.203 74.0715 168.09 73.9023 168.003C73.7522 167.923 73.6748 167.877 73.6778 167.871Z" fill="#1A2E35"/>
<path d="M53.0455 186.639L55.409 186.878C55.409 186.878 63.0189 179.048 64.4968 177.831C65.9751 176.613 74.48 177.271 74.48 177.271C76.22 177.524 76.3929 179.184 75.6974 179.879C75.0018 180.575 68.0366 180.689 68.0366 180.689C68.0366 180.689 76.2029 181.447 76.7604 181.617C77.2083 181.754 78.0658 182.722 77.283 183.852C76.5006 184.982 68.0458 184.401 68.0458 184.401L75.7406 185.315C76.8017 185.441 77.2128 186.794 76.3766 187.459C76.2075 187.593 75.9902 187.719 75.7137 187.838C74.3844 188.413 65.7729 187.874 65.7729 187.874L64.9238 188.401L72.1807 188.713C72.6297 188.732 72.9733 189.12 72.9388 189.568L72.9149 189.879C72.9149 191.618 65.6982 191.966 65.6982 191.966C65.6982 191.966 63.7842 192.008 63.2635 192.574C62.7974 193.082 57.4068 197.591 55.503 198.621C53.2969 199.815 50.1128 198.218 49.1533 197.088L53.0455 186.639Z" fill="#C27460"/>
<path d="M62.4627 182.47C62.4536 182.46 62.5208 182.385 62.6505 182.257C62.7817 182.131 62.9671 181.942 63.2243 181.739C63.4738 181.529 63.7859 181.293 64.1591 181.069C64.5254 180.836 64.9737 180.638 65.4675 180.52C65.9647 180.403 66.4562 180.413 66.8862 180.459C67.3182 180.504 67.6978 180.574 68.0183 180.616C68.6581 180.707 69.0585 180.72 69.0585 180.752C69.0597 180.775 68.6543 180.81 68.0027 180.754C67.3546 180.718 66.4581 180.496 65.5115 180.713C64.5672 180.935 63.8276 181.476 63.31 181.849C62.7912 182.233 62.4855 182.496 62.4627 182.47Z" fill="#7C4235"/>
<path d="M62.0676 186.365C62.0581 186.358 62.1037 186.259 62.2148 186.097C62.3263 185.936 62.5 185.707 62.7601 185.467C63.266 184.974 64.1565 184.477 65.2222 184.291C66.286 184.098 67.2667 184.179 67.9558 184.276C68.6468 184.376 69.0666 184.497 69.0579 184.47C69.0692 184.552 68.6225 184.478 67.9395 184.415C67.2527 184.354 66.2901 184.298 65.2582 184.486C64.2244 184.667 63.3673 185.121 62.8527 185.571C62.3304 186.017 62.0964 186.387 62.0676 186.365Z" fill="#7C4235"/>
<path d="M61.6458 190.043C61.6363 190.036 61.6792 189.95 61.7835 189.814C61.887 189.678 62.0554 189.492 62.2974 189.299C62.7756 188.907 63.5796 188.547 64.5076 188.413C65.4356 188.271 66.2851 188.324 66.8877 188.389C67.19 188.423 67.4327 188.462 67.5992 188.49C67.7668 188.519 67.8548 188.533 67.8529 188.527C67.8582 188.68 66.3484 188.347 64.5379 188.608C63.6346 188.739 62.8624 189.063 62.3808 189.411C61.8942 189.755 61.6727 190.066 61.6458 190.043Z" fill="#7C4235"/>
<path d="M104.569 86.063C104.569 86.063 104.616 85.9704 104.766 85.8415C104.913 85.7065 105.18 85.5787 105.501 85.3777C106.132 84.97 107.092 84.3101 107.874 83.0904C108.061 82.784 108.237 82.4442 108.353 82.0627C108.477 81.6857 108.551 81.2682 108.529 80.8336C108.517 80.3959 108.406 79.9586 108.242 79.5054C108.094 79.05 107.943 78.5752 107.812 78.0749C107.749 77.8239 107.686 77.5675 107.657 77.2964C107.643 77.161 107.638 77.0203 107.668 76.8762C107.706 76.7449 107.744 76.6126 107.783 76.4791C107.861 76.2167 107.943 75.9508 107.995 75.674C108.025 75.5363 108.055 75.3975 108.085 75.2579C108.104 75.1165 108.124 74.9742 108.144 74.8309C108.208 74.2594 108.227 73.6537 108.065 73.0704C107.994 72.7769 107.855 72.5012 107.675 72.2566C107.492 72.0184 107.237 71.8098 106.956 71.7165L106.779 71.6581L106.946 71.5793C107.429 71.3506 107.941 70.8993 107.916 70.3042C107.877 69.7191 107.449 69.2067 106.985 68.7907L106.933 68.7433L106.974 68.686C107.455 68.0257 107.629 67.1486 107.513 66.2945C107.399 65.4378 107.033 64.5906 106.462 63.884C105.885 63.179 105.123 62.6086 104.292 62.1399C103.459 61.6689 102.553 61.2915 101.63 60.9149L101.588 60.8979L101.576 60.8539C101.069 58.9467 99.696 57.2173 97.8646 56.1319C96.0484 55.0423 93.7179 54.5588 91.5475 55.1819L91.4827 55.2005L91.4421 55.1466C90.7519 54.2364 89.7912 53.5091 88.6964 53.0373C87.5928 52.5833 86.378 52.3581 85.1519 52.3342C83.8246 52.3243 82.5025 52.5037 81.2571 52.8901C80.6306 53.068 80.028 53.3266 79.3969 53.5102C78.7719 53.7013 78.1007 53.8052 77.4495 53.737C76.7998 53.6865 76.1775 53.5383 75.5518 53.5424C75.2393 53.5159 74.9287 53.5572 74.6188 53.5705C74.3124 53.6164 74.0025 53.6494 73.7041 53.7275C72.5019 54.0112 71.3861 54.566 70.4414 55.3052C69.4895 56.036 68.6867 56.9291 68.0837 57.9193L67.8592 58.2902L67.6627 58.6744C67.5243 58.9262 67.4242 59.1943 67.3142 59.456C67.0999 59.9801 66.9577 60.5414 66.6706 61.0454C66.3953 61.5752 65.8913 61.8926 65.5097 62.2654C65.1123 62.6329 64.7918 63.0679 64.6166 63.5613C64.4554 64.0551 64.3792 64.5868 64.493 65.0813C64.5969 65.572 64.8764 66.0309 65.2576 66.3218L65.3656 66.4045L65.245 66.4644C64.3451 66.9104 63.637 67.7337 63.4793 68.6686C63.4015 69.1358 63.4633 69.6045 63.5745 70.0486C63.6446 70.2671 63.7273 70.4806 63.81 70.6911C63.9143 70.8928 64.0182 71.0927 64.121 71.291L64.1634 71.3726L64.0717 71.3999C63.7956 71.4829 63.5468 71.7188 63.35 71.9509C63.1493 72.1902 62.9889 72.4591 62.8512 72.7337C62.5736 73.2843 62.3696 73.857 62.3347 74.4372C62.2608 75.6049 62.5968 76.6907 62.7781 77.7135C62.9745 78.7303 63.0538 79.7474 62.7413 80.6064C62.4261 81.4422 62.384 82.2735 62.5687 82.9797C62.7306 83.6961 63.1402 84.2194 63.4288 84.7056C63.5729 84.9503 63.6848 85.1914 63.7444 85.4266C63.8031 85.6621 63.8047 85.8851 63.7815 86.0781C63.7303 86.4649 63.6363 86.746 63.5938 86.939C63.5468 87.1313 63.5255 87.2306 63.5255 87.2306C63.5255 87.2306 63.5327 87.129 63.5729 86.9345C63.609 86.7395 63.6962 86.4551 63.7394 86.0739C63.7588 85.8832 63.7538 85.6674 63.6935 85.4395C63.6329 85.2123 63.5206 84.9776 63.3754 84.7371C63.0864 84.2623 62.6624 83.7306 62.4898 82.9994C62.3958 82.641 62.3537 82.247 62.3757 81.8355C62.3912 81.4225 62.5095 80.9989 62.6465 80.5772C62.9464 79.7357 62.8641 78.747 62.6639 77.7351C62.4796 76.7188 62.1337 75.6319 62.2035 74.4274C62.2373 73.8251 62.447 73.2309 62.7272 72.6711C62.8672 72.3893 63.031 72.1113 63.2404 71.8595C63.455 71.6138 63.6867 71.3673 64.0447 71.2565L63.9954 71.3654C63.8892 71.1628 63.7827 70.9584 63.6746 70.7521C63.5885 70.5356 63.5028 70.3156 63.4296 70.0896C63.312 69.6288 63.2453 69.1377 63.3264 68.6424C63.4952 67.6469 64.229 66.7879 65.1783 66.315L65.1658 66.4572C64.7342 66.1295 64.4467 65.6475 64.3295 65.1169C64.2067 64.5841 64.2859 64.0255 64.4554 63.504C64.6386 62.9807 64.9815 62.5169 65.3895 62.1384C65.7889 61.75 66.2667 61.4462 66.5159 60.9578C66.7874 60.4803 66.9281 59.9278 67.1454 59.3907C67.2569 59.1234 67.3589 58.8499 67.4996 58.5928L67.6991 58.2011L67.9274 57.8226C68.5407 56.813 69.3564 55.9025 70.3261 55.1557C71.2891 54.401 72.4283 53.8322 73.6605 53.5402C73.9665 53.4598 74.2843 53.4252 74.5987 53.3786C74.9173 53.3638 75.2362 53.3221 75.5574 53.3486C76.2041 53.3452 76.8347 53.4946 77.465 53.5424C78.0961 53.6073 78.7256 53.5091 79.3415 53.3217C79.959 53.1423 80.5616 52.8837 81.1998 52.7016C82.4646 52.3091 83.8052 52.1263 85.1557 52.1366C86.4023 52.1612 87.6417 52.3899 88.7733 52.856C89.8959 53.3395 90.8876 54.0901 91.5987 55.0294L91.4933 54.9942C93.7267 54.3552 96.1091 54.8546 97.9621 55.9685C99.8306 57.0789 101.234 58.8481 101.752 60.8072L101.699 60.7465C102.622 61.1254 103.534 61.5065 104.379 61.9863C105.222 62.4641 106 63.047 106.595 63.7767C107.184 64.5098 107.56 65.3836 107.675 66.2736C107.794 67.1603 107.61 68.083 107.101 68.7782L107.09 68.6739C107.561 69.1036 108.022 69.6322 108.068 70.2997C108.083 70.6304 107.938 70.9471 107.733 71.1773C107.525 71.4105 107.277 71.5868 107.002 71.7131L106.992 71.5758C107.66 71.8129 108.04 72.4345 108.199 73.0337C108.365 73.645 108.342 74.2647 108.274 74.8464C108.253 74.9925 108.232 75.1369 108.212 75.2807C108.181 75.4221 108.15 75.5625 108.119 75.7016C108.064 75.9823 107.981 76.2504 107.901 76.5147C107.863 76.6452 107.824 76.7749 107.786 76.9035C107.76 77.0248 107.763 77.1557 107.776 77.2846C107.802 77.5436 107.863 77.7981 107.924 78.0461C108.051 78.5425 108.199 79.017 108.344 79.4725C108.504 79.9188 108.62 80.3849 108.628 80.8305C108.646 81.278 108.568 81.7058 108.438 82.0904C108.317 82.4795 108.135 82.8235 107.942 83.1333C107.138 84.3632 106.164 85.0147 105.523 85.4133C105.195 85.6109 104.928 85.73 104.78 85.8578C104.627 85.9791 104.574 86.0671 104.569 86.063Z" fill="#375A64"/>
<path d="M125.402 154.139C126.884 154.184 128.291 153.481 129.122 152.253C129.766 151.299 130.531 149.872 131.258 147.782C133.002 142.768 133.22 138.082 133.22 135.684C133.22 135.684 133.937 131.609 133.937 129.255C133.937 126.902 133.522 121.918 132.553 121.364C131.583 120.811 130.268 120.949 130.407 123.51C130.545 126.071 130.268 132.993 129.645 133.339C129.022 133.686 128.884 132.578 129.161 130.986C129.437 129.394 130.268 121.087 129.645 117.419C129.022 113.75 126.983 115.017 126.738 115.896C126.499 116.75 126.475 119.774 126.253 122.126C126.037 124.426 125.284 130.432 125.284 130.432C125.284 130.432 124.661 130.917 124.661 130.294C124.661 129.671 125.237 119.075 125.445 117.553C125.653 116.029 125.893 113.567 123.955 113.221C122.016 112.875 121.823 115.203 121.616 117.695C121.408 120.187 121.269 130.225 120.854 130.57C120.439 130.917 120.162 130.917 120.231 130.017C120.3 129.117 120.577 120.187 120.577 118.872C120.577 117.557 120.716 114.511 119.124 114.373C117.531 114.235 116.908 116.242 116.493 120.049C116.078 123.856 115.87 131.124 115.593 132.578C115.316 134.032 114.278 138.254 113.655 138.946C113.649 138.953 113.643 138.96 113.636 138.967C113.172 139.474 112.341 139.366 112.004 138.767C111.632 138.107 111.382 137.01 111.025 135.624C110.136 132.175 107.702 129.117 106.11 129.394C104.518 129.671 104.379 130.917 104.795 132.993C105.21 135.07 106.533 138.137 107.304 141.212C108.034 144.127 112.894 150.991 115.109 151.821C116.933 152.506 121.742 154.026 125.402 154.139Z" fill="#C27460"/>
<path d="M125.402 154.138C125.402 154.138 124.637 154.151 123.197 153.953C121.761 153.75 119.654 153.329 117.02 152.511C116.364 152.298 115.665 152.094 114.957 151.793C114.257 151.45 113.659 150.891 113.067 150.299C111.904 149.085 110.776 147.643 109.695 146.009C109.156 145.191 108.62 144.327 108.141 143.395C107.901 142.929 107.673 142.447 107.478 141.94C107.379 141.689 107.306 141.421 107.226 141.159C107.155 140.896 107.084 140.631 107.012 140.363C106.713 139.296 106.351 138.214 105.974 137.106C105.601 135.995 105.195 134.862 104.88 133.665C104.729 133.065 104.603 132.45 104.547 131.816C104.517 131.499 104.513 131.175 104.558 130.851C104.603 130.529 104.709 130.199 104.924 129.934C105.137 129.666 105.448 129.492 105.769 129.4C106.084 129.298 106.448 129.279 106.778 129.375C107.43 129.592 107.961 130.043 108.427 130.531C109.349 131.529 110.06 132.738 110.583 134.041C111.136 135.342 111.326 136.779 111.809 138.129C111.942 138.456 112.059 138.819 112.331 139.016C112.598 139.222 112.981 139.265 113.287 139.121C113.607 138.985 113.766 138.644 113.912 138.312C114.058 137.976 114.181 137.625 114.296 137.271C114.751 135.851 115.124 134.375 115.447 132.87C115.608 132.124 115.641 131.346 115.703 130.567C115.75 129.786 115.798 129 115.846 128.208C115.938 126.624 116.032 125.018 116.127 123.392C116.237 121.767 116.357 120.119 116.604 118.464C116.734 117.638 116.882 116.804 117.166 115.997C117.306 115.594 117.495 115.197 117.777 114.855C117.842 114.765 117.935 114.698 118.013 114.619C118.099 114.547 118.199 114.49 118.294 114.431C118.501 114.338 118.725 114.272 118.951 114.278L119.121 114.279C119.177 114.286 119.234 114.3 119.29 114.311C119.407 114.325 119.511 114.376 119.614 114.432C119.725 114.474 119.798 114.569 119.89 114.638C119.971 114.718 120.034 114.814 120.105 114.902C120.344 115.286 120.46 115.718 120.538 116.147C120.685 117.01 120.679 117.886 120.674 118.754C120.621 120.493 120.568 122.25 120.515 124.023C120.46 125.795 120.404 127.583 120.349 129.386L120.327 130.061C120.315 130.27 120.308 130.526 120.391 130.655C120.421 130.762 120.721 130.58 120.799 130.476C120.863 130.311 120.894 130.062 120.921 129.847C121.024 128.951 121.07 128.039 121.118 127.126C121.209 125.3 121.269 123.457 121.337 121.602C121.408 119.749 121.45 117.876 121.684 116.003C121.75 115.514 121.831 115.025 121.982 114.548C122.018 114.429 122.06 114.311 122.114 114.197C122.158 114.079 122.221 113.968 122.286 113.859C122.342 113.744 122.438 113.652 122.513 113.548C122.611 113.464 122.699 113.362 122.816 113.302C123.749 112.778 125.011 113.275 125.391 114.236C125.6 114.697 125.659 115.198 125.676 115.685C125.69 116.174 125.652 116.66 125.597 117.139C125.466 118.089 125.411 119.04 125.341 119.991C125.212 121.89 125.1 123.775 124.994 125.641C124.944 126.574 124.893 127.503 124.843 128.427C124.821 128.888 124.799 129.349 124.776 129.808L124.763 130.151C124.76 130.265 124.752 130.38 124.783 130.451C124.807 130.587 125.071 130.477 125.225 130.356L125.189 130.42C125.38 128.782 125.57 127.158 125.758 125.55C125.852 124.745 125.946 123.945 126.039 123.148C126.139 122.351 126.219 121.558 126.265 120.766C126.31 119.973 126.354 119.184 126.399 118.399C126.449 117.613 126.475 116.833 126.608 116.05C126.638 115.854 126.729 115.645 126.851 115.482C126.978 115.319 127.129 115.178 127.304 115.071C127.643 114.844 128.119 114.79 128.494 114.983C128.873 115.173 129.102 115.528 129.281 115.872C129.448 116.228 129.566 116.6 129.646 116.976C129.818 117.728 129.874 118.489 129.917 119.241C129.956 119.994 129.965 120.743 129.957 121.487C129.943 122.974 129.87 124.44 129.769 125.883C129.667 127.327 129.536 128.748 129.366 130.146C129.288 130.848 129.125 131.531 129.112 132.213C129.106 132.547 129.111 132.909 129.249 133.181C129.319 133.321 129.438 133.349 129.575 133.279C129.678 133.242 129.733 133.05 129.782 132.903C129.956 132.258 130.028 131.581 130.098 130.918C130.166 130.253 130.212 129.59 130.25 128.933C130.324 127.618 130.364 126.323 130.364 125.052C130.369 124.414 130.339 123.794 130.323 123.162C130.322 122.846 130.347 122.53 130.417 122.22C130.48 121.911 130.612 121.605 130.836 121.366C131.057 121.12 131.403 121.013 131.719 121.03C132.039 121.045 132.34 121.153 132.607 121.313C132.753 121.407 132.845 121.541 132.922 121.674C133.001 121.808 133.06 121.949 133.115 122.089C133.222 122.371 133.302 122.659 133.373 122.946C133.641 124.097 133.77 125.244 133.869 126.363C133.96 127.484 134.021 128.58 133.996 129.654C133.959 130.727 133.845 131.764 133.718 132.77C133.588 133.777 133.441 134.751 133.278 135.694L133.279 135.684C133.27 139.114 132.83 142.172 132.192 144.767C131.546 147.36 130.733 149.509 129.838 151.131C129.389 151.935 128.952 152.649 128.398 153.104C127.858 153.568 127.299 153.817 126.841 153.958C126.381 154.099 126.014 154.132 125.771 154.141C125.526 154.149 125.402 154.138 125.402 154.138C125.402 154.138 125.433 154.136 125.495 154.134C125.556 154.131 125.649 154.137 125.77 154.124C126.012 154.11 126.376 154.072 126.832 153.927C127.284 153.782 127.836 153.531 128.366 153.068C128.91 152.616 129.338 151.906 129.783 151.101C130.665 149.48 131.468 147.334 132.103 144.745C132.731 142.156 133.161 139.104 133.162 135.684V135.679L133.162 135.673C133.323 134.733 133.467 133.759 133.594 132.755C133.719 131.751 133.83 130.715 133.865 129.65C133.887 128.587 133.825 127.491 133.732 126.375C133.632 125.26 133.5 124.116 133.233 122.979C133.163 122.697 133.084 122.414 132.98 122.141C132.873 121.878 132.747 121.586 132.53 121.438C132.285 121.291 131.998 121.19 131.713 121.178C131.429 121.166 131.137 121.255 130.943 121.47C130.748 121.679 130.623 121.96 130.564 122.254C130.498 122.548 130.474 122.854 130.476 123.162C130.492 123.778 130.524 124.418 130.52 125.052C130.521 126.327 130.484 127.624 130.411 128.942C130.373 129.601 130.328 130.265 130.261 130.934C130.19 131.603 130.121 132.277 129.941 132.95C129.914 133.034 129.888 133.118 129.848 133.202C129.833 133.244 129.801 133.287 129.776 133.328C129.744 133.367 129.687 133.419 129.645 133.43C129.56 133.471 129.452 133.504 129.339 133.47C129.23 133.435 129.147 133.35 129.105 133.265C128.932 132.918 128.943 132.558 128.944 132.209C128.958 131.503 129.122 130.819 129.197 130.125C129.365 128.732 129.495 127.312 129.595 125.871C129.694 124.43 129.765 122.967 129.778 121.485C129.786 120.744 129.777 119.999 129.736 119.251C129.693 118.504 129.637 117.749 129.468 117.017C129.391 116.649 129.275 116.29 129.117 115.953C128.949 115.628 128.733 115.306 128.412 115.148C127.77 114.813 126.9 115.38 126.79 116.086C126.662 116.839 126.635 117.628 126.586 118.41C126.542 119.195 126.497 119.985 126.453 120.779C126.407 121.573 126.328 122.37 126.228 123.166C126.135 123.964 126.042 124.765 125.948 125.57C125.761 127.18 125.572 128.805 125.38 130.444L125.376 130.485L125.344 130.508C125.242 130.584 125.139 130.645 125.011 130.686C124.945 130.702 124.874 130.72 124.788 130.696C124.702 130.673 124.632 130.598 124.605 130.527C124.549 130.382 124.57 130.26 124.569 130.146L124.583 129.8C124.605 129.34 124.627 128.879 124.65 128.417C124.699 127.492 124.749 126.564 124.8 125.63C124.905 123.763 125.016 121.878 125.145 119.977C125.214 119.029 125.27 118.069 125.401 117.116C125.456 116.642 125.493 116.166 125.479 115.691C125.463 115.219 125.404 114.74 125.211 114.316C125.024 113.894 124.686 113.543 124.245 113.399C123.81 113.253 123.304 113.231 122.92 113.47C122.528 113.704 122.319 114.165 122.17 114.61C122.025 115.065 121.944 115.546 121.88 116.028C121.647 117.887 121.605 119.755 121.534 121.61C121.466 123.464 121.406 125.307 121.315 127.136C121.265 128.051 121.22 128.962 121.115 129.871C121.082 130.103 121.071 130.315 120.97 130.571C120.914 130.667 120.871 130.678 120.823 130.72C120.774 130.755 120.724 130.79 120.667 130.82C120.61 130.848 120.546 130.876 120.466 130.882C120.383 130.889 120.285 130.843 120.237 130.776C120.146 130.645 120.14 130.519 120.128 130.4C120.119 130.28 120.125 130.164 120.132 130.049L120.154 129.372C120.21 127.571 120.266 125.786 120.321 124.016C120.376 122.246 120.429 120.491 120.482 118.753C120.489 117.884 120.493 117.019 120.351 116.18C120.277 115.765 120.162 115.351 119.945 115.005C119.731 114.654 119.359 114.451 118.954 114.467C118.752 114.46 118.56 114.519 118.38 114.598C118.296 114.651 118.21 114.701 118.133 114.764C118.063 114.836 117.979 114.893 117.92 114.977C117.662 115.29 117.478 115.668 117.342 116.061C117.065 116.845 116.916 117.672 116.787 118.491C116.54 120.136 116.42 121.781 116.308 123.404C116.212 125.029 116.117 126.635 116.023 128.218C115.975 129.011 115.926 129.797 115.878 130.579C115.816 131.358 115.782 132.141 115.617 132.905C115.291 134.417 114.917 135.893 114.457 137.324C114.34 137.68 114.216 138.034 114.066 138.379C113.991 138.552 113.912 138.722 113.802 138.885C113.698 139.054 113.539 139.188 113.358 139.272C112.994 139.442 112.546 139.39 112.232 139.148C112.073 139.033 111.951 138.86 111.873 138.695C111.789 138.529 111.719 138.358 111.655 138.186C111.165 136.807 110.98 135.382 110.436 134.1C109.922 132.812 109.218 131.615 108.316 130.636C107.862 130.156 107.341 129.72 106.736 129.518C106.429 129.433 106.12 129.444 105.812 129.541C105.509 129.628 105.228 129.786 105.038 130.026C104.651 130.515 104.641 131.195 104.689 131.804C104.743 132.426 104.867 133.037 105.015 133.63C105.325 134.818 105.728 135.952 106.1 137.063C106.475 138.173 106.835 139.258 107.133 140.329C107.204 140.598 107.276 140.864 107.346 141.129C107.425 141.389 107.494 141.648 107.592 141.898C107.784 142.398 108.009 142.877 108.246 143.341C108.72 144.269 109.252 145.131 109.787 145.948C110.861 147.58 111.981 149.022 113.135 150.233C113.72 150.824 114.316 151.381 114.992 151.714C115.688 152.014 116.391 152.223 117.043 152.438C119.67 153.265 121.771 153.698 123.203 153.914C123.921 154.017 124.471 154.072 124.841 154.099C125.212 154.122 125.402 154.138 125.402 154.138Z" fill="#7C4235"/>
<path d="M118.655 132.175C118.656 132.161 118.843 132.167 119.181 132.19C119.52 132.209 120.007 132.263 120.606 132.354C121.804 132.534 123.446 132.91 125.177 133.572C126.907 134.237 128.38 135.055 129.391 135.722C129.897 136.055 130.296 136.341 130.561 136.553C130.827 136.762 130.97 136.882 130.962 136.893C130.953 136.904 130.795 136.804 130.515 136.615C130.238 136.423 129.829 136.156 129.316 135.84C128.292 135.207 126.822 134.416 125.107 133.756C123.39 133.1 121.768 132.705 120.583 132.492C119.991 132.384 119.508 132.309 119.173 132.266C118.839 132.22 118.654 132.189 118.655 132.175Z" fill="#7C4235"/>
<path d="M120.198 253.863C133.892 253.863 144.993 242.762 144.993 229.068C144.993 215.374 133.892 204.273 120.198 204.273C106.504 204.273 95.4033 215.374 95.4033 229.068C95.4033 242.762 106.504 253.863 120.198 253.863Z" fill="#FF7D71"/>
<path d="M113.554 242.618L110.208 241.606L126.048 215.447L129.238 215.907C129.713 215.975 130.158 216.185 130.513 216.51L134.036 219.73C134.543 220.193 134.579 220.98 134.115 221.488L115.226 242.159C114.803 242.621 114.154 242.8 113.554 242.618Z" fill="#375A64"/>
<path d="M134.755 238.217L131.699 241.562C131.357 241.936 130.841 242.097 130.348 241.984L127.663 241.37C127.326 241.292 127.028 241.093 126.828 240.81L109.428 216.143L112.708 216.659C113.131 216.725 113.525 216.914 113.841 217.203L134.665 236.232C135.238 236.756 135.278 237.644 134.755 238.217Z" fill="#375A64"/>
<path d="M113.554 242.618L110.208 241.606L126.048 215.447L129.238 215.907C129.713 215.975 130.158 216.185 130.513 216.51L134.036 219.73C134.543 220.193 134.579 220.98 134.115 221.488L115.226 242.159C114.803 242.621 114.154 242.8 113.554 242.618Z" fill="#D5D5D5"/>
<path d="M134.755 238.217L131.699 241.562C131.357 241.936 130.841 242.097 130.348 241.984L127.663 241.37C127.326 241.292 127.028 241.093 126.828 240.81L109.428 216.143L112.708 216.659C113.131 216.725 113.525 216.914 113.841 217.203L134.665 236.232C135.238 236.756 135.278 237.644 134.755 238.217Z" fill="#D5D5D5"/>
<path d="M109.825 241.357L106.243 238.084C105.855 237.729 105.828 237.127 106.183 236.739L125.319 215.798C125.673 215.41 126.275 215.383 126.663 215.737L130.245 219.01C130.633 219.365 130.66 219.967 130.305 220.355L111.169 241.296C110.815 241.684 110.213 241.711 109.825 241.357Z" fill="white"/>
<path d="M131.054 236.966L127.781 240.548C127.427 240.935 126.825 240.963 126.437 240.608L105.496 221.472C105.108 221.118 105.081 220.516 105.435 220.128L108.802 216.443C109.105 216.112 109.618 216.089 109.95 216.392L130.994 235.622C131.382 235.976 131.409 236.578 131.054 236.966Z" fill="white"/>
<path d="M112.898 230.595C112.942 230.636 111.706 232.072 110.136 233.804C108.566 235.537 107.258 236.908 107.214 236.868C107.169 236.828 108.406 235.391 109.976 233.659C111.545 231.927 112.854 230.556 112.898 230.595Z" fill="white"/>
<path d="M125.545 216.642C125.589 216.682 124.197 218.274 122.435 220.197C120.673 222.12 119.209 223.645 119.165 223.605C119.12 223.565 120.513 221.973 122.275 220.05C124.037 218.128 125.501 216.602 125.545 216.642Z" fill="white"/>
<path d="M113.156 227.127C113.114 227.17 111.709 225.847 110.019 224.172C108.327 222.498 106.991 221.106 107.033 221.064C107.075 221.022 108.48 222.344 110.171 224.019C111.861 225.693 113.198 227.085 113.156 227.127Z" fill="white"/>
<path d="M125.589 238.097C125.551 238.143 124.128 237.009 122.412 235.565C120.696 234.121 119.336 232.913 119.374 232.868C119.413 232.822 120.835 233.956 122.552 235.4C124.267 236.844 125.628 238.051 125.589 238.097Z" fill="white"/>
</g>
<g filter="url(#filter1_dd_6466_1878)">
<path fill-rule="evenodd" clip-rule="evenodd" d="M332.043 99.7131L309.254 360.183C308.169 372.591 297.216 381.783 284.808 380.697L147.275 368.665C134.867 367.579 125.674 356.625 126.76 344.217L149.548 83.7469C150.633 71.3393 161.589 62.1471 173.997 63.2327L311.529 75.2652C323.938 76.3508 333.128 87.3055 332.043 99.7131Z" fill="white"/>
<mask id="mask1_6466_1878" style="mask-type:luminance" maskUnits="userSpaceOnUse" x="126" y="63" width="207" height="318">
<path d="M332.043 99.7131L309.254 360.183C308.169 372.591 297.216 381.783 284.808 380.697L147.275 368.665C134.867 367.579 125.674 356.625 126.76 344.217L149.548 83.7469C150.633 71.3393 161.589 62.1471 173.997 63.2327L311.529 75.2652C323.938 76.3508 333.128 87.3055 332.043 99.7131Z" fill="white"/>
</mask>
<g mask="url(#mask1_6466_1878)">
<path d="M115.563 365.385C118.598 351.362 132.644 343.424 145.167 343.868C157.691 344.31 169.184 350.905 180.647 356.417C192.111 361.929 204.822 366.519 217.011 362.8C232.434 358.093 242.727 341.643 255.732 330.865C275.265 314.68 302.49 311.954 323.589 324.075L317.298 395.977L112.621 378.07L115.563 365.385Z" fill="#1EA786" fill-opacity="0.37"/>
<path d="M342.159 90.886C339.124 104.91 325.078 112.847 312.555 112.403C300.031 111.962 288.538 105.367 277.075 99.8539C265.611 94.3426 252.9 89.752 240.71 93.4715C225.288 98.1785 214.995 114.629 201.99 125.406C182.457 141.591 155.232 144.317 134.133 132.197L140.424 60.2945L345.101 78.2013L342.159 90.886Z" fill="#1EA786" fill-opacity="0.49"/>
</g>
</g>
<path d="M224.154 306.747C257.093 309.629 286.15 285.051 289.055 251.852C291.959 218.652 267.612 189.403 234.672 186.521C201.733 183.639 172.676 208.216 169.771 241.416C166.866 274.615 191.214 303.865 224.154 306.747Z" fill="#82D0BC" fill-opacity="0.55"/>
<path d="M289.146 212.55C289.146 212.55 296.167 209.078 297.565 210.401C299.582 212.311 300.051 215.277 300.051 215.277C300.051 215.277 304.747 202.156 308.062 202.96C309.964 203.42 308.887 204.839 307.859 206.649C306.904 208.329 304.973 214.635 304.973 214.635C304.973 214.635 312.005 207.634 313.866 207.934C315.305 208.166 315.401 209.458 313.139 211.319C310.878 213.18 306.854 219.313 306.854 219.313C306.854 219.313 311.68 215.544 313.526 215.682C314.998 215.792 315.858 216.897 313.81 218.383C311.763 219.868 308.775 220.856 306.977 223.71C304.761 227.228 299.921 236.058 299.921 236.058L286.228 229.819C286.228 229.819 284.749 220.244 284.856 217.958C284.856 217.958 285.471 213.163 285.519 212.304C285.566 211.444 287.858 211.424 288.404 213.129C288.95 214.835 288.486 216.533 288.67 217.652C288.854 218.77 289.263 219.828 290.02 220.387C290.778 220.946 292.81 221.158 293.383 220.599C293.957 220.039 294.741 218.333 294.973 217.263C295.205 216.192 295.177 214.466 295.177 214.466C295.177 214.466 289.103 216.337 289.146 212.55Z" fill="#FFBE9D"/>
<path d="M126.555 242.397L117.058 237.86C117.058 237.86 107.574 231.132 105.542 233.049C105.542 233.049 103.647 231.934 102.583 233.966C101.968 235.143 103.492 237.064 103.492 237.064C103.492 237.064 102.923 237.548 103.594 239.414C104.265 241.281 113.258 247.769 113.258 247.769C113.258 247.769 125.007 255.576 129.713 259.23L139.345 248.277L138.187 247.725C138.187 247.725 137.987 241.829 135.735 240.065C133.285 238.144 130.551 233.29 130.017 231.436C129.484 229.582 126.1 230.12 126.326 233.894C126.552 237.668 129.365 238.888 128.872 241.348C128.379 243.808 126.555 242.397 126.555 242.397Z" fill="#FFBE9D"/>
<path d="M111.384 242.441C111.34 242.507 109.514 241.341 107.308 239.837C105.1 238.333 103.348 237.061 103.393 236.996C103.437 236.93 105.262 238.096 107.47 239.6C109.676 241.103 111.429 242.375 111.384 242.441Z" fill="#EB996E"/>
<path d="M116.418 240.1C116.398 240.133 115.751 239.803 114.717 239.244C113.684 238.683 112.27 237.883 110.749 236.931C109.228 235.976 107.896 235.039 106.97 234.31C106.509 233.943 106.142 233.64 105.901 233.415C105.657 233.194 105.529 233.064 105.541 233.048C105.57 233.014 106.141 233.464 107.092 234.148C108.043 234.831 109.386 235.736 110.901 236.687C112.417 237.637 113.812 238.462 114.818 239.068C115.825 239.672 116.438 240.065 116.418 240.1Z" fill="#EB996E"/>
<path d="M118.01 245.689C117.997 245.706 117.703 245.51 117.181 245.141C116.623 244.738 115.883 244.203 114.989 243.557L114.964 243.539L114.952 243.507C114.6 242.532 114.158 241.382 113.564 240.169C113.262 239.572 112.93 238.927 112.459 238.41C111.991 237.891 111.185 237.738 110.538 238.095C110.4 238.158 110.228 238.3 110.205 238.35C110.218 238.375 110.216 238.379 110.222 238.417L110.251 238.542C110.268 238.625 110.292 238.71 110.315 238.795C110.406 239.133 110.507 239.467 110.605 239.795C110.809 240.45 111.007 241.085 111.197 241.695C111.583 242.901 111.937 244.01 112.248 244.978L112.232 244.948C112.956 245.964 113.555 246.804 114.004 247.434C114.19 247.708 114.346 247.935 114.475 248.124C114.579 248.283 114.63 248.371 114.622 248.377C114.613 248.384 114.545 248.309 114.424 248.161C114.281 247.982 114.11 247.767 113.905 247.508C113.436 246.892 112.811 246.071 112.056 245.078L112.046 245.065L112.04 245.047C111.711 244.096 111.338 242.991 110.941 241.778C110.746 241.167 110.544 240.532 110.335 239.878C110.234 239.548 110.133 239.215 110.039 238.869C110.015 238.783 109.991 238.697 109.972 238.607L109.94 238.471C109.929 238.422 109.926 238.336 109.929 238.272C109.995 238.103 110.077 238.074 110.154 237.998C110.235 237.938 110.318 237.885 110.405 237.84C110.777 237.647 111.205 237.568 111.615 237.64C112.029 237.703 112.389 237.935 112.661 238.212C113.181 238.793 113.497 239.439 113.803 240.052C114.393 241.289 114.818 242.447 115.15 243.44L115.113 243.39C115.986 244.067 116.707 244.626 117.25 245.048C117.751 245.446 118.022 245.673 118.01 245.689Z" fill="#EB996E"/>
<path d="M127.846 246.645C127.83 246.683 127.383 246.515 126.666 246.244C125.95 245.98 124.953 245.606 123.808 245.477C122.666 245.351 121.618 245.584 120.949 245.918C120.271 246.247 119.953 246.615 119.916 246.577C119.893 246.564 120.164 246.134 120.855 245.738C121.535 245.338 122.64 245.059 123.839 245.192C125.034 245.327 126.042 245.743 126.743 246.056C127.446 246.377 127.861 246.611 127.846 246.645Z" fill="#EB996E"/>
<path d="M127.336 243.987C127.397 244.042 127.115 244.445 126.831 244.97C126.542 245.493 126.354 245.947 126.275 245.925C126.2 245.907 126.272 245.389 126.579 244.831C126.883 244.274 127.281 243.934 127.336 243.987Z" fill="#EB996E"/>
<path d="M188.01 202.26C189.092 197.691 195.061 191.527 199.831 191.938C197.444 187.736 197.889 182.158 200.913 178.391C202.994 175.798 206.138 174.034 207.663 171.091C209.389 167.763 208.638 163.766 209.099 160.056C209.775 154.624 213.045 149.896 216.22 145.404C219.127 141.291 222.626 136.811 227.695 136.181C230.901 135.783 234.079 137.063 236.924 138.58C250.539 145.84 260.425 159.497 262.917 174.483C263.514 178.07 263.787 181.919 265.994 184.844C268.333 187.942 272.731 189.897 273.18 193.721C273.502 196.463 271.535 199.02 271.556 201.78C271.572 204.091 275.282 211.15 276.089 213.323C277.48 217.07 276.523 220.902 274.473 224.333C272.423 227.764 267.699 230.866 263.691 231.499L221.136 213.058C216.807 215.044 211.904 223.767 207.121 223.911C202.338 224.054 196.381 225.61 192.262 220.227C187.945 214.584 186.927 206.828 188.01 202.26Z" fill="#263238"/>
<path d="M261.816 163.817C261.005 167.442 264.171 174.798 265.902 178.107C267.063 180.328 269.189 181.893 271.299 183.291C273.409 184.687 275.628 186.045 277.145 188.049C278.661 190.055 279.318 192.92 278.001 195.048C281.821 196.865 283.152 202.051 281.363 205.814C279.574 209.578 275.372 211.847 271.156 212.262L253.551 205.242L251.6 181.824L258.362 164.483" fill="#263238"/>
<path d="M264.667 188.735C264.672 188.727 264.788 188.791 265.007 188.92C265.22 189.058 265.563 189.223 265.949 189.519C266.746 190.077 267.83 191.017 268.888 192.438C269.428 193.139 269.911 193.989 270.371 194.931C270.787 195.891 271.2 196.948 271.418 198.121C271.924 200.441 271.838 203.199 270.793 205.825L270.741 205.654C271.731 206.325 272.67 207.17 273.488 208.146C275.595 210.637 276.653 213.729 276.726 216.541C276.788 219.373 275.898 221.857 274.799 223.661C273.692 225.483 272.413 226.676 271.481 227.397C271.006 227.751 270.626 228.01 270.353 228.161C270.085 228.319 269.943 228.398 269.937 228.389C269.932 228.38 270.065 228.285 270.322 228.112C270.584 227.946 270.951 227.673 271.411 227.309C272.315 226.567 273.556 225.366 274.624 223.558C275.686 221.766 276.537 219.319 276.461 216.548C276.376 213.796 275.332 210.771 273.268 208.331C272.467 207.374 271.549 206.546 270.582 205.888L270.488 205.825L270.531 205.717C271.556 203.155 271.655 200.456 271.173 198.171C270.966 197.016 270.569 195.974 270.169 195.023C269.725 194.091 269.26 193.247 268.736 192.548C267.713 191.132 266.661 190.179 265.89 189.601C265.515 189.295 265.183 189.117 264.98 188.964C264.77 188.821 264.662 188.743 264.667 188.735Z" fill="#455A64"/>
<path d="M209.094 207.948C209.094 207.948 200.802 209.698 197.609 213.569C196.869 214.466 193.754 219.644 189.898 226.202C181.984 239.66 170.955 258.93 170.955 258.93L140.64 246.845L128.222 260.573L161.183 282.805C167.294 286.927 175.109 287.576 181.816 284.519C185.536 282.824 188.685 280.089 190.885 276.644L201.169 260.538L209.094 207.948Z" fill="#1EA788"/>
<path fill-rule="evenodd" clip-rule="evenodd" d="M194.954 296.027L199.06 283.437L196.708 267.9C195.023 259.858 194.106 246.918 197.583 236.865L208.779 208.06L218.627 204.535L240.618 202.704C241.427 203.055 262.708 211.126 262.708 211.126C265.668 212.093 266.838 212.68 266.838 212.68L267.924 229.079L258.067 255.09L252.467 281.376L255.748 300.784C246.267 305.492 235.434 307.734 224.152 306.747C213.256 305.794 203.297 301.948 194.954 296.027Z" fill="#1EA788"/>
<path d="M213.52 206.363L220.049 204.101L248.329 206.973L254.686 211.446C254.686 211.446 229.035 235.218 223.089 235.558C208.135 236.413 213.52 206.363 213.52 206.363Z" fill="#FFBE9D"/>
<path d="M266.242 212.403C266.242 212.403 270.4 213.728 273.357 221.802C276.314 229.876 280.302 251.976 280.302 251.976L284.817 229.321L305.092 233.363L296.346 287.687C296.346 287.687 288.183 297.559 276.149 295.53C264.115 293.499 252.082 253.848 252.082 253.848L266.242 212.403Z" fill="#1EA788"/>
<path d="M274.666 279.629C274.661 279.628 274.663 279.583 274.673 279.496C274.687 279.391 274.703 279.265 274.723 279.11C274.777 278.748 274.85 278.253 274.943 277.63C275.134 276.344 275.451 274.491 275.867 272.206C276.696 267.634 278.033 261.355 279.601 254.444C281.17 247.531 282.537 241.264 283.417 236.704C283.858 234.426 284.206 232.579 284.431 231.301C284.545 230.68 284.636 230.19 284.704 229.83C284.735 229.676 284.76 229.551 284.782 229.449C284.801 229.363 284.813 229.32 284.818 229.321C284.822 229.321 284.82 229.366 284.81 229.453C284.797 229.557 284.781 229.684 284.761 229.839C284.707 230.201 284.633 230.695 284.541 231.319C284.349 232.604 284.032 234.457 283.617 236.743C282.787 241.315 281.45 247.595 279.881 254.507C278.313 261.418 276.946 267.685 276.066 272.244C275.626 274.523 275.278 276.37 275.053 277.649C274.938 278.268 274.847 278.759 274.78 279.119C274.749 279.272 274.723 279.397 274.702 279.501C274.683 279.586 274.671 279.63 274.666 279.629Z" fill="#263238"/>
<path d="M170.278 270.758C170.259 270.764 170.192 270.611 170.086 270.329C169.979 270.047 169.849 269.63 169.714 269.108C169.442 268.067 169.194 266.585 169.176 264.934C169.162 263.284 169.384 261.798 169.637 260.751C169.762 260.227 169.883 259.808 169.986 259.524C170.086 259.24 170.15 259.086 170.169 259.092C170.214 259.106 170.033 259.745 169.835 260.793C169.636 261.84 169.45 263.306 169.463 264.932C169.481 266.557 169.693 268.02 169.912 269.063C170.13 270.108 170.323 270.743 170.278 270.758Z" fill="#263238"/>
<path d="M173.677 271.566C173.66 271.576 173.545 271.42 173.352 271.126C173.155 270.835 172.897 270.396 172.604 269.839C172.015 268.728 171.33 267.116 170.856 265.25C170.386 263.383 170.222 261.638 170.213 260.381C170.207 259.752 170.225 259.243 170.259 258.894C170.291 258.543 170.317 258.35 170.337 258.352C170.385 258.354 170.353 259.129 170.415 260.375C170.477 261.619 170.671 263.335 171.134 265.18C171.602 267.022 172.248 268.624 172.786 269.748C173.322 270.874 173.718 271.541 173.677 271.566Z" fill="#263238"/>
<path d="M202.186 224.842C202.196 224.846 202.146 224.995 202.044 225.276C201.93 225.581 201.777 225.989 201.585 226.501C201.172 227.589 200.59 229.118 199.876 230.995C198.472 234.797 196.517 240.077 195.273 246.14C194.651 249.168 194.322 252.106 194.395 254.781C194.445 257.457 194.825 259.849 195.231 261.833C195.641 263.818 196.055 265.409 196.337 266.508C196.472 267.038 196.58 267.459 196.661 267.774C196.733 268.064 196.766 268.218 196.757 268.221C196.747 268.223 196.695 268.075 196.605 267.79C196.512 267.479 196.386 267.061 196.228 266.537C195.914 265.446 195.469 263.862 195.033 261.875C194.599 259.89 194.195 257.485 194.131 254.787C194.042 252.091 194.366 249.123 194.991 246.083C196.242 239.991 198.232 234.709 199.686 230.923C200.424 229.03 201.045 227.509 201.481 226.459C201.694 225.955 201.864 225.555 201.99 225.255C202.11 224.981 202.177 224.838 202.186 224.842Z" fill="#263238"/>
<path d="M256.28 265.87C256.275 265.872 256.254 265.824 256.218 265.73C256.176 265.62 256.125 265.48 256.061 265.307C255.923 264.913 255.73 264.366 255.486 263.671C255.243 262.959 254.929 262.093 254.602 261.074C254.292 260.046 253.941 258.881 253.553 257.594C253.179 256.3 252.836 254.864 252.433 253.332C252.266 252.558 252.092 251.757 251.914 250.933C251.826 250.52 251.737 250.101 251.646 249.677C251.565 249.25 251.499 248.815 251.423 248.376C250.802 244.87 250.354 240.952 250.482 236.832C250.59 232.716 251.325 228.793 252.669 225.475C253.948 222.128 255.915 219.461 257.922 217.654C259.929 215.826 261.939 214.845 263.36 214.354C264.076 214.114 264.643 213.96 265.035 213.894C265.217 213.86 265.362 213.833 265.479 213.811C265.578 213.794 265.63 213.788 265.631 213.793C265.632 213.797 265.582 213.814 265.484 213.84C265.37 213.869 265.226 213.905 265.048 213.951C264.661 214.035 264.103 214.205 263.398 214.458C261.999 214.979 260.026 215.977 258.059 217.804C256.091 219.612 254.168 222.251 252.915 225.572C251.597 228.866 250.877 232.75 250.769 236.84C250.642 240.934 251.08 244.835 251.684 248.331C251.757 248.769 251.829 249.202 251.901 249.629C251.988 250.052 252.076 250.47 252.162 250.882C252.335 251.705 252.502 252.505 252.665 253.278C253.057 254.809 253.388 256.244 253.748 257.54C254.12 258.828 254.458 259.996 254.755 261.026C255.067 262.048 255.366 262.919 255.592 263.636C255.814 264.338 255.989 264.89 256.116 265.288C256.169 265.465 256.212 265.607 256.246 265.72C256.273 265.818 256.285 265.869 256.28 265.87Z" fill="#263238"/>
<g opacity="0.3">
<path d="M250.645 240.426C246.861 252.852 245.686 265.873 249.236 278.367C249.442 279.093 250.281 281.679 251.028 281.781C251.975 281.911 252.529 280.767 252.775 279.844C253.282 277.947 253.766 274.794 254.273 272.896C254.908 270.52 255.971 264.984 255.971 264.984C255.971 264.984 254.2 259.725 253.465 256.922C252.101 251.724 250.995 246.78 250.665 240.83" fill="black"/>
</g>
<path d="M244.168 289.282C244.176 289.289 244.093 289.396 243.926 289.594C243.739 289.812 243.494 290.098 243.189 290.453C243.025 290.641 242.845 290.847 242.65 291.07C242.445 291.288 242.205 291.508 241.956 291.754C241.447 292.233 240.9 292.816 240.202 293.355C239.86 293.635 239.504 293.929 239.133 294.233C238.759 294.535 238.336 294.803 237.915 295.106C237.085 295.729 236.118 296.271 235.117 296.868C233.069 297.98 230.715 299.018 228.135 299.79C225.545 300.529 223.001 300.922 220.677 301.088C219.512 301.125 218.405 301.189 217.369 301.111C216.853 301.082 216.35 301.084 215.873 301.031C215.396 300.974 214.938 300.919 214.5 300.867C213.621 300.79 212.846 300.592 212.16 300.463C211.818 300.39 211.497 300.334 211.207 300.26C210.921 300.177 210.66 300.101 210.421 300.031C209.972 299.895 209.612 299.787 209.336 299.704C209.09 299.626 208.962 299.581 208.964 299.572C208.967 299.562 209.101 299.589 209.353 299.649C209.631 299.718 209.996 299.81 210.449 299.923C210.689 299.985 210.952 300.053 211.239 300.128C211.529 300.193 211.85 300.24 212.192 300.305C212.878 300.419 213.65 300.602 214.525 300.666C214.961 300.712 215.416 300.76 215.891 300.811C216.366 300.857 216.864 300.85 217.378 300.873C218.406 300.941 219.504 300.867 220.66 300.824C222.964 300.645 225.486 300.247 228.054 299.514C230.613 298.748 232.95 297.726 234.989 296.636C235.985 296.05 236.949 295.52 237.78 294.91C238.2 294.614 238.624 294.351 238.999 294.056C239.372 293.759 239.73 293.472 240.072 293.199C240.775 292.674 241.327 292.104 241.844 291.638C242.097 291.4 242.342 291.186 242.552 290.975C242.753 290.759 242.938 290.559 243.106 290.378C243.428 290.038 243.685 289.765 243.882 289.557C244.062 289.371 244.16 289.276 244.168 289.282Z" fill="#263238"/>
<path d="M240.434 280.513C240.453 280.519 240.407 280.73 240.308 281.107C240.214 281.486 240.038 282.024 239.785 282.675C239.283 283.978 238.393 285.716 237.08 287.405C235.761 289.092 234.293 290.379 233.152 291.183C232.582 291.587 232.103 291.89 231.758 292.073C231.416 292.261 231.223 292.357 231.214 292.34C231.187 292.296 231.932 291.862 233.031 291.02C234.129 290.182 235.554 288.891 236.854 287.229C238.148 285.563 239.052 283.867 239.597 282.597C240.146 281.327 240.384 280.499 240.434 280.513Z" fill="#263238"/>
<path d="M243.203 134.01C250.863 134.733 257.983 139.716 261.283 146.666C264.584 153.617 263.947 162.283 259.667 168.676C258.208 170.855 256.207 172.866 253.649 173.446C255.645 160.384 251.582 146.521 242.851 136.603" fill="#1EA788"/>
<path d="M252.001 136.779C251.07 134.313 252.547 131.459 254.722 129.971C256.898 128.482 259.601 128.04 262.208 127.653C264.815 127.266 267.517 126.865 269.732 125.436C269.073 129.524 267.68 133.668 264.742 136.586C261.803 139.503 257.037 140.855 253.375 138.921" fill="#1EA788"/>
<path d="M254.402 139.721C252.589 140.303 250.546 139.661 249.076 138.452C247.604 137.243 246.626 135.541 245.853 133.801C244.903 131.664 244.211 129.384 244.112 127.048C244.014 124.712 244.542 122.309 245.864 120.379C248.59 123.846 251.666 126.827 253.031 131.02C253.833 133.484 253.377 137.281 252.09 139.529" fill="#1EA788"/>
<path d="M261.753 153.785C261.772 153.784 261.801 154.06 261.835 154.563C261.856 154.813 261.873 155.121 261.87 155.478C261.869 155.836 261.883 156.243 261.853 156.693C261.824 157.593 261.715 158.662 261.522 159.838C261.313 161.011 261.011 162.289 260.583 163.598C260.143 164.902 259.619 166.107 259.085 167.172C258.535 168.229 257.983 169.152 257.467 169.89C257.222 170.269 256.967 170.587 256.753 170.873C256.542 171.161 256.344 171.397 256.178 171.586C255.85 171.968 255.662 172.172 255.647 172.159C255.632 172.146 255.791 171.918 256.09 171.517C256.242 171.318 256.426 171.073 256.624 170.778C256.824 170.484 257.066 170.16 257.298 169.778C257.788 169.031 258.317 168.107 258.848 167.053C259.364 165.992 259.875 164.798 260.31 163.507C260.734 162.213 261.04 160.951 261.261 159.792C261.466 158.63 261.595 157.573 261.649 156.682C261.693 156.236 261.693 155.832 261.708 155.477C261.727 155.122 261.727 154.816 261.724 154.566C261.723 154.065 261.733 153.787 261.753 153.785Z" fill="#263238"/>
<path d="M261.326 138.904C261.337 138.919 261.109 139.071 260.676 139.335C260.218 139.536 259.531 139.831 258.625 139.929C256.822 140.177 254.277 139.87 251.646 138.915L251.567 138.887L251.556 138.804C251.534 138.636 251.51 138.456 251.486 138.275C251.322 136.824 251.377 135.413 251.662 134.173C251.931 132.93 252.463 131.874 253.09 131.14C253.7 130.382 254.398 129.992 254.855 129.727C255.348 129.514 255.62 129.407 255.627 129.425C255.635 129.444 255.377 129.586 254.91 129.825C254.477 130.115 253.815 130.52 253.247 131.269C252.662 131.993 252.168 133.017 251.92 134.23C251.657 135.438 251.61 136.82 251.771 138.242C251.795 138.42 251.818 138.596 251.84 138.76L251.75 138.648C254.331 139.588 256.84 139.926 258.601 139.733C259.491 139.663 260.165 139.404 260.63 139.236C261.067 139.008 261.316 138.888 261.326 138.904Z" fill="#263238"/>
<path d="M264.198 131.983C264.202 132.036 263.38 132.079 262.089 132.341C261.442 132.468 260.685 132.675 259.86 132.952C259.041 133.243 258.159 133.614 257.272 134.085C256.39 134.564 255.593 135.095 254.898 135.618C254.212 136.151 253.622 136.669 253.159 137.138C252.226 138.07 251.737 138.731 251.695 138.699C251.679 138.687 251.79 138.514 252.006 138.211C252.218 137.904 252.56 137.486 253.013 136.997C253.463 136.504 254.047 135.962 254.736 135.409C255.433 134.866 256.24 134.319 257.136 133.832C258.038 133.353 258.939 132.983 259.776 132.701C260.618 132.433 261.392 132.245 262.051 132.142C262.709 132.035 263.247 131.98 263.62 131.973C263.992 131.96 264.197 131.963 264.198 131.983Z" fill="#263238"/>
<path d="M254.29 139.645C254.3 139.648 254.288 139.704 254.255 139.808C254.228 139.915 254.164 140.062 254.068 140.248C253.876 140.617 253.493 141.112 252.862 141.527C252.234 141.928 251.332 142.248 250.323 142.109C249.311 141.985 248.314 141.279 247.745 140.27C247.175 139.26 247.087 138.041 247.505 137.111C247.907 136.175 248.648 135.569 249.315 135.239C249.998 134.914 250.619 134.842 251.034 134.868C251.243 134.883 251.403 134.905 251.508 134.937C251.614 134.963 251.668 134.981 251.666 134.991C251.661 135.02 251.437 134.969 251.033 134.98C250.632 134.989 250.044 135.089 249.408 135.42C248.785 135.755 248.106 136.345 247.749 137.213C247.379 138.07 247.466 139.186 247.994 140.128C248.527 141.068 249.437 141.721 250.362 141.847C251.289 141.991 252.145 141.714 252.754 141.355C253.367 140.982 253.757 140.531 253.972 140.192C254.191 139.852 254.262 139.634 254.29 139.645Z" fill="#263238"/>
<path d="M247.618 139.199C247.589 139.224 247.453 138.884 247.751 138.478C247.891 138.287 248.14 138.1 248.447 138.026C248.754 137.944 249.099 137.955 249.438 138.009C250.8 138.226 251.75 138.848 251.708 138.908C251.67 138.985 250.693 138.498 249.393 138.293C248.752 138.17 248.174 138.291 247.907 138.608C247.624 138.905 247.663 139.199 247.618 139.199Z" fill="#263238"/>
<path d="M245.864 120.379C245.916 120.409 245.187 121.128 244.82 122.655C244.626 123.409 244.529 124.335 244.451 125.37C244.374 126.402 244.321 127.542 244.453 128.721C244.772 131.074 245.542 133.141 246.312 134.487C246.702 135.165 247.052 135.696 247.301 136.055C247.55 136.416 247.709 136.598 247.695 136.613C247.658 136.651 246.967 135.939 246.138 134.591C245.305 133.237 244.495 131.163 244.168 128.753C244.032 127.544 244.095 126.386 244.188 125.348C244.279 124.312 244.4 123.369 244.623 122.603C244.838 121.834 245.148 121.255 245.405 120.893C245.665 120.531 245.853 120.369 245.864 120.379Z" fill="#263238"/>
<path d="M248.14 127.145C248.171 127.125 248.449 127.499 248.83 128.151C249.209 128.801 249.678 129.737 250.066 130.824C250.454 131.911 250.679 132.935 250.788 133.68C250.898 134.427 250.907 134.894 250.872 134.898C250.781 134.911 250.566 133.061 249.796 130.92C249.034 128.778 248.057 127.192 248.14 127.145Z" fill="#263238"/>
<path d="M246.912 130.485C246.973 130.441 247.816 131.458 248.933 132.651C250.046 133.848 250.933 134.84 250.872 134.898C250.818 134.949 249.84 134.049 248.722 132.846C247.598 131.645 246.843 130.532 246.912 130.485Z" fill="#263238"/>
<path d="M260.158 144.63C260.16 144.633 260.13 144.657 260.072 144.7C259.989 144.76 259.903 144.82 259.812 144.885C259.587 145.047 259.246 145.259 258.814 145.5C257.95 145.983 256.684 146.537 255.208 146.885C253.731 147.229 252.351 147.295 251.362 147.245C250.868 147.221 250.468 147.182 250.195 147.137C250.084 147.12 249.981 147.104 249.88 147.088C249.809 147.075 249.771 147.066 249.771 147.063C249.772 147.058 249.81 147.059 249.883 147.065C249.985 147.073 250.089 147.083 250.2 147.093C250.474 147.124 250.873 147.15 251.365 147.164C252.349 147.193 253.717 147.114 255.183 146.773C256.646 146.428 257.907 145.891 258.776 145.428C259.21 145.198 259.556 144.997 259.788 144.848C259.883 144.79 259.973 144.734 260.059 144.682C260.122 144.645 260.156 144.626 260.158 144.63Z" fill="#FAFAFA"/>
<path d="M262.813 151.56C262.815 151.563 262.785 151.587 262.726 151.63C262.642 151.688 262.556 151.748 262.464 151.812C262.237 151.971 261.894 152.181 261.461 152.422C260.596 152.906 259.336 153.472 257.871 153.862C256.403 154.249 255.028 154.38 254.037 154.388C253.542 154.392 253.14 154.379 252.864 154.353C252.753 154.343 252.647 154.334 252.546 154.324C252.474 154.316 252.436 154.311 252.437 154.307C252.437 154.302 252.475 154.301 252.548 154.301C252.649 154.303 252.755 154.306 252.866 154.308C253.142 154.32 253.543 154.322 254.036 154.307C255.022 154.278 256.384 154.135 257.841 153.751C259.297 153.363 260.552 152.815 261.423 152.351C261.859 152.12 262.206 151.921 262.44 151.774C262.536 151.717 262.626 151.663 262.713 151.61C262.777 151.575 262.81 151.557 262.813 151.56Z" fill="#FAFAFA"/>
<path d="M261.066 161.177C261.07 161.184 260.981 161.238 260.818 161.328C260.656 161.421 260.413 161.54 260.107 161.675C259.495 161.944 258.615 162.243 257.607 162.416C256.598 162.586 255.668 162.595 255.002 162.543C254.669 162.518 254.4 162.485 254.217 162.452C254.032 162.42 253.932 162.399 253.933 162.391C253.934 162.384 254.037 162.389 254.222 162.407C254.407 162.427 254.675 162.447 255.007 162.462C255.669 162.493 256.589 162.472 257.588 162.303C258.585 162.132 259.461 161.848 260.075 161.599C260.383 161.476 260.63 161.368 260.798 161.288C260.967 161.211 261.062 161.17 261.066 161.177Z" fill="#FAFAFA"/>
<path d="M263.059 159.857C263.062 159.889 262.722 159.95 262.299 159.993C261.877 160.038 261.531 160.047 261.528 160.015C261.525 159.984 261.865 159.923 262.287 159.88C262.71 159.836 263.055 159.825 263.059 159.857Z" fill="#FAFAFA"/>
<path d="M256.611 170.781C256.612 170.81 256.042 170.847 255.352 170.734C254.66 170.624 254.132 170.409 254.143 170.382C254.154 170.349 254.69 170.512 255.37 170.621C256.05 170.732 256.611 170.747 256.611 170.781Z" fill="#FAFAFA"/>
<path d="M248.7 141.146C248.713 141.175 248.367 141.356 247.927 141.551C247.487 141.746 247.12 141.88 247.107 141.851C247.094 141.822 247.44 141.641 247.881 141.446C248.321 141.251 248.688 141.117 248.7 141.146Z" fill="#FAFAFA"/>
<path d="M246.476 135.141C246.487 135.178 245.661 135.348 244.781 135.87C243.896 136.384 243.344 137.022 243.318 136.994C243.307 136.986 243.431 136.815 243.671 136.576C243.912 136.336 244.276 136.035 244.723 135.772C245.171 135.509 245.612 135.339 245.939 135.246C246.265 135.153 246.474 135.128 246.476 135.141Z" fill="#FAFAFA"/>
<path d="M250.867 141.96C250.83 141.951 251.085 141.225 251.042 140.298C251.009 139.369 250.694 138.667 250.73 138.655C250.742 138.65 250.836 138.816 250.938 139.109C251.039 139.4 251.136 139.82 251.156 140.293C251.175 140.765 251.113 141.193 251.036 141.491C250.96 141.791 250.879 141.964 250.867 141.96Z" fill="#FAFAFA"/>
<path d="M269.428 125.533C269.428 125.533 269.214 125.765 268.77 126.121C268.328 126.479 267.646 126.948 266.742 127.417C265.839 127.886 264.713 128.343 263.441 128.774C262.17 129.209 260.753 129.624 259.306 130.169C257.863 130.716 256.528 131.369 255.46 132.174C254.392 132.977 253.593 133.905 253.077 134.772C252.563 135.643 252.32 136.438 252.225 136.993C252.128 137.551 252.14 137.868 252.122 137.867C252.122 137.867 252.118 137.788 252.122 137.639C252.121 137.488 252.143 137.268 252.181 136.986C252.264 136.423 252.496 135.616 253.007 134.731C253.519 133.849 254.32 132.905 255.397 132.089C256.472 131.271 257.815 130.611 259.265 130.062C260.719 129.515 262.137 129.102 263.407 128.673C264.679 128.249 265.802 127.802 266.706 127.345C267.61 126.887 268.295 126.431 268.743 126.086C268.967 125.912 269.139 125.775 269.25 125.675C269.364 125.579 269.428 125.533 269.428 125.533Z" fill="#FAFAFA"/>
<path d="M267.373 131.922C267.376 131.924 267.347 131.965 267.289 132.04C267.209 132.14 267.125 132.246 267.03 132.365C266.807 132.647 266.461 133.04 266.015 133.506C265.126 134.439 263.785 135.632 262.129 136.704C260.469 137.771 258.829 138.5 257.612 138.925C257.003 139.139 256.504 139.293 256.154 139.379C256.007 139.416 255.875 139.45 255.751 139.481C255.659 139.503 255.61 139.513 255.609 139.509C255.608 139.505 255.655 139.488 255.746 139.459C255.867 139.421 255.997 139.381 256.142 139.336C256.487 139.236 256.981 139.072 257.584 138.849C258.79 138.406 260.416 137.669 262.067 136.607C263.715 135.542 265.056 134.365 265.957 133.449C266.409 132.992 266.762 132.609 266.996 132.336C267.096 132.223 267.186 132.12 267.271 132.025C267.335 131.955 267.37 131.919 267.373 131.922Z" fill="#FAFAFA"/>
<path d="M245.12 122.197C245.12 122.197 245.775 122.515 246.708 123.225C247.64 123.929 248.82 125.069 249.809 126.564C250.793 128.063 251.375 129.595 251.656 130.73C251.94 131.868 251.974 132.594 251.974 132.594C251.971 132.595 251.96 132.551 251.943 132.466C251.923 132.351 251.902 132.229 251.878 132.096C251.829 131.774 251.729 131.312 251.578 130.751C251.278 129.628 250.689 128.114 249.713 126.627C248.731 125.144 247.572 124.006 246.658 123.289C246.201 122.928 245.817 122.654 245.54 122.482C245.427 122.408 245.324 122.34 245.226 122.276C245.155 122.227 245.118 122.2 245.12 122.197Z" fill="#FAFAFA"/>
<path d="M215.767 140.442C215.727 143.372 213.577 145.805 211.449 147.819C209.32 149.834 206.966 151.921 206.294 154.774C205.105 159.829 209.701 165.021 208.224 170C207.432 172.668 205.017 174.657 204.381 177.366C203.764 179.987 204.96 182.709 206.546 184.884C208.133 187.059 210.201 186.943 211.57 189.261C213.011 191.703 215.45 194.292 217.81 195.866C223.158 199.434 230.29 195.573 233.07 195.011" fill="#263238"/>
<path d="M257.209 156.091C259.897 155.19 260.912 145.927 254.509 144.287C251.94 143.629 249.881 142.167 247.818 140.501C245.993 139.025 245.707 135.661 244.21 133.852C240.539 129.416 234.396 127.172 228.73 128.198C223.063 129.224 218.097 133.478 216.213 138.92C214.94 142.597 215.196 147.099 217.941 149.857C221.128 153.059 226.284 152.861 230.771 152.344C235.258 151.828 240.325 151.374 243.778 154.285C245.861 156.04 246.912 158.691 248.062 161.16C249.213 163.628 250.707 166.176 253.195 167.285C253.195 167.285 254.747 172.046 252.872 175.102C250.998 178.158 254.945 173.012 254.945 173.012C254.945 173.012 262.255 162.317 257.209 156.091Z" fill="#263238"/>
<path d="M218.6 218.345C219.095 212.283 220.621 195.273 220.616 195.304C220.616 195.304 211.134 192.842 210.266 180.104C209.834 173.769 211.067 163.557 212.345 155.233C213.496 147.742 219.318 138.945 226.754 140.413L249.665 148.441C251.924 148.886 253.466 150.987 253.215 153.276L246.697 211.349L218.6 218.345Z" fill="#FFBE9D"/>
<path d="M215.706 162.761C215.6 163.609 216.23 164.398 217.113 164.525C217.996 164.652 218.798 164.07 218.904 163.222C219.01 162.374 218.381 161.584 217.499 161.457C216.615 161.33 215.813 161.914 215.706 162.761Z" fill="#263238"/>
<path d="M214.089 160.76C214.269 160.987 215.571 160.194 217.304 160.354C219.037 160.489 220.229 161.495 220.436 161.299C220.537 161.214 220.368 160.816 219.85 160.364C219.34 159.913 218.446 159.439 217.365 159.347C216.286 159.256 215.341 159.572 214.783 159.932C214.213 160.293 213.999 160.657 214.089 160.76Z" fill="#263238"/>
<path d="M230.885 165.013C231.066 165.241 232.37 164.448 234.101 164.607C235.833 164.742 237.026 165.748 237.233 165.553C237.334 165.468 237.166 165.071 236.646 164.617C236.137 164.166 235.243 163.693 234.163 163.6C233.082 163.509 232.139 163.825 231.58 164.185C231.012 164.546 230.796 164.911 230.885 165.013Z" fill="#263238"/>
<path d="M223.653 174.901C223.67 174.803 222.609 174.521 220.883 174.14C220.445 174.055 220.034 173.929 219.986 173.621C219.91 173.292 220.139 172.831 220.4 172.335C220.912 171.302 221.448 170.218 222.01 169.083C224.258 164.448 225.928 160.62 225.741 160.532C225.554 160.443 223.579 164.127 221.331 168.762C220.788 169.906 220.268 170.997 219.773 172.04C219.56 172.528 219.221 173.073 219.387 173.757C219.477 174.098 219.781 174.367 220.057 174.469C220.333 174.581 220.582 174.608 220.8 174.641C222.548 174.893 223.637 174.999 223.653 174.901Z" fill="#263238"/>
<path d="M220.616 195.303C220.616 195.303 229.016 196.606 237.838 192.326C237.694 192.344 232.441 200.653 220.519 198.284L220.616 195.303Z" fill="#EB996E"/>
<path d="M223.716 179.949C223.602 178.864 224.887 178.628 225.861 178.135C226.834 177.643 227.43 176.927 228.237 177.66C228.698 178.079 229.004 178.65 229.175 179.249C229.29 179.652 229.346 180.085 229.24 180.491C229.111 180.985 228.755 181.389 228.355 181.706C227.791 182.155 227.107 182.47 226.388 182.526C225.669 182.582 224.917 182.363 224.392 181.869C223.866 181.375 223.6 180.598 223.781 179.899" fill="#EB996E"/>
<path d="M228.646 176.558C228.366 176.516 228.193 178.397 226.463 179.588C224.736 180.784 222.748 180.392 222.711 180.654C222.674 180.77 223.125 181.059 223.968 181.158C224.797 181.262 226.033 181.103 227.092 180.375C228.148 179.644 228.668 178.589 228.801 177.823C228.944 177.044 228.775 176.558 228.646 176.558Z" fill="#263238"/>
<path d="M230.967 161.118C231.096 161.604 232.847 161.536 234.858 161.964C236.878 162.35 238.464 163.093 238.772 162.694C238.911 162.503 238.664 162.034 238.043 161.519C237.426 161.004 236.416 160.477 235.207 160.232C233.999 159.988 232.864 160.082 232.096 160.317C231.323 160.55 230.914 160.887 230.967 161.118Z" fill="#263238"/>
<path d="M214.854 154.785C215.124 155.206 216.354 154.904 217.793 155.014C219.234 155.073 220.42 155.516 220.737 155.129C220.877 154.941 220.721 154.529 220.223 154.109C219.734 153.691 218.885 153.309 217.895 153.25C216.906 153.193 216.019 153.472 215.483 153.831C214.941 154.19 214.738 154.58 214.854 154.785Z" fill="#263238"/>
<path d="M251.304 190.93C247.789 191.324 247.635 189.539 245.263 186.914C242.892 184.289 241.881 180.497 242.629 177.039C243.29 173.989 245.228 170.995 244.414 167.982C243.338 163.997 238.029 162.336 236.93 158.358C236.291 156.046 237.27 153.492 236.516 151.215C235.807 149.074 233.74 147.696 231.693 146.747C229.647 145.798 227.427 145.072 225.774 143.538C224.12 142.003 223.242 139.304 224.556 137.471C233.828 139.413 242.868 142.466 251.421 146.541C253.404 147.487 255.477 148.595 256.53 150.523C257.644 152.564 257.364 155.049 257.054 157.353C255.54 168.586 254.027 179.819 252.514 191.052" fill="#263238"/>
<path d="M259.677 187.414C259.685 187.421 259.736 187.372 259.828 187.27C259.916 187.164 260.069 187.022 260.219 186.798C260.542 186.368 260.948 185.664 261.239 184.674C261.528 183.689 261.66 182.391 261.362 180.947C261.092 179.508 260.245 177.914 258.782 176.759C257.384 175.578 255.507 174.676 254.42 172.897C253.877 172.026 253.709 170.944 253.997 169.887C254.259 168.824 254.844 167.81 255.374 166.723C256.532 164.556 256.787 161.746 255.869 159.209C255.404 157.947 254.658 156.744 253.598 155.82C252.547 154.87 251.212 154.312 249.884 153.885C248.551 153.456 247.21 153.157 245.983 152.667C244.76 152.181 243.608 151.513 242.812 150.553C241.992 149.603 241.719 148.362 241.655 147.131C241.59 145.901 241.609 144.633 241.383 143.427C240.975 141.018 239.96 138.826 238.513 137.188C237.067 135.541 235.209 134.506 233.408 134.074C231.601 133.628 229.845 133.816 228.488 134.384C227.117 134.937 226.126 135.783 225.466 136.57C224.808 137.367 224.469 138.106 224.297 138.615C224.121 139.126 224.104 139.413 224.104 139.413C224.183 139.454 224.305 138.243 225.63 136.711C226.294 135.969 227.274 135.176 228.602 134.673C229.915 134.155 231.588 134.004 233.314 134.454C235.032 134.891 236.802 135.904 238.167 137.49C239.537 139.07 240.5 141.183 240.88 143.512C241.091 144.677 241.066 145.885 241.127 147.164C241.181 148.422 241.479 149.837 242.393 150.899C243.276 151.966 244.508 152.671 245.779 153.179C247.064 153.693 248.409 153.991 249.715 154.413C251.013 154.83 252.268 155.361 253.234 156.234C254.217 157.087 254.918 158.209 255.359 159.395C256.226 161.791 256.011 164.418 254.915 166.501C254.403 167.571 253.803 168.612 253.523 169.772C253.211 170.922 253.418 172.193 254.027 173.133C255.239 175.055 257.176 175.932 258.534 177.063C259.954 178.156 260.764 179.629 261.059 181.014C261.374 182.394 261.28 183.654 261.03 184.618C260.512 186.576 259.598 187.372 259.677 187.414Z" fill="#455A64"/>
<path d="M244.425 173.502C241.008 179.799 239.822 187.279 241.125 194.324C241.513 196.429 242.112 198.628 241.445 200.662C240.722 202.864 238.701 204.325 237.168 206.062C234.528 209.053 233.238 213.192 233.714 217.152C234.189 221.113 236.422 224.829 239.695 227.109C240.238 225.075 242.283 223.835 244.257 223.103C246.231 222.37 248.384 221.887 249.962 220.494C251.54 219.101 252.194 216.35 250.623 214.948C255.569 214.109 258.812 208.604 258.222 203.621C257.633 198.639 253.991 194.426 249.651 191.91" fill="#263238"/>
<path d="M245.313 222.733C244.407 223.131 243.531 223.482 243.339 224.453C243.113 225.592 244.039 227.708 244.341 228.83C244.93 231.024 244.122 233.53 242.362 234.967C240.601 236.405 237.984 236.695 235.952 235.679C237.489 235.933 238.934 234.538 239.207 233.004C239.48 231.471 238.861 229.913 238.047 228.584C237.234 227.255 236.215 226.048 235.549 224.638C234.196 221.771 232.481 214.14 234.665 210.141" fill="#263238"/>
<path d="M250.41 215.122C250.405 215.113 250.515 215.036 250.729 214.898C250.944 214.761 251.256 214.552 251.652 214.274C252.439 213.717 253.56 212.867 254.731 211.602C255.895 210.343 257.122 208.645 257.874 206.498C258.614 204.368 258.881 201.772 258.151 199.254C257.787 197.999 257.18 196.863 256.444 195.87C255.717 194.87 254.907 193.983 254.15 193.123C253.391 192.264 252.678 191.431 252.101 190.58C251.522 189.727 251.105 188.854 250.836 188.02C250.274 186.352 250.376 184.86 250.705 183.941C250.871 183.48 251.058 183.146 251.207 182.937C251.357 182.728 251.44 182.623 251.447 182.629C251.484 182.65 251.109 183.062 250.811 183.976C250.523 184.884 250.454 186.331 251.028 187.956C251.303 188.767 251.723 189.617 252.297 190.445C252.872 191.276 253.585 192.095 254.348 192.947C255.109 193.8 255.929 194.689 256.672 195.705C257.423 196.711 258.053 197.884 258.427 199.174C259.177 201.763 258.892 204.417 258.123 206.586C257.342 208.775 256.076 210.484 254.879 211.741C253.674 213.003 252.525 213.835 251.715 214.367C251.307 214.632 250.984 214.826 250.759 214.947C250.535 215.071 250.415 215.131 250.41 215.122Z" fill="#455A64"/>
<path d="M261.683 372.505C278.029 373.936 292.44 361.843 293.87 345.497C295.301 329.15 283.208 314.739 266.862 313.309C250.515 311.879 236.104 323.971 234.674 340.318C233.244 356.664 245.336 371.075 261.683 372.505Z" fill="#1EA788"/>
<path d="M243.808 344.296L243.96 341.569L260.909 351.157L284.353 333.894L285.111 338.177C285.228 338.84 285.003 339.517 284.512 339.978L262.22 360.87C260.55 362.435 257.918 362.316 256.398 360.605L245.04 347.83C244.178 346.862 243.736 345.591 243.808 344.296Z" fill="#D5D5D5"/>
<g opacity="0.3">
<path d="M243.809 344.296L243.961 341.569L260.91 351.157L284.354 333.894L285.112 338.177C285.229 338.84 285.004 339.517 284.513 339.978L262.221 360.87C260.551 362.435 257.919 362.316 256.399 360.605L245.041 347.83C244.179 346.862 243.737 345.591 243.809 344.296Z" fill="#D5D5D5"/>
</g>
<path d="M244.402 340.392L248.54 336.623C249.132 336.084 250.043 336.1 250.616 336.659L259.421 345.255C260.005 345.825 260.935 345.829 261.525 345.265L278.352 329.153C278.983 328.549 279.991 328.602 280.555 329.269L283.93 333.262C284.45 333.877 284.396 334.792 283.808 335.343L262.028 355.757C260.561 357.132 258.262 357.071 256.871 355.621L244.33 342.558C243.74 341.945 243.773 340.965 244.402 340.392Z" fill="white"/>
<path d="M258.314 346.205C258.302 346.216 258.129 346.071 257.825 345.798C257.493 345.492 257.066 345.099 256.555 344.628C255.489 343.632 254.028 342.244 252.424 340.702C252.023 340.316 251.633 339.939 251.255 339.574C251.067 339.392 250.881 339.212 250.7 339.036C250.523 338.859 250.344 338.724 250.132 338.634C249.716 338.452 249.25 338.474 248.88 338.631C248.505 338.78 248.247 339.099 247.967 339.336C247.451 339.802 247.019 340.19 246.683 340.492C246.377 340.762 246.202 340.905 246.191 340.893C246.181 340.882 246.334 340.716 246.622 340.427C246.944 340.11 247.358 339.704 247.855 339.217C247.987 339.089 248.124 338.956 248.266 338.819C248.415 338.676 248.596 338.545 248.804 338.454C249.215 338.27 249.74 338.237 250.215 338.437C250.451 338.532 250.674 338.698 250.853 338.877C251.036 339.051 251.223 339.229 251.412 339.41C251.792 339.774 252.183 340.149 252.585 340.535C254.189 342.077 255.632 343.483 256.669 344.509C257.16 345.002 257.569 345.413 257.888 345.733C258.173 346.026 258.324 346.193 258.314 346.205Z" fill="white"/>
<path d="M262.438 346.629C262.393 346.583 266.033 342.95 270.567 338.515C275.103 334.079 278.816 330.521 278.86 330.567C278.905 330.613 275.265 334.245 270.73 338.681C266.196 343.116 262.483 346.675 262.438 346.629Z" fill="white"/>
<defs>
<filter id="filter0_dd_6466_1878" x="-0.00878906" y="0.664001" width="160.882" height="263.865" filterUnits="userSpaceOnUse" color-interpolation-filters="sRGB">
<feFlood flood-opacity="0" result="BackgroundImageFix"/>
<feColorMatrix in="SourceAlpha" type="matrix" values="0 0 0 0 0 0 0 0 0 0 0 0 0 0 0 0 0 0 127 0" result="hardAlpha"/>
<feOffset dy="2"/>
<feGaussianBlur stdDeviation="2"/>
<feComposite in2="hardAlpha" operator="out"/>
<feColorMatrix type="matrix" values="0 0 0 0 0.219608 0 0 0 0 0.25098 0 0 0 0 0.298039 0 0 0 0.04 0"/>
<feBlend mode="normal" in2="BackgroundImageFix" result="effect1_dropShadow_6466_1878"/>
<feColorMatrix in="SourceAlpha" type="matrix" values="0 0 0 0 0 0 0 0 0 0 0 0 0 0 0 0 0 0 127 0" result="hardAlpha"/>
<feOffset dy="2"/>
<feGaussianBlur stdDeviation="2"/>
<feComposite in2="hardAlpha" operator="out"/>
<feColorMatrix type="matrix" values="0 0 0 0 0.219608 0 0 0 0 0.25098 0 0 0 0 0.298039 0 0 0 0.16 0"/>
<feBlend mode="normal" in2="effect1_dropShadow_6466_1878" result="effect2_dropShadow_6466_1878"/>
<feBlend mode="normal" in="SourceGraphic" in2="effect2_dropShadow_6466_1878" result="shape"/>
</filter>
<filter id="filter1_dd_6466_1878" x="122.673" y="61.1456" width="213.457" height="325.639" filterUnits="userSpaceOnUse" color-interpolation-filters="sRGB">
<feFlood flood-opacity="0" result="BackgroundImageFix"/>
<feColorMatrix in="SourceAlpha" type="matrix" values="0 0 0 0 0 0 0 0 0 0 0 0 0 0 0 0 0 0 127 0" result="hardAlpha"/>
<feOffset dy="2"/>
<feGaussianBlur stdDeviation="2"/>
<feComposite in2="hardAlpha" operator="out"/>
<feColorMatrix type="matrix" values="0 0 0 0 0.219608 0 0 0 0 0.25098 0 0 0 0 0.298039 0 0 0 0.04 0"/>
<feBlend mode="normal" in2="BackgroundImageFix" result="effect1_dropShadow_6466_1878"/>
<feColorMatrix in="SourceAlpha" type="matrix" values="0 0 0 0 0 0 0 0 0 0 0 0 0 0 0 0 0 0 127 0" result="hardAlpha"/>
<feOffset dy="2"/>
<feGaussianBlur stdDeviation="2"/>
<feComposite in2="hardAlpha" operator="out"/>
<feColorMatrix type="matrix" values="0 0 0 0 0.219608 0 0 0 0 0.25098 0 0 0 0 0.298039 0 0 0 0.16 0"/>
<feBlend mode="normal" in2="effect1_dropShadow_6466_1878" result="effect2_dropShadow_6466_1878"/>
<feBlend mode="normal" in="SourceGraphic" in2="effect2_dropShadow_6466_1878" result="shape"/>
</filter>
</defs>
</svg>
