<svg width="350" height="415" viewBox="0 0 350 415" fill="none" xmlns="http://www.w3.org/2000/svg">
<path fill-rule="evenodd" clip-rule="evenodd" d="M290.565 0C293.277 0 295.881 1.07793 297.799 2.99672C299.719 4.91529 300.796 7.51772 300.796 10.2312C300.796 67.4604 300.796 347.389 300.796 404.618C300.796 407.331 299.719 409.935 297.799 411.853C295.881 413.771 293.277 414.848 290.565 414.848C244.467 414.848 56.3276 414.848 10.231 414.848C7.51754 414.848 4.9152 413.771 2.99661 411.853C1.07777 409.935 0 407.331 0 404.618C0 347.389 0 67.4604 0 10.2312C0 7.51772 1.07777 4.91529 2.99661 2.99672C4.9152 1.07793 7.51754 0 10.231 0C56.3276 0 244.467 0 290.565 0Z" fill="#EAEAEA" fill-opacity="0.2"/>
<path fill-rule="evenodd" clip-rule="evenodd" d="M283.41 6.59985C289.061 6.59985 293.642 11.1805 293.642 16.831V398.018C293.642 403.668 289.061 408.248 283.41 408.248H17.3844C11.734 408.248 7.15332 403.668 7.15332 398.018V16.831C7.15332 11.1805 11.734 6.59985 17.3844 6.59985H283.41Z" fill="white" fill-opacity="0.3"/>
<g opacity="0.3">
<path d="M35.6069 19.3345C34.5104 17.3864 32.5906 15.8151 30.3199 15.2511L17.9725 24.7871C17.6266 26.4463 20.5552 30.6064 22.1501 31.4781C24.3002 32.6528 26.3267 33.1634 28.1678 33.0222C30.9219 32.8108 32.1231 32.2955 33.9034 30.9927C35.6877 29.6861 36.3595 27.8614 36.6795 25.7598C37.0114 23.5778 36.7044 21.2836 35.6069 19.3345Z" fill="black"/>
</g>
<path d="M35.0444 21.6595C35.0444 26.1553 31.1589 29.801 26.3663 29.801C21.5746 29.801 17.6901 26.1553 17.6901 21.6595C17.6901 17.1637 21.5746 13.517 26.3663 13.517C31.1589 13.517 35.0444 17.1637 35.0444 21.6595Z" fill="#EBEBEB"/>
<path d="M31.0355 23.1015C30.9339 23.2184 29.0688 21.7418 26.3639 20.6012C23.6674 19.4365 21.2574 19.0877 21.2841 18.9378C21.2835 18.8194 23.7968 18.9574 26.5781 20.1573C29.3693 21.3367 31.1315 23.0232 31.0355 23.1015Z" fill="#1B3D4C"/>
<path d="M29.6412 17.4202C29.6731 17.495 29.1119 17.7289 28.3125 18.2423C27.511 18.7511 26.4983 19.5891 25.663 20.7264C24.8336 21.8693 24.3661 23.058 24.1498 23.9419C23.9275 24.8276 23.8976 25.4027 23.8119 25.4018C23.7551 25.4046 23.6524 24.8201 23.789 23.8783C23.9206 22.9402 24.3581 21.657 25.2353 20.4514C26.1165 19.2496 27.2329 18.4032 28.1181 17.9496C29.0052 17.4904 29.6233 17.3688 29.6412 17.4202Z" fill="#1B3D4C"/>
<g opacity="0.3">
<path d="M282.597 384.791C281.5 382.841 279.581 381.271 277.31 380.707L264.963 390.242C264.616 391.902 267.545 396.062 269.141 396.933C271.29 398.109 273.317 398.619 275.158 398.478C277.912 398.267 279.114 397.751 280.893 396.449C282.678 395.142 283.349 393.317 283.669 391.215C284.001 389.034 283.694 386.739 282.597 384.791Z" fill="black"/>
</g>
<path d="M282.035 387.116C282.035 391.612 278.15 395.256 273.357 395.256C268.565 395.256 264.681 391.612 264.681 387.116C264.681 382.619 268.565 378.974 273.357 378.974C278.15 378.974 282.035 382.619 282.035 387.116Z" fill="#EBEBEB"/>
<path d="M278.026 388.557C277.925 388.674 276.059 387.198 273.354 386.056C270.657 384.891 268.248 384.542 268.274 384.394C268.274 384.275 270.787 384.413 273.568 385.614C276.359 386.792 278.122 388.479 278.026 388.557Z" fill="#1B3D4C"/>
<path d="M276.632 382.876C276.663 382.95 276.103 383.184 275.302 383.698C274.502 384.207 273.489 385.044 272.654 386.182C271.824 387.324 271.357 388.513 271.139 389.398C270.918 390.283 270.887 390.858 270.803 390.858C270.746 390.86 270.642 390.276 270.78 389.333C270.911 388.395 271.348 387.113 272.225 385.907C273.107 384.705 274.224 383.859 275.109 383.405C275.995 382.945 276.613 382.825 276.632 382.876Z" fill="#1B3D4C"/>
<g opacity="0.3">
<path d="M286.306 23.3926C286.223 21.19 285.222 18.9921 283.44 17.5574L268.324 20.5269C267.242 21.8793 267.525 27.3936 268.558 28.8302C269.948 30.7662 271.537 32.0531 273.259 32.6779C275.836 33.6122 277.157 33.6394 279.364 33.1932C281.576 32.7452 283.027 31.3769 284.291 29.6149C285.602 27.7864 286.39 25.5951 286.306 23.3926Z" fill="black"/>
</g>
<path d="M284.72 25.2557C282.635 29.3034 277.447 30.9986 273.132 29.0414C268.818 27.0847 267.011 22.217 269.096 18.1689C271.183 14.1208 276.371 12.4256 280.686 14.3827C285 16.3394 286.806 21.2072 284.72 25.2557Z" fill="#EBEBEB"/>
<path d="M280.444 24.9175C280.298 24.9806 279.303 22.8908 277.397 20.7573C275.511 18.6084 273.502 17.3088 273.595 17.186C273.65 17.0799 275.848 18.2304 277.797 20.446C279.76 22.6475 280.566 24.8856 280.444 24.9175Z" fill="#1B3D4C"/>
<path d="M281.823 19.2323C281.816 19.3127 281.203 19.294 280.245 19.4296C279.288 19.5615 277.987 19.902 276.708 20.5847C275.431 21.2749 274.459 22.1541 273.854 22.8621C273.244 23.5682 272.95 24.0742 272.873 24.0387C272.82 24.0171 272.998 23.4494 273.559 22.6573C274.112 21.866 275.101 20.8896 276.45 20.162C277.801 19.4399 279.199 19.135 280.206 19.0873C281.218 19.0359 281.831 19.179 281.823 19.2323Z" fill="#1B3D4C"/>
<g opacity="0.3">
<path d="M33.1529 391.25C33.0701 389.049 32.0693 386.851 30.287 385.415L15.1705 388.385C14.089 389.738 14.3731 395.252 15.4048 396.688C16.7953 398.624 18.3832 399.911 20.1057 400.536C22.6834 401.47 24.0042 401.496 26.2111 401.051C28.423 400.603 29.8744 399.235 31.1383 397.473C32.4491 395.644 33.2356 393.452 33.1529 391.25Z" fill="black"/>
</g>
<path d="M31.5659 393.114C29.4812 397.162 24.2927 398.858 19.9783 396.899C15.6634 394.942 13.8569 390.074 15.9433 386.027C18.0284 381.978 23.2169 380.282 27.5313 382.24C31.8453 384.197 33.6527 389.065 31.5659 393.114Z" fill="#EBEBEB"/>
<path d="M27.2892 392.776C27.1436 392.838 26.1491 390.749 24.2428 388.616C22.3559 386.467 20.3472 385.168 20.44 385.045C20.4958 384.938 22.6938 386.089 24.6414 388.305C26.6062 390.505 27.4119 392.745 27.2892 392.776Z" fill="#1B3D4C"/>
<path d="M28.6691 387.09C28.6631 387.171 28.0491 387.152 27.0912 387.288C26.1342 387.421 24.8334 387.76 23.5535 388.443C22.2766 389.133 21.3057 390.012 20.6997 390.72C20.0896 391.426 19.7956 391.932 19.7188 391.897C19.666 391.875 19.8444 391.308 20.4046 390.514C20.9578 389.724 21.9467 388.748 23.2953 388.02C24.647 387.298 26.0455 386.993 27.0523 386.945C28.064 386.894 28.6771 387.037 28.6691 387.09Z" fill="#1B3D4C"/>
<path d="M145.588 81.8208C78.4337 81.8208 23.7995 136.454 23.7995 203.609C23.7995 270.763 78.4337 325.396 145.588 325.396C212.742 325.396 267.375 270.763 267.375 203.609C267.375 136.454 212.742 81.8208 145.588 81.8208ZM145.588 326.42C77.87 326.42 22.7764 271.327 22.7764 203.609C22.7764 135.89 77.87 80.7976 145.588 80.7976C213.306 80.7976 268.398 135.89 268.398 203.609C268.398 271.327 213.306 326.42 145.588 326.42Z" fill="#DBDBDB" fill-opacity="0.4"/>
<path d="M260.298 204.346C260.298 267.866 208.805 319.361 145.283 319.361C81.7636 319.361 30.2693 267.866 30.2693 204.346C30.2693 140.825 81.7636 89.3309 145.283 89.3309C208.805 89.3309 260.298 140.825 260.298 204.346Z" fill="#DBDBDB" fill-opacity="0.4"/>
<path d="M106.598 119.633C110.283 94.0842 117.381 62.3981 153.885 65.0093C153.885 65.0093 187.064 68.5821 189.921 92.7141C192.682 116.032 205.871 133.834 193.975 155.271C187.118 167.625 190.097 170.97 206.146 183.389C217.21 191.949 210.516 243.637 206.249 255.725L91.0001 248.133C80.6505 238.006 84.6886 225.315 89.2521 212.325C93.5037 200.222 97.3729 188.189 94.5221 176.025C93.3179 170.886 93.0322 165.55 94.3992 159.389C97.3975 145.867 105.405 127.902 106.598 119.633Z" fill="#1B3D4C"/>
<path d="M185.531 140.313C187.563 130.664 187.181 117.387 186.609 104.322C185.818 86.2399 173.275 75.3159 158.742 75.3343L156.458 73.1578L131.777 83.1034C128.208 83.3015 125.382 86.1984 125.272 89.7727L128.212 172.658L109.072 177.999L124.053 200.085L150.898 212.163L164.841 200.047L180.144 188.167L181.427 178.08L166.328 173.799C166.328 173.799 166.328 161.387 166.33 161.453C166.33 161.453 181.445 159.716 185.531 140.313Z" fill="#FFC19D"/>
<path d="M155.558 116.391C155.538 117.718 154.398 118.794 153.013 118.801C151.629 118.806 150.52 117.736 150.54 116.409C150.56 115.082 151.7 114.004 153.083 113.998C154.47 113.993 155.578 115.064 155.558 116.391Z" fill="#1B3D4C"/>
<path d="M180.014 117.222C179.993 118.549 178.854 119.627 177.469 119.632C176.085 119.637 174.976 118.567 174.995 117.24C175.016 115.914 176.155 114.835 177.539 114.83C178.924 114.825 180.034 115.896 180.014 117.222Z" fill="#1B3D4C"/>
<path d="M184.028 109.49C183.701 109.802 181.871 108.3 179.171 108.172C176.477 108.005 174.425 109.295 174.15 108.949C174.013 108.796 174.36 108.221 175.253 107.636C176.133 107.054 177.612 106.518 179.294 106.608C180.974 106.702 182.358 107.393 183.139 108.068C183.937 108.745 184.189 109.35 184.028 109.49Z" fill="#1B3D4C"/>
<path d="M157.914 109.77C157.556 110.046 155.887 108.364 153.217 107.96C150.554 107.516 148.382 108.588 148.142 108.217C148.024 108.049 148.423 107.513 149.376 107.025C150.311 106.535 151.836 106.154 153.5 106.418C155.162 106.684 156.467 107.512 157.175 108.263C157.897 109.018 158.088 109.648 157.914 109.77Z" fill="#1B3D4C"/>
<path d="M166.065 129.418C166.061 129.265 167.752 129.059 170.489 128.847C171.182 128.81 171.841 128.706 171.981 128.242C172.168 127.752 171.918 126.995 171.623 126.176C171.059 124.476 170.468 122.694 169.847 120.824C167.393 113.21 165.651 106.964 165.958 106.867C166.265 106.772 168.506 112.865 170.962 120.479C171.551 122.356 172.114 124.145 172.65 125.856C172.872 126.654 173.275 127.564 172.872 128.58C172.661 129.087 172.136 129.434 171.689 129.532C171.24 129.644 170.852 129.632 170.509 129.635C167.766 129.646 166.069 129.572 166.065 129.418Z" fill="#1B3D4C"/>
<path d="M166.33 161.453C166.33 161.453 153.13 161.642 140.485 153.153C140.485 153.153 146.662 167.061 166.33 166.212V161.453Z" fill="#FF9C6A"/>
<path d="M163.599 134.363C162.13 133.281 160.396 133.526 160.396 133.526C159.218 133.595 158.143 134.292 157.383 135.211C156.624 136.129 156.695 137.358 157.295 138.299C157.972 139.361 159.823 139.9 161.13 139.599C162.438 139.296 163.579 138.647 164.143 137.387C164.143 137.387 165.067 135.444 163.599 134.363Z" fill="#FF9C6A"/>
<path d="M159.576 101.917C159.202 102.603 156.587 101.849 153.395 101.746C150.205 101.58 147.537 102.11 147.221 101.395C147.083 101.055 147.628 100.439 148.758 99.8923C149.878 99.3455 151.597 98.9262 153.511 99.0045C155.425 99.0874 157.1 99.6496 158.171 100.29C159.251 100.931 159.742 101.59 159.576 101.917Z" fill="#1B3D4C"/>
<path d="M183.376 99.2495C182.857 99.8746 180.756 99.2848 178.244 99.3094C175.733 99.2572 173.616 99.824 173.114 99.1927C172.891 98.887 173.214 98.2649 174.13 97.6628C175.033 97.0638 176.553 96.5569 178.278 96.5646C180.005 96.5753 181.512 97.0991 182.398 97.7074C183.299 98.3187 183.605 98.9454 183.376 99.2495Z" fill="#1B3D4C"/>
<path d="M125.766 124.09C125.766 124.09 135.541 125.639 150.538 94.0077C155.512 83.5199 160.905 73.1566 160.905 73.1566L156.518 71.8371C156.518 71.8371 129.255 79.5187 128.798 79.8627C128.338 80.2052 121.919 93.9617 121.919 93.9617L125.766 124.09Z" fill="#1B3D4C"/>
<path fill-rule="evenodd" clip-rule="evenodd" d="M209.705 299.639L209.25 268.375C209.25 268.375 211.609 248.081 211.608 233.184C211.608 227.325 209.405 182.269 208.897 182.269C208.388 182.269 170.106 174.664 170.106 174.664C170.106 174.664 168.755 187.57 151.166 188.382C135.333 189.111 124.929 173.645 124.929 173.149C124.929 172.652 91.8187 178.777 86.7339 179.769C81.649 180.763 75.716 186.885 71.1856 191.475L65.5923 224.896C71.558 225.785 81.1108 228.445 88.1468 226.309L100.079 287.401L96.5445 304.215C96.2468 305.632 96.1926 307.068 96.3655 308.469C111.21 315.454 127.79 319.36 145.283 319.361C169.154 319.361 191.326 312.088 209.705 299.639Z" fill="#00A988"/>
<path d="M127.21 122.475C127.088 120.344 126.784 117.541 126.304 117.548C122.411 117.596 115.554 116.717 115.001 126.468C114.245 139.801 127.785 137.811 127.828 137.43C127.865 137.132 127.495 127.503 127.21 122.475Z" fill="#FFC19D"/>
<path d="M124.043 132.148C123.986 132.102 123.801 132.297 123.399 132.455C123.006 132.609 122.341 132.692 121.66 132.392C120.281 131.796 119.223 129.492 119.295 127.085C119.329 125.87 119.648 124.729 120.132 123.797C120.594 122.846 121.264 122.199 121.981 122.115C122.695 121.99 123.173 122.443 123.314 122.827C123.473 123.211 123.373 123.473 123.442 123.499C123.477 123.535 123.742 123.293 123.665 122.737C123.625 122.468 123.487 122.144 123.187 121.87C122.883 121.592 122.421 121.433 121.923 121.457C120.891 121.471 119.912 122.365 119.379 123.388C118.791 124.413 118.402 125.694 118.364 127.058C118.296 129.749 119.53 132.34 121.425 133.006C122.348 133.304 123.147 133.066 123.569 132.775C124.001 132.469 124.087 132.175 124.043 132.148Z" fill="#FF9C6A"/>
<path d="M260.977 197.655C260.977 197.655 271.129 244.881 271.122 274.535C271.119 284.041 262.874 295.511 247.911 292.976C232.951 290.443 196.881 241.906 196.881 241.906L208.427 182.192C208.427 182.192 213.313 182.644 219.081 192.608C224.885 202.639 241.812 234.605 241.812 234.605L241.001 195.723L260.977 197.655Z" fill="#00A988"/>
<path d="M84.9311 191.837C85.0294 191.811 85.5947 193.489 86.2905 196.265C86.9878 199.037 87.7804 202.917 88.3518 207.247C88.9171 211.58 89.1505 215.533 89.1935 218.393C89.2365 221.254 89.1244 223.021 89.0215 223.021C88.9032 223.022 88.8157 221.259 88.6283 218.417C88.4409 215.576 88.1214 211.657 87.5577 207.352C86.9925 203.05 86.2905 199.18 85.7375 196.386C85.1877 193.594 84.8159 191.867 84.9311 191.837Z" fill="#1B3D4C"/>
<path d="M36.7176 200.151C36.7176 200.151 33.7255 198.535 32.3385 194.317C31.7257 192.456 27.2974 172.658 27.4832 167.03C27.6706 161.402 29.5369 157.992 29.5369 157.992C29.5369 157.992 31.7779 134.115 34.9528 130.535C38.1262 126.953 39.4333 129.171 40.3672 129.682C40.3672 129.682 43.1688 117.061 48.9565 117.232L51.944 118.256C51.944 118.256 53.1283 112.713 56.956 113.083C58.2017 113.203 59.9635 113.519 59.9742 118.938C59.9742 118.938 64.4547 114.674 67.4422 122.859C70.4297 131.046 68.0029 157.992 68.7494 160.038C69.4974 162.084 70.6171 169.419 70.6171 169.419C70.6171 169.419 75.4724 160.891 81.6333 158.674C87.7957 156.456 90.0368 157.822 90.0368 160.209C90.0368 162.597 84.6208 164.132 80.5136 171.635C76.4063 179.138 71.9243 188.348 67.817 193.294C63.7082 198.24 50.0747 202.665 36.7176 200.151Z" fill="#FFC19D"/>
<path d="M37.3796 190.708C37.3796 190.708 36.266 203.046 40.1859 210.329C44.1073 217.611 49.7567 224.526 58.7561 225.626C68.4283 226.808 78.2725 224.692 78.2725 224.692C78.2725 224.692 86.5039 220.036 84.8235 208.172C83.1431 196.31 77.7118 190.894 74.1652 190.708L66.3224 192.015L37.3796 190.708Z" fill="#FFC19D"/>
<path d="M70.4067 208.204C70.2178 208.363 68.0608 205.869 65.1878 203.048C62.2891 200.252 59.7358 198.168 59.8885 197.973C60.0047 197.818 62.7909 199.626 65.7447 202.476C68.6738 205.351 70.5593 208.085 70.4067 208.204Z" fill="#FF9C6A"/>
<path d="M60.9204 152.426C60.9097 152.549 59.346 152.474 56.8285 152.492C54.311 152.507 50.835 152.672 47.0411 153.231C43.2472 153.795 39.8742 154.647 37.4626 155.369C35.0496 156.086 33.5781 156.619 33.532 156.504C33.4936 156.417 34.8944 155.695 37.2875 154.831C39.676 153.964 43.0782 153.011 46.9244 152.44C50.7705 151.872 54.3018 151.798 56.8393 151.927C59.3798 152.054 60.9296 152.329 60.9204 152.426Z" fill="#FF9C6A"/>
<path d="M37.7638 154.348C37.6578 154.349 37.5304 152.921 37.495 150.606C37.4582 148.291 37.5334 145.09 37.8191 141.568C38.1079 138.044 38.5533 134.874 38.9634 132.596C39.3735 130.317 39.7299 128.928 39.8343 128.947C39.9465 128.967 39.7883 130.388 39.5225 132.678C39.2568 134.968 38.9035 138.131 38.6163 141.633C38.3321 145.135 38.1693 148.313 38.0603 150.615C37.9512 152.918 37.879 154.346 37.7638 154.348Z" fill="#FF9C6A"/>
<path d="M47.4451 152.312C47.3898 152.315 47.3114 151.844 47.2147 150.982C47.1148 150.123 47.0242 148.873 46.9628 147.328C46.8338 144.236 46.889 139.947 47.3867 135.246C47.8905 130.542 48.7384 126.338 49.5125 123.343C49.8981 121.844 50.2467 120.641 50.5263 119.823C50.7997 119.001 50.9763 118.555 51.0286 118.571C51.1468 118.603 50.6906 120.457 50.064 123.471C49.4357 126.481 48.6816 130.665 48.1824 135.33C47.6893 139.993 47.5434 144.242 47.528 147.319C47.5081 150.395 47.568 152.304 47.4451 152.312Z" fill="#FF9C6A"/>
<path d="M57.775 149.302C57.5539 149.294 57.6729 142.48 58.0426 134.085C58.4093 125.688 58.8872 118.893 59.1082 118.901C59.3276 118.911 59.2103 125.723 58.8405 134.121C58.4724 142.514 57.9959 149.312 57.775 149.302Z" fill="#FF9C6A"/>
<path d="M71.4822 186.725C71.559 186.748 71.2595 188.077 70.1996 189.99C69.1598 191.901 67.1968 194.31 64.4396 196.2C61.7056 198.128 58.8594 199.209 56.8011 199.85C54.7245 200.466 53.3974 200.653 53.3758 200.563C53.2606 200.259 58.6213 199.217 63.9804 195.546C66.6438 193.717 68.5822 191.479 69.7158 189.697C70.8647 187.918 71.3532 186.674 71.4822 186.725Z" fill="#FF9C6A"/>
<path d="M47.141 185.111C47.098 185.097 47.164 184.661 47.4328 183.916C47.697 183.172 48.167 182.115 48.9489 180.925C50.4787 178.553 53.4877 175.686 57.6411 174.25C61.1816 172.995 64.7174 172.953 67.3117 173.412L67.0199 173.528C69.287 170.769 70.7723 169.067 70.8706 169.144C70.9705 169.222 69.6618 171.064 67.5099 173.913L67.4039 174.053L67.218 174.028C64.6898 173.692 61.3014 173.801 57.9083 175.004C53.9332 176.38 51.0132 179.036 49.4127 181.249C47.7876 183.479 47.2762 185.164 47.141 185.111Z" fill="#FF9C6A"/>
<path d="M45.8401 201.948C45.8601 202.031 44.7112 202.392 42.7973 202.258C40.9096 202.139 38.2323 201.375 35.9667 199.458C33.7042 197.537 32.5138 195.019 32.0868 193.176C31.6414 191.311 31.8103 190.118 31.8948 190.126C32.0284 190.118 32.0668 191.282 32.6306 193.022C33.1774 194.747 34.3754 197.056 36.4844 198.849C38.5964 200.635 41.0693 201.44 42.8618 201.696C44.6697 201.967 45.8248 201.815 45.8401 201.948Z" fill="#FF9C6A"/>
<path d="M191.981 276.728C192.018 276.77 191.378 277.401 190.186 278.512C189.006 279.634 187.212 281.169 184.923 282.974C182.642 284.789 179.812 286.804 176.569 288.892C173.305 290.946 169.617 293.05 165.614 295.001C161.598 296.925 157.656 298.506 154.018 299.785C150.366 301.028 147.027 301.992 144.187 302.651C141.352 303.321 139.035 303.774 137.423 304.002C135.811 304.244 134.919 304.352 134.91 304.298C134.901 304.243 135.776 304.031 137.366 303.694C138.957 303.375 141.246 302.839 144.049 302.103C146.857 301.378 150.159 300.363 153.773 299.091C157.374 297.781 161.278 296.191 165.267 294.28C169.241 292.343 172.912 290.274 176.176 288.268C179.42 286.228 182.266 284.273 184.579 282.524C186.9 280.786 188.742 279.324 189.981 278.278C191.233 277.241 191.944 276.688 191.981 276.728Z" fill="#1B3D4C"/>
<path d="M211.092 200.65C211.313 200.645 211.608 205.546 211.752 211.594C211.897 217.644 211.834 222.552 211.614 222.557C211.393 222.564 211.097 217.663 210.952 211.613C210.81 205.565 210.871 200.657 211.092 200.65Z" fill="#1B3D4C"/>
<path d="M210.011 275.613V217.414L251.312 175.896H309.133L350 216.763V274.543L309.49 315.051H251.529L210.011 275.613Z" fill="#F2F2F2"/>
<path d="M217.197 272.856V219.982L254.72 182.261H307.251L344.38 219.389V271.884L307.575 308.686H254.917L217.197 272.856Z" fill="#FF735D"/>
<path d="M261.479 175.882C261.479 175.325 265.62 167.467 268.408 167.244H270.973C270.973 167.244 273.495 163.874 276.807 164.743C276.807 164.743 279.106 161.502 283.679 163.957C283.679 163.957 286.866 163.336 288.37 164.903C290.281 166.895 297.403 173.154 297.961 176.054C298.518 178.954 297.961 185.868 296.288 186.315C294.615 186.76 294.084 186.445 294.084 186.445C294.084 186.445 293.555 189.78 292.505 191.083C290.519 193.545 287.255 190.775 287.255 190.775C287.255 190.775 285.994 192.551 284.312 192.682C281.275 192.917 280.897 187.763 280.897 187.763L280.674 180.515C280.674 180.515 280.085 183.971 277.552 184.032C275.819 184.075 274.776 181.982 274.776 181.982L271.604 175.971L261.479 175.882Z" fill="#FFC19D"/>
<path d="M271.573 167.516C271.426 167.771 274.922 169.322 277.469 173.053C280.086 176.736 280.327 180.553 280.617 180.504C280.728 180.501 280.835 179.547 280.573 178.028C280.315 176.515 279.597 174.457 278.247 172.511C276.891 170.571 275.211 169.182 273.88 168.416C272.547 167.642 271.615 167.413 271.573 167.516Z" fill="#FF9C6A"/>
<path d="M282.226 167.431C282.126 167.563 283.327 168.385 284.648 170.231C285.984 172.053 287.282 174.982 287.735 178.42C288.184 181.863 287.909 185.052 287.731 187.349C287.535 189.651 287.426 191.087 287.563 191.106C287.686 191.122 288.03 189.728 288.397 187.428C288.746 185.137 289.142 181.885 288.675 178.292C288.205 174.695 286.724 171.628 285.179 169.823C283.643 167.986 282.267 167.345 282.226 167.431Z" fill="#FF9C6A"/>
<path d="M292.228 172.741C292.113 172.83 292.57 173.518 293.053 174.72C293.544 175.915 293.994 177.653 294.122 179.63C294.251 181.608 294.116 183.429 294.054 184.754C293.985 186.081 293.987 186.915 294.119 186.931C294.246 186.948 294.48 186.15 294.721 184.831C294.954 183.513 295.203 181.652 295.07 179.566C294.936 177.478 294.343 175.623 293.658 174.429C292.981 173.223 292.314 172.666 292.228 172.741Z" fill="#FF9C6A"/>
<path d="M319.847 219.427L306.836 206.416L280.954 232.299L255.723 205.781L242.392 218.464L267.939 245.314L241.732 271.521L254.743 284.531L280.625 258.649L305.857 285.167L319.187 272.484L293.64 245.634L319.847 219.427Z" fill="white"/>
</svg>
