<svg width="350" height="416" viewBox="0 0 350 416" fill="none" xmlns="http://www.w3.org/2000/svg">
<path fill-rule="evenodd" clip-rule="evenodd" d="M290.565 0.575928C293.277 0.575928 295.881 1.65386 297.799 3.57265C299.719 5.49122 300.796 8.09365 300.796 10.8071C300.796 68.0363 300.796 347.965 300.796 405.194C300.796 407.907 299.719 410.51 297.799 412.429C295.881 414.347 293.277 415.424 290.565 415.424C244.467 415.424 56.3276 415.424 10.231 415.424C7.51754 415.424 4.9152 414.347 2.99661 412.429C1.07777 410.51 0 407.907 0 405.194C0 347.965 0 68.0363 0 10.8071C0 8.09365 1.07777 5.49122 2.99661 3.57265C4.9152 1.65386 7.51754 0.575928 10.231 0.575928C56.3276 0.575928 244.467 0.575928 290.565 0.575928Z" fill="#EAEAEA"/>
<path fill-rule="evenodd" clip-rule="evenodd" d="M283.41 7.17578C289.061 7.17578 293.642 11.7564 293.642 17.4069V398.593C293.642 404.244 289.061 408.824 283.41 408.824H17.3844C11.734 408.824 7.15332 404.244 7.15332 398.593V17.4069C7.15332 11.7564 11.734 7.17578 17.3844 7.17578H283.41Z" fill="white"/>
<g opacity="0.3">
<path d="M35.6069 19.9104C34.5104 17.9622 32.5906 16.391 30.3199 15.827L17.9725 25.363C17.6266 27.0222 20.5552 31.1823 22.1501 32.054C24.3002 33.2287 26.3267 33.7393 28.1678 33.5981C30.9219 33.3867 32.1231 32.8714 33.9034 31.5686C35.6877 30.262 36.3595 28.4373 36.6795 26.3357C37.0114 24.1537 36.7044 21.8595 35.6069 19.9104Z" fill="black"/>
</g>
<path d="M35.0447 22.2354C35.0447 26.7313 31.1591 30.377 26.3665 30.377C21.5749 30.377 17.6903 26.7313 17.6903 22.2354C17.6903 17.7396 21.5749 14.093 26.3665 14.093C31.1591 14.093 35.0447 17.7396 35.0447 22.2354Z" fill="#EBEBEB"/>
<path d="M31.0358 23.6774C30.9342 23.7943 29.069 22.3177 26.3641 21.1771C23.6676 20.0124 21.2576 19.6636 21.2844 19.5137C21.2838 19.3953 23.797 19.5333 26.5783 20.7332C29.3695 21.9127 31.1317 23.5992 31.0358 23.6774Z" fill="#1B3D4C"/>
<path d="M29.641 17.9961C29.6729 18.0709 29.1117 18.3047 28.3122 18.8182C27.5108 19.327 26.498 20.165 25.6627 21.3023C24.8334 22.4452 24.3659 23.6339 24.1496 24.5177C23.9273 25.4034 23.8974 25.9786 23.8117 25.9777C23.7548 25.9805 23.6522 25.3959 23.7887 24.4541C23.9203 23.516 24.3579 22.2329 25.2351 21.0273C26.1163 19.8255 27.2327 18.9791 28.1178 18.5254C29.005 18.0662 29.623 17.9446 29.641 17.9961Z" fill="#1B3D4C"/>
<g opacity="0.3">
<path d="M282.597 385.366C281.501 383.417 279.582 381.847 277.31 381.283L264.964 390.818C264.617 392.478 267.545 396.638 269.141 397.509C271.29 398.685 273.317 399.194 275.158 399.054C277.912 398.843 279.114 398.326 280.894 397.025C282.678 395.718 283.35 393.893 283.67 391.791C284.002 389.61 283.695 387.315 282.597 385.366Z" fill="black"/>
</g>
<path d="M282.035 387.692C282.035 392.188 278.15 395.832 273.357 395.832C268.565 395.832 264.681 392.188 264.681 387.692C264.681 383.195 268.565 379.55 273.357 379.55C278.15 379.55 282.035 383.195 282.035 387.692Z" fill="#EBEBEB"/>
<path d="M278.026 389.133C277.925 389.25 276.059 387.774 273.354 386.632C270.657 385.467 268.248 385.118 268.274 384.97C268.274 384.851 270.787 384.989 273.568 386.19C276.359 387.368 278.122 389.055 278.026 389.133Z" fill="#1B3D4C"/>
<path d="M276.632 383.452C276.663 383.526 276.103 383.76 275.302 384.274C274.502 384.783 273.489 385.62 272.654 386.758C271.825 387.9 271.357 389.089 271.14 389.974C270.918 390.859 270.888 391.434 270.803 391.434C270.746 391.436 270.642 390.852 270.78 389.909C270.911 388.971 271.348 387.689 272.225 386.483C273.107 385.28 274.224 384.435 275.109 383.981C275.995 383.521 276.613 383.401 276.632 383.452Z" fill="#1B3D4C"/>
<g opacity="0.3">
<path d="M286.306 23.9684C286.223 21.7659 285.222 19.568 283.44 18.1333L268.324 21.1028C267.242 22.4552 267.525 27.9695 268.558 29.4061C269.948 31.3421 271.537 32.629 273.259 33.2538C275.836 34.1881 277.157 34.2153 279.364 33.7691C281.576 33.3211 283.027 31.9528 284.291 30.1908C285.602 28.3623 286.39 26.171 286.306 23.9684Z" fill="black"/>
</g>
<path d="M284.72 25.8316C282.635 29.8793 277.447 31.5745 273.132 29.6174C268.818 27.6607 267.011 22.7929 269.096 18.7448C271.182 14.6967 276.37 13.0015 280.685 14.9586C284.999 16.9154 286.806 21.7831 284.72 25.8316Z" fill="#EBEBEB"/>
<path d="M280.444 25.4934C280.298 25.5565 279.303 23.4667 277.397 21.3332C275.511 19.1843 273.502 17.8847 273.595 17.7619C273.65 17.6558 275.848 18.8063 277.797 21.0219C279.76 23.2234 280.566 25.4615 280.444 25.4934Z" fill="#1B3D4C"/>
<path d="M281.823 19.8082C281.816 19.8886 281.203 19.8699 280.245 20.0055C279.288 20.1374 277.987 20.4778 276.708 21.1606C275.431 21.8508 274.459 22.7299 273.854 23.4379C273.244 24.1441 272.95 24.6501 272.873 24.6145C272.82 24.593 272.998 24.0253 273.559 23.2331C274.112 22.4419 275.101 21.4655 276.45 20.7378C277.801 20.0158 279.199 19.7109 280.206 19.6632C281.218 19.6118 281.831 19.7549 281.823 19.8082Z" fill="#1B3D4C"/>
<g opacity="0.3">
<path d="M33.1526 391.826C33.0699 389.625 32.0691 387.427 30.2868 385.991L15.1703 388.961C14.0887 390.314 14.3728 395.827 15.4045 397.264C16.7951 399.2 18.383 400.487 20.1054 401.112C22.6832 402.046 24.0039 402.072 26.2109 401.627C28.4228 401.179 29.8741 399.811 31.1381 398.049C32.4489 396.22 33.2353 394.028 33.1526 391.826Z" fill="black"/>
</g>
<path d="M31.5659 393.69C29.4812 397.738 24.2927 399.433 19.9783 397.475C15.6634 395.518 13.8569 390.65 15.9433 386.603C18.0284 382.554 23.2169 380.858 27.5313 382.816C31.8453 384.773 33.6527 389.641 31.5659 393.69Z" fill="#EBEBEB"/>
<path d="M27.2892 393.352C27.1436 393.414 26.1491 391.325 24.2428 389.192C22.3559 387.043 20.3472 385.744 20.44 385.621C20.4958 385.514 22.6938 386.665 24.6414 388.881C26.6062 391.081 27.4119 393.321 27.2892 393.352Z" fill="#1B3D4C"/>
<path d="M28.6691 387.666C28.6631 387.747 28.0491 387.728 27.0912 387.864C26.1342 387.996 24.8334 388.336 23.5535 389.019C22.2766 389.709 21.3057 390.588 20.6997 391.296C20.0896 392.002 19.7956 392.508 19.7188 392.473C19.666 392.451 19.8444 391.883 20.4046 391.09C20.9578 390.3 21.9467 389.324 23.2953 388.596C24.647 387.874 26.0455 387.569 27.0523 387.521C28.064 387.47 28.6771 387.613 28.6691 387.666Z" fill="#1B3D4C"/>
<path d="M145.588 82.3966C78.4337 82.3966 23.7995 137.03 23.7995 204.185C23.7995 271.339 78.4337 325.972 145.588 325.972C212.742 325.972 267.375 271.339 267.375 204.185C267.375 137.03 212.742 82.3966 145.588 82.3966ZM145.588 326.995C77.87 326.995 22.7764 271.903 22.7764 204.185C22.7764 136.466 77.87 81.3735 145.588 81.3735C213.306 81.3735 268.398 136.466 268.398 204.185C268.398 271.903 213.306 326.995 145.588 326.995Z" fill="#DBDBDB"/>
<path d="M260.298 204.922C260.298 268.442 208.805 319.937 145.283 319.937C81.7638 319.937 30.2695 268.442 30.2695 204.922C30.2695 141.401 81.7638 89.9069 145.283 89.9069C208.805 89.9069 260.298 141.401 260.298 204.922Z" fill="#DBDBDB"/>
<path d="M106.598 120.208C110.283 94.6602 117.381 62.9741 153.885 65.5852C153.885 65.5852 187.064 69.158 189.921 93.2901C192.681 116.608 205.871 134.41 193.975 155.847C187.118 168.201 190.096 171.546 206.146 183.965C217.21 192.525 210.516 244.213 206.249 256.301L90.9998 248.709C80.6503 238.582 84.6884 225.891 89.2518 212.901C93.5035 200.798 97.3727 188.765 94.5219 176.601C93.3176 171.462 93.0319 166.126 94.399 159.965C97.3972 146.443 105.404 128.478 106.598 120.208Z" fill="#1B3D4C"/>
<path d="M185.531 140.889C187.564 131.24 187.181 117.963 186.61 104.898C185.819 86.8159 173.276 75.8918 158.742 75.9103L156.458 73.7338L131.778 83.6794C128.208 83.8775 125.382 86.7744 125.273 90.3487L128.213 173.234L109.073 178.575L124.053 200.661L150.898 212.739L164.842 200.623L180.145 188.743L181.427 178.656L166.328 174.375C166.328 174.375 166.328 161.963 166.33 162.029C166.33 162.029 181.446 160.292 185.531 140.889Z" fill="#FFC19D"/>
<path d="M155.558 116.967C155.538 118.294 154.398 119.37 153.012 119.377C151.628 119.382 150.52 118.312 150.54 116.985C150.56 115.658 151.7 114.58 153.082 114.574C154.469 114.568 155.578 115.64 155.558 116.967Z" fill="#1B3D4C"/>
<path d="M180.014 117.797C179.993 119.125 178.854 120.203 177.469 120.208C176.085 120.213 174.976 119.143 174.995 117.816C175.016 116.49 176.155 115.411 177.539 115.406C178.924 115.401 180.034 116.472 180.014 117.797Z" fill="#1B3D4C"/>
<path d="M184.028 110.066C183.7 110.378 181.871 108.876 179.171 108.748C176.477 108.581 174.425 109.871 174.15 109.525C174.013 109.372 174.36 108.797 175.252 108.212C176.133 107.63 177.612 107.094 179.294 107.184C180.974 107.278 182.358 107.969 183.138 108.644C183.937 109.321 184.189 109.926 184.028 110.066Z" fill="#1B3D4C"/>
<path d="M157.914 110.345C157.556 110.622 155.887 108.94 153.217 108.536C150.554 108.092 148.382 109.164 148.142 108.793C148.024 108.625 148.423 108.089 149.376 107.601C150.311 107.111 151.836 106.73 153.5 106.994C155.162 107.26 156.467 108.088 157.175 108.839C157.897 109.594 158.088 110.224 157.914 110.345Z" fill="#1B3D4C"/>
<path d="M166.065 129.994C166.061 129.841 167.752 129.635 170.489 129.423C171.182 129.386 171.841 129.282 171.981 128.818C172.168 128.328 171.918 127.57 171.623 126.752C171.059 125.051 170.468 123.27 169.847 121.4C167.393 113.786 165.651 107.54 165.958 107.443C166.265 107.348 168.506 113.441 170.962 121.055C171.551 122.932 172.114 124.721 172.65 126.432C172.872 127.229 173.275 128.14 172.872 129.156C172.661 129.663 172.136 130.01 171.689 130.108C171.24 130.22 170.852 130.208 170.509 130.211C167.766 130.222 166.069 130.148 166.065 129.994Z" fill="#1B3D4C"/>
<path d="M166.33 162.029C166.33 162.029 153.129 162.218 140.485 153.729C140.485 153.729 146.661 167.637 166.33 166.788V162.029Z" fill="#FF9C6A"/>
<path d="M163.599 134.939C162.13 133.857 160.396 134.102 160.396 134.102C159.218 134.171 158.143 134.868 157.383 135.787C156.624 136.705 156.695 137.934 157.295 138.875C157.972 139.937 159.823 140.476 161.13 140.175C162.438 139.872 163.579 139.223 164.143 137.963C164.143 137.963 165.067 136.02 163.599 134.939Z" fill="#FF9C6A"/>
<path d="M159.576 102.493C159.201 103.179 156.587 102.425 153.395 102.322C150.205 102.156 147.537 102.686 147.221 101.97C147.082 101.631 147.628 101.015 148.758 100.468C149.878 99.9214 151.597 99.502 153.51 99.5804C155.424 99.6633 157.1 100.225 158.171 100.866C159.25 101.507 159.742 102.165 159.576 102.493Z" fill="#1B3D4C"/>
<path d="M183.376 99.8254C182.857 100.451 180.756 99.8607 178.245 99.8853C175.733 99.8331 173.617 100.4 173.114 99.7686C172.892 99.4629 173.214 98.8408 174.13 98.2387C175.033 97.6397 176.554 97.1328 178.278 97.1405C180.005 97.1512 181.512 97.675 182.398 98.2832C183.3 98.8946 183.605 99.5213 183.376 99.8254Z" fill="#1B3D4C"/>
<path d="M125.766 124.666C125.766 124.666 135.541 126.215 150.538 94.5837C155.512 84.0959 160.905 73.7325 160.905 73.7325L156.518 72.4131C156.518 72.4131 129.255 80.0946 128.798 80.4387C128.338 80.7812 121.919 94.5376 121.919 94.5376L125.766 124.666Z" fill="#1B3D4C"/>
<path fill-rule="evenodd" clip-rule="evenodd" d="M209.705 300.215L209.25 268.951C209.25 268.951 211.609 248.657 211.608 233.76C211.608 227.901 209.405 182.844 208.897 182.844C208.388 182.844 170.106 175.24 170.106 175.24C170.106 175.24 168.755 188.146 151.166 188.958C135.333 189.687 124.929 174.221 124.929 173.724C124.929 173.228 91.8187 179.353 86.7339 180.345C81.649 181.338 75.716 187.461 71.1856 192.05L65.5923 225.471C71.558 226.361 81.1108 229.021 88.1468 226.885L100.079 287.977L96.5445 304.791C96.2468 306.208 96.1926 307.644 96.3655 309.044C111.21 316.03 127.79 319.936 145.283 319.937C169.154 319.937 191.326 312.664 209.705 300.215Z" fill="#00A988"/>
<path d="M127.21 123.051C127.088 120.92 126.784 118.117 126.305 118.124C122.411 118.172 115.554 117.293 115.001 127.044C114.245 140.377 127.785 138.387 127.828 138.006C127.865 137.708 127.495 128.079 127.21 123.051Z" fill="#FFC19D"/>
<path d="M124.042 132.724C123.985 132.678 123.801 132.873 123.399 133.031C123.006 133.185 122.34 133.268 121.66 132.968C120.281 132.372 119.222 130.068 119.295 127.661C119.328 126.446 119.648 125.305 120.132 124.373C120.594 123.422 121.264 122.775 121.981 122.691C122.695 122.566 123.173 123.019 123.314 123.403C123.472 123.787 123.373 124.048 123.442 124.075C123.477 124.111 123.741 123.869 123.664 123.313C123.625 123.044 123.486 122.72 123.187 122.446C122.883 122.168 122.42 122.009 121.923 122.033C120.89 122.047 119.912 122.941 119.379 123.964C118.791 124.989 118.402 126.27 118.364 127.633C118.296 130.325 119.53 132.916 121.425 133.582C122.348 133.88 123.147 133.642 123.569 133.35C124.001 133.045 124.087 132.751 124.042 132.724Z" fill="#FF9C6A"/>
<path d="M260.977 198.231C260.977 198.231 271.129 245.457 271.122 275.111C271.119 284.617 262.874 296.086 247.911 293.552C232.951 291.019 196.881 242.482 196.881 242.482L208.427 182.768C208.427 182.768 213.313 183.22 219.081 193.184C224.885 203.215 241.812 235.181 241.812 235.181L241.001 196.299L260.977 198.231Z" fill="#00A988"/>
<path d="M84.9311 192.413C85.0294 192.387 85.5947 194.065 86.2905 196.841C86.9878 199.613 87.7804 203.493 88.3518 207.823C88.9171 212.156 89.1505 216.109 89.1935 218.969C89.2365 221.83 89.1244 223.596 89.0215 223.596C88.9032 223.598 88.8157 221.835 88.6283 218.993C88.4409 216.152 88.1214 212.233 87.5577 207.928C86.9925 203.625 86.2905 199.756 85.7375 196.962C85.1877 194.17 84.8159 192.443 84.9311 192.413Z" fill="#1B3D4C"/>
<path d="M36.7176 200.727C36.7176 200.727 33.7255 199.111 32.3385 194.893C31.7257 193.031 27.2974 173.234 27.4832 167.606C27.6706 161.978 29.5369 158.568 29.5369 158.568C29.5369 158.568 31.7779 134.691 34.9528 131.111C38.1262 127.529 39.4333 129.747 40.3672 130.258C40.3672 130.258 43.1688 117.637 48.9565 117.807L51.944 118.832C51.944 118.832 53.1283 113.289 56.956 113.659C58.2017 113.779 59.9635 114.095 59.9742 119.514C59.9742 119.514 64.4547 115.25 67.4422 123.435C70.4297 131.622 68.0029 158.568 68.7494 160.614C69.4974 162.66 70.6171 169.995 70.6171 169.995C70.6171 169.995 75.4724 161.467 81.6333 159.25C87.7957 157.032 90.0368 158.398 90.0368 160.785C90.0368 163.173 84.6208 164.708 80.5136 172.211C76.4063 179.714 71.9243 188.924 67.817 193.87C63.7082 198.816 50.0747 203.241 36.7176 200.727Z" fill="#FFC19D"/>
<path d="M37.3798 191.284C37.3798 191.284 36.2662 203.622 40.1861 210.905C44.1075 218.187 49.7569 225.102 58.7563 226.202C68.4285 227.384 78.2727 225.268 78.2727 225.268C78.2727 225.268 86.5041 220.612 84.8238 208.748C83.1434 196.885 77.7121 191.47 74.1655 191.284L66.3227 192.591L37.3798 191.284Z" fill="#FFC19D"/>
<path d="M70.4065 208.78C70.2175 208.939 68.0605 206.445 65.1875 203.624C62.2888 200.828 59.7356 198.743 59.8882 198.549C60.0045 198.394 62.7907 200.202 65.7444 203.052C68.6736 205.927 70.5591 208.661 70.4065 208.78Z" fill="#FF9C6A"/>
<path d="M60.9204 153.002C60.9097 153.125 59.346 153.05 56.8285 153.068C54.311 153.083 50.835 153.248 47.0411 153.807C43.2472 154.371 39.8742 155.223 37.4626 155.945C35.0496 156.662 33.5781 157.195 33.532 157.08C33.4936 156.993 34.8944 156.271 37.2875 155.407C39.676 154.54 43.0782 153.587 46.9244 153.016C50.7705 152.447 54.3018 152.374 56.8393 152.503C59.3798 152.63 60.9296 152.905 60.9204 153.002Z" fill="#FF9C6A"/>
<path d="M37.7638 154.924C37.6578 154.925 37.5304 153.497 37.495 151.182C37.4582 148.867 37.5334 145.666 37.8191 142.144C38.1079 138.62 38.5533 135.45 38.9634 133.172C39.3735 130.893 39.7299 129.504 39.8343 129.523C39.9465 129.543 39.7883 130.964 39.5225 133.254C39.2568 135.544 38.9035 138.707 38.6163 142.209C38.3321 145.711 38.1693 148.889 38.0603 151.191C37.9512 153.494 37.879 154.922 37.7638 154.924Z" fill="#FF9C6A"/>
<path d="M47.4451 152.888C47.3898 152.891 47.3114 152.42 47.2147 151.558C47.1148 150.699 47.0242 149.449 46.9628 147.904C46.8338 144.812 46.889 140.523 47.3867 135.822C47.8905 131.118 48.7384 126.914 49.5125 123.919C49.8981 122.42 50.2467 121.217 50.5263 120.399C50.7997 119.577 50.9763 119.131 51.0286 119.147C51.1468 119.179 50.6906 121.033 50.064 124.047C49.4357 127.057 48.6816 131.241 48.1824 135.906C47.6893 140.569 47.5434 144.818 47.528 147.894C47.5081 150.971 47.568 152.88 47.4451 152.888Z" fill="#FF9C6A"/>
<path d="M57.775 149.878C57.5539 149.87 57.6729 143.056 58.0426 134.661C58.4093 126.264 58.8872 119.469 59.1082 119.477C59.3276 119.487 59.2103 126.299 58.8405 134.697C58.4724 143.09 57.9959 149.888 57.775 149.878Z" fill="#FF9C6A"/>
<path d="M71.482 187.301C71.5588 187.324 71.2592 188.652 70.1994 190.566C69.1595 192.477 67.1965 194.886 64.4394 196.776C61.7053 198.704 58.8591 199.785 56.8009 200.426C54.7242 201.042 53.3971 201.229 53.3756 201.139C53.2604 200.834 58.621 199.793 63.9801 196.122C66.6436 194.293 68.582 192.055 69.7156 190.273C70.8645 188.494 71.3529 187.25 71.482 187.301Z" fill="#FF9C6A"/>
<path d="M47.141 185.686C47.098 185.673 47.164 185.236 47.4328 184.491C47.697 183.748 48.167 182.691 48.9489 181.501C50.4787 179.129 53.4877 176.262 57.6411 174.825C61.1816 173.571 64.7174 173.529 67.3117 173.988L67.0199 174.104C69.287 171.345 70.7723 169.643 70.8706 169.72C70.9705 169.798 69.6618 171.64 67.5099 174.489L67.4039 174.629L67.218 174.604C64.6898 174.268 61.3014 174.377 57.9083 175.58C53.9332 176.956 51.0132 179.612 49.4127 181.825C47.7876 184.055 47.2762 185.74 47.141 185.686Z" fill="#FF9C6A"/>
<path d="M45.8399 202.524C45.8599 202.607 44.7109 202.968 42.7971 202.834C40.9093 202.715 38.2321 201.951 35.9665 200.034C33.704 198.113 32.5136 195.595 32.0866 193.752C31.6411 191.887 31.8101 190.694 31.8946 190.702C32.0282 190.694 32.0666 191.858 32.6303 193.598C33.1771 195.323 34.3752 197.632 36.4841 199.425C38.5961 201.211 41.0691 202.016 42.8616 202.272C44.6695 202.543 45.8245 202.391 45.8399 202.524Z" fill="#FF9C6A"/>
<path d="M191.981 277.304C192.018 277.346 191.377 277.977 190.185 279.088C189.006 280.21 187.212 281.745 184.923 283.55C182.642 285.365 179.811 287.38 176.569 289.468C173.305 291.521 169.617 293.626 165.614 295.577C161.597 297.501 157.656 299.082 154.017 300.361C150.366 301.604 147.027 302.568 144.187 303.227C141.351 303.897 139.035 304.35 137.422 304.577C135.811 304.82 134.919 304.928 134.909 304.874C134.9 304.819 135.776 304.607 137.366 304.27C138.957 303.951 141.245 303.415 144.049 302.679C146.856 301.954 150.159 300.939 153.773 299.667C157.373 298.357 161.278 296.767 165.267 294.856C169.241 292.919 172.912 290.85 176.176 288.844C179.42 286.804 182.266 284.849 184.579 283.1C186.9 281.362 188.742 279.9 189.981 278.854C191.233 277.817 191.944 277.264 191.981 277.304Z" fill="#1B3D4C"/>
<path d="M211.092 201.226C211.313 201.221 211.608 206.122 211.752 212.17C211.897 218.22 211.834 223.128 211.614 223.133C211.393 223.14 211.097 218.239 210.952 212.189C210.81 206.141 210.871 201.233 211.092 201.226Z" fill="#1B3D4C"/>
<path d="M210.011 276.189V217.99L251.312 176.472H309.133L350 217.339V275.118L309.49 315.627H251.529L210.011 276.189Z" fill="#F2F2F2"/>
<path d="M217.198 273.432V220.558L254.72 182.837H307.252L344.38 219.965V272.46L307.576 309.262H254.917L217.198 273.432Z" fill="#FF735D"/>
<path d="M261.479 176.458C261.479 175.901 265.62 168.042 268.408 167.82H270.973C270.973 167.82 273.495 164.45 276.806 165.319C276.806 165.319 279.106 162.078 283.679 164.533C283.679 164.533 286.866 163.912 288.369 165.479C290.28 167.471 297.403 173.73 297.96 176.63C298.518 179.53 297.96 186.444 296.288 186.891C294.615 187.336 294.083 187.021 294.083 187.021C294.083 187.021 293.555 190.356 292.504 191.658C290.518 194.121 287.254 191.351 287.254 191.351C287.254 191.351 285.993 193.127 284.311 193.257C281.275 193.492 280.897 188.339 280.897 188.339L280.674 181.091C280.674 181.091 280.084 184.547 277.551 184.608C275.819 184.651 274.776 182.558 274.776 182.558L271.604 176.547L261.479 176.458Z" fill="#FFC19D"/>
<path d="M271.573 168.092C271.426 168.347 274.922 169.898 277.469 173.629C280.086 177.312 280.327 181.129 280.617 181.08C280.728 181.077 280.835 180.123 280.573 178.604C280.315 177.091 279.597 175.033 278.247 173.087C276.891 171.147 275.211 169.758 273.88 168.992C272.547 168.218 271.615 167.989 271.573 168.092Z" fill="#FF9C6A"/>
<path d="M282.226 168.007C282.126 168.139 283.327 168.961 284.648 170.807C285.984 172.629 287.282 175.558 287.735 178.996C288.184 182.439 287.909 185.628 287.731 187.924C287.535 190.227 287.426 191.663 287.563 191.682C287.686 191.698 288.03 190.304 288.397 188.004C288.746 185.713 289.142 182.461 288.675 178.868C288.205 175.271 286.724 172.204 285.179 170.399C283.643 168.562 282.267 167.921 282.226 168.007Z" fill="#FF9C6A"/>
<path d="M292.228 173.317C292.113 173.406 292.571 174.094 293.053 175.296C293.545 176.491 293.995 178.229 294.122 180.206C294.251 182.184 294.116 184.005 294.054 185.33C293.985 186.657 293.987 187.491 294.119 187.507C294.246 187.524 294.48 186.726 294.721 185.407C294.955 184.089 295.203 182.227 295.07 180.142C294.936 178.054 294.343 176.199 293.658 175.005C292.981 173.799 292.314 173.242 292.228 173.317Z" fill="#FF9C6A"/>
<path d="M319.847 220.003L306.836 206.992L280.954 232.875L255.723 206.357L242.392 219.04L267.939 245.89L241.732 272.097L254.743 285.106L280.625 259.225L305.857 285.743L319.187 273.06L293.64 246.21L319.847 220.003Z" fill="white"/>
</svg>
