<svg width="460" height="428" viewBox="0 0 460 428" fill="none" xmlns="http://www.w3.org/2000/svg">
<g filter="url(#filter0_dd_6378_5941)">
<g filter="url(#filter1_dd_6378_5941)">
<path d="M257.999 392.007C354.471 392.007 432.677 313.801 432.677 217.329C432.677 120.858 354.471 42.6519 257.999 42.6519C161.528 42.6519 83.3218 120.858 83.3218 217.329C83.3218 313.801 161.528 392.007 257.999 392.007Z" fill="#F1F1F1" fill-opacity="0.7" shape-rendering="crispEdges"/>
</g>
</g>
<path fill-rule="evenodd" clip-rule="evenodd" d="M329.171 376.875C307.428 386.598 283.34 392.007 257.999 392.007C256.918 392.007 255.84 391.997 254.764 391.977C254.829 390.233 255.089 387.106 255.41 383.676C256.08 376.512 257.019 368.023 257.019 368.023C257.355 359.77 254.763 306.954 254.763 306.954L244.476 182.637C244.476 182.637 246.651 173.273 252.43 170.638C258.21 168.002 294.658 163.299 294.658 163.299L306.069 146.413L363.999 140.688L379.756 158.771C379.756 158.771 394.29 162.927 410.758 165.924C412.379 166.22 414.355 166.948 416.367 167.847C421.652 170.209 427.185 173.754 427.185 173.754L427.194 173.776C430.773 187.701 432.676 202.295 432.676 217.329C432.676 288.108 390.488 349.112 329.908 376.543L329.171 376.875Z" fill="#3D9883"/>
<path fill-rule="evenodd" clip-rule="evenodd" d="M427.195 173.775L459.529 255.441C459.71 255.802 456.043 284.287 449.306 296.421C441.92 309.725 432.924 307.358 424.205 306.834C422.064 306.704 408.51 298.247 406.53 296.421C404.85 294.871 426.363 286.882 429.434 217.439C430.099 202.418 430.775 187.698 427.195 173.775Z" fill="#3D9883"/>
<path fill-rule="evenodd" clip-rule="evenodd" d="M329.421 375.261C329.239 373.686 329.054 372.044 328.867 370.339C327.872 361.438 326.946 350.813 326.168 338.993C325.448 327.173 324.909 314.16 324.757 300.492C324.644 286.829 324.929 273.811 325.418 261.981C325.966 250.152 326.685 239.512 327.504 230.594C328.308 221.675 329.087 214.469 329.743 209.502L330.499 203.784L330.725 202.3C330.784 201.968 330.821 201.798 330.841 201.8C330.86 201.802 330.86 201.977 330.841 202.315L330.727 203.81L330.18 209.548C329.66 214.526 329.004 221.738 328.304 230.656C327.585 239.574 326.948 250.207 326.461 262.021C326.029 273.837 325.774 286.837 325.887 300.482C326.042 314.13 326.546 327.126 327.209 338.933C327.928 350.739 328.771 361.359 329.663 370.262C329.832 371.995 329.999 373.662 330.162 375.261H329.421Z" fill="#1A2E35"/>
<path fill-rule="evenodd" clip-rule="evenodd" d="M416.369 182.414C413.637 185.209 410.913 188.619 408.905 192.543C402.933 204.214 402.496 228.808 402.496 228.808L368.204 197.943L353.163 180.047L327.421 204.04L363.9 252.622C363.9 252.622 368.847 260.825 377.78 272.262C384.648 281.053 404.587 296.03 416.369 303.046V182.414Z" fill="#3D9883"/>
<path d="M424.232 255.325C424.129 255.416 422.656 253.862 421.087 250.839C419.448 247.855 417.996 243.389 415.697 238.9C414.523 236.673 413.158 234.684 411.619 233.182C410.085 231.676 408.407 230.637 406.903 230.018C403.854 228.768 401.704 229.237 401.702 229.02C401.691 228.961 402.193 228.768 403.156 228.692C404.112 228.611 405.538 228.714 407.185 229.268C408.824 229.829 410.661 230.863 412.341 232.428C414.027 233.993 415.484 236.071 416.698 238.372C419.072 243.019 420.378 247.479 421.806 250.489C423.158 253.532 424.371 255.219 424.232 255.325Z" fill="#1A2E35"/>
<path d="M368.204 197.944C368.321 197.991 367.685 199.954 366.094 202.877C364.509 205.792 361.851 209.621 358.106 213.092C354.362 216.561 350.323 218.904 347.283 220.234C344.231 221.564 342.214 222.012 342.179 221.893C341.993 221.527 350.017 219.106 357.339 212.26C364.707 205.481 367.848 197.72 368.204 197.944Z" fill="#1A2E35"/>
<path d="M338.628 203.812C338.615 203.738 338.897 203.592 339.46 203.464C339.999 203.36 340.942 203.193 341.968 203.779C342.948 204.366 343.746 205.599 343.79 207.109C343.903 208.622 342.764 210.376 341.038 210.828C340.199 211.082 339.278 211.047 338.493 210.706C337.713 210.369 337.115 209.785 336.732 209.139C335.907 207.828 336.152 206.283 336.622 205.364C337.078 204.366 337.871 203.766 338.473 203.634C339.075 203.488 339.399 203.619 339.397 203.679C339.456 203.84 337.967 203.851 337.361 205.668C337.05 206.537 336.963 207.629 337.619 208.589C338.221 209.556 339.46 210.148 340.714 209.743C341.981 209.38 342.757 208.25 342.748 207.111C342.772 205.975 342.205 204.947 341.529 204.449C340.845 203.94 340.034 203.925 339.504 203.903C338.96 203.892 338.641 203.892 338.628 203.812Z" fill="#1A2E35"/>
<path d="M148.846 220.069C148.846 220.069 116.866 239.767 134.678 255.481C152.489 271.195 181.626 270.341 191.658 265.522C201.689 260.704 252.91 237.518 252.91 237.518L252.436 170.639C252.436 170.639 236.918 178.1 226.211 187.235C219.813 192.697 189.133 210.324 189.133 210.324L196.036 206.309L148.846 220.069Z" fill="#3D9883"/>
<path d="M291.523 166.969C291.577 174.815 289.33 182.665 285.126 189.292C295.37 185.26 304.833 179.255 312.842 171.707C316.093 176.263 320.114 180.27 324.683 183.502C322.009 176.858 317.284 171.29 313.277 165.354C309.271 159.416 305.844 152.583 306.359 145.439L291.523 166.969Z" fill="#3D9883"/>
<path d="M308.293 171.962C308.339 171.982 308.08 172.775 307.291 174.044C306.526 175.327 305.135 177.018 303.145 178.791C299.202 182.423 292.714 185.95 285.983 190.223C285.796 190.345 285.611 190.465 285.44 190.575L284.179 191.397L284.579 189.958C286.707 182.31 289.245 175.64 291.162 170.858C292.13 168.469 292.964 166.561 293.579 165.262C294.197 163.96 294.594 163.268 294.662 163.299C294.733 163.332 294.473 164.081 293.981 165.429C293.405 167.009 292.712 168.913 291.901 171.141C290.182 175.976 287.772 182.677 285.672 190.254L284.809 189.634C284.983 189.523 285.172 189.4 285.362 189.278C292.193 184.944 298.637 181.584 302.623 178.183C306.724 174.896 308.102 171.84 308.293 171.962Z" fill="#1A2E35"/>
<path d="M257.02 368.021C256.981 368.021 256.922 367.45 256.846 366.359C256.779 365.149 256.687 363.562 256.572 361.583C256.379 357.299 256.107 351.329 255.774 344.009C255.479 336.545 255.127 327.723 254.738 317.939C254.525 313.037 254.416 307.879 254.103 302.553C253.679 297.228 253.24 291.719 252.792 286.075C249.348 242.116 246.881 210.62 246.381 204.252C246.392 204.22 246.605 204.802 246.744 205.882C246.916 206.964 247.111 208.567 247.346 210.631C247.807 214.759 248.396 220.741 249.072 228.136C250.423 242.927 252.132 263.378 253.92 285.977C254.362 291.628 254.794 297.146 255.209 302.475C255.509 307.815 255.594 312.971 255.779 317.88C256.077 327.672 256.346 336.502 256.574 343.97C256.757 351.299 256.907 357.276 257.013 361.564C257.039 363.548 257.059 365.138 257.074 366.35C257.076 367.444 257.059 368.019 257.02 368.021Z" fill="#1A2E35"/>
<path d="M192.048 203.282C192.215 203.367 190.698 206.438 188.733 211.585C186.786 216.734 184.476 224.013 183.091 232.298C182.389 236.434 181.967 240.415 181.759 244.047C181.491 247.67 181.724 250.963 181.218 253.786C180.744 256.62 179.233 258.633 177.918 259.522C177.264 259.989 176.675 260.213 176.271 260.313C175.867 260.415 175.645 260.413 175.638 260.381C175.599 260.272 176.495 260.144 177.649 259.174C178.796 258.229 180.077 256.338 180.429 253.654C180.813 251 180.507 247.67 180.718 243.995C180.87 240.324 181.265 236.292 181.974 232.109C183.374 223.728 185.838 216.399 187.99 211.287C189.081 208.733 190.063 206.714 190.794 205.345C191.537 203.982 191.978 203.246 192.048 203.282Z" fill="#1A2E35"/>
<path d="M187.458 250.942C187.308 250.946 187.087 248.671 186.95 244.98C186.813 241.292 186.782 236.189 187 230.56C187.221 224.926 187.647 219.84 188.071 216.174C188.495 212.505 188.893 210.256 189.043 210.271C189.204 210.288 189.088 212.568 188.869 216.243C188.649 219.919 188.352 224.994 188.132 230.603C187.915 236.211 187.817 241.294 187.75 244.974C187.682 248.656 187.619 250.938 187.458 250.942Z" fill="#1A2E35"/>
<path d="M189.972 206.356C189.965 206.48 187.749 206.497 184.236 205.852C180.731 205.217 175.949 203.776 171.122 201.205C166.301 198.621 162.446 195.448 159.968 192.887C157.479 190.327 156.262 188.475 156.36 188.401C156.625 188.114 162.12 195.189 171.657 200.207C181.126 205.343 190.063 205.976 189.972 206.356Z" fill="#1A2E35"/>
<path d="M183.832 187.108C183.981 187.213 183.116 188.058 183.449 189.643C183.608 190.386 184.079 191.275 184.918 191.686C185.733 192.125 186.887 191.864 187.7 191.071C188.511 190.277 188.8 189.13 188.383 188.304C187.994 187.456 187.113 186.965 186.374 186.787C184.799 186.417 183.931 187.263 183.832 187.108C183.786 187.069 183.905 186.787 184.34 186.474C184.766 186.163 185.544 185.893 186.507 185.998C187.439 186.113 188.646 186.602 189.317 187.841C190.024 189.088 189.591 190.847 188.491 191.881C187.431 192.955 185.664 193.346 184.434 192.609C183.212 191.909 182.749 190.69 182.656 189.758C182.575 188.791 182.864 188.019 183.186 187.602C183.508 187.174 183.792 187.063 183.832 187.108Z" fill="#1A2E35"/>
<path d="M429.341 179.194C429.341 179.194 429.569 179.644 429.949 180.541C430.341 181.489 430.89 182.819 431.601 184.534C433.042 188.096 435.129 193.249 437.787 199.824C443.101 213.114 450.706 232.138 459.953 255.272L460.001 255.394L459.977 255.531C458.539 263.634 457.011 272.245 455.405 281.29C454.607 285.852 453.244 290.473 450.975 294.792C449.854 296.95 448.523 299.036 446.963 300.982C446.172 301.947 445.339 302.886 444.403 303.751C443.427 304.666 442.329 305.283 441.197 305.902C436.585 308.347 431.082 308.489 425.959 307.626C423.423 307.154 420.701 306.696 418.367 305.181C416.163 303.744 413.942 302.299 411.706 300.84C402.799 294.99 393.779 288.684 385.42 281.223C378.789 275.385 373.025 268.813 367.772 262.138C362.501 255.464 357.661 248.678 353.086 241.982C343.945 228.581 335.568 215.694 327.027 204.338L326.757 203.982L327.086 203.677C336.427 195.006 345.047 187.005 352.875 179.737L353.18 179.457L353.469 179.748C368.337 194.864 380.415 207.142 388.815 215.683C392.949 219.924 396.177 223.236 398.411 225.525C399.469 226.633 400.293 227.492 400.886 228.111C401.438 228.698 401.699 229.022 401.699 229.022C401.699 229.022 401.38 228.757 400.797 228.198C400.182 227.6 399.332 226.77 398.233 225.699C395.964 223.447 392.682 220.189 388.478 216.016C380.013 207.54 367.844 195.353 352.862 180.348L353.456 180.361C345.655 187.659 337.068 195.694 327.761 204.403L327.82 203.743C336.423 215.103 344.842 227.994 353.988 241.362C358.568 248.041 363.399 254.801 368.652 261.441C373.897 268.091 379.598 274.59 386.174 280.378C394.468 287.78 403.438 294.061 412.319 299.908C414.544 301.36 416.754 302.805 418.947 304.237C421.062 305.626 423.629 306.072 426.139 306.541C431.134 307.389 436.374 307.239 440.703 304.95C441.755 304.381 442.853 303.755 443.681 302.966C444.566 302.151 445.374 301.245 446.139 300.314C447.656 298.437 448.952 296.409 450.051 294.309C452.273 290.108 453.618 285.594 454.416 281.119C456.054 272.073 457.615 263.46 459.084 255.353L459.106 255.609C450.01 232.414 442.531 213.341 437.306 200.013C434.744 193.402 432.736 188.216 431.349 184.632C430.693 182.897 430.184 181.552 429.821 180.594C429.482 179.679 429.341 179.194 429.341 179.194Z" fill="#1A2E35"/>
<path d="M379.506 159.759C378.714 168.381 368.856 185.395 365.769 190.178C365.769 190.178 359.384 177.516 356.043 170.618L354.791 180.483C352.114 178.062 354.531 164.254 354.109 164.376L363.49 140.74L379.506 159.759Z" fill="#3D9883"/>
<path d="M362.098 140.876C362.094 140.824 362.748 140.707 363.989 140.535L364.061 140.524L364.119 140.587C366.634 143.254 372.459 149.752 380.131 158.446L380.294 158.629L380.24 158.877C378.712 166.058 375.851 174.34 371.289 182.365C369.683 185.225 367.971 187.937 366.234 190.489L365.656 191.339L365.258 190.387C363.219 185.494 360.648 181.122 358.56 177.003C356.441 172.897 354.739 169.031 353.852 165.514L354.58 165.584C352.859 169.452 351.446 172.623 350.388 174.999C349.379 177.205 348.792 178.405 348.723 178.376C348.651 178.353 349.103 177.101 349.992 174.84C350.972 172.421 352.281 169.189 353.876 165.247L354.298 164.208L354.604 165.316C355.549 168.718 357.284 172.489 359.438 176.544C361.565 180.617 364.178 184.966 366.288 189.967L365.312 189.865C367.025 187.327 368.714 184.638 370.3 181.81C374.808 173.88 377.673 165.749 379.279 158.664L379.39 159.092C371.828 150.305 366.184 143.645 363.889 140.789L364.019 140.841C362.77 140.915 362.102 140.928 362.098 140.876Z" fill="#1A2E35"/>
<path d="M398.057 202.743C398.368 202.704 399.385 208.675 400.509 216.058C401.065 219.753 401.53 223.106 401.761 225.553C401.872 226.779 401.93 227.777 401.893 228.481C401.867 228.838 401.854 229.103 401.722 229.324C401.596 229.509 401.4 229.355 401.42 229.322C401.391 229.27 401.389 229.242 401.404 229.229C401.7 229.729 401.385 227.999 400.965 225.66C400.537 223.256 399.948 219.924 399.392 216.227C398.264 208.833 397.746 202.78 398.057 202.743Z" fill="#1A2E35"/>
<path d="M334.944 179.067C319.398 179.393 306.827 166.47 307.581 150.939C307.829 145.807 308.033 142.087 308.033 142.087C308.033 142.087 286.538 139.298 285.734 117.896C284.929 96.4968 287.403 47.2449 287.403 47.2449C311.917 35.9713 340.61 38.8446 362.399 54.7584L365.633 57.1209L362.095 140.876C362.095 140.876 352.649 172.139 345.468 176.679C341.469 179.204 339.993 178.961 334.944 179.067Z" fill="#C88976"/>
<path d="M308.034 142.087C308.034 142.087 321.548 142.539 335.699 133.146C335.699 133.146 329.277 148.699 307.866 147.308L308.034 142.087Z" fill="#BF654E"/>
<path d="M363.558 79.3614C363.919 79.194 378.157 74.6407 378.06 89.2874C377.96 103.936 363.276 100.815 363.252 100.396C363.23 99.9741 363.558 79.3614 363.558 79.3614Z" fill="#C88976"/>
<path d="M367.762 94.8759C367.827 94.8302 368.016 95.0563 368.447 95.2562C368.866 95.4518 369.588 95.5909 370.353 95.3084C371.905 94.752 373.224 92.3025 373.313 89.664C373.361 88.3317 373.089 87.0602 372.624 86.0061C372.183 84.9303 371.496 84.1783 370.718 84.0348C369.944 83.8501 369.39 84.313 369.207 84.7238C369.007 85.1324 369.099 85.4237 369.023 85.4497C368.981 85.4845 368.71 85.202 368.831 84.5978C368.894 84.3065 369.068 83.9631 369.412 83.6849C369.766 83.4002 370.285 83.2568 370.827 83.3198C371.955 83.4067 372.965 84.4521 373.476 85.6084C374.05 86.7712 374.384 88.2013 374.332 89.6988C374.219 92.6481 372.691 95.3997 370.57 95.9974C369.536 96.2604 368.679 95.943 368.238 95.5953C367.786 95.2302 367.712 94.902 367.762 94.8759Z" fill="#BF654E"/>
<path d="M295.651 81.3736C295.635 82.9887 296.991 84.334 298.676 84.3842C300.362 84.4322 301.742 83.1625 301.76 81.5475C301.773 79.9302 300.42 78.5828 298.736 78.5348C297.048 78.4868 295.666 79.7564 295.651 81.3736Z" fill="#1A2E35"/>
<path d="M292.216 77.2581C292.605 77.6471 294.879 75.8758 298.167 75.8019C301.453 75.6802 303.909 77.3102 304.257 76.8995C304.429 76.7169 304.024 76.0062 302.953 75.2672C301.899 74.5326 300.114 73.8349 298.067 73.8958C296.018 73.9588 294.314 74.7565 293.342 75.5541C292.351 76.3539 292.025 77.0842 292.216 77.2581Z" fill="#1A2E35"/>
<path d="M327.646 81.3737C327.632 82.9889 328.984 84.3346 330.675 84.3833C332.356 84.4296 333.739 83.1627 333.755 81.5498C333.771 79.9326 332.416 78.5824 330.73 78.5338C329.044 78.4874 327.664 79.7587 327.646 81.3737Z" fill="#1A2E35"/>
<path d="M324.566 77.0575C324.955 77.4465 327.233 75.673 330.519 75.6013C333.803 75.4796 336.261 77.1096 336.609 76.6967C336.778 76.5163 336.378 75.8056 335.303 75.0666C334.251 74.332 332.466 73.6343 330.417 73.6952C328.369 73.756 326.663 74.5559 325.692 75.3513C324.703 76.1533 324.377 76.8836 324.566 77.0575Z" fill="#1A2E35"/>
<path d="M313.242 101.756C313.251 101.569 311.199 101.267 307.874 100.928C307.033 100.86 306.233 100.715 306.076 100.143C305.863 99.5412 306.192 98.6284 306.574 97.6395C307.313 95.5877 308.087 93.4361 308.897 91.18C312.119 81.9865 314.427 74.4338 314.057 74.3077C313.683 74.1817 310.773 81.5322 307.552 90.7258C306.778 92.9927 306.037 95.1531 305.333 97.2222C305.042 98.1828 304.52 99.2804 304.981 100.53C305.224 101.152 305.853 101.591 306.394 101.721C306.937 101.873 307.409 101.871 307.826 101.886C311.164 101.982 313.233 101.943 313.242 101.756Z" fill="#1A2E35"/>
<path d="M323.183 69.239C323.59 70.0997 326.822 69.3694 330.71 69.4672C334.598 69.4911 337.806 70.3236 338.241 69.4759C338.432 69.0717 337.811 68.2849 336.478 67.5416C335.152 66.7961 333.094 66.1658 330.762 66.1267C328.432 66.0919 326.352 66.6592 325.007 67.3612C323.649 68.061 323.005 68.8304 323.183 69.239Z" fill="#1A2E35"/>
<path d="M291.367 70.9361C291.973 71.725 294.596 71.1274 297.691 71.3012C300.791 71.3795 303.368 72.1902 304.025 71.4512C304.316 71.0904 303.953 70.3145 302.858 69.5321C301.777 68.7518 299.93 68.0476 297.8 67.9607C295.672 67.8759 293.786 68.4258 292.658 69.1169C291.512 69.8081 291.101 70.5536 291.367 70.9361Z" fill="#1A2E35"/>
<path d="M322.416 108.708C321.573 107.919 320.402 107.552 319.25 107.497C318.098 107.443 316.952 107.68 315.833 107.965C314.527 108.297 313.127 108.78 312.414 109.925C311.932 110.699 311.851 111.67 312.001 112.57C312.153 113.47 312.314 116.715 314.094 117.519H321.784C322.864 116.497 323.381 114.27 323.642 112.805C323.903 111.342 323.501 109.723 322.416 108.708Z" fill="#BF654E"/>
<path d="M319.977 117.555C320.022 117.472 320.329 117.65 320.848 117.541C321.361 117.437 322.078 117.016 322.385 116.105C322.702 115.227 322.748 113.897 322.843 112.538C322.911 111.199 322.709 109.689 321.724 108.672C320.787 107.592 319.292 107.95 317.908 108.194C316.501 108.446 315.295 108.663 314.378 109.076C312.5 109.882 312.152 111.343 311.97 111.241C311.909 111.223 311.907 110.869 312.152 110.282C312.402 109.706 313.004 108.911 314.017 108.361C315.015 107.791 316.33 107.476 317.692 107.172C318.386 107.016 319.14 106.837 319.998 106.826C320.863 106.779 321.909 107.185 322.535 107.881C323.874 109.28 324.008 111.176 323.885 112.599C323.717 114.042 323.622 115.305 323.12 116.422C322.62 117.548 321.537 118.024 320.883 117.981C320.181 117.954 319.931 117.589 319.977 117.555Z" fill="#1A2E35"/>
<path d="M347.416 61.0623C346.869 63.3031 346.325 65.6938 347.082 67.8738C347.838 70.0537 350.457 71.7447 352.496 70.6645C351.837 72.89 351.428 75.2308 351.7 77.5368C351.97 79.8407 352.976 82.1206 354.765 83.6007C356.556 85.0808 359.174 85.6263 361.285 84.657C363.395 83.6876 364.71 81.0795 363.936 78.893C365.875 80.3232 368.938 79.1995 369.994 77.0326C371.05 74.8679 370.398 72.1641 368.931 70.2537C371.061 70.421 372.947 68.4954 373.315 66.3915C373.68 64.2855 372.848 62.1403 371.678 60.3516C370.507 58.565 368.998 57.0219 367.779 55.2658C366.718 53.74 365.703 51.9209 363.913 51.4253C362.476 51.0297 360.968 51.6274 359.616 52.2534C355.069 54.3638 350.748 56.9567 346.745 59.9756" fill="#1A2E35"/>
<path d="M370.744 47.3915C370.744 47.3915 380.728 48.5586 382.117 41.8666C385.762 24.3032 361.585 16.857 361.585 16.857C361.585 16.857 353.119 14.6162 339.261 9.49565C332.974 7.17226 327.714 4.38375 323.848 2.03428C319.338 -0.704234 313.665 -0.706407 309.24 2.16469C303.185 6.09424 293.93 11.3887 283.622 14.7619C283.622 14.7619 274.148 17.2352 274.204 29.552C274.23 35.2051 283.839 39.4215 283.839 39.4215L370.744 47.3915Z" fill="#3D9883"/>
<path d="M369.19 57.1101L370.829 46.8402C370.829 46.8402 314.095 26.3861 284.944 39.5706L284.944 51.1738L369.19 57.1101Z" fill="#375A64"/>
<path d="M269.781 58.7551C269.781 58.7551 276.818 64.4424 292.245 65.2105C320.321 66.6158 366.029 56.8881 366.029 56.8881L284.945 51.1743L269.781 58.7551Z" fill="#3D9883"/>
<path d="M322.828 22.9288C323.348 22.631 322.548 35.665 322.548 35.665C322.548 35.665 321.205 43.8306 310.953 43.3503C300.066 42.8395 300.959 32.5114 300.959 32.5114L301.537 22.9288C301.537 22.9288 308.264 25.1022 311.924 18.7275C311.924 18.7275 316.745 26.4041 322.828 22.9288Z" fill="#E1E1E1"/>
<path d="M368.906 57.5084C368.914 57.5866 368.06 57.7779 366.506 58.0561C364.711 58.3582 362.509 58.7298 359.916 59.1645C354.346 60.0621 346.654 61.3162 338.124 62.5225C329.591 63.7352 321.819 64.5546 316.176 64.9045C313.357 65.0849 311.073 65.1806 309.491 65.1936C307.911 65.211 307.035 65.1827 307.033 65.1045C307.028 65.0262 307.896 64.9045 309.465 64.7524C311.277 64.5763 313.496 64.3612 316.111 64.1069C321.719 63.5527 329.445 62.6116 337.967 61.4031C346.485 60.1969 354.2 59.0689 359.803 58.3712C362.603 58.0213 364.874 57.7627 366.448 57.6192C368.021 57.4736 368.895 57.4301 368.906 57.5084Z" fill="#375A64"/>
<path d="M311.723 129.685V114.856H320.084V129.685H311.723Z" fill="#1EA788"/>
<path d="M322.083 121.174C322.083 121.174 320.318 122.646 320.611 127.16C320.905 131.676 325.421 135.602 325.421 135.602V139.427L311.189 123.433C311.189 123.433 309.816 121.174 307.755 121.861C305.695 122.548 301.083 125.395 304.321 131.185C304.321 131.185 300.592 132.165 300.69 137.171C300.69 137.171 294.9 135.306 294.9 141.978V146.004C294.9 146.004 292.839 144.334 290.974 146.004C289.11 147.671 289.503 152.48 290.092 154.736C290.681 156.995 306.675 179.368 311.681 181.724C316.686 184.08 319.827 187.12 319.827 187.12L330.818 200.37L351.098 181.363C351.098 181.363 338.766 169.066 337.981 166.71C337.197 164.354 339.55 156.995 339.355 154.147C339.159 151.302 337.883 140.409 337.197 138.153C336.51 135.895 322.083 121.174 322.083 121.174Z" fill="#C88976"/>
<path d="M330.819 200.37C330.797 200.387 330.53 200.107 330.028 199.544C329.482 198.916 328.758 198.083 327.839 197.027C325.887 194.725 323.116 191.461 319.597 187.312L319.619 187.336C318.432 186.258 317.02 185.21 315.47 184.217C314.694 183.719 313.868 183.25 313.007 182.793C312.156 182.35 311.223 181.948 310.315 181.289C307.018 178.609 304.146 175.056 301.045 171.248C297.991 167.399 294.835 163.191 291.741 158.555C290.991 157.342 290.167 156.312 289.576 154.756C289.232 153.313 289.069 151.846 289.095 150.335C289.169 148.853 289.261 147.205 290.426 145.823C291.008 145.178 291.871 144.741 292.786 144.734C293.705 144.732 294.505 145.056 295.235 145.586L294.368 146.001C294.366 144.96 294.364 143.902 294.362 142.828C294.346 141.787 294.366 140.579 294.722 139.438C295.055 138.294 295.94 137.142 297.172 136.703C298.396 136.258 299.639 136.312 300.86 136.645L300.139 137.182C300.104 135.936 300.326 134.58 300.975 133.35C301.66 132.133 302.723 131.116 304.179 130.642L303.833 131.457C303.21 130.303 302.699 129.005 302.653 127.579C302.571 126.154 303.166 124.695 304.103 123.622C305.066 122.557 306.257 121.768 307.643 121.309C308.417 121.053 309.326 121.17 310.017 121.559C310.715 121.957 311.234 122.474 311.675 123.137L311.614 123.057C311.73 123.185 311.853 123.326 311.979 123.467C316.72 128.801 321.356 134.017 325.837 139.059L324.864 139.427C324.866 138.142 324.868 136.866 324.868 135.602L325.059 136.017C322.938 134.03 321.197 131.702 320.373 128.931C319.999 127.516 319.989 126.106 320.128 124.726C320.317 123.339 320.614 121.959 321.747 120.77L322.084 120.418L322.46 120.807C326.096 124.554 329.552 128.199 332.762 131.778C334.355 133.587 335.922 135.306 337.259 137.266C337.624 137.838 337.787 138.468 337.876 139.012C337.974 139.57 338.074 140.127 338.171 140.679C338.332 141.781 338.489 142.867 338.643 143.939C338.928 146.082 339.171 148.162 339.386 150.174C339.484 151.185 339.582 152.176 339.675 153.15C339.788 154.106 339.782 155.175 339.632 156.101C339.13 159.842 337.987 163.258 338.208 166.247C338.313 166.923 338.8 167.51 339.226 168.109C339.66 168.703 340.123 169.255 340.564 169.798C341.466 170.865 342.331 171.856 343.155 172.767C344.8 174.558 346.213 176.097 347.387 177.373C348.506 178.572 349.391 179.52 350.054 180.226C350.653 180.876 350.958 181.222 350.936 181.243C350.916 181.265 350.569 180.961 349.927 180.35C349.236 179.672 348.31 178.761 347.141 177.612C345.937 176.401 344.468 174.901 342.786 173.106C341.942 172.209 341.056 171.228 340.125 170.168C339.671 169.627 339.195 169.079 338.739 168.477C338.313 167.886 337.741 167.251 337.574 166.36C337.291 163.035 338.426 159.7 338.863 156.003C339.152 154.206 338.732 152.285 338.558 150.268C338.326 148.262 338.065 146.188 337.765 144.058C337.604 142.998 337.439 141.92 337.272 140.826C337.172 140.287 337.072 139.744 336.972 139.199C336.874 138.629 336.726 138.155 336.467 137.764C335.218 135.96 333.618 134.208 332.031 132.433C328.817 128.892 325.346 125.265 321.708 121.544L322.421 121.581C321.732 122.302 321.308 123.626 321.188 124.847C321.067 126.11 321.086 127.432 321.416 128.642C322.138 131.096 323.822 133.363 325.783 135.184L325.974 135.36V135.602C325.974 136.866 325.974 138.142 325.976 139.427L325.978 140.889L325.005 139.796C320.521 134.76 315.879 129.549 311.134 124.219C311.008 124.078 310.884 123.937 310.769 123.809L310.743 123.778L310.708 123.726C310.078 122.765 308.969 122.02 307.978 122.389C306.837 122.761 305.742 123.483 304.953 124.365C304.181 125.265 303.714 126.388 303.777 127.553C303.812 128.716 304.244 129.859 304.812 130.911L305.133 131.511L304.464 131.726C303.442 132.055 302.479 132.904 301.953 133.882C301.423 134.889 301.214 136.041 301.245 137.16L301.262 137.905L300.521 137.697C299.569 137.432 298.448 137.392 297.565 137.727C296.666 138.058 296.05 138.836 295.757 139.777C295.464 140.737 295.427 141.733 295.44 142.828C295.438 143.902 295.438 144.96 295.435 146.001L295.433 147.09L294.564 146.419C293.527 145.612 292.025 145.541 291.195 146.538C290.373 147.46 290.173 148.988 290.126 150.357C290.093 151.761 290.247 153.185 290.558 154.51C290.973 155.621 291.856 156.882 292.566 158.014C295.609 162.624 298.732 166.849 301.738 170.7C304.779 174.504 307.646 178.096 310.767 180.691C311.177 180.974 311.562 181.228 311.999 181.472C312.458 181.696 312.908 181.924 313.344 182.163C314.218 182.639 315.053 183.13 315.837 183.649C317.409 184.686 318.813 185.755 320.036 186.907L320.047 186.918L320.058 186.931C323.483 191.156 326.183 194.482 328.082 196.825C328.952 197.922 329.636 198.787 330.151 199.439C330.612 200.037 330.838 200.352 330.819 200.37Z" fill="#BF654E"/>
<path d="M314.416 143.583C314.175 143.779 311.643 141.023 308.769 137.43C305.897 133.838 303.762 130.767 304.005 130.573C304.251 130.376 306.778 133.13 309.654 136.725C312.529 140.317 314.661 143.388 314.416 143.583Z" fill="#BF654E"/>
<path d="M306.821 146.491C306.606 146.702 304.658 144.986 303.011 142.279C301.35 139.578 300.712 137.064 300.998 136.965C301.299 136.853 302.383 139.097 303.974 141.688C305.552 144.286 307.059 146.272 306.821 146.491Z" fill="#BF654E"/>
<path d="M297.705 152.174C297.429 152.32 296.453 151.017 295.531 149.264C294.605 147.509 294.077 145.969 294.354 145.823C294.631 145.677 295.605 146.979 296.528 148.733C297.454 150.488 297.982 152.028 297.705 152.174Z" fill="#BF654E"/>
<path d="M100.405 116.693C105.081 84.2723 114.088 44.0624 160.412 47.376C160.412 47.376 202.517 51.9099 206.142 82.5336C209.645 112.124 226.383 134.715 211.286 161.918C202.585 177.596 206.365 181.841 226.732 197.6C230.71 200.678 228.116 210.026 229.057 219.505C231.441 243.476 230.743 278.402 226.862 289.395L80.6105 279.761C67.4769 266.91 72.6013 250.805 78.3923 234.321C83.7877 218.961 88.6977 203.691 85.08 188.256C83.5518 181.734 83.1893 174.962 84.9241 167.144C88.7289 149.985 98.89 127.188 100.405 116.693Z" fill="#6D513E"/>
<path d="M200.571 142.937C203.15 130.692 202.665 113.843 201.94 97.2633C200.936 74.3174 185.019 60.4548 166.575 60.4782L163.677 57.7162L132.357 70.3372C127.827 70.5886 124.241 74.2648 124.103 78.8006L127.833 183.983L103.544 190.76L122.555 218.788L156.621 234.114L174.316 218.739L193.735 203.664L195.363 190.863L176.202 185.431C176.202 185.431 176.202 169.68 176.204 169.763C176.204 169.763 195.386 167.559 200.571 142.937Z" fill="#FFC19D"/>
<path d="M162.534 112.579C162.509 114.263 161.062 115.629 159.304 115.638C157.548 115.644 156.141 114.287 156.166 112.602C156.191 110.918 157.638 109.55 159.393 109.542C161.153 109.536 162.559 110.895 162.534 112.579Z" fill="#1B3D4C"/>
<path d="M193.57 113.633C193.543 115.317 192.098 116.685 190.34 116.692C188.583 116.698 187.177 115.341 187.2 113.657C187.227 111.974 188.672 110.605 190.428 110.598C192.186 110.592 193.595 111.951 193.57 113.633Z" fill="#1B3D4C"/>
<path d="M198.662 103.821C198.247 104.217 195.925 102.311 192.499 102.149C189.08 101.936 186.476 103.574 186.127 103.135C185.953 102.94 186.394 102.211 187.526 101.469C188.643 100.73 190.52 100.05 192.655 100.165C194.787 100.284 196.543 101.161 197.534 102.016C198.547 102.876 198.867 103.644 198.662 103.821Z" fill="#1B3D4C"/>
<path d="M165.526 104.176C165.071 104.527 162.953 102.392 159.565 101.88C156.185 101.316 153.429 102.677 153.125 102.205C152.975 101.993 153.481 101.313 154.69 100.693C155.877 100.071 157.813 99.5875 159.924 99.9228C162.033 100.26 163.689 101.311 164.588 102.264C165.504 103.223 165.746 104.022 165.526 104.176Z" fill="#1B3D4C"/>
<path d="M175.869 129.11C175.863 128.915 178.009 128.654 181.483 128.385C182.362 128.338 183.198 128.206 183.375 127.617C183.613 126.995 183.295 126.034 182.921 124.995C182.206 122.838 181.455 120.576 180.668 118.204C177.553 108.542 175.343 100.615 175.733 100.492C176.122 100.371 178.966 108.104 182.083 117.766C182.83 120.148 183.545 122.418 184.225 124.59C184.506 125.601 185.019 126.757 184.506 128.046C184.239 128.689 183.572 129.13 183.005 129.254C182.436 129.397 181.943 129.381 181.508 129.385C178.027 129.399 175.873 129.305 175.869 129.11Z" fill="#1B3D4C"/>
<path d="M176.204 169.764C176.204 169.764 159.452 170.003 143.407 159.23C143.407 159.23 151.244 176.88 176.204 175.802V169.764Z" fill="#FF9C6A"/>
<path d="M172.738 135.384C170.875 134.012 168.674 134.322 168.674 134.322C167.179 134.41 165.815 135.295 164.85 136.46C163.887 137.626 163.977 139.185 164.739 140.38C165.598 141.727 167.947 142.411 169.606 142.029C171.265 141.645 172.713 140.821 173.428 139.222C173.428 139.222 174.602 136.757 172.738 135.384Z" fill="#FF9C6A"/>
<path d="M167.634 94.2114C167.159 95.0827 163.841 94.1257 159.791 93.9951C155.742 93.7846 152.356 94.457 151.955 93.5487C151.78 93.1179 152.471 92.3363 153.906 91.6424C155.327 90.9485 157.508 90.4164 159.937 90.5158C162.366 90.621 164.492 91.3344 165.851 92.1472C167.221 92.96 167.845 93.7962 167.634 94.2114Z" fill="#1B3D4C"/>
<path d="M197.836 90.8258C197.177 91.6192 194.511 90.8707 191.324 90.9019C188.137 90.8356 185.451 91.5548 184.814 90.7537C184.531 90.3658 184.94 89.5764 186.102 88.8123C187.248 88.0521 189.178 87.4089 191.367 87.4187C193.558 87.4323 195.47 88.097 196.595 88.8689C197.739 89.6446 198.127 90.4399 197.836 90.8258Z" fill="#1B3D4C"/>
<path d="M124.728 122.35C124.728 122.35 137.133 124.315 156.164 84.1751C162.476 70.866 169.32 57.7148 169.32 57.7148L163.753 56.0405C163.753 56.0405 129.157 65.7884 128.576 66.225C127.993 66.6597 119.847 84.1166 119.847 84.1166L124.728 122.35Z" fill="#6D513E"/>
<path fill-rule="evenodd" clip-rule="evenodd" d="M85.5732 189.239C99.9185 186.796 124.152 182.791 124.54 182.508C126.575 181.027 136.138 180.461 144.879 194.081C147.792 198.62 153.946 207.837 157.836 201.838C169.994 183.093 181.871 184.43 181.871 184.43C181.871 184.43 230.451 194.081 231.096 194.081C231.741 194.081 234.537 251.258 234.537 258.693C234.538 277.598 231.544 303.35 231.544 303.35C257.155 345.792 313.876 404.635 231.147 389.952C158.677 378.75 100.859 322.938 86.669 251.495L86.4755 249.186L86.2393 249.256C77.1859 251.85 56.7462 249.293 49.2418 248.175L56.3398 205.763C62.0889 199.939 69.6179 192.17 76.0707 190.909C77.6027 190.61 81.1095 190 85.5732 189.239Z" fill="#3D9883"/>
<path fill-rule="evenodd" clip-rule="evenodd" d="M162.838 356.502C162.948 355.114 163.056 353.668 163.164 352.166C163.745 344.327 164.177 334.982 164.406 324.6C164.576 314.221 164.511 302.808 164.029 290.843C163.509 278.883 162.621 267.51 161.584 257.186C160.489 246.867 159.277 237.596 158.045 229.838C156.828 222.077 155.717 215.814 154.832 211.503L153.811 206.541L153.517 205.255C153.443 204.968 153.398 204.821 153.378 204.824C153.359 204.827 153.367 204.979 153.402 205.274L153.585 206.576L154.398 211.568C155.147 215.895 156.137 222.17 157.249 229.934C158.381 237.698 159.51 246.967 160.544 257.277C161.524 267.591 162.38 278.951 162.9 290.893C163.379 302.842 163.478 314.238 163.363 324.603C163.192 334.969 162.843 344.305 162.366 352.141C162.277 353.666 162.187 355.133 162.098 356.541L162.838 356.502Z" fill="#1A2E35"/>
<path d="M115.809 189.484C118.428 197.737 131.701 212.245 135.74 216.257C135.74 216.257 139.266 202.521 141.052 195.067L144.388 204.435C146.485 201.497 141.167 188.527 141.605 188.555L127.381 167.476L115.809 189.484Z" fill="#3D9883"/>
<path d="M128.773 167.311C128.766 167.259 128.102 167.284 126.853 167.382L126.78 167.387L126.736 167.461C124.851 170.605 120.553 178.2 114.92 188.335L114.8 188.548L114.906 188.778C117.936 195.466 122.504 202.944 128.678 209.805C130.86 212.255 133.113 214.538 135.356 216.659L136.103 217.365L136.287 216.35C137.231 211.134 138.806 206.312 139.965 201.842C141.156 197.378 141.99 193.237 142.103 189.612L141.407 189.836C143.917 193.246 145.976 196.041 147.518 198.135C148.976 200.074 149.806 201.12 149.868 201.077C149.933 201.039 149.223 199.913 147.871 197.895C146.395 195.742 144.425 192.865 142.022 189.356L141.388 188.431L141.326 189.58C141.131 193.104 140.244 197.159 139.009 201.582C137.803 206.016 136.182 210.824 135.191 216.161L136.123 215.852C133.906 213.739 131.681 211.474 129.526 209.052C123.424 202.271 118.885 194.942 115.799 188.365L115.782 188.807C121.287 178.604 125.374 170.891 127.005 167.609L126.888 167.688C128.125 167.493 128.78 167.363 128.773 167.311Z" fill="#1A2E35"/>
<path d="M189.932 193.431C187.313 201.684 174.04 216.192 170.001 220.204C170.001 220.204 166.475 206.468 164.689 199.014L161.354 208.382C159.257 205.444 164.574 192.474 164.136 192.503L178.36 171.423L189.932 193.431Z" fill="#3D9883"/>
<path d="M176.968 171.258C176.975 171.206 177.639 171.231 178.888 171.329L178.961 171.334L179.004 171.408C180.89 174.552 185.188 182.147 190.82 192.282L190.941 192.495L190.834 192.725C187.804 199.413 183.237 206.891 177.062 213.752C174.881 216.202 172.627 218.485 170.385 220.606L169.638 221.312L169.453 220.297C168.509 215.081 166.934 210.259 165.776 205.789C164.585 201.325 163.751 197.184 163.638 193.559L164.334 193.782C161.824 197.193 159.765 199.988 158.223 202.082C156.765 204.021 155.935 205.067 155.873 205.024C155.808 204.986 156.518 203.859 157.87 201.842C159.346 199.689 161.316 196.812 163.718 193.303L164.353 192.378L164.415 193.526C164.61 197.051 165.496 201.106 166.732 205.529C167.938 209.963 169.559 214.771 170.549 220.108L169.618 219.799C171.835 217.686 174.06 215.421 176.215 212.999C182.316 206.217 186.856 198.889 189.942 192.311L189.958 192.753C184.454 182.551 180.366 174.837 178.736 171.556L178.852 171.635C177.616 171.44 176.961 171.31 176.968 171.258Z" fill="#1A2E35"/>
<path d="M123.955 238.432C124.553 238.089 123.632 253.104 123.632 253.104C123.632 253.104 122.085 262.511 110.274 261.958C97.7321 261.37 98.7612 249.471 98.7612 249.471L99.4272 238.432C99.4272 238.432 107.177 240.936 111.393 233.592C111.393 233.592 116.947 242.435 123.955 238.432Z" fill="#E1E1E1"/>
<path fill-rule="evenodd" clip-rule="evenodd" d="M111.53 251.879L115.776 247.633C116.566 246.843 117.887 246.879 118.723 247.716C119.559 248.552 119.597 249.873 118.806 250.663L113.127 256.342C112.337 257.133 111.016 257.096 110.18 256.259L104.173 250.253C103.337 249.417 103.3 248.096 104.091 247.305C104.881 246.514 106.202 246.552 107.039 247.388L111.53 251.879Z" fill="#56B09B"/>
<path d="M109.818 244.636C110.676 245.494 112.028 245.532 112.839 244.721C113.65 243.91 113.612 242.558 112.755 241.7C111.897 240.842 110.544 240.805 109.734 241.615C108.923 242.426 108.961 243.779 109.818 244.636Z" fill="#56B09B"/>
<path fill-rule="evenodd" clip-rule="evenodd" d="M312.037 35.2789L315.6 31.7158C316.264 31.0525 317.372 31.0832 318.074 31.7852C318.776 32.4868 318.807 33.5955 318.143 34.2588L313.378 39.0243C312.714 39.6876 311.606 39.6565 310.904 38.9549L305.864 33.9142C305.162 33.2126 305.131 32.1039 305.794 31.4406C306.458 30.777 307.566 30.8081 308.268 31.5097L312.037 35.2789Z" fill="#56B09B"/>
<path d="M310.601 29.2008C311.321 29.9205 312.456 29.9523 313.136 29.2719C313.816 28.5915 313.785 27.4565 313.065 26.7368C312.345 26.0171 311.21 25.9852 310.53 26.6656C309.849 27.346 309.881 28.4811 310.601 29.2008Z" fill="#56B09B"/>
<path d="M126.56 120.299C126.406 117.595 126.02 114.038 125.411 114.047C120.471 114.108 111.769 112.992 111.067 125.367C110.108 142.286 127.29 139.76 127.345 139.277C127.392 138.899 126.923 126.68 126.56 120.299Z" fill="#FFC19D"/>
<path d="M122.541 132.574C122.468 132.515 122.235 132.763 121.724 132.964C121.225 133.159 120.381 133.264 119.517 132.884C117.767 132.128 116.424 129.204 116.516 126.149C116.559 124.608 116.964 123.159 117.578 121.976C118.165 120.77 119.014 119.949 119.925 119.842C120.831 119.684 121.437 120.259 121.617 120.746C121.817 121.234 121.691 121.565 121.778 121.598C121.823 121.645 122.159 121.337 122.061 120.631C122.01 120.29 121.835 119.879 121.455 119.532C121.069 119.179 120.482 118.976 119.851 119.008C118.541 119.025 117.299 120.16 116.623 121.458C115.876 122.758 115.383 124.383 115.334 126.114C115.249 129.529 116.814 132.818 119.219 133.664C120.391 134.042 121.404 133.74 121.94 133.369C122.488 132.981 122.597 132.609 122.541 132.574Z" fill="#FF9C6A"/>
<path d="M72.9085 208.32C73.0332 208.287 73.7505 210.417 74.6335 213.939C75.5184 217.458 76.5242 222.381 77.2493 227.876C77.9666 233.375 78.2629 238.39 78.3175 242.02C78.372 245.651 78.2298 247.892 78.0992 247.892C77.9491 247.894 77.838 245.657 77.6002 242.051C77.3624 238.445 76.9569 233.472 76.2416 228.009C75.5243 222.549 74.6335 217.639 73.9318 214.093C73.234 210.55 72.7623 208.359 72.9085 208.32Z" fill="#1B3D4C"/>
<path d="M197.609 187.335C197.62 187.204 200.37 187.613 204.797 188.568C209.221 189.519 215.318 191.064 221.965 193.152C228.614 195.249 234.535 197.49 238.757 199.259C242.981 201.029 245.519 202.283 245.467 202.402C245.41 202.541 242.776 201.522 238.508 199.933C234.241 198.344 228.325 196.224 221.718 194.143C215.115 192.065 209.079 190.422 204.697 189.289C200.319 188.154 197.596 187.489 197.609 187.335Z" fill="#1B3D4C"/>
<path d="M11.7258 218.871C11.7258 218.871 7.92873 216.82 6.16861 211.468C5.39088 209.105 -0.228637 183.982 0.00721492 176.84C0.245016 169.698 2.61328 165.371 2.61328 165.371C2.61328 165.371 5.45715 135.071 9.48613 130.527C13.5132 125.982 15.1719 128.797 16.357 129.446C16.357 129.446 19.9124 113.429 27.2569 113.646L31.0481 114.946C31.0481 114.946 32.5509 107.911 37.4083 108.381C38.9891 108.533 41.2248 108.934 41.2385 115.811C41.2385 115.811 46.9242 110.4 50.7154 120.787C54.5066 131.177 51.4269 165.371 52.3742 167.968C53.3234 170.564 54.7444 179.871 54.7444 179.871C54.7444 179.871 60.9058 169.049 68.724 166.237C76.5442 163.422 79.388 165.155 79.388 168.184C79.388 171.215 72.5152 173.162 67.303 182.684C62.0909 192.206 56.4032 203.893 51.191 210.169C45.9769 216.446 28.6759 222.062 11.7258 218.871Z" fill="#FFC19D"/>
<path d="M12.5659 206.887C12.5659 206.887 11.1527 222.545 16.1271 231.786C21.1033 241.027 28.2725 249.803 39.6928 251.198C51.9668 252.699 64.4592 250.013 64.4592 250.013C64.4592 250.013 74.9049 244.105 72.7725 229.05C70.6401 213.996 63.7477 207.123 59.2471 206.887L49.2945 208.546L12.5659 206.887Z" fill="#FFC19D"/>
<path d="M54.4771 229.09C54.2373 229.292 51.5001 226.127 47.8542 222.548C44.1757 219 40.9357 216.354 41.1294 216.107C41.2769 215.911 44.8126 218.205 48.561 221.821C52.2781 225.469 54.6708 228.939 54.4771 229.09Z" fill="#FF9C6A"/>
<path d="M42.4391 158.308C42.4255 158.464 40.4412 158.369 37.2465 158.392C34.0518 158.412 29.6407 158.62 24.8262 159.33C20.0117 160.045 15.7313 161.127 12.6711 162.043C9.6089 162.953 7.74158 163.63 7.68311 163.484C7.63438 163.372 9.41204 162.456 12.4489 161.361C15.4799 160.26 19.7973 159.051 24.6781 158.326C29.5589 157.605 34.0401 157.511 37.2601 157.675C40.4841 157.837 42.4508 158.186 42.4391 158.308Z" fill="#FF9C6A"/>
<path d="M13.0523 160.746C12.9178 160.748 12.7561 158.935 12.7112 155.998C12.6644 153.06 12.76 148.998 13.1225 144.529C13.489 140.057 14.0542 136.034 14.5747 133.144C15.0951 130.251 15.5473 128.489 15.6798 128.512C15.8221 128.538 15.6214 130.341 15.2842 133.247C14.947 136.153 14.4986 140.167 14.1341 144.611C13.7735 149.055 13.5669 153.088 13.4285 156.01C13.2901 158.931 13.1985 160.744 13.0523 160.746Z" fill="#FF9C6A"/>
<path d="M25.3393 158.163C25.2692 158.167 25.1698 157.568 25.047 156.475C24.9203 155.385 24.8053 153.799 24.7273 151.838C24.5636 147.914 24.6337 142.472 25.2653 136.505C25.9046 130.537 26.9806 125.202 27.963 121.401C28.4522 119.499 28.8947 117.973 29.2494 116.934C29.5964 115.891 29.8205 115.326 29.8868 115.345C30.0369 115.386 29.458 117.739 28.6627 121.563C27.8655 125.383 26.9084 130.693 26.275 136.613C25.6493 142.53 25.4641 147.922 25.4446 151.826C25.4193 155.73 25.4953 158.153 25.3393 158.163Z" fill="#FF9C6A"/>
<path d="M38.4472 154.343C38.1667 154.332 38.3177 145.686 38.7868 135.032C39.2522 124.376 39.8586 115.754 40.1391 115.764C40.4176 115.776 40.2687 124.421 39.7994 135.079C39.3323 145.729 38.7277 154.355 38.4472 154.343Z" fill="#FF9C6A"/>
<path d="M55.8417 201.834C55.9391 201.863 55.559 203.549 54.2141 205.978C52.8945 208.403 50.4034 211.459 46.9046 213.858C43.4351 216.305 39.8232 217.677 37.2113 218.49C34.576 219.271 32.8919 219.509 32.8646 219.394C32.7184 219.008 39.5211 217.687 46.3218 213.028C49.7017 210.707 52.1616 207.867 53.6001 205.606C55.0581 203.348 55.6779 201.77 55.8417 201.834Z" fill="#FF9C6A"/>
<path d="M24.9528 199.785C24.8983 199.768 24.9821 199.214 25.3232 198.269C25.6584 197.325 26.2549 195.984 27.247 194.474C29.1884 191.464 33.0069 187.825 38.2775 186.002C42.7704 184.41 47.2574 184.357 50.5496 184.94L50.1793 185.086C53.0563 181.586 54.9411 179.426 55.0659 179.523C55.1926 179.623 53.5319 181.96 50.8011 185.576L50.6666 185.753L50.4307 185.722C47.2223 185.295 42.9224 185.433 38.6167 186.959C33.5722 188.706 29.8667 192.076 27.8357 194.885C25.7734 197.715 25.1244 199.853 24.9528 199.785Z" fill="#FF9C6A"/>
<path d="M23.3023 221.152C23.3276 221.257 21.8696 221.715 19.4409 221.546C17.0454 221.394 13.6479 220.425 10.7729 217.992C7.90172 215.554 6.39109 212.359 5.84922 210.02C5.28395 207.654 5.49836 206.139 5.60557 206.149C5.77515 206.139 5.82388 207.617 6.53923 209.825C7.23314 212.014 8.75351 214.944 11.4298 217.219C14.1099 219.485 17.2481 220.507 19.5228 220.832C21.817 221.175 23.2828 220.982 23.3023 221.152Z" fill="#FF9C6A"/>
<path d="M215.708 217.966C215.989 217.959 216.363 224.178 216.546 231.853C216.729 239.531 216.65 245.759 216.371 245.765C216.09 245.774 215.714 239.555 215.531 231.878C215.35 224.202 215.428 217.974 215.708 217.966Z" fill="#1B3D4C"/>
<path d="M165.602 377.653V303.798L218.013 251.112H291.389L343.249 302.972V376.294L291.841 427.7H218.288L165.602 377.653Z" fill="#F2F2F2"/>
<path d="M174.722 374.154V307.057L222.338 259.189H289.001L336.117 306.305V372.92L289.412 419.623H222.588L174.722 374.154Z" fill="#FF735D"/>
<path d="M230.915 251.094C230.915 250.386 236.17 240.414 239.708 240.132H242.963C242.963 240.132 246.164 235.855 250.366 236.958C250.366 236.958 253.284 232.846 259.087 235.96C259.087 235.96 263.131 235.173 265.04 237.161C267.464 239.689 276.503 247.632 277.21 251.312C277.918 254.992 277.21 263.766 275.088 264.333C272.965 264.898 272.291 264.499 272.291 264.499C272.291 264.499 271.62 268.73 270.287 270.383C267.766 273.508 263.624 269.993 263.624 269.993C263.624 269.993 262.024 272.247 259.89 272.412C256.036 272.711 255.557 266.171 255.557 266.171L255.274 256.973C255.274 256.973 254.526 261.358 251.311 261.436C249.113 261.491 247.789 258.834 247.789 258.834L243.764 251.207L230.915 251.094Z" fill="#FFC19D"/>
<path d="M243.725 240.477C243.538 240.8 247.975 242.769 251.206 247.504C254.528 252.178 254.834 257.021 255.202 256.959C255.343 256.955 255.479 255.745 255.146 253.817C254.818 251.897 253.908 249.285 252.195 246.816C250.474 244.354 248.341 242.592 246.653 241.619C244.961 240.637 243.778 240.346 243.725 240.477Z" fill="#FF9C6A"/>
<path d="M257.243 240.37C257.116 240.537 258.64 241.58 260.317 243.923C262.012 246.235 263.659 249.952 264.234 254.314C264.804 258.684 264.455 262.731 264.229 265.645C263.981 268.567 263.843 270.389 264.016 270.412C264.172 270.434 264.609 268.664 265.075 265.746C265.517 262.838 266.02 258.711 265.427 254.152C264.831 249.587 262.952 245.695 260.991 243.404C259.042 241.073 257.295 240.26 257.243 240.37Z" fill="#FF9C6A"/>
<path d="M269.936 247.108C269.79 247.221 270.371 248.094 270.983 249.618C271.606 251.135 272.177 253.341 272.339 255.85C272.503 258.361 272.331 260.67 272.253 262.353C272.166 264.037 272.168 265.095 272.335 265.115C272.497 265.136 272.793 264.124 273.099 262.45C273.396 260.778 273.711 258.415 273.542 255.768C273.372 253.119 272.62 250.765 271.751 249.25C270.891 247.72 270.045 247.012 269.936 247.108Z" fill="#FF9C6A"/>
<path d="M304.984 306.352L288.474 289.842L255.63 322.688L223.611 289.035L206.694 305.13L239.114 339.203L205.857 372.46L222.367 388.969L255.212 356.125L287.231 389.777L304.147 373.683L271.728 339.609L304.984 306.352Z" fill="white"/>
<defs>
<filter id="filter0_dd_6378_5941" x="79.3218" y="40.6519" width="357.355" height="357.355" filterUnits="userSpaceOnUse" color-interpolation-filters="sRGB">
<feFlood flood-opacity="0" result="BackgroundImageFix"/>
<feColorMatrix in="SourceAlpha" type="matrix" values="0 0 0 0 0 0 0 0 0 0 0 0 0 0 0 0 0 0 127 0" result="hardAlpha"/>
<feOffset dy="2"/>
<feGaussianBlur stdDeviation="2"/>
<feComposite in2="hardAlpha" operator="out"/>
<feColorMatrix type="matrix" values="0 0 0 0 0.219608 0 0 0 0 0.25098 0 0 0 0 0.298039 0 0 0 0.04 0"/>
<feBlend mode="normal" in2="BackgroundImageFix" result="effect1_dropShadow_6378_5941"/>
<feColorMatrix in="SourceAlpha" type="matrix" values="0 0 0 0 0 0 0 0 0 0 0 0 0 0 0 0 0 0 127 0" result="hardAlpha"/>
<feOffset dy="2"/>
<feGaussianBlur stdDeviation="2"/>
<feComposite in2="hardAlpha" operator="out"/>
<feColorMatrix type="matrix" values="0 0 0 0 0.219608 0 0 0 0 0.25098 0 0 0 0 0.298039 0 0 0 0.16 0"/>
<feBlend mode="normal" in2="effect1_dropShadow_6378_5941" result="effect2_dropShadow_6378_5941"/>
<feBlend mode="normal" in="SourceGraphic" in2="effect2_dropShadow_6378_5941" result="shape"/>
</filter>
<filter id="filter1_dd_6378_5941" x="79.3218" y="40.6519" width="357.355" height="357.355" filterUnits="userSpaceOnUse" color-interpolation-filters="sRGB">
<feFlood flood-opacity="0" result="BackgroundImageFix"/>
<feColorMatrix in="SourceAlpha" type="matrix" values="0 0 0 0 0 0 0 0 0 0 0 0 0 0 0 0 0 0 127 0" result="hardAlpha"/>
<feOffset dy="2"/>
<feGaussianBlur stdDeviation="2"/>
<feComposite in2="hardAlpha" operator="out"/>
<feColorMatrix type="matrix" values="0 0 0 0 0.219608 0 0 0 0 0.25098 0 0 0 0 0.298039 0 0 0 0.04 0"/>
<feBlend mode="normal" in2="BackgroundImageFix" result="effect1_dropShadow_6378_5941"/>
<feColorMatrix in="SourceAlpha" type="matrix" values="0 0 0 0 0 0 0 0 0 0 0 0 0 0 0 0 0 0 127 0" result="hardAlpha"/>
<feOffset dy="2"/>
<feGaussianBlur stdDeviation="2"/>
<feComposite in2="hardAlpha" operator="out"/>
<feColorMatrix type="matrix" values="0 0 0 0 0.219608 0 0 0 0 0.25098 0 0 0 0 0.298039 0 0 0 0.16 0"/>
<feBlend mode="normal" in2="effect1_dropShadow_6378_5941" result="effect2_dropShadow_6378_5941"/>
<feBlend mode="normal" in="SourceGraphic" in2="effect2_dropShadow_6378_5941" result="shape"/>
</filter>
</defs>
</svg>
