<svg width="18" height="18" viewBox="0 0 18 18" fill="none" xmlns="http://www.w3.org/2000/svg">
<path d="M9.00033 17.3333C7.86144 17.3333 6.78505 17.1146 5.77116 16.6771C4.75727 16.2396 3.87185 15.6424 3.11491 14.8854C2.35796 14.1285 1.76074 13.243 1.32324 12.2292C0.885742 11.2153 0.666992 10.1389 0.666992 8.99999C0.666992 7.84721 0.885742 6.76735 1.32324 5.76041C1.76074 4.75346 2.35796 3.87152 3.11491 3.11457C3.87185 2.35763 4.75727 1.76041 5.77116 1.32291C6.78505 0.885406 7.86144 0.666656 9.00033 0.666656C10.1531 0.666656 11.233 0.885406 12.2399 1.32291C13.2469 1.76041 14.1288 2.35763 14.8857 3.11457C15.6427 3.87152 16.2399 4.75346 16.6774 5.76041C17.1149 6.76735 17.3337 7.84721 17.3337 8.99999C17.3337 10.1389 17.1149 11.2153 16.6774 12.2292C16.2399 13.243 15.6427 14.1285 14.8857 14.8854C14.1288 15.6424 13.2469 16.2396 12.2399 16.6771C11.233 17.1146 10.1531 17.3333 9.00033 17.3333ZM9.00033 15.625C9.36144 15.125 9.67394 14.6042 9.93783 14.0625C10.2017 13.5208 10.417 12.9444 10.5837 12.3333H7.41699C7.58366 12.9444 7.79894 13.5208 8.06283 14.0625C8.32671 14.6042 8.63921 15.125 9.00033 15.625ZM6.83366 15.2917C6.58366 14.8333 6.36491 14.3576 6.17741 13.8646C5.98991 13.3715 5.83366 12.8611 5.70866 12.3333H3.25033C3.6531 13.0278 4.15658 13.6319 4.76074 14.1458C5.36491 14.6597 6.05588 15.0417 6.83366 15.2917ZM11.167 15.2917C11.9448 15.0417 12.6357 14.6597 13.2399 14.1458C13.8441 13.6319 14.3475 13.0278 14.7503 12.3333H12.292C12.167 12.8611 12.0107 13.3715 11.8232 13.8646C11.6357 14.3576 11.417 14.8333 11.167 15.2917ZM2.54199 10.6667H5.37533C5.33366 10.3889 5.30241 10.1146 5.28158 9.84374C5.26074 9.57291 5.25033 9.29166 5.25033 8.99999C5.25033 8.70832 5.26074 8.42707 5.28158 8.15624C5.30241 7.88541 5.33366 7.6111 5.37533 7.33332H2.54199C2.47255 7.6111 2.42046 7.88541 2.38574 8.15624C2.35102 8.42707 2.33366 8.70832 2.33366 8.99999C2.33366 9.29166 2.35102 9.57291 2.38574 9.84374C2.42046 10.1146 2.47255 10.3889 2.54199 10.6667ZM7.04199 10.6667H10.9587C11.0003 10.3889 11.0316 10.1146 11.0524 9.84374C11.0732 9.57291 11.0837 9.29166 11.0837 8.99999C11.0837 8.70832 11.0732 8.42707 11.0524 8.15624C11.0316 7.88541 11.0003 7.6111 10.9587 7.33332H7.04199C7.00033 7.6111 6.96908 7.88541 6.94824 8.15624C6.92741 8.42707 6.91699 8.70832 6.91699 8.99999C6.91699 9.29166 6.92741 9.57291 6.94824 9.84374C6.96908 10.1146 7.00033 10.3889 7.04199 10.6667ZM12.6253 10.6667H15.4587C15.5281 10.3889 15.5802 10.1146 15.6149 9.84374C15.6496 9.57291 15.667 9.29166 15.667 8.99999C15.667 8.70832 15.6496 8.42707 15.6149 8.15624C15.5802 7.88541 15.5281 7.6111 15.4587 7.33332H12.6253C12.667 7.6111 12.6982 7.88541 12.7191 8.15624C12.7399 8.42707 12.7503 8.70832 12.7503 8.99999C12.7503 9.29166 12.7399 9.57291 12.7191 9.84374C12.6982 10.1146 12.667 10.3889 12.6253 10.6667ZM12.292 5.66666H14.7503C14.3475 4.97221 13.8441 4.36805 13.2399 3.85416C12.6357 3.34027 11.9448 2.95832 11.167 2.70832C11.417 3.16666 11.6357 3.64235 11.8232 4.13541C12.0107 4.62846 12.167 5.13888 12.292 5.66666ZM7.41699 5.66666H10.5837C10.417 5.05555 10.2017 4.47916 9.93783 3.93749C9.67394 3.39582 9.36144 2.87499 9.00033 2.37499C8.63921 2.87499 8.32671 3.39582 8.06283 3.93749C7.79894 4.47916 7.58366 5.05555 7.41699 5.66666ZM3.25033 5.66666H5.70866C5.83366 5.13888 5.98991 4.62846 6.17741 4.13541C6.36491 3.64235 6.58366 3.16666 6.83366 2.70832C6.05588 2.95832 5.36491 3.34027 4.76074 3.85416C4.15658 4.36805 3.6531 4.97221 3.25033 5.66666Z" fill="#3AC7A5"/>
</svg>
