<?xml version="1.0" encoding="UTF-8" standalone="no"?>
<!DOCTYPE svg PUBLIC "-//W3C//DTD SVG 1.1//EN" "http://www.w3.org/Graphics/SVG/1.1/DTD/svg11.dtd">
<svg width="100%" height="100%" viewBox="0 0 65 64" version="1.1" xmlns="http://www.w3.org/2000/svg" xmlns:xlink="http://www.w3.org/1999/xlink" xml:space="preserve" xmlns:serif="http://www.serif.com/" style="fill-rule:evenodd;clip-rule:evenodd;stroke-linejoin:round;stroke-miterlimit:2;">
    <g transform="matrix(1,0,0,1,-155,0)">
        <g id="Cotización" transform="matrix(1.19635,0,0,0.731884,-108.456,-4.85031)">
            <rect x="220.994" y="6.627" width="53.496" height="87.446" style="fill:none;"/>
            <g transform="matrix(0.835879,0,0,1.36634,220.45,6.15304)">
                <g>
                    <g transform="matrix(1.10339,0,0,1.00484,-168.699,0.00126314)">
                        <path d="M200.462,64.036L164.411,64.036C162.591,64.036 160.845,63.242 159.558,61.828C158.271,60.415 157.548,58.498 157.548,56.5L157.548,7.88C157.548,5.881 158.271,3.964 159.558,2.551C160.845,1.138 162.591,0.344 164.411,0.344L200.462,0.344C201.167,0.344 201.861,0.462 202.522,0.687C203.591,1.051 204.574,1.696 205.379,2.581C206.683,4.013 207.416,5.955 207.416,7.98L207.416,14.371C207.416,15.176 206.821,15.829 206.088,15.829L196.161,15.829L196.161,48.551L206.088,48.551C206.821,48.551 207.416,49.203 207.416,50.009L207.416,56.399C207.416,58.425 206.683,60.367 205.379,61.799C204.574,62.683 203.591,63.329 202.522,63.693C201.861,63.918 201.167,64.036 200.462,64.036ZM194.992,3.261L164.411,3.261C163.295,3.261 162.225,3.747 161.436,4.614C160.648,5.48 160.204,6.655 160.204,7.88L160.204,56.5C160.204,57.725 160.648,58.9 161.436,59.766C162.225,60.632 163.295,61.119 164.411,61.119L194.992,61.119C194.034,59.78 193.505,58.12 193.505,56.399L193.505,7.98C193.505,6.26 194.034,4.599 194.992,3.261ZM202.995,4.168C202.264,3.582 201.378,3.261 200.462,3.261L200.459,3.261C200.419,3.261 200.379,3.261 200.339,3.263C199.242,3.296 198.198,3.789 197.42,4.643C196.614,5.528 196.161,6.729 196.161,7.98L196.161,11.718L196.161,12.912L204.76,12.912L204.76,7.98C204.76,6.729 204.307,5.528 203.501,4.643C203.343,4.469 203.173,4.311 202.995,4.168ZM200.339,61.117C200.379,61.118 200.419,61.119 200.459,61.119L200.462,61.119C201.378,61.119 202.264,60.798 202.995,60.212C203.173,60.069 203.343,59.91 203.501,59.737C204.307,58.851 204.76,57.651 204.76,56.399L204.76,51.467L196.161,51.467L196.161,56.399C196.161,57.651 196.614,58.851 197.42,59.737C198.198,60.59 199.242,61.083 200.339,61.117Z" style="fill:rgb(84,95,114);"/>
                    </g>
                    <g transform="matrix(1,0,0,1,-156.059,0.00292968)">
                        <path d="M171.112,13.687C170.404,13.421 169.732,13.088 169.274,12.488C167.693,10.416 168.981,7.437 171.112,6.472L171.112,6.158C171.112,5.353 171.765,4.7 172.57,4.7C173.375,4.7 174.028,5.353 174.028,6.158L174.028,6.501C174.604,6.738 175.536,7.135 175.884,7.748C176.507,8.843 175.45,10.203 174.236,9.87C174.163,9.85 174.094,9.826 174.028,9.799C173.451,9.561 173.093,9.087 172.364,9.142C172.044,9.166 171.746,9.428 171.6,9.694C170.802,11.15 173.312,11.518 174.017,11.83L174.028,11.835C175.644,12.552 176.692,13.563 176.558,15.46C176.45,16.986 175.4,18.411 174.028,19.027L174.028,19.347C174.028,20.152 173.375,20.806 172.57,20.806C171.765,20.806 171.112,20.152 171.112,19.347L171.112,19.014C170.536,18.778 169.602,18.38 169.253,17.766C168.749,16.88 169.339,15.733 170.344,15.607C170.654,15.568 170.893,15.639 171.112,15.752C171.417,15.908 171.684,16.145 172.056,16.274C173.097,16.637 173.831,15.881 173.592,14.873C173.522,14.576 173.135,14.453 172.856,14.327C172.32,14.083 171.703,13.909 171.112,13.687Z" style="fill:rgb(58,199,165);"/>
                    </g>
                    <g transform="matrix(1,0,0,1,-155.587,1.43188)">
                        <path d="M180.4,12.782C179.595,12.782 178.941,12.129 178.941,11.324C178.941,10.519 179.595,9.865 180.4,9.865L194.423,9.865C195.228,9.865 195.882,10.519 195.882,11.324C195.882,12.129 195.228,12.782 194.423,12.782L180.4,12.782Z" style="fill:rgb(84,95,114);"/>
                    </g>
                    <g transform="matrix(1,0,0,1,-166.429,13.3781)">
                        <path d="M180.4,12.782C179.595,12.782 178.941,12.129 178.941,11.324C178.941,10.519 179.595,9.865 180.4,9.865L194.423,9.865C195.228,9.865 195.882,10.519 195.882,11.324C195.882,12.129 195.228,12.782 194.423,12.782L180.4,12.782Z" style="fill:rgb(84,95,114);"/>
                    </g>
                    <g transform="matrix(0.245283,0,0,1,-8.85253,13.3781)">
                        <path d="M180.4,12.782C177.118,12.782 174.454,12.129 174.454,11.324C174.454,10.519 177.118,9.865 180.4,9.865L194.423,9.865C197.705,9.865 200.369,10.519 200.369,11.324C200.369,12.129 197.705,12.782 194.423,12.782L180.4,12.782Z" style="fill:rgb(58,199,165);"/>
                    </g>
                    <g transform="matrix(0.245283,0,0,1,-8.85253,20.8861)">
                        <path d="M180.4,12.782C177.118,12.782 174.454,12.129 174.454,11.324C174.454,10.519 177.118,9.865 180.4,9.865L194.423,9.865C197.705,9.865 200.369,10.519 200.369,11.324C200.369,12.129 197.705,12.782 194.423,12.782L180.4,12.782Z" style="fill:rgb(84,95,114);"/>
                    </g>
                    <g transform="matrix(0.245283,0,0,1,-8.85253,28.3941)">
                        <path d="M180.4,12.782C177.118,12.782 174.454,12.129 174.454,11.324C174.454,10.519 177.118,9.865 180.4,9.865L194.423,9.865C197.705,9.865 200.369,10.519 200.369,11.324C200.369,12.129 197.705,12.782 194.423,12.782L180.4,12.782Z" style="fill:rgb(58,199,165);"/>
                    </g>
                    <g transform="matrix(0.245283,0,0,1,-8.85253,36.0013)">
                        <path d="M180.4,12.782C177.118,12.782 174.454,12.129 174.454,11.324C174.454,10.519 177.118,9.865 180.4,9.865L194.423,9.865C197.705,9.865 200.369,10.519 200.369,11.324C200.369,12.129 197.705,12.782 194.423,12.782L180.4,12.782Z" style="fill:rgb(84,95,114);"/>
                    </g>
                    <g transform="matrix(1,0,0,1,-166.429,20.8861)">
                        <path d="M180.4,12.782C179.595,12.782 178.941,12.129 178.941,11.324C178.941,10.519 179.595,9.865 180.4,9.865L194.423,9.865C195.228,9.865 195.882,10.519 195.882,11.324C195.882,12.129 195.228,12.782 194.423,12.782L180.4,12.782Z" style="fill:rgb(58,199,165);"/>
                    </g>
                    <g transform="matrix(1,0,0,1,-166.429,28.3941)">
                        <path d="M180.4,12.782C179.595,12.782 178.941,12.129 178.941,11.324C178.941,10.519 179.595,9.865 180.4,9.865L194.423,9.865C195.228,9.865 195.882,10.519 195.882,11.324C195.882,12.129 195.228,12.782 194.423,12.782L180.4,12.782Z" style="fill:rgb(84,95,114);"/>
                    </g>
                    <g transform="matrix(1,0,0,1,-166.429,36.0013)">
                        <path d="M180.4,12.782C179.595,12.782 178.941,12.129 178.941,11.324C178.941,10.519 179.595,9.865 180.4,9.865L194.423,9.865C195.228,9.865 195.882,10.519 195.882,11.324C195.882,12.129 195.228,12.782 194.423,12.782L180.4,12.782Z" style="fill:rgb(58,199,165);"/>
                    </g>
                    <g transform="matrix(1.74012,0,0,1,-299.484,43.7433)">
                        <path d="M180.4,12.782C179.937,12.782 179.562,12.129 179.562,11.324C179.562,10.519 179.937,9.865 180.4,9.865L194.423,9.865C194.886,9.865 195.261,10.519 195.261,11.324C195.261,12.129 194.886,12.782 194.423,12.782L180.4,12.782Z" style="fill:rgb(84,95,114);"/>
                    </g>
                </g>
            </g>
        </g>
    </g>
</svg>
