<?xml version="1.0" encoding="UTF-8" standalone="no"?>
<!DOCTYPE svg PUBLIC "-//W3C//DTD SVG 1.1//EN" "http://www.w3.org/Graphics/SVG/1.1/DTD/svg11.dtd">
<svg width="100%" height="100%" viewBox="0 0 65 64" version="1.1" xmlns="http://www.w3.org/2000/svg" xmlns:xlink="http://www.w3.org/1999/xlink" xml:space="preserve" xmlns:serif="http://www.serif.com/" style="fill-rule:evenodd;clip-rule:evenodd;stroke-linejoin:round;stroke-miterlimit:2;">
    <g transform="matrix(1,0,0,1,-78,0)">
        <g id="Negocio" transform="matrix(0.845417,0,0,0.680325,-18.2005,7.23247)">
            <rect x="113.799" y="-10.631" width="75.702" height="94.073" style="fill:none;"/>
            <clipPath id="_clip1">
                <rect x="113.799" y="-10.631" width="75.702" height="94.073"/>
            </clipPath>
            <g clip-path="url(#_clip1)">
                <g transform="matrix(1,0,0,1,17.7427,-58.7954)">
                    <g transform="matrix(1.10273,0,0,1.60375,100.232,43.6857)">
                        <path d="M38.027,59.266C36.802,59.697 35.519,60.04 34.203,60.314C30.258,61.134 26.028,61.325 22.345,61.45C22.303,61.451 22.261,61.451 22.22,61.45C18.537,61.325 14.306,61.134 10.362,60.314C6.183,59.445 2.33,57.871 -0.356,55.044C-3.659,51.57 -4.238,47.057 -3.504,42.787C-2.3,35.78 2.945,28.662 10.379,25.445C10.272,25.367 10.168,25.286 10.068,25.2C8.997,24.292 8.396,23.061 8.396,21.776L8.396,21.773C8.396,20.489 8.997,19.257 10.068,18.349C10.645,17.859 11.333,17.485 12.082,17.245L8.477,8.143C8.317,7.738 8.396,7.292 8.69,6.945C8.985,6.598 9.458,6.392 9.962,6.392L16.885,6.392C17.565,4.368 19.742,2.793 22.292,2.793C24.92,2.793 27.13,4.324 27.748,6.392L34.603,6.392C35.107,6.392 35.58,6.598 35.874,6.945C36.168,7.292 36.248,7.738 36.087,8.143L32.482,17.245C33.231,17.485 33.919,17.859 34.497,18.349C35.567,19.257 36.169,20.489 36.169,21.773L36.169,21.776C36.169,23.061 35.567,24.292 34.497,25.2C34.396,25.286 34.292,25.367 34.185,25.445C37.083,26.699 39.648,28.546 41.771,30.748C42.108,30.696 42.452,30.669 42.799,30.669L59.154,30.669C60.668,30.669 62.12,31.179 63.191,32.087C64.262,32.995 64.863,34.227 64.863,35.511L64.863,35.514C64.863,36.799 64.262,38.03 63.191,38.938C63.155,38.969 63.119,38.999 63.082,39.028C63.119,39.058 63.155,39.088 63.191,39.118C64.262,40.027 64.863,41.258 64.863,42.543L64.863,42.546C64.863,43.83 64.262,45.062 63.191,45.97C63.155,46 63.119,46.03 63.082,46.06C63.119,46.089 63.155,46.119 63.191,46.15C64.262,47.058 64.863,48.29 64.863,49.574L64.863,49.577C64.863,50.861 64.262,52.093 63.191,53.001C63.155,53.032 63.119,53.062 63.082,53.091C63.119,53.121 63.155,53.151 63.191,53.181C64.262,54.089 64.863,55.321 64.863,56.605L64.863,56.608C64.863,57.893 64.262,59.124 63.191,60.032C62.12,60.941 60.668,61.451 59.154,61.451L42.799,61.451C41.285,61.451 39.833,60.941 38.762,60.032C38.485,59.797 38.239,59.54 38.027,59.266ZM38.938,31.944C36.262,29.31 32.849,27.333 28.941,26.619C27.411,26.339 25.806,26.253 24.138,26.396L20.426,26.396C18.759,26.253 17.153,26.339 15.624,26.619C7.045,28.187 0.856,35.835 -0.405,43.17C-1.015,46.718 -0.662,50.49 2.082,53.377C4.334,55.746 7.604,57.005 11.107,57.733C14.822,58.506 18.807,58.675 22.286,58.793C25.76,58.675 29.743,58.505 33.457,57.733C34.711,57.473 35.934,57.144 37.092,56.721C37.091,56.684 37.09,56.646 37.09,56.608L37.09,56.605C37.09,55.321 37.692,54.089 38.762,53.181C38.798,53.151 38.835,53.121 38.871,53.091C38.835,53.062 38.798,53.032 38.762,53.001C37.692,52.093 37.09,50.861 37.09,49.577L37.09,49.574C37.09,48.29 37.692,47.058 38.762,46.15C38.798,46.119 38.835,46.089 38.871,46.06C38.835,46.03 38.798,46 38.762,45.97C37.692,45.062 37.09,43.83 37.09,42.546L37.09,42.543C37.09,41.258 37.692,40.027 38.762,39.118C38.798,39.088 38.835,39.058 38.871,39.028C38.835,38.999 38.798,38.969 38.762,38.938C37.692,38.03 37.09,36.799 37.09,35.514L37.09,35.511C37.09,34.227 37.692,32.995 38.762,32.087C38.82,32.038 38.879,31.991 38.938,31.944ZM40.86,58.047C40.897,58.084 40.936,58.119 40.977,58.154C41.46,58.564 42.116,58.794 42.799,58.794L59.154,58.794C59.838,58.794 60.493,58.564 60.976,58.154C61.46,57.744 61.731,57.188 61.731,56.608L61.731,56.605C61.731,56.026 61.46,55.47 60.976,55.06C60.493,54.65 59.838,54.419 59.154,54.419L42.799,54.419C42.116,54.419 41.46,54.65 40.977,55.06C40.494,55.47 40.222,56.026 40.222,56.605L40.222,56.608C40.222,57.139 40.45,57.65 40.86,58.047ZM42.799,51.763L59.154,51.763C59.838,51.763 60.493,51.532 60.976,51.123C61.46,50.713 61.731,50.157 61.731,49.577L61.731,49.574C61.731,48.994 61.46,48.438 60.976,48.028C60.493,47.618 59.838,47.388 59.154,47.388L42.799,47.388C42.116,47.388 41.46,47.618 40.977,48.028C40.494,48.438 40.222,48.994 40.222,49.574L40.222,49.577C40.222,50.157 40.494,50.713 40.977,51.123C41.46,51.532 42.116,51.763 42.799,51.763ZM42.799,44.731L59.154,44.731C59.838,44.731 60.493,44.501 60.976,44.091C61.46,43.681 61.731,43.125 61.731,42.546L61.731,42.543C61.731,41.963 61.46,41.407 60.976,40.997C60.493,40.587 59.838,40.357 59.154,40.357L42.799,40.357C42.116,40.357 41.46,40.587 40.977,40.997C40.494,41.407 40.222,41.963 40.222,42.543L40.222,42.546C40.222,43.125 40.494,43.681 40.977,44.091C41.46,44.501 42.116,44.731 42.799,44.731ZM42.799,37.7L59.154,37.7C59.838,37.7 60.493,37.47 60.976,37.06C61.46,36.65 61.731,36.094 61.731,35.514L61.731,35.511C61.731,34.932 61.46,34.376 60.976,33.966C60.493,33.556 59.838,33.325 59.154,33.325L42.799,33.325C42.116,33.325 41.46,33.556 40.977,33.966C40.931,34.005 40.887,34.045 40.845,34.086C40.445,34.481 40.222,34.987 40.222,35.511L40.222,35.514C40.222,36.094 40.494,36.65 40.977,37.06C41.46,37.47 42.116,37.7 42.799,37.7ZM29.302,16.931C29.302,16.931 32.424,9.049 32.424,9.049L27.919,9.049L27.919,10.983C27.919,11.716 27.218,12.312 26.353,12.312C25.489,12.312 24.788,11.716 24.788,10.983L24.788,7.566C24.788,6.398 23.669,5.449 22.292,5.449C20.895,5.449 19.796,6.535 19.796,7.72C19.796,8.453 19.095,9.049 18.23,9.049C18.23,9.049 12.14,9.049 12.14,9.049L15.262,16.931L29.302,16.931ZM14.105,23.962L30.46,23.962C31.143,23.962 31.799,23.732 32.282,23.322C32.765,22.912 33.037,22.356 33.037,21.776L33.037,21.773C33.037,21.194 32.765,20.638 32.282,20.228C31.799,19.818 31.143,19.587 30.46,19.587C30.449,19.587 30.439,19.587 30.428,19.587L14.136,19.587C14.126,19.587 14.115,19.587 14.105,19.587C13.421,19.587 12.766,19.818 12.282,20.228C11.799,20.638 11.528,21.194 11.528,21.773L11.528,21.776C11.528,22.356 11.799,22.912 12.282,23.322C12.766,23.732 13.421,23.962 14.105,23.962Z" style="fill:rgb(84,95,114);"/>
                    </g>
                    <g transform="matrix(1.18285,0,0,1.46989,96.0566,48.1645)">
                        <path d="M22.912,45.252C21.564,44.837 20.315,44.132 19.607,42.851C17.902,39.766 19.97,36.287 22.912,35.378L22.912,32.156C22.912,31.351 23.566,30.698 24.371,30.698C25.176,30.698 25.829,31.351 25.829,32.156L25.829,35.366C27.459,35.857 28.911,37.084 29.425,38.743C29.648,39.463 29.868,40.521 29.235,41.172C28.673,41.75 27.751,41.763 27.173,41.201C26.448,40.496 26.939,39.259 26.023,38.674C25.959,38.633 25.894,38.594 25.829,38.558C24.795,37.977 23.665,37.958 22.912,38.545C22.447,38.907 22.126,39.502 22.061,40.337C21.986,41.304 22.347,41.826 22.912,42.156C23.444,42.466 24.156,42.607 24.855,42.788C25.188,42.875 25.513,42.957 25.829,43.048C26.696,43.298 27.497,43.616 28.224,44.271C31.091,46.855 29.37,51.953 25.829,52.852L25.829,54.874C25.829,55.679 25.176,56.332 24.371,56.332C23.566,56.332 22.912,55.679 22.912,54.874L22.912,52.76C21.71,52.402 20.617,51.664 19.922,50.636C19.334,49.767 18.6,48.023 19.531,47.087C20.093,46.522 21.015,46.51 21.593,47.059C22.17,47.608 21.932,48.261 22.235,48.889C22.388,49.205 22.625,49.47 22.912,49.676C23.758,50.283 25.034,50.374 25.827,49.695L25.829,49.693C26.06,49.495 26.258,49.247 26.392,48.973C26.555,48.639 26.675,48.273 26.705,47.903C26.777,46.999 26.402,46.435 25.829,46.068C25.119,45.614 24.105,45.463 23.259,45.346C23.23,45.342 23.202,45.336 23.175,45.329C23.087,45.304 22.999,45.279 22.912,45.252Z" style="fill:rgb(152,162,179);"/>
                    </g>
                </g>
            </g>
        </g>
    </g>
</svg>
