<svg width="160" height="160" viewBox="0 0 160 160" fill="none" xmlns="http://www.w3.org/2000/svg">
<g clip-path="url(#clip0_273_5178)">
<rect width="160" height="160" fill="#CCF5EC"/>
<path d="M159.984 112.243H103.341V208.668H159.984V112.243Z" fill="#EDF2FA"/>
<path d="M112.522 138.293H108.541V204.782H112.522V138.293Z" fill="#C0D8FF"/>
<path d="M119.666 138.293H115.684V204.782H119.666V138.293Z" fill="#C0D8FF"/>
<path d="M126.811 138.293H122.829V204.782H126.811V138.293Z" fill="#C0D8FF"/>
<path d="M133.955 138.293H129.973V204.782H133.955V138.293Z" fill="#C0D8FF"/>
<path d="M140.748 138.293H136.766V204.782H140.748V138.293Z" fill="#C0D8FF"/>
<path d="M147.744 138.293H143.762V204.782H147.744V138.293Z" fill="#C0D8FF"/>
<path d="M154.888 138.293H150.906V204.782H154.888V138.293Z" fill="#C0D8FF"/>
<path d="M112.772 118.261H108.79V134.296H112.772V118.261Z" fill="#C0D8FF"/>
<path d="M119.916 118.261H115.934V134.296H119.916V118.261Z" fill="#C0D8FF"/>
<path d="M127.06 118.261H123.078V134.296H127.06V118.261Z" fill="#C0D8FF"/>
<path d="M134.205 118.261H130.223V134.296H134.205V118.261Z" fill="#C0D8FF"/>
<path d="M140.997 118.261H137.015V134.296H140.997V118.261Z" fill="#C0D8FF"/>
<path d="M147.993 118.261H144.012V134.296H147.993V118.261Z" fill="#C0D8FF"/>
<path d="M155.137 118.261H151.155V134.296H155.137V118.261Z" fill="#C0D8FF"/>
<path d="M159.984 112.243H103.341V208.668H159.984V112.243Z" fill="#EDF2FA"/>
<path d="M48.6433 112.243H-8V208.668H48.6433V112.243Z" fill="#EDF2FA"/>
<path d="M112.522 138.293H108.541V204.782H112.522V138.293Z" fill="#C0D8FF"/>
<path d="M1.18124 138.293H-2.80029V204.782H1.18124V138.293Z" fill="#C0D8FF"/>
<path d="M119.666 138.293H115.684V204.782H119.666V138.293Z" fill="#C0D8FF"/>
<path d="M8.3254 138.293H4.34326V204.782H8.3254V138.293Z" fill="#C0D8FF"/>
<path d="M126.811 138.293H122.829V204.782H126.811V138.293Z" fill="#C0D8FF"/>
<path d="M15.4699 138.293H11.4878V204.782H15.4699V138.293Z" fill="#C0D8FF"/>
<path d="M133.955 138.293H129.973V204.782H133.955V138.293Z" fill="#C0D8FF"/>
<path d="M22.614 138.293H18.6318V204.782H22.614V138.293Z" fill="#C0D8FF"/>
<path d="M140.748 138.293H136.766V204.782H140.748V138.293Z" fill="#C0D8FF"/>
<path d="M29.4069 138.293H25.4248V204.782H29.4069V138.293Z" fill="#C0D8FF"/>
<path d="M147.744 138.293H143.762V204.782H147.744V138.293Z" fill="#C0D8FF"/>
<path d="M36.4029 138.293H32.4214V204.782H36.4029V138.293Z" fill="#C0D8FF"/>
<path d="M154.888 138.293H150.906V204.782H154.888V138.293Z" fill="#C0D8FF"/>
<path d="M43.5471 138.293H39.5649V204.782H43.5471V138.293Z" fill="#C0D8FF"/>
<path d="M112.772 118.261H108.79V134.296H112.772V118.261Z" fill="#C0D8FF"/>
<path d="M1.43076 118.261H-2.55078V134.296H1.43076V118.261Z" fill="#C0D8FF"/>
<path d="M119.916 118.261H115.934V134.296H119.916V118.261Z" fill="#C0D8FF"/>
<path d="M8.5754 118.261H4.59326V134.296H8.5754V118.261Z" fill="#C0D8FF"/>
<path d="M127.06 118.261H123.078V134.296H127.06V118.261Z" fill="#C0D8FF"/>
<path d="M15.7194 118.261H11.7373V134.296H15.7194V118.261Z" fill="#C0D8FF"/>
<path d="M134.205 118.261H130.223V134.296H134.205V118.261Z" fill="#C0D8FF"/>
<path d="M22.864 118.261H18.8818V134.296H22.864V118.261Z" fill="#C0D8FF"/>
<path d="M140.997 118.261H137.015V134.296H140.997V118.261Z" fill="#C0D8FF"/>
<path d="M29.6569 118.261H25.6748V134.296H29.6569V118.261Z" fill="#C0D8FF"/>
<path d="M147.993 118.261H144.012V134.296H147.993V118.261Z" fill="#C0D8FF"/>
<path d="M36.6524 118.261H32.6709V134.296H36.6524V118.261Z" fill="#C0D8FF"/>
<path d="M155.137 118.261H151.155V134.296H155.137V118.261Z" fill="#C0D8FF"/>
<path d="M43.7971 118.261H39.8149V134.296H43.7971V118.261Z" fill="#C0D8FF"/>
<path d="M106.353 97.6924H45.9395V281.645H106.353V97.6924Z" fill="#EDF2FA"/>
<path d="M84.3722 42.9424H69.5332V45.712H84.3722V42.9424Z" fill="#EDF2FA"/>
<path d="M78.0496 21H75.688V43.7486H78.0496V21Z" fill="#EDF2FA"/>
<path d="M97.9158 45.7119H55.9902V98.5941H97.9158V45.7119Z" fill="#EDF2FA"/>
<path d="M65.3762 52.2275H61.2129V94.9551H65.3762V52.2275Z" fill="#C0D8FF"/>
<path d="M72.846 52.2275H68.6826V94.9551H72.846V52.2275Z" fill="#C0D8FF"/>
<path d="M80.3152 52.2275H76.1519V94.9551H80.3152V52.2275Z" fill="#C0D8FF"/>
<path d="M87.7849 52.2275H83.6216V94.9551H87.7849V52.2275Z" fill="#C0D8FF"/>
<path d="M94.8875 52.2275H90.7241V94.9551H94.8875V52.2275Z" fill="#C0D8FF"/>
<path d="M55.7318 105.242H51.4849V274.232H55.7318V105.242Z" fill="#C0D8FF"/>
<path d="M63.3515 105.242H59.1045V274.232H63.3515V105.242Z" fill="#C0D8FF"/>
<path d="M70.9716 105.242H66.7246V274.232H70.9716V105.242Z" fill="#C0D8FF"/>
<path d="M78.5907 105.242H74.3438V274.232H78.5907V105.242Z" fill="#C0D8FF"/>
<path d="M85.8364 105.242H81.5889V274.232H85.8364V105.242Z" fill="#C0D8FF"/>
<path d="M93.2984 105.242H89.0508V274.232H93.2984V105.242Z" fill="#C0D8FF"/>
<path d="M100.918 105.242H96.6709V274.232H100.918V105.242Z" fill="#C0D8FF"/>
</g>
<defs>
<clipPath id="clip0_273_5178">
<rect width="160" height="160" fill="white"/>
</clipPath>
</defs>
</svg>
