<svg width="160" height="160" viewBox="0 0 160 160" fill="none" xmlns="http://www.w3.org/2000/svg">
<g clip-path="url(#clip0_588_3995)">
<rect width="160" height="160" fill="#98EBD9"/>
<path d="M159.984 112.243H103.341V208.668H159.984V112.243Z" fill="#EDF2FA"/>
<path d="M112.522 138.293H108.54V204.782H112.522V138.293Z" fill="#C0D8FF"/>
<path d="M119.666 138.293H115.684V204.782H119.666V138.293Z" fill="#C0D8FF"/>
<path d="M126.811 138.293H122.828V204.782H126.811V138.293Z" fill="#C0D8FF"/>
<path d="M133.955 138.293H129.973V204.782H133.955V138.293Z" fill="#C0D8FF"/>
<path d="M140.748 138.293H136.766V204.782H140.748V138.293Z" fill="#C0D8FF"/>
<path d="M147.744 138.293H143.762V204.782H147.744V138.293Z" fill="#C0D8FF"/>
<path d="M154.888 138.293H150.906V204.782H154.888V138.293Z" fill="#C0D8FF"/>
<path d="M112.772 118.261H108.79V134.296H112.772V118.261Z" fill="#C0D8FF"/>
<path d="M119.916 118.261H115.934V134.296H119.916V118.261Z" fill="#C0D8FF"/>
<path d="M127.06 118.261H123.078V134.296H127.06V118.261Z" fill="#C0D8FF"/>
<path d="M134.205 118.261H130.222V134.296H134.205V118.261Z" fill="#C0D8FF"/>
<path d="M140.998 118.261H137.015V134.296H140.998V118.261Z" fill="#C0D8FF"/>
<path d="M147.993 118.261H144.012V134.296H147.993V118.261Z" fill="#C0D8FF"/>
<path d="M155.138 118.261H151.156V134.296H155.138V118.261Z" fill="#C0D8FF"/>
<path d="M159.984 112.243H103.341V208.668H159.984V112.243Z" fill="#EDF2FA"/>
<path d="M48.6433 112.243H-8V208.668H48.6433V112.243Z" fill="#EDF2FA"/>
<path d="M112.522 138.293H108.54V204.782H112.522V138.293Z" fill="#C0D8FF"/>
<path d="M1.18124 138.293H-2.80029V204.782H1.18124V138.293Z" fill="#C0D8FF"/>
<path d="M119.666 138.293H115.684V204.782H119.666V138.293Z" fill="#C0D8FF"/>
<path d="M8.3254 138.293H4.34326V204.782H8.3254V138.293Z" fill="#C0D8FF"/>
<path d="M126.811 138.293H122.828V204.782H126.811V138.293Z" fill="#C0D8FF"/>
<path d="M15.4699 138.293H11.4878V204.782H15.4699V138.293Z" fill="#C0D8FF"/>
<path d="M133.955 138.293H129.973V204.782H133.955V138.293Z" fill="#C0D8FF"/>
<path d="M22.6142 138.293H18.6321V204.782H22.6142V138.293Z" fill="#C0D8FF"/>
<path d="M140.748 138.293H136.766V204.782H140.748V138.293Z" fill="#C0D8FF"/>
<path d="M29.4069 138.293H25.4248V204.782H29.4069V138.293Z" fill="#C0D8FF"/>
<path d="M147.744 138.293H143.762V204.782H147.744V138.293Z" fill="#C0D8FF"/>
<path d="M36.4029 138.293H32.4214V204.782H36.4029V138.293Z" fill="#C0D8FF"/>
<path d="M154.888 138.293H150.906V204.782H154.888V138.293Z" fill="#C0D8FF"/>
<path d="M43.5473 138.293H39.5652V204.782H43.5473V138.293Z" fill="#C0D8FF"/>
<path d="M112.772 118.261H108.79V134.296H112.772V118.261Z" fill="#C0D8FF"/>
<path d="M1.43076 118.261H-2.55078V134.296H1.43076V118.261Z" fill="#C0D8FF"/>
<path d="M119.916 118.261H115.934V134.296H119.916V118.261Z" fill="#C0D8FF"/>
<path d="M8.57516 118.261H4.59302V134.296H8.57516V118.261Z" fill="#C0D8FF"/>
<path d="M127.06 118.261H123.078V134.296H127.06V118.261Z" fill="#C0D8FF"/>
<path d="M15.7194 118.261H11.7373V134.296H15.7194V118.261Z" fill="#C0D8FF"/>
<path d="M134.205 118.261H130.222V134.296H134.205V118.261Z" fill="#C0D8FF"/>
<path d="M22.864 118.261H18.8818V134.296H22.864V118.261Z" fill="#C0D8FF"/>
<path d="M140.998 118.261H137.015V134.296H140.998V118.261Z" fill="#C0D8FF"/>
<path d="M29.6567 118.261H25.6746V134.296H29.6567V118.261Z" fill="#C0D8FF"/>
<path d="M147.993 118.261H144.012V134.296H147.993V118.261Z" fill="#C0D8FF"/>
<path d="M36.6527 118.261H32.6711V134.296H36.6527V118.261Z" fill="#C0D8FF"/>
<path d="M155.138 118.261H151.156V134.296H155.138V118.261Z" fill="#C0D8FF"/>
<path d="M43.7971 118.261H39.8149V134.296H43.7971V118.261Z" fill="#C0D8FF"/>
<path d="M106.353 97.6926H45.9392V281.645H106.353V97.6926Z" fill="#EDF2FA"/>
<path d="M84.3724 42.9419H69.5334V45.7115H84.3724V42.9419Z" fill="#EDF2FA"/>
<path d="M78.0496 21H75.688V43.7486H78.0496V21Z" fill="#EDF2FA"/>
<path d="M97.9155 45.7115H55.99V98.5937H97.9155V45.7115Z" fill="#EDF2FA"/>
<path d="M65.376 52.2275H61.2126V94.9551H65.376V52.2275Z" fill="#C0D8FF"/>
<path d="M72.846 52.2275H68.6826V94.9551H72.846V52.2275Z" fill="#C0D8FF"/>
<path d="M80.315 52.2275H76.1516V94.9551H80.315V52.2275Z" fill="#C0D8FF"/>
<path d="M87.7849 52.2275H83.6216V94.9551H87.7849V52.2275Z" fill="#C0D8FF"/>
<path d="M94.8872 52.2275H90.7239V94.9551H94.8872V52.2275Z" fill="#C0D8FF"/>
<path d="M55.7318 105.242H51.4849V274.232H55.7318V105.242Z" fill="#C0D8FF"/>
<path d="M63.3515 105.242H59.1045V274.232H63.3515V105.242Z" fill="#C0D8FF"/>
<path d="M70.9713 105.242H66.7244V274.232H70.9713V105.242Z" fill="#C0D8FF"/>
<path d="M78.591 105.242H74.344V274.232H78.591V105.242Z" fill="#C0D8FF"/>
<path d="M85.8364 105.242H81.5889V274.232H85.8364V105.242Z" fill="#C0D8FF"/>
<path d="M93.2984 105.242H89.0508V274.232H93.2984V105.242Z" fill="#C0D8FF"/>
<path d="M100.918 105.242H96.6709V274.232H100.918V105.242Z" fill="#C0D8FF"/>
</g>
<defs>
<clipPath id="clip0_588_3995">
<rect width="160" height="160" fill="white"/>
</clipPath>
</defs>
</svg>
