<svg width="684" height="474" viewBox="0 0 684 474" fill="none" xmlns="http://www.w3.org/2000/svg">
<path d="M495.311 260.146C495.12 260.112 495.295 257.765 495.703 254.906C496.115 252.044 496.438 249.718 496.655 249.738C496.824 249.751 496.815 252.117 496.402 254.995C495.991 257.872 495.503 260.178 495.311 260.146Z" fill="#20A789"/>
<path d="M492.456 273.346C492.268 273.296 492.469 271.788 492.907 269.98C493.343 268.172 493.851 266.74 494.04 266.78C494.231 266.819 494.029 268.326 493.589 270.145C493.15 271.965 492.642 273.397 492.456 273.346Z" fill="#20A789"/>
<path d="M488.342 286.212C488.16 286.143 488.507 284.661 489.116 282.905C489.724 281.147 490.368 279.771 490.553 279.829C490.739 279.887 490.393 281.368 489.779 283.135C489.167 284.903 488.523 286.281 488.342 286.212Z" fill="#20A789"/>
<path d="M483.005 298.616C482.831 298.531 483.318 297.091 484.094 295.401C484.87 293.711 485.644 292.403 485.823 292.479C486.001 292.554 485.515 293.994 484.733 295.694C483.953 297.395 483.178 298.704 483.005 298.616Z" fill="#20A789"/>
<path d="M476.488 310.446C476.323 310.345 476.948 308.959 477.885 307.351C478.822 305.745 479.719 304.518 479.889 304.611C480.06 304.703 479.435 306.089 478.494 307.706C477.551 309.322 476.653 310.549 476.488 310.446Z" fill="#20A789"/>
<path d="M468.862 321.591C468.708 321.472 469.463 320.155 470.551 318.646C471.637 317.136 472.65 316.001 472.811 316.112C472.971 316.221 472.215 317.539 471.122 319.057C470.028 320.574 469.016 321.709 468.862 321.591Z" fill="#20A789"/>
<path d="M460.2 331.949C460.057 331.816 460.938 330.576 462.163 329.178C463.39 327.781 464.505 326.75 464.657 326.872C464.805 326.996 463.926 328.236 462.691 329.643C461.458 331.048 460.342 332.08 460.2 331.949Z" fill="#20A789"/>
<path d="M450.586 341.427C450.458 341.281 451.452 340.132 452.805 338.858C454.16 337.585 455.371 336.664 455.507 336.803C455.644 336.939 454.651 338.09 453.288 339.371C451.926 340.652 450.716 341.572 450.586 341.427Z" fill="#20A789"/>
<path d="M440.114 349.942C439.999 349.783 441.097 348.735 442.567 347.598C444.037 346.459 445.328 345.659 445.452 345.809C445.575 345.959 444.476 347.01 442.996 348.153C441.52 349.298 440.229 350.098 440.114 349.942Z" fill="#20A789"/>
<path d="M428.874 357.417C428.775 357.249 429.97 356.308 431.541 355.318C433.113 354.325 434.475 353.652 434.583 353.813C434.691 353.975 433.498 354.914 431.916 355.912C430.336 356.91 428.973 357.583 428.874 357.417Z" fill="#20A789"/>
<path d="M416.974 363.782C416.89 363.606 418.168 362.784 419.829 361.947C421.487 361.111 422.907 360.572 423.002 360.742C423.092 360.914 421.816 361.734 420.145 362.575C418.476 363.417 417.057 363.957 416.974 363.782Z" fill="#20A789"/>
<path d="M404.516 368.973C404.451 368.791 405.802 368.097 407.534 367.424C409.267 366.75 410.733 366.349 410.807 366.528C410.883 366.708 409.532 367.401 407.789 368.079C406.048 368.756 404.582 369.157 404.516 368.973Z" fill="#20A789"/>
<path d="M391.615 372.942C391.569 372.753 392.981 372.192 394.769 371.689C396.558 371.186 398.056 370.929 398.114 371.113C398.172 371.3 396.761 371.86 394.96 372.367C393.161 372.872 391.662 373.13 391.615 372.942Z" fill="#20A789"/>
<path d="M378.39 375.643C378.361 375.45 379.822 375.03 381.651 374.702C383.481 374.373 384.997 374.261 385.036 374.453C385.075 374.644 383.615 375.064 381.775 375.393C379.935 375.723 378.42 375.834 378.39 375.643Z" fill="#20A789"/>
<path d="M364.963 377.05C364.952 376.856 366.446 376.577 368.298 376.429C370.152 376.28 371.672 376.315 371.693 376.509C371.715 376.702 370.221 376.98 368.355 377.13C366.491 377.28 364.971 377.243 364.963 377.05Z" fill="#20A789"/>
<path d="M351.46 377.158C351.468 376.963 352.982 376.831 354.841 376.861C356.701 376.89 358.21 377.073 358.213 377.267C358.215 377.462 356.7 377.594 354.83 377.564C352.96 377.533 351.451 377.352 351.46 377.158Z" fill="#20A789"/>
<path d="M338.004 375.975C338.033 375.772 339.546 375.837 341.395 376.029C343.246 376.219 344.733 376.531 344.716 376.726C344.701 376.918 343.178 376.919 341.318 376.729C339.457 376.535 337.979 376.157 338.004 375.975Z" fill="#20A789"/>
<path d="M324.721 373.523C324.766 373.332 326.279 373.488 328.099 373.869C329.92 374.251 331.368 374.714 331.333 374.906C331.299 375.098 329.787 374.941 327.955 374.558C326.123 374.175 324.675 373.711 324.721 373.523Z" fill="#20A789"/>
<path d="M311.735 369.808C311.798 369.624 313.289 369.924 315.064 370.479C316.84 371.033 318.236 371.634 318.183 371.822C318.13 372.007 316.64 371.709 314.854 371.151C313.068 370.593 311.671 369.99 311.735 369.808Z" fill="#20A789"/>
<path d="M299.17 364.857C299.251 364.68 300.705 365.123 302.418 365.846C304.131 366.57 305.463 367.304 305.392 367.485C305.322 367.666 303.869 367.221 302.144 366.493C300.421 365.766 299.089 365.033 299.17 364.857Z" fill="#20A789"/>
<path d="M287.143 358.711C287.24 358.542 288.645 359.124 290.28 360.01C291.916 360.897 293.171 361.756 293.083 361.93C292.995 362.102 291.59 361.521 289.945 360.629C288.301 359.736 287.046 358.878 287.143 358.711Z" fill="#20A789"/>
<path d="M275.769 351.43C275.882 351.272 277.224 351.987 278.765 353.027C280.306 354.066 281.471 355.042 281.368 355.207C281.264 355.371 279.923 354.656 278.372 353.609C276.821 352.564 275.655 351.587 275.769 351.43Z" fill="#20A789"/>
<path d="M265.149 343.089C265.278 342.943 266.543 343.784 267.978 344.968C269.413 346.151 270.477 347.235 270.358 347.387C270.239 347.54 268.972 346.7 267.531 345.51C266.088 344.319 265.022 343.236 265.149 343.089Z" fill="#20A789"/>
<path d="M255.381 333.772C255.523 333.639 256.702 334.595 258.015 335.911C259.331 337.225 260.286 338.406 260.152 338.548C260.019 338.688 258.841 337.73 257.518 336.408C256.197 335.084 255.238 333.903 255.381 333.772Z" fill="#20A789"/>
<path d="M246.55 323.56C246.704 323.441 247.786 324.507 248.968 325.941C250.15 327.377 250.989 328.643 250.843 328.772C250.697 328.897 249.614 327.831 248.425 326.389C247.236 324.947 246.398 323.68 246.55 323.56Z" fill="#20A789"/>
<path d="M238.735 312.555C238.898 312.451 239.875 313.616 240.914 315.156C241.954 316.697 242.669 318.037 242.511 318.151C242.353 318.264 241.377 317.1 240.33 315.549C239.285 314.001 238.572 312.659 238.735 312.555Z" fill="#20A789"/>
<path d="M232.009 300.856C232.182 300.767 233.042 302.021 233.93 303.652C234.816 305.286 235.4 306.689 235.231 306.786C235.063 306.884 234.204 305.631 233.311 303.989C232.418 302.346 231.836 300.942 232.009 300.856Z" fill="#20A789"/>
<path d="M226.437 288.562C226.618 288.492 227.352 289.821 228.079 291.532C228.806 293.243 229.252 294.695 229.075 294.776C228.898 294.856 228.163 293.528 227.432 291.806C226.701 290.086 226.256 288.634 226.437 288.562Z" fill="#20A789"/>
<path d="M222.073 275.791C222.259 275.739 222.863 277.133 223.421 278.905C223.981 280.678 224.283 282.168 224.099 282.23C223.916 282.293 223.312 280.901 222.751 279.117C222.189 277.333 221.887 275.844 222.073 275.791Z" fill="#20A789"/>
<path d="M218.963 262.656C219.155 262.621 219.621 264.068 220.005 265.886C220.39 267.706 220.548 269.216 220.359 269.262C220.171 269.306 219.704 267.861 219.317 266.03C218.931 264.203 218.773 262.691 218.963 262.656Z" fill="#20A789"/>
<path d="M217.142 249.279C217.335 249.263 217.66 250.748 217.865 252.595C218.072 254.444 218.084 255.962 217.891 255.991C217.699 256.016 217.375 254.533 217.167 252.673C216.96 250.815 216.948 249.296 217.142 249.279Z" fill="#20A789"/>
<path d="M216.621 235.786C216.814 235.789 216.994 237.298 217.021 239.157C217.048 241.017 216.913 242.531 216.718 242.539C216.524 242.547 216.344 241.038 216.317 239.167C216.29 237.298 216.426 235.783 216.621 235.786Z" fill="#20A789"/>
<path d="M217.393 222.304C217.587 222.324 217.622 223.845 217.47 225.699C217.321 227.552 217.041 229.046 216.846 229.037C216.653 229.026 216.618 227.506 216.769 225.641C216.921 223.776 217.2 222.282 217.393 222.304Z" fill="#20A789"/>
<path d="M219.442 208.952C219.632 208.991 219.523 210.508 219.197 212.339C218.871 214.17 218.451 215.632 218.259 215.604C218.066 215.574 218.176 214.058 218.504 212.216C218.831 210.374 219.251 208.913 219.442 208.952Z" fill="#20A789"/>
<path d="M222.755 195.857C222.94 195.915 222.686 197.415 222.187 199.206C221.687 200.997 221.129 202.412 220.941 202.364C220.752 202.318 221.006 200.819 221.508 199.017C222.011 197.215 222.569 195.8 222.755 195.857Z" fill="#20A789"/>
<path d="M227.316 183.145C227.494 183.221 227.096 184.688 226.425 186.423C225.755 188.159 225.064 189.511 224.881 189.446C224.698 189.381 225.096 187.916 225.77 186.17C226.444 184.425 227.136 183.071 227.316 183.145Z" fill="#20A789"/>
<path d="M233.086 170.935C233.257 171.027 232.718 172.448 231.883 174.11C231.048 175.772 230.228 177.052 230.053 176.97C229.877 176.888 230.415 175.466 231.255 173.794C232.095 172.123 232.915 170.842 233.086 170.935Z" fill="#20A789"/>
<path d="M240.012 159.341C240.172 159.449 239.5 160.812 238.507 162.386C237.515 163.958 236.575 165.152 236.409 165.054C236.241 164.955 236.914 163.592 237.912 162.01C238.909 160.427 239.85 159.233 240.012 159.341Z" fill="#20A789"/>
<path d="M248.021 148.469C248.171 148.592 247.37 149.884 246.231 151.354C245.093 152.823 244.042 153.923 243.885 153.808C243.728 153.693 244.529 152.402 245.675 150.923C246.82 149.445 247.871 148.346 248.021 148.469Z" fill="#20A789"/>
<path d="M257.037 138.419C257.175 138.557 256.253 139.764 254.98 141.118C253.704 142.473 252.553 143.466 252.409 143.336C252.263 143.206 253.184 141.999 254.468 140.636C255.748 139.275 256.898 138.282 257.037 138.419Z" fill="#20A789"/>
<path d="M266.973 129.28C267.097 129.43 266.064 130.545 264.667 131.77C263.268 132.995 262.027 133.873 261.896 133.732C261.764 133.588 262.796 132.474 264.202 131.24C265.609 130.008 266.849 129.13 266.973 129.28Z" fill="#20A789"/>
<path d="M277.734 121.134C277.843 121.295 276.709 122.305 275.201 123.391C273.692 124.479 272.374 125.232 272.256 125.078C272.139 124.924 273.272 123.914 274.79 122.821C276.306 121.728 277.625 120.973 277.734 121.134Z" fill="#20A789"/>
<path d="M289.224 114.052C289.318 114.224 288.092 115.121 286.487 116.058C284.882 116.995 283.497 117.62 283.394 117.455C283.292 117.29 284.517 116.392 286.133 115.45C287.746 114.509 289.13 113.882 289.224 114.052Z" fill="#20A789"/>
<path d="M301.338 108.106C301.415 108.284 300.109 109.06 298.422 109.839C296.734 110.617 295.297 111.108 295.209 110.933C295.124 110.761 296.429 109.984 298.127 109.2C299.824 108.417 301.263 107.928 301.338 108.106Z" fill="#20A789"/>
<path d="M313.971 103.349C314.029 103.534 312.654 104.182 310.9 104.794C309.145 105.407 307.666 105.755 307.597 105.574C307.528 105.393 308.902 104.746 310.668 104.13C312.432 103.513 313.911 103.164 313.971 103.349Z" fill="#20A789"/>
<path d="M327.003 99.8362C327.043 100.027 325.611 100.537 323.807 100.978C322.001 101.418 320.496 101.623 320.444 101.434C320.392 101.248 321.824 100.737 323.639 100.294C325.456 99.851 326.961 99.6471 327.003 99.8362Z" fill="#20A789"/>
<path d="M340.316 97.6014C340.338 97.7932 338.864 98.1633 337.024 98.4268C335.183 98.6902 333.664 98.7483 333.632 98.5564C333.598 98.3646 335.072 97.9958 336.924 97.731C338.775 97.4649 340.293 97.4068 340.316 97.6014Z" fill="#20A789"/>
<path d="M353.785 96.6644C353.789 96.8576 352.285 97.0846 350.428 97.1683C348.57 97.2521 347.053 97.1629 347.038 96.9697C347.025 96.7766 348.527 96.5496 350.395 96.4658C352.263 96.3807 353.782 96.4699 353.785 96.6644Z" fill="#20A789"/>
<path d="M367.284 97.026C367.269 97.2192 365.752 97.2989 363.894 97.2057C362.037 97.1111 360.533 96.8774 360.539 96.6829C360.543 96.4884 362.06 96.4073 363.93 96.5032C365.798 96.5978 367.3 96.8315 367.284 97.026Z" fill="#20A789"/>
<path d="M380.69 98.6687C380.658 98.8592 379.138 98.7957 377.298 98.5269C375.457 98.2567 373.983 97.8811 374.006 97.688C374.029 97.4948 375.549 97.5583 377.4 97.8298C379.252 98.1013 380.725 98.4769 380.69 98.6687Z" fill="#20A789"/>
<path d="M393.882 101.579C393.829 101.767 392.324 101.557 390.518 101.114C388.711 100.67 387.28 100.155 387.32 99.9661C387.362 99.7757 388.869 99.9837 390.686 100.431C392.501 100.877 393.933 101.391 393.882 101.579Z" fill="#20A789"/>
<path d="M406.729 105.744C406.659 105.926 405.179 105.574 403.425 104.958C401.671 104.34 400.296 103.691 400.355 103.507C400.415 103.32 401.894 103.673 403.658 104.293C405.424 104.913 406.798 105.563 406.729 105.744Z" fill="#20A789"/>
<path d="M419.112 111.134C419.025 111.309 417.587 110.814 415.901 110.031C414.214 109.247 412.909 108.468 412.986 108.289C413.062 108.111 414.501 108.605 416.197 109.393C417.894 110.181 419.199 110.96 419.112 111.134Z" fill="#20A789"/>
<path d="M430.915 117.696C430.813 117.861 429.428 117.23 427.826 116.287C426.222 115.344 425 114.442 425.093 114.272C425.187 114.102 426.569 114.733 428.184 115.681C429.795 116.629 431.018 117.532 430.915 117.696Z" fill="#20A789"/>
<path d="M442.029 125.368C441.91 125.522 440.593 124.76 439.09 123.668C437.585 122.575 436.455 121.559 436.565 121.398C436.674 121.239 437.989 121.999 439.503 123.099C441.016 124.198 442.145 125.214 442.029 125.368Z" fill="#20A789"/>
<path d="M452.35 134.072C452.218 134.214 450.98 133.331 449.589 132.099C448.196 130.865 447.169 129.745 447.294 129.597C447.419 129.447 448.655 130.332 450.055 131.572C451.456 132.81 452.482 133.93 452.35 134.072Z" fill="#20A789"/>
<path d="M461.789 143.725C461.643 143.853 460.497 142.855 459.23 141.496C457.962 140.135 457.047 138.922 457.185 138.786C457.324 138.649 458.468 139.648 459.745 141.015C461.019 142.383 461.935 143.596 461.789 143.725Z" fill="#20A789"/>
<path d="M470.262 154.232C470.105 154.346 469.059 153.244 467.927 151.769C466.797 150.294 466.001 148.999 466.151 148.877C466.302 148.754 467.348 149.857 468.485 151.341C469.624 152.823 470.42 154.118 470.262 154.232Z" fill="#20A789"/>
<path d="M477.692 165.501C477.524 165.599 476.589 164.401 475.603 162.826C474.618 161.25 473.95 159.885 474.112 159.777C474.274 159.67 475.209 160.867 476.199 162.452C477.192 164.038 477.859 165.402 477.692 165.501Z" fill="#20A789"/>
<path d="M484.008 177.428C483.831 177.509 483.015 176.229 482.186 174.566C481.355 172.903 480.82 171.48 480.992 171.388C481.163 171.297 481.981 172.579 482.815 174.251C483.65 175.923 484.184 177.346 484.008 177.428Z" fill="#20A789"/>
<path d="M489.148 189.905C488.966 189.97 488.277 188.615 487.611 186.881C486.945 185.146 486.551 183.679 486.729 183.604C486.907 183.529 487.598 184.883 488.268 186.628C488.938 188.374 489.332 189.841 489.148 189.905Z" fill="#20A789"/>
<path d="M493.064 202.823C492.874 202.869 492.321 201.455 491.825 199.664C491.329 197.872 491.076 196.374 491.263 196.316C491.449 196.259 492.004 197.674 492.503 199.476C493.001 201.278 493.251 202.776 493.064 202.823Z" fill="#20A789"/>
<path d="M495.71 216.059C495.518 216.088 495.103 214.626 494.782 212.796C494.462 210.964 494.358 209.448 494.547 209.409C494.737 209.37 495.153 210.831 495.475 212.674C495.798 214.515 495.902 216.032 495.71 216.059Z" fill="#20A789"/>
<path d="M497.064 229.493C496.869 229.502 496.597 228.007 496.456 226.153C496.314 224.299 496.356 222.78 496.55 222.76C496.742 222.738 497.015 224.234 497.157 226.099C497.3 227.965 497.257 229.483 497.064 229.493Z" fill="#20A789"/>
<path d="M497.115 242.996C496.92 242.987 496.795 241.472 496.831 239.614C496.869 237.753 497.057 236.245 497.251 236.243C497.446 236.242 497.573 237.756 497.533 239.627C497.497 241.497 497.308 243.006 497.115 242.996Z" fill="#20A789"/>
<path d="M475.173 220.88C474.987 219.449 474.774 218.025 474.536 216.608C474.774 218.025 474.986 219.449 475.173 220.88Z" fill="#0C2B34"/>
<path d="M464.696 241.891C463.513 239.219 463.246 236.262 462.464 233.456C462.044 231.948 461.338 230.345 459.926 229.677C458.99 229.238 457.883 229.296 456.89 228.991C453.323 227.922 452.35 222.942 448.971 221.396C447.903 220.919 446.721 220.823 445.575 220.69C441.054 220.155 436.378 218.59 433.533 215.042C432.6 213.896 431.893 212.542 430.749 211.606C429.585 210.671 427.791 210.27 426.664 211.225C427.619 213.133 428.554 215.042 429.489 216.93C430.348 218.647 431.225 220.422 432.657 221.683C434.106 222.961 436.243 223.629 437.981 222.827C438.553 222.561 439.126 222.12 439.775 222.197C440.232 222.255 440.632 222.58 440.939 222.942C443.399 225.671 442.598 230.192 440.195 232.979C437.809 235.746 434.26 237.196 430.844 238.551C429.623 239.028 428.326 239.524 427.027 239.296C424.661 238.855 423.402 236.28 422.715 233.972C421.169 228.857 420.424 223.304 417.258 218.992C416.247 217.637 414.987 216.397 414.376 214.812C413.727 213.095 413.881 211.092 412.85 209.584C411.781 207.999 409.509 207.085 409.358 205.176C409.262 203.84 410.368 202.657 411.589 202.084C412.812 201.493 414.184 201.321 415.445 200.806C415.941 200.596 416.493 200.233 416.513 199.699C416.513 198.897 415.406 198.574 415.121 197.828C414.815 196.99 415.673 196.207 416.035 195.386C416.817 193.516 414.872 191.628 412.982 190.865C411.113 190.101 408.842 189.547 407.965 187.716C407.564 186.875 407.526 185.903 407.354 184.987C406.914 182.678 405.216 180.445 402.888 180.064C400.54 179.682 397.947 181.761 398.328 184.09C398.557 185.368 399.511 186.361 400.026 187.544C400.559 188.727 400.408 190.482 399.187 190.865C398.255 191.148 397.34 190.508 396.459 189.869C395.445 189.133 394.475 188.395 393.575 189.071C394.263 191.417 394.93 193.765 395.618 196.13C392.985 197.466 389.836 195.043 388.711 192.295C387.584 189.566 387.545 186.436 386.21 183.803C384.874 181.152 381.268 179.186 378.979 181.056C378.864 184.452 383.347 185.826 385.333 188.573C386.763 190.559 386.553 193.784 384.436 195.043C382.337 196.302 378.996 194.108 379.799 191.798C380.085 190.997 380.752 190.33 380.829 189.47C380.905 188.402 380.008 187.544 379.188 186.856C377.91 185.769 376.629 184.7 375.353 183.632C374.531 182.944 373.653 182.22 372.624 181.914C369.99 181.152 367.357 183.289 365.964 185.635C364.571 188.002 363.788 190.769 361.861 192.734C359.095 195.597 353.847 195.768 351.251 192.772C348.637 189.776 349.972 184.165 353.809 183.078C355.258 182.678 357.091 182.716 357.853 181.438C359.189 179.166 355.373 176.265 356.69 173.976C357.702 172.221 360.373 173.022 362.319 172.43C364.246 171.839 365.335 169.892 366.479 168.213C367.605 166.552 369.379 164.873 371.364 165.312C371.212 164.148 371.058 162.889 371.573 161.839C372.089 160.771 373.539 160.083 374.492 160.771C373.521 162.374 374.684 164.607 376.384 165.408C378.082 166.209 380.065 166.019 381.936 165.808C383.805 165.58 386.152 164.894 386.306 163.023C386.363 162.412 386.133 161.764 386.363 161.191C386.791 160.026 388.118 160.305 389.513 160.584C390.792 160.84 392.131 161.095 392.889 160.237C393.805 159.302 392.793 157.641 391.515 157.337C390.255 157.012 388.939 157.489 387.642 157.527C386.344 157.584 384.759 156.898 384.702 155.599C384.646 154.321 386.078 153.406 386.229 152.145C386.478 150.008 382.852 149.455 381.572 151.191C380.313 152.929 380.752 155.313 381.133 157.431C381.535 159.549 381.726 162.049 380.161 163.539C379.493 164.549 377.756 164.015 377.183 162.947C376.593 161.878 376.727 160.58 376.629 159.378C376.535 158.157 376.001 156.783 374.818 156.459C373.997 156.229 373.12 156.63 372.281 156.745C368.96 157.145 366.652 152.852 367.7 149.684C368.731 146.497 371.746 144.456 374.665 142.835C376.802 141.65 379.454 140.544 381.572 141.746C382.565 142.298 383.253 143.254 384.224 143.826C385.521 144.591 387.056 144.55 388.574 144.51C389.024 144.496 389.471 144.484 389.911 144.494C392.947 144.571 395.942 145.734 398.213 147.718C399.072 148.5 399.873 149.799 399.204 150.733C398.48 151.726 396.4 151.936 396.763 153.1C399.015 153.845 401.705 152.107 401.952 149.761C403.06 150.257 403.862 151.383 403.957 152.584C406.38 150.123 411.037 150.486 413.021 153.33C413.555 154.073 413.937 154.97 414.701 155.486C415.462 155.982 416.8 155.733 416.894 154.836C416.932 154.55 416.838 154.263 416.742 153.997C416.284 152.699 415.807 151.421 415.349 150.142C417.124 149.188 419.223 150.677 420.424 152.279C423.448 156.323 425.886 155.984 429.098 155.647C430.632 155.485 432.341 155.324 434.375 155.639C438.629 156.287 440.5 159.016 442.905 162.317C450.27 172.468 460.002 180.788 466.699 191.398C467.406 192.506 468.054 193.631 468.665 194.775C468.55 194.489 468.455 194.203 468.341 193.916C465.708 186.99 462.444 180.368 458.609 174.128C457.789 172.794 456.949 171.476 456.091 170.178C455.556 169.377 455.002 168.557 454.449 167.774C453.743 166.744 452.999 165.751 452.254 164.76C451.662 163.957 451.072 163.175 450.46 162.412C450.041 161.878 449.602 161.343 449.163 160.81C448.705 160.198 448.21 159.606 447.675 159.016L446.072 157.164C445.918 156.973 445.747 156.783 445.556 156.592C445.004 155.944 444.411 155.313 443.82 154.683L443.649 154.493C443.495 154.321 443.323 154.15 443.153 153.978C442.675 153.443 442.16 152.929 441.663 152.413C440.843 151.574 440.004 150.733 439.145 149.932C438.439 149.226 437.713 148.558 436.969 147.891C436.32 147.299 435.672 146.708 435.003 146.135C434.355 145.562 433.706 145.008 433.038 144.456C432.238 143.768 431.417 143.101 430.576 142.434H430.557C428.249 140.581 425.864 138.827 423.421 137.185C422.81 136.765 422.22 136.364 421.608 135.964C420.997 135.544 420.368 135.163 419.757 134.781C419.127 134.4 418.517 133.999 417.886 133.635C417.258 133.235 416.628 132.872 415.997 132.51C415.483 132.205 414.987 131.918 414.471 131.652C414.205 131.479 413.956 131.347 413.689 131.212C412.601 130.601 411.495 130.009 410.388 129.457C409.833 129.17 409.281 128.884 408.708 128.618C408.003 128.254 407.277 127.911 406.552 127.586L406.228 127.433C405.579 127.129 404.931 126.824 404.262 126.537C403.327 126.136 402.392 125.736 401.456 125.354C400.388 124.915 399.319 124.476 398.233 124.076C397.029 123.618 395.827 123.179 394.606 122.778C393.386 122.358 392.145 121.957 390.904 121.576C389.664 121.193 388.424 120.852 387.164 120.507C384.684 119.84 382.165 119.248 379.627 118.732L379.493 118.694C378.519 118.504 377.547 118.313 376.573 118.161L376.384 118.123C375.962 118.046 375.524 117.969 375.085 117.912C373.272 117.607 371.441 117.358 369.589 117.149C369.379 117.111 369.15 117.092 368.921 117.073C368.388 116.996 367.853 116.958 367.299 116.9C366.079 116.787 364.858 116.691 363.618 116.614C362.338 116.519 361.04 116.462 359.742 116.423C358.387 116.367 357.033 116.348 355.678 116.348C352.09 116.348 348.542 116.5 345.031 116.825C344.19 116.881 343.37 116.958 342.549 117.053C341.691 117.149 340.832 117.245 339.974 117.358C339.115 117.473 338.256 117.588 337.416 117.722C336.558 117.855 335.719 117.988 334.858 118.142C334.134 118.255 333.39 118.389 332.664 118.542C330.87 118.885 329.097 119.267 327.342 119.687C326.521 119.878 325.701 120.087 324.879 120.317C324.059 120.526 323.238 120.756 322.437 120.984C321.082 121.366 319.766 121.785 318.449 122.205H318.429C317.361 122.567 316.273 122.931 315.224 123.294L315.147 123.33C314.06 123.713 313.01 124.114 311.942 124.534L311.77 124.591C310.797 124.972 309.823 125.373 308.87 125.774C307.666 126.27 306.484 126.805 305.32 127.339C304.328 127.797 303.354 128.254 302.4 128.731C301.37 129.247 300.34 129.762 299.328 130.297L299.213 130.354C298.241 130.87 297.267 131.403 296.313 131.956C295.32 132.51 294.348 133.083 293.374 133.693H293.355C292.439 134.247 291.542 134.8 290.645 135.372C290.303 135.582 289.977 135.811 289.634 136.04C288.68 136.65 287.765 137.281 286.828 137.93C285.684 138.712 284.576 139.532 283.47 140.353C282.497 141.079 281.544 141.822 280.608 142.566C275.208 146.879 270.17 151.63 265.61 156.783C263.987 158.577 262.461 160.409 260.972 162.278C259.713 163.882 258.492 165.504 257.328 167.182C257.631 167.144 257.938 167.106 258.242 167.087C259.96 166.954 261.773 167.01 263.319 166.267C264.751 165.561 265.762 164.282 267.059 163.367C270.38 161 275.819 160.561 276.716 156.592C277.021 155.256 276.658 153.805 277.155 152.527C278.088 150.142 281.276 149.799 283.832 149.836C284.921 149.836 286.199 149.989 286.696 150.943C287.058 151.612 286.847 152.452 286.581 153.157C285.016 157.622 281.849 161.477 277.822 163.92C274.501 165.942 270.17 167.508 269.255 171.286C269.713 172.564 272.04 172.468 272.231 173.804C272.364 174.873 270.99 175.427 270.495 176.38C269.769 177.773 271.43 179.472 273.014 179.395C274.597 179.318 275.915 178.174 277.078 177.106C280.551 173.881 284.196 170.408 285.456 165.827C285.99 163.938 286.18 161.726 287.707 160.465C289.519 158.978 292.763 160.007 293.374 162.278C294.882 161.439 297.229 160.81 298.011 162.374C298.279 162.927 298.202 163.575 298.335 164.168C298.833 166.611 302.172 167.717 302.515 170.178C302.915 173.022 299.272 174.49 296.428 174.931C293.852 175.331 291.276 175.73 288.699 176.152C287.574 176.324 286.41 176.514 285.492 177.181C284.576 177.869 284.005 179.166 284.539 180.178C284.844 180.731 285.437 181.094 285.875 181.551C288.012 183.689 286.256 188.097 283.242 188.193C282.211 188.23 281.199 187.849 280.17 187.81C277.117 187.676 274.692 190.369 273.242 193.058C271.792 195.749 270.704 198.821 268.262 200.653C264.331 203.61 257.556 202.924 255.648 207.466C254.885 209.298 255.285 211.358 255.592 213.325C255.896 215.27 256.029 217.445 254.885 219.067C253.76 220.671 250.82 221.014 249.981 219.22C249.618 218.438 249.733 217.522 249.866 216.682C250.324 213.858 250.762 211.034 251.203 208.21C251.527 206.111 251.813 203.763 250.572 202.046C248.836 199.641 244.942 199.871 242.691 201.797C240.459 203.725 239.524 206.74 238.894 209.622C238.435 211.759 237.902 214.774 236.718 217.217C236.318 219.583 235.993 221.988 235.746 224.41C235.497 226.892 235.325 229.353 235.229 231.872C235.536 231.624 235.86 231.319 236.203 230.957C237.406 229.715 239.829 224.468 242.004 227.044C242.558 227.693 242.577 228.742 242.042 229.429C241.375 230.288 240.039 230.478 239.524 231.413C238.894 232.521 239.771 233.895 240.803 234.62C241.833 235.365 243.092 235.821 243.817 236.871C245.21 238.876 243.874 241.91 245.229 243.951C246.393 245.707 248.875 245.821 250.992 246.05C251.24 246.088 251.47 246.127 251.717 246.165C252.309 241.966 254.274 238.551 260 237.253C267.898 235.459 278.28 242.004 282.726 247.959C287.688 254.619 290.035 264.044 297.629 267.384C303.068 269.769 310.797 268.911 313.449 274.234C315.815 279.007 311.693 284.368 311.064 289.653C310.662 293.147 311.808 296.618 312.075 300.11C312.323 303.621 311.292 307.705 308.106 309.175C306.331 309.976 304.098 309.88 302.668 311.216C300.129 313.621 302.21 318.583 299.671 320.987C298.774 321.826 297.534 322.133 296.447 322.685C290.741 325.567 290.893 333.964 293.545 339.784C293.641 339.993 293.737 340.184 293.832 340.393C302.267 345.451 311.35 349.495 320.948 352.359C331.94 355.697 343.599 357.472 355.678 357.472C376.116 357.472 395.388 352.377 412.257 343.389H412.277C415.941 341.425 419.51 339.288 422.945 336.959C428.268 333.391 433.267 329.402 437.922 325.052C441.148 322.036 444.222 318.85 447.083 315.49C449.107 313.163 451.014 310.739 452.846 308.259C453.781 306.981 454.697 305.702 455.556 304.385C458.189 300.531 460.595 296.505 462.749 292.344C465.879 286.352 468.493 280.055 470.555 273.529C472.673 266.946 474.218 260.113 475.153 253.092C475.517 250.383 475.802 247.635 475.992 244.867C474.675 246.146 472.958 247.062 471.145 247.023C468.246 246.985 465.86 244.561 464.696 241.891Z" fill="#76DAC4"/>
<path d="M326.887 147.9C324.497 149.329 323.226 152.025 321.383 154.112C319.542 156.196 316.233 157.683 314.058 155.948C313.012 155.113 312.541 153.733 312.423 152.4C312.252 150.482 312.714 148.515 313.721 146.875C314.76 145.182 316.344 143.85 317.224 142.07C318.103 140.289 317.923 137.682 316.121 136.847C315.147 136.395 313.921 136.573 313.056 135.935C311.501 134.79 312.614 132.083 314.42 131.4C316.227 130.717 318.23 131.246 320.156 131.369C327.146 131.815 332.286 127.238 337.541 123.437C341.628 120.48 350.333 116.989 355.061 120.008C356.948 121.213 357.686 124.312 355.908 125.673C355.114 126.282 354.015 126.418 353.275 127.092C352.386 127.902 352.261 129.231 351.751 130.32C350.43 133.148 346.614 134.176 345.386 137.047C344.647 138.775 344.981 140.926 343.84 142.421C342.937 143.607 341.37 144.024 339.919 144.37C336.881 145.092 333.842 145.814 330.804 146.537C329.453 146.857 328.078 147.19 326.887 147.9Z" fill="#0C2B34"/>
<path d="M408.369 296.324C405.344 300.881 404.797 306.575 403.957 311.979C403.118 317.382 401.676 323.126 397.524 326.684C393.372 330.243 385.745 330.033 383.461 325.063C382.219 322.366 382.857 319.187 382.18 316.296C381.298 312.531 378.302 309.625 376.879 306.029C375.665 302.961 375.664 299.572 375.564 296.274C375.023 278.256 370.629 259.449 358.361 246.24C356.855 244.617 355.142 243.037 353.002 242.468C350.457 241.793 347.55 242.795 345.963 244.897C344.978 246.201 344.469 247.864 343.264 248.966C340.641 251.36 336.063 249.644 334.313 246.556C332.562 243.468 332.804 239.683 333.097 236.145C333.46 231.758 333.823 227.37 334.187 222.984C334.376 220.689 334.634 218.226 336.14 216.484C338.281 214.009 342.123 213.891 344.743 211.928C348.178 209.355 348.636 204.447 350.802 200.74C352.968 197.035 359.749 195.468 360.751 199.642C365.117 190.296 372.698 195.093 380.089 199.889C384.838 202.97 389.509 206.052 393.196 205.382C395.932 204.883 398.606 203.569 401.36 203.954C406.226 204.635 408.738 209.995 410.394 214.619C413.14 222.296 415.888 229.974 418.636 237.649C419.683 240.574 421.035 243.826 423.93 244.947C426.149 245.807 428.728 245.152 430.965 245.966C436.878 248.118 434.956 257.424 430.197 261.541C425.437 265.659 418.759 268.258 416.496 274.129C414.792 278.553 416.151 283.738 414.318 288.11C413.005 291.237 410.244 293.498 408.369 296.324Z" fill="#0C2B34"/>
<path d="M430.819 301.328C430.13 301.425 429.4 301.367 428.676 301.309C427.354 301.204 426.059 301.1 425.104 301.933C424.243 302.687 424.051 303.924 423.71 305.017C423.234 306.534 422.324 307.969 420.956 308.78C419.588 309.589 417.728 309.656 416.462 308.697C415.194 307.738 414.807 305.693 415.845 304.486C416.315 303.939 416.996 303.614 417.521 303.115C420.101 300.678 418.334 296.158 420.297 293.26C421.452 291.552 423.273 289.817 424.543 288.085C425.52 286.753 425.878 285.698 427.674 285.344C435.535 283.797 439.088 300.17 430.819 301.328Z" fill="#0C2B34"/>
<path d="M250.858 268.604C250.477 265.151 251.622 261.697 251.679 258.205C251.717 255.801 251.545 253.264 251.508 250.84C249.446 250.744 247.386 250.458 245.383 249.981C244.963 249.885 244.505 249.751 244.256 249.408C243.989 249.046 244.028 248.569 244.009 248.13C243.855 245.42 241.241 243.626 238.894 242.271C237.692 241.565 236.471 240.878 235.173 240.439C235.173 240.726 235.173 240.993 235.192 241.28C235.67 254.694 238.34 267.575 242.863 279.539C244.923 284.996 247.386 290.282 250.228 295.34C251.412 297.535 252.71 299.69 254.065 301.809C255.743 304.422 257.498 306.981 259.389 309.442C261.142 311.807 263.013 314.117 264.979 316.33C267.67 319.402 270.514 322.321 273.51 325.108C276.162 327.59 278.93 329.937 281.81 332.168C275.227 314.498 269.025 296.467 257.765 281.428C254.809 277.497 251.412 273.491 250.858 268.604Z" fill="#20A789"/>
<path d="M430.197 261.541C434.956 257.424 436.878 248.118 430.965 245.966C428.728 245.152 426.149 245.807 423.93 244.947C421.035 243.826 419.683 240.574 418.636 237.649C415.888 229.974 413.14 222.296 410.394 214.619C408.738 209.995 406.226 204.635 401.36 203.954C398.606 203.569 395.932 204.883 393.196 205.382C389.509 206.052 384.839 202.97 380.089 199.889C372.698 195.093 365.117 190.296 360.751 199.642C359.749 195.468 352.968 197.035 350.802 200.74C348.636 204.447 348.178 209.355 344.743 211.928C342.123 213.891 338.281 214.009 336.14 216.484C334.634 218.226 334.376 220.689 334.187 222.984C333.823 227.37 333.46 231.758 333.097 236.145C332.804 239.683 332.562 243.468 334.313 246.556C336.063 249.644 340.641 251.36 343.264 248.966C344.469 247.864 344.978 246.201 345.963 244.897C347.55 242.795 350.457 241.793 353.002 242.468C355.142 243.037 356.855 244.617 358.361 246.24C370.629 259.449 375.023 278.256 375.564 296.274C375.664 299.572 375.665 302.961 376.879 306.029C378.302 309.625 381.298 312.531 382.18 316.296C382.857 319.187 382.219 322.366 383.461 325.063C385.745 330.033 393.372 330.243 397.524 326.684C401.676 323.126 403.118 317.382 403.957 311.979C404.797 306.575 405.344 300.881 408.369 296.324C410.244 293.498 413.005 291.237 414.318 288.11C416.151 283.738 414.792 278.553 416.496 274.129C418.759 268.258 425.437 265.659 430.197 261.541Z" fill="#20A789"/>
<path d="M251.717 246.165C251.47 246.127 251.24 246.088 250.992 246.05C248.874 245.82 246.393 245.707 245.229 243.951C243.874 241.91 245.21 238.875 243.817 236.871C243.092 235.821 241.833 235.364 240.802 234.62C239.771 233.895 238.894 232.521 239.524 231.413C240.039 230.478 241.375 230.288 242.042 229.429C242.577 228.742 242.558 227.693 242.004 227.044C239.829 224.468 237.406 229.715 236.203 230.956C235.86 231.318 235.536 231.624 235.229 231.872V231.891C235.211 232.12 235.192 232.329 235.192 232.559C235.163 233.275 235.166 234.007 235.154 234.734C235.142 235.462 235.116 236.184 235.116 236.91C235.116 237.502 235.135 238.085 235.144 238.674C235.154 239.264 235.154 239.858 235.173 240.44C236.471 240.879 237.692 241.565 238.894 242.272C241.241 243.627 243.855 245.421 244.009 248.13C244.028 248.569 243.989 249.045 244.256 249.408C244.505 249.751 244.963 249.885 245.383 249.981C247.386 250.458 249.446 250.744 251.508 250.84L251.717 246.165Z" fill="#20A789"/>
<path d="M251.508 250.839C251.546 253.263 251.717 255.8 251.679 258.204C251.621 261.696 250.477 265.151 250.858 268.604C251.412 273.49 254.809 277.496 257.765 281.428C269.025 296.464 275.227 314.498 281.81 332.167H281.829C283.05 333.141 284.291 334.057 285.55 334.954C286.542 335.669 287.544 336.371 288.558 337.055C289.572 337.74 290.597 338.407 291.638 339.057C292.363 339.515 293.088 339.954 293.831 340.392C293.737 340.182 293.641 339.992 293.546 339.782C290.893 333.963 290.741 325.566 296.447 322.684C297.534 322.13 298.774 321.825 299.671 320.986C302.21 318.581 300.129 313.62 302.668 311.215C304.098 309.879 306.331 309.975 308.106 309.174C311.293 307.704 312.323 303.62 312.075 300.109C311.808 296.617 310.662 293.145 311.064 289.652C311.693 284.367 315.815 279.005 313.449 274.233C310.797 268.91 303.068 269.768 297.629 267.382C290.035 264.043 287.688 254.618 282.726 247.958C278.28 242.003 267.898 235.458 260 237.252C254.274 238.55 252.309 241.965 251.717 246.164L251.508 250.839Z" fill="#20A789"/>
<path d="M242.69 201.798C244.942 199.871 248.836 199.642 250.571 202.046C251.813 203.763 251.527 206.111 251.202 208.21C250.762 211.034 250.324 213.858 249.866 216.682C249.733 217.522 249.618 218.438 249.981 219.22C250.82 221.014 253.76 220.671 254.885 219.068C256.029 217.445 255.895 215.27 255.591 213.325C255.285 211.358 254.885 209.298 255.648 207.466C257.556 202.924 264.33 203.611 268.262 200.653C270.704 198.822 271.791 195.75 273.242 193.059C274.692 190.369 277.117 187.677 280.17 187.81C281.199 187.85 282.211 188.231 283.242 188.193C286.255 188.097 288.012 183.689 285.875 181.552C285.437 181.094 284.844 180.732 284.539 180.178C284.005 179.166 284.576 177.869 285.492 177.182C286.41 176.514 287.574 176.324 288.699 176.152C291.275 175.731 293.852 175.331 296.428 174.931C299.271 174.491 302.915 173.022 302.515 170.178C302.172 167.717 298.832 166.611 298.335 164.168C298.201 163.575 298.279 162.927 298.011 162.374C297.229 160.81 294.882 161.439 293.373 162.278C292.763 160.008 289.519 158.978 287.706 160.465C286.18 161.726 285.989 163.939 285.456 165.827C284.195 170.408 280.551 173.881 277.077 177.106C275.914 178.174 274.597 179.319 273.014 179.396C271.429 179.473 269.769 177.773 270.495 176.38C270.99 175.427 272.364 174.873 272.23 173.804C272.04 172.468 269.712 172.564 269.254 171.286C270.17 167.508 274.501 165.942 277.822 163.92C281.849 161.477 285.015 157.622 286.581 153.157C286.847 152.452 287.058 151.612 286.696 150.943C286.199 149.989 284.921 149.837 283.832 149.837C281.276 149.799 278.088 150.142 277.155 152.528C276.657 153.806 277.021 155.256 276.715 156.592C275.818 160.561 270.38 161 267.059 163.367C265.762 164.282 264.751 165.561 263.319 166.268C261.773 167.011 259.96 166.954 258.242 167.088C257.938 167.107 257.631 167.144 257.327 167.182C256.278 168.642 255.266 170.131 254.289 171.643C253.315 173.156 252.375 174.692 251.47 176.247C247.194 183.555 243.683 191.361 241.013 199.566C240.076 202.418 239.252 205.319 238.536 208.263C237.82 211.205 237.215 214.192 236.718 217.217C237.901 214.774 238.435 211.759 238.894 209.622C239.524 206.741 240.459 203.725 242.69 201.798Z" fill="#20A789"/>
<path d="M343.84 142.421C344.981 140.926 344.647 138.775 345.386 137.047C346.614 134.176 350.43 133.148 351.751 130.32C352.261 129.231 352.386 127.902 353.275 127.092C354.015 126.418 355.114 126.282 355.908 125.673C357.686 124.312 356.948 121.213 355.061 120.008C350.333 116.989 341.628 120.48 337.541 123.437C332.286 127.238 327.146 131.815 320.156 131.369C318.23 131.246 316.227 130.717 314.42 131.4C312.614 132.083 311.501 134.79 313.056 135.935C313.921 136.573 315.147 136.395 316.121 136.847C317.923 137.682 318.103 140.289 317.224 142.07C316.344 143.85 314.76 145.182 313.721 146.875C312.714 148.515 312.252 150.482 312.423 152.4C312.541 153.733 313.012 155.113 314.058 155.948C316.233 157.683 319.542 156.196 321.383 154.112C323.226 152.025 324.497 149.329 326.887 147.9C328.078 147.19 329.453 146.857 330.804 146.537C333.842 145.814 336.881 145.092 339.919 144.37C341.37 144.024 342.937 143.607 343.84 142.421Z" fill="#20A789"/>
<path d="M476.203 235.249C476.193 233.511 476.139 231.79 476.048 230.077C475.956 228.364 475.821 226.661 475.649 224.963C475.517 223.589 475.363 222.234 475.174 220.879C474.986 219.448 474.774 218.025 474.536 216.607C473.823 212.359 472.878 208.179 471.718 204.087C471.269 202.512 470.793 200.952 470.285 199.404C469.778 197.857 469.238 196.321 468.665 194.793V194.774C468.054 193.63 467.406 192.505 466.699 191.397C460.002 180.787 450.27 172.467 442.905 162.316C440.5 159.015 438.629 156.286 434.375 155.637C432.341 155.323 430.632 155.483 429.098 155.645C425.886 155.983 423.448 156.322 420.424 152.278C419.223 150.675 417.124 149.187 415.349 150.141C415.807 151.42 416.284 152.698 416.742 153.996C416.838 154.262 416.932 154.548 416.894 154.835C416.8 155.732 415.462 155.98 414.701 155.485C413.937 154.969 413.555 154.072 413.021 153.329C411.037 150.485 406.38 150.122 403.957 152.583C403.862 151.382 403.06 150.255 401.952 149.76C401.705 152.106 399.015 153.843 396.763 153.099C396.4 151.935 398.48 151.725 399.204 150.732C399.873 149.797 399.072 148.499 398.213 147.717C395.942 145.733 392.947 144.569 389.912 144.492C389.471 144.483 389.024 144.495 388.574 144.509C387.056 144.549 385.521 144.59 384.224 143.825C383.253 143.252 382.565 142.297 381.572 141.745C379.454 140.542 376.802 141.649 374.665 142.833C371.746 144.455 368.731 146.496 367.7 149.683C366.652 152.85 368.96 157.144 372.281 156.744C373.12 156.629 373.997 156.228 374.818 156.457C376.001 156.782 376.535 158.155 376.629 159.377C376.727 160.579 376.593 161.877 377.183 162.946C377.756 164.014 379.493 164.548 380.161 163.537C381.726 162.047 381.535 159.548 381.133 157.43C380.752 155.312 380.313 152.927 381.572 151.19C382.852 149.454 386.478 150.007 386.229 152.144C386.078 153.404 384.646 154.32 384.702 155.598C384.759 156.896 386.344 157.583 387.642 157.526C388.939 157.488 390.255 157.011 391.515 157.335C392.793 157.639 393.805 159.301 392.889 160.236C392.131 161.094 390.792 160.838 389.513 160.583C388.118 160.303 386.791 160.025 386.363 161.19C386.133 161.762 386.363 162.411 386.306 163.021C386.152 164.892 383.805 165.579 381.936 165.807C380.065 166.018 378.082 166.208 376.384 165.407C374.684 164.606 373.521 162.373 374.492 160.769C373.539 160.082 372.089 160.769 371.573 161.838C371.058 162.888 371.212 164.147 371.364 165.311C369.379 164.872 367.605 166.551 366.479 168.211C365.335 169.891 364.246 171.837 362.319 172.429C360.373 173.021 357.702 172.22 356.69 173.974C355.373 176.264 359.189 179.165 357.853 181.437C357.091 182.715 355.258 182.677 353.809 183.077C349.972 184.164 348.638 189.775 351.251 192.771C353.847 195.767 359.095 195.596 361.861 192.733C363.788 190.767 364.571 188.001 365.964 185.634C367.357 183.288 369.99 181.15 372.624 181.912C373.653 182.219 374.532 182.943 375.353 183.631C376.629 184.699 377.91 185.768 379.188 186.855C380.008 187.543 380.905 188.401 380.829 189.469C380.752 190.328 380.085 190.996 379.799 191.797C378.996 194.107 382.337 196.301 384.436 195.042C386.553 193.783 386.763 190.558 385.333 188.572C383.348 185.825 378.864 184.451 378.979 181.054C381.269 179.185 384.874 181.15 386.21 183.802C387.545 186.435 387.584 189.565 388.711 192.294C389.836 195.042 392.985 197.465 395.618 196.129C394.93 193.764 394.263 191.416 393.575 189.069C394.475 188.394 395.445 189.132 396.459 189.868C397.34 190.507 398.255 191.147 399.187 190.863C400.408 190.481 400.559 188.726 400.026 187.543C399.511 186.359 398.557 185.367 398.328 184.089C397.947 181.76 400.54 179.681 402.888 180.063C405.216 180.444 406.914 182.677 407.354 184.986C407.526 185.902 407.564 186.874 407.965 187.714C408.842 189.546 411.113 190.1 412.982 190.863C414.872 191.627 416.817 193.515 416.035 195.385C415.673 196.206 414.815 196.988 415.121 197.827C415.406 198.573 416.513 198.896 416.513 199.698C416.493 200.232 415.941 200.595 415.445 200.805C414.185 201.319 412.812 201.492 411.589 202.083C410.368 202.655 409.262 203.839 409.358 205.175C409.509 207.084 411.781 207.998 412.85 209.583C413.881 211.09 413.727 213.094 414.376 214.811C414.987 216.395 416.247 217.635 417.258 218.99C420.424 223.303 421.169 228.856 422.715 233.971C423.402 236.279 424.661 238.854 427.028 239.294C428.326 239.523 429.623 239.027 430.844 238.55C434.26 237.195 437.809 235.744 440.195 232.978C442.598 230.191 443.399 225.669 440.939 222.94C440.632 222.578 440.233 222.254 439.775 222.196C439.126 222.119 438.553 222.56 437.981 222.826C436.243 223.628 434.106 222.959 432.657 221.681C431.225 220.421 430.348 218.646 429.489 216.929C428.554 215.04 427.619 213.132 426.664 211.224C427.791 210.269 429.585 210.67 430.749 211.605C431.893 212.541 432.6 213.895 433.533 215.04C436.378 218.589 441.054 220.154 445.575 220.689C446.721 220.822 447.903 220.918 448.971 221.395C452.35 222.94 453.323 227.921 456.89 228.99C457.883 229.295 458.99 229.237 459.926 229.676C461.338 230.343 462.044 231.947 462.464 233.455C463.246 236.26 463.513 239.217 464.696 241.89C465.86 244.56 468.246 246.984 471.145 247.022C472.958 247.061 474.675 246.145 475.992 244.866V244.847C476.145 242.214 476.241 239.579 476.241 236.909C476.241 236.355 476.241 235.801 476.203 235.249Z" fill="#20A789"/>
<path d="M427.674 285.344C425.878 285.698 425.52 286.753 424.543 288.085C423.273 289.817 421.452 291.552 420.297 293.26C418.334 296.158 420.101 300.678 417.521 303.115C416.996 303.614 416.315 303.939 415.845 304.486C414.807 305.693 415.194 307.738 416.462 308.697C417.728 309.656 419.588 309.589 420.956 308.78C422.324 307.969 423.234 306.534 423.71 305.017C424.051 303.924 424.243 302.687 425.104 301.933C426.059 301.1 427.354 301.204 428.676 301.309C429.4 301.367 430.13 301.425 430.819 301.328C439.088 300.17 435.535 283.797 427.674 285.344Z" fill="#20A789"/>
<path d="M390.677 329.11C387.632 329.11 384.727 327.817 383.461 325.064C382.219 322.366 382.857 319.188 382.18 316.297C381.298 312.532 378.302 309.626 376.879 306.03C375.665 302.962 375.664 299.573 375.564 296.275C375.023 278.257 370.629 259.449 358.361 246.24C356.855 244.618 355.142 243.037 353.002 242.469C352.471 242.328 351.924 242.259 351.377 242.259H351.369C349.295 242.262 347.216 243.237 345.963 244.898C344.978 246.201 344.469 247.864 343.264 248.966C342.407 249.747 341.344 250.092 340.238 250.092H340.232C337.952 250.092 335.492 248.636 334.313 246.556C333.198 244.59 332.891 242.342 332.891 240.053C332.891 238.748 332.99 237.431 333.097 236.145C333.46 231.759 333.823 227.371 334.187 222.985C334.376 220.689 334.634 218.227 336.14 216.484C338.281 214.009 342.123 213.892 344.743 211.929C348.178 209.355 348.636 204.448 350.802 200.741C352.062 198.586 354.883 197.154 357.22 197.154C358.9 197.154 360.332 197.896 360.751 199.642C362.575 195.74 364.959 194.304 367.655 194.304C371.416 194.304 375.785 197.096 380.089 199.89C384.393 202.682 388.632 205.474 392.134 205.474C392.496 205.474 392.85 205.445 393.195 205.382C395.591 204.946 397.937 203.886 400.334 203.886C400.674 203.886 401.017 203.907 401.36 203.955C406.226 204.635 408.738 209.996 410.394 214.62C413.14 222.297 415.888 229.974 418.636 237.65C419.683 240.575 421.035 243.826 423.93 244.948C426.149 245.808 428.728 245.153 430.965 245.966C433.564 246.912 434.649 249.239 434.645 251.901C434.641 255.295 432.865 259.233 430.197 261.542C425.437 265.66 418.759 268.259 416.496 274.13C414.792 278.554 416.151 283.739 414.318 288.11C413.005 291.237 410.244 293.499 408.369 296.325C405.344 300.882 404.797 306.576 403.957 311.979C403.118 317.383 401.676 323.127 397.524 326.685C395.674 328.271 393.135 329.107 390.685 329.11H390.677Z" fill="#48A793"/>
<path d="M291.638 339.058C290.597 338.408 289.572 337.74 288.558 337.056C287.544 336.372 286.542 335.669 285.55 334.955C284.291 334.058 283.05 333.142 281.829 332.168H281.81C278.93 329.936 276.162 327.59 273.509 325.108C270.514 322.321 267.67 319.402 264.979 316.33C267.67 319.402 270.514 322.321 273.51 325.108C276.162 327.59 278.93 329.936 281.81 332.168H281.829C283.05 333.142 284.291 334.058 285.55 334.955C286.542 335.669 287.544 336.372 288.558 337.056C289.572 337.74 290.597 338.408 291.638 339.058ZM281.387 331.029C274.958 313.726 268.783 296.142 257.765 281.428C268.783 296.141 274.958 313.726 281.387 331.029ZM244.256 249.408C243.99 249.049 244.026 248.576 244.009 248.139C244.026 248.576 243.991 249.049 244.256 249.408ZM243.997 247.972C243.754 245.35 241.195 243.6 238.894 242.271C241.195 243.599 243.754 245.35 243.997 247.972ZM235.116 236.909C235.116 236.251 235.138 235.596 235.15 234.938C235.142 235.33 235.132 235.722 235.124 236.112C235.12 236.378 235.116 236.643 235.116 236.909ZM240.46 234.349C239.696 233.677 239.119 232.673 239.373 231.771C239.244 232.226 239.328 232.708 239.54 233.159C239.748 233.602 240.082 234.017 240.46 234.349Z" fill="#C3C5C5"/>
<path d="M239.54 233.159C239.328 232.708 239.244 232.225 239.373 231.77C239.408 231.648 239.458 231.53 239.524 231.412C239.209 231.966 239.272 232.586 239.54 233.159Z" fill="#038064"/>
<path d="M281.81 332.168C278.93 329.937 276.162 327.59 273.51 325.108C270.514 322.321 267.67 319.402 264.979 316.33C263.013 314.116 261.142 311.807 259.389 309.442C257.498 306.981 255.743 304.422 254.065 301.809C252.71 299.69 251.412 297.535 250.228 295.34C247.386 290.282 244.923 284.996 242.863 279.539C238.34 267.575 235.67 254.694 235.192 241.28C235.173 240.993 235.173 240.726 235.173 240.439C236.471 240.878 237.692 241.566 238.894 242.271C241.195 243.601 243.754 245.35 243.997 247.972C244.001 248.025 244.005 248.077 244.009 248.13V248.14C244.026 248.576 243.99 249.049 244.256 249.408C244.505 249.751 244.963 249.885 245.383 249.981C247.339 250.447 249.35 250.731 251.362 250.832C251.41 250.835 251.459 250.837 251.508 250.84C251.51 251.029 251.514 251.218 251.518 251.41C251.566 253.411 251.683 255.476 251.685 257.469C251.685 257.715 251.683 257.961 251.679 258.205C251.621 261.697 250.477 265.151 250.858 268.604C251.412 273.491 254.809 277.497 257.765 281.428C268.783 296.142 274.958 313.726 281.387 331.029C281.527 331.409 281.669 331.789 281.81 332.168Z" fill="#48A793"/>
<path d="M251.508 250.84C251.459 250.838 251.41 250.835 251.362 250.832C249.35 250.731 247.339 250.447 245.383 249.981C244.963 249.885 244.505 249.752 244.256 249.408C243.991 249.049 244.026 248.576 244.009 248.14V248.13C244.005 248.078 244.001 248.025 243.997 247.972C243.754 245.35 241.195 243.6 238.894 242.272C237.692 241.566 236.471 240.879 235.173 240.44C235.155 239.894 235.154 239.339 235.146 238.785C235.146 238.748 235.144 238.712 235.144 238.674C235.144 238.638 235.143 238.601 235.143 238.565C235.132 238.012 235.116 237.464 235.116 236.91C235.116 236.644 235.12 236.379 235.124 236.113C235.132 235.722 235.142 235.331 235.15 234.939C235.151 234.87 235.152 234.802 235.154 234.734C235.154 234.689 235.155 234.643 235.156 234.597C235.166 233.915 235.165 233.23 235.192 232.559C235.192 232.351 235.208 232.159 235.224 231.955C235.227 231.933 235.228 231.913 235.229 231.891V231.872C235.536 231.624 235.86 231.319 236.203 230.956C237.173 229.954 238.94 226.342 240.729 226.342C241.157 226.342 241.585 226.547 242.004 227.044C242.289 227.378 242.432 227.82 242.431 228.263C242.43 228.679 242.301 229.096 242.042 229.429C241.375 230.288 240.039 230.478 239.524 231.413C239.458 231.531 239.408 231.649 239.373 231.771C239.119 232.673 239.696 233.677 240.46 234.35C240.571 234.447 240.686 234.538 240.802 234.62C241.833 235.364 243.092 235.821 243.817 236.871C245.21 238.875 243.874 241.91 245.229 243.951C246.393 245.707 248.874 245.82 250.992 246.05C251.24 246.088 251.47 246.127 251.717 246.165L251.508 250.84Z" fill="#48A793"/>
<path d="M293.831 340.392C293.088 339.955 292.363 339.515 291.638 339.058C290.597 338.408 289.572 337.74 288.558 337.056C287.544 336.372 286.542 335.669 285.55 334.955C284.291 334.058 283.05 333.142 281.829 332.168H281.81C281.669 331.788 281.527 331.409 281.387 331.029C274.958 313.725 268.783 296.141 257.765 281.428C254.809 277.497 251.412 273.49 250.858 268.604C250.477 265.151 251.621 261.697 251.679 258.205C251.683 257.96 251.685 257.714 251.685 257.469C251.683 255.476 251.566 253.411 251.519 251.41C251.515 251.218 251.51 251.029 251.508 250.84L251.717 246.164C252.309 241.966 254.274 238.551 260 237.252C260.903 237.047 261.841 236.951 262.8 236.951C270.2 236.951 278.789 242.686 282.726 247.958C287.688 254.618 290.035 264.043 297.629 267.383C303.026 269.75 310.676 268.924 313.386 274.11C313.407 274.151 313.428 274.193 313.449 274.233C313.967 275.278 314.173 276.35 314.175 277.443C314.179 281.347 311.555 285.524 311.064 289.652C311.004 290.171 310.978 290.69 310.98 291.207C310.984 294.177 311.847 297.136 312.075 300.11C312.098 300.439 312.11 300.773 312.11 301.109C312.11 304.364 310.995 307.842 308.106 309.174C306.331 309.975 304.098 309.879 302.668 311.216C300.129 313.62 302.21 318.582 299.671 320.987C298.774 321.825 297.534 322.131 296.447 322.685C293.103 324.372 291.771 327.955 291.775 331.803C291.778 334.523 292.448 337.373 293.546 339.783C293.641 339.992 293.737 340.183 293.831 340.392Z" fill="#48A793"/>
<path d="M252.113 220.425C251.225 220.425 250.396 220.065 250 219.259L249.999 219.257C249.992 219.245 249.987 219.232 249.981 219.22C249.8 218.83 249.738 218.404 249.737 217.973C249.737 217.541 249.799 217.102 249.866 216.682C250.324 213.858 250.762 211.034 251.202 208.21C251.346 207.284 251.481 206.308 251.482 205.361C251.482 204.162 251.265 203.005 250.571 202.046C250.567 202.039 250.563 202.034 250.558 202.027C249.688 200.837 248.286 200.3 246.821 200.298H246.815C245.346 200.298 243.814 200.837 242.69 201.798C240.459 203.725 239.524 206.741 238.894 209.622C238.435 211.759 237.901 214.774 236.718 217.217C237.215 214.192 237.82 211.205 238.536 208.263C239.252 205.319 240.076 202.418 241.013 199.566C243.683 191.361 247.194 183.555 251.47 176.247C252.375 174.692 253.315 173.156 254.289 171.643C255.266 170.131 256.278 168.643 257.327 167.182C257.631 167.144 257.938 167.107 258.242 167.088C259.96 166.954 261.773 167.011 263.319 166.268C264.751 165.561 265.762 164.282 267.059 163.367C270.38 161.001 275.818 160.561 276.715 156.593C277.021 155.256 276.657 153.806 277.155 152.528C278.046 150.25 280.994 149.834 283.483 149.834C283.601 149.834 283.717 149.835 283.832 149.837C284.921 149.837 286.199 149.989 286.696 150.943C286.834 151.2 286.889 151.481 286.889 151.77C286.889 152.235 286.746 152.722 286.581 153.157C285.015 157.622 281.849 161.477 277.822 163.92C274.501 165.942 270.17 167.508 269.254 171.286C269.712 172.564 272.04 172.468 272.23 173.804C272.237 173.854 272.24 173.904 272.24 173.952C272.237 174.926 270.967 175.471 270.495 176.381C270.49 176.389 270.486 176.397 270.482 176.405C270.477 176.414 270.473 176.425 270.468 176.435C270.365 176.652 270.318 176.876 270.319 177.099C270.324 178.264 271.624 179.398 272.91 179.398C272.944 179.398 272.979 179.397 273.014 179.396C274.597 179.319 275.914 178.174 277.077 177.106C280.551 173.881 284.195 170.408 285.456 165.827C285.989 163.939 286.18 161.726 287.706 160.466C288.29 159.987 289.021 159.768 289.765 159.768C291.334 159.768 292.96 160.738 293.373 162.278C294.208 161.814 295.3 161.414 296.24 161.414C296.999 161.414 297.661 161.675 298.011 162.374C298.279 162.927 298.201 163.575 298.335 164.168C298.832 166.611 302.172 167.717 302.515 170.179C302.535 170.323 302.545 170.464 302.545 170.601C302.547 173.169 299.127 174.514 296.428 174.931C293.852 175.331 291.275 175.731 288.699 176.152C287.574 176.324 286.41 176.514 285.492 177.182C284.819 177.687 284.333 178.52 284.333 179.328C284.333 179.62 284.397 179.909 284.539 180.178C284.844 180.732 285.437 181.094 285.875 181.552C286.53 182.207 286.819 183.076 286.819 183.968C286.816 185.987 285.331 188.127 283.242 188.193C283.193 188.194 283.144 188.195 283.097 188.195H283.073C282.55 188.193 282.031 188.091 281.512 187.994C281.065 187.91 280.62 187.828 280.17 187.81C280.095 187.808 280.024 187.806 279.951 187.806H279.941C277.006 187.812 274.67 190.419 273.256 193.034C273.25 193.042 273.246 193.051 273.242 193.059C271.791 195.75 270.704 198.822 268.262 200.653C264.33 203.611 257.556 202.924 255.648 207.466C255.323 208.246 255.209 209.067 255.209 209.906C255.209 211.035 255.416 212.196 255.591 213.325C255.709 214.084 255.802 214.88 255.805 215.663C255.805 216.886 255.581 218.079 254.885 219.068C254.282 219.924 253.165 220.421 252.125 220.424C252.121 220.425 252.117 220.425 252.113 220.425Z" fill="#48A793"/>
<path d="M316.313 156.711C315.505 156.711 314.728 156.482 314.058 155.947C313.012 155.113 312.541 153.733 312.423 152.4C312.4 152.138 312.387 151.874 312.387 151.611C312.389 149.951 312.852 148.291 313.721 146.875C314.76 145.182 316.344 143.85 317.224 142.07C317.557 141.396 317.738 140.601 317.737 139.831C317.734 138.568 317.24 137.366 316.121 136.847C315.147 136.394 313.921 136.573 313.056 135.935C312.54 135.554 312.318 135.002 312.317 134.409C312.317 133.216 313.214 131.857 314.42 131.4C315.1 131.142 315.807 131.057 316.528 131.057C317.722 131.057 318.954 131.292 320.156 131.369C320.475 131.389 320.79 131.399 321.101 131.399C327.616 131.399 332.525 127.064 337.541 123.437C340.516 121.283 345.94 118.848 350.495 118.848C352.196 118.848 353.776 119.187 355.061 120.008C356.2 120.736 356.92 122.152 356.921 123.461C356.922 124.32 356.613 125.133 355.908 125.672C355.114 126.282 354.015 126.418 353.275 127.092C352.386 127.901 352.261 129.231 351.751 130.319C350.43 133.148 346.614 134.176 345.386 137.047C344.647 138.775 344.981 140.925 343.84 142.421C342.937 143.607 341.37 144.024 339.919 144.37C336.881 145.092 333.842 145.814 330.804 146.537C329.453 146.857 328.078 147.19 326.887 147.9C324.497 149.329 323.226 152.024 321.383 154.112C320.11 155.552 318.14 156.707 316.324 156.711H316.313Z" fill="#48A793"/>
<path d="M471.256 247.024C471.219 247.024 471.181 247.024 471.145 247.022C468.246 246.984 465.86 244.561 464.696 241.89C463.512 239.218 463.246 236.261 462.464 233.455C462.044 231.948 461.337 230.344 459.926 229.677C458.99 229.238 457.883 229.296 456.89 228.99C453.323 227.922 452.35 222.941 448.971 221.396C447.903 220.919 446.721 220.823 445.575 220.689C441.054 220.154 436.378 218.59 433.533 215.041C432.6 213.895 431.893 212.542 430.749 211.606C430.741 211.599 430.731 211.592 430.723 211.585C430.709 211.573 430.694 211.561 430.677 211.55C430.663 211.538 430.648 211.527 430.633 211.515C429.953 211.009 429.087 210.68 428.267 210.678H428.25C427.704 210.679 427.179 210.825 426.744 211.161C426.741 211.163 426.738 211.165 426.736 211.167C426.711 211.186 426.688 211.204 426.664 211.225C427.619 213.132 428.554 215.041 429.489 216.93C430.348 218.647 431.225 220.422 432.657 221.682C433.674 222.578 435.027 223.175 436.346 223.175C436.908 223.175 437.462 223.067 437.98 222.826C438.509 222.58 439.037 222.187 439.623 222.187C439.673 222.187 439.723 222.191 439.774 222.197C440.232 222.255 440.632 222.579 440.939 222.941C441.976 224.092 442.434 225.562 442.436 227.087C442.438 229.177 441.585 231.368 440.195 232.978C437.809 235.745 434.26 237.196 430.844 238.551C429.841 238.941 428.789 239.346 427.727 239.352H427.701C427.492 239.352 427.281 239.337 427.071 239.302C427.057 239.299 427.042 239.298 427.027 239.295C424.661 238.855 423.401 236.28 422.715 233.971C421.168 228.857 420.424 223.303 417.258 218.991C416.247 217.636 414.987 216.396 414.376 214.811C413.726 213.094 413.88 211.091 412.85 209.583C411.781 207.999 409.509 207.084 409.358 205.175C409.353 205.123 409.352 205.071 409.352 205.02C409.348 203.748 410.415 202.634 411.589 202.083C412.812 201.493 414.184 201.32 415.445 200.805C415.94 200.596 416.493 200.232 416.513 199.699C416.513 198.896 415.406 198.574 415.121 197.828C415.076 197.708 415.056 197.587 415.056 197.467C415.053 196.762 415.726 196.088 416.035 195.385C416.158 195.094 416.213 194.801 416.213 194.513C416.211 192.952 414.576 191.507 412.982 190.864C411.112 190.101 408.842 189.547 407.965 187.715C407.564 186.875 407.526 185.902 407.354 184.986C406.914 182.678 405.216 180.445 402.888 180.064C402.881 180.062 402.875 180.061 402.868 180.06C402.685 180.031 402.502 180.018 402.318 180.018H402.306C400.292 180.024 398.29 181.683 398.29 183.629C398.29 183.781 398.302 183.934 398.327 184.089C398.557 185.367 399.511 186.36 400.026 187.543C400.215 187.964 400.319 188.457 400.317 188.935C400.316 189.801 399.973 190.617 399.187 190.864C399.176 190.867 399.166 190.869 399.156 190.872C399.011 190.914 398.865 190.933 398.721 190.933H398.719C398.04 190.933 397.372 190.52 396.721 190.056C396.717 190.053 396.712 190.051 396.708 190.048C396.66 190.014 396.613 189.979 396.566 189.945C396.563 189.944 396.56 189.943 396.56 189.943C396.527 189.917 396.493 189.893 396.459 189.868C396.429 189.847 396.4 189.825 396.37 189.804C396.363 189.799 396.357 189.794 396.351 189.79C396.344 189.785 396.338 189.779 396.331 189.775C395.649 189.279 394.987 188.812 394.356 188.804H394.337C394.088 188.804 393.844 188.877 393.605 189.048C393.595 189.055 393.586 189.062 393.575 189.07C394.263 191.417 394.93 193.764 395.618 196.13C395.106 196.391 394.573 196.508 394.04 196.508H394.037C391.884 196.508 389.718 194.597 388.774 192.446C388.77 192.435 388.764 192.423 388.759 192.411C388.747 192.382 388.735 192.353 388.723 192.323C388.719 192.313 388.714 192.304 388.71 192.295C387.584 189.566 387.545 186.436 386.21 183.803C386.206 183.795 386.202 183.788 386.198 183.78C386.186 183.756 386.173 183.731 386.161 183.708C386.155 183.695 386.148 183.683 386.141 183.669L386.14 183.668C385.141 181.81 383.041 180.323 381.101 180.318H381.085C380.362 180.318 379.662 180.526 379.051 180.997C379.027 181.016 379.003 181.035 378.979 181.055C378.977 181.094 378.976 181.135 378.976 181.174C378.968 184.484 383.37 185.858 385.333 188.573C385.936 189.41 386.248 190.468 386.248 191.507C386.246 192.93 385.66 194.314 384.436 195.042C384.012 195.296 383.539 195.41 383.06 195.41H383.045C381.397 195.404 379.68 194.07 379.677 192.513C379.677 192.28 379.715 192.039 379.799 191.797C380.085 190.996 380.752 190.329 380.829 189.47C380.832 189.429 380.833 189.387 380.833 189.346C380.836 188.335 379.977 187.516 379.188 186.856C377.91 185.768 376.629 184.7 375.353 183.631C374.531 182.944 373.653 182.22 372.624 181.913C372.609 181.909 372.594 181.905 372.581 181.901C372.225 181.802 371.87 181.756 371.518 181.756H371.503C369.285 181.763 367.193 183.591 365.994 185.585C365.983 185.601 365.973 185.618 365.964 185.635C364.571 188.001 363.788 190.768 361.861 192.734C361.844 192.751 361.828 192.769 361.81 192.785C360.405 194.207 358.383 194.949 356.392 194.95H356.386C354.483 194.95 352.61 194.274 351.336 192.867C351.328 192.858 351.32 192.85 351.312 192.84C351.307 192.834 351.301 192.827 351.295 192.82C351.281 192.804 351.266 192.788 351.251 192.771C350.327 191.712 349.896 190.326 349.895 188.93C349.894 186.374 351.328 183.781 353.809 183.077C355.258 182.678 357.091 182.715 357.853 181.437C358.057 181.092 358.141 180.731 358.141 180.359C358.145 178.663 356.405 176.751 356.409 175.046C356.409 174.678 356.491 174.32 356.69 173.975C357.702 172.22 360.373 173.021 362.319 172.43C364.246 171.838 365.334 169.891 366.479 168.212C367.481 166.734 368.998 165.241 370.719 165.241C370.931 165.241 371.146 165.263 371.364 165.312C371.291 164.757 371.219 164.181 371.218 163.616C371.218 162.995 371.304 162.388 371.573 161.839C371.946 161.067 372.805 160.494 373.613 160.494C373.923 160.494 374.227 160.58 374.492 160.77C374.249 161.171 374.14 161.612 374.138 162.059C374.136 163.4 375.108 164.806 376.383 165.408C377.325 165.852 378.354 165.991 379.404 165.991C380.247 165.991 381.102 165.902 381.936 165.808C383.805 165.579 386.152 164.893 386.306 163.022C386.313 162.95 386.315 162.879 386.315 162.806C386.315 162.478 386.26 162.143 386.259 161.817C386.259 161.602 386.283 161.391 386.363 161.19C386.603 160.538 387.124 160.338 387.784 160.338C388.3 160.338 388.9 160.461 389.513 160.584C390.126 160.705 390.753 160.828 391.322 160.828C391.942 160.828 392.494 160.684 392.889 160.236C393.136 159.984 393.243 159.68 393.243 159.362C393.24 158.505 392.448 157.559 391.515 157.336C391.505 157.333 391.495 157.331 391.485 157.328C391.18 157.252 390.871 157.224 390.558 157.224H390.533C390.03 157.225 389.522 157.302 389.014 157.377C388.556 157.445 388.097 157.513 387.642 157.527C387.592 157.528 387.541 157.529 387.491 157.529H387.489C386.223 157.529 384.756 156.846 384.702 155.599C384.701 155.574 384.701 155.549 384.701 155.524C384.701 154.284 386.08 153.379 386.229 152.145C386.237 152.076 386.241 152.008 386.241 151.942C386.242 150.798 385.083 150.163 383.869 150.161H383.857C382.987 150.163 382.088 150.491 381.572 151.191C380.943 152.059 380.737 153.09 380.737 154.168C380.737 155.246 380.943 156.371 381.133 157.431C381.29 158.259 381.416 159.144 381.416 160.004C381.416 161.347 381.114 162.63 380.161 163.538C380.157 163.543 380.152 163.549 380.148 163.554L380.147 163.557C380.144 163.561 380.142 163.564 380.14 163.568C380.136 163.573 380.132 163.579 380.128 163.584L380.124 163.589C379.874 163.928 379.497 164.076 379.089 164.077H379.084C378.377 164.077 377.582 163.638 377.21 162.994L377.209 162.991C377.201 162.976 377.191 162.961 377.183 162.946C376.593 161.878 376.727 160.58 376.629 159.377C376.535 158.156 376.001 156.782 374.818 156.458C374.808 156.455 374.799 156.453 374.789 156.45L374.784 156.448C374.619 156.407 374.452 156.389 374.283 156.389L374.279 156.388C374.275 156.388 374.269 156.389 374.264 156.389C373.864 156.39 373.456 156.49 373.051 156.586C372.793 156.648 372.535 156.709 372.281 156.744C372.135 156.762 371.992 156.77 371.85 156.77C369.301 156.77 367.446 154.001 367.445 151.33C367.445 150.768 367.526 150.21 367.7 149.683C368.731 146.496 371.746 144.455 374.665 142.834C376.15 142.011 377.883 141.227 379.512 141.227C380.229 141.227 380.927 141.378 381.572 141.745C382.565 142.298 383.253 143.253 384.224 143.826C385.228 144.417 386.373 144.527 387.546 144.527C387.888 144.527 388.231 144.517 388.574 144.509C388.917 144.5 389.26 144.49 389.599 144.49C389.703 144.49 389.807 144.49 389.911 144.493C392.947 144.57 395.942 145.733 398.213 147.718C398.846 148.296 399.45 149.154 399.453 149.94C399.454 150.219 399.38 150.488 399.204 150.733C398.538 151.646 396.724 151.897 396.721 152.838C396.72 152.919 396.733 153.006 396.763 153.1C397.122 153.218 397.493 153.274 397.863 153.274C399.811 153.274 401.744 151.732 401.952 149.76C403.06 150.256 403.862 151.383 403.957 152.584C405.043 151.481 406.576 150.945 408.117 150.945C410.015 150.945 411.926 151.76 413.021 153.329C413.555 154.072 413.937 154.969 414.7 155.485C414.96 155.654 415.287 155.737 415.608 155.737C416.23 155.737 416.832 155.427 416.894 154.836C416.9 154.791 416.902 154.746 416.902 154.702C416.902 154.46 416.823 154.221 416.742 153.997C416.284 152.698 415.807 151.42 415.349 150.141C415.737 149.933 416.138 149.841 416.543 149.841C417.995 149.841 419.484 151.026 420.424 152.278C422.607 155.199 424.485 155.834 426.571 155.834C427.373 155.834 428.205 155.739 429.098 155.646C429.991 155.551 430.944 155.458 431.986 155.458C432.732 155.458 433.525 155.506 434.375 155.638C438.629 156.286 440.5 159.015 442.904 162.317C450.27 172.467 460.001 180.788 466.699 191.398C467.406 192.505 468.054 193.631 468.665 194.775V194.794C469.238 196.322 469.778 197.858 470.284 199.404C470.792 200.953 471.269 202.513 471.718 204.088C472.878 208.18 473.822 212.359 474.536 216.608C474.774 218.025 474.986 219.449 475.173 220.88C475.362 222.235 475.517 223.59 475.649 224.963C475.82 226.661 475.956 228.365 476.047 230.078C476.139 231.791 476.193 233.512 476.203 235.249C476.241 235.802 476.241 236.356 476.241 236.909C476.241 239.58 476.145 242.214 475.992 244.847V244.866C475.949 244.908 475.906 244.95 475.861 244.99C475.853 244.999 475.843 245.007 475.835 245.015C474.57 246.187 472.963 247.021 471.265 247.024H471.256Z" fill="#48A793"/>
<path d="M418.68 309.403C417.883 309.403 417.097 309.18 416.462 308.698C415.693 308.117 415.249 307.139 415.249 306.188C415.247 305.569 415.435 304.963 415.845 304.487C416.315 303.94 416.995 303.614 417.521 303.116C420.101 300.679 418.334 296.159 420.297 293.261C421.452 291.552 423.273 289.818 424.543 288.086C425.52 286.754 425.878 285.699 427.674 285.345C428.03 285.275 428.374 285.242 428.71 285.242C432.84 285.242 435.546 290.284 435.547 294.732C435.549 297.953 434.134 300.864 430.819 301.329C430.553 301.367 430.282 301.38 430.006 301.38H429.999C429.563 301.38 429.118 301.345 428.675 301.31C428.234 301.275 427.795 301.24 427.37 301.24H427.364C426.521 301.241 425.737 301.38 425.104 301.934C424.243 302.688 424.051 303.925 423.709 305.018C423.234 306.535 422.323 307.97 420.956 308.78C420.277 309.183 419.476 309.402 418.687 309.403H418.68Z" fill="#038064"/>
<mask id="mask0_71_7700" style="mask-type:luminance" maskUnits="userSpaceOnUse" x="235" y="116" width="242" height="242">
<path d="M355.611 357.472C422.196 357.472 476.173 303.494 476.173 236.91C476.173 170.325 422.196 116.348 355.611 116.348C289.027 116.348 235.049 170.325 235.049 236.91C235.049 303.494 289.027 357.472 355.611 357.472Z" fill="white"/>
</mask>
<g mask="url(#mask0_71_7700)">
<path d="M441.483 273.217H383.241V372.574H441.483V273.217Z" fill="#EDF2FA"/>
<path d="M392.681 300.059H388.587V368.569H392.681V300.059Z" fill="#C0D8FF"/>
<path d="M400.027 300.059H395.933V368.569H400.027V300.059Z" fill="#C0D8FF"/>
<path d="M407.373 300.059H403.279V368.569H407.373V300.059Z" fill="#C0D8FF"/>
<path d="M414.719 300.059H410.625V368.569H414.719V300.059Z" fill="#C0D8FF"/>
<path d="M421.703 300.059H417.609V368.569H421.703V300.059Z" fill="#C0D8FF"/>
<path d="M428.897 300.059H424.803V368.569H428.897V300.059Z" fill="#C0D8FF"/>
<path d="M436.243 300.059H432.148V368.569H436.243V300.059Z" fill="#C0D8FF"/>
<path d="M392.938 279.417H388.844V295.939H392.938V279.417Z" fill="#C0D8FF"/>
<path d="M400.284 279.417H396.189V295.939H400.284V279.417Z" fill="#C0D8FF"/>
<path d="M407.63 279.417H403.535V295.939H407.63V279.417Z" fill="#C0D8FF"/>
<path d="M414.976 279.417H410.881V295.939H414.976V279.417Z" fill="#C0D8FF"/>
<path d="M421.96 279.417H417.866V295.939H421.96V279.417Z" fill="#C0D8FF"/>
<path d="M429.153 279.417H425.06V295.939H429.153V279.417Z" fill="#C0D8FF"/>
<path d="M436.499 279.417H432.405V295.939H436.499V279.417Z" fill="#C0D8FF"/>
<path d="M441.483 273.217H383.241V372.574H441.483V273.217Z" fill="#EDF2FA"/>
<path d="M327.001 273.217H268.759V372.574H327.001V273.217Z" fill="#EDF2FA"/>
<path d="M392.681 300.059H388.587V368.569H392.681V300.059Z" fill="#C0D8FF"/>
<path d="M278.2 300.059H274.106V368.569H278.2V300.059Z" fill="#C0D8FF"/>
<path d="M400.027 300.059H395.933V368.569H400.027V300.059Z" fill="#C0D8FF"/>
<path d="M285.545 300.059H281.451V368.569H285.545V300.059Z" fill="#C0D8FF"/>
<path d="M407.373 300.059H403.279V368.569H407.373V300.059Z" fill="#C0D8FF"/>
<path d="M292.891 300.059H288.797V368.569H292.891V300.059Z" fill="#C0D8FF"/>
<path d="M414.719 300.059H410.625V368.569H414.719V300.059Z" fill="#C0D8FF"/>
<path d="M300.237 300.059H296.143V368.569H300.237V300.059Z" fill="#C0D8FF"/>
<path d="M421.703 300.059H417.609V368.569H421.703V300.059Z" fill="#C0D8FF"/>
<path d="M307.222 300.059H303.127V368.569H307.222V300.059Z" fill="#C0D8FF"/>
<path d="M428.897 300.059H424.803V368.569H428.897V300.059Z" fill="#C0D8FF"/>
<path d="M314.415 300.059H310.321V368.569H314.415V300.059Z" fill="#C0D8FF"/>
<path d="M436.243 300.059H432.148V368.569H436.243V300.059Z" fill="#C0D8FF"/>
<path d="M321.761 300.059H317.666V368.569H321.761V300.059Z" fill="#C0D8FF"/>
<path d="M392.938 279.417H388.844V295.939H392.938V279.417Z" fill="#C0D8FF"/>
<path d="M278.456 279.417H274.362V295.939H278.456V279.417Z" fill="#C0D8FF"/>
<path d="M400.284 279.417H396.189V295.939H400.284V279.417Z" fill="#C0D8FF"/>
<path d="M285.802 279.417H281.708V295.939H285.802V279.417Z" fill="#C0D8FF"/>
<path d="M407.63 279.417H403.535V295.939H407.63V279.417Z" fill="#C0D8FF"/>
<path d="M293.148 279.417H289.053V295.939H293.148V279.417Z" fill="#C0D8FF"/>
<path d="M414.976 279.417H410.881V295.939H414.976V279.417Z" fill="#C0D8FF"/>
<path d="M300.494 279.417H296.399V295.939H300.494V279.417Z" fill="#C0D8FF"/>
<path d="M421.96 279.417H417.866V295.939H421.96V279.417Z" fill="#C0D8FF"/>
<path d="M307.479 279.417H303.384V295.939H307.479V279.417Z" fill="#C0D8FF"/>
<path d="M429.153 279.417H425.06V295.939H429.153V279.417Z" fill="#C0D8FF"/>
<path d="M314.671 279.417H310.578V295.939H314.671V279.417Z" fill="#C0D8FF"/>
<path d="M436.499 279.417H432.405V295.939H436.499V279.417Z" fill="#C0D8FF"/>
<path d="M322.018 279.417H317.923V295.939H322.018V279.417Z" fill="#C0D8FF"/>
<path d="M386.339 258.225H324.22V447.771H386.339V258.225Z" fill="#EDF2FA"/>
<path d="M363.738 201.808H348.48V204.661H363.738V201.808Z" fill="#EDF2FA"/>
<path d="M357.237 179.199H354.808V202.64H357.237V179.199Z" fill="#EDF2FA"/>
<path d="M377.663 204.662H334.555V259.152H377.663V204.662Z" fill="#EDF2FA"/>
<path d="M344.205 211.377H339.925V255.404H344.205V211.377Z" fill="#C0D8FF"/>
<path d="M351.886 211.377H347.605V255.404H351.886V211.377Z" fill="#C0D8FF"/>
<path d="M359.566 211.377H355.285V255.404H359.566V211.377Z" fill="#C0D8FF"/>
<path d="M367.246 211.377H362.966V255.404H367.246V211.377Z" fill="#C0D8FF"/>
<path d="M374.549 211.377H370.269V255.404H374.549V211.377Z" fill="#C0D8FF"/>
<path d="M334.289 266.003H329.922V440.131H334.289V266.003Z" fill="#C0D8FF"/>
<path d="M342.124 266.003H337.757V440.131H342.124V266.003Z" fill="#C0D8FF"/>
<path d="M349.959 266.003H345.592V440.131H349.959V266.003Z" fill="#C0D8FF"/>
<path d="M357.793 266.003H353.426V440.131H357.793V266.003Z" fill="#C0D8FF"/>
<path d="M365.243 266.003H360.875V440.131H365.243V266.003Z" fill="#C0D8FF"/>
<path d="M372.916 266.003H368.548V440.131H372.916V266.003Z" fill="#C0D8FF"/>
<path d="M380.75 266.003H376.383V440.131H380.75V266.003Z" fill="#C0D8FF"/>
</g>
<path fill-rule="evenodd" clip-rule="evenodd" d="M149.801 277.064C149.801 281.541 146.172 285.17 141.695 285.17H132.568V188.829H141.695C146.172 188.829 149.801 192.458 149.801 196.934V277.064Z" fill="#0F8064"/>
<path fill-rule="evenodd" clip-rule="evenodd" d="M134.721 363.717V361.69H133.37V363.717" fill="#1EA788"/>
<path fill-rule="evenodd" clip-rule="evenodd" d="M134.721 357.768V353.843H133.37V357.768H134.721ZM134.721 349.919V345.993H133.37V349.919H134.721Z" fill="#1EA788"/>
<path fill-rule="evenodd" clip-rule="evenodd" d="M134.721 342.068V340.542L136.181 340.097L135.788 338.806L133.37 339.542V342.068H134.721Z" fill="#1EA788"/>
<path fill-rule="evenodd" clip-rule="evenodd" d="M139.912 338.961L143.643 337.825L143.25 336.532L139.519 337.668L139.912 338.961ZM147.375 336.687L151.106 335.551L150.713 334.259L146.981 335.396L147.375 336.687ZM154.837 334.415L158.568 333.278L158.175 331.986L154.444 333.122L154.837 334.415ZM162.301 332.142L166.032 331.006L165.639 329.713L161.908 330.849L162.301 332.142ZM169.763 329.868L173.494 328.732L173.101 327.441L169.37 328.577L169.763 329.868ZM177.225 327.597L180.957 326.458L180.563 325.168L176.832 326.304L177.225 327.597ZM184.688 325.322L188.42 324.186L188.026 322.893L184.295 324.031L184.688 325.322ZM192.151 323.05L195.883 321.914L195.488 320.621L191.757 321.757L192.151 323.05ZM199.614 320.778L203.345 319.64L202.952 318.348L199.219 319.484L199.614 320.778Z" fill="#1EA788"/>
<path fill-rule="evenodd" clip-rule="evenodd" d="M207.076 318.503L209.015 317.913L208.622 316.621L206.683 317.211" fill="#1EA788"/>
<path fill-rule="evenodd" clip-rule="evenodd" d="M209.437 319.734C210.778 319.324 211.535 317.906 211.127 316.564C210.717 315.222 209.299 314.466 207.957 314.874C206.615 315.282 205.859 316.702 206.267 318.044C206.675 319.385 208.095 320.141 209.437 319.734Z" fill="#1EA788"/>
<path fill-rule="evenodd" clip-rule="evenodd" d="M143.123 277.064C143.123 281.541 139.495 285.169 135.018 285.169H54.8327C52.6983 285.169 50.6503 284.321 49.14 282.812C47.6311 281.302 46.7827 279.254 46.7827 277.119V196.88C46.7827 194.746 47.6311 192.698 49.14 191.187C50.6503 189.678 52.6983 188.83 54.8327 188.83H135.018C139.495 188.83 143.123 192.459 143.123 196.935V277.064Z" fill="#1EA788"/>
<path d="M123.919 249.467C123.55 248.881 121.021 247.666 121.021 247.666C120.021 247.168 112.671 243.569 111.292 243.074C110.108 242.649 108.769 242.17 107.57 243.955C106.655 245.305 103.986 248.423 103.118 249.405C102.507 250.1 101.95 250.326 100.598 249.651C100.371 249.54 93.8247 246.742 89.3101 242.749C85.3064 239.212 82.5306 234.842 81.5247 233.123C80.9051 232.077 81.3092 231.591 82.0731 230.825C82.5439 230.365 84.6157 227.856 84.7823 227.616C85.1132 227.112 85.7016 225.906 85.7016 225.906C86.299 224.725 85.9281 223.699 85.5928 223.021C85.3552 222.555 81.5868 213.482 81.2271 212.627C80.1545 210.064 79.0087 209.931 77.9095 209.993C77.3765 210.031 72.3912 210.068 70.8013 211.794L70.5215 212.089C68.9626 213.739 65.7183 217.172 65.7183 223.812C65.7183 225.34 65.9625 226.945 66.4666 228.724C67.3926 231.926 69.2046 235.428 71.5985 238.63C71.6518 238.699 75.3002 243.764 77.1234 245.867C82.8948 252.509 89.4123 257.417 95.9876 259.986C104.388 263.27 107.974 264.018 110.011 264.018C110.901 264.018 112.778 263.568 113.184 263.528C115.749 263.299 121.851 260.119 123.132 256.548C124.347 253.175 124.369 250.224 123.919 249.467Z" fill="white"/>
<path fill-rule="evenodd" clip-rule="evenodd" d="M151.344 237.676H153.37V236.325H151.344" fill="#1EA788"/>
<path fill-rule="evenodd" clip-rule="evenodd" d="M157.28 237.676H161.188V236.325H157.28V237.676ZM165.097 237.676H169.007V236.325H165.097V237.676Z" fill="#1EA788"/>
<path fill-rule="evenodd" clip-rule="evenodd" d="M172.915 237.676H174.941V236.325H172.915" fill="#1EA788"/>
<path fill-rule="evenodd" clip-rule="evenodd" d="M174.814 239.539C176.216 239.539 177.354 238.403 177.354 236.999C177.354 235.597 176.216 234.461 174.814 234.461C173.412 234.461 172.274 235.597 172.274 236.999C172.274 238.403 173.412 239.539 174.814 239.539Z" fill="#1EA788"/>
<path fill-rule="evenodd" clip-rule="evenodd" d="M133.37 110.948V112.975H134.721V110.948" fill="#1EA788"/>
<path fill-rule="evenodd" clip-rule="evenodd" d="M133.37 116.897V120.822H134.721V116.897H133.37ZM133.37 124.748V128.672H134.721V124.748H133.37Z" fill="#1EA788"/>
<path fill-rule="evenodd" clip-rule="evenodd" d="M133.37 132.596V135.123L135.788 135.859L136.181 134.567L134.721 134.122V132.596H133.37Z" fill="#1EA788"/>
<path fill-rule="evenodd" clip-rule="evenodd" d="M139.519 136.995L143.25 138.131L143.643 136.84L139.912 135.702L139.519 136.995ZM146.981 139.269L150.713 140.405L151.106 139.112L147.375 137.976L146.981 139.269ZM154.444 141.541L158.175 142.678L158.568 141.385L154.837 140.249L154.444 141.541ZM161.908 143.814L165.639 144.95L166.032 143.659L162.301 142.521L161.908 143.814ZM169.37 146.088L173.101 147.224L173.494 145.931L169.763 144.795L169.37 146.088ZM176.832 148.36L180.563 149.496L180.957 148.205L177.225 147.069L176.832 148.36ZM184.295 150.634L188.026 151.77L188.42 150.477L184.688 149.341L184.295 150.634ZM191.757 152.906L195.488 154.043L195.883 152.75L192.151 151.614L191.757 152.906ZM199.219 155.179L202.951 156.316L203.345 155.024L199.614 153.887L199.219 155.179Z" fill="#1EA788"/>
<path fill-rule="evenodd" clip-rule="evenodd" d="M206.683 157.454L208.622 158.044L209.015 156.751L207.076 156.161" fill="#1EA788"/>
<path fill-rule="evenodd" clip-rule="evenodd" d="M207.957 159.79C209.299 160.2 210.717 159.443 211.126 158.102C211.534 156.76 210.778 155.34 209.436 154.932C208.095 154.523 206.675 155.28 206.267 156.621C205.859 157.963 206.614 159.382 207.957 159.79Z" fill="#1EA788"/>
<path fill-rule="evenodd" clip-rule="evenodd" d="M188.894 97.0556C188.894 101.533 185.264 105.161 180.788 105.161H171.66V8.82031H180.788C185.264 8.82031 188.894 12.4488 188.894 16.9257V97.0556Z" fill="#0F8064"/>
<path fill-rule="evenodd" clip-rule="evenodd" d="M182.215 97.0563C182.215 101.533 178.587 105.162 174.11 105.162H93.9248C91.7903 105.162 89.7424 104.313 88.2321 102.804C86.7231 101.294 85.8748 99.2461 85.8748 97.1116V16.8723C85.8748 14.7379 86.7231 12.6899 88.2321 11.1796C89.7424 9.67064 91.7903 8.82227 93.9248 8.82227H174.11C178.587 8.82227 182.215 12.4508 182.215 16.9277V97.0563Z" fill="#1EA788"/>
<path fill-rule="evenodd" clip-rule="evenodd" d="M188.894 457.074C188.894 461.551 185.264 465.18 180.788 465.18H171.66V368.839H180.788C185.264 368.839 188.894 372.467 188.894 376.944V457.074Z" fill="#0F8064"/>
<path fill-rule="evenodd" clip-rule="evenodd" d="M182.215 457.075C182.215 461.552 178.587 465.18 174.11 465.18H93.9248C91.7903 465.18 89.7424 464.332 88.2321 462.823C86.7231 461.313 85.8748 459.265 85.8748 457.13V376.891C85.8748 374.756 86.7231 372.708 88.2321 371.198C89.7424 369.689 91.7903 368.841 93.9248 368.841H174.11C178.587 368.841 182.215 372.469 182.215 376.946V457.075Z" fill="#1EA788"/>
<path d="M140.097 79.3317C141.755 76.2995 142.936 72.0381 143.626 67.2875H154.77C151.85 73.14 146.524 77.5876 140.097 79.3317ZM113.322 67.2875H124.465C125.155 72.0381 126.336 76.2995 127.994 79.3317C121.567 77.5876 116.242 73.14 113.322 67.2875ZM127.994 34.65C126.336 37.6822 125.155 41.9433 124.465 46.6935H113.322C116.242 40.8413 121.567 36.3925 127.994 34.65ZM154.77 46.6935H143.626C142.936 41.9433 141.755 37.6822 140.097 34.65C146.524 36.3925 151.85 40.8413 154.77 46.6935ZM144.07 50.5667H156.283C156.872 52.6063 157.19 54.7624 157.19 56.9901C157.19 59.219 156.872 61.3746 156.283 63.4146H144.07C144.251 61.3069 144.342 59.1473 144.342 56.9901C144.342 54.834 144.251 52.6745 144.07 50.5667ZM134.046 33.8455C135.074 33.8455 136.734 35.708 138.12 39.8678C138.79 41.8751 139.326 44.1831 139.715 46.6935H128.377C128.766 44.1823 129.302 41.8751 129.971 39.8678C131.358 35.708 133.017 33.8455 134.046 33.8455ZM110.901 56.9901C110.901 54.7624 111.217 52.6063 111.809 50.5667H124.022C123.84 52.6745 123.748 54.834 123.748 56.9901C123.748 59.1473 123.84 61.3069 124.022 63.4146H111.809C111.217 61.3735 110.901 59.219 110.901 56.9901ZM127.906 63.4146C127.719 61.3497 127.621 59.1948 127.621 56.9901C127.621 54.785 127.719 52.6316 127.906 50.5667H140.186C140.371 52.6316 140.469 54.785 140.469 56.9901C140.469 59.1948 140.371 61.3497 140.186 63.4146H127.906ZM134.046 80.1358C133.017 80.1358 131.358 78.2734 129.971 74.1135C129.302 72.1062 128.767 69.7979 128.377 67.2875H139.715C139.326 69.7979 138.79 72.105 138.12 74.1135C136.734 78.2734 135.074 80.1358 134.046 80.1358ZM159.559 65.8795C160.532 63.0942 161.063 60.1025 161.063 56.9901C161.063 53.8773 160.532 50.8868 159.559 48.1019C159.536 48.0185 159.507 47.9368 159.473 47.8585C155.721 37.4412 145.74 29.9727 134.046 29.9727C122.351 29.9727 112.37 37.4412 108.618 47.8585C108.584 47.9368 108.555 48.0185 108.532 48.1019C107.559 50.8868 107.028 53.8773 107.028 56.9901C107.028 60.1025 107.559 63.0942 108.532 65.8795C108.556 65.9628 108.584 66.0446 108.618 66.1228C112.371 76.5402 122.351 84.0087 134.046 84.0087C145.74 84.0087 155.721 76.5402 159.473 66.1228C159.507 66.0446 159.536 65.9628 159.559 65.8795Z" fill="white"/>
<path d="M148.435 417.997C146.49 417.997 144.91 416.419 144.91 414.474C144.91 412.528 146.49 410.948 148.435 410.948C150.382 410.948 151.959 412.528 151.959 414.474C151.959 416.419 150.382 417.997 148.435 417.997ZM134.12 417.997C132.172 417.997 130.594 416.419 130.594 414.474C130.594 412.528 132.172 410.948 134.12 410.948C136.065 410.948 137.643 412.528 137.643 414.474C137.643 416.419 136.065 417.997 134.12 417.997ZM119.804 417.997C117.857 417.997 116.278 416.419 116.278 414.474C116.278 412.528 117.857 410.948 119.804 410.948C121.749 410.948 123.326 412.528 123.326 414.474C123.326 416.419 121.749 417.997 119.804 417.997ZM148.29 394.798H119.804C112.778 394.798 107.028 400.546 107.028 407.572V420.494C107.028 427.52 112.778 433.268 119.804 433.268H141.068L145.117 438.51C145.958 439.599 147.653 439.403 148.226 438.154L150.565 433.052C156.513 431.967 161.064 426.741 161.064 420.494V407.572C161.064 400.546 155.315 394.798 148.29 394.798Z" fill="white"/>
<path fill-rule="evenodd" clip-rule="evenodd" d="M569.318 277.064C569.318 281.541 572.947 285.17 577.424 285.17H586.551V188.829H577.424C572.947 188.829 569.318 192.458 569.318 196.934V277.064Z" fill="#0F8064"/>
<path fill-rule="evenodd" clip-rule="evenodd" d="M584.398 363.717V361.69H585.749V363.717" fill="#1EA788"/>
<path fill-rule="evenodd" clip-rule="evenodd" d="M584.398 357.768V353.843H585.749V357.768H584.398ZM584.398 349.919V345.993H585.749V349.919H584.398Z" fill="#1EA788"/>
<path fill-rule="evenodd" clip-rule="evenodd" d="M584.398 342.068V340.542L582.938 340.097L583.331 338.806L585.749 339.542V342.068H584.398Z" fill="#1EA788"/>
<path fill-rule="evenodd" clip-rule="evenodd" d="M579.206 338.961L575.475 337.825L575.868 336.532L579.599 337.668L579.206 338.961ZM571.744 336.687L568.013 335.551L568.406 334.259L572.137 335.396L571.744 336.687ZM564.282 334.415L560.55 333.278L560.943 331.986L564.675 333.122L564.282 334.415ZM556.818 332.142L553.087 331.006L553.48 329.713L557.211 330.849L556.818 332.142ZM549.355 329.868L545.624 328.732L546.017 327.441L549.749 328.577L549.355 329.868ZM541.893 327.597L538.162 326.458L538.555 325.168L542.286 326.304L541.893 327.597ZM534.431 325.322L530.698 324.186L531.093 322.893L534.824 324.031L534.431 325.322ZM526.967 323.05L523.236 321.914L523.63 320.621L527.361 321.757L526.967 323.05ZM519.505 320.778L515.773 319.64L516.167 318.348L519.899 319.484L519.505 320.778Z" fill="#1EA788"/>
<path fill-rule="evenodd" clip-rule="evenodd" d="M512.042 318.503L510.104 317.913L510.497 316.621L512.436 317.211" fill="#1EA788"/>
<path fill-rule="evenodd" clip-rule="evenodd" d="M509.682 319.734C508.341 319.324 507.584 317.906 507.992 316.564C508.402 315.222 509.82 314.466 511.162 314.874C512.504 315.282 513.259 316.702 512.852 318.044C512.444 319.385 511.024 320.141 509.682 319.734Z" fill="#1EA788"/>
<path fill-rule="evenodd" clip-rule="evenodd" d="M575.995 277.064C575.995 281.541 579.624 285.169 584.101 285.169H664.286C666.42 285.169 668.468 284.321 669.979 282.812C671.488 281.302 672.336 279.254 672.336 277.119V196.88C672.336 194.746 671.488 192.698 669.979 191.187C668.468 189.678 666.42 188.83 664.286 188.83H584.101C579.624 188.83 575.995 192.459 575.995 196.935V277.064Z" fill="#1EA788"/>
<path fill-rule="evenodd" clip-rule="evenodd" d="M567.775 237.676H565.749V236.325H567.775" fill="#1EA788"/>
<path fill-rule="evenodd" clip-rule="evenodd" d="M561.839 237.676H557.931V236.325H561.839V237.676ZM554.021 237.676H550.112V236.325H554.021V237.676Z" fill="#1EA788"/>
<path fill-rule="evenodd" clip-rule="evenodd" d="M546.204 237.676H544.178V236.325H546.204" fill="#1EA788"/>
<path fill-rule="evenodd" clip-rule="evenodd" d="M544.305 239.539C542.902 239.539 541.765 238.403 541.765 236.999C541.765 235.597 542.902 234.461 544.305 234.461C545.707 234.461 546.844 235.597 546.844 236.999C546.844 238.403 545.707 239.539 544.305 239.539Z" fill="#1EA788"/>
<path fill-rule="evenodd" clip-rule="evenodd" d="M585.749 110.948V112.975H584.398V110.948" fill="#1EA788"/>
<path fill-rule="evenodd" clip-rule="evenodd" d="M585.749 116.897V120.822H584.398V116.897H585.749ZM585.749 124.748V128.672H584.398V124.748H585.749Z" fill="#1EA788"/>
<path fill-rule="evenodd" clip-rule="evenodd" d="M585.749 132.596V135.123L583.331 135.859L582.938 134.567L584.398 134.122V132.596H585.749Z" fill="#1EA788"/>
<path fill-rule="evenodd" clip-rule="evenodd" d="M579.599 136.995L575.868 138.131L575.475 136.84L579.206 135.702L579.599 136.995ZM572.137 139.269L568.406 140.405L568.013 139.112L571.744 137.976L572.137 139.269ZM564.675 141.541L560.943 142.678L560.55 141.385L564.282 140.249L564.675 141.541ZM557.211 143.814L553.48 144.95L553.087 143.659L556.818 142.521L557.211 143.814ZM549.749 146.088L546.017 147.224L545.624 145.931L549.355 144.795L549.749 146.088ZM542.286 148.36L538.555 149.496L538.162 148.205L541.893 147.069L542.286 148.36ZM534.824 150.634L531.093 151.77L530.698 150.477L534.431 149.341L534.824 150.634ZM527.361 152.906L523.63 154.043L523.236 152.75L526.967 151.614L527.361 152.906ZM519.899 155.179L516.168 156.316L515.773 155.024L519.505 153.887L519.899 155.179Z" fill="#1EA788"/>
<path fill-rule="evenodd" clip-rule="evenodd" d="M512.436 157.454L510.497 158.044L510.104 156.751L512.042 156.161" fill="#1EA788"/>
<path fill-rule="evenodd" clip-rule="evenodd" d="M511.162 159.79C509.82 160.2 508.402 159.443 507.992 158.102C507.584 156.76 508.341 155.34 509.682 154.932C511.024 154.523 512.444 155.28 512.852 156.621C513.259 157.963 512.504 159.382 511.162 159.79Z" fill="#1EA788"/>
<path fill-rule="evenodd" clip-rule="evenodd" d="M530.225 97.0556C530.225 101.533 533.854 105.161 538.331 105.161H547.459V8.82031H538.331C533.854 8.82031 530.225 12.4488 530.225 16.9257V97.0556Z" fill="#0F8064"/>
<path fill-rule="evenodd" clip-rule="evenodd" d="M536.903 97.0563C536.903 101.533 540.532 105.162 545.009 105.162H625.194C627.328 105.162 629.376 104.313 630.887 102.804C632.396 101.294 633.244 99.2461 633.244 97.1116V16.8723C633.244 14.7379 632.396 12.6899 630.887 11.1796C629.376 9.67064 627.328 8.82227 625.194 8.82227H545.009C540.532 8.82227 536.903 12.4508 536.903 16.9277V97.0563Z" fill="#1EA788"/>
<path fill-rule="evenodd" clip-rule="evenodd" d="M530.225 457.074C530.225 461.551 533.854 465.18 538.331 465.18H547.459V368.839H538.331C533.854 368.839 530.225 372.467 530.225 376.944V457.074Z" fill="#0F8064"/>
<path fill-rule="evenodd" clip-rule="evenodd" d="M536.903 457.075C536.903 461.552 540.532 465.18 545.009 465.18H625.194C627.328 465.18 629.376 464.332 630.887 462.823C632.396 461.313 633.244 459.265 633.244 457.13V376.891C633.244 374.756 632.396 372.708 630.887 371.198C629.376 369.689 627.328 368.841 625.194 368.841H545.009C540.532 368.841 536.903 372.469 536.903 376.946V457.075Z" fill="#1EA788"/>
<path d="M579.587 417.976C579.587 421.694 581.102 423.556 584.135 423.556C585.721 423.556 586.928 422.995 587.757 421.875C588.587 420.756 589.087 418.935 589.265 416.417L589.608 410.573C588.708 410.379 587.695 410.283 586.566 410.283C584.363 410.283 582.649 410.97 581.424 412.344C580.199 413.72 579.587 415.596 579.587 417.976ZM606.662 414.671C606.662 417.209 606.256 419.532 605.446 421.637C604.635 423.745 603.489 425.395 602.007 426.594C600.528 427.794 598.809 428.392 596.853 428.392C595.548 428.392 594.393 428.08 593.389 427.454C592.385 426.829 591.661 426.005 591.221 424.983H590.797C588.893 427.256 586.47 428.392 583.527 428.392C580.408 428.392 577.948 427.454 576.15 425.576C574.351 423.699 573.454 421.131 573.454 417.869C573.454 414.151 574.634 411.155 576.996 408.88C579.357 406.607 582.443 405.468 586.25 405.468C587.766 405.468 589.436 405.616 591.261 405.904C593.084 406.196 594.587 406.544 595.769 406.951L595.16 419.88C595.16 422.329 595.831 423.556 597.17 423.556C598.298 423.556 599.195 422.73 599.866 421.082C600.535 419.435 600.872 417.28 600.872 414.617C600.872 411.78 600.281 409.274 599.099 407.095C597.919 404.918 596.258 403.258 594.115 402.113C591.974 400.965 589.529 400.393 586.779 400.393C583.218 400.393 580.125 401.125 577.5 402.588C574.872 404.051 572.858 406.162 571.457 408.919C570.056 411.679 569.355 414.864 569.355 418.478C569.355 423.344 570.654 427.077 573.255 429.675C575.855 432.276 579.623 433.575 584.557 433.575C586.426 433.575 588.48 433.369 590.719 432.954C592.956 432.539 595.16 431.936 597.328 431.144V436.22C593.556 437.823 589.372 438.625 584.769 438.625C578.071 438.625 572.849 436.862 569.104 433.338C565.357 429.813 563.486 424.912 563.486 418.636C563.486 414.284 564.442 410.331 566.354 406.78C568.267 403.227 570.99 400.442 574.524 398.423C578.058 396.405 582.126 395.396 586.725 395.396C590.603 395.396 594.067 396.19 597.118 397.775C600.167 399.363 602.52 401.619 604.175 404.544C605.832 407.47 606.662 410.847 606.662 414.671Z" fill="white"/>
<path fill-rule="evenodd" clip-rule="evenodd" d="M605.219 50.1183C605.219 65.7389 591.283 79.3106 586.592 83.4359C585.724 84.1996 584.422 84.1996 583.554 83.4359C578.864 79.3106 564.927 65.7389 564.927 50.1183C564.927 38.9921 573.947 29.9727 585.073 29.9727C596.199 29.9727 605.219 38.9921 605.219 50.1183ZM599.953 50.1183C599.953 41.9005 593.291 35.2387 585.073 35.2387C576.855 35.2387 570.194 41.9005 570.194 50.1183C570.194 58.336 576.855 64.9979 585.073 64.9979C593.291 64.9979 599.953 58.336 599.953 50.1183Z" fill="white"/>
<path d="M649.985 222.983L625.141 236.784C624.997 236.865 624.833 236.908 624.668 236.908H624.542C624.376 236.908 624.213 236.865 624.066 236.784L599.225 222.983C598.753 222.722 598.584 222.126 598.845 221.654C599.108 221.182 599.702 221.013 600.174 221.274L624.604 234.846L649.033 221.274C649.507 221.013 650.103 221.182 650.362 221.654C650.626 222.126 650.456 222.722 649.985 222.983ZM649.163 218.088H600.046C597.708 218.088 595.813 219.983 595.813 222.321V251.68C595.813 254.018 597.708 255.913 600.046 255.913H649.163C651.502 255.913 653.398 254.018 653.398 251.68V222.321C653.398 219.983 651.502 218.088 649.163 218.088Z" fill="white"/>
<path d="M26.5696 133.731C28.7422 132.819 30.2887 130.577 30.3016 127.937C30.3145 124.477 27.6982 121.658 24.4523 121.644C21.2081 121.629 18.5679 124.422 18.5532 127.881C18.5403 130.547 20.0979 132.816 22.2944 133.731C13.2562 135.093 13.6649 144.92 13.6649 144.92L35.0426 145.017C35.0426 145.017 35.5305 135.084 26.5696 133.731Z" fill="white"/>
<path d="M24.3567 112.046C12.2069 112.046 2.32538 121.929 2.32538 134.077C2.32538 146.225 12.2069 156.109 24.3567 156.109C36.5046 156.109 46.3879 146.225 46.3879 134.077C46.3879 121.929 36.5046 112.046 24.3567 112.046ZM24.3567 158.434C10.9273 158.434 0 147.507 0 134.077C0 120.646 10.9273 109.721 24.3567 109.721C37.7861 109.721 48.7133 120.646 48.7133 134.077C48.7133 147.507 37.7861 158.434 24.3567 158.434Z" fill="white"/>
<path d="M661.856 133.731C664.029 132.819 665.576 130.577 665.588 127.937C665.601 124.477 662.985 121.658 659.739 121.644C656.495 121.629 653.855 124.422 653.84 127.881C653.827 130.547 655.385 132.816 657.581 133.731C648.543 135.093 648.952 144.92 648.952 144.92L670.329 145.017C670.329 145.017 670.817 135.084 661.856 133.731Z" fill="white"/>
<path d="M659.643 112.046C647.493 112.046 637.612 121.929 637.612 134.077C637.612 146.225 647.493 156.109 659.643 156.109C671.791 156.109 681.675 146.225 681.675 134.077C681.675 121.929 671.791 112.046 659.643 112.046ZM659.643 158.434C646.214 158.434 635.287 147.507 635.287 134.077C635.287 120.646 646.214 109.721 659.643 109.721C673.073 109.721 684 120.646 684 134.077C684 147.507 673.073 158.434 659.643 158.434Z" fill="white"/>
<path d="M51.442 329.734C53.5596 328.846 55.067 326.66 55.0796 324.087C55.0921 320.715 52.5421 317.968 49.3783 317.953C46.2163 317.939 43.6429 320.661 43.6286 324.033C43.616 326.632 45.1342 328.842 47.2751 329.734C38.4657 331.062 38.8641 340.64 38.8641 340.64L59.7005 340.735C59.7005 340.735 60.1761 331.053 51.442 329.734Z" fill="white"/>
<path d="M49.2854 308.599C37.4432 308.599 27.8119 318.232 27.8119 330.072C27.8119 341.912 37.4432 351.546 49.2854 351.546C61.1258 351.546 70.7589 341.912 70.7589 330.072C70.7589 318.232 61.1258 308.599 49.2854 308.599ZM49.2854 353.812C36.196 353.812 25.5454 343.161 25.5454 330.072C25.5454 316.981 36.196 306.332 49.2854 306.332C62.3748 306.332 73.0254 316.981 73.0254 330.072C73.0254 343.161 62.3748 353.812 49.2854 353.812Z" fill="white"/>
<path d="M654.849 329.736C656.966 328.848 658.474 326.662 658.486 324.089C658.499 320.717 655.949 317.969 652.785 317.955C649.623 317.941 647.05 320.663 647.035 324.035C647.023 326.634 648.541 328.844 650.682 329.736C641.872 331.064 642.271 340.642 642.271 340.642L663.107 340.737C663.107 340.737 663.583 331.055 654.849 329.736Z" fill="white"/>
<path d="M652.692 308.6C640.849 308.6 631.218 318.233 631.218 330.073C631.218 341.913 640.849 351.547 652.692 351.547C664.532 351.547 674.165 341.913 674.165 330.073C674.165 318.233 664.532 308.6 652.692 308.6ZM652.692 353.813C639.602 353.813 628.952 343.162 628.952 330.073C628.952 316.982 639.602 306.333 652.692 306.333C665.781 306.333 676.432 316.982 676.432 330.073C676.432 343.162 665.781 353.813 652.692 353.813Z" fill="white"/>
<path d="M359.382 446.049C361.792 445.038 363.507 442.55 363.522 439.621C363.536 435.784 360.634 432.657 357.033 432.641C353.435 432.624 350.506 435.723 350.489 439.56C350.475 442.517 352.203 445.034 354.639 446.049C344.614 447.56 345.067 458.46 345.067 458.46L368.781 458.568C368.781 458.568 369.322 447.55 359.382 446.049Z" fill="white"/>
<path d="M356.927 421.994C343.45 421.994 332.488 432.957 332.488 446.432C332.488 459.907 343.45 470.871 356.927 470.871C370.402 470.871 381.365 459.907 381.365 446.432C381.365 432.957 370.402 421.994 356.927 421.994ZM356.927 473.45C342.03 473.45 329.909 461.329 329.909 446.432C329.909 431.533 342.03 419.414 356.927 419.414C371.824 419.414 383.945 431.533 383.945 446.432C383.945 461.329 371.824 473.45 356.927 473.45Z" fill="white"/>
<path d="M359.381 27.1843C361.791 26.1734 363.507 23.6858 363.521 20.7571C363.535 16.9196 360.633 13.7928 357.033 13.7764C353.434 13.7601 350.505 16.8583 350.489 20.6958C350.475 23.6531 352.202 26.1693 354.639 27.1843C344.613 28.6957 345.067 39.5956 345.067 39.5956L368.78 39.7038C368.78 39.7038 369.321 28.6854 359.381 27.1843Z" fill="white"/>
<path d="M356.926 3.12927C343.449 3.12927 332.488 14.0925 332.488 27.5678C332.488 41.0431 343.449 52.0063 356.926 52.0063C370.402 52.0063 381.365 41.0431 381.365 27.5678C381.365 14.0925 370.402 3.12927 356.926 3.12927ZM356.926 54.5858C342.03 54.5858 329.908 42.4645 329.908 27.5678C329.908 12.669 342.03 0.549805 356.926 0.549805C371.823 0.549805 383.944 12.669 383.944 27.5678C383.944 42.4645 371.823 54.5858 356.926 54.5858Z" fill="white"/>
</svg>
