<svg width="60" height="60" viewBox="0 0 60 60" fill="none" xmlns="http://www.w3.org/2000/svg">
<path d="M0 11.8982C0 10.8444 0.854315 9.99007 1.90817 9.99007H26.1704C27.2243 9.99007 28.0786 10.8444 28.0786 11.8982V52.0178C28.0786 53.0717 27.2243 53.926 26.1704 53.926H1.90817C0.854315 53.926 0 53.0717 0 52.0178V11.8982Z" fill="#C7CFDD"/>
<path d="M4.01974 14.8824C4.01974 14.2419 4.53903 13.7226 5.17961 13.7226H10.9563C11.5969 13.7226 12.1162 14.2419 12.1162 14.8824V18.7617C12.1162 19.4022 11.5969 19.9215 10.9563 19.9215H5.17961C4.53903 19.9215 4.01974 19.4022 4.01974 18.7617V14.8824Z" fill="#83BEE9"/>
<path d="M15.9325 14.8824C15.9325 14.2419 16.4518 13.7226 17.0924 13.7226H22.8691C23.5097 13.7226 24.029 14.2419 24.029 14.8824V18.7617C24.029 19.4022 23.5097 19.9215 22.8691 19.9215H17.0924C16.4518 19.9215 15.9325 19.4022 15.9325 18.7617V14.8824Z" fill="#83BEE9"/>
<path d="M4.01974 26.993C4.01974 26.3524 4.53903 25.8331 5.17961 25.8331H10.9563C11.5969 25.8331 12.1162 26.3524 12.1162 26.993V30.8722C12.1162 31.5128 11.5969 32.032 10.9563 32.032H5.17961C4.53903 32.032 4.01974 31.5128 4.01974 30.8722V26.993Z" fill="#83BEE9"/>
<path d="M15.9699 26.993C15.9699 26.3524 16.4892 25.8331 17.1298 25.8331H22.9065C23.5471 25.8331 24.0664 26.3524 24.0664 26.993V30.8722C24.0664 31.5128 23.5471 32.032 22.9065 32.032H17.1298C16.4892 32.032 15.9699 31.5128 15.9699 30.8722V26.993Z" fill="#83BEE9"/>
<path d="M31.7673 11.8982C31.7673 10.8444 32.6216 9.99007 33.6754 9.99007H57.9377C58.9915 9.99007 59.8458 10.8444 59.8458 11.8982V52.0178C59.8458 53.0717 58.9915 53.926 57.9377 53.926H33.6754C32.6216 53.926 31.7673 53.0717 31.7673 52.0178V11.8982Z" fill="#C7CFDD"/>
<path d="M35.787 14.8824C35.787 14.2419 36.3063 13.7226 36.9469 13.7226H42.7236C43.3642 13.7226 43.8834 14.2419 43.8834 14.8824V18.7617C43.8834 19.4022 43.3642 19.9215 42.7236 19.9215H36.9469C36.3063 19.9215 35.787 19.4022 35.787 18.7617V14.8824Z" fill="#83BEE9"/>
<path d="M47.6998 14.8824C47.6998 14.2419 48.2191 13.7226 48.8596 13.7226H54.6364C55.2769 13.7226 55.7962 14.2419 55.7962 14.8824V18.7617C55.7962 19.4022 55.2769 19.9215 54.6364 19.9215H48.8596C48.2191 19.9215 47.6998 19.4022 47.6998 18.7617V14.8824Z" fill="#83BEE9"/>
<path d="M35.787 26.993C35.787 26.3524 36.3063 25.8331 36.9469 25.8331H42.7236C43.3642 25.8331 43.8834 26.3524 43.8834 26.993V30.8722C43.8834 31.5128 43.3642 32.032 42.7236 32.032H36.9469C36.3063 32.032 35.787 31.5128 35.787 30.8722V26.993Z" fill="#83BEE9"/>
<path d="M47.7372 26.993C47.7372 26.3524 48.2565 25.8331 48.8971 25.8331H54.6738C55.3143 25.8331 55.8336 26.3524 55.8336 26.993V30.8722C55.8336 31.5128 55.3143 32.032 54.6738 32.032H48.8971C48.2565 32.032 47.7372 31.5128 47.7372 30.8722V26.993Z" fill="#83BEE9"/>
<path d="M20.0614 0.7483C20.0614 0.335025 20.3964 0 20.8097 0H39.2017C39.615 0 39.95 0.335026 39.95 0.7483V3.99036H20.0614V0.7483Z" fill="#C7CFDD"/>
<path d="M15.8836 5.8985C15.8836 4.84465 16.7379 3.99033 17.7918 3.99033H42.0541C43.1079 3.99033 43.9622 4.84464 43.9622 5.89849V52.0178C43.9622 53.0717 43.1079 53.926 42.0541 53.926H17.7918C16.7379 53.926 15.8836 53.0717 15.8836 52.0178V5.8985Z" fill="#D6DAE1"/>
<path d="M19.9034 12.8897C19.9034 12.2491 20.4227 11.7298 21.0632 11.7298H26.8399C27.4805 11.7298 27.9998 12.2491 27.9998 12.8897V16.7689C27.9998 17.4095 27.4805 17.9288 26.8399 17.9288H21.0632C20.4227 17.9288 19.9034 17.4095 19.9034 16.7689V12.8897Z" fill="#93C4E8"/>
<path d="M31.8161 12.8897C31.8161 12.2491 32.3354 11.7298 32.976 11.7298H38.7527C39.3933 11.7298 39.9126 12.2491 39.9126 12.8897V16.7689C39.9126 17.4095 39.3933 17.9288 38.7527 17.9288H32.976C32.3354 17.9288 31.8161 17.4095 31.8161 16.7689V12.8897Z" fill="#93C4E8"/>
<path d="M19.9034 25.0002C19.9034 24.3596 20.4227 23.8403 21.0632 23.8403H26.8399C27.4805 23.8403 27.9998 24.3596 27.9998 25.0002V28.8794C27.9998 29.52 27.4805 30.0393 26.8399 30.0393H21.0632C20.4227 30.0393 19.9034 29.52 19.9034 28.8794V25.0002Z" fill="#93C4E8"/>
<path d="M31.8536 25.0002C31.8536 24.3596 32.3729 23.8403 33.0134 23.8403H38.7901C39.4307 23.8403 39.95 24.3596 39.95 25.0002V28.8794C39.95 29.52 39.4307 30.0393 38.7901 30.0393H33.0134C32.3729 30.0393 31.8536 29.52 31.8536 28.8794V25.0002Z" fill="#93C4E8"/>
<path d="M13.3868 48.9044C16.0346 48.2999 18.0103 45.9305 18.0103 43.0996C18.0103 40.2687 16.0346 37.8993 13.3868 37.2948C13.8147 37.1972 14.2601 37.1456 14.7175 37.1456C18.0058 37.1456 20.6715 39.8113 20.6715 43.0996C20.6715 46.3879 18.0058 49.0537 14.7175 49.0537C14.2601 49.0537 13.8147 49.0021 13.3868 48.9044Z" fill="#5B63D3"/>
<path d="M18.0103 43.0996C18.0103 45.9305 16.0346 48.2999 13.3868 48.9044C10.7391 48.2999 8.76345 45.9305 8.76345 43.0996C8.76345 40.2687 10.7391 37.8993 13.3868 37.2948C16.0346 37.8993 18.0103 40.2687 18.0103 43.0996Z" fill="#5B63D3"/>
<path fill-rule="evenodd" clip-rule="evenodd" d="M6.11637 53.3732C6.10694 53.4945 6.10216 53.6167 6.10216 53.7397V56.1288C6.10216 57.2446 7.00673 58.1492 8.12257 58.1492H21.5709C22.6867 58.1492 23.5913 57.2446 23.5913 56.1288V53.7397C23.5913 53.6763 23.59 53.613 23.5875 53.55C23.5863 53.5198 23.5848 53.4896 23.583 53.4594L23.5826 53.4536C23.581 53.4268 23.5791 53.3999 23.5771 53.3732C23.3164 50.0245 19.5074 47.3676 14.8467 47.3676C10.1861 47.3676 6.37703 50.0245 6.11637 53.3732Z" fill="#5B63D3"/>
<path d="M43.5393 48.9044C46.187 48.2999 48.1627 45.9305 48.1627 43.0996C48.1627 40.2687 46.187 37.8993 43.5393 37.2948C43.9671 37.1972 44.4125 37.1456 44.8699 37.1456C48.1583 37.1456 50.824 39.8113 50.824 43.0996C50.824 46.3879 48.1583 49.0537 44.8699 49.0537C44.4125 49.0537 43.9671 49.0021 43.5393 48.9044Z" fill="#5B63D3"/>
<path d="M48.1627 43.0996C48.1627 45.9305 46.187 48.2999 43.5393 48.9044C40.8915 48.2999 38.9159 45.9305 38.9159 43.0996C38.9159 40.2687 40.8915 37.8993 43.5393 37.2948C46.187 37.8993 48.1627 40.2687 48.1627 43.0996Z" fill="#5B63D3"/>
<path fill-rule="evenodd" clip-rule="evenodd" d="M36.2688 53.3732C36.2594 53.4945 36.2546 53.6167 36.2546 53.7397V56.1288C36.2546 57.2446 37.1592 58.1492 38.275 58.1492H51.7233C52.8391 58.1492 53.7437 57.2446 53.7437 56.1288V53.7397C53.7437 53.6763 53.7424 53.613 53.7399 53.55C53.7387 53.5198 53.7372 53.4896 53.7354 53.4594L53.735 53.4536C53.7334 53.4268 53.7316 53.3999 53.7295 53.3732C53.4688 50.0245 49.6598 47.3676 44.9991 47.3676C40.3385 47.3676 36.5295 50.0245 36.2688 53.3732Z" fill="#5B63D3"/>
<path d="M28.463 50.7552C31.1108 50.1507 33.0865 47.7813 33.0865 44.9504C33.0865 42.1195 31.1108 39.7501 28.463 39.1456C28.8909 39.048 29.3363 38.9964 29.7937 38.9964C33.082 38.9964 35.7478 41.6621 35.7478 44.9504C35.7478 48.2387 33.082 50.9045 29.7937 50.9045C29.3363 50.9045 28.8909 50.8529 28.463 50.7552Z" fill="#838AED"/>
<path d="M33.0865 44.9504C33.0865 47.7813 31.1108 50.1507 28.463 50.7552C25.8153 50.1507 23.8397 47.7813 23.8397 44.9504C23.8397 42.1195 25.8153 39.7501 28.463 39.1456C31.1108 39.7501 33.0865 42.1195 33.0865 44.9504Z" fill="#838AED"/>
<path fill-rule="evenodd" clip-rule="evenodd" d="M21.1926 55.224C21.1832 55.3453 21.1784 55.4675 21.1784 55.5905V57.9796C21.1784 59.0954 22.0829 60 23.1988 60H36.6471C37.7629 60 38.6675 59.0954 38.6675 57.9796V55.5905C38.6675 55.5271 38.6662 55.4638 38.6637 55.4008C38.6625 55.3706 38.661 55.3404 38.6592 55.3102L38.6588 55.3045C38.6572 55.2776 38.6553 55.2507 38.6533 55.224C38.3926 51.8754 34.5836 49.2184 29.9229 49.2184C25.2623 49.2184 21.4532 51.8754 21.1926 55.224Z" fill="#838AED"/>
</svg>
