<svg width="121" height="90" viewBox="0 0 121 90" fill="none" xmlns="http://www.w3.org/2000/svg">
<path d="M118.149 55.399C117.442 59.261 113.738 61.8182 109.876 61.1107C106.014 60.4035 103.456 56.6993 104.164 52.8373C104.871 48.9753 108.575 46.4182 112.437 47.1254C116.299 47.8328 118.856 51.5369 118.149 55.399Z" fill="#ECECEC"/>
<g opacity="0.1">
<path d="M112.438 47.1254C108.575 46.418 104.871 48.9751 104.164 52.8373C104.164 52.8373 109.037 53.957 110.582 52.1948C112.126 50.4326 112.438 47.1254 112.438 47.1254Z" fill="white"/>
</g>
<path d="M116.382 54.9609C115.844 57.8971 113.028 59.841 110.092 59.3032C107.156 58.7654 105.212 55.9498 105.75 53.0135C106.288 50.0775 109.104 48.1337 112.04 48.6715C114.976 49.2091 116.919 52.0248 116.382 54.9609Z" fill="#E4E8ED"/>
<path d="M116.491 55.2099C115.96 58.1062 113.183 60.0243 110.286 59.4935C107.389 58.9632 105.471 56.1851 106.002 53.2887C106.532 50.392 109.31 48.4741 112.207 49.0047C115.104 49.5352 117.021 52.3133 116.491 55.2099Z" fill="#F5F5F5"/>
<path d="M111.176 55.8137L111.392 54.6371C111.77 54.8231 112.034 55.0296 111.975 55.3553C111.923 55.6412 111.675 55.8293 111.176 55.8137ZM111.02 53.5933C110.655 53.4096 110.396 53.2109 110.454 52.8918C110.508 52.5993 110.751 52.3966 111.236 52.4099L111.02 53.5933ZM111.539 53.8327L111.785 52.4909C111.787 52.4911 111.789 52.4917 111.792 52.4921C112.02 52.5617 112.25 52.6682 112.471 52.8085C112.651 52.9484 112.766 53.0805 112.766 53.0805L112.792 53.0423L113.087 52.597L113.155 52.4947L112.962 52.1998L112.837 52.2305C112.571 52.0299 112.258 51.8534 111.917 51.7719L112.052 51.0338L111.856 50.8066L111.822 50.9918L111.507 50.9341L111.369 51.6852C110.314 51.595 109.714 52.0965 109.589 52.7747C109.42 53.6987 110.167 54.083 110.872 54.3977L110.629 55.727C110.132 55.588 109.669 55.3039 109.392 54.9784L108.97 55.5949C109.261 55.9574 109.853 56.2858 110.497 56.4452L110.395 57.0023L110.135 56.9592L110.362 57.183L110.907 57.2828L111.044 56.5382C112.107 56.6232 112.712 56.1294 112.837 55.4512C113.006 54.5272 112.244 54.1472 111.539 53.8327Z" fill="#E4E8ED"/>
<path d="M111.783 55.1318C111.843 54.8059 111.578 54.5996 111.2 54.4134L110.984 55.5902C111.483 55.6061 111.731 55.4177 111.783 55.1318ZM110.828 53.3694L111.044 52.1858C110.559 52.1725 110.316 52.3754 110.262 52.6679C110.204 52.987 110.463 53.1857 110.828 53.3694ZM110.852 56.3149L110.715 57.0597L110.17 56.9597L110.305 56.2217C109.661 56.0624 109.068 55.7341 108.777 55.3715L109.199 54.7547C109.476 55.0804 109.94 55.3645 110.437 55.5035L110.68 54.1737C109.975 53.8593 109.228 53.4748 109.397 52.5508C109.521 51.8726 110.122 51.3708 111.177 51.4611L111.315 50.71L111.86 50.8097L111.725 51.5477C112.212 51.6644 112.684 51.902 113 52.2006L112.605 52.8222C112.29 52.5514 111.938 52.3703 111.593 52.2657L111.347 53.6088C112.052 53.9235 112.814 54.3037 112.645 55.2277C112.521 55.906 111.915 56.3997 110.852 56.3149Z" fill="#ECECEC"/>
<path d="M104.601 56.3078C104.599 56.3084 104.591 56.2877 104.578 56.2478C104.564 56.2023 104.545 56.1442 104.523 56.0724C104.498 55.9963 104.471 55.9024 104.447 55.7915C104.422 55.6807 104.387 55.5558 104.367 55.4142C104.354 55.3436 104.342 55.2699 104.329 55.1929C104.316 55.116 104.31 55.0348 104.3 54.9516C104.277 54.7846 104.271 54.605 104.26 54.416C104.251 54.0379 104.267 53.6213 104.327 53.1885C104.391 52.7561 104.491 52.3514 104.606 51.9908C104.669 51.8124 104.725 51.6414 104.793 51.4878C104.827 51.4104 104.855 51.3343 104.889 51.264C104.923 51.1938 104.956 51.1266 104.987 51.0621C105.047 50.9319 105.115 50.8216 105.169 50.7223C105.223 50.6225 105.276 50.5401 105.321 50.4737C105.363 50.4112 105.396 50.3605 105.423 50.3209C105.447 50.2863 105.46 50.2685 105.461 50.2696C105.463 50.2706 105.453 50.2903 105.432 50.3266C105.408 50.3676 105.377 50.4201 105.338 50.4847C105.296 50.5524 105.247 50.6358 105.195 50.7369C105.143 50.837 105.078 50.9482 105.021 51.0786C104.99 51.1431 104.959 51.2105 104.926 51.2807C104.894 51.351 104.866 51.4271 104.834 51.5043C104.768 51.6579 104.713 51.8281 104.652 52.0058C104.541 52.3647 104.443 52.7667 104.379 53.1959C104.32 53.6256 104.303 54.0392 104.309 54.4147C104.318 54.6022 104.323 54.781 104.343 54.9469C104.353 55.03 104.358 55.1107 104.369 55.1874C104.381 55.2639 104.393 55.3375 104.404 55.4079C104.422 55.5491 104.453 55.674 104.476 55.7847C104.497 55.8959 104.521 55.9901 104.543 56.0669C104.561 56.1396 104.576 56.1985 104.588 56.2446C104.598 56.2854 104.602 56.3072 104.601 56.3078Z" fill="white"/>
<path d="M109.75 53.1903C109.746 53.1941 109.682 53.1345 109.623 53.0087C109.565 52.8851 109.52 52.6881 109.566 52.4782C109.612 52.2684 109.736 52.1084 109.841 52.0209C109.947 51.9313 110.03 51.9042 110.032 51.9093C110.036 51.9171 109.961 51.956 109.866 52.0486C109.772 52.1394 109.661 52.2933 109.618 52.4896C109.575 52.6858 109.61 52.872 109.658 52.9941C109.705 53.1182 109.757 53.185 109.75 53.1903Z" fill="white"/>
<path d="M111.309 51.372C111.295 51.3695 111.301 51.2693 111.323 51.1487C111.345 51.0279 111.375 50.9321 111.389 50.9348C111.404 50.9374 111.397 51.0374 111.375 51.158C111.353 51.279 111.324 51.3746 111.309 51.372Z" fill="white"/>
<path d="M112.545 48.6223C112.544 48.6257 112.483 48.612 112.375 48.5843C112.321 48.5697 112.255 48.5528 112.178 48.5378C112.1 48.5222 112.012 48.5 111.914 48.4862C111.815 48.4695 111.708 48.4518 111.591 48.4406C111.475 48.4247 111.35 48.419 111.219 48.4104C110.956 48.4002 110.667 48.4051 110.365 48.4361C110.063 48.47 109.779 48.5268 109.524 48.5925C109.397 48.6291 109.277 48.6612 109.167 48.7014C109.055 48.7369 108.954 48.7773 108.861 48.8145C108.768 48.8489 108.687 48.8891 108.614 48.921C108.542 48.9523 108.481 48.9827 108.431 49.0085C108.331 49.0586 108.275 49.0848 108.273 49.0816C108.272 49.0784 108.324 49.0461 108.421 48.9903C108.47 48.9616 108.53 48.9282 108.602 48.8941C108.673 48.8597 108.753 48.8168 108.847 48.7798C108.939 48.7401 109.04 48.6976 109.152 48.66C109.262 48.6175 109.384 48.5835 109.511 48.5454C109.768 48.4765 110.054 48.4178 110.359 48.3835C110.664 48.352 110.956 48.3486 111.222 48.3615C111.354 48.3717 111.48 48.3791 111.597 48.397C111.714 48.4102 111.822 48.43 111.921 48.4493C112.019 48.4657 112.107 48.4905 112.184 48.5091C112.262 48.5268 112.328 48.5467 112.381 48.5644C112.488 48.5985 112.546 48.6188 112.545 48.6223Z" fill="white"/>
<path d="M110.794 60.9052C110.794 60.9088 110.747 60.9126 110.663 60.9162C110.579 60.9206 110.456 60.92 110.305 60.9126C110.003 60.8982 109.586 60.8433 109.142 60.7143C108.698 60.5841 108.317 60.4062 108.055 60.2559C107.923 60.1809 107.82 60.1158 107.751 60.0665C107.682 60.0181 107.644 59.99 107.647 59.9871C107.648 59.9841 107.69 60.0063 107.762 60.0492C107.834 60.0928 107.94 60.1528 108.073 60.2229C108.337 60.3639 108.717 60.5347 109.157 60.6634C109.597 60.791 110.008 60.8515 110.308 60.8752C110.457 60.8872 110.579 60.8936 110.663 60.8955C110.747 60.8982 110.794 60.9016 110.794 60.9052Z" fill="white"/>
<path d="M118.505 27.7788C119.607 34.7235 114.87 41.2466 107.926 42.3488C100.981 43.4507 94.4578 38.7142 93.356 31.7695C92.254 24.8246 96.9901 18.3017 103.935 17.1998C110.88 16.0976 117.403 20.8339 118.505 27.7788Z" fill="#00A989"/>
<g opacity="0.1">
<path d="M103.936 17.1997C96.9906 18.3017 92.2543 24.8245 93.3565 31.7696C93.3565 31.7696 102.255 30.7628 103.816 26.867C105.377 22.9714 103.936 17.1997 103.936 17.1997Z" fill="white"/>
</g>
<path d="M115.259 28.0896C116.096 33.3694 112.496 38.328 107.217 39.1657C101.937 40.0036 96.9781 36.4031 96.1403 31.1233C95.3025 25.8438 98.9028 20.8852 104.183 20.0472C109.462 19.2094 114.421 22.8098 115.259 28.0896Z" fill="#00A989"/>
<g opacity="0.2">
<path d="M115.259 28.0896C116.097 33.3694 112.497 38.328 107.217 39.1657C101.937 40.0036 96.9791 36.4031 96.1413 31.1233C95.3035 25.8438 98.9037 20.8852 104.184 20.0472C109.463 19.2094 114.422 22.8098 115.259 28.0896Z" fill="black"/>
</g>
<path d="M115.592 28.4453C116.419 33.6539 112.867 38.546 107.658 39.3725C102.45 40.1991 97.5574 36.6467 96.7309 31.4384C95.9044 26.2298 99.4564 21.3374 104.665 20.5109C109.874 19.6846 114.766 23.2367 115.592 28.4453Z" fill="#00A989"/>
<g opacity="0.2">
<path d="M115.592 28.4458C116.419 33.6544 112.867 38.5465 107.658 39.373C102.45 40.1995 97.5574 36.6472 96.7309 31.4388C95.9044 26.2302 99.4564 21.3379 104.665 20.5113C109.874 19.685 114.766 23.2372 115.592 28.4458Z" fill="white"/>
</g>
<path d="M106.972 32.6271L106.637 30.5113C107.386 30.6007 107.956 30.792 108.049 31.3778C108.13 31.8918 107.824 32.357 106.972 32.6271ZM105.387 28.9693C104.661 28.8761 104.106 28.6946 104.015 28.1207C103.931 27.5949 104.221 27.1075 105.049 26.8415L105.387 28.9693ZM106.407 29.0648L106.024 26.6521C106.028 26.6512 106.032 26.6508 106.036 26.65C106.463 26.632 106.914 26.6749 107.371 26.7808C107.759 26.9095 108.032 27.0644 108.032 27.0644L108.052 26.9848L108.287 26.0569L108.341 25.8437L107.839 25.4603L107.647 25.5863C107.078 25.406 106.444 25.2942 105.819 25.3588L105.609 24.032L105.142 23.7646L105.195 24.0975L104.628 24.1876L104.843 25.5383C103.006 26.0136 102.29 27.2179 102.484 28.4371C102.747 30.0988 104.238 30.3036 105.617 30.4158L105.996 32.8065C105.074 32.867 104.123 32.6626 103.461 32.2775L103.115 33.5702C103.821 34.0095 105.018 34.2118 106.201 34.0977L106.36 35.0995L105.894 35.1817L106.411 35.4245L107.392 35.269L107.179 33.9301C109.026 33.441 109.755 32.2467 109.562 31.0274C109.298 29.3658 107.785 29.1769 106.407 29.0648Z" fill="#00A989"/>
<g opacity="0.3">
<path d="M106.972 32.6271L106.637 30.5113C107.386 30.6007 107.956 30.792 108.049 31.3778C108.13 31.8918 107.824 32.357 106.972 32.6271ZM105.387 28.9693C104.661 28.8761 104.106 28.6946 104.015 28.1207C103.931 27.5949 104.221 27.1075 105.049 26.8415L105.387 28.9693ZM106.407 29.0648L106.024 26.6521C106.028 26.6512 106.032 26.6508 106.036 26.65C106.463 26.632 106.914 26.6749 107.371 26.7808C107.759 26.9095 108.032 27.0644 108.032 27.0644L108.052 26.9848L108.287 26.0569L108.341 25.8437L107.839 25.4603L107.647 25.5863C107.078 25.406 106.444 25.2942 105.819 25.3588L105.609 24.032L105.142 23.7646L105.195 24.0975L104.628 24.1876L104.843 25.5383C103.006 26.0136 102.29 27.2179 102.484 28.4371C102.747 30.0988 104.238 30.3036 105.617 30.4158L105.996 32.8065C105.074 32.867 104.123 32.6626 103.461 32.2775L103.115 33.5702C103.821 34.0095 105.018 34.2118 106.201 34.0977L106.36 35.0995L105.894 35.1817L106.411 35.4245L107.392 35.269L107.179 33.9301C109.026 33.441 109.755 32.2467 109.562 31.0274C109.298 29.3658 107.785 29.1769 106.407 29.0648Z" fill="black"/>
</g>
<path d="M107.591 31.114C107.498 30.5281 106.929 30.3368 106.179 30.2472L106.515 32.3635C107.367 32.0934 107.673 31.6282 107.591 31.114ZM104.929 28.705L104.591 26.5768C103.764 26.8428 103.473 27.3304 103.557 27.8565C103.648 28.4303 104.204 28.6118 104.929 28.705ZM106.722 33.6666L106.934 35.006L105.954 35.1613L105.743 33.8342C104.56 33.9484 103.364 33.7459 102.656 33.3065L103.003 32.0137C103.665 32.399 104.616 32.6033 105.538 32.5429L105.159 30.1515C103.781 30.0395 102.289 29.8347 102.026 28.1729C101.832 26.9534 102.548 25.7487 104.385 25.2736L104.17 23.9226L105.151 23.7671L105.361 25.0941C106.254 25.0014 107.192 25.1223 107.904 25.4382L107.606 26.7236C106.913 26.4535 106.211 26.3565 105.566 26.3853L105.95 28.8003C107.328 28.9126 108.841 29.1015 109.105 30.7634C109.298 31.983 108.568 33.1774 106.722 33.6666Z" fill="#7BECDB"/>
<path d="M107.499 39.4929C107.499 39.4912 107.524 39.4842 107.575 39.472C107.63 39.4591 107.704 39.442 107.8 39.4198C107.9 39.3974 108.022 39.3701 108.166 39.338C108.31 39.3052 108.479 39.2756 108.66 39.2089C108.844 39.149 109.047 39.0829 109.269 39.0106C109.382 38.9793 109.493 38.9269 109.609 38.876C109.725 38.8251 109.846 38.7722 109.971 38.7175C110.094 38.6591 110.229 38.6143 110.355 38.5395C110.482 38.4683 110.613 38.3947 110.748 38.3191C110.882 38.2409 111.026 38.1718 111.161 38.08C111.295 37.9866 111.433 37.8909 111.574 37.7928C112.143 37.4069 112.695 36.8893 113.244 36.2994C113.37 36.142 113.499 35.9818 113.629 35.819C113.694 35.7373 113.762 35.6572 113.825 35.572C113.883 35.4834 113.941 35.3942 114 35.3044C114.116 35.1231 114.244 34.9458 114.354 34.7543C114.457 34.5588 114.561 34.3607 114.667 34.1602L114.747 34.0093C114.771 33.9577 114.791 33.9038 114.814 33.851C114.857 33.7449 114.901 33.6379 114.945 33.5306C114.989 33.4232 115.033 33.3152 115.078 33.2064C115.126 33.099 115.15 32.9823 115.187 32.8699C115.253 32.6418 115.33 32.4142 115.389 32.1794C115.436 31.9419 115.483 31.7018 115.53 31.4598C115.679 30.4844 115.69 29.4543 115.539 28.4174C115.361 27.3843 115.033 26.4077 114.589 25.5262C114.469 25.3108 114.35 25.0971 114.231 24.8856C114.103 24.6804 113.959 24.4878 113.826 24.2915C113.756 24.1959 113.697 24.0924 113.618 24.0051C113.542 23.9155 113.466 23.8265 113.391 23.738C113.316 23.6494 113.241 23.5615 113.167 23.474C113.129 23.4307 113.094 23.3856 113.054 23.344L112.932 23.2252C112.769 23.0673 112.609 22.9112 112.45 22.7573C112.286 22.6091 112.11 22.48 111.944 22.3435C111.86 22.2763 111.776 22.2097 111.694 22.1433C111.608 22.0818 111.518 22.0269 111.431 21.969C111.257 21.8546 111.085 21.7422 110.916 21.6314C110.211 21.2407 109.526 20.9194 108.866 20.7286C108.701 20.6791 108.541 20.6305 108.384 20.5834C108.227 20.5379 108.069 20.517 107.918 20.4836C107.766 20.4536 107.618 20.4242 107.476 20.3959C107.333 20.3638 107.191 20.3629 107.055 20.3456C106.919 20.3323 106.788 20.3194 106.662 20.3069C106.536 20.2945 106.414 20.279 106.297 20.2841C106.063 20.2841 105.85 20.2843 105.657 20.2843C105.464 20.2767 105.294 20.3008 105.147 20.3143C105.001 20.3285 104.876 20.3403 104.774 20.35C104.676 20.3585 104.6 20.3651 104.544 20.3701C104.492 20.3739 104.465 20.3752 104.465 20.3735C104.465 20.372 104.491 20.3676 104.542 20.3604C104.598 20.3532 104.674 20.3435 104.771 20.331C104.874 20.3188 104.998 20.3038 105.145 20.2864C105.292 20.2697 105.462 20.2427 105.656 20.2473C105.849 20.2448 106.064 20.242 106.299 20.2389C106.416 20.2325 106.538 20.2467 106.665 20.2579C106.792 20.2691 106.924 20.2807 107.061 20.293C107.197 20.309 107.34 20.3086 107.484 20.3397C107.628 20.3672 107.777 20.3955 107.93 20.4247C108.082 20.4568 108.242 20.4769 108.4 20.5214C108.558 20.5679 108.72 20.6157 108.885 20.6645C109.552 20.8526 110.244 21.1724 110.956 21.5636C111.127 21.6746 111.3 21.7872 111.477 21.9018C111.564 21.9599 111.655 22.015 111.742 22.0768C111.826 22.1433 111.91 22.2101 111.995 22.2775C112.163 22.4147 112.341 22.5445 112.507 22.6935C112.667 22.8484 112.83 23.0052 112.995 23.1641L113.118 23.2838C113.158 23.3256 113.194 23.3711 113.232 23.4146C113.307 23.5027 113.383 23.5913 113.459 23.6805C113.535 23.7697 113.612 23.8595 113.689 23.9495C113.768 24.0376 113.828 24.1421 113.899 24.2382C114.034 24.4363 114.18 24.6303 114.31 24.8374C114.429 25.0506 114.55 25.2662 114.672 25.4837C115.121 26.3733 115.454 27.3594 115.633 28.4026C115.785 29.4494 115.774 30.4901 115.622 31.4746C115.574 31.7191 115.526 31.9613 115.478 32.2012C115.419 32.4381 115.34 32.6678 115.273 32.8978C115.235 33.0113 115.211 33.129 115.162 33.2374C115.117 33.3469 115.072 33.4557 115.027 33.5642C114.983 33.6726 114.938 33.7802 114.894 33.8873C114.871 33.9406 114.851 33.9947 114.826 34.0467L114.746 34.1988C114.638 34.4009 114.532 34.6004 114.428 34.7974C114.316 34.9903 114.187 35.1687 114.07 35.3511C114.01 35.4416 113.95 35.5312 113.892 35.6204C113.828 35.706 113.759 35.7865 113.693 35.8689C113.561 36.0323 113.431 36.1933 113.303 36.3514C112.747 36.9441 112.188 37.4625 111.612 37.8476C111.47 37.9454 111.331 38.0407 111.195 38.1339C111.058 38.2255 110.913 38.2939 110.778 38.3717C110.641 38.4467 110.509 38.5197 110.38 38.5902C110.254 38.6644 110.117 38.7082 109.993 38.7659C109.866 38.8196 109.745 38.8715 109.627 38.9216C109.51 38.9717 109.398 39.0229 109.284 39.0533C109.06 39.1231 108.855 39.1869 108.67 39.2444C108.488 39.3088 108.318 39.3355 108.172 39.3655C108.028 39.3942 107.905 39.4185 107.804 39.4386C107.707 39.4568 107.632 39.4709 107.577 39.4815C107.525 39.4906 107.499 39.4946 107.499 39.4929Z" fill="#203E44"/>
<path d="M96.1581 37.3728C96.1555 37.3747 96.1299 37.3445 96.0841 37.2849C96.0329 37.2167 95.9674 37.1294 95.8865 37.0214C95.7998 36.9075 95.6975 36.7654 95.591 36.5921C95.483 36.4199 95.3507 36.2292 95.2313 36.0025C95.1689 35.8904 95.1036 35.7731 95.0358 35.6514C94.9686 35.5288 94.9098 35.3955 94.843 35.2606C94.7052 34.9924 94.5877 34.6925 94.458 34.3795C94.2177 33.7463 93.9977 33.0326 93.8406 32.2662C93.6914 31.4978 93.6206 30.7541 93.5997 30.0771C93.5993 29.7383 93.5929 29.4162 93.6172 29.1157C93.6272 28.9654 93.6301 28.8198 93.6451 28.6809C93.661 28.5423 93.6764 28.4089 93.691 28.2815C93.7142 28.0264 93.7633 27.7994 93.7969 27.599C93.8288 27.3983 93.8687 27.2277 93.9051 27.0893C93.9383 26.9587 93.9653 26.8528 93.9862 26.7701C94.0059 26.6974 94.0177 26.6598 94.0209 26.6607C94.0241 26.6615 94.0184 26.7008 94.0048 26.7748C93.9884 26.8583 93.9672 26.9652 93.941 27.0971C93.9104 27.2364 93.8759 27.4074 93.8493 27.6081C93.8205 27.8085 93.7766 28.0351 93.7576 28.2893C93.7451 28.4161 93.732 28.5488 93.7183 28.6869C93.7051 28.8253 93.7039 28.9701 93.6956 29.1195C93.6749 29.4183 93.6844 29.7383 93.687 30.0748C93.7128 30.7471 93.7855 31.4849 93.9338 32.2476C94.0896 33.0085 94.3054 33.7176 94.5396 34.3482C94.6664 34.6598 94.7803 34.9588 94.9143 35.2268C94.9792 35.3617 95.0358 35.495 95.1009 35.6176C95.1664 35.74 95.2296 35.8573 95.29 35.9697C95.405 36.1973 95.5325 36.3897 95.6358 36.5636C95.7377 36.7388 95.8351 36.8834 95.9169 37.0002C95.9915 37.1123 96.0522 37.2027 96.0995 37.2735C96.1403 37.3367 96.1606 37.3707 96.1581 37.3728Z" fill="white"/>
<path d="M103.001 29.0434C102.997 29.052 102.854 28.9895 102.68 28.8117C102.507 28.6378 102.315 28.3315 102.267 27.9498C102.221 27.5677 102.334 27.2241 102.46 27.0138C102.586 26.7993 102.71 26.7039 102.716 26.7113C102.729 26.7221 102.625 26.8324 102.519 27.0453C102.414 27.2551 102.318 27.581 102.361 27.9382C102.406 28.2954 102.577 28.5885 102.73 28.7667C102.883 28.948 103.011 29.0298 103.001 29.0434Z" fill="white"/>
<path d="M104.556 25.0438C104.53 25.048 104.481 24.8753 104.446 24.6582C104.412 24.4411 104.405 24.2616 104.431 24.2577C104.457 24.2534 104.506 24.4261 104.54 24.6433C104.575 24.8604 104.581 25.04 104.556 25.0438Z" fill="white"/>
<path d="M105.008 19.6645C105.008 19.6711 104.898 19.6838 104.699 19.7013C104.599 19.7087 104.477 19.7193 104.337 19.7402C104.196 19.7598 104.036 19.7746 103.861 19.8099C103.685 19.8402 103.492 19.874 103.289 19.9247C103.084 19.9668 102.869 20.0316 102.642 20.0948C102.192 20.2343 101.706 20.4146 101.214 20.6467C100.724 20.8836 100.278 21.1486 99.8871 21.4111C99.6952 21.5479 99.51 21.674 99.3481 21.8074C99.1808 21.9338 99.0335 22.0621 98.8995 22.18C98.7621 22.2939 98.6494 22.4097 98.5459 22.5065C98.4415 22.6027 98.3567 22.6906 98.2884 22.7635C98.1498 22.9075 98.0705 22.9852 98.0657 22.981C98.0606 22.9766 98.1304 22.8905 98.2612 22.7384C98.3256 22.6614 98.407 22.5693 98.5085 22.4691C98.6091 22.3681 98.719 22.248 98.8547 22.1301C98.9865 22.0082 99.1326 21.8761 99.2991 21.7459C99.4602 21.6087 99.6451 21.479 99.8374 21.339C100.229 21.0702 100.679 20.8001 101.173 20.5613C101.67 20.3267 102.162 20.147 102.617 20.0111C102.847 19.9494 103.064 19.8871 103.272 19.848C103.478 19.8002 103.672 19.7698 103.85 19.7438C104.027 19.7125 104.19 19.7021 104.331 19.6874C104.473 19.6715 104.596 19.666 104.696 19.6643C104.897 19.6582 105.008 19.658 105.008 19.6645Z" fill="white"/>
<path d="M109.355 41.4551C109.357 41.4612 109.281 41.4953 109.14 41.5515C109 41.6092 108.793 41.6808 108.534 41.758C108.015 41.9135 107.278 42.0689 106.451 42.1151C105.624 42.1593 104.874 42.0856 104.341 41.9875C104.075 41.9391 103.861 41.8905 103.716 41.8484C103.57 41.8076 103.491 41.7823 103.492 41.7759C103.494 41.7696 103.577 41.7829 103.724 41.8123C103.872 41.8433 104.086 41.8816 104.352 41.9213C104.884 42.0016 105.627 42.0642 106.446 42.0202C107.265 41.9744 107.996 41.8313 108.516 41.6935C108.776 41.6248 108.985 41.5635 109.128 41.5166C109.272 41.4712 109.352 41.449 109.355 41.4551Z" fill="white"/>
<path d="M118.505 27.7789C118.505 27.7789 118.489 27.7106 118.463 27.5766C118.433 27.4434 118.406 27.2416 118.341 26.9833C118.225 26.4643 118.015 25.7041 117.621 24.7729C117.416 24.3115 117.175 23.8023 116.854 23.2778C116.537 22.7515 116.162 22.1961 115.698 21.6487C114.779 20.5512 113.535 19.4475 111.943 18.5909C111.15 18.1606 110.268 17.8015 109.319 17.5401C108.37 17.2789 107.352 17.11 106.291 17.0882C105.231 17.0618 104.129 17.1601 103.03 17.4239C102.478 17.5454 101.932 17.7248 101.388 17.9256C100.846 18.1346 100.311 18.3844 99.7879 18.6695C97.704 19.8212 95.8403 21.65 94.6559 23.964C94.3543 24.5385 94.1068 25.1463 93.8955 25.7706C93.6835 26.3952 93.5227 27.0427 93.417 27.704C93.1927 29.0252 93.1955 30.4008 93.4032 31.7602C93.626 33.1177 94.0493 34.427 94.6713 35.6146C94.8212 35.9145 94.9945 36.1998 95.1638 36.486C95.3462 36.7639 95.5252 37.0427 95.7249 37.3054C96.1193 37.8337 96.5428 38.3355 97.0076 38.7884C98.8503 40.6227 101.189 41.7851 103.527 42.2353C104.114 42.3441 104.699 42.4164 105.279 42.4475C105.859 42.4697 106.434 42.4714 106.996 42.416C108.123 42.3264 109.201 42.0789 110.201 41.7255C111.203 41.3764 112.119 40.9002 112.94 40.3583C113.762 39.8156 114.489 39.2012 115.11 38.5464C116.358 37.239 117.199 35.8044 117.734 34.4763C118.006 33.812 118.191 33.1678 118.329 32.5695C118.471 31.9714 118.543 31.4128 118.595 30.9106C118.681 29.9035 118.646 29.1154 118.595 28.5862C118.577 28.3203 118.541 28.1202 118.528 27.9843C118.511 27.8488 118.505 27.7789 118.505 27.7789C118.505 27.7789 118.557 28.0545 118.614 28.5843C118.671 29.1137 118.712 29.9033 118.632 30.914C118.582 31.4179 118.513 31.9786 118.373 32.5794C118.237 33.1805 118.054 33.8279 117.783 34.4959C117.251 35.8314 116.41 37.2754 115.159 38.5929C114.536 39.2523 113.807 39.8718 112.981 40.4192C112.156 40.9659 111.235 41.4465 110.227 41.7997C109.222 42.1567 108.138 42.4075 107.003 42.4993C106.437 42.5557 105.859 42.5546 105.275 42.5329C104.691 42.5022 104.101 42.4301 103.511 42.3211C101.156 41.8703 98.7994 40.7013 96.9421 38.8546C96.4737 38.3985 96.047 37.8933 95.6497 37.3612C95.448 37.0966 95.2678 36.8157 95.0839 36.5356C94.9133 36.2476 94.7385 35.9601 94.5874 35.6579C93.9606 34.4619 93.5339 33.1425 93.3096 31.775C93.1002 30.4057 93.0976 29.0197 93.3238 27.6886C93.4305 27.0224 93.5928 26.37 93.8065 25.741C94.0197 25.1121 94.2691 24.4998 94.5733 23.9213C95.7676 21.591 97.6461 19.7506 99.7456 18.593C100.273 18.3064 100.811 18.0556 101.357 17.8457C101.906 17.6443 102.455 17.4642 103.011 17.3425C104.118 17.0787 105.226 16.9813 106.293 17.0096C107.36 17.0333 108.385 17.2051 109.338 17.4695C110.293 17.7343 111.178 18.0974 111.974 18.5317C113.573 19.3968 114.819 20.5095 115.739 21.6147C116.203 22.1661 116.578 22.7251 116.893 23.2545C117.213 23.7825 117.452 24.2944 117.655 24.7583C118.044 25.6945 118.25 26.4579 118.359 26.9793C118.469 27.5009 118.505 27.7789 118.505 27.7789Z" fill="#203E44"/>
<path d="M96.2809 13.3769C94.7124 17.5247 90.0781 19.6155 85.9303 18.0468C81.7821 16.4779 79.6915 11.8436 81.2603 7.69587C82.8292 3.54771 87.463 1.45696 91.6112 3.02585C95.759 4.59459 97.8498 9.22872 96.2809 13.3769Z" fill="#00A989"/>
<g opacity="0.1">
<path d="M91.6117 3.02631C87.4636 1.45748 82.8296 3.54813 81.2607 7.69626C81.2607 7.69626 86.4489 9.92831 88.5225 8.28318C90.5958 6.63804 91.6117 3.02631 91.6117 3.02631Z" fill="white"/>
</g>
<path d="M94.4064 12.5322C93.2138 15.6857 89.691 17.275 86.5378 16.0824C83.3842 14.8897 81.7949 11.3668 82.9875 8.21354C84.1802 5.05991 87.7029 3.47058 90.8564 4.66323C94.0098 5.85587 95.5991 9.3788 94.4064 12.5322Z" fill="#00A989"/>
<g opacity="0.2">
<path d="M94.4064 12.5322C93.2138 15.6857 89.691 17.275 86.5378 16.0824C83.3842 14.8897 81.7949 11.3668 82.9875 8.21354C84.1802 5.05991 87.7029 3.47058 90.8564 4.66323C94.0098 5.85587 95.5991 9.3788 94.4064 12.5322Z" fill="black"/>
</g>
<path d="M94.4771 12.8306C93.3007 15.9416 89.8251 17.5097 86.7139 16.333C83.6029 15.1566 82.0349 11.681 83.2116 8.56985C84.3883 5.45873 87.8636 3.89082 90.975 5.06737C94.0857 6.2439 95.6537 9.71952 94.4771 12.8306Z" fill="#00A989"/>
<g opacity="0.2">
<path d="M94.4771 12.8306C93.3007 15.9416 89.8251 17.5097 86.7139 16.333C83.6029 15.1566 82.0349 11.681 83.2116 8.56985C84.3883 5.45873 87.8636 3.89082 90.975 5.06737C94.0857 6.2439 95.6537 9.71952 94.4771 12.8306Z" fill="white"/>
</g>
<path d="M88.4487 12.425L88.9268 11.1611C89.3091 11.4445 89.5612 11.7275 89.4289 12.0775C89.3127 12.3844 88.9997 12.5435 88.4487 12.425ZM88.7247 9.92577C88.3563 9.64785 88.1088 9.37458 88.2384 9.03177C88.3572 8.71771 88.6687 8.54165 89.2053 8.65494L88.7247 9.92577ZM89.2535 10.2973L89.7984 8.85614C89.8009 8.85699 89.803 8.85804 89.8056 8.85868C90.0448 8.98231 90.2788 9.14717 90.496 9.34816C90.6681 9.54006 90.7691 9.7102 90.7691 9.7102L90.805 9.67279L91.2237 9.23805L91.3199 9.13808L91.1652 8.77118L91.0204 8.78005C90.7651 8.50319 90.4529 8.24386 90.0904 8.08387L90.3904 7.29132L90.2187 6.99902L90.1435 7.1979L89.8049 7.06983L89.4997 7.87675C88.3453 7.56248 87.5767 7.99807 87.3011 8.72637C86.9257 9.71886 87.6783 10.2973 88.398 10.7898L87.8578 12.2178C87.334 11.9625 86.8769 11.5529 86.6349 11.1351L86.041 11.7347C86.2906 12.1965 86.8826 12.6813 87.5661 12.9888L87.34 13.5874L87.0593 13.4868L87.2664 13.7814L87.8518 14.0029L88.1543 13.2031C89.3186 13.513 90.0917 13.0871 90.3671 12.3588C90.7425 11.3663 89.9729 10.7898 89.2535 10.2973Z" fill="#00A989"/>
<g opacity="0.3">
<path d="M88.4487 12.425L88.9268 11.1611C89.3091 11.4445 89.5612 11.7275 89.4289 12.0775C89.3127 12.3844 88.9997 12.5435 88.4487 12.425ZM88.7247 9.92577C88.3563 9.64785 88.1088 9.37458 88.2384 9.03177C88.3572 8.71771 88.6687 8.54165 89.2053 8.65494L88.7247 9.92577ZM89.2535 10.2973L89.7984 8.85614C89.8009 8.85699 89.803 8.85804 89.8056 8.85868C90.0448 8.98231 90.2788 9.14717 90.496 9.34816C90.6681 9.54006 90.7691 9.7102 90.7691 9.7102L90.805 9.67279L91.2237 9.23805L91.3199 9.13808L91.1652 8.77118L91.0204 8.78005C90.7651 8.50319 90.4529 8.24386 90.0904 8.08387L90.3904 7.29132L90.2187 6.99902L90.1435 7.1979L89.8049 7.06983L89.4997 7.87675C88.3453 7.56248 87.5767 7.99807 87.3011 8.72637C86.9257 9.71886 87.6783 10.2973 88.398 10.7898L87.8578 12.2178C87.334 11.9625 86.8769 11.5529 86.6349 11.1351L86.041 11.7347C86.2906 12.1965 86.8826 12.6813 87.5661 12.9888L87.34 13.5874L87.0593 13.4868L87.2664 13.7814L87.8518 14.0029L88.1543 13.2031C89.3186 13.513 90.0917 13.0871 90.3671 12.3588C90.7425 11.3663 89.9729 10.7898 89.2535 10.2973Z" fill="black"/>
</g>
<path d="M89.2614 11.7896C89.3937 11.4396 89.1415 11.1566 88.7592 10.8732L88.2811 12.1372C88.8321 12.2558 89.1454 12.0967 89.2614 11.7896ZM88.557 9.63762L89.0378 8.36636C88.5012 8.25329 88.1896 8.42934 88.0709 8.74362C87.9411 9.08643 88.1888 9.35949 88.557 9.63762ZM87.9867 12.9154L87.6841 13.7154L87.0987 13.4939L87.3983 12.7013C86.7148 12.3936 86.1229 11.9086 85.873 11.4468L86.4671 10.847C86.7089 11.265 87.1663 11.6746 87.69 11.9299L88.2302 10.5016C87.5106 10.0092 86.758 9.4305 87.1333 8.43801C87.4089 7.70949 88.1776 7.2739 89.3322 7.58818L89.6374 6.78125L90.2228 7.00253L89.9231 7.7953C90.4409 8.02377 90.9169 8.38327 91.2081 8.77912L90.6425 9.38971C90.3479 9.02513 89.9937 8.75249 89.6317 8.56651L89.086 10.009C89.8058 10.5016 90.5753 11.0784 90.2 12.0709C89.9244 12.7994 89.1511 13.2253 87.9867 12.9154Z" fill="#7BECDB"/>
<path d="M86.5899 16.3494C86.5903 16.3483 86.6065 16.3525 86.6383 16.3616C86.6723 16.372 86.7186 16.3857 86.7777 16.4035C86.8397 16.4227 86.9151 16.446 87.0037 16.4732C87.0931 16.5005 87.1947 16.5371 87.3148 16.5571C87.4338 16.5816 87.5659 16.6091 87.7102 16.6389C87.7819 16.6571 87.8588 16.663 87.9385 16.6717C88.0179 16.6801 88.1008 16.6888 88.1862 16.6981C88.272 16.7047 88.3601 16.7224 88.4523 16.7207C88.5442 16.7213 88.6391 16.7222 88.7365 16.723C88.8342 16.7218 88.9348 16.7292 89.0375 16.7211C89.1402 16.712 89.2454 16.7025 89.3532 16.693C89.7856 16.6596 90.2498 16.5487 90.7352 16.3976C90.8536 16.3509 90.9741 16.3033 91.0964 16.2551C91.1573 16.2304 91.2199 16.208 91.2807 16.1809C91.3403 16.1507 91.4003 16.1201 91.4606 16.0892C91.5806 16.0262 91.7062 15.9692 91.8262 15.8986C91.9439 15.8238 92.0629 15.7479 92.1838 15.6712L92.2745 15.6135C92.3041 15.593 92.3318 15.5695 92.3605 15.5477C92.4176 15.5031 92.4751 15.4583 92.5328 15.4133C92.5905 15.3683 92.6486 15.3229 92.7069 15.2774C92.7669 15.2337 92.8164 15.177 92.872 15.1271C92.9793 15.023 93.093 14.9226 93.1985 14.8122C93.2985 14.6966 93.3993 14.58 93.5012 14.4625C93.8877 13.9749 94.2157 13.414 94.4575 12.7989C94.6832 12.1776 94.8088 11.5399 94.8415 10.9184C94.843 10.7628 94.8447 10.6085 94.8462 10.4557C94.8403 10.3033 94.8214 10.1529 94.8098 10.0036C94.8012 9.92925 94.8016 9.85401 94.7855 9.78152C94.772 9.70881 94.7582 9.63632 94.7449 9.56446C94.7314 9.49239 94.7179 9.42075 94.7046 9.34973C94.6976 9.31423 94.6921 9.2783 94.6839 9.24343L94.6538 9.14008C94.6141 9.00249 94.575 8.8668 94.5363 8.73302C94.4928 8.6005 94.4366 8.47475 94.3884 8.34794C94.3635 8.28496 94.3387 8.2224 94.3142 8.16027C94.2863 8.09961 94.2544 8.04149 94.225 7.98252C94.1652 7.86543 94.1065 7.75004 94.0485 7.63676C93.7846 7.20201 93.5098 6.81186 93.2078 6.50076C93.1334 6.42214 93.0605 6.34542 92.9897 6.2706C92.918 6.19663 92.8377 6.13555 92.7652 6.07024C92.6917 6.0062 92.62 5.94407 92.5505 5.88383C92.4827 5.82149 92.4049 5.77668 92.3362 5.72469C92.266 5.67502 92.1982 5.62683 92.1329 5.58055C92.0676 5.53426 92.0061 5.48777 91.9401 5.45395C91.8123 5.38083 91.6952 5.31404 91.5895 5.2538C91.4864 5.18934 91.386 5.1494 91.301 5.11072C91.2165 5.07268 91.1446 5.04013 91.0854 5.0135C91.0292 4.98772 90.9855 4.96743 90.9531 4.95263C90.9235 4.93847 90.9085 4.93086 90.9088 4.92981C90.9092 4.92875 90.925 4.93467 90.9555 4.94672C90.9882 4.96045 91.0328 4.97884 91.0901 5.0023C91.1499 5.02766 91.2228 5.05852 91.3084 5.09466C91.3944 5.13165 91.4961 5.1699 91.6005 5.23309C91.7072 5.29227 91.8256 5.358 91.9551 5.42965C92.0217 5.46283 92.0841 5.5089 92.15 5.55476C92.2162 5.60063 92.2848 5.64839 92.3559 5.69764C92.4254 5.7492 92.504 5.7938 92.5729 5.85572C92.6433 5.91575 92.7158 5.97767 92.7904 6.0415C92.8637 6.10681 92.9449 6.16767 93.0176 6.24165C93.0894 6.31646 93.1632 6.39318 93.2387 6.4718C93.5449 6.78333 93.8237 7.17496 94.0917 7.61203C94.1504 7.72616 94.2102 7.84219 94.2709 7.96012C94.3007 8.0193 94.3332 8.07784 94.3615 8.13892C94.3865 8.20148 94.4116 8.26446 94.437 8.32786C94.486 8.45552 94.5433 8.58233 94.5875 8.7159C94.6268 8.85074 94.6667 8.98769 94.7073 9.12613L94.7377 9.23053C94.7462 9.26562 94.7517 9.30176 94.7589 9.33769C94.7726 9.40933 94.7864 9.48161 94.8001 9.55432C94.8138 9.62681 94.8278 9.69994 94.8417 9.77328C94.8578 9.84661 94.8578 9.92228 94.8667 9.9973C94.8787 10.148 94.898 10.2997 94.9041 10.4538C94.9028 10.6081 94.9015 10.7639 94.9001 10.9209C94.8679 11.5486 94.7416 12.1928 94.5135 12.8201C94.2694 13.4412 93.9378 14.0074 93.5468 14.4992C93.4437 14.6178 93.3416 14.7355 93.2406 14.852C93.134 14.9631 93.0191 15.0644 92.9104 15.1694C92.8542 15.2197 92.8041 15.2766 92.7435 15.3207C92.6845 15.3666 92.6257 15.4123 92.5674 15.4575C92.5091 15.5029 92.451 15.5479 92.3933 15.5927C92.3641 15.6147 92.3362 15.6382 92.3064 15.6589L92.2147 15.7168C92.0925 15.794 91.972 15.87 91.8533 15.9453C91.732 16.0161 91.6049 16.0734 91.4838 16.1365C91.4228 16.1674 91.3623 16.1978 91.3021 16.2283C91.2406 16.2553 91.1774 16.2777 91.1159 16.3025C90.9924 16.3506 90.8707 16.398 90.7513 16.4445C90.2612 16.595 89.793 16.7042 89.3575 16.7351C89.2488 16.744 89.1427 16.7528 89.0392 16.7613C88.9358 16.7687 88.8346 16.7607 88.7363 16.7611C88.6382 16.7594 88.5429 16.7579 88.4504 16.7564C88.3578 16.7573 88.2692 16.7387 88.183 16.7313C88.0972 16.7213 88.0141 16.7116 87.9342 16.7023C87.8543 16.693 87.777 16.6863 87.7051 16.667C87.5608 16.6351 87.4285 16.606 87.3093 16.5797C87.189 16.558 87.0876 16.5193 86.9986 16.4903C86.9105 16.4608 86.8354 16.4356 86.7737 16.4149C86.7154 16.3948 86.6697 16.379 86.6359 16.3676C86.6051 16.3566 86.5894 16.3504 86.5899 16.3494Z" fill="#203E44"/>
<path d="M81.0421 11.6409C81.04 11.6411 81.0355 11.6166 81.029 11.5697C81.0224 11.5162 81.0138 11.448 81.0034 11.3636C80.9916 11.274 80.98 11.1641 80.9757 11.0361C80.9705 10.908 80.9578 10.7621 80.9633 10.6007C80.9641 10.5197 80.965 10.435 80.966 10.3471C80.9675 10.2589 80.977 10.1676 80.9827 10.0729C80.9912 9.88294 81.0205 9.68195 81.0474 9.46996C81.1137 9.04811 81.2165 8.58822 81.3703 8.11945C81.5288 7.65195 81.7229 7.22249 81.923 6.84523C82.0289 6.65946 82.1261 6.48108 82.2335 6.32426C82.2859 6.245 82.3332 6.16617 82.3848 6.09473C82.4368 6.02393 82.4869 5.95567 82.5349 5.89036C82.6274 5.75806 82.7251 5.649 82.8062 5.54988C82.8865 5.44991 82.9618 5.36896 83.025 5.3045C83.0839 5.24321 83.1319 5.19376 83.1693 5.15508C83.2027 5.12147 83.2209 5.10457 83.2224 5.10605C83.2238 5.10731 83.2086 5.12718 83.178 5.16353C83.1429 5.20411 83.0979 5.25589 83.0423 5.31993C82.9819 5.38672 82.9096 5.46957 82.832 5.57122C82.7538 5.67183 82.6587 5.78215 82.5689 5.91551C82.5222 5.98103 82.4736 6.04972 82.4228 6.12094C82.3725 6.19259 82.3265 6.27163 82.2753 6.35089C82.1705 6.50792 82.0756 6.68609 81.9716 6.87123C81.7755 7.24743 81.5846 7.67435 81.4272 8.13826C81.2744 8.60386 81.1708 9.05974 81.1019 9.47842C81.0738 9.68871 81.0427 9.88801 81.0322 10.0767C81.0256 10.1708 81.0148 10.2615 81.0121 10.3492C81.01 10.4365 81.0076 10.5206 81.0055 10.6011C80.9973 10.7617 81.007 10.9067 81.0091 11.0344C81.0102 11.1622 81.0182 11.2719 81.0265 11.3615C81.0324 11.4461 81.0372 11.5145 81.041 11.5682C81.0438 11.6156 81.0442 11.6407 81.0421 11.6409Z" fill="white"/>
<path d="M87.3955 9.22014C87.3904 9.22352 87.3316 9.14448 87.2919 8.99273C87.2517 8.84352 87.2418 8.61547 87.3354 8.39165C87.4297 8.16805 87.5992 8.01524 87.7338 7.93937C87.8699 7.86117 87.9676 7.84785 87.9686 7.85377C87.972 7.86371 87.8807 7.89139 87.7564 7.97509C87.6328 8.05709 87.4787 8.20567 87.3906 8.4149C87.3031 8.62414 87.3052 8.83823 87.3333 8.98364C87.3606 9.13095 87.4048 9.2157 87.3955 9.22014Z" fill="white"/>
<path d="M89.4976 7.51591C89.4823 7.50988 89.5096 7.4 89.5585 7.27051C89.6075 7.14082 89.6598 7.04036 89.6752 7.04619C89.6905 7.05222 89.6635 7.16197 89.6143 7.29159C89.5652 7.42127 89.513 7.52174 89.4976 7.51591Z" fill="white"/>
<path d="M91.4281 4.71129C91.4262 4.71489 91.3618 4.68741 91.2474 4.63457C91.1904 4.60752 91.1204 4.5754 91.0371 4.54285C90.9541 4.50967 90.8613 4.4674 90.7544 4.4321C90.6487 4.39364 90.5326 4.352 90.4054 4.31607C90.2797 4.27486 90.1421 4.24316 89.9979 4.20702C89.708 4.14255 89.385 4.08929 89.0433 4.06245C88.7009 4.03899 88.3737 4.0447 88.0774 4.06605C87.9297 4.08084 87.7887 4.09204 87.6583 4.11445C87.5271 4.13135 87.4064 4.15545 87.2961 4.17806C87.1853 4.19751 87.0873 4.22583 87.0004 4.24654C86.9131 4.2664 86.8391 4.28796 86.7789 4.30656C86.658 4.34207 86.5904 4.35982 86.5889 4.35602C86.5874 4.352 86.6527 4.32685 86.7719 4.28437C86.8313 4.26239 86.9046 4.23745 86.9915 4.2142C87.0782 4.19032 87.176 4.15904 87.2872 4.13685C87.3975 4.11128 87.5188 4.08465 87.6507 4.06541C87.782 4.04068 87.9238 4.02737 88.0728 4.0111C88.3716 3.98637 88.7022 3.97897 89.0477 4.00285C89.3928 4.02969 89.7185 4.08528 90.0106 4.15333C90.1556 4.19138 90.294 4.22519 90.42 4.26873C90.5479 4.30698 90.6639 4.35116 90.7694 4.39258C90.8761 4.43083 90.9682 4.47606 91.0505 4.5122C91.1331 4.54792 91.202 4.58322 91.2576 4.61365C91.3694 4.67325 91.43 4.7077 91.4281 4.71129Z" fill="white"/>
<path d="M86.9918 18.0044C86.9912 18.0084 86.9388 18.0031 86.8443 17.99C86.7496 17.978 86.6137 17.9524 86.4474 17.9135C86.1149 17.8364 85.6624 17.6908 85.1951 17.4576C84.7281 17.223 84.3405 16.9479 84.0796 16.7279C83.949 16.618 83.8472 16.5243 83.7808 16.4559C83.7136 16.388 83.6779 16.3493 83.6808 16.3464C83.6836 16.3434 83.7248 16.3766 83.7967 16.4387C83.8677 16.5019 83.9731 16.5901 84.1063 16.6949C84.3722 16.9052 84.7596 17.1717 85.222 17.404C85.6846 17.635 86.1301 17.7854 86.4577 17.8725C86.6215 17.9163 86.7553 17.948 86.8483 17.9672C86.9413 17.9873 86.9924 18.0004 86.9918 18.0044Z" fill="white"/>
<path d="M96.2811 13.377C96.2811 13.377 96.2938 13.3345 96.3213 13.253C96.3466 13.1707 96.3948 13.0517 96.4396 12.8899C96.539 12.5695 96.6613 12.0872 96.737 11.454C96.7689 11.1371 96.7964 10.7831 96.7846 10.3953C96.7759 10.0081 96.7442 9.58669 96.6611 9.14181C96.5009 8.25309 96.1649 7.25954 95.5611 6.29241C95.2612 5.80863 94.8911 5.33648 94.4527 4.89624C94.0148 4.45643 93.5099 4.04536 92.9357 3.70149C92.3636 3.35573 91.7295 3.06491 91.0452 2.8654C90.7049 2.7593 90.3498 2.68702 89.9886 2.62658C89.6264 2.57141 89.2559 2.54119 88.8799 2.53358C87.3785 2.51245 85.7858 2.93092 84.4133 3.82767C84.0686 4.04789 83.7429 4.30341 83.4318 4.57922C83.1203 4.85503 82.8296 5.15937 82.565 5.48823C82.0289 6.14172 81.6 6.89602 81.2887 7.70548C80.9861 8.51854 80.8083 9.36795 80.7775 10.2129C80.7658 10.4241 80.7715 10.6346 80.7747 10.8442C80.7876 11.0535 80.7984 11.2621 80.8256 11.4685C80.8764 11.8811 80.9512 12.2884 81.0643 12.6817C81.4996 14.2628 82.4167 15.6308 83.5565 16.6087C83.8435 16.8518 84.1415 17.0745 84.4494 17.273C84.7603 17.4666 85.0744 17.6473 85.3996 17.7929C86.0449 18.0964 86.7128 18.298 87.3707 18.4172C88.0288 18.5394 88.6793 18.5652 89.2988 18.5252C89.9187 18.4853 90.5086 18.376 91.0534 18.2118C92.1461 17.8861 93.0555 17.3637 93.7638 16.8034C94.1203 16.5246 94.4229 16.2298 94.6857 15.9453C94.9511 15.6623 95.1648 15.3787 95.3503 15.12C95.7126 14.5954 95.94 14.1529 96.0776 13.8471C96.1511 13.6959 96.1936 13.5748 96.2291 13.4964C96.2625 13.4172 96.2811 13.377 96.2811 13.377C96.2811 13.377 96.223 13.544 96.0886 13.8521C95.9544 14.1598 95.7299 14.6052 95.3696 15.1333C95.1849 15.3939 94.9718 15.6794 94.7068 15.9646C94.4445 16.2511 94.1416 16.5485 93.7845 16.8296C93.0754 17.3945 92.1632 17.9225 91.0657 18.2522C90.5183 18.4187 89.9252 18.5299 89.3018 18.5713C88.6789 18.6127 88.0244 18.5878 87.362 18.4661C86.6996 18.3471 86.0273 18.1452 85.3777 17.8407C85.0499 17.6944 84.7335 17.5129 84.4205 17.3184C84.11 17.1189 83.8099 16.8951 83.5205 16.6506C82.3719 15.667 81.447 14.2898 81.0076 12.6975C80.8939 12.3013 80.818 11.8912 80.7669 11.4755C80.7394 11.2675 80.7284 11.0573 80.7153 10.8465C80.7119 10.6352 80.7062 10.4232 80.7181 10.2104C80.7489 9.35928 80.9279 8.50332 81.2327 7.68435C81.5463 6.86897 81.9786 6.10896 82.5188 5.45082C82.7857 5.11943 83.0786 4.81276 83.3923 4.53526C83.7059 4.25755 84.0339 4.00013 84.3814 3.77863C85.7644 2.87597 87.3688 2.45559 88.8808 2.47842C89.2593 2.48645 89.6323 2.51731 89.9971 2.5731C90.3604 2.6344 90.7178 2.70773 91.0602 2.8151C91.7488 3.01672 92.3864 3.31008 92.9615 3.65922C93.5387 4.00605 94.0459 4.4205 94.4857 4.8637C94.9255 5.30732 95.2967 5.78306 95.597 6.27001C96.2017 7.24369 96.5362 8.24294 96.6941 9.13589C96.7759 9.5831 96.8061 10.0062 96.8131 10.3949C96.8232 10.784 96.7941 11.1393 96.76 11.4567C96.6806 12.0914 96.5542 12.5737 96.4513 12.8934C96.3479 13.2134 96.2811 13.377 96.2811 13.377Z" fill="#203E44"/>
<path d="M101.012 89.7137C101.012 89.7137 105.774 90.6383 106.274 83.2443C106.773 75.8503 107.771 64.0361 107.771 64.0361H98.2434L89.9668 84.3494L95.3052 88.3405L101.012 89.7137Z" fill="#E4E8ED"/>
<path d="M60.9693 25.9458C59.1859 26.0272 57.5345 28.9848 57.3168 30.6037L50.1755 83.7405C49.7395 86.9847 52.553 89.8286 56.1305 89.7597L92.5462 89.7607C94.4388 89.7607 96.0214 88.4472 96.2019 86.7264L102.193 29.6203C102.407 27.5836 100.592 25.8482 98.3547 25.9501L60.9693 25.9458Z" fill="white"/>
<path d="M96.4686 83.2441L93.2686 89.7135H101.097C101.097 89.7135 95.8071 88.8994 96.4686 83.2441Z" fill="white"/>
<path d="M77.5851 40.8927H57.7651L58.6354 30.2759H78.3301L77.5851 40.8927Z" fill="#00A989"/>
<path d="M97.1406 32.7279C97.1394 32.7543 93.5915 32.7759 89.218 32.7759C84.8425 32.7759 81.2984 32.7543 81.3001 32.7279C81.302 32.7015 84.8488 32.6801 89.2239 32.6801C93.5972 32.6801 97.1421 32.7015 97.1406 32.7279Z" fill="#203E44"/>
<path d="M97.0283 34.6327C97.0268 34.6591 93.4751 34.6807 89.0964 34.6807C84.716 34.6807 81.1677 34.6591 81.1698 34.6327C81.1713 34.6063 84.7224 34.5847 89.1023 34.5847C93.4808 34.5847 97.0298 34.6063 97.0283 34.6327Z" fill="#203E44"/>
<path d="M96.916 36.5365C96.9145 36.5629 93.3588 36.5845 88.975 36.5845C84.59 36.5845 81.0376 36.5629 81.0393 36.5365C81.0412 36.5101 84.5961 36.4885 88.9812 36.4885C93.3645 36.4885 96.9175 36.5101 96.916 36.5365Z" fill="#203E44"/>
<path d="M90.4795 38.4408C90.4778 38.4672 88.3339 38.4888 85.6914 38.4888C83.0481 38.4888 80.9073 38.4672 80.9094 38.4408C80.9109 38.4144 83.0544 38.393 85.6977 38.393C88.34 38.393 90.4812 38.4144 90.4795 38.4408Z" fill="#203E44"/>
<path d="M97.1416 43.0409C97.1401 43.0673 88.3326 43.0889 77.4725 43.0889C66.6083 43.0889 57.8059 43.0673 57.808 43.0409C57.8101 43.0145 66.6155 42.9931 77.479 42.9931C88.3387 42.9931 97.1431 43.0145 97.1416 43.0409Z" fill="#203E44"/>
<path d="M97.0732 44.2142C97.0718 44.2406 88.3545 44.2622 77.6053 44.2622C66.8526 44.2622 58.1402 44.2406 58.1423 44.2142C58.1446 44.1878 66.8597 44.1663 77.6121 44.1663C88.3606 44.1663 97.0747 44.1878 97.0732 44.2142Z" fill="#203E44"/>
<path d="M96.8306 48.372H57.3723L57.5577 46.1069H96.9629L96.8306 48.372Z" fill="#E4E8ED"/>
<path d="M95.1864 69.1342H55.2424L55.4284 66.8691H95.3193L95.1864 69.1342Z" fill="#E4E8ED"/>
<path d="M72.412 57.9779H56.5856L56.7709 55.7129H72.5762L72.412 57.9779Z" fill="#E4E8ED"/>
<path d="M95.8417 57.9779H76.0548L76.2142 55.7129H95.9746L95.8417 57.9779Z" fill="#E4E8ED"/>
<path d="M80.0342 50.3734C80.0323 50.3998 74.961 50.4214 68.7084 50.4214C62.4536 50.4214 57.3865 50.3998 57.3886 50.3734C57.391 50.347 62.4612 50.3256 68.7156 50.3256C74.968 50.3256 80.0361 50.347 80.0342 50.3734Z" fill="#203E44"/>
<path d="M96.3887 52.1556C96.3872 52.1821 87.6124 52.2036 76.7923 52.2036C65.9683 52.2036 57.1986 52.1821 57.2007 52.1556C57.2028 52.1292 65.9757 52.1077 76.799 52.1077C87.6186 52.1077 96.3902 52.1292 96.3887 52.1556Z" fill="#203E44"/>
<path d="M96.2891 53.8441C96.2876 53.8705 87.5039 53.8921 76.6732 53.8921C65.8384 53.8921 57.0601 53.8705 57.062 53.8441C57.0641 53.8177 65.846 53.7961 76.6797 53.7961C87.5101 53.7961 96.2905 53.8177 96.2891 53.8441Z" fill="#203E44"/>
<path d="M72.1738 59.3602C72.1719 59.3866 68.6272 59.4082 64.2571 59.4082C59.8858 59.4082 56.3449 59.3866 56.347 59.3602C56.3493 59.3338 59.8932 59.3123 64.2645 59.3123C68.6342 59.3123 72.1757 59.3338 72.1738 59.3602Z" fill="#203E44"/>
<path d="M72.0479 61.0995C72.0459 61.1259 68.5564 61.1475 64.2548 61.1475C59.9515 61.1475 56.466 61.1259 56.4683 61.0995C56.4704 61.0731 59.9592 61.0517 64.2622 61.0517C68.5636 61.0517 72.0498 61.0731 72.0479 61.0995Z" fill="#203E44"/>
<path d="M71.8545 62.868C71.8526 62.8945 68.3294 62.916 63.9862 62.916C59.6415 62.916 56.1224 62.8945 56.1245 62.868C56.1268 62.8416 59.6491 62.8201 63.9936 62.8201C68.3366 62.8201 71.8564 62.8416 71.8545 62.868Z" fill="#203E44"/>
<path d="M71.7295 64.5848C71.7276 64.6113 68.2008 64.6328 63.8534 64.6328C59.5045 64.6328 55.9817 64.6113 55.9838 64.5848C55.9862 64.5584 59.5121 64.5369 63.8608 64.5369C68.208 64.5369 71.7314 64.5584 71.7295 64.5848Z" fill="#203E44"/>
<path d="M95.4316 59.7679C95.4302 59.7944 91.758 59.8159 87.2309 59.8159C82.7021 59.8159 79.0336 59.7944 79.0355 59.7679C79.0371 59.7415 82.7085 59.7202 87.237 59.7202C91.7639 59.7202 95.4331 59.7415 95.4316 59.7679Z" fill="#203E44"/>
<path d="M77.7385 60.3226C77.7326 60.3165 77.7345 60.1994 77.7398 60.0044C77.7455 59.8086 77.755 59.5368 77.7732 59.2133L77.8125 59.2547C77.4768 59.2566 77.093 59.2587 76.6834 59.261C76.672 59.2714 76.7819 59.1706 76.7354 59.2135V59.2137L76.7352 59.2143V59.2156L76.735 59.2179L76.7348 59.2226L76.7342 59.2321L76.7327 59.2511L76.7302 59.2889L76.7247 59.3642C76.7211 59.4141 76.7175 59.4635 76.7141 59.5125C76.7067 59.6102 76.6997 59.7059 76.6927 59.7993C76.6782 59.9839 76.6642 60.1588 76.6513 60.3226L76.612 60.2812C76.9411 60.2852 77.2173 60.2945 77.4158 60.3024C77.614 60.3102 77.7326 60.3165 77.7385 60.3226C77.7444 60.3288 77.637 60.3351 77.4399 60.3429C77.2431 60.3508 76.9546 60.3601 76.6063 60.3641L76.5645 60.3645L76.567 60.3226C76.5769 60.1588 76.5875 59.9839 76.5987 59.7993C76.6048 59.7059 76.6112 59.6102 76.6175 59.5125C76.6209 59.4635 76.6241 59.4141 76.6274 59.3642L76.6327 59.2889L76.6353 59.2511L76.6367 59.2321L76.6374 59.2226L76.6376 59.2179L76.6378 59.2156L76.638 59.2143V59.2135C76.5915 59.2562 76.7014 59.1549 76.6902 59.1653C77.0994 59.1676 77.483 59.1699 77.8182 59.1719L77.8609 59.1721L77.8575 59.2133C77.8296 59.555 77.8006 59.8378 77.7793 60.0308C77.7579 60.2237 77.7444 60.3288 77.7385 60.3226Z" fill="#203E44"/>
<path d="M95.3057 61.8988C95.3042 61.9252 91.6274 61.9468 87.0946 61.9468C82.5601 61.9468 78.8871 61.9252 78.8888 61.8988C78.8907 61.8724 82.5666 61.8508 87.1007 61.8508C91.6333 61.8508 95.3071 61.8724 95.3057 61.8988Z" fill="#203E44"/>
<path d="M77.5906 62.4535C77.5846 62.4474 77.5865 62.3303 77.5918 62.1352C77.5975 61.9395 77.6068 61.6677 77.6252 61.3441L77.6645 61.3856C77.3285 61.3875 76.9443 61.3896 76.534 61.3919C76.5226 61.4025 76.6327 61.3014 76.586 61.3443V61.3465L76.5854 61.3534L76.5835 61.382L76.5807 61.4198L76.5755 61.495C76.5719 61.5449 76.5683 61.5944 76.5647 61.6434C76.5575 61.741 76.5503 61.8368 76.5433 61.9302C76.5287 62.1147 76.515 62.2897 76.5019 62.4535L76.4626 62.4121C76.7923 62.4161 77.0687 62.4254 77.2674 62.4332C77.4659 62.441 77.5846 62.4474 77.5906 62.4535C77.5965 62.4596 77.4889 62.466 77.2915 62.4738C77.0945 62.4816 76.8056 62.4909 76.4569 62.4949L76.415 62.4953L76.4176 62.4535C76.4275 62.2897 76.4381 62.1147 76.4493 61.9302C76.4554 61.8368 76.4617 61.741 76.4681 61.6434C76.4715 61.5944 76.4746 61.5449 76.478 61.495L76.4833 61.4198L76.4858 61.382L76.4873 61.3629L76.488 61.3534L76.4882 61.3488L76.4884 61.3465L76.4886 61.3452V61.3443C76.4421 61.387 76.552 61.2858 76.5408 61.2962C76.9506 61.2985 77.3346 61.3008 77.6702 61.3027L77.7129 61.3029L77.7095 61.3441C77.6819 61.6859 77.6527 61.9687 77.6313 62.1616C77.61 62.3546 77.5965 62.4596 77.5906 62.4535Z" fill="#203E44"/>
<path d="M95.1807 64.0297C95.1792 64.0561 91.4977 64.0776 86.9592 64.0776C82.4192 64.0776 78.7414 64.0561 78.7433 64.0297C78.745 64.0032 82.4256 63.9817 86.9653 63.9817C91.5036 63.9817 95.1821 64.0032 95.1807 64.0297Z" fill="#203E44"/>
<path d="M77.4426 64.5844C77.4367 64.5782 77.4384 64.4611 77.4439 64.2661C77.4496 64.0704 77.4589 63.7986 77.4773 63.475L77.5166 63.5164C77.1801 63.5183 76.7953 63.5204 76.3848 63.5228C76.3732 63.5331 76.4835 63.4323 76.4368 63.4752V63.4761L76.4366 63.4773V63.4796L76.4362 63.4843L76.4355 63.4938L76.4341 63.5128L76.4315 63.5507L76.4262 63.6259C76.4227 63.6758 76.4191 63.7252 76.4155 63.7743C76.4083 63.8719 76.4011 63.9676 76.3941 64.0611C76.3795 64.2456 76.3656 64.4206 76.3527 64.5844L76.3134 64.5429C76.6433 64.547 76.9202 64.5563 77.119 64.5641C77.3177 64.5719 77.4367 64.5782 77.4426 64.5844C77.4485 64.5905 77.341 64.5968 77.1434 64.6047C76.946 64.6125 76.6568 64.6218 76.3075 64.6258L76.2656 64.6262L76.2682 64.5844C76.2781 64.4206 76.2887 64.2456 76.2999 64.0611C76.306 63.9676 76.3123 63.8719 76.3187 63.7743C76.3221 63.7252 76.3254 63.6758 76.3286 63.6259L76.3339 63.5507L76.3364 63.5128L76.3379 63.4938L76.3385 63.4843L76.3388 63.4796L76.339 63.4773L76.3392 63.4761V63.4752C76.2925 63.5179 76.4026 63.4167 76.3914 63.427C76.8016 63.4293 77.1863 63.4317 77.5223 63.4336L77.565 63.4338L77.5616 63.475C77.5339 63.8167 77.5048 64.0995 77.4836 64.2925C77.4621 64.4855 77.4485 64.5905 77.4426 64.5844Z" fill="#203E44"/>
<path d="M94.6055 73.797C94.604 73.8234 85.7977 73.8452 74.9389 73.8452C64.0762 73.8452 55.2748 73.8234 55.2772 73.797C55.2795 73.7706 64.0836 73.7491 74.9456 73.7491C85.8039 73.7491 94.6072 73.7706 94.6055 73.797Z" fill="#203E44"/>
<path d="M94.4521 76.4027C94.4507 76.4291 85.6311 76.4507 74.7556 76.4507C63.8764 76.4507 55.0617 76.4291 55.064 76.4027C55.0661 76.3763 63.8838 76.3547 74.7623 76.3547C85.6372 76.3547 94.4536 76.3763 94.4521 76.4027Z" fill="#203E44"/>
<path d="M94.2969 79.037C94.2954 79.0634 85.4621 79.085 74.5701 79.085C63.6742 79.085 54.846 79.0634 54.8481 79.037C54.8504 79.0106 63.6816 78.989 74.5768 78.989C85.4682 78.989 94.2984 79.0106 94.2969 79.037Z" fill="#203E44"/>
<path d="M59.1219 81.7412C59.0948 81.7411 59.2608 79.3677 59.493 76.4404C59.725 73.5123 59.9351 71.1391 59.962 71.1391C59.9892 71.1392 59.8232 73.5122 59.5911 76.4405C59.3594 79.3676 59.1493 81.741 59.1219 81.7412Z" fill="#203E44"/>
<path d="M72.5421 81.4224C72.515 81.4224 72.6549 79.1559 72.8546 76.361C73.0544 73.5648 73.2384 71.2989 73.2655 71.2989C73.2926 71.2989 73.1527 73.5648 72.9529 76.3608C72.7534 79.1559 72.5694 81.4225 72.5421 81.4224Z" fill="#203E44"/>
<path d="M86.6278 81.9005C86.6007 81.9005 86.7263 79.5629 86.9091 76.6798C87.0913 73.7953 87.2614 71.4582 87.2883 71.4582C87.3154 71.4582 87.1896 73.7954 87.0074 76.6796C86.825 79.5628 86.6551 81.9006 86.6278 81.9005Z" fill="#203E44"/>
<path d="M85.4639 84.0013C85.4622 84.0278 78.5331 84.0493 69.9892 84.0493C61.4425 84.0493 54.5178 84.0278 54.5202 84.0013C54.5223 83.9749 61.4498 83.9534 69.9961 83.9534C78.5395 83.9534 85.4656 83.9749 85.4639 84.0013Z" fill="#203E44"/>
<path d="M85.3662 85.5179C85.3645 85.5444 78.4293 85.5659 69.878 85.5659C61.3237 85.5659 54.3927 85.5444 54.3952 85.5179C54.3971 85.4915 61.3311 85.47 69.885 85.47C78.4359 85.47 85.3679 85.4915 85.3662 85.5179Z" fill="#203E44"/>
<path d="M68.377 87.0348C68.3751 87.0612 65.2152 87.0825 61.3207 87.0825C57.4245 87.0825 54.2688 87.0612 54.2709 87.0348C54.2731 87.0083 57.4321 86.9868 61.3281 86.9868C65.2224 86.9868 68.3789 87.0083 68.377 87.0348Z" fill="#203E44"/>
<path d="M62.8568 34.059H61.1299L61.1954 33.2422H65.6149L65.5515 34.059H63.8244L63.4797 38.4409H62.5096L62.8568 34.059Z" fill="white"/>
<path d="M68.8959 36.4803L68.085 34.2076L66.9355 36.4803H68.8959ZM69.1595 37.2379H66.5491L65.9417 38.4409H64.9414L67.6898 33.2422H68.6421L70.6062 38.4409H69.5911L69.1595 37.2379Z" fill="white"/>
<path d="M74.2998 38.4411L73.0262 36.4655L71.4785 38.4411H70.374L72.5091 35.7896L70.866 33.2422H71.9596L73.1564 35.0915L74.6084 33.2422H75.6573L73.652 35.7526L75.4193 38.4411H74.2998Z" fill="white"/>
<path d="M83.4676 25.8931L79.1204 71.8239C78.8653 74.3928 80.8831 76.6209 83.4645 76.6209C85.6469 76.6209 87.494 75.0089 87.7897 72.8466L92.3307 25.899L83.4676 25.8931Z" fill="#E4E8ED"/>
<path d="M42.5422 7.75732C41.2572 7.75732 40.1774 8.72255 40.0339 9.99952L33.7543 69.4446C33.3183 72.9963 35.6552 76.746 39.2327 76.6706L78.9858 76.6721L86.3676 10.5361C86.5318 9.07403 85.4345 7.75732 83.9631 7.75732H42.5422Z" fill="white"/>
<path d="M79.5283 70.8776L78.9864 76.5328L83.4108 76.6722L84.3902 76.5329C84.3902 76.5329 78.8668 76.5328 79.5283 70.8776Z" fill="white"/>
<path d="M91.7988 32.7763C91.7988 32.7763 91.8709 25.5904 98.1169 25.903L92.2017 25.8931L91.7988 32.7763Z" fill="#E4E8ED"/>
<path d="M97.8878 25.9029C97.8878 25.9029 97.8001 25.9061 97.6291 25.9071C97.5438 25.9088 97.4374 25.9046 97.3113 25.9112C97.1847 25.9202 97.0384 25.9306 96.8725 25.9422C96.5434 25.987 96.1317 26.039 95.6701 26.1956C95.2088 26.3455 94.6933 26.5847 94.1892 26.9656C93.6902 27.3511 93.2117 27.8799 92.8254 28.5443C92.4401 29.2086 92.1434 30.0001 91.9656 30.8791C91.9221 31.0989 91.8849 31.3242 91.8583 31.5544C91.8365 31.7856 91.8143 32.0206 91.7917 32.2592C91.7439 32.7375 91.6947 33.2308 91.644 33.7386C91.5423 34.7542 91.4349 35.8274 91.3221 36.9545C90.4124 45.9732 89.1562 58.4279 87.7689 72.1846C87.7188 72.614 87.7004 73.0439 87.6072 73.4717C87.5168 73.8976 87.3538 74.3067 87.1285 74.6768C86.676 75.4197 85.9741 75.9776 85.2021 76.3291C84.4271 76.6848 83.5681 76.8197 82.738 76.7947C81.9088 76.7945 81.0865 76.7945 80.2715 76.7943C77.0113 76.7932 73.8664 76.7922 70.8705 76.7911C64.8795 76.7867 59.4842 76.7827 54.9524 76.7793C50.4228 76.7719 46.757 76.766 44.221 76.7617C42.9557 76.7573 41.9725 76.7537 41.3034 76.7514C40.9713 76.7491 40.7177 76.7472 40.5446 76.7459C40.3736 76.7442 40.2861 76.7404 40.2861 76.7404C40.2861 76.7404 40.3736 76.7366 40.5446 76.7347C40.7177 76.7334 40.9713 76.7317 41.3034 76.7292C41.9725 76.7269 42.9557 76.7235 44.221 76.7188C46.757 76.7148 50.4228 76.7089 54.9524 76.7015C59.4842 76.6981 64.8795 76.6941 70.8705 76.6897C73.8664 76.6886 77.0113 76.6876 80.2715 76.6865C81.0865 76.6863 81.9088 76.6861 82.738 76.6859C83.562 76.7102 84.397 76.5774 85.1566 76.2296C85.9118 75.8855 86.5961 75.3402 87.0347 74.6195C87.2534 74.2602 87.4117 73.8629 87.4996 73.448C87.5901 73.0355 87.61 72.6001 87.6594 72.1717C89.0594 58.4178 90.3268 45.9653 91.2445 36.9486C91.3599 35.8219 91.47 34.7487 91.5742 33.7336C91.6262 33.2259 91.6769 32.7328 91.726 32.2546C91.7494 32.0149 91.7725 31.779 91.7951 31.547C91.8226 31.3149 91.8606 31.0881 91.9054 30.8668C92.0872 29.9824 92.389 29.1862 92.7802 28.5179C93.1724 27.8494 93.6579 27.3179 94.1632 26.9313C94.6736 26.5498 95.1948 26.3119 95.6602 26.1646C96.1256 26.0101 96.5396 25.9617 96.8704 25.9202C97.0367 25.9105 97.1836 25.9018 97.3106 25.8945C97.4372 25.8896 97.5438 25.8957 97.6293 25.8957C97.8003 25.8987 97.8878 25.9029 97.8878 25.9029Z" fill="#203E44"/>
<path d="M40.0049 9.82295L39.6416 13.351L86.0273 13.4497L86.3679 10.397C86.556 8.92282 85.4074 7.61816 83.9212 7.61816H42.5088C41.2383 7.61816 40.1657 8.56268 40.0049 9.82295Z" fill="#E4E8ED"/>
<path d="M45.2256 10.3955C45.2256 11.0847 44.6668 11.6436 43.9776 11.6436C43.2884 11.6436 42.7296 11.0847 42.7296 10.3955C42.7296 9.70634 43.2884 9.14753 43.9776 9.14753C44.6668 9.14753 45.2256 9.70634 45.2256 10.3955Z" fill="white"/>
<path d="M48.8867 10.3955C48.8867 11.0847 48.3279 11.6436 47.6387 11.6436C46.9495 11.6436 46.3907 11.0847 46.3907 10.3955C46.3907 9.70634 46.9495 9.14753 47.6387 9.14753C48.3279 9.14753 48.8867 9.70634 48.8867 10.3955Z" fill="white"/>
<path d="M52.5479 10.3955C52.5479 11.0847 51.989 11.6436 51.2998 11.6436C50.6106 11.6436 50.0518 11.0847 50.0518 10.3955C50.0518 9.70634 50.6106 9.14753 51.2998 9.14753C51.989 9.14753 52.5479 9.70634 52.5479 10.3955Z" fill="white"/>
<path d="M61.0675 25.8771H41.2475L42.1178 15.2603H61.8125L61.0675 25.8771Z" fill="#00A989"/>
<path d="M80.6221 17.7123C80.6208 17.7387 77.0729 17.7603 72.699 17.7603C68.3239 17.7603 64.7798 17.7387 64.7815 17.7123C64.7834 17.6859 68.3303 17.6645 72.7054 17.6645C77.0786 17.6645 80.6235 17.6859 80.6221 17.7123Z" fill="#203E44"/>
<path d="M80.5107 19.6166C80.5093 19.643 76.9576 19.6646 72.5788 19.6646C68.1984 19.6646 64.6501 19.643 64.6522 19.6166C64.6537 19.5902 68.2048 19.5686 72.585 19.5686C76.9633 19.5686 80.5122 19.5902 80.5107 19.6166Z" fill="#203E44"/>
<path d="M80.3984 21.5204C80.3972 21.5468 76.8412 21.5684 72.4575 21.5684C68.0724 21.5684 64.5203 21.5468 64.5217 21.5204C64.5236 21.494 68.0787 21.4726 72.4636 21.4726C76.8469 21.4726 80.3999 21.494 80.3984 21.5204Z" fill="#203E44"/>
<path d="M73.9619 23.4252C73.9602 23.4516 71.8163 23.4731 69.174 23.4731C66.5307 23.4731 64.39 23.4516 64.3919 23.4252C64.3938 23.3988 66.537 23.3772 69.1802 23.3772C71.8224 23.3772 73.9636 23.3988 73.9619 23.4252Z" fill="#203E44"/>
<path d="M80.624 28.0253C80.6223 28.0517 71.815 28.0732 60.9547 28.0732C50.0905 28.0732 41.2881 28.0517 41.2902 28.0253C41.2923 27.9988 50.0977 27.9771 60.9612 27.9771C71.8212 27.9771 80.6255 27.9988 80.624 28.0253Z" fill="#203E44"/>
<path d="M80.5557 29.1981C80.5542 29.2245 71.8369 29.2461 61.0877 29.2461C50.335 29.2461 41.6226 29.2245 41.6247 29.1981C41.627 29.1717 50.3422 29.1501 61.0945 29.1501C71.843 29.1501 80.5571 29.1717 80.5557 29.1981Z" fill="#203E44"/>
<path d="M80.3128 33.3563H40.8545L41.0399 31.0913H80.4453L80.3128 33.3563Z" fill="#E4E8ED"/>
<path d="M78.6688 54.1185H38.7249L38.9108 51.8535H78.8018L78.6688 54.1185Z" fill="#E4E8ED"/>
<path d="M55.8944 42.9618H40.0678L40.2533 40.6968H56.0586L55.8944 42.9618Z" fill="#E4E8ED"/>
<path d="M79.3241 42.9618H59.5373L59.6966 40.6968H79.457L79.3241 42.9618Z" fill="#E4E8ED"/>
<path d="M63.5166 35.3573C63.5147 35.3837 58.4434 35.4053 52.1909 35.4053C45.936 35.4053 40.8692 35.3837 40.8711 35.3573C40.8734 35.3309 45.9436 35.3093 52.1981 35.3093C58.4504 35.3093 63.5185 35.3309 63.5166 35.3573Z" fill="#203E44"/>
<path d="M79.8711 37.14C79.8696 37.1664 71.0946 37.188 60.2745 37.188C49.4509 37.188 40.6808 37.1664 40.6831 37.14C40.6852 37.1136 49.4579 37.0922 60.2814 37.0922C71.101 37.0922 79.8726 37.1136 79.8711 37.14Z" fill="#203E44"/>
<path d="M79.7715 38.828C79.77 38.8544 70.9864 38.876 60.1554 38.876C49.3209 38.876 40.5423 38.8544 40.5444 38.828C40.5465 38.8016 49.328 38.7802 60.1622 38.7802C70.9925 38.7802 79.773 38.8016 79.7715 38.828Z" fill="#203E44"/>
<path d="M55.6562 44.3441C55.6543 44.3705 52.1094 44.3921 47.7396 44.3921C43.3683 44.3921 39.8273 44.3705 39.8294 44.3441C39.8318 44.3177 43.3757 44.2961 47.747 44.2961C52.1166 44.2961 55.6582 44.3177 55.6562 44.3441Z" fill="#203E44"/>
<path d="M55.5303 46.0839C55.5284 46.1103 52.0388 46.1318 47.7372 46.1318C43.434 46.1318 39.9486 46.1103 39.9507 46.0839C39.9529 46.0574 43.4416 46.0359 47.7446 46.0359C52.046 46.0359 55.5322 46.0574 55.5303 46.0839Z" fill="#203E44"/>
<path d="M55.3369 47.8519C55.335 47.8783 51.8118 47.8999 47.4686 47.8999C43.1239 47.8999 39.6048 47.8783 39.6073 47.8519C39.6092 47.8255 43.1316 47.8039 47.476 47.8039C51.819 47.8039 55.3388 47.8255 55.3369 47.8519Z" fill="#203E44"/>
<path d="M55.2119 49.5687C55.21 49.5951 51.6832 49.6167 47.3358 49.6167C42.9869 49.6167 39.4641 49.5951 39.4663 49.5687C39.4686 49.5423 42.9945 49.5207 47.3432 49.5207C51.6904 49.5207 55.2138 49.5423 55.2119 49.5687Z" fill="#203E44"/>
<path d="M78.9141 44.7518C78.9126 44.7782 75.2404 44.7998 70.7133 44.7998C66.1846 44.7998 62.516 44.7782 62.5179 44.7518C62.5196 44.7254 66.1909 44.7041 70.7195 44.7041C75.2463 44.7041 78.9155 44.7254 78.9141 44.7518Z" fill="#203E44"/>
<path d="M61.2199 45.3065C61.214 45.3004 61.2159 45.1833 61.2214 44.9882C61.2269 44.7925 61.2364 44.5207 61.2546 44.1972L61.2939 44.2386C60.9583 44.2405 60.5745 44.2426 60.1649 44.2449C60.1535 44.2553 60.2634 44.1545 60.2169 44.1974V44.1982L60.2167 44.1995L60.2165 44.2018L60.2162 44.2065L60.2156 44.216L60.2141 44.235L60.2116 44.2728L60.2061 44.3481C60.2025 44.3979 60.1991 44.4474 60.1955 44.4964C60.1881 44.5941 60.1812 44.6898 60.1742 44.7832C60.1596 44.9677 60.1457 45.1427 60.1328 45.3065L60.0935 45.2651C60.4225 45.2691 60.6988 45.2784 60.8972 45.2862C61.0955 45.2941 61.214 45.3004 61.2199 45.3065C61.2259 45.3127 61.1185 45.319 60.9213 45.3268C60.7245 45.3346 60.436 45.3439 60.0877 45.348L60.0459 45.3484L60.0484 45.3065C60.0584 45.1427 60.0689 44.9677 60.0801 44.7832C60.0863 44.6898 60.0926 44.5941 60.0989 44.4964C60.1023 44.4474 60.1057 44.3979 60.1089 44.3481L60.1142 44.2728L60.1167 44.235L60.1182 44.216L60.1188 44.2065L60.119 44.2018L60.1192 44.1995L60.1194 44.1982V44.1974C60.073 44.2401 60.1829 44.1388 60.1717 44.1492C60.5808 44.1515 60.9644 44.1538 61.2996 44.1557L61.3423 44.1559L61.3389 44.1972C61.311 44.5389 61.2821 44.8217 61.2607 45.0147C61.2394 45.2076 61.2259 45.3127 61.2199 45.3065Z" fill="#203E44"/>
<path d="M78.7881 46.8832C78.7866 46.9096 75.1098 46.9312 70.577 46.9312C66.0425 46.9312 62.3695 46.9096 62.3712 46.8832C62.3731 46.8568 66.0489 46.8352 70.5831 46.8352C75.1157 46.8352 78.7896 46.8568 78.7881 46.8832Z" fill="#203E44"/>
<path d="M61.073 47.4379C61.0671 47.4315 61.069 47.3147 61.0742 47.1196C61.08 46.9239 61.0895 46.6521 61.1076 46.3285L61.147 46.3699C60.8109 46.3718 60.4267 46.3739 60.0164 46.3763C60.005 46.3866 60.1151 46.2858 60.0684 46.3287V46.3306L60.0678 46.3378L60.0659 46.3663L60.0632 46.4042L60.0579 46.4794C60.0543 46.5293 60.0507 46.5787 60.0471 46.6278C60.0399 46.7254 60.0327 46.8212 60.0257 46.9146C60.0112 47.0991 59.9974 47.2741 59.9843 47.4379L59.945 47.3965C60.2747 47.4005 60.5512 47.4098 60.7498 47.4176C60.9483 47.4254 61.0671 47.4317 61.073 47.4379C61.0789 47.444 60.9713 47.4501 60.7739 47.4582C60.5769 47.466 60.288 47.4753 59.9393 47.4793L59.8975 47.4797L59.9 47.4379C59.9099 47.2741 59.9205 47.0991 59.9317 46.9146C59.9378 46.8212 59.9442 46.7254 59.9505 46.6278C59.9539 46.5787 59.9571 46.5293 59.9607 46.4794L59.9657 46.4042L59.9683 46.3663L59.9697 46.3473L59.9704 46.3378L59.9706 46.3332L59.9708 46.3306L59.971 46.3296V46.3287C59.9245 46.3714 60.0344 46.2702 60.0232 46.2805C60.433 46.2829 60.817 46.2852 61.1527 46.2871L61.1954 46.2873L61.192 46.3285C61.1641 46.6703 61.1351 46.953 61.114 47.146C61.0924 47.339 61.0789 47.444 61.073 47.4379Z" fill="#203E44"/>
<path d="M78.6631 49.014C78.6616 49.0405 74.9801 49.062 70.4416 49.062C65.9017 49.062 62.2238 49.0405 62.2257 49.014C62.2274 48.9876 65.908 48.9661 70.4478 48.9661C74.986 48.9661 78.6646 48.9876 78.6631 49.014Z" fill="#203E44"/>
<path d="M60.925 49.5687C60.9191 49.5626 60.9208 49.4455 60.9263 49.2504C60.932 49.0547 60.9413 48.7829 60.9597 48.4594L60.999 48.5008C60.6626 48.5027 60.2777 48.5048 59.8672 48.5071C59.8556 48.5175 59.9659 48.4167 59.9192 48.4596V48.4604L59.919 48.4617V48.464L59.9186 48.4687L59.9167 48.4972L59.914 48.535L59.9087 48.6103C59.9051 48.6602 59.9015 48.7096 59.8979 48.7586C59.8907 48.8563 59.8835 48.952 59.8765 49.0454C59.862 49.2299 59.848 49.4049 59.8351 49.5687L59.7958 49.5273C60.1257 49.5313 60.4026 49.5406 60.6015 49.5484C60.8001 49.5563 60.9191 49.5626 60.925 49.5687C60.931 49.5749 60.8234 49.5812 60.6258 49.589C60.4284 49.5968 60.1393 49.6061 59.7899 49.6102L59.748 49.6106L59.7506 49.5687C59.7605 49.4049 59.7711 49.2299 59.7823 49.0454C59.7884 48.952 59.7948 48.8563 59.8011 48.7586C59.8045 48.7096 59.8079 48.6602 59.811 48.6103L59.8163 48.535L59.8188 48.4972L59.8203 48.4782L59.821 48.4687L59.8212 48.464L59.8214 48.4617L59.8216 48.4604V48.4596C59.7749 48.5023 59.885 48.401 59.8738 48.4114C60.284 48.4137 60.6687 48.416 61.0047 48.4179L61.0474 48.4182L61.044 48.4594C61.0163 48.8011 60.9872 49.0839 60.966 49.2769C60.9445 49.4698 60.931 49.5751 60.925 49.5687Z" fill="#203E44"/>
<path d="M77.6256 66.6333C77.6256 66.6333 77.6273 66.5709 77.6332 66.4517C77.6396 66.3308 77.6491 66.1539 77.6614 65.9212C77.6871 65.4533 77.7254 64.7631 77.7751 63.8657C77.8767 62.0722 78.0255 59.4523 78.2134 56.1403L78.2417 56.1696C69.2269 56.1739 54.9273 56.1804 38.8642 56.188H38.8618L38.9149 56.1403C38.6188 59.7507 38.3301 63.2697 38.0543 66.6333L38.0099 66.5866C49.3375 66.595 59.235 66.6024 66.3029 66.6079C69.8391 66.6134 72.667 66.6181 74.6129 66.6212C75.5853 66.6238 76.3368 66.6259 76.8475 66.6274C77.1013 66.6286 77.2949 66.6295 77.4268 66.6303C77.5574 66.6312 77.6256 66.6333 77.6256 66.6333C77.6256 66.6333 77.5614 66.6354 77.4327 66.6362C77.3019 66.6371 77.1102 66.6379 76.8589 66.6394C76.3506 66.6407 75.6022 66.6428 74.6338 66.6453C72.6902 66.6485 69.8654 66.6531 66.3331 66.6586C59.2559 66.6641 49.3453 66.6715 38.0023 66.68H37.9541L37.9579 66.6333C38.2333 63.2697 38.5211 59.7507 38.8166 56.1403L38.8206 56.0923H38.872C54.9332 56.0999 69.2313 56.1064 78.2453 56.1107H78.2755L78.2736 56.1403C78.0712 59.4599 77.911 62.0855 77.8011 63.8832C77.7453 64.7776 77.7024 65.4658 77.6732 65.932C77.6582 66.1626 77.6468 66.3378 77.639 66.4574C77.6311 66.5749 77.6256 66.6333 77.6256 66.6333Z" fill="#203E44"/>
<path d="M78.0879 58.7814C78.0864 58.8078 69.2802 58.8296 58.4213 58.8296C47.5586 58.8296 38.7573 58.8078 38.7596 58.7814C38.7619 58.755 47.566 58.7334 58.4281 58.7334C69.2863 58.7334 78.0896 58.755 78.0879 58.7814Z" fill="#203E44"/>
<path d="M77.9346 61.3871C77.9331 61.4135 69.1135 61.4351 58.238 61.4351C47.3588 61.4351 38.5439 61.4135 38.5462 61.3871C38.5484 61.3607 47.3662 61.3393 58.2447 61.3393C69.1197 61.3393 77.936 61.3607 77.9346 61.3871Z" fill="#203E44"/>
<path d="M77.7793 64.0209C77.7778 64.0473 68.9447 64.0688 58.0525 64.0688C47.1566 64.0688 38.3284 64.0473 38.3305 64.0209C38.3328 63.9945 47.164 63.9729 58.0592 63.9729C68.9509 63.9729 77.7808 63.9945 77.7793 64.0209Z" fill="#203E44"/>
<path d="M56.0245 66.4063C55.9974 66.4063 56.1373 64.1398 56.337 61.3449C56.5369 58.5487 56.7208 56.2828 56.7479 56.2828C56.7751 56.2828 56.6352 58.5487 56.4354 61.3447C56.2358 64.1398 56.0518 66.4064 56.0245 66.4063Z" fill="#203E44"/>
<path d="M70.1103 66.8844C70.0831 66.8844 70.2088 64.5468 70.3915 61.6637C70.5738 58.7792 70.7438 56.4421 70.7707 56.4421C70.7978 56.4421 70.672 58.7793 70.4898 61.6635C70.3075 64.5467 70.1376 66.8845 70.1103 66.8844Z" fill="#203E44"/>
<path d="M45.0586 23.2916V17.8452H48.7923V18.7666H46.1582V20.0557H48.4319V20.977H46.1582V23.2916H45.0586Z" fill="white"/>
<path d="M49.6992 23.2916V17.8452H53.7375V18.7666H50.7989V19.974H53.5332V20.8916H50.7989V22.3739H53.8416V23.2916H49.6992Z" fill="white"/>
<path d="M54.7734 23.2916V17.8452H58.8117V18.7666H55.8731V19.974H58.6074V20.8916H55.8731V22.3739H58.9158V23.2916H54.7734Z" fill="white"/>
<path d="M53.8828 32.4985C53.8828 32.529 51.3033 32.5537 48.1221 32.5537C44.9396 32.5537 42.361 32.529 42.361 32.4985C42.361 32.4683 44.9396 32.4436 48.1221 32.4436C51.3033 32.4436 53.8828 32.4683 53.8828 32.4985Z" fill="#203E44"/>
<path d="M39.2336 76.5314C39.2336 76.5314 39.0778 76.528 38.7733 76.5162C38.6974 76.5096 38.6105 76.5179 38.5178 76.498C38.4243 76.4813 38.3221 76.4634 38.2109 76.4435C37.985 76.4179 37.7375 76.3292 37.4538 76.2383C36.9005 76.0261 36.2405 75.6634 35.624 75.0446C35.0107 74.4302 34.433 73.5753 34.0693 72.5021C33.9907 72.2305 33.8922 71.9555 33.8434 71.6603C33.8167 71.5134 33.7751 71.3669 33.7597 71.2145C33.7426 71.0621 33.725 70.9081 33.7075 70.7521C33.6836 70.5963 33.695 70.4363 33.6872 70.2757C33.6838 70.1149 33.676 69.9519 33.6944 69.7879C33.7064 69.6237 33.7187 69.4576 33.7311 69.2896C33.7487 69.1226 33.7662 68.9537 33.784 68.7832C33.9269 67.4174 34.0822 65.934 34.249 64.34C34.5833 61.1518 34.9639 57.5219 35.3847 53.5092C36.2291 45.4837 37.2345 35.928 38.3508 25.3179C38.6304 22.6653 38.917 19.9467 39.2097 17.1698C39.3562 15.7815 39.5041 14.3783 39.6535 12.9615C39.7282 12.253 39.8034 11.5412 39.8788 10.8262C39.919 10.468 39.9486 10.1118 39.998 9.7496C40.0547 9.38544 40.1861 9.03059 40.3922 8.72223C40.5981 8.41409 40.8696 8.14969 41.1846 7.95123C41.5014 7.75553 41.8617 7.63062 42.2324 7.58476C42.4186 7.56172 42.6059 7.56341 42.7876 7.56383H43.3382C43.7057 7.56383 44.0739 7.56362 44.4429 7.56362C45.919 7.56362 47.4069 7.56341 48.9057 7.56341C51.9035 7.5632 54.945 7.5632 58.0229 7.56299C64.1809 7.56341 70.1932 7.56383 75.9995 7.56426C77.4511 7.56447 78.8899 7.56447 80.3148 7.56468C81.0273 7.56489 81.7364 7.5651 82.4418 7.5651C82.7946 7.5651 83.1465 7.56531 83.4973 7.56531C83.8443 7.56848 84.2053 7.54693 84.5543 7.63928C85.2509 7.809 85.8431 8.30736 86.1565 8.93781C86.3152 9.25229 86.4078 9.59848 86.4287 9.94805C86.4513 10.3012 86.3879 10.6419 86.3556 10.9803C86.204 12.338 86.0544 13.68 85.9065 15.0056C84.721 25.61 83.6537 35.1594 82.7574 43.1792C81.857 51.1975 81.1285 57.6863 80.6249 62.172C80.3708 64.4131 80.1734 66.1534 80.0394 67.335C79.9716 67.924 79.9196 68.3738 79.8845 68.6773C79.849 68.9797 79.8281 69.1342 79.8281 69.1342C79.8281 69.1342 79.8416 68.9789 79.8733 68.676C79.9061 68.3721 79.9543 67.9221 80.0175 67.3325C80.1468 66.1504 80.3372 64.4093 80.5822 62.1671C81.0778 57.6806 81.7943 51.1905 82.68 43.1705C83.5698 35.1501 84.6291 25.5997 85.8057 14.9942C85.953 13.6686 86.102 12.3264 86.2529 10.9687C86.2854 10.6284 86.3476 10.2885 86.3251 9.95439C86.3049 9.61877 86.2159 9.28653 86.0633 8.98473C85.7623 8.37985 85.1946 7.90326 84.5287 7.74137C84.1981 7.65323 83.8498 7.67373 83.4973 7.67078C83.1465 7.67099 82.7946 7.67099 82.4418 7.67099C81.7364 7.6712 81.0273 7.6712 80.3148 7.67141C78.8899 7.67162 77.4511 7.67183 75.9995 7.67204C70.1932 7.67226 64.1809 7.67268 58.0229 7.6731C54.945 7.6731 51.9035 7.67289 48.9057 7.67289C47.4069 7.67268 45.919 7.67268 44.4429 7.67247C44.0739 7.67247 43.7057 7.67247 43.3382 7.67226H42.7876C42.6029 7.67183 42.4224 7.67035 42.2455 7.69233C41.8902 7.73629 41.5451 7.85571 41.2416 8.04317C40.9398 8.23317 40.6796 8.48658 40.4822 8.78183C40.2846 9.07709 40.1589 9.41715 40.1044 9.76566C40.056 10.1188 40.0255 10.4815 39.9854 10.8378C39.9097 11.5528 39.8345 12.2646 39.7594 12.9731C39.6096 14.3897 39.4612 15.7929 39.3141 17.1812C39.0203 19.9581 38.7325 22.6765 38.4516 25.3289C37.3266 35.9384 36.3132 45.493 35.4621 53.5179C35.0352 57.5299 34.6492 61.1594 34.31 64.347C34.1401 65.9405 33.9818 67.4238 33.8362 68.7891C33.818 68.9597 33.8 69.1285 33.7821 69.2955C33.7694 69.4622 33.7567 69.6273 33.7443 69.7905C33.7257 69.9534 33.7331 70.1153 33.736 70.2751C33.7436 70.4344 33.7318 70.5934 33.755 70.7481C33.7722 70.9032 33.7891 71.0564 33.8058 71.2078C33.8206 71.3595 33.8616 71.5049 33.8878 71.651C33.9353 71.9447 34.0325 72.218 34.1099 72.4883C34.4683 73.5565 35.0398 74.4082 35.647 75.0215C36.2576 75.6391 36.9122 76.0028 37.4617 76.2176C37.7432 76.3095 37.9894 76.3997 38.2143 76.4272C38.3248 76.4477 38.4267 76.4667 38.5195 76.4841C38.612 76.5048 38.6985 76.4976 38.7739 76.505C39.0776 76.5206 39.2336 76.5314 39.2336 76.5314Z" fill="#203E44"/>
<path d="M99.2203 64.0778C99.2203 64.0778 99.271 64.074 99.3701 64.0719C99.4724 64.0702 99.6191 64.0676 99.811 64.0645C100.202 64.0605 100.775 64.0543 101.515 64.0465C103.003 64.0353 105.161 64.019 107.857 63.999L107.897 63.9985L107.894 64.0385C107.705 66.9862 107.462 70.6106 107.158 74.6915C107.004 76.7318 106.837 78.8863 106.634 81.1262C106.53 82.2459 106.427 83.3872 106.265 84.5435C106.232 84.8335 106.164 85.1207 106.11 85.4104C106.036 85.696 105.968 85.9845 105.868 86.2653C105.68 86.829 105.427 87.3787 105.092 87.8828C104.765 88.3683 104.369 88.8081 103.893 89.0982L103.901 89.0934C103.459 89.4252 102.936 89.6292 102.404 89.7232C101.87 89.8177 101.327 89.8071 100.803 89.7186C99.7516 89.5474 98.7859 89.0372 98.0443 88.3277C97.3133 87.6002 96.835 86.6728 96.6036 85.7173C96.3685 84.7591 96.3565 83.7862 96.422 82.8567C96.455 82.3903 96.5137 81.9342 96.563 81.484C96.6137 81.0336 96.6638 80.5896 96.7132 80.1519C96.8119 79.2769 96.9079 78.4281 97.0005 77.6079C97.1862 75.9678 97.3591 74.4423 97.5166 73.0512C97.8347 70.2716 98.0912 68.0289 98.2688 66.4774C98.3594 65.7058 98.4298 65.1066 98.478 64.6968C98.5027 64.4958 98.5218 64.342 98.5351 64.2346C98.5484 64.1306 98.5581 64.0778 98.5581 64.0778C98.5581 64.0778 98.5558 64.1315 98.5458 64.2359C98.5351 64.3435 98.5196 64.4977 98.4993 64.6992C98.4558 65.1096 98.3922 65.7094 98.3102 66.4821C98.1407 68.0344 97.8957 70.2783 97.592 73.0595C97.4386 74.4512 97.2701 75.9771 97.0892 77.6176C96.9984 78.4381 96.9045 79.287 96.8075 80.1624C96.7591 80.5999 96.7099 81.0442 96.6598 81.4946C96.6114 81.9454 96.5533 82.4015 96.5216 82.8639C96.4579 83.7873 96.4717 84.7498 96.7044 85.6926C96.9328 86.6322 97.4044 87.5412 98.1189 88.2512C98.8449 88.9446 99.7917 89.4444 100.821 89.6114C101.334 89.6976 101.865 89.7076 102.384 89.6154C102.902 89.5237 103.409 89.3254 103.835 89.0055L103.836 89.0046L103.843 89.0008C104.285 88.7305 104.684 88.2955 105.001 87.8215C105.329 87.3274 105.578 86.7863 105.764 86.2303C105.863 85.9534 105.93 85.6683 106.003 85.3861C106.057 85.0991 106.123 84.8163 106.156 84.5272C106.318 83.3773 106.422 82.2347 106.527 81.1163C106.731 78.8779 106.901 76.7236 107.057 74.6839C107.368 70.604 107.62 66.9802 107.82 64.0336L107.857 64.0731C105.161 64.0791 103.003 64.0837 101.515 64.0869C100.775 64.0862 100.202 64.0858 99.811 64.0854C99.6193 64.0841 99.4724 64.0831 99.3701 64.0824C99.271 64.0812 99.2203 64.0778 99.2203 64.0778Z" fill="#203E44"/>
<path d="M51.0961 76.8931C51.0961 76.8931 51.0928 76.9474 51.0803 77.0526C51.0672 77.1611 51.048 77.3164 51.0232 77.5191C50.97 77.9325 50.8924 78.5357 50.7926 79.3119C50.6906 80.0912 50.5659 81.0429 50.4211 82.1476C50.353 82.7001 50.2596 83.2912 50.1979 83.9176C50.125 84.5411 50.1933 85.2166 50.4069 85.8781C50.8233 87.2052 51.8946 88.4637 53.3901 89.1424C54.1336 89.4841 54.9737 89.6826 55.8462 89.7018C56.721 89.7189 57.6285 89.7052 58.5552 89.7086C62.2663 89.7073 66.3458 89.7058 70.6277 89.7046C79.1934 89.7111 86.9471 89.7168 92.5629 89.7213C95.3675 89.7287 97.6373 89.7346 99.21 89.7388C99.9926 89.7432 100.601 89.7468 101.017 89.7492C101.222 89.7515 101.378 89.7534 101.487 89.7547C101.593 89.7566 101.647 89.7604 101.647 89.7604C101.647 89.7604 101.593 89.7642 101.487 89.7659C101.378 89.7671 101.222 89.769 101.017 89.7714C100.601 89.7737 99.9926 89.7773 99.2102 89.7817C97.6373 89.7857 95.3675 89.7916 92.5631 89.799C86.9473 89.8031 79.194 89.8086 70.6283 89.8147C66.3464 89.813 62.2672 89.8113 58.5563 89.81C57.6279 89.8052 56.7258 89.8174 55.8432 89.7986C54.9589 89.7775 54.1055 89.574 53.3521 89.2252C51.8356 88.5329 50.751 87.2515 50.3327 85.9018C50.1182 85.2289 50.0517 84.5428 50.1284 83.9109C50.1933 83.2798 50.289 82.6927 50.36 82.1394C50.512 81.0357 50.643 80.0846 50.7502 79.3062C50.8588 78.5312 50.9433 77.9289 51.0012 77.5161C51.0308 77.3141 51.0534 77.1592 51.0693 77.0509C51.0851 76.9463 51.0961 76.8931 51.0961 76.8931Z" fill="#203E44"/>
<path d="M98.5575 64.0777C98.5575 64.0777 98.5575 64.0416 98.563 63.9718C98.5695 63.8974 98.5786 63.7945 98.5902 63.6618C98.6171 63.3847 98.6557 62.9846 98.7054 62.4715C98.8107 61.4333 98.9624 59.9395 99.1494 58.0955C99.5356 54.3976 100.068 49.2965 100.656 43.6625C100.955 40.8442 101.24 38.1597 101.499 35.7173C101.629 34.4966 101.754 33.3365 101.87 32.2506C101.928 31.7078 101.984 31.1837 102.039 30.6796C102.066 30.4277 102.092 30.1809 102.119 29.9393C102.131 29.8186 102.147 29.6986 102.155 29.5813C102.159 29.4642 102.163 29.3486 102.168 29.2342C102.155 28.775 102.018 28.3478 101.821 27.986C101.621 27.6254 101.373 27.3154 101.097 27.0755C100.551 26.5837 99.957 26.3227 99.4694 26.1629C99.2247 26.0775 98.9977 26.0391 98.8035 25.994C98.6061 25.968 98.4391 25.941 98.3034 25.9298C98.1707 25.9222 98.0678 25.9165 97.9934 25.9123C97.9234 25.9078 97.8877 25.9027 97.8877 25.9027C97.8877 25.9027 97.9234 25.9002 97.9936 25.9011C98.0682 25.9027 98.1717 25.9049 98.3051 25.9076C98.4416 25.9154 98.6099 25.9389 98.809 25.9619C99.0049 26.0036 99.2344 26.0393 99.4821 26.1221C99.976 26.277 100.579 26.5345 101.138 27.0297C101.421 27.2712 101.675 27.5851 101.883 27.9526C102.087 28.3214 102.23 28.7593 102.245 29.2315C102.242 29.3492 102.238 29.4682 102.234 29.5884C102.227 29.7081 102.211 29.8266 102.2 29.9477C102.175 30.1895 102.149 30.4366 102.123 30.6885C102.071 31.1928 102.017 31.7171 101.961 32.2601C101.848 33.3464 101.727 34.5069 101.6 35.7279C101.343 38.1707 101.062 40.8554 100.766 43.6742C100.165 49.3068 99.6212 54.4064 99.227 58.1035C99.0252 59.9461 98.8616 61.4386 98.7479 62.4759C98.6896 62.9882 98.6439 63.3877 98.6122 63.6641C98.5959 63.7962 98.5832 63.8989 98.5742 63.9729C98.5649 64.0424 98.5575 64.0777 98.5575 64.0777Z" fill="#203E44"/>
<path d="M56.2489 66.725C56.2217 66.725 56.3878 64.3516 56.6199 61.4243C56.852 58.4962 57.0621 56.123 57.089 56.123C57.1161 56.1231 56.9501 58.4961 56.7181 61.4244C56.4863 64.3515 56.2762 66.7249 56.2489 66.725Z" fill="#203E44"/>
<path d="M63.305 35.3561C63.3849 35.0355 63.2078 34.6868 62.8821 34.6026C62.7988 34.5813 62.7192 34.5807 62.6545 34.6172C62.396 34.7635 61.8657 35.5573 61.312 35.7703C60.7583 35.9836 59.7474 36.1598 59.3794 36.8816C59.0117 37.6034 58.6923 40.938 58.745 41.6171C58.7978 42.2963 60.1752 47.9294 60.1752 47.9294L63.305 35.3561Z" fill="#FFC19D"/>
<path d="M65.4002 33.7849C65.3828 33.8299 59.8176 39.1897 57.3734 41.5422C56.8292 42.0664 56.9904 42.9619 57.6849 43.2721C58.1142 43.4638 58.6205 43.363 58.939 43.0223L66.7651 34.8934L67.1131 33.4136L65.4002 33.7849Z" fill="#203E44"/>
<path d="M60.558 42.3315L62.1036 39.9976L63.4135 34.9199C63.4135 34.9199 64.3084 33.8213 65.0578 34.0323C65.8072 34.2432 66.1826 34.668 66.1099 35.3228C66.1099 35.3228 67.8267 35.1216 68.1329 35.6085C68.4394 36.0957 68.5691 37.5071 68.5691 37.5071C68.5691 37.5071 69.1647 38.4089 69.1341 39.0133C69.1032 39.6178 69.2917 40.0612 69.2917 40.0612C69.2917 40.0612 70.7724 40.9383 70.8014 42.3786C70.8303 43.8188 70.0312 47.35 69.316 48.449C68.6006 49.5482 67.0557 51.117 67.0557 51.117L66.7718 54.1182L60.0332 51.3888L60.558 42.3315Z" fill="#FFC19D"/>
<path d="M63.3876 35.127C63.395 35.1289 63.3779 35.2231 63.3409 35.392C63.2966 35.5818 63.2405 35.8204 63.174 36.1043C63.0286 36.7045 62.82 37.5317 62.5833 38.4437C62.4632 38.8983 62.3489 39.3313 62.2438 39.7289C62.188 39.9267 62.1225 40.1148 62.0333 40.2788C61.9441 40.4434 61.8332 40.5783 61.7243 40.6909C61.5026 40.9139 61.2923 41.0542 61.1493 41.151C61.0045 41.2459 60.9212 41.2935 60.9172 41.2874C60.9125 41.281 60.9878 41.2214 61.1243 41.1162C61.2589 41.0094 61.4604 40.8602 61.6677 40.6375C62.1297 40.2086 62.2136 39.3138 62.4767 38.416C62.7134 37.504 62.9339 36.68 63.0987 36.0846C63.1788 35.8044 63.246 35.5687 63.2995 35.3812C63.3494 35.2157 63.3802 35.1251 63.3876 35.127Z" fill="#FF9C6A"/>
<path d="M65.5819 39.1059C65.5518 39.1014 65.6555 38.2541 65.8136 37.2138C65.9717 36.173 66.1243 35.3332 66.1544 35.3379C66.1843 35.3425 66.0806 36.1895 65.9225 37.2303C65.7644 38.2707 65.6117 39.1107 65.5819 39.1059Z" fill="#FF9C6A"/>
<path d="M67.1744 41.3971C67.1584 41.4036 67.1174 41.3151 67.0174 41.2022C66.9193 41.0902 66.7517 40.9564 66.533 40.8994C66.3144 40.8427 66.1025 40.8755 65.9613 40.9239C65.8182 40.9714 65.7379 41.0268 65.7273 41.0131C65.7187 41.0036 65.7842 40.9233 65.9321 40.8516C66.0771 40.7802 66.3128 40.7286 66.5609 40.7931C66.809 40.8577 66.9889 41.02 67.0787 41.1545C67.1713 41.2906 67.1867 41.3935 67.1744 41.3971Z" fill="#FF9C6A"/>
<path d="M69.8027 41.296C69.7965 41.3104 69.6974 41.281 69.5414 41.2292C69.3855 41.1796 69.1709 41.1058 68.9287 41.0872C68.6876 41.0675 68.4657 41.1183 68.3367 41.2007C68.2023 41.2818 68.1827 41.3879 68.1666 41.3839C68.1516 41.3892 68.1453 41.2529 68.2913 41.1375C68.4302 41.0234 68.6753 40.9564 68.937 40.9775C69.1997 40.998 69.4193 41.088 69.57 41.1569C69.7209 41.2282 69.8084 41.2825 69.8027 41.296Z" fill="#FF9C6A"/>
<path d="M68.1145 39.4946C68.0845 39.4883 68.1564 39.0407 68.2745 38.4952C68.3927 37.9496 68.5127 37.5126 68.5424 37.5193C68.5722 37.5255 68.5003 37.973 68.3821 38.5187C68.264 39.064 68.144 39.501 68.1145 39.4946Z" fill="#FF9C6A"/>
<path d="M64.126 41.1663C64.1093 41.1712 64.0802 41.0839 63.995 40.9717C63.9119 40.8603 63.7619 40.7253 63.5594 40.6682C63.3569 40.6113 63.1583 40.646 63.0281 40.6957C62.896 40.7449 62.8239 40.802 62.8125 40.7889C62.8032 40.7802 62.859 40.6986 62.9962 40.6249C63.13 40.5513 63.3544 40.4964 63.5894 40.5621C63.8244 40.6287 63.9863 40.795 64.0601 40.929C64.1364 41.0651 64.1385 41.1642 64.126 41.1663Z" fill="#FF9C6A"/>
<path d="M58.5855 43.1788C58.5686 43.1695 58.6432 43.0527 58.6696 42.8432C58.6979 42.6395 58.6592 42.3282 58.45 42.0898C58.2397 41.8528 57.939 41.7673 57.7327 41.7611C57.5216 41.7518 57.3928 41.8021 57.3869 41.7842C57.381 41.7746 57.5038 41.6945 57.7327 41.6831C57.9546 41.6694 58.293 41.748 58.5326 42.0171C58.7706 42.2891 58.7972 42.6397 58.7463 42.8563C58.6962 43.0806 58.5933 43.1865 58.5855 43.1788Z" fill="#375A64"/>
<path d="M15.7621 13.3433C15.8847 11.1815 17.2141 9.85165 19.0771 8.74778C20.9399 7.64391 23.3552 7.53443 25.3104 8.46521C26.618 9.08763 27.7627 10.1507 29.199 10.3361C31.5642 10.6413 33.803 8.44957 36.124 8.99696C37.498 9.32096 38.5448 10.6954 38.492 12.1061C38.4394 13.5166 37.2926 14.809 35.8985 15.0295C37.4473 15.2539 38.3242 17.2129 37.7514 18.6695C37.1789 20.1261 35.5534 20.9711 33.9886 21.0049C32.424 21.039 30.92 20.4005 29.5663 19.6149C28.2128 18.8293 26.9492 17.8844 25.5376 17.2087C24.1258 16.5332 22.5018 16.1384 20.9894 16.541C18.9421 17.0861 17.4912 19.0191 16.9571 21.0694C16.423 23.1199 16.6534 25.2856 16.9712 27.3805C17.2895 29.4753 17.693 31.5882 17.4941 33.6977C17.4707 33.9451 17.4155 34.2286 17.1978 34.3488C16.8831 34.5223 16.5225 34.2254 16.2909 33.9506C13.6748 30.8491 11.6761 27.2285 10.4459 23.3621C9.7315 21.1165 9.33734 18.9305 10.195 16.7357C11.0526 14.5406 13.9428 12.4512 15.7621 13.3433Z" fill="#203E44"/>
<path d="M13.7676 23.7906L17.2293 45.148C17.8756 49.1361 20.4676 52.9898 26.7266 51.6803C32.0714 50.1347 31.6741 46.2899 30.9777 41.5498C30.9777 41.5498 36.8572 40.0205 36.3305 34.0414C36.0758 31.1523 35.0671 25.2436 34.0925 19.9088C33.0462 14.1793 27.7686 10.2182 21.9736 10.8009L21.3977 10.8588C15.2213 11.8465 12.6094 17.6438 13.7676 23.7906Z" fill="#FFC19D"/>
<path d="M30.977 41.55C30.977 41.55 27.2353 42.1492 22.9707 40.0332C22.9707 40.0332 25.3154 44.4753 31.22 43.3383L30.977 41.55Z" fill="#FF9C6A"/>
<path d="M32.9202 25.8902C32.9815 26.3391 32.6521 26.7608 32.1843 26.8334C31.7179 26.9057 31.2892 26.6018 31.2279 26.1527C31.1668 25.7041 31.4962 25.2819 31.9629 25.2093C32.4303 25.1368 32.859 25.4416 32.9202 25.8902Z" fill="#203E44"/>
<path d="M33.1043 22.9687C33.0098 23.0904 32.3158 22.6774 31.3981 22.7721C30.4804 22.8535 29.8544 23.3933 29.7437 23.291C29.6898 23.246 29.777 23.0346 30.0488 22.7916C30.316 22.55 30.7877 22.2936 31.3596 22.2387C31.9317 22.1844 32.4335 22.3462 32.7317 22.5341C33.0356 22.722 33.1512 22.9137 33.1043 22.9687Z" fill="#203E44"/>
<path d="M24.8245 26.713C24.8855 27.1616 24.556 27.5836 24.0888 27.6561C23.6222 27.7285 23.1937 27.4243 23.1324 26.9755C23.0711 26.5269 23.4006 26.1045 23.8674 26.032C24.3348 25.9593 24.7634 26.2643 24.8245 26.713Z" fill="#203E44"/>
<path d="M24.101 24.0469C24.0063 24.1688 23.3114 23.7558 22.3946 23.8503C21.4769 23.9319 20.8507 24.4717 20.7397 24.3692C20.686 24.3244 20.7725 24.113 21.0455 23.87C21.3127 23.6282 21.7842 23.372 22.3559 23.3167C22.928 23.2628 23.43 23.4247 23.7282 23.6121C24.0315 23.8004 24.1477 23.9919 24.101 24.0469Z" fill="#203E44"/>
<path d="M28.1157 30.5176C28.1062 30.4659 28.6667 30.3099 29.5791 30.099C29.8111 30.051 30.0282 29.9823 30.0515 29.8185C30.0897 29.6435 29.9663 29.4007 29.8253 29.1394C29.5478 28.5946 29.2576 28.0233 28.9529 27.4248C27.7351 24.9809 26.8284 22.9622 26.9273 22.914C27.0262 22.8658 28.0935 24.8074 29.3111 27.2513C29.6057 27.8544 29.8874 28.4293 30.1554 28.9794C30.2708 29.2369 30.4539 29.5237 30.3695 29.887C30.3241 30.0683 30.1649 30.2129 30.0187 30.2682C29.8731 30.3293 29.7414 30.3452 29.6262 30.3638C28.7009 30.5073 28.1246 30.5694 28.1157 30.5176Z" fill="#203E44"/>
<path d="M23.9761 20.4267C23.9106 20.6854 22.9826 20.6592 21.9191 20.8972C20.8505 21.1138 20.014 21.5164 19.8487 21.307C19.7743 21.2062 19.9019 20.9564 20.2287 20.6795C20.5523 20.4033 21.0847 20.1182 21.7236 19.9814C22.3629 19.8457 22.965 19.8888 23.3731 20.0089C23.7844 20.1285 24.0032 20.3044 23.9761 20.4267Z" fill="#203E44"/>
<path d="M32.4999 20.3466C32.3596 20.5713 31.7057 20.4187 30.9442 20.4848C30.1808 20.5244 29.5546 20.7659 29.3846 20.5628C29.309 20.4635 29.3891 20.2447 29.6507 20.019C29.9079 19.7946 30.3556 19.5872 30.8793 19.5505C31.4034 19.5145 31.8752 19.658 32.1609 19.8449C32.4511 20.0319 32.561 20.2378 32.4999 20.3466Z" fill="#203E44"/>
<path d="M14.6999 28.1631C14.5936 28.1293 10.4749 27.3621 11.0157 31.4316C11.5566 35.5012 15.5305 34.1185 15.5221 34.001C15.5136 33.8833 14.6999 28.1631 14.6999 28.1631Z" fill="#FFC19D"/>
<path d="M14.0735 32.6248C14.0539 32.6142 14.0091 32.6839 13.8966 32.7547C13.787 32.8236 13.5908 32.8873 13.3683 32.8361C12.9175 32.7353 12.4645 32.1008 12.3475 31.3702C12.2879 31.0012 12.3187 30.6381 12.4109 30.3287C12.4956 30.0146 12.6605 29.7809 12.8718 29.7137C13.0804 29.6355 13.251 29.7445 13.3161 29.8525C13.3856 29.959 13.3706 30.0436 13.3932 30.0478C13.4059 30.0565 13.4714 29.9679 13.4163 29.8041C13.3888 29.7257 13.3283 29.6361 13.2222 29.5706C13.114 29.5042 12.9652 29.4827 12.8164 29.519C12.5056 29.5824 12.2614 29.9087 12.1598 30.2484C12.041 30.5918 11.9979 31.001 12.0647 31.4154C12.1999 32.2319 12.7218 32.9435 13.3326 33.0352C13.6287 33.072 13.8561 32.9538 13.9666 32.8414C14.0792 32.7241 14.0885 32.6303 14.0735 32.6248Z" fill="#FF9C6A"/>
<path d="M33.6048 14.3404C32.9553 13.2203 31.9136 12.3774 30.8074 11.7043C28.4227 10.2538 25.5962 9.48512 22.8153 9.72141C20.0343 9.95791 17.3206 11.2361 15.5062 13.3568C14.0544 15.0537 13.2131 17.2266 12.9444 19.4436C12.6756 21.6607 12.9588 23.9219 13.5709 26.0698C13.8395 27.0127 14.2013 27.983 14.9459 28.6206C15.4113 29.0186 16.1635 29.236 16.6092 28.8163C16.8717 28.5688 16.9379 28.1833 16.9897 27.8266C17.4588 24.5972 17.8932 21.1317 16.4342 18.213C17.1122 17.1169 17.9261 16.0786 18.9863 15.3458C20.0464 14.6129 21.3813 14.2113 22.6445 14.4653C24.5213 14.8428 25.82 16.5006 27.3964 17.5863C29.6496 19.138 32.6717 19.5064 35.232 18.5418L33.6048 14.3404Z" fill="#203E44"/>
<path d="M28.9239 32.9972C28.8582 33.3804 28.7906 33.7697 28.6192 34.1186C28.4476 34.4676 28.1546 34.7768 27.7782 34.8742C27.3773 34.9784 26.9366 34.8203 26.6401 34.531C26.3436 34.2414 26.1789 33.8378 26.1124 33.4288C26.0521 33.0592 26.1284 32.5868 26.4833 32.4676C26.6312 32.4177 26.7925 32.4452 26.9459 32.4731C27.6379 32.5982 28.33 32.7233 29.022 32.8487" fill="#FF9C6A"/>
<path d="M28.4892 34.7314C28.4668 34.6733 28.0825 34.932 27.4421 34.8187C27.1321 34.7635 26.7715 34.6012 26.524 34.2791C26.2776 33.9615 26.1432 33.4895 26.237 33.0326C26.2571 32.9189 26.3002 32.8098 26.344 32.7118C26.4032 32.6162 26.3898 32.6228 26.475 32.6177C26.5574 32.6224 26.6959 32.6553 26.8068 32.6739C26.9226 32.6951 27.0364 32.7158 27.1477 32.7361C27.5922 32.8162 27.9933 32.8834 28.3311 32.935C29.0065 33.0379 29.4292 33.0778 29.4385 33.0307C29.448 32.9834 29.0427 32.8578 28.3795 32.6927C28.0477 32.6103 27.6518 32.518 27.2109 32.4207C27.1002 32.3967 26.9871 32.3719 26.8721 32.347C26.7508 32.3244 26.6553 32.2922 26.4926 32.2762C26.4133 32.2707 26.3051 32.281 26.2104 32.3436C26.118 32.406 26.0692 32.4877 26.0343 32.5547C25.9724 32.6864 25.9215 32.8193 25.8951 32.9626C25.7795 33.5329 25.9549 34.1003 26.2738 34.4814C26.5995 34.8705 27.0499 35.0336 27.4094 35.0634C27.7759 35.0975 28.0671 35.01 28.2453 34.9223C28.4249 34.8322 28.5006 34.7487 28.4892 34.7314Z" fill="#203E44"/>
<path d="M37.4865 9.82817C37.4954 9.82584 37.5229 9.91736 37.567 10.0959C37.5951 10.2758 37.6378 10.5489 37.5939 10.8984C37.5275 11.5868 37.1255 12.6152 36.1176 13.3985C35.1167 14.1927 33.5334 14.5125 31.9023 14.2631C30.2495 14.037 28.5983 13.2429 26.8709 12.5322C25.1518 11.8208 23.3725 11.3412 21.7842 11.6322C20.1965 11.9017 18.9654 12.8149 18.1562 13.7083C17.3338 14.6116 16.8737 15.5092 16.6055 16.1361C16.3449 16.7707 16.2543 17.1429 16.2278 17.1357C16.219 17.1336 16.2365 17.0396 16.2786 16.862C16.3143 16.6826 16.3967 16.4267 16.5089 16.0978C16.7511 15.4513 17.1918 14.5243 18.016 13.5823C18.8264 12.6526 20.0841 11.687 21.7419 11.3905C23.402 11.0739 25.2378 11.5684 26.9709 12.2853C28.7126 13.0033 30.3372 13.789 31.9382 14.0203C33.5218 14.2751 35.0397 13.9835 36.0041 13.2482C36.9807 12.5197 37.3967 11.5454 37.4912 10.8849C37.5939 10.2086 37.4514 9.83197 37.4865 9.82817Z" fill="#375A64"/>
<path d="M10.7655 22.2251C10.7372 22.2226 10.7376 21.7819 10.9247 21.1005C11.1035 20.4211 11.4917 19.5034 12.1594 18.6502C12.4891 18.2213 12.8585 17.8587 13.2182 17.5592C13.5786 17.2595 13.9691 17.0397 14.3346 16.9735C14.6991 16.9046 15.0039 16.9774 15.1844 17.0695C15.3674 17.1638 15.4348 17.2584 15.4247 17.2694C15.4133 17.3096 15.0348 16.989 14.3756 17.1574C13.7358 17.3212 13.0168 18.0092 12.3694 18.8138C11.7259 19.6367 11.3247 20.5071 11.1045 21.1561C10.8769 21.8052 10.8099 22.2321 10.7655 22.2251Z" fill="#375A64"/>
<path d="M11.8442 25.7481C11.8159 25.7434 11.8527 25.303 12.0752 24.6275C12.295 23.9537 12.735 23.0565 13.4327 22.219C14.1337 21.3839 14.939 20.7917 15.5633 20.4563C16.1887 20.118 16.6156 20.0036 16.6251 20.0307C16.6422 20.0719 16.2445 20.2473 15.6593 20.6184C15.0738 20.9872 14.3157 21.582 13.6371 22.3899C12.9622 23.2005 12.5112 24.0518 12.2517 24.6932C11.99 25.3349 11.888 25.7576 11.8442 25.7481Z" fill="#375A64"/>
<path d="M4.41097 56.2661C4.41097 56.2661 0.308913 79.0847 0.506946 81.2183C0.70498 83.3519 1.79596 86.7461 4.27064 87.328C6.74552 87.9098 9.02301 87.328 9.02301 87.328L6.0523 59.3004L4.41097 56.2661Z" fill="#00A989"/>
<path d="M42.7652 66.7564L37.5885 46.2728L33.6314 45.1841L32.0628 43.1332C32.0628 43.1332 29.6084 41.2877 23.0803 41.2061C21.072 41.1812 16.8193 41.9989 15.2325 43.189L14.8172 45.6662C14.8172 45.6662 12.3391 47.353 10.4279 48.8187C5.53393 52.5718 4.9392 54.666 4.41125 56.0698C3.88309 57.4736 7.56203 89.7606 7.56203 89.7606L42.8396 89.7065L42.7652 66.7564Z" fill="#00A989"/>
<g opacity="0.3">
<path d="M7.26284 87.568C4.22936 80.6104 4.39844 72.5495 4.80993 64.9951L7.26284 87.568Z" fill="black"/>
</g>
<path d="M27.7397 57.5077C27.7397 57.5127 27.663 57.5165 27.5176 57.5193C27.3574 57.5204 27.1458 57.5218 26.8812 57.5235C26.329 57.5214 25.5295 57.5294 24.5425 57.5518C22.5685 57.5954 19.8421 57.7372 16.8504 58.0842C13.858 58.4346 11.1736 58.9235 9.24423 59.335C8.27943 59.5398 7.5004 59.7158 6.9642 59.845C6.70657 59.9039 6.50051 59.9513 6.34453 59.987C6.20251 60.0179 6.12727 60.0316 6.126 60.0267C6.12452 60.0217 6.19722 59.9982 6.33671 59.9578C6.491 59.9153 6.69474 59.8591 6.94941 59.7888C7.4818 59.6423 8.25766 59.4506 9.22077 59.2321C11.1468 58.7937 13.8339 58.2873 16.8323 57.9361C19.8302 57.5886 22.5634 57.4633 24.5406 57.4466C25.5292 57.4375 26.3294 57.4455 26.8821 57.4656C27.1467 57.4755 27.3582 57.4834 27.5182 57.4893C27.6636 57.4963 27.7399 57.5026 27.7397 57.5077Z" fill="#203E44"/>
<path d="M37.794 89.7144C37.7581 89.7143 37.6485 88.11 37.6484 81.363C37.6484 74.614 37.6776 69.1446 37.7137 69.1447C37.7497 69.1447 37.7788 74.6141 37.7788 81.3632C37.7789 88.1099 37.83 89.7142 37.794 89.7144Z" fill="#203E44"/>
<path d="M37.5881 46.3394C39.8694 47.0011 42.041 49.2557 43.4562 51.1289C47.3866 56.3315 53.5464 63.5029 53.5464 63.5029L60.1533 49.3158L68.1664 52.364L66.8364 56.4276C66.9718 58.7351 64.1947 69.9362 63.4694 72.2967C61.2853 79.4037 56.3657 82.7521 49.3642 79.1285C43.9247 76.3136 33.3818 64.8938 33.3818 64.8938" fill="#00A989"/>
<path d="M33.3818 64.8938C33.3818 64.8938 33.4488 64.961 33.5767 65.0948C33.706 65.2303 33.8956 65.4292 34.144 65.6896C34.643 66.212 35.3818 66.9796 36.3458 67.9561C37.3081 68.934 38.499 70.1173 39.9087 71.4627C41.3209 72.8048 42.9466 74.3178 44.8361 75.881C45.3162 76.2616 45.7905 76.674 46.3098 77.0506C46.5662 77.2433 46.8253 77.4382 47.0871 77.6352C47.3545 77.8241 47.6309 78.0059 47.9067 78.1946C48.0454 78.288 48.1845 78.3821 48.3244 78.4763C48.4702 78.5607 48.6169 78.6456 48.7642 78.7308C49.0611 78.8973 49.35 79.0852 49.6668 79.2283C50.2874 79.5396 50.9417 79.8121 51.6258 80.0323C52.9867 80.4751 54.4997 80.7046 56.0103 80.4412C56.7622 80.3119 57.5045 80.0614 58.1983 79.6937C58.889 79.32 59.5281 78.8325 60.099 78.2635C61.2462 77.1235 62.1081 75.6713 62.7594 74.1126C63.4229 72.552 63.8156 70.8568 64.2634 69.1516C64.6965 67.4412 65.1156 65.6948 65.5144 63.9168C65.9096 62.1383 66.297 60.3289 66.5914 58.483C66.6354 58.1393 66.6971 57.7976 66.7262 57.4546L66.774 56.9412L66.7814 56.4308L66.7816 56.4179L66.7839 56.4105C67.2324 55.0408 67.6763 53.6854 68.1144 52.3471L68.1469 52.4152C65.3986 51.369 62.7216 50.3501 60.1345 49.3654L60.2013 49.3382C57.8093 54.4684 55.5833 59.2422 53.5876 63.5222L53.5576 63.5862L53.5119 63.5325C51.1915 60.814 49.107 58.2998 47.289 56.055C46.3793 54.9332 45.5409 53.8752 44.7737 52.892C44.3903 52.4004 44.0255 51.9268 43.6813 51.4713C43.3365 51.0159 43.0075 50.5845 42.6721 50.1924C41.344 48.6133 40.0683 47.5867 39.1191 47.0336C38.648 46.7485 38.2559 46.5898 37.9939 46.4822C37.7257 46.3903 37.5881 46.3394 37.5881 46.3394C37.5881 46.3394 37.7282 46.3812 37.9987 46.4691C38.2629 46.5727 38.6581 46.7278 39.1328 47.01C40.0896 47.5574 41.3746 48.5809 42.712 50.1588C43.0491 50.55 43.3818 50.9827 43.7273 51.4364C44.0731 51.8904 44.4389 52.3628 44.8238 52.8531C45.5933 53.8336 46.4343 54.8892 47.3462 56.0087C49.1687 58.2486 51.2577 60.7588 53.5808 63.4734L53.5051 63.4839C55.4967 59.202 57.7182 54.426 60.1053 49.2936L60.1263 49.249L60.1721 49.2665C62.7597 50.2501 65.437 51.268 68.1858 52.3131L68.2344 52.3315L68.2181 52.3812C67.7802 53.7194 67.3368 55.0748 66.8886 56.4448L66.8911 56.4245L66.8839 56.9478L66.8357 57.466C66.8061 57.8124 66.7444 58.1541 66.7002 58.4997C66.4048 60.3509 66.0172 62.1609 65.6213 63.9406C65.2217 65.7198 64.8019 67.4668 64.3678 69.1783C63.9193 70.8828 63.5252 72.5823 62.8565 74.1532C62.2002 75.7206 61.3312 77.1835 60.1706 78.3354C59.593 78.91 58.9457 79.4033 58.2451 79.7812C57.5417 80.1532 56.7886 80.4064 56.0265 80.5366C54.4957 80.8016 52.9677 80.5668 51.5975 80.1191C50.9089 79.8964 50.2508 79.6212 49.628 79.3074C49.3097 79.163 49.0189 78.9736 48.7206 78.8056C48.5725 78.7196 48.4252 78.634 48.2785 78.5488C48.1384 78.4539 47.9987 78.3595 47.8598 78.2654C47.5834 78.0756 47.3061 77.8928 47.0383 77.7026C46.7762 77.5048 46.5169 77.3091 46.2606 77.1155C45.7406 76.7367 45.2666 76.3233 44.7864 75.941C42.8978 74.372 41.2751 72.8543 39.8662 71.5071C38.4599 70.157 37.273 68.9688 36.3151 67.9861C35.3556 67.0048 34.6218 66.2321 34.1279 65.7048C33.8829 65.441 33.6959 65.2398 33.5685 65.1026C33.4433 64.9661 33.3818 64.8938 33.3818 64.8938Z" fill="#203E44"/>
<path d="M33.6314 45.2366C33.631 45.2385 33.6145 45.2374 33.5821 45.2338C33.5435 45.2285 33.4968 45.2224 33.4395 45.2148C33.3144 45.1966 33.1303 45.167 32.8938 45.1241C32.6573 45.0829 32.3699 45.0199 32.034 44.9722C31.6978 44.9248 31.3112 44.8978 30.883 44.8745C29.1688 44.7883 26.8025 44.6171 24.1856 44.5928C22.8769 44.5818 21.6304 44.6188 20.5003 44.7035C19.3692 44.7811 18.3585 44.9314 17.515 45.0791C17.0949 45.1628 16.7125 45.2285 16.3833 45.3156C16.0527 45.397 15.7651 45.457 15.5366 45.5295C15.313 45.5927 15.1357 45.6428 15.0051 45.6798C14.9493 45.6943 14.9036 45.7064 14.866 45.7163C14.8343 45.7239 14.8178 45.7269 14.8174 45.725C14.8174 45.725 15.8118 45.3353 17.5004 45.0026C18.345 44.8447 19.3584 44.6858 20.4923 44.6025C21.6253 44.5118 22.8752 44.4719 24.1864 44.4827C26.8084 44.507 29.1751 44.6909 30.8877 44.7969C31.3163 44.8251 31.7045 44.8578 32.0429 44.9113C32.3815 44.9654 32.667 45.0345 32.902 45.0821C33.1299 45.1288 33.3104 45.1655 33.4433 45.1928C33.4997 45.2049 33.546 45.2146 33.584 45.2226C33.6157 45.23 33.6316 45.2347 33.6314 45.2366Z" fill="#203E44"/>
<path d="M36.0908 46.9867C36.0912 46.9905 36.0457 47 35.9593 47.0148C35.8731 47.0319 35.7441 47.044 35.5812 47.0791C35.2542 47.1385 34.7842 47.2498 34.2265 47.4534C33.6689 47.656 33.0266 47.9631 32.382 48.4103C31.7361 48.8531 31.0934 49.443 30.5515 50.1664C30.013 50.8933 29.6366 51.6801 29.4014 52.427C29.1678 53.1756 29.0632 53.8802 29.0427 54.4731C29.0203 55.0661 29.0607 55.5476 29.1089 55.8764C29.1556 56.2057 29.1932 56.3866 29.1831 56.3887C29.1795 56.3896 29.1668 56.3452 29.1461 56.2596C29.1281 56.1738 29.0905 56.0485 29.0666 55.883C29.0051 55.5543 28.9523 55.0699 28.9647 54.4703C28.9757 53.8712 29.0734 53.157 29.3044 52.397C29.5375 51.6387 29.9164 50.8385 30.4632 50.1007C31.0133 49.3663 31.6674 48.7703 32.3245 48.3267C32.9806 47.8784 33.6338 47.5753 34.2 47.38C34.7667 47.1841 35.243 47.0835 35.5742 47.0368C35.7389 47.0081 35.8693 47.0028 35.9566 46.9928C36.0443 46.985 36.0903 46.9829 36.0908 46.9867Z" fill="#203E44"/>
<g opacity="0.3">
<path d="M33.3815 64.894C35.2682 70.4804 42.8004 78.8303 42.8004 78.8303V74.1862C42.6937 74.3105 33.2394 65.0593 33.3815 64.894Z" fill="black"/>
</g>
<path d="M55.6686 70.0805C55.661 70.08 55.6555 69.9832 55.6523 69.8091C55.651 69.6349 55.6403 69.3828 55.6166 69.0727C55.595 68.7625 55.5485 68.395 55.4786 67.9902C55.4031 67.5865 55.3004 67.1463 55.1605 66.6936C54.8756 65.7882 54.4937 65.014 54.1788 64.478C54.0218 64.2098 53.8875 63.9962 53.7895 63.852C53.6933 63.7066 53.6428 63.624 53.6489 63.6193C53.6551 63.6149 53.7172 63.6889 53.8246 63.8273C53.9336 63.9642 54.0786 64.1726 54.2456 64.4379C54.5799 64.9673 54.9777 65.7453 55.2655 66.6606C55.4069 67.1184 55.5077 67.5641 55.5785 67.9729C55.6436 68.3825 55.6825 68.7547 55.6944 69.0679C55.7081 69.3809 55.707 69.6349 55.695 69.8095C55.6853 69.9845 55.6762 70.0809 55.6686 70.0805Z" fill="#203E44"/>
<path d="M58.3036 53.2514C58.3139 53.2228 60.218 53.8859 62.556 54.7322C64.8949 55.5787 66.7821 56.2877 66.7717 56.3165C66.7613 56.3451 64.8575 55.6821 62.5185 54.8357C60.1807 53.9895 58.293 53.2799 58.3036 53.2514Z" fill="#203E44"/>
<path d="M61.2002 51.8607C61.2002 52.1502 60.9605 52.3853 60.6649 52.3853C60.3694 52.3853 60.1295 52.1502 60.1295 51.8607C60.1295 51.5711 60.3694 51.3363 60.6649 51.3363C60.9605 51.3363 61.2002 51.5711 61.2002 51.8607Z" fill="#E4E8ED"/>
<path d="M61.2001 51.8607C61.1908 51.8609 61.188 51.8136 61.1623 51.7369C61.1371 51.6612 61.0796 51.5536 60.9634 51.4737C60.8507 51.3932 60.6721 51.3518 60.5007 51.4154C60.3308 51.474 60.1827 51.6515 60.1844 51.8607C60.1827 52.0697 60.3308 52.2473 60.5007 52.306C60.6721 52.3696 60.8507 52.3282 60.9634 52.2477C61.0796 52.1678 61.1371 52.0602 61.1623 51.9846C61.188 51.9078 61.1908 51.8605 61.2001 51.8607C61.2058 51.8603 61.2183 51.9083 61.2037 51.9953C61.1895 52.0807 61.1375 52.209 61.0097 52.3105C60.8858 52.4117 60.6764 52.4726 60.4671 52.4016C60.2602 52.3375 60.0719 52.1209 60.0742 51.8607C60.0721 51.6005 60.2602 51.3839 60.4671 51.3199C60.6762 51.2489 60.8858 51.3095 61.0097 51.411C61.1375 51.5124 61.1895 51.6407 61.2037 51.7261C61.2183 51.8132 61.2058 51.8611 61.2001 51.8607Z" fill="#203E44"/>
<path d="M7.56174 89.7604C7.55984 89.7606 7.5554 89.7361 7.54864 89.6881C7.54187 89.6344 7.53279 89.5641 7.52137 89.4749C7.49897 89.2804 7.46727 89.005 7.42669 88.654C7.3468 87.9337 7.23267 86.9036 7.0917 85.6332C6.8068 83.0769 6.41433 79.5565 5.98107 75.6681C5.5552 71.7742 5.20943 68.2449 4.99196 65.6876C4.88311 64.409 4.80069 63.3738 4.75102 62.6577C4.72714 62.305 4.70833 62.0286 4.69501 61.8333C4.69015 61.7437 4.68635 61.6729 4.68318 61.6187C4.68128 61.5704 4.68106 61.5454 4.68297 61.5454C4.68487 61.5452 4.68867 61.5697 4.69459 61.6179C4.7003 61.6718 4.70769 61.7424 4.7172 61.8316C4.73538 62.0264 4.76095 62.3025 4.79371 62.6544C4.85944 63.3757 4.95349 64.4079 5.06952 65.6807C5.30687 68.2356 5.66468 71.7626 6.09033 75.6561C6.5162 79.5483 6.90698 83.0721 7.16905 85.6249C7.29544 86.8968 7.39773 87.9284 7.46938 88.6495C7.50108 89.0017 7.52581 89.2777 7.54335 89.4728C7.55033 89.5622 7.55561 89.633 7.55984 89.6871C7.56301 89.7355 7.56364 89.7602 7.56174 89.7604Z" fill="#203E44"/>
<path d="M4.60299 60.6333C4.60489 60.6331 4.6087 60.6587 4.61419 60.7083C4.61969 60.7637 4.62666 60.8366 4.63575 60.9292C4.65308 61.1302 4.67738 61.4153 4.70866 61.7792C4.76615 62.5177 4.86295 63.5852 4.9794 64.9044C5.21759 67.5427 5.57794 71.1844 5.99958 75.2041C6.43263 79.2212 6.82468 82.8572 7.10916 85.4967C7.25224 86.8086 7.36827 87.8723 7.44922 88.6154C7.48726 88.9787 7.51685 89.2632 7.53777 89.4637C7.54622 89.5563 7.55299 89.6294 7.55827 89.6848C7.56208 89.7345 7.56334 89.7603 7.56144 89.7605C7.55954 89.7607 7.55468 89.7355 7.54707 89.6861C7.53925 89.6309 7.52889 89.5584 7.51579 89.4665C7.49001 89.2663 7.45344 88.9825 7.40673 88.6202C7.31733 87.8782 7.18947 86.8158 7.0318 85.5054C6.72302 82.8743 6.31153 79.2372 5.8901 75.2155C5.46846 71.1954 5.12016 67.5518 4.90184 64.9112C4.79532 63.5907 4.71035 62.5219 4.66597 61.7824C4.64357 61.4176 4.62603 61.1321 4.61377 60.9307C4.60912 60.8379 4.60553 60.7645 4.60299 60.709C4.60109 60.6591 4.60109 60.6335 4.60299 60.6333Z" fill="#203E44"/>
</svg>
