<svg width="33" height="40" viewBox="0 0 33 40" fill="none" xmlns="http://www.w3.org/2000/svg">
<g opacity="0.3">
<path opacity="0.3" d="M22.6964 8.20669C21.8079 8.20624 20.9559 7.84403 20.3276 7.19962C19.6993 6.55522 19.3461 5.68134 19.3457 4.77001V0H4.37291C3.79851 -4.06768e-08 3.22975 0.116056 2.69911 0.341554C2.16846 0.567051 1.68629 0.897564 1.28021 1.31421C0.874125 1.73086 0.552082 2.22548 0.33242 2.76982C0.112757 3.31416 -0.000213147 3.89757 3.01907e-07 4.48669V31.5217C-0.000213147 32.1109 0.112757 32.6943 0.33242 33.2386C0.552082 33.7829 0.874125 34.2776 1.28021 34.6942C1.68629 35.1108 2.16846 35.4414 2.69911 35.6669C3.22975 35.8924 3.79851 36.0084 4.37291 36.0084H22.3454C22.9198 36.0084 23.4886 35.8924 24.0192 35.6669C24.5499 35.4414 25.032 35.1108 25.4381 34.6942C25.8441 34.2776 26.1662 33.7829 26.3859 33.2386C26.6056 32.6943 26.7185 32.1109 26.7183 31.5217V8.20835L22.6964 8.20669Z" fill="#6871EC"/>
</g>
<path d="M26.7182 8.20669H22.6964C21.8078 8.20624 20.9558 7.84403 20.3275 7.19962C19.6992 6.55522 19.346 5.68134 19.3456 4.77001V0L26.7182 8.20669Z" fill="#6871EC"/>
<path d="M29.8902 28.4331H9.57119C8.12986 28.4331 6.96143 29.6315 6.96143 31.1098V37.3231C6.96143 38.8014 8.12986 39.9998 9.57119 39.9998H29.8902C31.3315 39.9998 32.4999 38.8014 32.4999 37.3231V31.1098C32.4999 29.6315 31.3315 28.4331 29.8902 28.4331Z" fill="#6871EC"/>
<path d="M13.6857 35.5615V36.7749H12.4622V35.5615H13.6857Z" fill="#F3F4F6"/>
<path d="M17.3178 31.7632V35.1865C17.3178 35.7121 17.1785 36.116 16.9001 36.3982C16.7447 36.5452 16.562 36.6586 16.363 36.7316C16.1639 36.8046 15.9526 36.8358 15.7415 36.8232C15.5104 36.8359 15.279 36.8015 15.0609 36.722C14.8428 36.6425 14.6422 36.5194 14.4707 36.3599C14.1577 36.0499 14.0006 35.6054 13.9995 35.0265H15.1679C15.1679 35.4949 15.3417 35.7282 15.6862 35.7282C15.9869 35.7282 16.1364 35.5482 16.1364 35.1899V31.7665L17.3178 31.7632Z" fill="#F3F4F6"/>
<path d="M19.2774 35.0165V36.7749H18.0961V31.7632H20.0103C20.5899 31.7632 21.0319 31.9104 21.3363 32.2049C21.4904 32.3597 21.6107 32.5462 21.6894 32.7522C21.7681 32.9582 21.8034 33.1789 21.7929 33.3999C21.7974 33.6911 21.7274 33.9784 21.5898 34.2332C21.4483 34.4817 21.2379 34.6812 20.9853 34.8065C20.6811 34.9546 20.3469 35.0266 20.0103 35.0165H19.2774ZM20.5904 33.3999C20.5904 32.9554 20.3532 32.7332 19.8787 32.7332H19.2774V34.0382H19.8787C20.3532 34.0426 20.5904 33.8299 20.5904 33.3999Z" fill="#F3F4F6"/>
<path d="M26.1755 32.1667C26.5689 32.4701 26.8337 32.9171 26.9149 33.415H25.6637C25.579 33.2406 25.4454 33.0961 25.2801 33C25.094 32.8866 24.8807 32.8289 24.6643 32.8334C24.4962 32.8263 24.3288 32.8573 24.1737 32.9242C24.0187 32.991 23.8799 33.092 23.7672 33.22C23.5289 33.5116 23.4075 33.8851 23.4276 34.265C23.4276 34.7417 23.5463 35.1078 23.7835 35.3634C23.9169 35.4961 24.0759 35.5987 24.2502 35.6647C24.4246 35.7307 24.6104 35.7586 24.7959 35.7467C25.061 35.7516 25.3206 35.668 25.5353 35.5084C25.7545 35.3404 25.9129 35.1023 25.9854 34.8317H24.492V33.96H26.9734V35.1584C26.8786 35.4567 26.7285 35.7334 26.5314 35.9734C26.3179 36.2319 26.0523 36.4401 25.753 36.5834C25.4146 36.7437 25.0451 36.8235 24.6724 36.8167C24.219 36.8289 23.7705 36.7179 23.3724 36.495C23.0082 36.285 22.7117 35.9704 22.5193 35.59C22.3125 35.1782 22.2091 34.7199 22.2186 34.2567C22.2105 33.7963 22.3138 33.3411 22.5193 32.9317C22.7114 32.5521 23.0065 32.2378 23.3691 32.0267C23.7614 31.8055 24.2037 31.6946 24.6512 31.705C25.1953 31.6807 25.7317 31.8432 26.1755 32.1667Z" fill="#F3F4F6"/>
<path d="M16.9489 24.4019H9.77124C9.06858 24.401 8.39494 24.1143 7.89808 23.6047C7.40123 23.0951 7.12171 22.4042 7.12085 21.6835V14.3219C7.12171 13.6012 7.40123 12.9103 7.89808 12.4007C8.39494 11.8911 9.06858 11.6044 9.77124 11.6035H16.9489C17.6514 11.6044 18.3248 11.8911 18.8214 12.4008C19.318 12.9104 19.5972 13.6013 19.5976 14.3219V21.6835C19.5972 22.4041 19.318 23.095 18.8214 23.6046C18.3248 24.1143 17.6514 24.401 16.9489 24.4019ZM9.77124 12.8052C9.37918 12.8056 9.00328 12.9656 8.72605 13.2499C8.44883 13.5342 8.2929 13.9198 8.29247 14.3219V21.6835C8.2929 22.0856 8.44883 22.4712 8.72605 22.7555C9.00328 23.0398 9.37918 23.1998 9.77124 23.2002H16.9489C17.3408 23.1998 17.7165 23.0398 17.9934 22.7554C18.2704 22.471 18.426 22.0855 18.426 21.6835V14.3219C18.426 13.9199 18.2704 13.5344 17.9934 13.25C17.7165 12.9656 17.3408 12.8056 16.9489 12.8052H9.77124Z" fill="#6871EC"/>
<path d="M19.0125 20.283V21.683C19.0121 22.2443 18.7945 22.7824 18.4076 23.1792C18.0206 23.5761 17.496 23.7993 16.9488 23.7997H9.77114C9.2238 23.7997 8.69888 23.5767 8.31185 23.1797C7.92483 22.7828 7.7074 22.2444 7.7074 21.683V19.333C8.85627 19.0797 10.6064 18.9997 12.7303 19.8697L14.0465 18.583L14.9435 20.9163C14.9435 20.9163 15.184 20.058 15.9607 20.1797C16.7375 20.3013 17.9953 20.733 18.5331 20.3647C18.6781 20.2789 18.8483 20.2499 19.0125 20.283Z" fill="#6871EC"/>
<path d="M16.4987 15.8247C16.9393 15.8247 17.2966 15.4583 17.2966 15.0063C17.2966 14.5544 16.9393 14.188 16.4987 14.188C16.058 14.188 15.7008 14.5544 15.7008 15.0063C15.7008 15.4583 16.058 15.8247 16.4987 15.8247Z" fill="#6871EC"/>
</svg>
