<svg width="180" height="121" viewBox="0 0 180 121" fill="none" xmlns="http://www.w3.org/2000/svg">
<mask id="mask0_23_5318" style="mask-type:luminance" maskUnits="userSpaceOnUse" x="21" y="2" width="138" height="118">
<path d="M158.068 2.46387H21.9312V119.842H158.068V2.46387Z" fill="white"/>
</mask>
<g mask="url(#mask0_23_5318)">
<path d="M95.9519 6.38506L97.1262 6.82652L96.1066 7.11574C95.7664 7.21215 95.4964 7.47178 95.3863 7.80798L95.0174 8.93557L94.5638 7.80462C94.4512 7.52395 94.2242 7.30428 93.9399 7.20116L92.9087 6.82652L94.0256 6.36767C94.2959 6.25662 94.5089 6.0391 94.6138 5.76635L95.0174 4.71777L95.307 5.69283C95.4015 6.01164 95.6404 6.26791 95.9519 6.38506Z" fill="#E4E7EC"/>
<path d="M129.203 35.0172L130.377 35.4587L129.358 35.7476C129.017 35.8443 128.747 36.1036 128.638 36.4398L128.268 37.5674L127.815 36.4365C127.702 36.1558 127.476 35.9361 127.191 35.833L126.16 35.4587L127.277 34.9995C127.547 34.8885 127.76 34.6709 127.865 34.3982L128.268 33.3496L128.558 34.3247C128.653 34.6438 128.891 34.9001 129.203 35.0172Z" fill="#E4E7EC"/>
<path d="M139.219 71.7874L140.393 72.2289L139.374 72.5181C139.034 72.6145 138.764 72.8741 138.653 73.2103L138.285 74.3379L137.831 73.207C137.718 72.926 137.491 72.7066 137.207 72.6035L136.176 72.2289L137.293 71.77C137.563 71.659 137.776 71.4414 137.881 71.1687L138.285 70.1201L138.574 71.0952C138.669 71.414 138.908 71.6703 139.219 71.7874Z" fill="#E4E7EC"/>
<path d="M120.301 60.8712L121.104 61.1732L120.407 61.3709C120.174 61.4371 119.989 61.6144 119.914 61.8444L119.661 62.616L119.351 61.8423C119.274 61.6501 119.119 61.5 118.924 61.4295L118.219 61.1732L118.983 60.8593C119.168 60.7833 119.313 60.6344 119.385 60.4477L119.661 59.7305L119.859 60.3974C119.924 60.6158 120.087 60.7909 120.301 60.8712Z" fill="#E4E7EC"/>
<path d="M57.4222 60.1983L58.2255 60.5004L57.5281 60.6981C57.2953 60.7643 57.1104 60.9415 57.0354 61.1716L56.7828 61.9431L56.4725 61.1694C56.3956 60.9772 56.2403 60.8271 56.0457 60.7566L55.3403 60.5004L56.1046 60.1864C56.2895 60.1102 56.435 59.9616 56.5067 59.7749L56.7828 59.0576L56.9811 59.7245C57.0458 59.943 57.209 60.1181 57.4222 60.1983Z" fill="#E4E7EC"/>
<path d="M48.173 85.1368L48.9763 85.4388L48.2789 85.6365C48.0461 85.7027 47.8612 85.88 47.7859 86.11L47.5336 86.8816L47.2233 86.1079C47.1461 85.9157 46.9911 85.7656 46.7965 85.6948L46.0908 85.4388L46.8551 85.1246C47.0402 85.0486 47.1858 84.9001 47.2575 84.7134L47.5336 83.9961L47.7316 84.663C47.7966 84.8815 47.9598 85.0566 48.173 85.1368Z" fill="#E4E7EC"/>
<path d="M62.3606 4.91076L63.5349 5.35222L62.5153 5.64113C62.1751 5.73784 61.9051 5.99717 61.795 6.33337L61.4261 7.46096L60.9725 6.33001C60.8599 6.04934 60.6329 5.82998 60.3489 5.72656L59.3174 5.35222L60.4346 4.89306C60.7049 4.78201 60.9176 4.56449 61.0225 4.29174L61.4261 3.24316L61.7157 4.21822C61.8105 4.53733 62.0491 4.79361 62.3606 4.91076Z" fill="#E4E7EC"/>
<path d="M143.114 111.696L144.288 112.137L143.269 112.426C142.928 112.523 142.658 112.782 142.548 113.119L142.179 114.246L141.725 113.115C141.613 112.834 141.386 112.615 141.102 112.512L140.07 112.137L141.188 111.678C141.458 111.567 141.67 111.35 141.775 111.077L142.179 110.028L142.469 111.003C142.563 111.322 142.802 111.579 143.114 111.696Z" fill="#E4E7EC"/>
<path d="M29.5989 80.1058L30.7735 80.5472L29.7536 80.8364C29.4134 80.9328 29.1434 81.1922 29.0336 81.5284L28.6644 82.656L28.2108 81.525C28.0982 81.2443 27.8715 81.025 27.5872 80.9216L26.5557 80.5472L27.6729 80.0884C27.9432 79.977 28.1558 79.7598 28.2608 79.4868L28.6644 78.4385L28.9539 79.4132C29.0488 79.7323 29.2874 79.9886 29.5989 80.1058Z" fill="#E4E7EC"/>
<path d="M107.587 22.4833L108.029 22.6496L107.645 22.7585C107.517 22.7951 107.415 22.8928 107.374 23.0194L107.235 23.444L107.064 23.0181C107.022 22.9123 106.936 22.8296 106.829 22.7909L106.44 22.6496L106.861 22.4769C106.963 22.4351 107.043 22.3531 107.083 22.2506L107.235 21.8555L107.344 22.2228C107.379 22.343 107.469 22.4394 107.587 22.4833Z" fill="#E4E7EC"/>
<path d="M116.088 42.2558L116.53 42.4221L116.146 42.531C116.018 42.5673 115.917 42.6652 115.875 42.7918L115.736 43.2165L115.565 42.7903C115.523 42.6847 115.437 42.6021 115.33 42.5633L114.942 42.4221L115.363 42.2494C115.465 42.2076 115.544 42.1255 115.584 42.0227L115.736 41.6279L115.845 41.9953C115.881 42.1152 115.971 42.2119 116.088 42.2558Z" fill="#E4E7EC"/>
<path d="M39.4831 64.1279L39.9255 64.2941L39.5414 64.403C39.4133 64.4394 39.3117 64.537 39.2702 64.6636L39.1311 65.0883L38.9602 64.6624C38.9178 64.5568 38.8324 64.4741 38.7253 64.4351L38.3369 64.2941L38.7576 64.1212C38.8595 64.0794 38.9395 63.9976 38.9791 63.8948L39.1311 63.5L39.2403 63.867C39.276 63.9872 39.3657 64.0836 39.4831 64.1279Z" fill="#E4E7EC"/>
<path d="M39.113 104.329L40.0887 104.696L39.2415 104.936C38.959 105.016 38.7344 105.231 38.6432 105.511L38.3366 106.448L37.9595 105.508C37.8661 105.275 37.6776 105.092 37.4415 105.007L36.5845 104.696L37.5125 104.314C37.7371 104.222 37.914 104.041 38.0013 103.815L38.3366 102.943L38.577 103.754C38.6557 104.018 38.854 104.231 39.113 104.329Z" fill="#E4E7EC"/>
<path d="M114.294 11.9895L114.942 12.2329L114.379 12.3925C114.191 12.4459 114.042 12.589 113.982 12.7745L113.778 13.3968L113.528 12.7726C113.465 12.6176 113.34 12.4965 113.184 12.4398L112.614 12.2329L113.231 11.9797C113.38 11.9184 113.497 11.7985 113.555 11.6478L113.778 11.0693L113.938 11.6072C113.99 11.7832 114.122 11.9248 114.294 11.9895Z" fill="#E4E7EC"/>
<path d="M49.1136 27.0793L49.7616 27.3231L49.199 27.4826C49.0111 27.536 48.8622 27.6791 48.8015 27.8646L48.598 28.487L48.3475 27.8628C48.2853 27.7078 48.1602 27.5867 48.0034 27.5296L47.4341 27.3231L48.0507 27.0699C48.1998 27.0085 48.317 26.8883 48.375 26.7379L48.598 26.1592L48.7575 26.6973C48.81 26.8734 48.9415 27.0149 49.1136 27.0793Z" fill="#E4E7EC"/>
<path d="M144.804 90.9426L145.452 91.1861L144.889 91.3456C144.701 91.399 144.553 91.5421 144.492 91.7276L144.288 92.35L144.038 91.7258C143.976 91.5708 143.851 91.4496 143.694 91.3929L143.125 91.1861L143.741 90.9328C143.89 90.8715 144.008 90.7516 144.066 90.6009L144.288 90.0225L144.448 90.5603C144.5 90.7364 144.632 90.8779 144.804 90.9426Z" fill="#E4E7EC"/>
<path d="M109.397 68.817C95.954 68.6913 83.7887 68.5778 74.9709 68.4951C70.5718 68.4747 67.0109 68.4579 64.5382 68.4463C63.3129 68.449 62.3596 68.4512 61.7012 68.4527C61.3836 68.457 61.1392 68.46 60.9638 68.4625C60.7975 68.4661 60.7124 68.4707 60.7124 68.4759C60.7124 68.4808 60.7975 68.4859 60.9635 68.4914C61.1389 68.4957 61.3836 68.5012 61.7012 68.5088C62.3593 68.5168 63.3126 68.5284 64.5376 68.5433C67.0103 68.5564 70.5715 68.575 74.9702 68.5982C83.7884 68.6037 95.9543 68.6113 109.398 68.6196C122.835 68.6184 135.002 68.6357 143.811 68.6989C148.215 68.7297 151.78 68.7703 154.243 68.8167C155.475 68.8395 156.431 68.8639 157.08 68.8884C157.728 68.9128 158.068 68.9375 158.068 68.961C158.068 68.9845 157.727 69.0058 157.079 69.0238C156.43 69.0418 155.474 69.0565 154.242 69.0674C151.778 69.0888 148.214 69.094 143.809 69.0809C135 69.0565 122.833 68.9524 109.397 68.817Z" fill="#EDF2FA"/>
<path d="M109.13 71.7647C95.8702 69.609 83.8712 67.6586 75.1739 66.2445C70.8316 65.5602 67.3164 65.0062 64.8751 64.6215C63.6645 64.4393 62.7224 64.2981 62.072 64.2001C61.7574 64.1565 61.5149 64.123 61.3413 64.0989C61.1762 64.0778 61.0914 64.0696 61.0908 64.0747C61.0902 64.0799 61.1732 64.0982 61.3361 64.1291C61.5091 64.1596 61.7498 64.2023 62.0622 64.2578C62.7111 64.3652 63.6511 64.5211 64.8586 64.7212C67.2993 65.1078 70.8139 65.6645 75.1555 66.3519C83.866 67.6885 95.883 69.5324 109.162 71.5698C122.436 73.5961 134.454 75.4498 143.145 76.8426C147.491 77.5382 151.005 78.1169 153.432 78.5352C154.645 78.7442 155.585 78.9129 156.222 79.0352C156.858 79.1579 157.19 79.2338 157.187 79.2576C157.183 79.2811 156.843 79.2512 156.199 79.1716C155.555 79.0913 154.608 78.962 153.389 78.7866C150.952 78.4363 147.43 77.9033 143.081 77.2254C134.383 75.8709 122.38 73.9293 109.13 71.7647Z" fill="#EDF2FA"/>
<path d="M108.389 74.6362C95.6451 70.4776 84.1123 66.7144 75.7523 63.9866C71.5754 62.646 68.1939 61.5609 65.8456 60.8073C64.6793 60.4427 63.772 60.1587 63.1453 59.9628C62.8418 59.8716 62.6081 59.8014 62.4403 59.7511C62.281 59.7053 62.1983 59.6843 62.1968 59.6892C62.195 59.694 62.2743 59.7252 62.4305 59.7804C62.5959 59.8371 62.8265 59.9162 63.1261 60.019C63.7497 60.2246 64.6521 60.5224 65.8124 60.9049C68.16 61.6603 71.5406 62.7483 75.7167 64.0915C84.1019 66.7443 95.6704 70.4038 108.454 74.4477C121.234 78.4797 132.801 82.1489 141.159 84.8547C145.337 86.2069 148.714 87.3167 151.042 88.1011C152.206 88.4935 153.108 88.8043 153.717 89.0228C154.325 89.2412 154.641 89.3675 154.633 89.3907C154.625 89.4136 154.294 89.3321 153.671 89.1549C153.049 88.9776 152.134 88.7049 150.959 88.3455C148.609 87.627 145.217 86.5617 141.032 85.2266C132.662 82.5577 121.124 78.8027 108.389 74.6362Z" fill="#EDF2FA"/>
<path d="M107.195 77.3556C95.2816 71.3006 84.5011 65.8213 76.687 61.8497C72.7788 59.8871 69.6151 58.2982 67.4182 57.195C66.3257 56.6562 65.4754 56.2367 64.8887 55.9475C64.6035 55.8108 64.3841 55.7056 64.227 55.6305C64.0769 55.5606 63.9991 55.5271 63.9966 55.5317C63.9942 55.5362 64.0674 55.5786 64.2126 55.6571C64.3667 55.7382 64.5818 55.8517 64.8613 55.9987C65.4434 56.2971 66.2869 56.7291 67.3706 57.2844C69.5666 58.3891 72.7291 59.9801 76.636 61.9458C84.4868 65.8481 95.3182 71.2322 107.287 77.1817C119.255 83.119 130.084 88.5123 137.899 92.4622C141.807 94.4364 144.962 96.0485 147.134 97.1788C148.22 97.7438 149.06 98.1883 149.626 98.4968C150.192 98.8055 150.484 98.9782 150.473 98.9993C150.461 99.0203 150.148 98.8891 149.562 98.6185C148.976 98.3479 148.117 97.9382 147.015 97.4034C144.81 96.3337 141.633 94.7628 137.717 92.8042C129.883 88.8884 119.097 83.4164 107.195 77.3556Z" fill="#EDF2FA"/>
<path d="M105.575 79.8596C94.7826 72.0689 85.0159 65.019 77.9364 59.9092C74.3923 57.3767 71.5229 55.3268 69.5304 53.9033C68.5383 53.2049 67.7658 52.6619 67.2328 52.2866C66.9732 52.1084 66.7734 51.9715 66.63 51.8729C66.4933 51.7811 66.4216 51.7362 66.4186 51.7405C66.4155 51.7445 66.4808 51.7976 66.6117 51.8973C66.7511 52.0007 66.9451 52.1454 67.1977 52.3333C67.7246 52.7162 68.4883 53.2711 69.4694 53.9841C71.461 55.4089 74.3285 57.4609 77.8711 59.9955C84.9982 65.0425 94.8305 72.0058 105.696 79.7006C116.561 87.3827 126.389 94.3548 133.473 99.4436C137.016 101.987 139.873 104.059 141.836 105.505C142.818 106.228 143.576 106.795 144.086 107.186C144.595 107.577 144.855 107.792 144.841 107.811C144.826 107.83 144.538 107.653 144.002 107.296C143.467 106.94 142.684 106.405 141.682 105.71C139.676 104.319 136.791 102.284 133.238 99.7548C126.13 94.6971 116.356 87.6536 105.575 79.8596Z" fill="#EDF2FA"/>
<path d="M103.574 82.0875C94.1598 72.7604 85.64 64.3203 79.4645 58.2024C76.3688 55.1653 73.8625 52.7063 72.122 50.999C71.2534 50.1591 70.5776 49.5059 70.1109 49.0547C69.883 48.8393 69.7075 48.6737 69.5818 48.555C69.4613 48.4436 69.3979 48.3881 69.3942 48.3918C69.3906 48.3954 69.4467 48.4577 69.5602 48.576C69.681 48.6993 69.85 48.8714 70.0691 49.095C70.5285 49.5532 71.1939 50.2165 72.0491 51.0692C73.7883 52.7777 76.2928 55.2382 79.3867 58.2774C85.6189 64.3404 94.2171 72.7052 103.719 81.9487C113.222 91.1802 121.815 99.5533 127.998 105.651C131.091 108.699 133.582 111.177 135.29 112.903C136.144 113.766 136.802 114.44 137.243 114.903C137.684 115.366 137.906 115.618 137.889 115.635C137.871 115.651 137.615 115.432 137.143 114.999C136.671 114.567 135.984 113.92 135.105 113.081C133.346 111.404 130.822 108.958 127.717 105.922C121.505 99.8517 112.977 91.4167 103.574 82.0875Z" fill="#EDF2FA"/>
<path d="M101.242 83.9846C93.435 73.3482 86.3695 63.7227 81.2483 56.7454C78.6762 53.2772 76.594 50.4695 75.1482 48.5197C74.4245 47.559 73.8613 46.8116 73.4726 46.2954C73.282 46.0482 73.1352 45.8582 73.0299 45.7218C72.9287 45.5933 72.8747 45.5293 72.8704 45.5323C72.8661 45.5354 72.9119 45.6052 73.0049 45.7392C73.1047 45.8795 73.2435 46.0751 73.4244 46.3289C73.8049 46.8509 74.3562 47.6069 75.0646 48.5783C76.5091 50.529 78.5892 53.3382 81.1589 56.8083C86.3454 63.7398 93.5002 73.3024 101.407 83.8696C109.318 94.4253 116.466 103.995 121.598 110.954C124.165 114.432 126.229 117.257 127.64 119.22C128.346 120.201 128.888 120.967 129.249 121.491C129.61 122.015 129.79 122.297 129.77 122.311C129.75 122.325 129.532 122.07 129.135 121.571C128.738 121.072 128.162 120.329 127.428 119.368C125.96 117.445 123.857 114.648 121.276 111.179C116.111 104.243 109.037 94.6217 101.242 83.9846Z" fill="#EDF2FA"/>
<path d="M98.634 85.5067C92.6342 73.8144 87.2046 63.2334 83.2694 55.5639C81.2866 51.7476 79.6816 48.658 78.5668 46.5126C78.0066 45.4537 77.5707 44.6299 77.2696 44.0609C77.121 43.7879 77.0066 43.5777 76.9245 43.4273C76.8452 43.2851 76.8022 43.2137 76.7973 43.2159C76.7927 43.2183 76.8263 43.2946 76.8967 43.4407C76.9724 43.5945 77.0786 43.8089 77.2159 44.0872C77.5078 44.6607 77.9307 45.4912 78.4737 46.5584C79.5867 48.7046 81.1893 51.7952 83.169 55.613C87.1769 63.2474 92.7056 73.7796 98.8153 85.418C104.931 97.046 110.452 107.584 114.402 115.237C116.377 119.062 117.961 122.166 119.04 124.319C119.578 125.396 119.991 126.235 120.263 126.807C120.536 127.38 120.668 127.686 120.646 127.697C120.624 127.707 120.449 127.422 120.137 126.869C119.825 126.316 119.376 125.495 118.805 124.434C117.664 122.312 116.037 119.229 114.046 115.411C110.061 107.776 104.621 97.1979 98.634 85.5067Z" fill="#EDF2FA"/>
<path d="M95.8123 86.612C91.78 74.1477 88.1312 62.8684 85.4864 54.6925C84.1462 50.6205 83.0613 47.324 82.308 45.0347C81.9257 43.9034 81.6286 43.0233 81.4236 42.4155C81.3208 42.1233 81.2417 41.8981 81.185 41.7367C81.1298 41.5845 81.0987 41.507 81.0935 41.5088C81.0886 41.5103 81.1093 41.5909 81.1551 41.7462C81.2051 41.9094 81.275 42.1373 81.3659 42.4332C81.5612 43.0443 81.844 43.9291 82.2076 45.0658C82.9594 47.3555 84.0415 50.6528 85.3787 54.726C88.1007 62.8779 91.856 74.1242 96.0054 86.5519C100.163 98.9701 103.91 110.221 106.571 118.383C107.903 122.463 108.965 125.77 109.681 128.061C110.039 129.207 110.311 130.098 110.487 130.705C110.663 131.312 110.743 131.635 110.72 131.642C110.696 131.65 110.57 131.341 110.351 130.747C110.132 130.154 109.822 129.274 109.43 128.139C108.647 125.869 107.539 122.576 106.19 118.501C103.491 110.352 99.8321 99.0729 95.8123 86.612Z" fill="#EDF2FA"/>
<path d="M92.8457 87.2709C90.8815 74.3454 89.1038 62.6484 87.8154 54.1698C87.1513 49.9438 86.6137 46.5223 86.2403 44.1466C86.0462 42.9708 85.8952 42.0561 85.7912 41.4243C85.7372 41.1201 85.6954 40.8858 85.6658 40.7177C85.6356 40.5588 85.6176 40.4779 85.6124 40.4785C85.6072 40.4794 85.6149 40.5618 85.635 40.7223C85.6579 40.8913 85.6902 41.1271 85.732 41.4331C85.826 42.0665 85.962 42.9833 86.1372 44.1618C86.5088 46.5378 87.0439 49.9596 87.705 54.1863C89.0733 62.653 90.9606 74.3335 93.0464 87.241C95.1414 100.14 97.0195 111.824 98.3268 120.291C98.9812 124.524 99.4947 127.952 99.8309 130.325C99.999 131.511 100.123 132.433 100.199 133.059C100.274 133.685 100.302 134.016 100.278 134.02C100.253 134.023 100.178 133.7 100.059 133.08C99.9389 132.46 99.7748 131.544 99.5719 130.363C99.1655 128.001 98.6051 124.58 97.9327 120.349C96.586 111.889 94.7985 100.191 92.8457 87.2709Z" fill="#EDF2FA"/>
<path d="M89.8094 87.4715C89.9302 74.4063 90.0397 62.583 90.1194 54.0128C90.1377 49.7377 90.1529 46.2768 90.1633 43.8733C90.1596 42.6826 90.1569 41.7564 90.1551 41.1166C90.1505 40.8075 90.1468 40.5699 90.1444 40.3996C90.1404 40.2379 90.1359 40.1553 90.1307 40.1553C90.1255 40.1553 90.12 40.238 90.1145 40.3993C90.1102 40.5699 90.1047 40.8075 90.0971 41.1163C90.0895 41.7561 90.0779 42.6823 90.0632 43.873C90.0513 46.2762 90.0343 49.7374 90.0132 54.0125C90.0129 62.583 90.0126 74.4066 90.0123 87.4724C90.0221 100.532 90.0117 112.357 89.9522 120.918C89.9232 125.199 89.8835 128.663 89.8375 131.057C89.8146 132.254 89.7902 133.184 89.7655 133.814C89.7408 134.444 89.7154 134.775 89.6913 134.775C89.6669 134.775 89.645 134.444 89.6261 133.813C89.6071 133.183 89.5913 132.253 89.5794 131.056C89.5559 128.662 89.5483 125.197 89.5589 120.916C89.5788 112.355 89.6782 100.53 89.8094 87.4715Z" fill="#EDF2FA"/>
<path d="M86.7757 87.2128C88.9851 74.3248 90.9846 62.6617 92.4341 54.2078C93.1355 49.9872 93.7035 46.5706 94.0977 44.1979C94.2841 43.0212 94.429 42.1054 94.5294 41.4732C94.5739 41.1672 94.6084 40.932 94.6331 40.7633C94.6545 40.6031 94.663 40.5204 94.6578 40.5195C94.6527 40.5189 94.6337 40.5998 94.602 40.7584C94.5709 40.9259 94.527 41.1599 94.4699 41.4638C94.3598 42.0944 94.2002 43.0078 93.9949 44.1818C93.5989 46.5541 93.0284 49.9705 92.3233 54.1904C90.9538 62.6568 89.0644 74.3373 86.9761 87.2442C84.8997 100.147 83.0002 111.827 81.5724 120.275C80.8595 124.5 80.2661 127.916 79.8374 130.274C79.6233 131.453 79.4503 132.367 79.3246 132.986C79.1989 133.605 79.1208 133.928 79.0967 133.924C79.072 133.92 79.1028 133.59 79.1845 132.964C79.2663 132.338 79.399 131.417 79.5784 130.233C79.9375 127.864 80.4836 124.44 81.1786 120.214C82.5667 111.759 84.5571 100.093 86.7757 87.2128Z" fill="#EDF2FA"/>
<path d="M83.8212 86.4955C88.0921 74.1069 91.9569 62.8956 94.7582 54.7691C96.1348 50.7087 97.2492 47.4214 98.0232 45.1387C98.3979 44.005 98.6892 43.1231 98.8903 42.5138C98.9839 42.2188 99.0559 41.9915 99.1078 41.8286C99.1551 41.6736 99.1765 41.5934 99.1716 41.5918C99.1664 41.59 99.1344 41.6672 99.0776 41.8188C99.0193 41.9796 98.9382 42.2041 98.8326 42.4952C98.6215 43.1014 98.3158 43.9788 97.9226 45.1064C97.147 47.3884 96.0298 50.6748 94.6502 54.7343C91.9261 62.8858 88.1681 74.1313 84.0153 86.5577C79.8746 98.9814 76.1068 110.226 73.3278 118.35C71.9394 122.413 70.7996 125.695 69.9939 127.958C69.5911 129.089 69.2717 129.966 69.0475 130.558C68.8229 131.15 68.693 131.456 68.6695 131.449C68.6457 131.441 68.7296 131.119 68.9114 130.514C69.0932 129.908 69.3733 129.019 69.7425 127.877C70.4802 125.593 71.5742 122.295 72.9453 118.227C75.6861 110.091 79.5424 98.8749 83.8212 86.4955Z" fill="#EDF2FA"/>
<path d="M81.0224 85.3366C87.2449 73.7547 92.8761 63.2738 96.9576 55.6765C98.9745 51.8773 100.608 48.8015 101.741 46.6656C102.295 45.6033 102.726 44.7768 103.023 44.2063C103.164 43.9292 103.272 43.7157 103.349 43.5628C103.421 43.4173 103.455 43.3414 103.45 43.3389C103.446 43.3368 103.402 43.4079 103.321 43.5491C103.238 43.6989 103.121 43.9082 102.97 44.1797C102.664 44.7457 102.22 45.5657 101.649 46.6195C100.513 48.7545 98.8787 51.8291 96.8587 55.6271C92.8484 63.2597 87.3154 73.7901 81.2014 85.4263C75.1001 97.0616 69.5576 107.589 65.4981 115.187C63.4693 118.987 61.8127 122.055 60.6512 124.166C60.0703 125.222 59.6136 126.039 59.2963 126.589C58.9794 127.139 58.8018 127.423 58.7801 127.412C58.7582 127.401 58.8933 127.096 59.1713 126.526C59.4492 125.957 59.8702 125.122 60.4197 124.05C61.5186 121.907 63.1334 118.818 65.1463 115.011C69.1704 107.395 74.7937 96.9079 81.0224 85.3366Z" fill="#EDF2FA"/>
<path d="M78.4449 83.7639C86.4537 73.2699 93.7013 63.7735 98.9549 56.8899C101.558 53.4437 103.665 50.6537 105.129 48.7164C105.847 47.7514 106.405 47.0006 106.791 46.4822C106.974 46.2299 107.115 46.0356 107.216 45.8962C107.31 45.7631 107.357 45.6936 107.352 45.6905C107.348 45.6875 107.293 45.7512 107.191 45.8785C107.084 46.0139 106.936 46.2028 106.743 46.4481C106.349 46.9606 105.779 47.7032 105.046 48.6572C103.581 50.5936 101.472 53.382 98.8658 56.8264C93.6769 63.7561 86.5187 73.3166 78.6085 83.8811C70.7104 94.4462 63.5431 104.002 58.3115 110.89C55.6963 114.335 53.5668 117.113 52.0795 119.022C51.336 119.977 50.7533 120.714 50.3515 121.209C49.9497 121.705 49.7288 121.958 49.709 121.943C49.6891 121.929 49.8716 121.649 50.238 121.128C50.6041 120.608 51.1539 119.847 51.869 118.872C53.2995 116.922 55.3909 114.117 57.9911 110.661C63.1907 103.751 70.4316 94.2469 78.4449 83.7639Z" fill="#EDF2FA"/>
<path d="M76.1517 81.8208C85.7423 72.6649 94.4217 64.3794 100.712 58.3738C103.836 55.3629 106.364 52.9256 108.12 51.2333C108.983 50.3885 109.655 49.731 110.119 49.2774C110.34 49.0559 110.511 48.885 110.633 48.763C110.747 48.6458 110.804 48.5839 110.8 48.5803C110.797 48.5766 110.733 48.6312 110.611 48.7416C110.484 48.8594 110.307 49.0232 110.077 49.2365C109.606 49.6834 108.924 50.3305 108.048 51.1622C106.291 52.8536 103.761 55.2894 100.635 58.2981C94.4007 64.3589 85.7994 72.7207 76.2948 81.9608C66.802 91.2034 58.1922 99.56 51.9218 105.573C48.7874 108.58 46.239 111.003 44.4646 112.664C43.5775 113.495 42.884 114.135 42.4078 114.563C41.9315 114.992 41.6731 115.209 41.6557 115.192C41.6383 115.175 41.8635 114.925 42.3086 114.466C42.7537 114.007 43.4188 113.339 44.2813 112.484C46.0062 110.774 48.521 108.319 51.6427 105.299C57.885 99.2585 66.5586 90.9648 76.1517 81.8208Z" fill="#EDF2FA"/>
<path d="M74.1973 79.5556C85.1367 71.9611 95.0361 65.0884 102.212 60.107C105.779 57.6047 108.666 55.5792 110.671 54.1728C111.66 53.469 112.428 52.921 112.959 52.543C113.213 52.3575 113.409 52.2148 113.549 52.1126C113.681 52.014 113.747 51.9615 113.744 51.9573C113.741 51.9533 113.669 51.9975 113.531 52.0882C113.387 52.1852 113.186 52.3203 112.925 52.4961C112.388 52.8664 111.61 53.4025 110.611 54.0916C108.605 55.4966 105.716 57.5202 102.147 60.0198C95.0184 65.0646 85.1837 72.0245 74.316 79.7154C63.4598 87.4106 53.6175 94.3641 46.4611 99.3562C42.8837 101.853 39.9787 103.861 37.9599 105.234C36.9507 105.92 36.163 106.448 35.6239 106.799C35.0851 107.15 34.795 107.325 34.7803 107.306C34.7663 107.286 35.0284 107.074 35.5415 106.688C36.0547 106.301 36.8186 105.742 37.8074 105.028C39.7846 103.599 42.6619 101.554 46.2289 99.0432C53.3618 94.0196 63.2576 87.1378 74.1973 79.5556Z" fill="#EDF2FA"/>
<path d="M72.6304 77.0214C84.6572 71.183 95.5405 65.8995 103.429 62.0698C107.355 60.1401 110.533 58.5784 112.74 57.4938C113.829 56.9486 114.676 56.5242 115.261 56.2314C115.542 56.0868 115.758 55.9754 115.913 55.8958C116.059 55.8186 116.133 55.7765 116.13 55.7719C116.128 55.7673 116.05 55.8 115.899 55.8686C115.741 55.9424 115.52 56.0456 115.234 56.1792C114.645 56.4635 113.79 56.8748 112.692 57.4032C110.485 58.4862 107.306 60.0458 103.379 61.9725C95.5264 65.872 84.6929 71.2522 72.7219 77.1974C60.7614 83.1487 49.9217 88.5216 42.0505 92.3647C38.1152 94.2874 34.9228 95.8287 32.7079 96.8778C31.6007 97.4023 30.7377 97.8038 30.1488 98.0689C29.56 98.3337 29.2452 98.4621 29.2342 98.4408C29.2229 98.4194 29.5161 98.2492 30.0851 97.9456C30.6538 97.6424 31.4982 97.2055 32.5898 96.6502C34.7727 95.54 37.9435 93.957 41.8705 92.0188C49.7237 88.1408 60.6049 82.8479 72.6304 77.0214Z" fill="#EDF2FA"/>
<path d="M71.4918 74.2793C84.3136 70.3526 95.9169 66.7992 104.328 64.2237C108.517 62.9185 111.908 61.862 114.263 61.1283C115.426 60.7564 116.332 60.4669 116.957 60.2671C117.258 60.167 117.489 60.0901 117.655 60.0349C117.812 59.9809 117.892 59.951 117.89 59.9461C117.888 59.9409 117.806 59.9614 117.646 60.0059C117.478 60.0547 117.243 60.1227 116.939 60.2109C116.31 60.4013 115.4 60.6768 114.231 61.031C111.875 61.7629 108.483 62.817 104.293 64.1187C95.9071 66.7693 84.338 70.4264 71.5534 74.4672C58.7789 78.516 47.2043 82.1645 38.8089 84.7562C34.6116 86.0531 31.2093 87.0874 28.8522 87.7845C27.6736 88.1329 26.7566 88.3977 26.132 88.5692C25.5078 88.7406 25.1759 88.8193 25.1686 88.7965C25.161 88.7736 25.4779 88.6503 26.0887 88.4374C26.6995 88.2247 27.6044 87.9221 28.772 87.5407C31.1074 86.778 34.495 85.6995 38.6869 84.3859C47.07 81.7572 58.6727 78.1942 71.4918 74.2793Z" fill="#EDF2FA"/>
<path d="M70.8107 71.3968C84.1088 69.4796 96.1429 67.7446 104.866 66.487C109.214 65.839 112.734 65.3143 115.178 64.95C116.388 64.7606 117.329 64.6132 117.979 64.5116C118.292 64.4591 118.533 64.4186 118.705 64.3896C118.869 64.3603 118.953 64.3426 118.952 64.3374C118.951 64.3325 118.866 64.3398 118.701 64.3594C118.527 64.3819 118.284 64.4134 117.97 64.4543C117.318 64.5461 116.375 64.6791 115.162 64.8499C112.718 65.2124 109.197 65.7347 104.849 66.3799C96.1383 67.7147 84.121 69.5565 70.8415 71.592C57.5703 73.6361 45.5494 75.469 36.8389 76.7446C32.4838 77.3834 28.9567 77.8844 26.516 78.2127C25.2957 78.3768 24.3472 78.4976 23.7029 78.5718C23.0585 78.6459 22.718 78.6727 22.7144 78.6492C22.7107 78.6254 23.0436 78.5522 23.6815 78.4357C24.3191 78.3188 25.2615 78.159 26.4764 77.961C28.9064 77.5647 32.4265 77.0177 36.7785 76.3617C45.4829 75.0474 57.5179 73.3029 70.8107 71.3968Z" fill="#EDF2FA"/>
<path d="M70.6029 68.4459C84.0458 68.5554 96.2111 68.6542 105.029 68.7262C109.428 68.7415 112.989 68.754 115.462 68.7625C116.687 68.7583 117.64 68.7549 118.298 68.7528C118.616 68.7482 118.861 68.7445 119.036 68.7421C119.202 68.7381 119.287 68.7335 119.287 68.7284C119.287 68.7235 119.203 68.7183 119.036 68.7128C118.861 68.7091 118.616 68.7036 118.299 68.6966C117.641 68.6893 116.687 68.6789 115.462 68.6652C112.99 68.6554 109.428 68.6408 105.029 68.6231C96.2111 68.628 84.0455 68.6353 70.602 68.6432C57.1651 68.6606 44.9971 68.6582 36.1884 68.6054C31.7842 68.5801 28.2196 68.5435 25.7563 68.5005C24.5247 68.4788 23.5682 68.4556 22.9199 68.4321C22.2713 68.4083 21.9312 68.3839 21.9312 68.3604C21.9312 68.3369 22.2716 68.3153 22.9202 68.2964C23.5692 68.2778 24.5256 68.2619 25.7572 68.2494C28.2211 68.225 31.7857 68.2155 36.1899 68.2234C44.9989 68.2372 57.1666 68.3266 70.6029 68.4459Z" fill="#EDF2FA"/>
<path d="M70.8669 65.4972C84.1289 67.6365 96.1307 69.5722 104.83 70.9753C109.173 71.6544 112.689 72.2042 115.13 72.5859C116.341 72.7665 117.283 72.9068 117.934 73.0035C118.249 73.0468 118.491 73.0801 118.665 73.1039C118.83 73.1249 118.914 73.1329 118.915 73.128C118.916 73.1228 118.833 73.1045 118.67 73.074C118.497 73.0435 118.256 73.0011 117.944 72.9462C117.295 72.8394 116.355 72.6847 115.147 72.4861C112.706 72.1026 109.19 71.5501 104.848 70.8679C96.1356 69.5423 84.1161 67.7133 70.8346 65.6922C57.5579 63.6823 45.5378 61.8435 36.8444 60.4612C32.4979 59.7711 28.9824 59.1966 26.556 58.7814C25.3427 58.5739 24.4018 58.4064 23.7651 58.2847C23.1281 58.163 22.7959 58.0873 22.7998 58.0635C22.8035 58.04 23.1437 58.0696 23.7874 58.1486C24.4314 58.2276 25.379 58.3561 26.5978 58.5297C29.0355 58.8769 32.5583 59.4056 36.9082 60.0783C45.6077 61.4222 57.6131 63.3491 70.8669 65.4972Z" fill="#EDF2FA"/>
<path d="M71.6031 62.6255C84.3529 66.7686 95.8909 70.5175 104.254 73.2352C108.433 74.5702 111.816 75.6511 114.165 76.402C115.332 76.7653 116.239 77.0478 116.866 77.2431C117.17 77.334 117.404 77.4039 117.572 77.4539C117.731 77.4997 117.814 77.5207 117.816 77.5158C117.817 77.5106 117.738 77.4798 117.582 77.4246C117.416 77.3682 117.185 77.2895 116.886 77.1869C116.262 76.9822 115.359 76.6854 114.198 76.3043C111.85 75.5517 108.467 74.4683 104.29 73.1299C95.901 70.4876 84.3279 66.8424 71.5393 62.8144C58.7535 58.7982 47.1813 55.1433 38.8205 52.4476C34.6399 51.1006 31.2614 49.9953 28.9327 49.2134C27.7682 48.8229 26.866 48.5132 26.2574 48.2954C25.6481 48.0776 25.3321 47.9516 25.34 47.9287C25.3476 47.9055 25.6789 47.9866 26.3019 48.163C26.9249 48.3393 27.8399 48.6112 29.0157 48.969C31.3666 49.6847 34.7601 50.7458 38.9465 52.0757C47.3198 54.7342 58.863 58.4752 71.6031 62.6255Z" fill="#EDF2FA"/>
<path d="M72.7941 59.9053C84.7147 65.9456 95.5025 71.4115 103.322 75.3737C107.232 77.3314 110.398 78.9166 112.596 80.0171C113.69 80.5546 114.54 80.9726 115.128 81.2612C115.413 81.3976 115.633 81.5025 115.79 81.5776C115.94 81.6471 116.018 81.6807 116.02 81.6761C116.023 81.6715 115.95 81.6291 115.804 81.5507C115.65 81.4699 115.435 81.3567 115.155 81.2099C114.572 80.9125 113.729 80.4814 112.644 79.9277C110.447 78.8254 107.282 77.238 103.373 75.2776C95.5169 71.3847 84.6784 66.014 72.7017 60.0795C60.7262 54.1568 49.8902 48.7767 42.0699 44.8365C38.1594 42.8669 35.002 41.2588 32.8286 40.1315C31.7419 39.5677 30.9008 39.1241 30.3345 38.8162C29.7683 38.5081 29.4763 38.336 29.4876 38.3147C29.4989 38.2936 29.8125 38.4248 30.3992 38.6945C30.9856 38.9645 31.845 39.3727 32.9479 39.9063C35.1537 40.9732 38.3326 42.5404 42.2515 44.4942C50.09 48.4005 60.8842 53.8591 72.7941 59.9053Z" fill="#EDF2FA"/>
<path d="M74.4105 57.3992C85.2129 65.1762 94.9887 72.2142 102.075 77.3155C105.622 79.8434 108.494 81.8899 110.489 83.311C111.482 84.0078 112.255 84.5503 112.788 84.9246C113.048 85.1025 113.248 85.2395 113.391 85.3377C113.528 85.4292 113.6 85.4744 113.603 85.4701C113.606 85.4658 113.541 85.4131 113.41 85.3136C113.27 85.2102 113.076 85.0656 112.823 84.8782C112.296 84.4957 111.532 83.9419 110.55 83.2302C108.556 81.8079 105.686 79.7595 102.14 77.2292C95.0064 72.1907 85.1653 65.2396 74.2903 57.5582C63.4146 49.889 53.5774 42.9291 46.4869 37.8488C42.9412 35.3096 40.0814 33.2414 38.116 31.7974C37.1333 31.0753 36.374 30.5097 35.8642 30.1195C35.3544 29.7292 35.0939 29.5148 35.1085 29.4956C35.1231 29.4763 35.4117 29.6533 35.9478 30.0087C36.4838 30.3644 37.267 30.8983 38.2704 31.5927C40.2775 32.9815 43.1655 35.0124 46.7219 37.5373C53.8361 42.5864 63.6193 49.6177 74.4105 57.3992Z" fill="#EDF2FA"/>
<path d="M76.4078 55.1684C85.8344 64.4835 94.3651 72.9136 100.548 79.0242C103.648 82.0573 106.158 84.513 107.9 86.2184C108.77 87.0571 109.446 87.7096 109.914 88.1603C110.142 88.375 110.317 88.5407 110.443 88.6594C110.564 88.7707 110.628 88.8256 110.631 88.8223C110.635 88.8186 110.579 88.7564 110.465 88.6383C110.344 88.5151 110.175 88.343 109.956 88.1197C109.496 87.6623 108.829 86.9997 107.973 86.1482C106.232 84.4419 103.724 81.9844 100.626 78.9488C94.3859 72.8932 85.777 64.539 76.2638 55.3072C66.7479 46.0872 58.1442 37.7245 51.9531 31.6344C48.8568 28.5903 46.3628 26.1148 44.6525 24.3914C43.7973 23.5298 43.1377 22.8562 42.6966 22.3937C42.2554 21.9312 42.0324 21.6798 42.0498 21.663C42.0672 21.6462 42.324 21.865 42.7966 22.2973C43.2692 22.7296 43.9572 23.3754 44.8373 24.2132C46.5977 25.8884 49.1256 28.3312 52.2347 31.3629C58.4542 37.4258 66.9932 45.8505 76.4078 55.1684Z" fill="#EDF2FA"/>
<path d="M78.7378 53.2674C86.5589 63.8944 93.6366 73.5113 98.7669 80.4822C101.343 83.947 103.429 86.7523 104.878 88.7002C105.603 89.66 106.167 90.4069 106.556 90.9228C106.747 91.1696 106.894 91.3597 107 91.4957C107.101 91.6239 107.155 91.6879 107.159 91.6852C107.163 91.6821 107.118 91.612 107.025 91.4783C106.925 91.3383 106.785 91.1427 106.604 90.8889C106.223 90.3675 105.671 89.6121 104.961 88.6416C103.514 86.6928 101.431 83.886 98.8563 80.4196C93.661 73.4942 86.4937 63.9401 78.5733 53.3827C70.6488 42.8365 63.4881 33.2754 58.3471 26.3235C55.7759 22.8482 53.708 20.0259 52.2942 18.0648C51.5874 17.0843 51.0437 16.3191 50.6822 15.7956C50.3203 15.2721 50.1403 14.9902 50.1602 14.9761C50.1803 14.9621 50.3991 15.2168 50.7966 15.7154C51.1941 16.2139 51.7704 16.9558 52.506 17.9165C53.9768 19.8374 56.0831 22.6325 58.6693 26.0974C63.8426 33.0265 70.9291 42.6397 78.7378 53.2674Z" fill="#EDF2FA"/>
<path d="M81.3442 51.7428C87.3593 63.4279 92.8026 74.0021 96.748 81.6668C98.7359 85.4807 100.345 88.5684 101.462 90.7122C102.024 91.7706 102.461 92.594 102.763 93.1624C102.912 93.4351 103.026 93.6453 103.109 93.7957C103.188 93.9376 103.231 94.0093 103.236 94.0069C103.241 94.0047 103.207 93.9285 103.136 93.782C103.06 93.6286 102.954 93.4144 102.816 93.1362C102.524 92.5632 102.1 91.7331 101.555 90.6665C100.44 88.5217 98.8329 85.4331 96.848 81.6177C92.8304 73.9884 87.2879 63.463 81.1633 51.8319C75.032 40.2115 69.4972 29.6803 65.5378 22.0327C63.5572 18.2091 61.9689 15.1076 60.8883 12.9555C60.3477 11.8798 59.9343 11.0414 59.6612 10.4694C59.3882 9.89706 59.2558 9.59106 59.2777 9.58038C59.2997 9.5694 59.4751 9.85435 59.7878 10.4069C60.1002 10.9597 60.5506 11.78 61.1223 12.8405C62.2664 14.9615 63.897 18.0422 65.8938 21.8576C69.8889 29.4875 75.3417 40.0593 81.3442 51.7428Z" fill="#EDF2FA"/>
<path d="M84.1644 50.6348C88.2129 63.0942 91.8763 74.3689 94.5318 82.5415C95.8772 86.612 96.9667 89.9072 97.723 92.1953C98.1065 93.326 98.4048 94.2061 98.6108 94.8136C98.7139 95.1058 98.7932 95.3307 98.85 95.4921C98.9058 95.6443 98.9366 95.7215 98.9418 95.72C98.947 95.7181 98.9259 95.6379 98.8802 95.4826C98.8298 95.3194 98.7596 95.0915 98.6684 94.7956C98.4723 94.1851 98.1882 93.3006 97.823 92.1639C97.0686 89.8754 95.9819 86.5793 94.6395 82.5079C91.9068 74.3594 88.1369 63.1177 83.971 50.6952C79.7971 38.2822 76.0357 27.0356 73.3635 18.8779C72.0263 14.7992 70.9603 11.4933 70.2412 9.20304C69.8818 8.05775 69.6091 7.1666 69.4321 6.55979C69.2552 5.95297 69.1743 5.6305 69.1978 5.62317C69.2213 5.61585 69.3482 5.92399 69.5676 6.51768C69.7873 7.11107 70.0987 7.99033 70.492 9.12494C71.2785 11.3942 72.3902 14.6857 73.7445 18.7589C76.4546 26.905 80.1281 38.1788 84.1644 50.6348Z" fill="#EDF2FA"/>
<path d="M87.1302 49.9721C89.1111 62.8952 90.9038 74.5897 92.2035 83.0665C92.8732 87.2919 93.4153 90.7128 93.7918 93.0882C93.9873 94.2634 94.1393 95.178 94.2442 95.8096C94.2988 96.1137 94.3406 96.3481 94.3705 96.5162C94.4007 96.6751 94.419 96.756 94.4242 96.7553C94.4294 96.7544 94.4218 96.6721 94.4013 96.5116C94.3781 96.3426 94.3458 96.107 94.3034 95.8007C94.2088 95.1677 94.0712 94.2509 93.8946 93.0727C93.5199 90.697 92.9802 87.276 92.3136 83.05C90.9346 74.5851 89.0321 62.9068 86.9295 50.002C84.8174 37.1051 82.9243 25.4234 81.6061 16.9585C80.9462 12.7264 80.4281 9.29876 80.0889 6.92703C79.9192 5.74117 79.7942 4.8192 79.7176 4.19286C79.641 3.56683 79.6132 3.23611 79.6373 3.23245C79.6618 3.22879 79.7371 3.55218 79.8576 4.17211C79.9781 4.79174 80.1435 5.70761 80.3479 6.88829C80.757 9.24964 81.322 12.6703 82.0002 16.8997C83.3576 25.3587 85.1603 37.0539 87.1302 49.9721Z" fill="#EDF2FA"/>
<path d="M90.1659 49.7673C90.0616 62.8326 89.9673 74.6561 89.8993 83.2263C89.8862 87.5014 89.8755 90.9626 89.8682 93.3658C89.8734 94.5565 89.8773 95.4831 89.8801 96.1228C89.8849 96.4316 89.8889 96.6692 89.8914 96.8398C89.8956 97.0012 89.9005 97.0838 89.9057 97.0838C89.9109 97.0838 89.9161 97.0012 89.9216 96.8398C89.9255 96.6692 89.9307 96.4316 89.9377 96.1228C89.9447 95.4831 89.9551 94.5568 89.9682 93.3661C89.9771 90.9626 89.9896 87.5017 90.0051 83.2266C89.9942 74.6561 89.9792 62.8323 89.9627 49.7667C89.9362 36.7075 89.9313 24.8818 89.9798 16.3208C90.0033 12.0402 90.0384 8.57594 90.0814 6.18163C90.1028 4.98478 90.126 4.05519 90.1498 3.42489C90.1739 2.79458 90.1986 2.46356 90.223 2.46387C90.2471 2.46387 90.2697 2.79488 90.2895 3.4255C90.309 4.0558 90.3261 4.98539 90.3395 6.18255C90.3664 8.57686 90.3783 12.0414 90.3728 16.322C90.3642 24.8833 90.28 36.7087 90.1659 49.7673Z" fill="#EDF2FA"/>
<path d="M93.2002 50.0222C91.0078 62.913 89.0239 74.5785 87.5857 83.0342C86.8898 87.2557 86.3263 90.6729 85.9352 93.0462C85.7503 94.2232 85.6066 95.1391 85.5071 95.7715C85.4629 96.0772 85.4287 96.3127 85.4043 96.4815C85.383 96.6416 85.3747 96.7243 85.3799 96.7249C85.3851 96.7258 85.4037 96.645 85.4351 96.4863C85.4663 96.3185 85.5099 96.0845 85.5663 95.7807C85.6759 95.1498 85.8342 94.2363 86.038 93.0621C86.4309 90.6894 86.9972 87.2725 87.6961 83.0513C89.0547 74.5831 90.9288 62.9004 92.9997 49.9908C95.0594 37.086 96.9433 25.4031 98.3601 16.9531C99.0673 12.7283 99.6561 9.31136 100.082 6.95275C100.295 5.77359 100.466 4.85864 100.591 4.23993C100.716 3.62091 100.793 3.29783 100.818 3.30179C100.842 3.30545 100.812 3.63586 100.731 4.26159C100.65 4.88732 100.519 5.80837 100.341 6.99302C99.985 9.36261 99.4434 12.7869 98.7539 17.0148C97.3768 25.4705 95.402 37.1397 93.2002 50.0222Z" fill="#EDF2FA"/>
<path d="M96.1556 50.7358C91.9012 63.1299 88.0513 74.346 85.2604 82.4759C83.8893 86.5384 82.7794 89.8269 82.0085 92.1105C81.6354 93.2445 81.3452 94.1271 81.1448 94.7367C81.0514 95.0317 80.9797 95.259 80.9282 95.4222C80.8812 95.5772 80.8598 95.6574 80.865 95.6589C80.8699 95.6605 80.9016 95.5836 80.9584 95.4316C81.0166 95.2709 81.0972 95.0463 81.2024 94.755C81.413 94.1488 81.7177 93.2707 82.1092 92.1425C82.8816 89.8596 83.9943 86.572 85.3687 82.5107C88.0818 74.3558 91.8252 63.1058 95.9615 50.6739C100.085 38.245 103.839 26.9959 106.607 18.8684C107.99 14.8044 109.125 11.5202 109.928 9.25642C110.329 8.12456 110.647 7.24744 110.871 6.65557C111.095 6.0634 111.224 5.75618 111.248 5.76381C111.271 5.77144 111.188 6.0933 111.007 6.6989C110.826 7.30449 110.547 8.19412 110.179 9.33666C109.445 11.6224 108.355 14.9209 106.989 18.9905C104.26 27.1301 100.418 38.3512 96.1556 50.7358Z" fill="#EDF2FA"/>
<path d="M98.9554 51.892C92.7485 63.4819 87.1312 73.9698 83.0596 81.5719C81.0475 85.3739 79.4187 88.4519 78.288 90.589C77.7355 91.6519 77.306 92.479 77.0091 93.0498C76.8694 93.3271 76.7614 93.5407 76.6842 93.6935C76.6128 93.8394 76.5783 93.9153 76.5829 93.9175C76.5878 93.9199 76.6314 93.8488 76.712 93.7073C76.7953 93.5575 76.9112 93.3482 77.0622 93.0764C77.3679 92.5098 77.8109 91.6894 78.3799 90.6351C79.5127 88.4986 81.1436 85.4218 83.1584 81.6213C87.1587 73.9835 92.6777 63.4465 98.7763 51.8026C104.863 40.16 110.391 29.6251 114.44 22.0221C116.464 18.2204 118.117 15.1506 119.276 13.0373C119.855 11.9808 120.311 11.1635 120.627 10.6128C120.943 10.0621 121.121 9.77839 121.142 9.78937C121.164 9.80035 121.03 10.1051 120.752 10.6753C120.475 11.2455 120.055 12.0812 119.507 13.1532C118.411 15.2977 116.8 18.3885 114.793 22.1984C110.779 29.8191 105.169 40.3131 98.9554 51.892Z" fill="#EDF2FA"/>
<path d="M101.535 53.4603C93.5401 63.9644 86.3047 73.4699 81.0606 80.36C78.4616 83.8095 76.3581 86.602 74.897 88.5411C74.1807 89.5067 73.623 90.2584 73.2383 90.7774C73.0552 91.0297 72.9146 91.2243 72.8136 91.3638C72.7193 91.4968 72.6732 91.5666 72.6775 91.5697C72.6818 91.5727 72.7364 91.509 72.8386 91.3815C72.9448 91.246 73.0933 91.0568 73.2859 90.8113C73.6791 90.2984 74.2484 89.5552 74.9803 88.6003C76.4426 86.6621 78.5483 83.8709 81.1497 80.4234C86.3292 73.487 93.4752 63.918 101.371 53.3438C109.256 42.7689 116.411 33.2036 121.633 26.3096C124.244 22.8618 126.37 20.081 127.854 18.1699C128.597 17.2144 129.178 16.4764 129.579 15.9806C129.98 15.4849 130.201 15.2316 130.221 15.2457C130.241 15.2597 130.059 15.5404 129.693 16.0618C129.328 16.5826 128.779 17.3443 128.065 18.32C126.637 20.2716 124.55 23.0796 121.954 26.5378C116.763 33.4547 109.535 42.9678 101.535 53.4603Z" fill="#EDF2FA"/>
<path d="M103.831 55.4008C94.2525 64.5683 85.5841 72.8644 79.3009 78.878C76.1817 81.8925 73.6565 84.3332 71.9032 86.0276C71.0407 86.8733 70.3698 87.5317 69.9067 87.986C69.6855 88.2078 69.5153 88.3786 69.3932 88.501C69.2788 88.6184 69.2221 88.6803 69.2258 88.6837C69.2294 88.6874 69.2935 88.6327 69.4149 88.5223C69.5415 88.4045 69.7185 88.2401 69.9482 88.0265C70.4186 87.5793 71.0999 86.9313 71.9755 86.0984C73.73 84.4049 76.257 81.966 79.3784 78.9536C85.6049 72.8849 94.1954 64.5124 103.688 55.2607C113.169 46.0066 121.767 37.6393 128.03 31.6185C131.16 28.6076 133.706 26.1818 135.478 24.5185C136.364 23.6869 137.057 23.0456 137.532 22.6163C138.008 22.1874 138.266 21.9705 138.284 21.9872C138.301 22.0043 138.076 22.2539 137.632 22.7136C137.187 23.1731 136.523 23.8421 135.661 24.6982C133.939 26.4101 131.427 28.8684 128.309 31.8918C122.075 37.9401 113.412 46.2448 103.831 55.4008Z" fill="#EDF2FA"/>
<path d="M105.789 57.6645C94.8592 65.2724 84.9687 72.1572 77.7995 77.1478C74.2358 79.6541 71.3509 81.6832 69.3474 83.0921C68.3604 83.7974 67.5922 84.346 67.062 84.7249C66.8079 84.9107 66.6126 85.0538 66.4723 85.1563C66.3408 85.2548 66.2749 85.3073 66.2779 85.3116C66.281 85.3155 66.353 85.2713 66.4906 85.1804C66.6346 85.0834 66.8356 84.9476 67.0965 84.7716C67.6331 84.4006 68.4096 83.8636 69.4081 83.1735C71.4122 81.7659 74.2986 79.7386 77.8641 77.2344C84.9864 72.181 94.8119 65.2089 105.67 57.5046C116.516 49.796 126.349 42.8303 133.499 37.8294C137.073 35.3283 139.975 33.3169 141.992 31.9415C143 31.2539 143.788 30.7255 144.326 30.3734C144.864 30.0213 145.155 29.8462 145.169 29.8657C145.183 29.8849 144.921 30.0979 144.409 30.4844C143.896 30.8713 143.133 31.432 142.145 32.1472C140.17 33.578 137.295 35.6267 133.731 38.1424C126.605 43.1745 116.719 50.0685 105.789 57.6645Z" fill="#EDF2FA"/>
<path d="M107.359 60.1964C95.3401 66.0498 84.4635 71.3469 76.5795 75.1864C72.6568 77.1207 69.4808 78.687 67.2754 79.774C66.1871 80.3204 65.3402 80.7457 64.7554 81.0395C64.475 81.1844 64.2587 81.2961 64.104 81.376C63.9582 81.4535 63.8843 81.4953 63.8868 81.4999C63.8892 81.5047 63.9676 81.4718 64.118 81.4032C64.2761 81.329 64.4963 81.2256 64.7825 81.0914C65.3719 80.8067 66.2256 80.3942 67.3226 79.8643C69.5287 78.7785 72.7059 77.2149 76.6302 75.2838C84.4776 71.3741 95.3038 65.9805 107.267 60.0204C119.22 54.0541 130.052 48.6681 137.918 44.8149C141.851 42.8877 145.042 41.3421 147.255 40.2905C148.361 39.7645 149.224 39.3618 149.812 39.0961C150.401 38.8304 150.716 38.7016 150.727 38.723C150.738 38.7443 150.445 38.9149 149.877 39.2191C149.308 39.5232 148.464 39.9613 147.373 40.5178C145.192 41.6308 142.023 43.2178 138.099 45.1609C130.251 49.0486 119.377 54.3549 107.359 60.1964Z" fill="#EDF2FA"/>
<path d="M108.501 62.9364C95.6842 66.879 84.0858 70.4467 75.6786 73.0329C71.4913 74.3435 68.1015 75.404 65.7477 76.1408C64.5844 76.5142 63.6793 76.8047 63.0541 77.0054C62.7536 77.1058 62.5224 77.183 62.3564 77.2382C62.1996 77.2925 62.1203 77.3227 62.1221 77.3276C62.1236 77.3325 62.2063 77.3123 62.3662 77.2675C62.534 77.2184 62.7683 77.15 63.0727 77.0612C63.7009 76.8703 64.6107 76.5936 65.7798 76.2381C68.1344 75.5032 71.5248 74.4451 75.713 73.1379C84.0955 70.4766 95.6601 66.8055 108.439 62.7485C121.208 58.6838 132.778 55.0207 141.17 52.4183C142.818 51.907 144.343 51.4362 145.73 51.0109C147.875 50.3529 149.692 49.8031 151.122 49.3778C152.3 49.0276 153.217 48.7622 153.842 48.5898C154.466 48.4174 154.797 48.3384 154.805 48.3613C154.812 48.3842 154.496 48.5077 153.885 48.7213C153.274 48.9348 152.37 49.2384 151.203 49.6213C148.869 50.3871 145.482 51.4698 141.292 52.7887C132.912 55.428 121.315 59.0054 108.501 62.9364Z" fill="#EDF2FA"/>
<path d="M109.185 65.8185C95.8898 67.7522 83.8582 69.5021 75.137 70.7704C70.7899 71.4239 67.2704 71.9532 64.8267 72.3205C63.6173 72.5112 62.6765 72.6598 62.0266 72.7623C61.7133 72.8153 61.4726 72.8562 61.2999 72.8852C61.1364 72.9148 61.0531 72.9325 61.0537 72.9377C61.0546 72.9426 61.1398 72.9353 61.3045 72.9154C61.4784 72.8925 61.7209 72.8608 62.0358 72.8196C62.6871 72.7272 63.6305 72.5929 64.8426 72.4206C67.2866 72.0548 70.8064 71.5282 75.1541 70.8778C83.8628 69.5317 95.8776 67.675 109.154 65.6233C122.423 63.5624 134.441 61.7148 143.15 60.4283C147.504 59.7843 151.031 59.2787 153.471 58.9474C154.691 58.7817 155.639 58.6597 156.284 58.585C156.928 58.5099 157.268 58.4828 157.272 58.5063C157.276 58.5301 156.943 58.6036 156.305 58.721C155.668 58.8385 154.725 58.9999 153.511 59.1994C151.082 59.5985 147.562 60.1497 143.211 60.8112C134.508 62.1362 122.476 63.8959 109.185 65.8185Z" fill="#EDF2FA"/>
</g>
<path d="M145.998 119.913C145.998 119.952 120.925 119.984 90.0028 119.984C59.07 119.984 34.0024 119.952 34.0024 119.913C34.0024 119.873 59.07 119.842 90.0028 119.842C120.925 119.842 145.998 119.873 145.998 119.913Z" fill="#335863"/>
<mask id="mask1_23_5318" style="mask-type:luminance" maskUnits="userSpaceOnUse" x="58" y="16" width="73" height="104">
<path d="M130.192 16.9717H58.082V119.842H130.192V16.9717Z" fill="white"/>
</mask>
<g mask="url(#mask1_23_5318)">
<path d="M121.558 89.1562C121.54 88.5699 121.187 88.0513 120.698 87.7283C113.055 82.6693 107.295 71.4589 106.715 61.9684C106.7 61.4279 106.682 60.8792 106.665 60.3268L106.664 60.3201C106.223 46.75 104.225 30.2922 102.43 25.905C99.1174 17.8018 87.8946 17.0408 87.8946 17.0408C72.9973 15.9751 70.3362 27.4221 68.8324 37.8487C67.8973 44.3327 64.2939 67.4949 64.2939 67.4949L67.0324 68.5545C70.2584 78.1132 77.5224 85.8448 86.9643 89.4C89.7108 90.4343 92.0356 90.8494 93.1267 89.9596C97.4643 94.3564 102.893 97.6787 108.804 99.4773C111.21 100.209 113.732 100.698 116.236 100.464C117.862 100.312 119.576 99.7746 120.545 98.4602C121.381 97.3281 121.496 95.7089 120.828 94.4704C120.161 93.2319 118.747 92.4371 117.342 92.511C117.906 90.6795 121.621 91.2186 121.558 89.1562Z" fill="#2C343A"/>
<path d="M89.8765 21.2545L88.9443 20.3662L78.8722 24.4257C77.4152 24.5063 76.2617 25.6885 76.2173 27.1474L76.306 59.9648C76.2931 62.1899 76.7392 64.1173 78.0831 65.891L79.4972 67.7588C82.7227 72.0172 89.3575 71.6666 91.9108 66.975C92.0897 66.6472 92.2138 66.3595 92.2672 66.1263C92.3211 65.8338 92.4008 65.6411 92.4175 65.392C92.7166 62.7519 92.7343 60.4624 92.7343 60.4624C92.9136 57.5636 92.9728 56.3743 92.9733 56.4015C92.9733 56.4015 99.1419 55.692 100.81 47.7735C101.639 43.8352 101.482 38.4175 101.25 33.0852C100.927 25.7057 95.8086 21.2474 89.8765 21.2545Z" fill="#F9B299"/>
<path d="M87.8124 37.5059C87.8043 38.0474 87.3391 38.4872 86.7733 38.4891C86.2084 38.4915 85.7562 38.055 85.7643 37.5135C85.7724 36.972 86.2375 36.5317 86.8019 36.5293C87.3677 36.5274 87.82 36.9644 87.8124 37.5059Z" fill="#2C343A"/>
<path d="M98.2235 37.7867C98.2159 38.3286 97.7502 38.768 97.1849 38.7704C96.62 38.7723 96.1678 38.3358 96.1754 37.7943C96.1835 37.2528 96.6491 36.8125 97.213 36.8106C97.7793 36.8082 98.2316 37.2452 98.2235 37.7867Z" fill="#2C343A"/>
<path d="M100.196 35.1937C100.063 35.3206 99.3157 34.7081 98.2141 34.6556C97.1145 34.5874 96.2772 35.1141 96.1651 34.9728C96.1093 34.9103 96.251 34.6756 96.615 34.4371C96.9742 34.1995 97.5782 33.981 98.2638 34.0177C98.9503 34.0559 99.5147 34.3379 99.8333 34.6127C100.159 34.8898 100.262 35.137 100.196 35.1937Z" fill="#2C343A"/>
<path d="M89.0173 35.3086C88.8708 35.4212 88.19 34.7351 87.1004 34.57C86.0136 34.3892 85.1267 34.8267 85.0289 34.675C84.9802 34.6068 85.1434 34.3878 85.5322 34.1884C85.9143 33.9885 86.5369 33.833 87.2153 33.9403C87.8942 34.0491 88.4266 34.3873 88.7157 34.6936C89.0101 35.0023 89.0879 35.2589 89.0173 35.3086Z" fill="#2C343A"/>
<path d="M92.866 43.3268C92.8636 43.2643 93.5539 43.1804 94.6712 43.094C94.9537 43.0788 95.2227 43.0363 95.28 42.8469C95.3563 42.647 95.2542 42.3379 95.134 42.0039C94.9031 41.3097 94.6626 40.5822 94.4093 39.8198C93.4074 36.7126 92.6961 34.1626 92.8221 34.1235C92.9475 34.0844 93.8621 36.5714 94.864 39.6786C95.1044 40.4448 95.3348 41.1752 95.5534 41.8737C95.6435 42.1985 95.8086 42.5702 95.6435 42.9853C95.5576 43.1914 95.343 43.3335 95.1607 43.3731C94.9775 43.4194 94.8191 43.4141 94.6793 43.4156C93.5596 43.4199 92.8669 43.3898 92.866 43.3268Z" fill="#2C343A"/>
<path d="M92.9735 56.4009C92.9735 56.4009 87.5859 56.4777 82.4258 53.0137C82.4258 53.0137 84.8369 58.6737 92.8633 58.3274L92.9735 56.4009Z" fill="#F79570"/>
<path d="M92.2666 45.9585C91.8969 45.4151 91.217 45.0926 90.5238 45.1322C90.0434 45.1598 89.5487 45.3659 89.2391 45.7409C88.929 46.1154 88.8402 46.665 89.0859 47.0496C89.3621 47.4823 89.9785 47.6101 90.5114 47.487C91.0453 47.364 91.5147 47.0405 91.9618 46.7175C92.0853 46.6278 92.2122 46.5343 92.2928 46.4074C92.3735 46.2805 92.3978 46.1102 92.3119 45.9971" fill="#F79570"/>
<path d="M89.5854 43.9271C89.7648 43.9256 89.7071 45.1217 90.6884 46.0214C91.6669 46.9241 92.9488 46.8539 92.9498 47.0214C92.9627 47.0973 92.6545 47.2394 92.1154 47.227C91.5868 47.2189 90.8249 47.0109 90.2247 46.4599C89.626 45.9084 89.3927 45.2004 89.3764 44.7076C89.3559 44.2057 89.5038 43.9161 89.5854 43.9271Z" fill="#2C343A"/>
<path d="M90.0718 31.0136C89.9192 31.2932 88.8519 30.986 87.5495 30.944C86.2471 30.8763 85.1584 31.0924 85.0296 30.8004C84.9733 30.6616 85.1956 30.4101 85.6569 30.1873C86.1144 29.9641 86.8153 29.7928 87.5967 29.8252C88.3772 29.8586 89.0618 30.0886 89.4984 30.3496C89.9392 30.611 90.1396 30.8801 90.0718 31.0136Z" fill="#2C343A"/>
<path d="M100.038 30.4612C99.8321 30.7017 99.0859 30.404 98.1742 30.3458C97.2644 30.2561 96.4801 30.4297 96.3155 30.1588C96.2439 30.028 96.378 29.7838 96.7277 29.5634C97.0721 29.3444 97.6384 29.1793 98.2644 29.2299C98.8908 29.2809 99.4227 29.5347 99.7271 29.8071C100.037 30.0805 100.13 30.3434 100.038 30.4612Z" fill="#2C343A"/>
<path d="M76.4187 41.1526C76.4187 41.1526 82.0611 42.9088 85.2538 28.9838C86.3453 24.222 90.7597 20.3663 90.7597 20.3663L88.9692 19.8281C88.9692 19.8281 77.8433 22.9621 77.6563 23.1028C77.4692 23.2431 74.8491 28.8569 74.8491 28.8569L76.4187 41.1526Z" fill="#2C343A"/>
<path d="M77.8088 40.634C77.8374 40.0396 77.2205 38.604 76.638 38.4829C75.0828 38.1599 72.2508 38.1441 72.0247 42.1239C71.716 47.5645 77.242 46.7526 77.2606 46.5966C77.2749 46.4754 77.711 42.6869 77.8088 40.634Z" fill="#F9B299"/>
<path d="M75.7157 44.4411C75.6928 44.4224 75.6174 44.5021 75.4528 44.5665C75.2925 44.629 75.021 44.6634 74.7434 44.5408C74.1804 44.2975 73.7487 43.3571 73.7778 42.3753C73.7921 41.8791 73.9223 41.4135 74.1203 41.0328C74.3088 40.6445 74.5817 40.3811 74.8746 40.3463C75.1656 40.2957 75.3607 40.4808 75.4189 40.6373C75.4833 40.7938 75.4423 40.9006 75.4709 40.9111C75.4852 40.9259 75.5926 40.8272 75.5616 40.6001C75.5454 40.4908 75.4891 40.3587 75.3669 40.2466C75.2424 40.133 75.0535 40.0681 74.8502 40.0782C74.429 40.0839 74.0297 40.4484 73.8126 40.8658C73.5726 41.2842 73.4142 41.8066 73.398 42.3638C73.3708 43.4621 73.8737 44.5198 74.6475 44.7917C75.0244 44.9134 75.3502 44.816 75.5225 44.6968C75.6985 44.5723 75.7338 44.452 75.7157 44.4411Z" fill="#F79570"/>
<path d="M80.2451 38.4893C80.2432 38.4712 80.5452 38.4702 81.0605 38.3252C81.5724 38.1816 82.2923 37.8471 82.9979 37.2007C83.349 36.8777 83.6944 36.4813 84.0083 36.0171C84.317 35.549 84.5937 35.0128 84.8308 34.427C85.3122 33.2548 85.6209 31.8884 86.0025 30.47C86.3847 29.0512 86.7992 27.7106 87.2539 26.5194C87.7028 25.3257 88.2004 24.2871 88.6718 23.4455C89.1446 22.6044 89.5902 21.9613 89.9179 21.5339C90.0787 21.3178 90.2185 21.1613 90.3077 21.0511C90.3993 20.9428 90.4489 20.8874 90.4527 20.8908C90.4565 20.8941 90.4146 20.9557 90.3306 21.0697C90.249 21.1851 90.1164 21.3469 89.9632 21.5673C89.6503 22.0038 89.2204 22.6521 88.761 23.4951C88.304 24.3381 87.8188 25.3758 87.3784 26.5666C86.9328 27.755 86.5235 29.0918 86.1423 30.5077C85.7616 31.9218 85.4482 33.2944 84.9539 34.4775C84.7106 35.0691 84.4267 35.6101 84.108 36.0838C83.7841 36.5538 83.4277 36.9531 83.0666 37.2765C82.3395 37.9244 81.5991 38.2507 81.0752 38.3791C80.5481 38.5098 80.2451 38.4893 80.2451 38.4893Z" fill="#2C343A"/>
<path d="M72.8098 61.7038C72.8036 61.7047 72.784 61.6155 72.7506 61.4414C72.7167 61.2496 72.6714 60.9934 72.6137 60.668C72.4978 59.9691 72.3332 58.9754 72.1242 57.714L72.2554 57.6949C72.2831 57.8924 72.3131 58.1114 72.3446 58.3375L72.3389 58.3175C72.3732 58.3909 72.4128 58.4754 72.4529 58.5617L72.3165 58.6118C71.6719 56.3858 70.9654 53.3926 70.5718 49.8536C70.3685 48.086 70.2536 46.1834 70.2393 44.1878C70.2583 42.1993 70.244 40.0868 70.7769 37.9772C70.9964 37.1051 71.3308 36.2688 71.7664 35.5073C72.202 34.7454 72.721 34.0518 73.2711 33.4125C74.3779 32.1339 75.5697 31.0347 76.6579 29.9436C78.8534 27.7829 80.8319 25.8365 82.4988 24.1967C84.1581 22.5771 85.5048 21.2622 86.4523 20.3376C86.9122 19.8959 87.2748 19.5481 87.5358 19.2976C87.6531 19.1884 87.7471 19.1011 87.822 19.0314C87.8874 18.9722 87.9227 18.9436 87.9256 18.9465C87.9284 18.9498 87.8993 18.9842 87.8397 19.0495C87.7695 19.1235 87.6808 19.217 87.5711 19.3329C87.3177 19.5915 86.9661 19.9507 86.5201 20.4063C85.5864 21.3443 84.2582 22.6787 82.6228 24.3213C80.9664 25.972 79.0003 27.9313 76.8187 30.1058C75.7347 31.2022 74.5449 32.3071 73.4562 33.5704C72.367 34.8285 71.4296 36.3174 71.0179 38.0387C70.495 40.1026 70.5036 42.2065 70.4807 44.1869C70.4897 46.1734 70.5971 48.0679 70.7908 49.8293C71.1648 53.3559 71.8442 56.3438 72.4567 58.5718L72.3203 58.6223C72.2816 58.536 72.243 58.4506 72.2096 58.3766L72.2048 58.3661L72.2039 58.3561C72.1757 58.1295 72.1485 57.91 72.1237 57.7125L72.2554 57.6935C72.4381 58.9591 72.5817 59.9562 72.6829 60.6571C72.7267 60.9848 72.7606 61.2429 72.7864 61.4357C72.8079 61.6122 72.816 61.7028 72.8098 61.7038Z" fill="#335863"/>
<path d="M68.526 36.5512C68.5183 36.5469 68.5517 36.4678 68.6219 36.3208C68.7068 36.1491 68.8117 35.9387 68.9391 35.682C69.2144 35.1276 69.65 34.3433 70.2206 33.3939C70.7873 32.4417 71.5154 31.3401 72.3727 30.1517C73.241 28.9709 74.2447 27.7086 75.3721 26.4467C76.507 25.1915 77.6563 24.0589 78.7379 23.0699C79.8289 22.091 80.847 21.2499 81.7334 20.5848C82.617 19.9169 83.3503 19.4007 83.8727 19.0677C84.1136 18.9141 84.3125 18.7872 84.4738 18.6846C84.6126 18.5992 84.6875 18.5577 84.6928 18.5653C84.6971 18.572 84.6312 18.6274 84.5015 18.7261C84.3474 18.8392 84.158 18.9785 83.9275 19.1474C83.4233 19.5042 82.7076 20.0405 81.8413 20.7237C80.9715 21.404 79.9697 22.2551 78.8924 23.2388C77.8243 24.2321 76.6859 25.3637 75.5567 26.6127C74.4356 27.8679 73.4313 29.1198 72.5573 30.2872C71.6938 31.4627 70.9538 32.5495 70.3699 33.486C69.7826 34.4201 69.3251 35.1892 69.0236 35.7283C68.8804 35.9754 68.7621 36.1786 68.6658 36.3442C68.5818 36.4835 68.5336 36.5551 68.526 36.5512Z" fill="#335863"/>
<path d="M74.7588 59.644C74.9496 59.3692 76.2172 56.9199 76.2172 56.9199L83.4111 63.1205C83.4111 63.1205 90.4619 69.0258 90.4619 68.6442L91.5873 62.9631L92.9732 57.7944L95.5599 61.7031C95.5599 61.7031 103.688 77.639 103.688 77.8303C103.688 78.0212 108.719 94.5143 108.719 94.5143L107.636 101.201L107.508 124.889L92.3535 124.253L89.3603 119.477L84.2021 89.1018L74.7588 59.644Z" fill="white"/>
<path d="M91.7393 119.79H108.462L113.392 145.195H79.8862L91.7393 119.79Z" fill="#2C343A"/>
<path d="M72.0154 63.5984L62.2524 67.2629L71.2707 107.418C71.2707 107.418 70.7392 118.266 68.8247 123.796C66.9102 129.327 62.4003 145.195 62.4003 145.195H92.39C92.39 145.195 93.6653 123.404 93.1567 115.623C92.6486 107.843 92.8614 93.1659 89.8835 85.5078C86.9055 77.8507 74.9499 59.0361 74.9499 59.0361L72.0154 63.5984Z" fill="#20A789"/>
<path d="M93.415 58.2432L97.8395 61.8966L109.984 63.7048C109.984 63.7048 115.734 84.5288 114.67 92.7184C113.607 100.908 115.09 115.075 115.09 115.075L120.415 145.195H108.719C108.719 145.195 105.384 109.97 105.185 110.395C104.985 110.821 104.347 93.1659 103.072 87.4223C101.795 81.6792 95.3692 63.7019 95.3692 63.7019L93.415 58.2432Z" fill="#20A789"/>
<path d="M125.3 110.077C125.3 110.077 130.192 107.844 130.192 103.483C130.192 99.1222 127.214 92.9535 126.576 90.6139C125.938 88.2734 111.474 63.386 109.985 63.7052L108.496 64.0244L116.153 97.6327L105.73 100.186L110.176 112.981L125.3 110.077Z" fill="#20A789"/>
<path d="M110.375 99.2157L112.524 92.2694L112.892 87.5358L117.945 84.1748C117.945 84.1748 119.299 84.3322 118.879 85.3828C118.459 86.4328 116.411 88.3244 116.411 88.3244L115.202 91.695L117.167 88.271L120.035 86.8531L122.872 87.063C122.872 87.063 123.396 88.3245 122.083 88.3765H120.665L118.512 90.1097L117.167 93.3662L119.194 90.2151L122.188 89.1512L124.08 89.6374C124.08 89.6374 124.604 90.477 123.659 90.5825C122.713 90.6874 122.083 90.6874 122.083 90.6874L120.35 91.695L118.827 94.8895L121.505 92.6835L124.972 92.2694C124.972 92.2694 125.55 93.1034 124.657 93.4187C123.764 93.7341 121.978 94.6796 121.978 94.6796L120.035 97.0431L110.375 99.2157Z" fill="#F9B299"/>
<path d="M93.2764 119.791C93.2721 119.792 93.2554 119.738 93.2267 119.634C93.1953 119.516 93.1547 119.362 93.1041 119.167C92.9973 118.741 92.8465 118.138 92.6542 117.369C92.2645 115.791 91.7072 113.534 91.0207 110.751C90.329 107.958 89.5012 104.632 88.5523 100.948C88.0752 99.1067 87.5714 97.1746 87.0209 95.1799C86.7485 94.1818 86.4579 93.17 86.1521 92.1471C85.9995 91.6357 85.8268 91.128 85.6636 90.6128C85.4751 90.1109 85.2905 89.6066 85.0372 89.1186C83.2515 85.5271 81.4228 82.1442 79.7707 79.0226C78.1043 75.9102 76.5824 73.0692 75.2685 70.616L75.2337 70.5502L75.2881 70.502C75.622 70.2043 75.9498 69.9204 76.279 69.6533C76.4459 69.5206 76.6048 69.3904 76.7909 69.2769L76.8677 69.2358L76.9144 69.2172L76.903 69.2249L76.902 69.2268C76.9011 69.2263 76.8982 69.2258 76.8763 69.2606L76.8973 69.3513L76.9225 69.3665L76.923 69.3675C76.8996 69.3642 76.8352 69.3608 76.7909 69.3589L76.4932 69.3537C75.7022 69.3489 74.9589 69.3608 74.27 69.3704L74.2185 69.3713L74.2003 69.3246C73.5047 67.5264 72.9542 66.1009 72.5706 65.1096C72.3898 64.6311 72.2491 64.257 72.1479 63.9889C72.1055 63.8706 72.0716 63.7752 72.0439 63.6993C72.0215 63.634 72.012 63.6001 72.0153 63.5987C72.0186 63.5977 72.0344 63.6292 72.063 63.6917C72.095 63.7656 72.135 63.8587 72.1851 63.9746C72.2949 64.2394 72.4475 64.6082 72.6431 65.0809C73.0415 66.0666 73.6135 67.4835 74.3363 69.2706L74.2666 69.2249C74.9565 69.2072 75.6988 69.1886 76.4941 69.1862L76.7961 69.1891C76.8519 69.1924 76.8891 69.1891 76.9664 69.202L76.985 69.2072L77.0137 69.2258L77.037 69.3203C77.0089 69.3732 77.0127 69.3522 77.006 69.3618L76.9598 69.3828L76.9354 69.3937L76.8782 69.4252C76.7155 69.5264 76.5528 69.6604 76.3911 69.7911C76.0681 70.0574 75.7422 70.3431 75.4135 70.6403L75.4326 70.5268C76.7584 72.9742 78.2937 75.8081 79.9754 78.9129C81.6375 82.032 83.4695 85.4079 85.2609 89.0098C85.5138 89.4979 85.7065 90.0193 85.8983 90.5322C86.062 91.0503 86.2361 91.5627 86.3888 92.0755C86.6946 93.1017 86.9846 94.1155 87.2551 95.1155C87.8038 97.1135 88.3033 99.0471 88.7742 100.891C89.7111 104.58 90.5212 107.91 91.191 110.71C91.8456 113.501 92.3771 115.764 92.7477 117.347C92.9209 118.121 93.0564 118.727 93.1528 119.156C93.1938 119.353 93.2263 119.509 93.2515 119.628C93.2721 119.735 93.2806 119.79 93.2764 119.791Z" fill="#2C343A"/>
<path d="M108.719 96.1705C108.711 96.1696 108.712 96.0407 108.722 95.796C108.737 95.5279 108.756 95.1725 108.78 94.7278C108.795 94.4936 108.811 94.2364 108.829 93.9569C108.829 93.6735 108.829 93.3667 108.83 93.0385C108.832 92.3796 108.846 91.6297 108.782 90.8015C108.63 87.4939 107.919 82.9244 106.262 78.1364C105.644 76.3359 104.963 74.6203 104.22 73.109L104.217 73.1037L104.215 73.0994C103.488 71.3829 102.63 69.8581 101.857 68.5037C101.079 67.1502 100.36 65.9719 99.7592 64.9967C99.1624 64.0421 98.6825 63.274 98.338 62.7225C98.182 62.4715 98.057 62.2702 97.9597 62.1137C97.8748 61.9749 97.8333 61.9005 97.8395 61.8966C97.8447 61.8928 97.8982 61.9596 97.9936 62.0913C98.0995 62.2425 98.2355 62.4367 98.4043 62.6786C98.7583 63.1943 99.265 63.9529 99.8847 64.9175C100.504 65.8826 101.239 67.0529 102.032 68.4021C102.82 69.7532 103.69 71.2732 104.435 73.0093L104.43 73.0002C105.191 74.5292 105.874 76.2448 106.498 78.0563C108.162 82.8671 108.85 87.4691 108.957 90.7938C109.011 91.6259 108.984 92.3796 108.969 93.0409C108.961 93.3701 108.954 93.6773 108.947 93.9621C108.921 94.2422 108.898 94.4998 108.877 94.734C108.833 95.1787 108.798 95.5336 108.772 95.8008C108.746 96.0441 108.727 96.1715 108.719 96.1705Z" fill="#2C343A"/>
<path d="M125.66 109.892C125.662 109.898 125.559 109.926 125.361 109.974C125.146 110.023 124.856 110.09 124.487 110.175C123.702 110.346 122.588 110.589 121.19 110.895C118.345 111.499 114.35 112.347 109.667 113.341L109.567 113.362L109.534 113.265C108.565 110.408 107.5 107.271 106.386 103.983C105.99 102.812 105.601 101.659 105.231 100.563L105.187 100.434L105.319 100.403C108.423 99.6738 111.347 98.9859 113.989 98.3652C115.309 98.057 116.559 97.7655 117.725 97.4931C118.308 97.3576 118.87 97.2273 119.409 97.1019C119.944 96.9764 120.475 96.8423 120.989 96.8309C122.018 96.7875 122.932 97.0489 123.663 97.3743C124.398 97.7097 124.962 98.1209 125.379 98.4969C125.801 98.8699 126.068 99.2177 126.243 99.4524C126.318 99.5655 126.378 99.6576 126.427 99.7311C126.467 99.7945 126.486 99.8279 126.482 99.8303C126.452 99.8556 126.166 99.2903 125.32 98.5637C124.9 98.203 124.337 97.8094 123.611 97.4926C122.889 97.1839 121.993 96.9411 120.996 96.9945C120.497 97.0117 119.994 97.1439 119.453 97.2755C118.914 97.4058 118.354 97.5408 117.772 97.6811C116.607 97.9611 115.359 98.2607 114.042 98.577C111.4 99.2063 108.478 99.9028 105.376 100.643L105.464 100.483C105.834 101.58 106.225 102.732 106.622 103.904C107.73 107.193 108.788 110.332 109.752 113.192L109.62 113.116C114.31 112.157 118.312 111.339 121.162 110.757C122.565 110.479 123.684 110.257 124.472 110.101C124.843 110.032 125.137 109.977 125.354 109.936C125.554 109.9 125.659 109.885 125.66 109.892Z" fill="#2C343A"/>
<path d="M71.0993 109.975C71.0917 109.959 71.0879 109.951 71.0879 109.951L71.1003 109.959C71.0998 109.964 71.0993 109.969 71.0993 109.975Z" fill="#929596"/>
<path d="M93.2466 117.762C93.228 117.014 93.2008 116.33 93.1631 115.727C93.197 115.722 93.2313 115.716 93.2652 115.711L93.2466 117.762Z" fill="#A8ABAB"/>
<path d="M85.4835 118.219C82.3806 118.219 79.0745 117.952 77.0741 117.007C73.8213 115.47 71.289 110.366 71.0991 109.975C71.0991 109.969 71.0996 109.964 71.1001 109.959L71.3806 110.126C72.9492 112.331 74.2001 113.852 74.7803 114.331C76.628 115.858 78.6756 117.007 82.7437 117.007C84.0614 117.007 85.5899 116.887 87.3933 116.619C89.1308 116.361 90.7686 116.109 92.2834 115.868C92.4198 116.421 92.5434 116.922 92.6541 117.369C92.6927 117.525 92.7304 117.674 92.7657 117.817C91.636 117.938 88.6666 118.219 85.4835 118.219ZM92.8506 117.807C92.8177 117.661 92.7833 117.508 92.7476 117.347C92.6431 116.901 92.5257 116.401 92.3964 115.85C92.656 115.809 92.9117 115.768 93.1631 115.727C93.2008 116.33 93.228 117.014 93.2466 117.763C93.2423 117.763 93.1025 117.78 92.8506 117.807Z" fill="#188972"/>
<path d="M92.766 117.817C92.7307 117.674 92.693 117.525 92.6544 117.369C92.5437 116.922 92.4201 116.42 92.2837 115.868C92.3214 115.862 92.3591 115.856 92.3968 115.85C92.526 116.4 92.6434 116.901 92.7479 117.347C92.7837 117.507 92.818 117.661 92.8509 117.807C92.8237 117.81 92.7956 117.813 92.766 117.817Z" fill="#011721"/>
<path d="M62.8687 67.0017C62.8687 67.0017 58.1885 67.3208 58.0826 79.5517C57.9762 91.7831 72.3344 112.31 74.7804 114.33C77.2269 116.351 80.0221 117.711 87.3934 116.618C96.6392 115.248 103.072 114.012 103.072 114.012L101.796 102.844L85.31 102.099L71.9089 74.5534C71.9089 74.5534 67.442 66.4702 62.8687 67.0017Z" fill="#20A789"/>
<path d="M105.403 111.848C104.869 111.757 104.334 111.648 103.799 111.539C103.454 111.469 103.11 111.399 102.765 111.333L102.248 106.81C103.154 106.863 104.052 106.978 104.914 107.224C105.035 109.157 105.122 110.403 105.177 110.403C105.18 110.403 105.182 110.401 105.184 110.396C105.186 110.393 105.187 110.392 105.188 110.392C105.217 110.392 105.293 110.921 105.403 111.848Z" fill="#A8ABAB"/>
<path d="M107.714 112.072C106.946 112.072 106.175 111.979 105.403 111.847C105.293 110.921 105.217 110.392 105.188 110.392C105.187 110.392 105.186 110.393 105.185 110.396C105.182 110.401 105.18 110.403 105.177 110.403C105.122 110.403 105.035 109.157 104.914 107.224C105.218 107.31 105.519 107.414 105.814 107.537C106.72 107.914 107.566 108.526 108.185 109.288C108.494 110.199 108.796 111.091 109.091 111.96C108.633 112.038 108.174 112.072 107.714 112.072ZM109.158 111.43C109.003 110.97 108.846 110.504 108.687 110.033C108.925 110.469 109.09 110.939 109.158 111.43Z" fill="#188972"/>
<path d="M109.091 111.959C108.796 111.09 108.494 110.198 108.185 109.287C108.375 109.522 108.545 109.771 108.687 110.032C108.846 110.504 109.003 110.969 109.158 111.429C109.182 111.598 109.194 111.768 109.194 111.941C109.159 111.947 109.125 111.953 109.091 111.959Z" fill="#011721"/>
<path d="M85.3696 114.031C83.2352 114.031 81.1007 113.779 79.0269 113.273L83.1049 109.902C83.9899 108.47 85.5633 107.573 87.1935 107.153C88.6624 106.774 90.1919 106.738 91.7119 106.738C91.8789 106.738 92.0459 106.738 92.2124 106.739C94.8139 106.746 97.4159 106.753 100.017 106.759C100.758 106.762 101.506 106.765 102.248 106.809L102.765 111.333C101.802 111.15 100.838 111.006 99.8776 111.006C99.4487 111.006 99.0198 111.034 98.5919 111.102C97.2613 111.31 96.0195 111.881 94.7571 112.351C91.762 113.467 88.5656 114.031 85.3696 114.031Z" fill="#188972"/>
<path d="M79.3774 96.1709C79.3774 96.1709 82.5414 97.4232 84.058 97.6871C85.5742 97.9509 87.4195 98.5439 89.8589 99.5329C92.2982 100.521 93.7261 101.312 93.7261 101.312L96.1873 109.882C96.1873 109.882 92.1002 112.453 87.4859 112.321C82.8711 112.189 78.7839 113.68 78.1909 113.265C77.5974 112.849 77.5316 112.124 78.1909 111.794C78.8502 111.465 81.6445 111.069 81.6445 111.069L84.058 110.08C84.058 110.08 75.8179 110.805 75.1586 110.475C74.4993 110.146 73.84 109.684 74.1038 108.959C74.3676 108.234 75.0265 108.234 75.0265 108.234C75.0265 108.234 73.2469 108.3 73.3128 107.575C73.3786 106.85 74.0379 106.191 74.3013 106.059C74.5651 105.927 78.0225 104.522 78.0225 104.522L82.467 103.638L78.1971 103.467L74.4678 104.506C74.4678 104.506 72.9793 104.674 73.3109 103.422C73.6424 102.169 78.1909 100.785 78.1909 100.785L83.9917 100.386C83.9917 100.386 79.5091 99.7304 79.0478 98.3464C78.5864 96.9619 79.3774 96.1709 79.3774 96.1709Z" fill="#F9B299"/>
<path d="M93.7261 101.312H94.0118L105.334 100.812L108.719 110.697L96.1873 109.882L93.7261 101.312Z" fill="#F9B299"/>
<path d="M83.8461 106.935C83.8456 106.972 83.3156 106.989 82.4621 107.041C81.6086 107.092 80.4321 107.192 79.1445 107.386C77.8559 107.583 76.7028 107.836 75.8727 108.04C75.0421 108.243 74.5306 108.384 74.5192 108.348C74.5092 108.319 75.003 108.118 75.8264 107.87C76.6498 107.622 77.8077 107.338 79.1073 107.141C80.4064 106.945 81.5957 106.872 82.4559 106.865C83.3161 106.858 83.8471 106.903 83.8461 106.935Z" fill="#F79570"/>
<path d="M75.3712 80.789C75.3559 80.7971 75.2233 80.6034 74.9972 80.246C74.7686 79.8901 74.4428 79.372 74.022 78.7447C73.1886 77.4847 71.9863 75.7753 70.515 74.0035C69.037 72.2378 67.5485 70.7665 66.3406 69.8667C65.1445 68.9483 64.2715 68.59 64.2939 68.5428C64.3006 68.5271 64.5172 68.6158 64.9055 68.7914C65.1049 68.8706 65.3239 69.0108 65.5863 69.1621C65.853 69.3066 66.1349 69.5046 66.445 69.7255C67.6945 70.5995 69.2183 72.0679 70.7058 73.8441C72.1862 75.627 73.3713 77.3607 74.1699 78.6493C74.573 79.2914 74.8769 79.8248 75.0806 80.1969C75.282 80.57 75.386 80.7799 75.3712 80.789Z" fill="#2C343A"/>
<path d="M82.7018 97.0825C82.6855 97.0887 82.5959 96.8927 82.4475 96.5339C82.2824 96.1265 82.0758 95.6165 81.8297 95.0091C81.3106 93.7215 80.584 91.9472 79.7396 90.0051C78.8932 88.0638 78.0898 86.322 77.5011 85.0649C77.2244 84.4714 76.9921 83.9719 76.8065 83.574C76.6448 83.221 76.5627 83.0216 76.578 83.0139C76.5932 83.0058 76.7044 83.1904 76.8929 83.5306C77.0818 83.8703 77.3442 84.3684 77.659 84.9881C78.2893 86.2271 79.1194 87.9608 79.9672 89.9063C80.8135 91.8518 81.5157 93.6404 81.9933 94.9462C82.2323 95.5988 82.4184 96.1298 82.5381 96.4995C82.6588 96.8697 82.718 97.0768 82.7018 97.0825Z" fill="#2C343A"/>
<path d="M90.3302 68.7302C90.324 68.7402 90.2247 68.6963 90.0434 68.6052C89.8302 68.4921 89.5735 68.3566 89.2672 68.1949C88.5611 67.8047 87.6289 67.2885 86.5288 66.6797L86.6896 66.5986C86.5555 67.8295 86.3294 69.2674 86.1032 70.7998C86.0116 71.4233 85.9258 72.0316 85.8552 72.6136L85.828 72.8379L85.6562 72.6923C84.1911 71.4457 82.9178 70.3489 82.0151 69.5579C81.5939 69.1825 81.2423 68.87 80.9622 68.6209C80.7194 68.3977 80.5911 68.2712 80.6006 68.2598C80.6101 68.2483 80.7566 68.3533 81.0171 68.5561C81.3091 68.7903 81.6759 69.0851 82.1168 69.4382C83.0466 70.1967 84.3399 71.2697 85.8127 72.5068L85.6142 72.5855C85.6815 71.9991 85.7655 71.3885 85.8575 70.7635C86.0841 69.2283 86.3217 67.7946 86.4749 66.5738L86.4959 66.4102L86.6357 66.4927C87.7181 67.1329 88.6351 67.6749 89.3297 68.0857C89.6246 68.2679 89.8717 68.4206 90.0768 68.5475C90.2471 68.6572 90.3354 68.7202 90.3302 68.7302Z" fill="#2C343A"/>
<path d="M94.514 61.7031C94.5311 61.7041 94.5383 61.935 94.5364 62.352C94.5278 62.8171 94.5173 63.4092 94.5049 64.1167C94.4667 65.6061 94.398 67.6628 94.3064 69.9342C94.304 69.99 94.3017 70.0458 94.2997 70.0997L94.2835 70.4971L94.0707 70.1617C93.0393 68.5359 92.0966 67.0498 91.3485 65.8709L91.5188 65.8499C91.2183 66.6762 90.9673 67.3665 90.7732 67.8999C90.5904 68.3837 90.4802 68.6499 90.4621 68.6442C90.444 68.638 90.5198 68.3598 90.672 67.8651C90.8457 67.3246 91.0699 66.6252 91.338 65.7884L91.3991 65.5985L91.5088 65.7674C92.2702 66.9381 93.2301 68.4137 94.2797 70.0277L94.0512 70.0897C94.0531 70.0358 94.0555 69.98 94.0579 69.9242C94.1495 67.6528 94.2468 65.597 94.3288 64.109C94.3732 63.403 94.4104 62.8123 94.4395 62.3481C94.471 61.9321 94.4968 61.7026 94.514 61.7031Z" fill="#2C343A"/>
<path d="M109.483 68.3077C109.476 68.3177 109.356 68.2547 109.104 68.1063L109.157 68.0687C109.459 69.1373 110.31 72.6267 111.275 76.7677C111.862 79.291 112.381 81.5781 112.744 83.2369C112.913 84.0336 113.054 84.6954 113.162 85.2039C113.255 85.6691 113.299 85.9286 113.282 85.9324C113.265 85.9362 113.19 85.6848 113.068 85.2259C112.94 84.7221 112.773 84.0661 112.574 83.2765C112.166 81.6287 111.62 79.3473 111.033 76.824C110.068 72.6834 109.29 69.1769 109.088 68.0844L109.072 67.998L109.142 68.0467C109.382 68.2142 109.49 68.2972 109.483 68.3077Z" fill="#2C343A"/>
<path d="M94.5136 115.452C94.516 115.46 94.4149 115.493 94.2202 115.548C93.9998 115.608 93.7164 115.684 93.3658 115.779C92.622 115.971 91.5381 116.224 90.1856 116.474C88.8316 116.714 87.2081 116.957 85.3885 117.054C83.5732 117.14 81.5475 117.118 79.4827 116.659C78.4475 116.448 77.468 116.089 76.575 115.643C76.1227 115.428 75.7162 115.15 75.315 114.884C74.93 114.585 74.5889 114.258 74.2773 113.924C73.0369 112.579 72.0918 111.239 71.2899 110.123C70.4984 109 69.8896 108.069 69.476 107.421C69.2842 107.113 69.1296 106.864 69.0094 106.67C68.9059 106.496 68.8553 106.402 68.8625 106.398C68.8701 106.393 68.934 106.478 69.0509 106.643C69.1816 106.83 69.3491 107.071 69.5566 107.368C69.9946 107.998 70.6248 108.913 71.433 110.021C72.2497 111.119 73.2111 112.448 74.4434 113.767C74.753 114.093 75.0874 114.41 75.4543 114.692C75.8469 114.949 76.2424 115.218 76.6856 115.426C77.5587 115.858 78.5176 116.209 79.5367 116.417C81.5681 116.869 83.5747 116.898 85.3771 116.825C87.1842 116.741 88.803 116.517 90.1555 116.301C91.5071 116.074 92.5943 115.848 93.3438 115.685C93.6983 115.609 93.985 115.548 94.2078 115.5C94.4063 115.46 94.5117 115.443 94.5136 115.452Z" fill="#2C343A"/>
<path d="M86.8326 94.4965L74.1647 71.5232L74.7591 70.0953L73.7282 70.736L72.5068 64.9404C72.5278 64.9953 72.5488 65.0516 72.5708 65.1093C72.9543 66.1007 73.5049 67.5262 74.2005 69.3243L74.2186 69.3711L74.2701 69.3701C74.8569 69.362 75.4829 69.3525 76.1446 69.3525C76.2595 69.3525 76.3759 69.3525 76.4933 69.3534L76.6674 69.3563C76.5324 69.4498 76.4079 69.5504 76.2791 69.653C75.9499 69.9202 75.6222 70.204 75.2882 70.5017L75.2338 70.5499L75.2686 70.6158C76.5825 73.0689 78.1044 75.9099 79.7708 79.0224C81.423 82.1439 83.2516 85.5269 85.0373 89.1183C85.2907 89.6064 85.4753 90.1107 85.6637 90.6126C85.8269 91.1278 85.9996 91.6354 86.1523 92.1468C86.3889 92.9374 86.616 93.7207 86.8326 94.4965Z" fill="#188972"/>
<path d="M87.0901 94.9649L86.8325 94.4969C86.6159 93.7211 86.3888 92.9378 86.1522 92.1473C85.9995 91.6358 85.8268 91.1282 85.6637 90.613C85.4752 90.1111 85.2906 89.6068 85.0373 89.1188C83.2516 85.5273 81.4229 82.1443 79.7708 79.0228C78.1043 75.9103 76.5825 73.0693 75.2686 70.6162L75.2338 70.5503L75.2881 70.5022C75.6221 70.2045 75.9499 69.9206 76.279 69.6534C76.4079 69.5509 76.5324 69.4502 76.6674 69.3567L76.4932 69.3538C76.3759 69.3529 76.2595 69.3529 76.1445 69.3529C75.4828 69.3529 74.8569 69.3624 74.2701 69.3705L74.2185 69.3715L74.2004 69.3247C73.5048 67.5266 72.9543 66.1011 72.5707 65.1097C72.5487 65.052 72.5278 64.9957 72.5068 64.9408L72.4624 64.7295L74.2681 69.2975H76.9427L75.3511 70.5713L85.4122 89.6121L87.0901 94.9649Z" fill="#011721"/>
</g>
<path d="M41.748 11.0011C41.748 11.1436 42.7924 11.259 44.0793 11.259C45.3679 11.259 46.4123 11.1436 46.4123 11.0011C46.4123 10.8586 45.3679 10.7432 44.0793 10.7432C42.7924 10.7432 41.748 10.8586 41.748 11.0011Z" fill="#34C5A5"/>
<path d="M39.2711 4.65625C39.1285 4.65625 39.0132 5.71585 39.0132 7.02315C39.0132 8.32961 39.1285 9.3892 39.2711 9.3892C39.4136 9.3892 39.529 8.32961 39.529 7.02315C39.529 5.71585 39.4136 4.65625 39.2711 4.65625Z" fill="#34C5A5"/>
<path d="M36.6335 10.8497C36.6335 10.7072 35.5883 10.5918 34.3013 10.5918C33.0127 10.5918 31.9692 10.7072 31.9692 10.8497C31.9692 10.9922 33.0127 11.1076 34.3013 11.1076C35.5883 11.1076 36.6335 10.9922 36.6335 10.8497Z" fill="#34C5A5"/>
<path d="M39.1108 17.1937C39.2533 17.1937 39.3678 16.1341 39.3678 14.8268C39.3678 13.5195 39.2533 12.46 39.1108 12.46C38.9683 12.46 38.8521 13.5195 38.8521 14.8268C38.8521 16.1341 38.9683 17.1937 39.1108 17.1937Z" fill="#34C5A5"/>
<path d="M35.3396 14.4725C35.4499 14.5633 35.9097 14.1926 36.367 13.6446C36.8251 13.0965 37.1076 12.5773 36.9982 12.4866C36.8896 12.3949 36.4298 12.7657 35.9716 13.3137C35.5135 13.8626 35.231 14.3809 35.3396 14.4725Z" fill="#34C5A5"/>
<path d="M35.5579 7.27897C35.457 7.37822 35.7615 7.84906 36.2357 8.32837C36.7116 8.80769 37.1782 9.11479 37.2809 9.01554C37.3818 8.91458 37.0781 8.44375 36.6031 7.96613C36.1271 7.48511 35.6597 7.17801 35.5579 7.27897Z" fill="#34C5A5"/>
<path d="M40.9042 9.10979C40.995 9.21922 41.4361 9.00374 41.8891 8.62707C42.3413 8.25041 42.6348 7.85593 42.5441 7.74649C42.4524 7.63621 42.0121 7.85336 41.5583 8.23003C41.1061 8.6067 40.8134 9.00035 40.9042 9.10979Z" fill="#34C5A5"/>
<path d="M41.1144 12.2812C41.0092 12.3771 41.2739 12.8394 41.7048 13.312C42.1366 13.7862 42.5718 14.0925 42.677 13.9966C42.7822 13.9007 42.5175 13.4392 42.0866 12.965C41.6548 12.4916 41.2196 12.1854 41.1144 12.2812Z" fill="#34C5A5"/>
<path d="M165.624 108.829C165.624 108.972 166.668 109.087 167.955 109.087C169.243 109.087 170.288 108.972 170.288 108.829C170.288 108.687 169.243 108.571 167.955 108.571C166.668 108.571 165.624 108.687 165.624 108.829Z" fill="#34C5A5"/>
<path d="M163.147 102.484C163.004 102.484 162.889 103.544 162.889 104.851C162.889 106.158 163.004 107.217 163.147 107.217C163.289 107.217 163.404 106.158 163.404 104.851C163.404 103.544 163.289 102.484 163.147 102.484Z" fill="#34C5A5"/>
<path d="M160.509 108.678C160.509 108.535 159.464 108.42 158.177 108.42C156.888 108.42 155.845 108.535 155.845 108.678C155.845 108.82 156.888 108.936 158.177 108.936C159.464 108.936 160.509 108.82 160.509 108.678Z" fill="#34C5A5"/>
<path d="M162.986 115.022C163.129 115.022 163.243 113.962 163.243 112.655C163.243 111.348 163.129 110.288 162.986 110.288C162.844 110.288 162.728 111.348 162.728 112.655C162.728 113.962 162.844 115.022 162.986 115.022Z" fill="#34C5A5"/>
<path d="M159.215 112.301C159.325 112.391 159.785 112.021 160.242 111.473C160.701 110.925 160.983 110.405 160.874 110.315C160.765 110.223 160.305 110.594 159.847 111.142C159.389 111.691 159.107 112.209 159.215 112.301Z" fill="#34C5A5"/>
<path d="M159.433 105.107C159.332 105.206 159.637 105.677 160.111 106.156C160.587 106.636 161.054 106.943 161.156 106.844C161.257 106.743 160.954 106.272 160.479 105.794C160.003 105.313 159.535 105.006 159.433 105.107Z" fill="#34C5A5"/>
<path d="M164.78 106.938C164.87 107.047 165.312 106.832 165.765 106.455C166.217 106.079 166.51 105.684 166.42 105.575C166.328 105.464 165.888 105.681 165.434 106.058C164.982 106.435 164.689 106.828 164.78 106.938Z" fill="#34C5A5"/>
<path d="M164.99 110.109C164.885 110.205 165.149 110.668 165.58 111.14C166.012 111.614 166.447 111.921 166.553 111.825C166.658 111.729 166.393 111.267 165.962 110.793C165.53 110.32 165.095 110.013 164.99 110.109Z" fill="#34C5A5"/>
<path d="M23.0538 102.297L22.7937 102.919C22.3409 104.011 21.4698 104.874 20.3766 105.317L19.6982 105.592L20.3502 105.857C21.46 106.306 22.3392 107.187 22.7854 108.298L22.9698 108.753L23.2448 108.181C23.742 107.143 24.6278 106.339 25.7128 105.944L26.3039 105.728L25.5301 105.354C24.5587 104.884 23.7947 104.073 23.3781 103.076L23.0538 102.297Z" fill="#34C5A5"/>
<path d="M155.912 17.1943L155.591 17.9681C155.029 19.3185 153.949 20.3882 152.592 20.9384L151.752 21.2803L152.559 21.607C153.935 22.1653 155.025 23.2585 155.581 24.6355L155.808 25.2L156.148 24.4906C156.767 23.2024 157.865 22.2062 159.208 21.7152L159.941 21.4488L158.984 20.9854C157.778 20.4005 156.83 19.3961 156.315 18.1599L155.912 17.1943Z" fill="#34C5A5"/>
<path d="M23.9363 40.2024L25.1109 40.6442L24.091 40.9331C23.7508 41.0295 23.4808 41.2892 23.371 41.6254L23.0018 42.753L22.5482 41.622C22.4356 41.3413 22.2089 41.1217 21.9246 41.0185L20.8931 40.6442L22.0103 40.1851C22.2806 40.074 22.4932 39.8565 22.5982 39.5837L23.0018 38.5352L23.2913 39.5102C23.3862 39.829 23.6248 40.0856 23.9363 40.2024Z" fill="#E4E7EC"/>
<path d="M166.076 52.7396L167.251 53.181L166.231 53.4702C165.891 53.5666 165.621 53.8263 165.511 54.1625L165.142 55.2901L164.688 54.1591C164.576 53.8784 164.349 53.6588 164.065 53.5557L163.033 53.181L164.15 52.7222C164.421 52.6111 164.633 52.3936 164.738 52.1208L165.142 51.0723L165.431 52.0473C165.526 52.3661 165.765 52.6224 166.076 52.7396Z" fill="#E4E7EC"/>
</svg>
