<svg width="180" height="120" viewBox="0 0 180 120" fill="none" xmlns="http://www.w3.org/2000/svg">
<mask id="mask0_559_7060" style="mask-type:luminance" maskUnits="userSpaceOnUse" x="21" y="1" width="138" height="119">
<path d="M158.068 1.96387H21.9312V119.342H158.068V1.96387Z" fill="white"/>
</mask>
<g mask="url(#mask0_559_7060)">
<path d="M95.9519 5.88506L97.1262 6.32652L96.1066 6.61574C95.7664 6.71215 95.4964 6.97178 95.3863 7.30798L95.0174 8.43557L94.5638 7.30462C94.4512 7.02395 94.2242 6.80428 93.9399 6.70116L92.9087 6.32652L94.0256 5.86767C94.2959 5.75662 94.5089 5.5391 94.6138 5.26635L95.0174 4.21777L95.307 5.19283C95.4015 5.51164 95.6404 5.76791 95.9519 5.88506Z" fill="#E4E7EC"/>
<path d="M129.203 34.5172L130.377 34.9587L129.358 35.2476C129.017 35.3443 128.747 35.6036 128.638 35.9398L128.268 37.0674L127.815 35.9365C127.702 35.6558 127.476 35.4361 127.191 35.333L126.16 34.9587L127.277 34.4995C127.547 34.3885 127.76 34.1709 127.865 33.8982L128.268 32.8496L128.558 33.8247C128.653 34.1438 128.891 34.4001 129.203 34.5172Z" fill="#E4E7EC"/>
<path d="M139.219 71.2874L140.393 71.7289L139.374 72.0181C139.034 72.1145 138.764 72.3741 138.653 72.7103L138.285 73.8379L137.831 72.707C137.718 72.426 137.491 72.2066 137.207 72.1035L136.176 71.7289L137.293 71.27C137.563 71.159 137.776 70.9414 137.881 70.6687L138.285 69.6201L138.574 70.5952C138.669 70.914 138.908 71.1703 139.219 71.2874Z" fill="#E4E7EC"/>
<path d="M120.301 60.3712L121.104 60.6732L120.407 60.8709C120.174 60.9371 119.989 61.1144 119.914 61.3444L119.661 62.116L119.351 61.3423C119.274 61.1501 119.119 61 118.924 60.9295L118.219 60.6732L118.983 60.3593C119.168 60.2833 119.313 60.1344 119.385 59.9477L119.661 59.2305L119.859 59.8974C119.924 60.1158 120.087 60.2909 120.301 60.3712Z" fill="#E4E7EC"/>
<path d="M57.4222 59.6983L58.2255 60.0004L57.5281 60.1981C57.2953 60.2643 57.1104 60.4415 57.0354 60.6716L56.7828 61.4431L56.4725 60.6694C56.3956 60.4772 56.2403 60.3271 56.0457 60.2566L55.3403 60.0004L56.1046 59.6864C56.2895 59.6102 56.435 59.4616 56.5067 59.2749L56.7828 58.5576L56.9811 59.2245C57.0458 59.443 57.209 59.6181 57.4222 59.6983Z" fill="#E4E7EC"/>
<path d="M48.173 84.6368L48.9763 84.9388L48.2789 85.1365C48.0461 85.2027 47.8612 85.38 47.7859 85.61L47.5336 86.3816L47.2233 85.6079C47.1461 85.4157 46.9911 85.2656 46.7965 85.1948L46.0908 84.9388L46.8551 84.6246C47.0402 84.5486 47.1858 84.4001 47.2575 84.2134L47.5336 83.4961L47.7316 84.163C47.7966 84.3815 47.9598 84.5566 48.173 84.6368Z" fill="#E4E7EC"/>
<path d="M62.3606 4.41076L63.5349 4.85222L62.5153 5.14113C62.1751 5.23784 61.9051 5.49717 61.795 5.83337L61.4261 6.96096L60.9725 5.83001C60.8599 5.54934 60.6329 5.32998 60.3489 5.22656L59.3174 4.85222L60.4346 4.39306C60.7049 4.28201 60.9176 4.06449 61.0225 3.79174L61.4261 2.74316L61.7157 3.71822C61.8105 4.03733 62.0491 4.29361 62.3606 4.41076Z" fill="#E4E7EC"/>
<path d="M143.114 111.196L144.288 111.637L143.269 111.926C142.928 112.023 142.658 112.282 142.548 112.619L142.179 113.746L141.725 112.615C141.613 112.334 141.386 112.115 141.102 112.012L140.07 111.637L141.188 111.178C141.458 111.067 141.67 110.85 141.775 110.577L142.179 109.528L142.469 110.503C142.563 110.822 142.802 111.079 143.114 111.196Z" fill="#E4E7EC"/>
<path d="M29.5989 79.6058L30.7735 80.0472L29.7536 80.3364C29.4134 80.4328 29.1434 80.6922 29.0336 81.0284L28.6644 82.156L28.2108 81.025C28.0982 80.7443 27.8715 80.525 27.5872 80.4216L26.5557 80.0472L27.6729 79.5884C27.9432 79.477 28.1558 79.2598 28.2608 78.9868L28.6644 77.9385L28.9539 78.9132C29.0488 79.2323 29.2874 79.4886 29.5989 79.6058Z" fill="#E4E7EC"/>
<path d="M107.587 21.9833L108.029 22.1496L107.645 22.2585C107.517 22.2951 107.415 22.3928 107.374 22.5194L107.235 22.944L107.064 22.5181C107.022 22.4123 106.936 22.3296 106.829 22.2909L106.44 22.1496L106.861 21.9769C106.963 21.9351 107.043 21.8531 107.083 21.7506L107.235 21.3555L107.344 21.7228C107.379 21.843 107.469 21.9394 107.587 21.9833Z" fill="#E4E7EC"/>
<path d="M116.088 41.7558L116.53 41.9221L116.146 42.031C116.018 42.0673 115.917 42.1652 115.875 42.2918L115.736 42.7165L115.565 42.2903C115.523 42.1847 115.437 42.1021 115.33 42.0633L114.942 41.9221L115.363 41.7494C115.465 41.7076 115.544 41.6255 115.584 41.5227L115.736 41.1279L115.845 41.4953C115.881 41.6152 115.971 41.7119 116.088 41.7558Z" fill="#E4E7EC"/>
<path d="M39.4831 63.6279L39.9255 63.7941L39.5414 63.903C39.4133 63.9394 39.3117 64.037 39.2702 64.1636L39.1311 64.5883L38.9602 64.1624C38.9178 64.0568 38.8324 63.9741 38.7253 63.9351L38.3369 63.7941L38.7576 63.6212C38.8595 63.5794 38.9395 63.4976 38.9791 63.3948L39.1311 63L39.2403 63.367C39.276 63.4872 39.3657 63.5836 39.4831 63.6279Z" fill="#E4E7EC"/>
<path d="M39.113 103.829L40.0887 104.196L39.2415 104.436C38.959 104.516 38.7344 104.731 38.6432 105.011L38.3366 105.948L37.9595 105.008C37.8661 104.775 37.6776 104.592 37.4415 104.507L36.5845 104.196L37.5125 103.814C37.7371 103.722 37.914 103.541 38.0013 103.315L38.3366 102.443L38.577 103.254C38.6557 103.518 38.854 103.731 39.113 103.829Z" fill="#E4E7EC"/>
<path d="M114.294 11.4895L114.942 11.7329L114.379 11.8925C114.191 11.9459 114.042 12.089 113.982 12.2745L113.778 12.8968L113.528 12.2726C113.465 12.1176 113.34 11.9965 113.184 11.9398L112.614 11.7329L113.231 11.4797C113.38 11.4184 113.497 11.2985 113.555 11.1478L113.778 10.5693L113.938 11.1072C113.99 11.2832 114.122 11.4248 114.294 11.4895Z" fill="#E4E7EC"/>
<path d="M49.1136 26.5793L49.7616 26.8231L49.199 26.9826C49.0111 27.036 48.8622 27.1791 48.8015 27.3646L48.598 27.987L48.3475 27.3628C48.2853 27.2078 48.1602 27.0867 48.0034 27.0296L47.4341 26.8231L48.0507 26.5699C48.1998 26.5085 48.317 26.3883 48.375 26.2379L48.598 25.6592L48.7575 26.1973C48.81 26.3734 48.9415 26.5149 49.1136 26.5793Z" fill="#E4E7EC"/>
<path d="M144.804 90.4426L145.452 90.6861L144.889 90.8456C144.701 90.899 144.553 91.0421 144.492 91.2276L144.288 91.85L144.038 91.2258C143.976 91.0708 143.851 90.9496 143.694 90.8929L143.125 90.6861L143.741 90.4328C143.89 90.3715 144.008 90.2516 144.066 90.1009L144.288 89.5225L144.448 90.0603C144.5 90.2364 144.632 90.3779 144.804 90.4426Z" fill="#E4E7EC"/>
<path d="M109.397 68.317C95.954 68.1913 83.7887 68.0778 74.9709 67.9951C70.5718 67.9747 67.0109 67.9579 64.5382 67.9463C63.3129 67.949 62.3596 67.9512 61.7012 67.9527C61.3836 67.957 61.1392 67.96 60.9638 67.9625C60.7975 67.9661 60.7124 67.9707 60.7124 67.9759C60.7124 67.9808 60.7975 67.9859 60.9635 67.9914C61.1389 67.9957 61.3836 68.0012 61.7012 68.0088C62.3593 68.0168 63.3126 68.0284 64.5376 68.0433C67.0103 68.0564 70.5715 68.075 74.9702 68.0982C83.7884 68.1037 95.9543 68.1113 109.398 68.1196C122.835 68.1184 135.002 68.1357 143.811 68.1989C148.215 68.2297 151.78 68.2703 154.243 68.3167C155.475 68.3395 156.431 68.3639 157.08 68.3884C157.728 68.4128 158.068 68.4375 158.068 68.461C158.068 68.4845 157.727 68.5058 157.079 68.5238C156.43 68.5418 155.474 68.5565 154.242 68.5674C151.778 68.5888 148.214 68.594 143.809 68.5809C135 68.5565 122.833 68.4524 109.397 68.317Z" fill="#C0C9D8"/>
<path d="M109.13 71.2647C95.8702 69.109 83.8712 67.1586 75.1739 65.7445C70.8316 65.0602 67.3164 64.5062 64.8751 64.1215C63.6645 63.9393 62.7224 63.7981 62.072 63.7001C61.7574 63.6565 61.5149 63.623 61.3413 63.5989C61.1762 63.5778 61.0914 63.5696 61.0908 63.5747C61.0902 63.5799 61.1732 63.5982 61.3361 63.6291C61.5091 63.6596 61.7498 63.7023 62.0622 63.7578C62.7111 63.8652 63.6511 64.0211 64.8586 64.2212C67.2993 64.6078 70.8139 65.1645 75.1555 65.8519C83.866 67.1885 95.883 69.0324 109.162 71.0698C122.436 73.0961 134.454 74.9498 143.145 76.3426C147.491 77.0382 151.005 77.6169 153.432 78.0352C154.645 78.2442 155.585 78.4129 156.222 78.5352C156.858 78.6579 157.19 78.7338 157.186 78.7576C157.183 78.7811 156.843 78.7512 156.199 78.6716C155.555 78.5913 154.608 78.462 153.389 78.2866C150.952 77.9363 147.43 77.4033 143.081 76.7254C134.383 75.3709 122.38 73.4293 109.13 71.2647Z" fill="#C0C9D8"/>
<path d="M108.389 74.1362C95.6451 69.9776 84.1123 66.2144 75.7523 63.4866C71.5754 62.1461 68.1939 61.0609 65.8456 60.3073C64.6793 59.9427 63.772 59.6587 63.1453 59.4628C62.8418 59.3716 62.6081 59.3014 62.4403 59.2511C62.281 59.2053 62.1983 59.1843 62.1968 59.1892C62.195 59.194 62.2743 59.2252 62.4305 59.2804C62.5959 59.3371 62.8265 59.4162 63.1261 59.519C63.7497 59.7246 64.6521 60.0224 65.8124 60.4049C68.16 61.1603 71.5406 62.2483 75.7167 63.5915C84.1019 66.2443 95.6704 69.9038 108.454 73.9477C121.234 77.9797 132.801 81.6489 141.159 84.3547C145.337 85.7069 148.714 86.8167 151.042 87.6011C152.206 87.9935 153.108 88.3043 153.717 88.5228C154.325 88.7412 154.641 88.8675 154.633 88.8907C154.625 88.9136 154.294 88.8321 153.671 88.6549C153.049 88.4776 152.134 88.2049 150.959 87.8455C148.609 87.127 145.217 86.0617 141.032 84.7266C132.662 82.0577 121.124 78.3027 108.389 74.1362Z" fill="#C0C9D8"/>
<path d="M107.195 76.8556C95.2816 70.8006 84.5011 65.3213 76.687 61.3497C72.7788 59.3871 69.6151 57.7982 67.4182 56.695C66.3257 56.1562 65.4754 55.7367 64.8887 55.4475C64.6035 55.3108 64.3841 55.2056 64.227 55.1305C64.0769 55.0606 63.9991 55.0271 63.9966 55.0317C63.9942 55.0362 64.0674 55.0786 64.2126 55.1571C64.3667 55.2382 64.5818 55.3517 64.8613 55.4987C65.4434 55.7971 66.2869 56.2291 67.3706 56.7844C69.5666 57.8891 72.7291 59.4801 76.636 61.4458C84.4868 65.3481 95.3182 70.7322 107.287 76.6817C119.255 82.619 130.084 88.0123 137.899 91.9622C141.807 93.9364 144.962 95.5485 147.134 96.6788C148.22 97.2438 149.06 97.6883 149.626 97.9968C150.192 98.3055 150.484 98.4782 150.473 98.4993C150.461 98.5203 150.148 98.3891 149.562 98.1185C148.976 97.8479 148.117 97.4382 147.015 96.9034C144.81 95.8337 141.633 94.2628 137.717 92.3042C129.883 88.3884 119.097 82.9164 107.195 76.8556Z" fill="#C0C9D8"/>
<path d="M105.575 79.3596C94.7826 71.5689 85.0159 64.519 77.9364 59.4092C74.3923 56.8767 71.5229 54.8268 69.5304 53.4033C68.5383 52.7049 67.7658 52.1619 67.2328 51.7866C66.9732 51.6084 66.7734 51.4715 66.63 51.3729C66.4933 51.2811 66.4216 51.2362 66.4186 51.2405C66.4155 51.2445 66.4808 51.2976 66.6117 51.3973C66.7511 51.5007 66.9451 51.6454 67.1977 51.8333C67.7246 52.2162 68.4883 52.7711 69.4694 53.4841C71.461 54.9089 74.3285 56.9609 77.8711 59.4955C84.9982 64.5425 94.8305 71.5058 105.696 79.2006C116.561 86.8827 126.389 93.8548 133.473 98.9436C137.016 101.487 139.873 103.559 141.836 105.005C142.818 105.728 143.576 106.295 144.086 106.686C144.595 107.077 144.855 107.292 144.841 107.311C144.826 107.33 144.538 107.153 144.002 106.796C143.467 106.44 142.684 105.905 141.682 105.21C139.676 103.819 136.791 101.784 133.238 99.2548C126.13 94.1971 116.356 87.1536 105.575 79.3596Z" fill="#C0C9D8"/>
<path d="M103.574 81.5875C94.1598 72.2604 85.64 63.8203 79.4645 57.7024C76.3688 54.6653 73.8625 52.2063 72.122 50.499C71.2534 49.6591 70.5776 49.0059 70.1109 48.5547C69.883 48.3393 69.7075 48.1737 69.5818 48.055C69.4613 47.9436 69.3979 47.8881 69.3942 47.8918C69.3906 47.8954 69.4467 47.9577 69.5602 48.076C69.681 48.1993 69.85 48.3714 70.0691 48.595C70.5285 49.0532 71.1939 49.7165 72.0491 50.5692C73.7883 52.2777 76.2928 54.7382 79.3867 57.7774C85.6189 63.8404 94.2171 72.2052 103.719 81.4487C113.222 90.6802 121.815 99.0533 127.998 105.151C131.091 108.199 133.582 110.677 135.29 112.403C136.144 113.266 136.802 113.94 137.243 114.403C137.684 114.866 137.906 115.118 137.889 115.135C137.871 115.151 137.615 114.932 137.143 114.499C136.671 114.067 135.984 113.42 135.105 112.581C133.346 110.904 130.822 108.458 127.717 105.422C121.505 99.3517 112.977 90.9167 103.574 81.5875Z" fill="#C0C9D8"/>
<path d="M101.242 83.4846C93.435 72.8482 86.3695 63.2227 81.2483 56.2454C78.6762 52.7772 76.594 49.9695 75.1482 48.0197C74.4245 47.059 73.8613 46.3116 73.4726 45.7954C73.282 45.5482 73.1352 45.3582 73.0299 45.2218C72.9287 45.0933 72.8747 45.0293 72.8704 45.0323C72.8661 45.0354 72.9119 45.1052 73.0049 45.2392C73.1047 45.3795 73.2435 45.5751 73.4244 45.8289C73.8049 46.3509 74.3562 47.1069 75.0646 48.0783C76.5091 50.029 78.5892 52.8382 81.1589 56.3083C86.3454 63.2398 93.5002 72.8024 101.407 83.3696C109.318 93.9253 116.466 103.495 121.598 110.454C124.165 113.932 126.229 116.757 127.64 118.72C128.346 119.701 128.888 120.467 129.249 120.991C129.61 121.515 129.79 121.797 129.77 121.811C129.75 121.825 129.532 121.57 129.135 121.071C128.738 120.572 128.162 119.829 127.428 118.868C125.96 116.945 123.857 114.148 121.276 110.679C116.111 103.744 109.037 94.1217 101.242 83.4846Z" fill="#C0C9D8"/>
<path d="M98.634 85.0067C92.6342 73.3144 87.2046 62.7334 83.2694 55.0639C81.2866 51.2476 79.6816 48.158 78.5668 46.0126C78.0066 44.9537 77.5707 44.1299 77.2696 43.5609C77.121 43.2879 77.0066 43.0777 76.9245 42.9273C76.8452 42.7851 76.8022 42.7137 76.7973 42.7159C76.7927 42.7183 76.8263 42.7946 76.8967 42.9407C76.9724 43.0945 77.0786 43.3089 77.2159 43.5872C77.5078 44.1607 77.9307 44.9912 78.4737 46.0584C79.5867 48.2046 81.1893 51.2952 83.169 55.113C87.1769 62.7474 92.7056 73.2796 98.8153 84.918C104.931 96.546 110.452 107.084 114.402 114.737C116.377 118.562 117.961 121.666 119.04 123.819C119.578 124.896 119.991 125.735 120.263 126.307C120.536 126.88 120.668 127.186 120.646 127.197C120.624 127.207 120.449 126.922 120.137 126.369C119.825 125.816 119.376 124.995 118.805 123.934C117.664 121.812 116.037 118.729 114.046 114.911C110.061 107.276 104.621 96.6979 98.634 85.0067Z" fill="#C0C9D8"/>
<path d="M95.8123 86.112C91.78 73.6477 88.1312 62.3684 85.4864 54.1925C84.1462 50.1205 83.0613 46.824 82.308 44.5347C81.9257 43.4034 81.6286 42.5233 81.4236 41.9155C81.3208 41.6233 81.2417 41.3981 81.185 41.2367C81.1298 41.0845 81.0987 41.007 81.0935 41.0088C81.0886 41.0103 81.1093 41.0909 81.1551 41.2462C81.2051 41.4094 81.275 41.6373 81.3659 41.9332C81.5612 42.5443 81.844 43.4291 82.2076 44.5658C82.9594 46.8555 84.0415 50.1528 85.3787 54.226C88.1007 62.3779 91.856 73.6242 96.0054 86.0519C100.163 98.4701 103.91 109.721 106.571 117.883C107.903 121.963 108.965 125.27 109.681 127.561C110.039 128.707 110.311 129.598 110.487 130.205C110.663 130.812 110.743 131.135 110.72 131.142C110.696 131.15 110.57 130.841 110.351 130.247C110.132 129.654 109.822 128.774 109.43 127.639C108.647 125.369 107.539 122.076 106.19 118.001C103.491 109.852 99.8321 98.5729 95.8123 86.112Z" fill="#C0C9D8"/>
<path d="M92.8457 86.7709C90.8815 73.8454 89.1038 62.1484 87.8154 53.6698C87.1513 49.4438 86.6137 46.0223 86.2403 43.6466C86.0462 42.4708 85.8952 41.5561 85.7912 40.9243C85.7372 40.6201 85.6954 40.3858 85.6658 40.2177C85.6356 40.0588 85.6176 39.9779 85.6124 39.9785C85.6072 39.9794 85.6149 40.0618 85.635 40.2223C85.6579 40.3913 85.6902 40.6271 85.732 40.9331C85.826 41.5665 85.962 42.4833 86.1372 43.6618C86.5088 46.0378 87.0439 49.4596 87.705 53.6863C89.0733 62.153 90.9606 73.8335 93.0464 86.741C95.1414 99.6403 97.0195 111.324 98.3268 119.791C98.9812 124.024 99.4947 127.452 99.8309 129.825C99.999 131.011 100.123 131.933 100.199 132.559C100.274 133.185 100.302 133.516 100.278 133.52C100.253 133.523 100.178 133.2 100.059 132.58C99.9389 131.96 99.7748 131.044 99.5719 129.863C99.1655 127.501 98.6051 124.08 97.9327 119.849C96.586 111.389 94.7985 99.6913 92.8457 86.7709Z" fill="#C0C9D8"/>
<path d="M89.8094 86.9715C89.9302 73.9063 90.0397 62.083 90.1194 53.5128C90.1377 49.2377 90.1529 45.7768 90.1633 43.3733C90.1596 42.1826 90.1569 41.2564 90.1551 40.6166C90.1505 40.3075 90.1468 40.0699 90.1444 39.8996C90.1404 39.7379 90.1359 39.6553 90.1307 39.6553C90.1255 39.6553 90.12 39.738 90.1145 39.8993C90.1102 40.0699 90.1047 40.3075 90.0971 40.6163C90.0895 41.2561 90.0779 42.1823 90.0632 43.373C90.0513 45.7762 90.0343 49.2374 90.0132 53.5125C90.0129 62.083 90.0126 73.9066 90.0123 86.9724C90.0221 100.032 90.0117 111.857 89.9522 120.418C89.9232 124.699 89.8835 128.163 89.8375 130.557C89.8146 131.754 89.7902 132.684 89.7655 133.314C89.7408 133.944 89.7154 134.275 89.6913 134.275C89.6669 134.275 89.645 133.944 89.6261 133.313C89.6071 132.683 89.5913 131.753 89.5794 130.556C89.5559 128.162 89.5483 124.697 89.5589 120.416C89.5788 111.855 89.6782 100.03 89.8094 86.9715Z" fill="#C0C9D8"/>
<path d="M86.7757 86.7128C88.9851 73.8248 90.9846 62.1617 92.4341 53.7078C93.1355 49.4872 93.7035 46.0706 94.0977 43.6979C94.2841 42.5212 94.429 41.6054 94.5294 40.9732C94.5739 40.6672 94.6084 40.432 94.6331 40.2633C94.6545 40.1031 94.663 40.0204 94.6578 40.0195C94.6527 40.0189 94.6337 40.0998 94.602 40.2584C94.5709 40.4259 94.527 40.6599 94.4699 40.9638C94.3598 41.5944 94.2002 42.5078 93.9949 43.6818C93.5989 46.0541 93.0284 49.4705 92.3233 53.6904C90.9538 62.1568 89.0644 73.8373 86.9761 86.7442C84.8997 99.6466 83.0002 111.327 81.5724 119.775C80.8595 124 80.2661 127.416 79.8374 129.774C79.6233 130.953 79.4503 131.867 79.3246 132.486C79.1989 133.105 79.1208 133.428 79.0967 133.424C79.072 133.42 79.1028 133.09 79.1845 132.464C79.2663 131.838 79.399 130.917 79.5784 129.733C79.9375 127.364 80.4836 123.94 81.1786 119.714C82.5667 111.259 84.5571 99.5926 86.7757 86.7128Z" fill="#C0C9D8"/>
<path d="M83.8212 85.9955C88.0921 73.6069 91.9569 62.3956 94.7582 54.2691C96.1348 50.2087 97.2492 46.9214 98.0232 44.6387C98.3979 43.505 98.6892 42.6231 98.8903 42.0138C98.9839 41.7188 99.0559 41.4915 99.1078 41.3286C99.1551 41.1736 99.1765 41.0934 99.1716 41.0918C99.1664 41.09 99.1344 41.1672 99.0776 41.3188C99.0193 41.4796 98.9382 41.7041 98.8326 41.9952C98.6215 42.6014 98.3158 43.4788 97.9226 44.6064C97.147 46.8884 96.0298 50.1748 94.6502 54.2343C91.9261 62.3858 88.1681 73.6313 84.0153 86.0577C79.8746 98.4814 76.1068 109.726 73.3278 117.85C71.9394 121.913 70.7996 125.195 69.9939 127.458C69.5911 128.589 69.2717 129.466 69.0475 130.058C68.8229 130.65 68.693 130.956 68.6695 130.949C68.6457 130.941 68.7296 130.619 68.9114 130.014C69.0932 129.408 69.3733 128.519 69.7425 127.377C70.4802 125.093 71.5742 121.795 72.9453 117.727C75.6861 109.591 79.5424 98.3749 83.8212 85.9955Z" fill="#C0C9D8"/>
<path d="M81.0224 84.8366C87.2449 73.2547 92.8761 62.7738 96.9576 55.1765C98.9745 51.3773 100.608 48.3015 101.741 46.1656C102.295 45.1033 102.726 44.2768 103.023 43.7063C103.164 43.4292 103.272 43.2157 103.349 43.0628C103.421 42.9173 103.455 42.8414 103.45 42.8389C103.446 42.8368 103.402 42.9079 103.321 43.0491C103.238 43.1989 103.121 43.4082 102.97 43.6797C102.664 44.2457 102.22 45.0657 101.649 46.1195C100.513 48.2545 98.8787 51.3291 96.8587 55.1271C92.8484 62.7597 87.3154 73.2901 81.2014 84.9263C75.1001 96.5616 69.5576 107.089 65.4981 114.687C63.4693 118.487 61.8127 121.555 60.6512 123.666C60.0703 124.722 59.6136 125.539 59.2963 126.089C58.9794 126.639 58.8018 126.923 58.7801 126.912C58.7582 126.901 58.8933 126.596 59.1713 126.026C59.4492 125.457 59.8702 124.622 60.4197 123.55C61.5186 121.407 63.1334 118.318 65.1463 114.511C69.1704 106.895 74.7937 96.4079 81.0224 84.8366Z" fill="#C0C9D8"/>
<path d="M78.4449 83.2639C86.4537 72.7699 93.7013 63.2735 98.9549 56.3899C101.558 52.9437 103.665 50.1537 105.129 48.2164C105.847 47.2514 106.405 46.5006 106.791 45.9822C106.974 45.7299 107.115 45.5356 107.216 45.3962C107.31 45.2631 107.357 45.1936 107.352 45.1905C107.348 45.1875 107.293 45.2512 107.191 45.3785C107.084 45.5139 106.936 45.7028 106.743 45.9481C106.349 46.4606 105.779 47.2032 105.046 48.1572C103.581 50.0936 101.472 52.882 98.8658 56.3264C93.6769 63.2561 86.5187 72.8166 78.6085 83.3811C70.7104 93.9462 63.5431 103.502 58.3115 110.39C55.6963 113.835 53.5668 116.613 52.0795 118.522C51.336 119.477 50.7533 120.214 50.3515 120.709C49.9497 121.205 49.7288 121.458 49.709 121.443C49.6891 121.429 49.8716 121.149 50.238 120.628C50.6041 120.108 51.1539 119.347 51.869 118.372C53.2995 116.422 55.3909 113.617 57.9911 110.161C63.1907 103.251 70.4316 93.7469 78.4449 83.2639Z" fill="#C0C9D8"/>
<path d="M76.1517 81.3208C85.7423 72.1649 94.4217 63.8794 100.712 57.8738C103.836 54.8629 106.364 52.4256 108.12 50.7333C108.983 49.8885 109.655 49.231 110.119 48.7774C110.34 48.5559 110.511 48.385 110.633 48.263C110.747 48.1458 110.804 48.0839 110.8 48.0803C110.797 48.0766 110.733 48.1312 110.611 48.2416C110.484 48.3594 110.307 48.5232 110.077 48.7365C109.606 49.1834 108.924 49.8305 108.048 50.6622C106.291 52.3536 103.761 54.7894 100.635 57.7981C94.4006 63.8589 85.7994 72.2207 76.2948 81.4608C66.802 90.7034 58.1922 99.06 51.9218 105.073C48.7874 108.08 46.239 110.503 44.4646 112.164C43.5775 112.995 42.884 113.635 42.4078 114.063C41.9315 114.492 41.6731 114.709 41.6557 114.692C41.6383 114.675 41.8635 114.425 42.3086 113.966C42.7537 113.507 43.4188 112.839 44.2813 111.984C46.0062 110.274 48.521 107.819 51.6427 104.799C57.885 98.7585 66.5586 90.4648 76.1517 81.3208Z" fill="#C0C9D8"/>
<path d="M74.1973 79.0556C85.1367 71.4611 95.0361 64.5884 102.212 59.607C105.779 57.1047 108.666 55.0792 110.671 53.6728C111.66 52.969 112.428 52.421 112.959 52.043C113.213 51.8575 113.409 51.7148 113.549 51.6126C113.681 51.514 113.747 51.4615 113.744 51.4573C113.741 51.4533 113.669 51.4975 113.531 51.5882C113.387 51.6852 113.186 51.8203 112.925 51.9961C112.388 52.3664 111.61 52.9025 110.611 53.5916C108.605 54.9966 105.716 57.0202 102.147 59.5198C95.0184 64.5646 85.1837 71.5245 74.316 79.2154C63.4598 86.9106 53.6175 93.8641 46.4611 98.8562C42.8837 101.353 39.9787 103.361 37.9599 104.734C36.9507 105.42 36.163 105.948 35.6239 106.299C35.0851 106.65 34.795 106.825 34.7803 106.806C34.7663 106.786 35.0284 106.574 35.5415 106.188C36.0547 105.801 36.8186 105.242 37.8074 104.528C39.7846 103.099 42.6619 101.054 46.2289 98.5432C53.3618 93.5196 63.2576 86.6378 74.1973 79.0556Z" fill="#C0C9D8"/>
<path d="M72.6304 76.5214C84.6572 70.683 95.5405 65.3995 103.429 61.5698C107.355 59.6401 110.533 58.0784 112.74 56.9938C113.829 56.4486 114.676 56.0242 115.261 55.7314C115.542 55.5868 115.758 55.4754 115.913 55.3958C116.059 55.3186 116.133 55.2765 116.13 55.2719C116.128 55.2673 116.05 55.3 115.899 55.3686C115.741 55.4424 115.52 55.5456 115.234 55.6792C114.645 55.9635 113.79 56.3748 112.692 56.9032C110.485 57.9862 107.306 59.5458 103.379 61.4725C95.5264 65.372 84.6929 70.7522 72.7219 76.6974C60.7614 82.6487 49.9217 88.0216 42.0505 91.8647C38.1152 93.7874 34.9228 95.3287 32.7079 96.3778C31.6007 96.9023 30.7377 97.3038 30.1488 97.5689C29.56 97.8337 29.2452 97.9621 29.2342 97.9408C29.2229 97.9194 29.5161 97.7492 30.0851 97.4456C30.6538 97.1424 31.4982 96.7055 32.5898 96.1502C34.7727 95.04 37.9435 93.457 41.8705 91.5188C49.7237 87.6408 60.6049 82.3479 72.6304 76.5214Z" fill="#C0C9D8"/>
<path d="M71.4918 73.7793C84.3136 69.8526 95.9169 66.2992 104.328 63.7237C108.517 62.4185 111.908 61.362 114.263 60.6283C115.426 60.2564 116.332 59.9669 116.957 59.7671C117.258 59.667 117.489 59.5901 117.655 59.5349C117.812 59.4809 117.892 59.451 117.89 59.4461C117.888 59.4409 117.806 59.4614 117.646 59.5059C117.478 59.5547 117.243 59.6227 116.939 59.7109C116.31 59.9013 115.4 60.1768 114.231 60.531C111.875 61.2629 108.483 62.317 104.293 63.6187C95.9071 66.2693 84.338 69.9264 71.5534 73.9672C58.7789 78.016 47.2043 81.6645 38.8089 84.2562C34.6116 85.5531 31.2093 86.5874 28.8522 87.2845C27.6736 87.6329 26.7566 87.8977 26.132 88.0692C25.5078 88.2406 25.1759 88.3193 25.1686 88.2965C25.161 88.2736 25.4779 88.1503 26.0887 87.9374C26.6995 87.7247 27.6044 87.4221 28.772 87.0407C31.1074 86.278 34.495 85.1995 38.6869 83.8859C47.07 81.2572 58.6727 77.6942 71.4918 73.7793Z" fill="#C0C9D8"/>
<path d="M70.8107 70.8968C84.1088 68.9796 96.1429 67.2446 104.866 65.987C109.214 65.339 112.734 64.8143 115.178 64.45C116.388 64.2606 117.329 64.1132 117.979 64.0116C118.292 63.9591 118.533 63.9186 118.705 63.8896C118.869 63.8603 118.953 63.8426 118.952 63.8374C118.951 63.8325 118.866 63.8398 118.701 63.8594C118.527 63.8819 118.284 63.9134 117.97 63.9543C117.318 64.0461 116.375 64.1791 115.162 64.3499C112.718 64.7124 109.197 65.2347 104.849 65.8799C96.1383 67.2147 84.121 69.0565 70.8415 71.092C57.5703 73.1361 45.5494 74.969 36.8389 76.2446C32.4838 76.8834 28.9567 77.3844 26.516 77.7127C25.2957 77.8768 24.3472 77.9976 23.7029 78.0718C23.0585 78.1459 22.718 78.1727 22.7144 78.1492C22.7107 78.1254 23.0436 78.0522 23.6815 77.9357C24.3191 77.8188 25.2615 77.659 26.4764 77.461C28.9064 77.0647 32.4265 76.5177 36.7785 75.8617C45.4829 74.5474 57.5179 72.8029 70.8107 70.8968Z" fill="#C0C9D8"/>
<path d="M70.6029 67.9459C84.0458 68.0554 96.2111 68.1542 105.029 68.2262C109.428 68.2415 112.989 68.254 115.462 68.2625C116.687 68.2583 117.64 68.2549 118.298 68.2528C118.616 68.2482 118.861 68.2445 119.036 68.2421C119.202 68.2381 119.287 68.2335 119.287 68.2284C119.287 68.2235 119.203 68.2183 119.036 68.2128C118.861 68.2091 118.616 68.2036 118.299 68.1966C117.641 68.1893 116.687 68.1789 115.462 68.1652C112.99 68.1554 109.428 68.1408 105.029 68.1231C96.2111 68.128 84.0455 68.1353 70.602 68.1432C57.1651 68.1606 44.9971 68.1582 36.1884 68.1054C31.7842 68.0801 28.2196 68.0435 25.7563 68.0005C24.5247 67.9788 23.5682 67.9556 22.9199 67.9321C22.2713 67.9083 21.9312 67.8839 21.9312 67.8604C21.9312 67.8369 22.2716 67.8153 22.9202 67.7964C23.5692 67.7778 24.5256 67.7619 25.7572 67.7494C28.2211 67.725 31.7857 67.7155 36.1899 67.7234C44.9989 67.7372 57.1666 67.8266 70.6029 67.9459Z" fill="#C0C9D8"/>
<path d="M70.8669 64.9972C84.1289 67.1365 96.1307 69.0722 104.83 70.4753C109.173 71.1544 112.689 71.7042 115.13 72.0859C116.341 72.2665 117.283 72.4068 117.934 72.5035C118.249 72.5468 118.491 72.5801 118.665 72.6039C118.83 72.6249 118.914 72.6329 118.915 72.628C118.916 72.6228 118.833 72.6045 118.67 72.574C118.497 72.5435 118.256 72.5011 117.944 72.4462C117.295 72.3394 116.355 72.1847 115.147 71.9861C112.706 71.6026 109.19 71.0501 104.848 70.3679C96.1356 69.0423 84.1161 67.2133 70.8346 65.1922C57.5579 63.1823 45.5378 61.3435 36.8444 59.9612C32.4979 59.2711 28.9824 58.6966 26.556 58.2814C25.3427 58.0739 24.4018 57.9064 23.7651 57.7847C23.1281 57.663 22.7959 57.5873 22.7998 57.5635C22.8035 57.54 23.1437 57.5696 23.7874 57.6486C24.4314 57.7276 25.379 57.8561 26.5978 58.0297C29.0355 58.3769 32.5583 58.9056 36.9082 59.5783C45.6077 60.9222 57.6131 62.8491 70.8669 64.9972Z" fill="#C0C9D8"/>
<path d="M71.6031 62.1255C84.3529 66.2686 95.8909 70.0175 104.254 72.7352C108.433 74.0702 111.816 75.1511 114.165 75.902C115.332 76.2653 116.239 76.5478 116.866 76.7431C117.17 76.834 117.404 76.9039 117.572 76.9539C117.731 76.9997 117.814 77.0207 117.816 77.0158C117.817 77.0106 117.738 76.9798 117.582 76.9246C117.416 76.8682 117.185 76.7895 116.886 76.6869C116.262 76.4822 115.359 76.1854 114.198 75.8043C111.85 75.0517 108.467 73.9683 104.29 72.6299C95.901 69.9876 84.3279 66.3424 71.5393 62.3144C58.7535 58.2982 47.1813 54.6433 38.8205 51.9476C34.6399 50.6006 31.2614 49.4953 28.9327 48.7134C27.7682 48.3229 26.866 48.0132 26.2574 47.7954C25.6481 47.5776 25.3321 47.4516 25.34 47.4287C25.3476 47.4055 25.6789 47.4866 26.3019 47.663C26.9249 47.8393 27.8399 48.1112 29.0157 48.469C31.3666 49.1847 34.7601 50.2458 38.9465 51.5757C47.3198 54.2342 58.863 57.9752 71.6031 62.1255Z" fill="#C0C9D8"/>
<path d="M72.7941 59.4053C84.7147 65.4456 95.5025 70.9115 103.322 74.8737C107.232 76.8314 110.398 78.4166 112.596 79.5171C113.69 80.0546 114.54 80.4726 115.128 80.7612C115.413 80.8976 115.633 81.0025 115.79 81.0776C115.94 81.1471 116.018 81.1807 116.02 81.1761C116.023 81.1715 115.95 81.1291 115.804 81.0507C115.65 80.9699 115.435 80.8567 115.155 80.7099C114.572 80.4125 113.729 79.9814 112.644 79.4277C110.447 78.3254 107.282 76.738 103.373 74.7776C95.5169 70.8847 84.6784 65.514 72.7017 59.5795C60.7262 53.6568 49.8902 48.2767 42.0699 44.3365C38.1594 42.3669 35.002 40.7588 32.8286 39.6315C31.7419 39.0677 30.9008 38.6241 30.3345 38.3162C29.7683 38.0081 29.4763 37.836 29.4876 37.8147C29.4989 37.7936 29.8125 37.9248 30.3992 38.1945C30.9856 38.4645 31.845 38.8727 32.9479 39.4063C35.1537 40.4732 38.3326 42.0404 42.2515 43.9942C50.09 47.9005 60.8842 53.3591 72.7941 59.4053Z" fill="#C0C9D8"/>
<path d="M74.4105 56.8992C85.2129 64.6762 94.9887 71.7142 102.075 76.8155C105.622 79.3434 108.494 81.3899 110.489 82.811C111.482 83.5078 112.255 84.0503 112.788 84.4246C113.048 84.6025 113.248 84.7395 113.391 84.8377C113.528 84.9292 113.6 84.9744 113.603 84.9701C113.606 84.9658 113.541 84.9131 113.41 84.8136C113.27 84.7102 113.076 84.5656 112.823 84.3782C112.296 83.9957 111.532 83.4419 110.55 82.7302C108.556 81.3079 105.686 79.2595 102.14 76.7292C95.0064 71.6907 85.1653 64.7396 74.2903 57.0582C63.4146 49.389 53.5774 42.4291 46.4869 37.3488C42.9412 34.8096 40.0814 32.7414 38.116 31.2974C37.1333 30.5753 36.374 30.0097 35.8642 29.6195C35.3544 29.2292 35.0939 29.0148 35.1085 28.9956C35.1231 28.9763 35.4117 29.1533 35.9478 29.5087C36.4838 29.8644 37.267 30.3983 38.2704 31.0927C40.2775 32.4815 43.1655 34.5124 46.7219 37.0373C53.8361 42.0864 63.6193 49.1177 74.4105 56.8992Z" fill="#C0C9D8"/>
<path d="M76.4078 54.6684C85.8344 63.9835 94.3651 72.4136 100.548 78.5242C103.648 81.5573 106.158 84.013 107.9 85.7184C108.77 86.5571 109.446 87.2096 109.914 87.6603C110.142 87.875 110.317 88.0407 110.443 88.1594C110.564 88.2707 110.628 88.3256 110.631 88.3223C110.635 88.3186 110.579 88.2564 110.465 88.1383C110.344 88.0151 110.175 87.843 109.956 87.6197C109.496 87.1623 108.829 86.4997 107.973 85.6482C106.232 83.9419 103.724 81.4844 100.626 78.4488C94.3859 72.3932 85.777 64.039 76.2638 54.8072C66.7479 45.5872 58.1442 37.2245 51.9531 31.1344C48.8568 28.0903 46.3628 25.6148 44.6525 23.8914C43.7973 23.0298 43.1377 22.3562 42.6966 21.8937C42.2554 21.4312 42.0324 21.1798 42.0498 21.163C42.0672 21.1462 42.324 21.365 42.7966 21.7973C43.2692 22.2296 43.9572 22.8754 44.8373 23.7132C46.5977 25.3884 49.1256 27.8312 52.2347 30.8629C58.4542 36.9258 66.9932 45.3505 76.4078 54.6684Z" fill="#C0C9D8"/>
<path d="M78.7378 52.7674C86.5589 63.3944 93.6366 73.0113 98.7669 79.9822C101.343 83.447 103.429 86.2523 104.878 88.2002C105.603 89.16 106.167 89.9069 106.556 90.4228C106.747 90.6696 106.894 90.8597 107 90.9957C107.101 91.1239 107.155 91.1879 107.159 91.1852C107.163 91.1821 107.118 91.112 107.025 90.9783C106.925 90.8383 106.785 90.6427 106.604 90.3889C106.223 89.8675 105.671 89.1121 104.961 88.1417C103.514 86.1928 101.431 83.386 98.8563 79.9196C93.661 72.9942 86.4937 63.4401 78.5733 52.8827C70.6488 42.3365 63.4881 32.7754 58.3471 25.8235C55.7759 22.3482 53.708 19.5259 52.2942 17.5648C51.5874 16.5843 51.0437 15.8191 50.6822 15.2956C50.3203 14.7721 50.1403 14.4902 50.1602 14.4761C50.1803 14.4621 50.3991 14.7168 50.7966 15.2154C51.1941 15.7139 51.7704 16.4558 52.506 17.4165C53.9768 19.3374 56.0831 22.1325 58.6693 25.5974C63.8426 32.5265 70.9291 42.1397 78.7378 52.7674Z" fill="#C0C9D8"/>
<path d="M81.3442 51.2428C87.3593 62.9279 92.8026 73.5021 96.748 81.1668C98.7359 84.9807 100.345 88.0684 101.462 90.2123C102.024 91.2706 102.461 92.094 102.763 92.6624C102.912 92.9351 103.026 93.1453 103.109 93.2957C103.188 93.4376 103.231 93.5093 103.236 93.5069C103.241 93.5047 103.207 93.4285 103.136 93.282C103.06 93.1286 102.954 92.9144 102.816 92.6362C102.524 92.0632 102.1 91.2331 101.555 90.1665C100.44 88.0217 98.8329 84.9331 96.848 81.1177C92.8304 73.4884 87.2879 62.963 81.1633 51.3319C75.032 39.7115 69.4972 29.1803 65.5378 21.5327C63.5572 17.7091 61.9689 14.6076 60.8883 12.4555C60.3477 11.3798 59.9343 10.5414 59.6612 9.9694C59.3882 9.39706 59.2558 9.09106 59.2777 9.08038C59.2997 9.0694 59.4751 9.35435 59.7878 9.90686C60.1002 10.4597 60.5506 11.28 61.1223 12.3405C62.2664 14.4615 63.897 17.5422 65.8938 21.3576C69.8889 28.9875 75.3417 39.5593 81.3442 51.2428Z" fill="#C0C9D8"/>
<path d="M84.1644 50.1348C88.2129 62.5942 91.8763 73.8689 94.5318 82.0415C95.8772 86.112 96.9667 89.4072 97.723 91.6953C98.1065 92.826 98.4048 93.7061 98.6108 94.3136C98.7139 94.6058 98.7932 94.8307 98.85 94.9921C98.9058 95.1443 98.9366 95.2215 98.9418 95.22C98.947 95.2181 98.9259 95.1379 98.8802 94.9826C98.8298 94.8194 98.7596 94.5915 98.6684 94.2956C98.4723 93.6851 98.1882 92.8006 97.823 91.6639C97.0686 89.3754 95.9819 86.0793 94.6395 82.0079C91.9068 73.8594 88.1369 62.6177 83.971 50.1952C79.7971 37.7822 76.0357 26.5356 73.3635 18.3779C72.0263 14.2992 70.9603 10.9933 70.2412 8.70304C69.8818 7.55775 69.6091 6.6666 69.4321 6.05979C69.2552 5.45297 69.1743 5.1305 69.1978 5.12317C69.2213 5.11585 69.3482 5.42399 69.5676 6.01768C69.7873 6.61107 70.0987 7.49033 70.492 8.62494C71.2785 10.8942 72.3902 14.1857 73.7445 18.2589C76.4546 26.405 80.1281 37.6788 84.1644 50.1348Z" fill="#C0C9D8"/>
<path d="M87.1302 49.4721C89.1111 62.3952 90.9038 74.0897 92.2035 82.5665C92.8732 86.7919 93.4153 90.2128 93.7918 92.5882C93.9873 93.7634 94.1393 94.6781 94.2442 95.3096C94.2988 95.6137 94.3406 95.8481 94.3705 96.0162C94.4007 96.1751 94.419 96.256 94.4242 96.2553C94.4294 96.2544 94.4218 96.172 94.4013 96.0116C94.3781 95.8426 94.3458 95.607 94.3034 95.3007C94.2088 94.6677 94.0712 93.7509 93.8946 92.5727C93.5199 90.197 92.9802 86.776 92.3136 82.55C90.9346 74.0851 89.0321 62.4068 86.9295 49.502C84.8174 36.6051 82.9243 24.9234 81.6061 16.4585C80.9462 12.2264 80.4281 8.79876 80.0889 6.42703C79.9192 5.24117 79.7942 4.3192 79.7176 3.69286C79.641 3.06683 79.6132 2.73611 79.6373 2.73245C79.6618 2.72879 79.7371 3.05218 79.8576 3.67211C79.9781 4.29174 80.1435 5.20761 80.3479 6.38829C80.757 8.74964 81.322 12.1703 82.0002 16.3997C83.3576 24.8587 85.1603 36.5539 87.1302 49.4721Z" fill="#C0C9D8"/>
<path d="M90.1659 49.2673C90.0616 62.3326 89.9673 74.1561 89.8993 82.7263C89.8862 87.0014 89.8755 90.4626 89.8682 92.8658C89.8734 94.0565 89.8773 94.9831 89.8801 95.6228C89.8849 95.9316 89.8889 96.1692 89.8914 96.3398C89.8956 96.5012 89.9005 96.5838 89.9057 96.5838C89.9109 96.5838 89.9161 96.5012 89.9216 96.3398C89.9255 96.1692 89.9307 95.9316 89.9377 95.6228C89.9447 94.9831 89.9551 94.0568 89.9682 92.8661C89.9771 90.4626 89.9896 87.0017 90.0051 82.7266C89.9942 74.1561 89.9792 62.3323 89.9627 49.2667C89.9362 36.2075 89.9313 24.3818 89.9798 15.8208C90.0033 11.5402 90.0384 8.07594 90.0814 5.68163C90.1028 4.48478 90.126 3.55519 90.1498 2.92489C90.1739 2.29458 90.1986 1.96356 90.223 1.96387C90.2471 1.96387 90.2697 2.29488 90.2895 2.9255C90.309 3.5558 90.3261 4.4854 90.3395 5.68255C90.3664 8.07686 90.3783 11.5414 90.3728 15.822C90.3642 24.3833 90.28 36.2087 90.1659 49.2673Z" fill="#C0C9D8"/>
<path d="M93.2002 49.5222C91.0078 62.413 89.0239 74.0785 87.5857 82.5342C86.8898 86.7557 86.3263 90.1729 85.9352 92.5462C85.7503 93.7232 85.6066 94.6391 85.5071 95.2715C85.4629 95.5772 85.4287 95.8127 85.4043 95.9815C85.383 96.1416 85.3747 96.2243 85.3799 96.2249C85.3851 96.2258 85.4037 96.145 85.4351 95.9863C85.4663 95.8185 85.5099 95.5845 85.5663 95.2807C85.6759 94.6498 85.8342 93.7363 86.038 92.5621C86.4309 90.1894 86.9972 86.7725 87.6961 82.5513C89.0547 74.0831 90.9288 62.4004 92.9997 49.4908C95.0594 36.586 96.9433 24.9031 98.3601 16.4531C99.0673 12.2283 99.6561 8.81136 100.082 6.45275C100.295 5.27359 100.466 4.35864 100.591 3.73993C100.716 3.12091 100.793 2.79783 100.818 2.80179C100.842 2.80545 100.812 3.13586 100.731 3.76159C100.65 4.38732 100.519 5.30837 100.341 6.49302C99.985 8.86261 99.4434 12.2869 98.7539 16.5148C97.3768 24.9705 95.402 36.6397 93.2002 49.5222Z" fill="#C0C9D8"/>
<path d="M96.1556 50.2358C91.9012 62.6299 88.0513 73.846 85.2604 81.9759C83.8893 86.0384 82.7794 89.3269 82.0085 91.6105C81.6354 92.7445 81.3452 93.6271 81.1448 94.2367C81.0514 94.5317 80.9797 94.759 80.9282 94.9222C80.8812 95.0772 80.8598 95.1574 80.865 95.1589C80.8699 95.1605 80.9016 95.0836 80.9584 94.9316C81.0166 94.7709 81.0972 94.5463 81.2024 94.255C81.413 93.6488 81.7177 92.7707 82.1092 91.6425C82.8816 89.3596 83.9943 86.072 85.3687 82.0107C88.0818 73.8558 91.8252 62.6058 95.9615 50.1739C100.085 37.745 103.839 26.4959 106.607 18.3684C107.99 14.3044 109.125 11.0202 109.928 8.75642C110.329 7.62456 110.647 6.74744 110.871 6.15557C111.095 5.5634 111.224 5.25618 111.248 5.26381C111.271 5.27144 111.188 5.5933 111.007 6.1989C110.826 6.80449 110.547 7.69412 110.179 8.83666C109.445 11.1224 108.355 14.4209 106.989 18.4905C104.26 26.6301 100.418 37.8512 96.1556 50.2358Z" fill="#C0C9D8"/>
<path d="M98.9554 51.392C92.7485 62.9819 87.1312 73.4698 83.0596 81.0719C81.0475 84.8739 79.4187 87.9519 78.288 90.089C77.7355 91.1519 77.306 91.979 77.0091 92.5498C76.8694 92.8271 76.7614 93.0407 76.6842 93.1935C76.6128 93.3394 76.5783 93.4153 76.5829 93.4175C76.5878 93.4199 76.6314 93.3488 76.712 93.2073C76.7953 93.0575 76.9112 92.8482 77.0622 92.5764C77.3679 92.0098 77.8109 91.1894 78.3799 90.1351C79.5127 87.9986 81.1436 84.9218 83.1584 81.1213C87.1587 73.4835 92.6777 62.9465 98.7763 51.3026C104.863 39.66 110.391 29.1251 114.44 21.5221C116.464 17.7204 118.117 14.6506 119.276 12.5373C119.855 11.4808 120.311 10.6635 120.627 10.1128C120.943 9.56212 121.121 9.27839 121.142 9.28937C121.164 9.30035 121.03 9.60513 120.752 10.1753C120.475 10.7455 120.055 11.5812 119.507 12.6532C118.411 14.7977 116.8 17.8885 114.793 21.6984C110.779 29.3191 105.169 39.8131 98.9554 51.392Z" fill="#C0C9D8"/>
<path d="M101.535 52.9603C93.5401 63.4644 86.3047 72.9699 81.0606 79.86C78.4616 83.3096 76.3581 86.102 74.897 88.0411C74.1807 89.0067 73.623 89.7584 73.2383 90.2774C73.0552 90.5297 72.9146 90.7243 72.8136 90.8638C72.7193 90.9968 72.6732 91.0666 72.6775 91.0697C72.6818 91.0727 72.7364 91.009 72.8386 90.8815C72.9448 90.746 73.0933 90.5568 73.2859 90.3113C73.6791 89.7984 74.2484 89.0552 74.9803 88.1003C76.4426 86.1621 78.5483 83.3709 81.1497 79.9234C86.3292 72.987 93.4752 63.418 101.371 52.8438C109.256 42.2689 116.411 32.7036 121.633 25.8096C124.244 22.3618 126.37 19.581 127.854 17.6699C128.597 16.7144 129.178 15.9764 129.579 15.4806C129.98 14.9849 130.201 14.7316 130.221 14.7457C130.241 14.7597 130.059 15.0404 129.693 15.5618C129.328 16.0826 128.779 16.8443 128.065 17.82C126.637 19.7716 124.55 22.5796 121.954 26.0378C116.763 32.9547 109.535 42.4678 101.535 52.9603Z" fill="#C0C9D8"/>
<path d="M103.831 54.9008C94.2525 64.0683 85.5841 72.3644 79.3009 78.378C76.1817 81.3925 73.6565 83.8332 71.9032 85.5276C71.0407 86.3733 70.3698 87.0317 69.9067 87.486C69.6855 87.7078 69.5153 87.8786 69.3932 88.001C69.2788 88.1184 69.2221 88.1803 69.2258 88.1837C69.2294 88.1874 69.2935 88.1327 69.4149 88.0223C69.5415 87.9045 69.7185 87.7401 69.9482 87.5265C70.4186 87.0793 71.0999 86.4313 71.9755 85.5984C73.73 83.9049 76.257 81.466 79.3784 78.4536C85.6049 72.3849 94.1954 64.0124 103.688 54.7607C113.169 45.5066 121.767 37.1393 128.03 31.1185C131.16 28.1076 133.706 25.6818 135.478 24.0185C136.364 23.1869 137.057 22.5456 137.532 22.1163C138.008 21.6874 138.266 21.4705 138.284 21.4872C138.301 21.5043 138.076 21.7539 137.632 22.2136C137.187 22.6731 136.523 23.3422 135.661 24.1982C133.939 25.9101 131.427 28.3684 128.309 31.3918C122.075 37.4401 113.412 45.7448 103.831 54.9008Z" fill="#C0C9D8"/>
<path d="M105.789 57.1645C94.8592 64.7724 84.9687 71.6572 77.7995 76.6478C74.2358 79.1541 71.3509 81.1832 69.3474 82.5921C68.3604 83.2974 67.5922 83.846 67.062 84.2249C66.8079 84.4107 66.6126 84.5538 66.4723 84.6563C66.3408 84.7548 66.2749 84.8073 66.2779 84.8116C66.281 84.8155 66.353 84.7713 66.4906 84.6804C66.6346 84.5834 66.8356 84.4476 67.0965 84.2716C67.6331 83.9006 68.4096 83.3636 69.4081 82.6735C71.4122 81.2659 74.2986 79.2386 77.8641 76.7344C84.9864 71.681 94.8119 64.7089 105.67 57.0046C116.516 49.296 126.349 42.3303 133.499 37.3294C137.073 34.8283 139.975 32.8169 141.992 31.4415C143 30.7539 143.788 30.2255 144.326 29.8734C144.864 29.5213 145.155 29.3462 145.169 29.3657C145.183 29.3849 144.921 29.5979 144.409 29.9844C143.896 30.3713 143.133 30.932 142.145 31.6472C140.17 33.078 137.295 35.1267 133.731 37.6424C126.605 42.6745 116.719 49.5685 105.789 57.1645Z" fill="#C0C9D8"/>
<path d="M107.359 59.6964C95.3401 65.5498 84.4635 70.8469 76.5795 74.6864C72.6568 76.6207 69.4808 78.187 67.2754 79.274C66.1871 79.8204 65.3402 80.2457 64.7554 80.5395C64.475 80.6844 64.2587 80.7961 64.104 80.876C63.9582 80.9535 63.8843 80.9953 63.8868 80.9999C63.8892 81.0047 63.9676 80.9718 64.118 80.9032C64.2761 80.829 64.4963 80.7256 64.7825 80.5914C65.3719 80.3067 66.2256 79.8942 67.3226 79.3643C69.5287 78.2785 72.7059 76.7149 76.6302 74.7838C84.4776 70.8741 95.3038 65.4805 107.267 59.5204C119.22 53.5541 130.052 48.1681 137.918 44.3149C141.851 42.3877 145.042 40.8421 147.255 39.7905C148.361 39.2645 149.224 38.8618 149.812 38.5961C150.401 38.3304 150.716 38.2016 150.727 38.223C150.738 38.2443 150.445 38.4149 149.877 38.7191C149.308 39.0232 148.464 39.4613 147.373 40.0178C145.192 41.1308 142.023 42.7178 138.099 44.6609C130.251 48.5486 119.377 53.8549 107.359 59.6964Z" fill="#C0C9D8"/>
<path d="M108.501 62.4364C95.6842 66.379 84.0858 69.9467 75.6786 72.5329C71.4913 73.8435 68.1015 74.904 65.7477 75.6408C64.5844 76.0142 63.6793 76.3047 63.0541 76.5054C62.7536 76.6058 62.5224 76.683 62.3564 76.7382C62.1996 76.7925 62.1203 76.8227 62.1221 76.8276C62.1236 76.8325 62.2063 76.8123 62.3662 76.7675C62.534 76.7184 62.7683 76.65 63.0727 76.5612C63.7009 76.3703 64.6107 76.0936 65.7798 75.7381C68.1344 75.0032 71.5248 73.9451 75.713 72.6379C84.0955 69.9766 95.6601 66.3055 108.439 62.2485C121.208 58.1838 132.778 54.5207 141.17 51.9183C142.818 51.407 144.343 50.9362 145.73 50.5109C147.875 49.8529 149.692 49.3031 151.122 48.8778C152.3 48.5276 153.217 48.2622 153.842 48.0898C154.466 47.9174 154.797 47.8384 154.805 47.8613C154.812 47.8842 154.496 48.0077 153.885 48.2213C153.274 48.4348 152.37 48.7384 151.203 49.1213C148.869 49.8871 145.482 50.9698 141.292 52.2887C132.913 54.928 121.315 58.5054 108.501 62.4364Z" fill="#C0C9D8"/>
<path d="M109.185 65.3185C95.8898 67.2522 83.8582 69.0021 75.137 70.2704C70.7899 70.9239 67.2704 71.4532 64.8267 71.8205C63.6173 72.0112 62.6765 72.1598 62.0266 72.2623C61.7133 72.3153 61.4726 72.3562 61.2999 72.3852C61.1364 72.4148 61.0531 72.4325 61.0537 72.4377C61.0546 72.4426 61.1398 72.4353 61.3045 72.4154C61.4784 72.3925 61.7209 72.3608 62.0358 72.3196C62.6871 72.2272 63.6305 72.0929 64.8426 71.9206C67.2866 71.5548 70.8064 71.0282 75.1541 70.3778C83.8628 69.0317 95.8776 67.175 109.154 65.1233C122.423 63.0624 134.441 61.2148 143.15 59.9283C147.504 59.2843 151.031 58.7787 153.471 58.4474C154.691 58.2817 155.639 58.1597 156.284 58.085C156.928 58.0099 157.268 57.9828 157.272 58.0063C157.276 58.0301 156.943 58.1036 156.305 58.221C155.668 58.3385 154.725 58.4999 153.511 58.6994C151.082 59.0985 147.562 59.6497 143.211 60.3112C134.508 61.6362 122.476 63.3959 109.185 65.3185Z" fill="#C0C9D8"/>
</g>
<path d="M145.998 119.413C145.998 119.452 120.925 119.484 90.0028 119.484C59.07 119.484 34.0024 119.452 34.0024 119.413C34.0024 119.373 59.07 119.342 90.0028 119.342C120.925 119.342 145.998 119.373 145.998 119.413Z" fill="#335863"/>
<mask id="mask1_559_7060" style="mask-type:luminance" maskUnits="userSpaceOnUse" x="58" y="16" width="73" height="104">
<path d="M130.192 16.4717H58.082V119.342H130.192V16.4717Z" fill="white"/>
</mask>
<g mask="url(#mask1_559_7060)">
<path d="M121.558 88.6562C121.54 88.0699 121.187 87.5513 120.698 87.2283C113.055 82.1694 107.295 70.9589 106.715 61.4684C106.7 60.9279 106.682 60.3792 106.665 59.8268L106.664 59.8201C106.223 46.25 104.225 29.7922 102.43 25.405C99.1174 17.3018 87.8946 16.5408 87.8946 16.5408C72.9973 15.4751 70.3362 26.9221 68.8324 37.3487C67.8973 43.8327 64.2939 66.9949 64.2939 66.9949L67.0324 68.0545C70.2584 77.6132 77.5224 85.3448 86.9643 88.9C89.7108 89.9343 92.0356 90.3494 93.1267 89.4596C97.4643 93.8564 102.893 97.1787 108.804 98.9773C111.21 99.7092 113.732 100.198 116.236 99.9639C117.862 99.8118 119.576 99.2746 120.545 97.9602C121.381 96.8281 121.496 95.2089 120.828 93.9704C120.161 92.7319 118.747 91.9371 117.342 92.011C117.906 90.1795 121.621 90.7186 121.558 88.6562Z" fill="#2C343A"/>
<path d="M89.8765 20.7545L88.9443 19.8662L78.8722 23.9257C77.4152 24.0063 76.2617 25.1885 76.2173 26.6474L76.306 59.4648C76.2931 61.6899 76.7392 63.6173 78.0831 65.391L79.4972 67.2588C82.7227 71.5172 89.3575 71.1666 91.9108 66.475C92.0897 66.1472 92.2138 65.8595 92.2672 65.6263C92.3211 65.3338 92.4008 65.1411 92.4175 64.892C92.7166 62.2519 92.7343 59.9624 92.7343 59.9624C92.9136 57.0636 92.9728 55.8743 92.9733 55.9015C92.9733 55.9015 99.1419 55.192 100.81 47.2735C101.639 43.3352 101.482 37.9175 101.25 32.5852C100.927 25.2057 95.8086 20.7474 89.8765 20.7545Z" fill="#F9B299"/>
<path d="M87.8124 37.0059C87.8043 37.5474 87.3391 37.9872 86.7733 37.9891C86.2084 37.9915 85.7562 37.555 85.7643 37.0135C85.7724 36.472 86.2375 36.0317 86.8019 36.0293C87.3677 36.0274 87.82 36.4644 87.8124 37.0059Z" fill="#2C343A"/>
<path d="M98.2235 37.2867C98.2159 37.8286 97.7502 38.268 97.1849 38.2704C96.62 38.2723 96.1678 37.8358 96.1754 37.2943C96.1835 36.7528 96.6491 36.3125 97.213 36.3106C97.7793 36.3082 98.2316 36.7452 98.2235 37.2867Z" fill="#2C343A"/>
<path d="M100.196 34.6937C100.063 34.8206 99.3157 34.2081 98.2141 34.1556C97.1145 34.0874 96.2772 34.6141 96.1651 34.4728C96.1093 34.4103 96.251 34.1756 96.615 33.9371C96.9742 33.6995 97.5782 33.481 98.2638 33.5177C98.9503 33.5559 99.5147 33.8379 99.8333 34.1127C100.159 34.3898 100.262 34.637 100.196 34.6937Z" fill="#2C343A"/>
<path d="M89.0173 34.8086C88.8708 34.9212 88.19 34.2351 87.1004 34.07C86.0136 33.8892 85.1267 34.3267 85.0289 34.175C84.9802 34.1068 85.1434 33.8878 85.5322 33.6884C85.9143 33.4885 86.5369 33.333 87.2153 33.4403C87.8942 33.5491 88.4266 33.8873 88.7157 34.1936C89.0101 34.5023 89.0879 34.7589 89.0173 34.8086Z" fill="#2C343A"/>
<path d="M92.866 42.8268C92.8636 42.7643 93.5539 42.6804 94.6712 42.594C94.9537 42.5788 95.2227 42.5363 95.28 42.3469C95.3563 42.147 95.2542 41.8379 95.134 41.5039C94.9031 40.8097 94.6626 40.0822 94.4093 39.3198C93.4074 36.2126 92.6961 33.6626 92.8221 33.6235C92.9475 33.5844 93.8621 36.0714 94.864 39.1786C95.1044 39.9448 95.3348 40.6752 95.5534 41.3737C95.6435 41.6985 95.8086 42.0702 95.6435 42.4853C95.5576 42.6914 95.343 42.8335 95.1607 42.8731C94.9775 42.9194 94.8191 42.9141 94.6793 42.9156C93.5596 42.9199 92.8669 42.8898 92.866 42.8268Z" fill="#2C343A"/>
<path d="M92.9735 55.9009C92.9735 55.9009 87.5859 55.9777 82.4258 52.5137C82.4258 52.5137 84.8369 58.1737 92.8633 57.8274L92.9735 55.9009Z" fill="#F79570"/>
<path d="M92.2666 45.4585C91.8969 44.9151 91.217 44.5926 90.5238 44.6322C90.0434 44.6598 89.5487 44.8659 89.2391 45.2409C88.929 45.6154 88.8402 46.165 89.0859 46.5496C89.3621 46.9823 89.9785 47.1101 90.5114 46.987C91.0453 46.864 91.5147 46.5405 91.9618 46.2175C92.0853 46.1278 92.2122 46.0343 92.2928 45.9074C92.3735 45.7805 92.3978 45.6102 92.3119 45.4971" fill="#F79570"/>
<path d="M89.5854 43.4271C89.7648 43.4256 89.7071 44.6217 90.6884 45.5214C91.6669 46.4241 92.9488 46.3539 92.9498 46.5214C92.9627 46.5973 92.6545 46.7394 92.1154 46.727C91.5868 46.7189 90.8249 46.5109 90.2247 45.9599C89.626 45.4084 89.3927 44.7004 89.3764 44.2076C89.3559 43.7057 89.5038 43.4161 89.5854 43.4271Z" fill="#2C343A"/>
<path d="M90.0718 30.5136C89.9192 30.7932 88.8519 30.486 87.5495 30.444C86.2471 30.3763 85.1584 30.5924 85.0296 30.3004C84.9733 30.1616 85.1956 29.9101 85.6569 29.6873C86.1144 29.4641 86.8153 29.2928 87.5967 29.3252C88.3772 29.3586 89.0618 29.5886 89.4984 29.8496C89.9392 30.111 90.1396 30.3801 90.0718 30.5136Z" fill="#2C343A"/>
<path d="M100.038 29.9612C99.8321 30.2017 99.0859 29.904 98.1742 29.8458C97.2644 29.7561 96.4801 29.9297 96.3155 29.6588C96.2439 29.528 96.378 29.2838 96.7277 29.0634C97.0721 28.8444 97.6384 28.6793 98.2644 28.7299C98.8908 28.7809 99.4227 29.0347 99.7271 29.3071C100.037 29.5805 100.13 29.8434 100.038 29.9612Z" fill="#2C343A"/>
<path d="M76.4187 40.6526C76.4187 40.6526 82.0611 42.4088 85.2538 28.4838C86.3453 23.722 90.7597 19.8663 90.7597 19.8663L88.9692 19.3281C88.9692 19.3281 77.8433 22.4621 77.6563 22.6028C77.4692 22.7431 74.8491 28.3569 74.8491 28.3569L76.4187 40.6526Z" fill="#2C343A"/>
<path d="M77.8088 40.134C77.8374 39.5396 77.2205 38.104 76.638 37.9829C75.0828 37.6599 72.2508 37.6441 72.0247 41.6239C71.716 47.0645 77.242 46.2526 77.2606 46.0966C77.2749 45.9754 77.711 42.1869 77.8088 40.134Z" fill="#F9B299"/>
<path d="M75.7157 43.9411C75.6928 43.9224 75.6174 44.0021 75.4528 44.0665C75.2925 44.129 75.021 44.1634 74.7434 44.0408C74.1804 43.7975 73.7487 42.8571 73.7778 41.8753C73.7921 41.3791 73.9223 40.9135 74.1203 40.5328C74.3088 40.1445 74.5817 39.8811 74.8746 39.8463C75.1656 39.7957 75.3607 39.9808 75.4189 40.1373C75.4833 40.2938 75.4423 40.4006 75.4709 40.4111C75.4852 40.4259 75.5926 40.3272 75.5616 40.1001C75.5454 39.9908 75.4891 39.8587 75.3669 39.7466C75.2424 39.633 75.0535 39.5681 74.8502 39.5782C74.429 39.5839 74.0297 39.9484 73.8126 40.3658C73.5726 40.7842 73.4142 41.3066 73.398 41.8638C73.3708 42.9621 73.8737 44.0198 74.6475 44.2917C75.0244 44.4134 75.3502 44.316 75.5225 44.1968C75.6985 44.0723 75.7338 43.952 75.7157 43.9411Z" fill="#F79570"/>
<path d="M80.2451 37.9893C80.2432 37.9712 80.5452 37.9702 81.0605 37.8252C81.5724 37.6816 82.2923 37.3471 82.9979 36.7007C83.349 36.3777 83.6944 35.9813 84.0083 35.5171C84.317 35.049 84.5937 34.5128 84.8308 33.927C85.3122 32.7548 85.6209 31.3884 86.0025 29.97C86.3847 28.5512 86.7992 27.2106 87.2539 26.0194C87.7028 24.8257 88.2004 23.7871 88.6718 22.9455C89.1446 22.1044 89.5902 21.4613 89.9179 21.0339C90.0787 20.8178 90.2185 20.6613 90.3077 20.5511C90.3993 20.4428 90.4489 20.3874 90.4527 20.3908C90.4565 20.3941 90.4146 20.4557 90.3306 20.5697C90.249 20.6851 90.1164 20.8469 89.9632 21.0673C89.6503 21.5038 89.2204 22.1521 88.761 22.9951C88.304 23.8381 87.8188 24.8758 87.3784 26.0666C86.9328 27.255 86.5235 28.5918 86.1423 30.0077C85.7616 31.4218 85.4482 32.7944 84.9539 33.9775C84.7106 34.5691 84.4267 35.1101 84.108 35.5838C83.7841 36.0538 83.4277 36.4531 83.0666 36.7765C82.3395 37.4244 81.5991 37.7507 81.0752 37.8791C80.5481 38.0098 80.2451 37.9893 80.2451 37.9893Z" fill="#2C343A"/>
<path d="M72.8098 61.2038C72.8036 61.2047 72.784 61.1155 72.7506 60.9414C72.7167 60.7496 72.6714 60.4934 72.6137 60.168C72.4978 59.4691 72.3332 58.4754 72.1242 57.214L72.2554 57.1949C72.2831 57.3924 72.3131 57.6114 72.3446 57.8375L72.3389 57.8175C72.3732 57.8909 72.4128 57.9754 72.4529 58.0617L72.3165 58.1118C71.6719 55.8858 70.9654 52.8926 70.5718 49.3536C70.3685 47.586 70.2536 45.6834 70.2393 43.6878C70.2583 41.6993 70.244 39.5868 70.7769 37.4772C70.9964 36.6051 71.3308 35.7688 71.7664 35.0073C72.202 34.2454 72.721 33.5518 73.2711 32.9125C74.3779 31.6339 75.5697 30.5347 76.6579 29.4436C78.8534 27.2829 80.8319 25.3365 82.4988 23.6967C84.1581 22.0771 85.5048 20.7622 86.4523 19.8376C86.9122 19.3959 87.2748 19.0481 87.5358 18.7976C87.6531 18.6884 87.7471 18.6011 87.822 18.5314C87.8874 18.4722 87.9227 18.4436 87.9256 18.4465C87.9284 18.4498 87.8993 18.4842 87.8397 18.5495C87.7695 18.6235 87.6808 18.717 87.5711 18.8329C87.3177 19.0915 86.9661 19.4507 86.5201 19.9063C85.5864 20.8443 84.2582 22.1787 82.6228 23.8213C80.9664 25.472 79.0003 27.4313 76.8187 29.6058C75.7347 30.7022 74.5449 31.8071 73.4562 33.0704C72.367 34.3285 71.4296 35.8174 71.0179 37.5387C70.495 39.6026 70.5036 41.7065 70.4807 43.6869C70.4897 45.6734 70.5971 47.5679 70.7908 49.3293C71.1648 52.8558 71.8442 55.8438 72.4567 58.0718L72.3203 58.1223C72.2816 58.036 72.243 57.9506 72.2096 57.8766L72.2048 57.8661L72.2039 57.8561C72.1757 57.6295 72.1485 57.4101 72.1237 57.2125L72.2554 57.1935C72.4381 58.4591 72.5817 59.4562 72.6829 60.1571C72.7267 60.4848 72.7606 60.7429 72.7864 60.9357C72.8079 61.1122 72.816 61.2028 72.8098 61.2038Z" fill="#335863"/>
<path d="M68.526 36.0512C68.5183 36.0469 68.5517 35.9678 68.6219 35.8208C68.7068 35.6491 68.8117 35.4387 68.9391 35.182C69.2144 34.6276 69.65 33.8433 70.2206 32.8939C70.7873 31.9417 71.5154 30.8401 72.3727 29.6517C73.241 28.4709 74.2447 27.2086 75.3721 25.9467C76.507 24.6915 77.6563 23.5589 78.7379 22.5699C79.8289 21.591 80.847 20.7499 81.7334 20.0848C82.617 19.4169 83.3503 18.9007 83.8727 18.5677C84.1136 18.4141 84.3125 18.2872 84.4738 18.1846C84.6126 18.0992 84.6875 18.0577 84.6928 18.0653C84.6971 18.072 84.6312 18.1274 84.5015 18.2261C84.3474 18.3392 84.158 18.4785 83.9275 18.6474C83.4233 19.0042 82.7076 19.5405 81.8413 20.2237C80.9715 20.904 79.9697 21.7551 78.8924 22.7388C77.8243 23.7321 76.6859 24.8637 75.5567 26.1127C74.4356 27.3679 73.4313 28.6198 72.5573 29.7872C71.6938 30.9627 70.9538 32.0495 70.3699 32.986C69.7826 33.9201 69.3251 34.6892 69.0236 35.2283C68.8804 35.4754 68.7621 35.6786 68.6658 35.8442C68.5818 35.9835 68.5336 36.0551 68.526 36.0512Z" fill="#335863"/>
<path d="M74.7588 59.144C74.9496 58.8692 76.2172 56.4199 76.2172 56.4199L83.4111 62.6205C83.4111 62.6205 90.4619 68.5258 90.4619 68.1442L91.5873 62.4631L92.9732 57.2944L95.5599 61.2031C95.5599 61.2031 103.688 77.139 103.688 77.3303C103.688 77.5212 108.719 94.0143 108.719 94.0143L107.636 100.701L107.508 124.389L92.3535 123.753L89.3603 118.977L84.2021 88.6018L74.7588 59.144Z" fill="#F1F1F1"/>
<path d="M91.7393 119.29H108.462L113.392 144.695H79.8862L91.7393 119.29Z" fill="#2C343A"/>
<path d="M72.0154 63.0984L62.2524 66.7629L71.2707 106.918C71.2707 106.918 70.7392 117.766 68.8247 123.296C66.9102 128.827 62.4003 144.695 62.4003 144.695H92.39C92.39 144.695 93.6653 122.904 93.1567 115.123C92.6486 107.343 92.8614 92.6659 89.8835 85.0078C86.9055 77.3507 74.9499 58.5361 74.9499 58.5361L72.0154 63.0984Z" fill="#3AC7A5"/>
<path d="M93.415 57.7432L97.8395 61.3966L109.984 63.2048C109.984 63.2048 115.734 84.0288 114.67 92.2184C113.607 100.408 115.09 114.575 115.09 114.575L120.415 144.695H108.719C108.719 144.695 105.384 109.47 105.185 109.895C104.985 110.321 104.347 92.6659 103.072 86.9223C101.795 81.1792 95.3692 63.2019 95.3692 63.2019L93.415 57.7432Z" fill="#3AC7A5"/>
<path d="M125.3 109.577C125.3 109.577 130.192 107.344 130.192 102.983C130.192 98.6222 127.214 92.4535 126.576 90.1139C125.938 87.7734 111.474 62.886 109.985 63.2052L108.496 63.5244L116.153 97.1327L105.73 99.6856L110.176 112.481L125.3 109.577Z" fill="#3AC7A5"/>
<path d="M110.375 98.7157L112.524 91.7694L112.892 87.0358L117.945 83.6748C117.945 83.6748 119.299 83.8322 118.879 84.8828C118.459 85.9328 116.411 87.8244 116.411 87.8244L115.202 91.195L117.167 87.771L120.035 86.3531L122.872 86.563C122.872 86.563 123.396 87.8245 122.083 87.8765H120.665L118.512 89.6097L117.167 92.8662L119.194 89.7151L122.188 88.6512L124.08 89.1374C124.08 89.1374 124.604 89.977 123.659 90.0825C122.713 90.1874 122.083 90.1874 122.083 90.1874L120.35 91.195L118.827 94.3895L121.505 92.1835L124.972 91.7694C124.972 91.7694 125.55 92.6034 124.657 92.9187C123.764 93.2341 121.978 94.1796 121.978 94.1796L120.035 96.5431L110.375 98.7157Z" fill="#F9B299"/>
<path d="M93.2764 119.291C93.2721 119.292 93.2554 119.238 93.2267 119.134C93.1953 119.016 93.1547 118.862 93.1041 118.667C92.9973 118.241 92.8465 117.638 92.6542 116.869C92.2645 115.291 91.7072 113.034 91.0207 110.251C90.329 107.458 89.5012 104.132 88.5523 100.448C88.0752 98.6067 87.5714 96.6746 87.0209 94.6799C86.7485 93.6818 86.4579 92.67 86.1521 91.6471C85.9995 91.1357 85.8268 90.628 85.6636 90.1128C85.4751 89.6109 85.2905 89.1066 85.0372 88.6186C83.2515 85.0271 81.4228 81.6442 79.7707 78.5226C78.1043 75.4102 76.5824 72.5692 75.2685 70.116L75.2337 70.0502L75.2881 70.002C75.622 69.7043 75.9498 69.4204 76.279 69.1533C76.4459 69.0206 76.6048 68.8904 76.7909 68.7769L76.8677 68.7358L76.9144 68.7172L76.903 68.7249L76.902 68.7268C76.9011 68.7263 76.8982 68.7258 76.8763 68.7606L76.8973 68.8513L76.9225 68.8665L76.923 68.8675C76.8996 68.8642 76.8352 68.8608 76.7909 68.8589L76.4932 68.8537C75.7022 68.8489 74.9589 68.8608 74.27 68.8704L74.2185 68.8713L74.2003 68.8246C73.5047 67.0264 72.9542 65.6009 72.5706 64.6096C72.3898 64.1311 72.2491 63.757 72.1479 63.4889C72.1055 63.3706 72.0716 63.2752 72.0439 63.1993C72.0215 63.134 72.012 63.1001 72.0153 63.0987C72.0186 63.0977 72.0344 63.1292 72.063 63.1917C72.095 63.2656 72.135 63.3587 72.1851 63.4746C72.2949 63.7394 72.4475 64.1082 72.6431 64.5809C73.0415 65.5666 73.6135 66.9835 74.3363 68.7706L74.2666 68.7249C74.9565 68.7072 75.6988 68.6886 76.4941 68.6862L76.7961 68.6891C76.8519 68.6924 76.8891 68.6891 76.9664 68.702L76.985 68.7072L77.0137 68.7258L77.037 68.8203C77.0089 68.8732 77.0127 68.8522 77.006 68.8618L76.9598 68.8828L76.9354 68.8937L76.8782 68.9252C76.7155 69.0264 76.5528 69.1604 76.3911 69.2911C76.0681 69.5574 75.7422 69.8431 75.4135 70.1403L75.4326 70.0268C76.7584 72.4742 78.2937 75.3081 79.9754 78.4129C81.6375 81.532 83.4695 84.9079 85.2609 88.5098C85.5138 88.9979 85.7065 89.5193 85.8983 90.0322C86.062 90.5503 86.2361 91.0627 86.3888 91.5755C86.6946 92.6017 86.9846 93.6155 87.2551 94.6155C87.8038 96.6135 88.3033 98.5471 88.7742 100.391C89.7111 104.08 90.5212 107.41 91.191 110.21C91.8456 113.001 92.3771 115.264 92.7477 116.847C92.9209 117.621 93.0564 118.227 93.1528 118.656C93.1938 118.853 93.2263 119.009 93.2515 119.128C93.2721 119.235 93.2806 119.29 93.2764 119.291Z" fill="#2C343A"/>
<path d="M108.719 95.6705C108.711 95.6696 108.712 95.5407 108.722 95.296C108.737 95.0279 108.756 94.6725 108.78 94.2278C108.795 93.9936 108.811 93.7364 108.829 93.4569C108.829 93.1735 108.829 92.8667 108.83 92.5385C108.832 91.8796 108.846 91.1297 108.782 90.3015C108.63 86.9939 107.919 82.4244 106.262 77.6364C105.644 75.8359 104.963 74.1203 104.22 72.609L104.217 72.6037L104.215 72.5994C103.488 70.8829 102.63 69.3581 101.857 68.0037C101.079 66.6502 100.36 65.4719 99.7592 64.4967C99.1624 63.5421 98.6825 62.774 98.338 62.2225C98.182 61.9715 98.057 61.7702 97.9597 61.6137C97.8748 61.4749 97.8333 61.4005 97.8395 61.3966C97.8447 61.3928 97.8982 61.4596 97.9936 61.5913C98.0995 61.7425 98.2355 61.9367 98.4043 62.1786C98.7583 62.6943 99.265 63.4529 99.8847 64.4175C100.504 65.3826 101.239 66.5529 102.032 67.9021C102.82 69.2532 103.69 70.7732 104.435 72.5093L104.43 72.5002C105.191 74.0292 105.874 75.7448 106.498 77.5563C108.162 82.3671 108.85 86.9691 108.957 90.2938C109.011 91.1259 108.984 91.8796 108.969 92.5409C108.961 92.8701 108.954 93.1773 108.947 93.4621C108.921 93.7422 108.898 93.9998 108.877 94.234C108.833 94.6787 108.798 95.0336 108.772 95.3008C108.746 95.5441 108.727 95.6715 108.719 95.6705Z" fill="#2C343A"/>
<path d="M125.66 109.392C125.662 109.398 125.559 109.426 125.361 109.474C125.146 109.523 124.856 109.59 124.487 109.675C123.702 109.846 122.588 110.089 121.19 110.395C118.345 110.999 114.35 111.847 109.667 112.841L109.567 112.862L109.534 112.765C108.565 109.908 107.5 106.771 106.386 103.483C105.99 102.312 105.601 101.159 105.231 100.063L105.187 99.9338L105.319 99.9033C108.423 99.1738 111.347 98.4859 113.989 97.8652C115.309 97.557 116.559 97.2655 117.725 96.9931C118.308 96.8576 118.87 96.7273 119.409 96.6019C119.944 96.4764 120.475 96.3423 120.989 96.3309C122.018 96.2875 122.932 96.5489 123.663 96.8743C124.398 97.2097 124.962 97.6209 125.379 97.9969C125.801 98.3699 126.068 98.7177 126.243 98.9524C126.318 99.0655 126.378 99.1576 126.427 99.2311C126.467 99.2945 126.486 99.3279 126.482 99.3303C126.452 99.3556 126.166 98.7903 125.32 98.0637C124.9 97.703 124.337 97.3094 123.611 96.9926C122.889 96.6839 121.993 96.4411 120.996 96.4945C120.497 96.5117 119.994 96.6439 119.453 96.7755C118.914 96.9058 118.354 97.0408 117.772 97.1811C116.607 97.4611 115.359 97.7607 114.042 98.077C111.4 98.7063 108.478 99.4028 105.376 100.143L105.464 99.9834C105.834 101.08 106.225 102.232 106.622 103.404C107.73 106.693 108.788 109.832 109.752 112.692L109.62 112.616C114.31 111.657 118.312 110.839 121.162 110.257C122.565 109.979 123.684 109.757 124.472 109.601C124.843 109.532 125.137 109.477 125.354 109.436C125.554 109.4 125.659 109.385 125.66 109.392Z" fill="#2C343A"/>
<path d="M71.0993 109.475C71.0917 109.459 71.0879 109.451 71.0879 109.451L71.1003 109.459C71.0998 109.464 71.0993 109.469 71.0993 109.475Z" fill="#929596"/>
<path d="M93.2466 117.262C93.228 116.514 93.2008 115.83 93.1631 115.227C93.197 115.222 93.2313 115.216 93.2652 115.211L93.2466 117.262Z" fill="#A8ABAB"/>
<path d="M85.4835 117.719C82.3806 117.719 79.0745 117.452 77.0741 116.507C73.8213 114.97 71.289 109.866 71.0991 109.475C71.0991 109.469 71.0996 109.464 71.1001 109.459L71.3806 109.626C72.9492 111.831 74.2001 113.352 74.7803 113.831C76.628 115.358 78.6756 116.507 82.7437 116.507C84.0614 116.507 85.5899 116.387 87.3933 116.119C89.1308 115.861 90.7686 115.609 92.2834 115.368C92.4198 115.921 92.5434 116.422 92.6541 116.869C92.6927 117.025 92.7304 117.174 92.7657 117.317C91.636 117.438 88.6666 117.719 85.4835 117.719ZM92.8506 117.307C92.8177 117.161 92.7833 117.008 92.7476 116.847C92.6431 116.401 92.5257 115.901 92.3964 115.35C92.656 115.309 92.9117 115.268 93.1631 115.227C93.2008 115.83 93.228 116.514 93.2466 117.263C93.2423 117.263 93.1025 117.28 92.8506 117.307Z" fill="#20A789"/>
<path d="M92.766 117.317C92.7307 117.174 92.693 117.025 92.6544 116.869C92.5437 116.422 92.4201 115.92 92.2837 115.368C92.3214 115.362 92.3591 115.356 92.3968 115.35C92.526 115.9 92.6434 116.401 92.7479 116.847C92.7837 117.007 92.818 117.161 92.8509 117.307C92.8237 117.31 92.7956 117.313 92.766 117.317Z" fill="#011721"/>
<path d="M62.8687 66.5017C62.8687 66.5017 58.1885 66.8208 58.0826 79.0517C57.9762 91.2831 72.3344 111.81 74.7804 113.83C77.2269 115.851 80.0221 117.211 87.3934 116.118C96.6392 114.748 103.072 113.512 103.072 113.512L101.796 102.344L85.31 101.599L71.9089 74.0534C71.9089 74.0534 67.442 65.9702 62.8687 66.5017Z" fill="#3AC7A5"/>
<path d="M105.403 111.348C104.869 111.257 104.334 111.148 103.799 111.039C103.454 110.969 103.11 110.899 102.765 110.833L102.248 106.31C103.154 106.363 104.052 106.478 104.914 106.724C105.035 108.657 105.122 109.903 105.177 109.903C105.18 109.903 105.182 109.901 105.184 109.896C105.186 109.893 105.187 109.892 105.188 109.892C105.217 109.892 105.293 110.421 105.403 111.348Z" fill="#A8ABAB"/>
<path d="M107.714 111.572C106.946 111.572 106.175 111.479 105.403 111.347C105.293 110.421 105.217 109.892 105.188 109.892C105.187 109.892 105.186 109.893 105.185 109.896C105.182 109.901 105.18 109.903 105.177 109.903C105.122 109.903 105.035 108.657 104.914 106.724C105.218 106.81 105.519 106.914 105.814 107.037C106.72 107.414 107.566 108.026 108.185 108.788C108.494 109.699 108.796 110.591 109.091 111.46C108.633 111.538 108.174 111.572 107.714 111.572ZM109.158 110.93C109.003 110.47 108.846 110.004 108.687 109.533C108.925 109.969 109.09 110.439 109.158 110.93Z" fill="#20A789"/>
<path d="M109.091 111.459C108.796 110.59 108.494 109.698 108.185 108.787C108.375 109.022 108.545 109.271 108.687 109.532C108.846 110.004 109.003 110.469 109.158 110.929C109.182 111.098 109.194 111.268 109.194 111.441C109.159 111.447 109.125 111.453 109.091 111.459Z" fill="#011721"/>
<path d="M85.3696 113.531C83.2352 113.531 81.1007 113.279 79.0269 112.773L83.1049 109.402C83.9899 107.97 85.5633 107.073 87.1935 106.653C88.6624 106.274 90.192 106.238 91.7119 106.238C91.8789 106.238 92.0459 106.238 92.2124 106.239C94.8139 106.246 97.4159 106.253 100.017 106.259C100.758 106.262 101.506 106.265 102.248 106.309L102.765 110.833C101.802 110.65 100.838 110.506 99.8776 110.506C99.4487 110.506 99.0198 110.534 98.5919 110.602C97.2613 110.81 96.0195 111.381 94.7571 111.851C91.762 112.967 88.5656 113.531 85.3696 113.531Z" fill="#20A789"/>
<path d="M79.3774 95.6709C79.3774 95.6709 82.5414 96.9232 84.058 97.1871C85.5742 97.4509 87.4195 98.0439 89.8589 99.0329C92.2982 100.021 93.7261 100.812 93.7261 100.812L96.1873 109.382C96.1873 109.382 92.1002 111.953 87.4859 111.821C82.8711 111.689 78.7839 113.18 78.1909 112.765C77.5974 112.349 77.5316 111.624 78.1909 111.294C78.8502 110.965 81.6445 110.569 81.6445 110.569L84.058 109.58C84.058 109.58 75.8179 110.305 75.1586 109.975C74.4993 109.646 73.84 109.184 74.1038 108.459C74.3676 107.734 75.0265 107.734 75.0265 107.734C75.0265 107.734 73.2469 107.8 73.3128 107.075C73.3786 106.35 74.0379 105.691 74.3013 105.559C74.5651 105.427 78.0225 104.022 78.0225 104.022L82.467 103.138L78.1971 102.967L74.4678 104.006C74.4678 104.006 72.9793 104.174 73.3109 102.922C73.6424 101.669 78.1909 100.285 78.1909 100.285L83.9917 99.8859C83.9917 99.8859 79.5091 99.2304 79.0478 97.8464C78.5864 96.4619 79.3774 95.6709 79.3774 95.6709Z" fill="#F9B299"/>
<path d="M93.7261 100.812H94.0118L105.334 100.312L108.719 110.197L96.1873 109.382L93.7261 100.812Z" fill="#F9B299"/>
<path d="M83.8461 106.435C83.8456 106.472 83.3156 106.489 82.4621 106.541C81.6086 106.592 80.4321 106.692 79.1445 106.886C77.8559 107.083 76.7028 107.336 75.8727 107.54C75.0421 107.743 74.5306 107.884 74.5192 107.848C74.5092 107.819 75.003 107.618 75.8264 107.37C76.6498 107.122 77.8077 106.838 79.1073 106.641C80.4064 106.445 81.5957 106.372 82.4559 106.365C83.3161 106.358 83.8471 106.403 83.8461 106.435Z" fill="#F79570"/>
<path d="M75.3712 80.289C75.3559 80.2971 75.2233 80.1034 74.9972 79.746C74.7686 79.3901 74.4428 78.872 74.022 78.2447C73.1886 76.9847 71.9863 75.2753 70.515 73.5035C69.037 71.7378 67.5485 70.2665 66.3406 69.3667C65.1445 68.4483 64.2715 68.09 64.2939 68.0428C64.3006 68.0271 64.5172 68.1158 64.9055 68.2914C65.1049 68.3706 65.3239 68.5108 65.5863 68.6621C65.853 68.8066 66.1349 69.0046 66.445 69.2255C67.6945 70.0995 69.2183 71.5679 70.7058 73.3441C72.1862 75.127 73.3713 76.8607 74.1699 78.1493C74.573 78.7914 74.8769 79.3248 75.0806 79.6969C75.282 80.07 75.386 80.2799 75.3712 80.289Z" fill="#2C343A"/>
<path d="M82.7018 96.5825C82.6855 96.5887 82.5959 96.3927 82.4475 96.0339C82.2824 95.6265 82.0758 95.1165 81.8297 94.5091C81.3106 93.2215 80.584 91.4472 79.7396 89.5051C78.8932 87.5638 78.0898 85.822 77.5011 84.5649C77.2244 83.9714 76.9921 83.4719 76.8065 83.074C76.6448 82.721 76.5627 82.5216 76.578 82.5139C76.5932 82.5058 76.7044 82.6904 76.8929 83.0306C77.0818 83.3703 77.3442 83.8684 77.659 84.4881C78.2893 85.7271 79.1194 87.4608 79.9672 89.4063C80.8135 91.3518 81.5157 93.1404 81.9933 94.4462C82.2323 95.0988 82.4184 95.6298 82.5381 95.9995C82.6588 96.3697 82.718 96.5768 82.7018 96.5825Z" fill="#2C343A"/>
<path d="M90.3302 68.2302C90.324 68.2402 90.2247 68.1963 90.0434 68.1052C89.8302 67.9921 89.5735 67.8566 89.2672 67.6949C88.5611 67.3047 87.6289 66.7885 86.5288 66.1797L86.6896 66.0986C86.5555 67.3295 86.3294 68.7674 86.1032 70.2998C86.0116 70.9233 85.9258 71.5316 85.8552 72.1136L85.828 72.3379L85.6562 72.1923C84.1911 70.9457 82.9178 69.8489 82.0151 69.0579C81.5939 68.6825 81.2423 68.37 80.9622 68.1209C80.7194 67.8977 80.5911 67.7712 80.6006 67.7598C80.6101 67.7483 80.7566 67.8533 81.0171 68.0561C81.3091 68.2903 81.6759 68.5851 82.1168 68.9382C83.0466 69.6967 84.3399 70.7697 85.8127 72.0068L85.6142 72.0855C85.6815 71.4991 85.7655 70.8885 85.8575 70.2635C86.0841 68.7283 86.3217 67.2946 86.4749 66.0738L86.4959 65.9102L86.6357 65.9927C87.7181 66.6329 88.6351 67.1749 89.3297 67.5857C89.6246 67.7679 89.8717 67.9206 90.0768 68.0475C90.2471 68.1572 90.3354 68.2202 90.3302 68.2302Z" fill="#2C343A"/>
<path d="M94.514 61.2031C94.5311 61.2041 94.5383 61.435 94.5364 61.852C94.5278 62.3171 94.5173 62.9092 94.5049 63.6167C94.4667 65.1061 94.398 67.1628 94.3064 69.4342C94.304 69.49 94.3017 69.5458 94.2997 69.5997L94.2835 69.9971L94.0707 69.6617C93.0393 68.0359 92.0966 66.5498 91.3485 65.3709L91.5188 65.3499C91.2183 66.1762 90.9673 66.8665 90.7732 67.3999C90.5904 67.8837 90.4802 68.1499 90.4621 68.1442C90.444 68.138 90.5198 67.8598 90.672 67.3651C90.8457 66.8246 91.0699 66.1252 91.338 65.2884L91.3991 65.0985L91.5088 65.2674C92.2702 66.4381 93.2301 67.9137 94.2797 69.5277L94.0512 69.5897C94.0531 69.5358 94.0555 69.48 94.0579 69.4242C94.1495 67.1528 94.2468 65.097 94.3288 63.609C94.3732 62.903 94.4104 62.3123 94.4395 61.8481C94.471 61.4321 94.4968 61.2026 94.514 61.2031Z" fill="#2C343A"/>
<path d="M109.483 67.8077C109.476 67.8177 109.356 67.7547 109.104 67.6063L109.157 67.5687C109.459 68.6373 110.31 72.1267 111.275 76.2677C111.862 78.791 112.381 81.0781 112.744 82.7369C112.913 83.5336 113.054 84.1954 113.162 84.7039C113.255 85.1691 113.299 85.4286 113.282 85.4324C113.265 85.4362 113.19 85.1848 113.068 84.7259C112.94 84.2221 112.773 83.5661 112.574 82.7765C112.166 81.1287 111.62 78.8473 111.033 76.324C110.068 72.1834 109.29 68.6769 109.088 67.5844L109.072 67.498L109.142 67.5467C109.382 67.7142 109.49 67.7972 109.483 67.8077Z" fill="#2C343A"/>
<path d="M94.5136 114.952C94.516 114.96 94.4149 114.993 94.2202 115.048C93.9998 115.108 93.7164 115.184 93.3658 115.279C92.622 115.471 91.5381 115.724 90.1856 115.974C88.8316 116.214 87.2081 116.457 85.3885 116.554C83.5732 116.64 81.5475 116.618 79.4827 116.159C78.4475 115.948 77.468 115.589 76.575 115.143C76.1227 114.928 75.7162 114.65 75.315 114.384C74.93 114.085 74.5889 113.758 74.2773 113.424C73.0369 112.079 72.0918 110.739 71.2899 109.623C70.4984 108.5 69.8896 107.569 69.476 106.921C69.2842 106.613 69.1296 106.364 69.0094 106.17C68.9059 105.996 68.8553 105.902 68.8625 105.898C68.8701 105.893 68.934 105.978 69.0509 106.143C69.1816 106.33 69.3491 106.571 69.5566 106.868C69.9946 107.498 70.6248 108.413 71.433 109.521C72.2497 110.619 73.2111 111.948 74.4434 113.267C74.753 113.593 75.0874 113.91 75.4543 114.192C75.8469 114.449 76.2424 114.718 76.6856 114.926C77.5587 115.358 78.5176 115.709 79.5367 115.917C81.5681 116.369 83.5747 116.398 85.3771 116.325C87.1842 116.241 88.803 116.017 90.1555 115.801C91.5071 115.574 92.5943 115.348 93.3438 115.185C93.6983 115.109 93.985 115.048 94.2078 115C94.4063 114.96 94.5117 114.943 94.5136 114.952Z" fill="#2C343A"/>
<path d="M86.8326 93.9965L74.1647 71.0232L74.7591 69.5953L73.7282 70.236L72.5068 64.4404C72.5278 64.4953 72.5488 64.5516 72.5708 64.6093C72.9543 65.6007 73.5049 67.0262 74.2005 68.8243L74.2186 68.8711L74.2701 68.8701C74.8569 68.862 75.4829 68.8525 76.1446 68.8525C76.2595 68.8525 76.3759 68.8525 76.4933 68.8534L76.6674 68.8563C76.5324 68.9498 76.4079 69.0504 76.2791 69.153C75.9499 69.4202 75.6222 69.704 75.2882 70.0017L75.2338 70.0499L75.2686 70.1158C76.5825 72.5689 78.1044 75.4099 79.7708 78.5224C81.423 81.6439 83.2516 85.0269 85.0373 88.6183C85.2907 89.1064 85.4753 89.6107 85.6637 90.1126C85.8269 90.6278 85.9996 91.1354 86.1523 91.6468C86.3889 92.4374 86.616 93.2207 86.8326 93.9965Z" fill="#20A789"/>
<path d="M87.0901 94.4649L86.8325 93.9969C86.6159 93.2211 86.3888 92.4378 86.1522 91.6473C85.9995 91.1358 85.8268 90.6282 85.6637 90.113C85.4752 89.6111 85.2906 89.1068 85.0373 88.6188C83.2516 85.0273 81.4229 81.6443 79.7708 78.5228C78.1043 75.4103 76.5825 72.5693 75.2686 70.1162L75.2338 70.0503L75.2881 70.0022C75.6221 69.7045 75.9499 69.4206 76.279 69.1534C76.4079 69.0509 76.5324 68.9502 76.6674 68.8567L76.4932 68.8538C76.3759 68.8529 76.2595 68.8529 76.1445 68.8529C75.4828 68.8529 74.8569 68.8624 74.2701 68.8705L74.2185 68.8715L74.2004 68.8247C73.5048 67.0266 72.9543 65.6011 72.5707 64.6097C72.5487 64.552 72.5278 64.4957 72.5068 64.4408L72.4624 64.2295L74.2681 68.7975H76.9427L75.3511 70.0713L85.4122 89.1121L87.0901 94.4649Z" fill="#011721"/>
</g>
<path d="M41.748 10.5011C41.748 10.6436 42.7924 10.759 44.0793 10.759C45.3679 10.759 46.4123 10.6436 46.4123 10.5011C46.4123 10.3586 45.3679 10.2432 44.0793 10.2432C42.7924 10.2432 41.748 10.3586 41.748 10.5011Z" fill="#34C5A5"/>
<path d="M39.2711 4.15625C39.1285 4.15625 39.0132 5.21585 39.0132 6.52315C39.0132 7.82961 39.1285 8.8892 39.2711 8.8892C39.4136 8.8892 39.529 7.82961 39.529 6.52315C39.529 5.21585 39.4136 4.15625 39.2711 4.15625Z" fill="#34C5A5"/>
<path d="M36.6335 10.3497C36.6335 10.2072 35.5883 10.0918 34.3013 10.0918C33.0127 10.0918 31.9692 10.2072 31.9692 10.3497C31.9692 10.4922 33.0127 10.6076 34.3013 10.6076C35.5883 10.6076 36.6335 10.4922 36.6335 10.3497Z" fill="#34C5A5"/>
<path d="M39.1108 16.6937C39.2533 16.6937 39.3678 15.6341 39.3678 14.3268C39.3678 13.0195 39.2533 11.96 39.1108 11.96C38.9683 11.96 38.8521 13.0195 38.8521 14.3268C38.8521 15.6341 38.9683 16.6937 39.1108 16.6937Z" fill="#34C5A5"/>
<path d="M35.3396 13.9725C35.4499 14.0633 35.9097 13.6926 36.367 13.1446C36.8251 12.5965 37.1076 12.0773 36.9982 11.9866C36.8896 11.8949 36.4298 12.2657 35.9716 12.8137C35.5135 13.3626 35.231 13.8809 35.3396 13.9725Z" fill="#34C5A5"/>
<path d="M35.5579 6.77897C35.457 6.87822 35.7615 7.34906 36.2357 7.82837C36.7116 8.30769 37.1782 8.61479 37.2809 8.51554C37.3818 8.41458 37.0781 7.94375 36.6031 7.46613C36.1271 6.98511 35.6597 6.67801 35.5579 6.77897Z" fill="#34C5A5"/>
<path d="M40.9042 8.60979C40.995 8.71922 41.4361 8.50374 41.8891 8.12707C42.3413 7.75041 42.6348 7.35593 42.5441 7.24649C42.4524 7.13621 42.0121 7.35336 41.5583 7.73003C41.1061 8.1067 40.8134 8.50035 40.9042 8.60979Z" fill="#34C5A5"/>
<path d="M41.1144 11.7812C41.0092 11.8771 41.2739 12.3394 41.7048 12.812C42.1366 13.2862 42.5718 13.5925 42.677 13.4966C42.7822 13.4007 42.5175 12.9392 42.0866 12.465C41.6548 11.9916 41.2196 11.6854 41.1144 11.7812Z" fill="#34C5A5"/>
<path d="M165.624 108.329C165.624 108.472 166.668 108.587 167.955 108.587C169.243 108.587 170.288 108.472 170.288 108.329C170.288 108.187 169.243 108.071 167.955 108.071C166.668 108.071 165.624 108.187 165.624 108.329Z" fill="#34C5A5"/>
<path d="M163.147 101.984C163.004 101.984 162.889 103.044 162.889 104.351C162.889 105.658 163.004 106.717 163.147 106.717C163.289 106.717 163.404 105.658 163.404 104.351C163.404 103.044 163.289 101.984 163.147 101.984Z" fill="#34C5A5"/>
<path d="M160.509 108.178C160.509 108.035 159.464 107.92 158.177 107.92C156.888 107.92 155.845 108.035 155.845 108.178C155.845 108.32 156.888 108.436 158.177 108.436C159.464 108.436 160.509 108.32 160.509 108.178Z" fill="#34C5A5"/>
<path d="M162.986 114.522C163.129 114.522 163.243 113.462 163.243 112.155C163.243 110.848 163.129 109.788 162.986 109.788C162.844 109.788 162.728 110.848 162.728 112.155C162.728 113.462 162.844 114.522 162.986 114.522Z" fill="#34C5A5"/>
<path d="M159.215 111.801C159.325 111.891 159.785 111.521 160.242 110.973C160.701 110.425 160.983 109.905 160.874 109.815C160.765 109.723 160.305 110.094 159.847 110.642C159.389 111.191 159.107 111.709 159.215 111.801Z" fill="#34C5A5"/>
<path d="M159.433 104.607C159.332 104.706 159.637 105.177 160.111 105.656C160.587 106.136 161.054 106.443 161.156 106.344C161.257 106.243 160.954 105.772 160.479 105.294C160.003 104.813 159.535 104.506 159.433 104.607Z" fill="#34C5A5"/>
<path d="M164.78 106.438C164.87 106.547 165.312 106.332 165.765 105.955C166.217 105.579 166.51 105.184 166.42 105.075C166.328 104.964 165.888 105.181 165.434 105.558C164.982 105.935 164.689 106.328 164.78 106.438Z" fill="#34C5A5"/>
<path d="M164.99 109.609C164.885 109.705 165.149 110.168 165.58 110.64C166.012 111.114 166.447 111.421 166.553 111.325C166.658 111.229 166.393 110.767 165.962 110.293C165.53 109.82 165.095 109.513 164.99 109.609Z" fill="#34C5A5"/>
<path d="M23.0538 101.797L22.7937 102.419C22.3409 103.511 21.4698 104.374 20.3766 104.817L19.6982 105.092L20.3502 105.357C21.46 105.806 22.3392 106.687 22.7854 107.798L22.9698 108.253L23.2448 107.681C23.742 106.643 24.6278 105.839 25.7128 105.444L26.3039 105.228L25.5301 104.854C24.5587 104.384 23.7947 103.573 23.3781 102.576L23.0538 101.797Z" fill="#34C5A5"/>
<path d="M155.912 16.6943L155.591 17.4681C155.029 18.8185 153.949 19.8882 152.592 20.4384L151.752 20.7803L152.559 21.107C153.935 21.6653 155.025 22.7585 155.581 24.1355L155.808 24.7L156.148 23.9906C156.767 22.7024 157.865 21.7062 159.208 21.2152L159.941 20.9488L158.984 20.4854C157.778 19.9005 156.83 18.8961 156.315 17.6599L155.912 16.6943Z" fill="#34C5A5"/>
<path d="M23.9363 39.7024L25.1109 40.1442L24.091 40.4331C23.7508 40.5295 23.4808 40.7892 23.371 41.1254L23.0018 42.253L22.5482 41.122C22.4356 40.8413 22.2089 40.6217 21.9246 40.5185L20.8931 40.1442L22.0103 39.6851C22.2806 39.574 22.4932 39.3565 22.5982 39.0837L23.0018 38.0352L23.2913 39.0102C23.3862 39.329 23.6248 39.5856 23.9363 39.7024Z" fill="#E4E7EC"/>
<path d="M166.076 52.2396L167.251 52.681L166.231 52.9702C165.891 53.0666 165.621 53.3263 165.511 53.6625L165.142 54.7901L164.688 53.6591C164.576 53.3784 164.349 53.1588 164.065 53.0557L163.033 52.681L164.15 52.2222C164.421 52.1111 164.633 51.8936 164.738 51.6208L165.142 50.5723L165.431 51.5473C165.526 51.8661 165.765 52.1224 166.076 52.2396Z" fill="#E4E7EC"/>
</svg>
