<svg width="180" height="120" viewBox="0 0 180 120" fill="none" xmlns="http://www.w3.org/2000/svg">
<g clip-path="url(#clip0_559_7783)">
<path d="M65.1406 49.2034L65.6722 50.2809C65.7003 50.3379 65.7548 50.3775 65.8176 50.3866L67.0066 50.5594C67.165 50.5823 67.2283 50.777 67.1137 50.8888L66.2535 51.7276C66.2079 51.7718 66.1871 51.8359 66.1978 51.8985L66.401 53.0828C66.4281 53.2404 66.2624 53.3608 66.1206 53.2863L65.0572 52.7271C65.001 52.6977 64.9337 52.6977 64.8774 52.7271L63.814 53.2863C63.6723 53.3608 63.5066 53.2404 63.5337 53.0828L63.7367 51.8985C63.7476 51.8359 63.7268 51.7718 63.6812 51.7276L62.8207 50.8888C62.7061 50.777 62.7694 50.5823 62.9278 50.5594L64.1168 50.3866C64.1799 50.3775 64.2341 50.3379 64.2622 50.2809L64.7941 49.2034C64.8649 49.0598 65.0697 49.0598 65.1406 49.2034Z" fill="#495560"/>
<path d="M172.554 18.7298L173.086 19.8072C173.114 19.8643 173.168 19.9036 173.231 19.913L174.42 20.0858C174.579 20.1087 174.642 20.3034 174.527 20.4151L173.667 21.2539C173.621 21.2982 173.601 21.3621 173.611 21.4249L173.815 22.6089C173.842 22.7668 173.676 22.8872 173.534 22.8127L172.471 22.2535C172.415 22.224 172.347 22.224 172.291 22.2535L171.227 22.8127C171.086 22.8872 170.92 22.7668 170.947 22.6089L171.15 21.4249C171.161 21.3621 171.14 21.2982 171.095 21.2539L170.234 20.4151C170.12 20.3034 170.183 20.1087 170.341 20.0858L171.53 19.913C171.593 19.9036 171.648 19.8643 171.676 19.8072L172.208 18.7298C172.279 18.5862 172.483 18.5862 172.554 18.7298Z" fill="#B9C6D1"/>
<path d="M66.4066 7.95321L66.2727 8.62288C66.2656 8.65832 66.2766 8.69506 66.3016 8.72085L66.7777 9.21073C66.841 9.27613 66.8022 9.38583 66.7117 9.39652L66.0335 9.47625C65.9975 9.48042 65.966 9.50205 65.9491 9.5341L65.6304 10.1381C65.5879 10.2186 65.4714 10.2155 65.4334 10.1326L65.148 9.51221C65.1329 9.47938 65.1024 9.45619 65.067 9.44993L64.394 9.33346C64.3043 9.31782 64.2712 9.2063 64.3382 9.14454L64.8401 8.68125C64.8666 8.65675 64.8794 8.62079 64.8742 8.58483L64.7773 7.90891C64.7642 7.81875 64.8601 7.75309 64.9396 7.79738L65.5353 8.1317C65.5668 8.14942 65.6051 8.15046 65.6374 8.1343L66.2503 7.83308C66.3321 7.79295 66.4243 7.86383 66.4066 7.95321Z" fill="#495560"/>
<path d="M12.7302 45.4608L12.5306 46.4606C12.5199 46.5137 12.536 46.5685 12.5736 46.607L13.2842 47.3385C13.379 47.4359 13.3206 47.5996 13.1859 47.6154L12.1731 47.7345C12.1194 47.7408 12.0725 47.7731 12.0472 47.8208L11.5714 48.7226C11.5078 48.8427 11.3343 48.8381 11.2775 48.7145L10.8512 47.7882C10.8285 47.7392 10.7834 47.7046 10.7303 47.6954L9.72551 47.5214C9.59158 47.4982 9.54233 47.3314 9.64239 47.2394L10.3915 46.5476C10.4311 46.5111 10.4502 46.4575 10.4426 46.404L10.2977 45.3946C10.2782 45.2601 10.4215 45.1619 10.5401 45.2283L11.4294 45.7271C11.4766 45.7537 11.5334 45.7552 11.5818 45.7312L12.497 45.2815C12.6189 45.2216 12.7568 45.3276 12.7302 45.4608Z" fill="#495560"/>
<path d="M113.771 89.1924L102.376 120L113.103 119.828L123.829 91.5081L113.771 89.1924Z" fill="#C4C4C4"/>
<path d="M179.388 75.4355L173.719 75.693L172.083 90.4492L165.381 76.587L155.356 81.7604C155.356 81.7604 161.614 96.765 164.915 101.523C164.915 101.523 169.777 108.51 176.32 105.793C182.034 103.419 179.388 75.4355 179.388 75.4355Z" fill="#C4C4C4"/>
<path d="M134.059 47.2451L135.328 68.5545C135.544 72.1783 136.602 77.4575 142.316 76.855C147.234 75.9584 148.211 71.1712 148.006 67.7897C147.909 66.1856 147.831 64.8478 147.832 64.6824C147.832 64.6824 153.226 63.8491 153.298 58.4565C153.333 55.8505 152.967 50.4773 152.58 45.6202C152.165 40.4035 147.807 36.3837 142.574 36.3785L142.054 36.3779C136.443 36.7 133.582 41.6451 134.059 47.2451Z" fill="#C4C4C4"/>
<path d="M147.832 64.6824C147.832 64.6824 144.432 64.8783 140.812 62.5996C140.812 62.5996 142.521 66.5402 147.903 66.0598L147.832 64.6824Z" fill="#495560"/>
<path d="M143.576 48.4761C143.477 48.5923 142.822 48.1386 141.922 48.1793C141.023 48.2064 140.384 48.7085 140.281 48.5998C140.231 48.5519 140.328 48.3458 140.606 48.1191C140.879 47.8934 141.353 47.6654 141.913 47.6441C142.474 47.6237 142.955 47.815 143.235 48.0201C143.522 48.2259 143.624 48.424 143.576 48.4761Z" fill="#495560"/>
<path d="M142.902 51.0868C142.915 51.4714 142.6 51.7997 142.199 51.8208C141.798 51.8419 141.462 51.548 141.449 51.1634C141.435 50.7788 141.75 50.4499 142.151 50.4288C142.552 50.4075 142.889 50.7019 142.902 51.0868Z" fill="#495560"/>
<path d="M146.275 54.5607C146.271 54.5135 146.786 54.4249 147.621 54.3191C147.833 54.2975 148.033 54.2555 148.069 54.1114C148.119 53.9585 148.03 53.7302 147.928 53.484C147.729 52.9717 147.522 52.4346 147.304 51.8718C146.437 49.5769 145.81 47.6899 145.903 47.6557C145.995 47.6216 146.773 49.4542 147.64 51.7493C147.849 52.3153 148.048 52.8547 148.238 53.3709C148.318 53.6114 148.455 53.8845 148.347 54.2016C148.29 54.3595 148.134 54.4741 147.999 54.5104C147.863 54.5518 147.744 54.5539 147.639 54.5601C146.799 54.6044 146.278 54.6078 146.275 54.5607Z" fill="#495560"/>
<path d="M143.588 45.6318C143.496 45.8293 142.779 45.6589 141.916 45.6794C141.051 45.6818 140.337 45.8707 140.243 45.6761C140.201 45.583 140.34 45.4027 140.638 45.2328C140.934 45.0632 141.393 44.9196 141.911 44.9123C142.429 44.9061 142.89 45.0374 143.187 45.1995C143.487 45.3615 143.629 45.538 143.588 45.6318Z" fill="#495560"/>
<path d="M151.818 46.9296C151.735 47.099 151.021 46.9689 150.17 47.0041C149.318 47.0236 148.622 47.1985 148.52 47.0351C148.475 46.9572 148.605 46.8014 148.892 46.6513C149.176 46.5012 149.622 46.3701 150.133 46.3532C150.643 46.3373 151.103 46.4394 151.403 46.5708C151.707 46.7021 151.853 46.8491 151.818 46.9296Z" fill="#495560"/>
<path d="M129.179 45.6384C129.852 44.2868 129.919 42.727 130.234 41.2501C130.548 39.7734 131.246 38.2168 132.628 37.6088L132.661 37.6206C133.898 37.0168 135.467 36.8962 136.577 37.705C136.699 35.776 138.264 34.1424 140.094 33.5186C141.923 32.8951 144.936 32.9714 146.776 33.5627C148.198 34.0197 149.618 35.0633 151.363 36.6215C152.098 37.2779 152.784 37.9919 153.402 38.7595L155.384 43.6502L154.184 46.3761C154.114 46.5608 154.041 46.7453 153.95 46.9298L153.948 46.9178L153.094 52.5417C152.906 51.0382 152.638 45.7809 152.45 44.2777C150.114 44.3452 147.939 43.5567 146.252 41.9393C145.363 41.0859 144.632 39.9886 143.491 39.5227C142.019 38.9219 140.361 39.5556 138.901 40.1838L138.96 40.1221C138.207 40.5385 137.534 41.1013 136.992 41.7699C137.543 44.7165 137.453 47.7816 136.724 50.6896C136.614 51.1276 136.294 52.0367 135.886 52.2293C135.083 52.6079 134.8 51.7835 134.272 51.3725C133.882 51.0703 133.336 51.0669 132.744 51.1112C132.329 50.2195 131.859 48.7006 131.46 47.3694C130.972 47.5565 130.444 47.6359 129.924 47.5836C130.055 47.1932 130.186 46.8031 130.317 46.4128C130.12 46.5579 129.917 46.7065 129.678 46.7594C129.44 46.812 129.156 46.7419 129.032 46.5316C128.872 46.2596 129.039 45.9211 129.179 45.6384Z" fill="#495560"/>
<path d="M151.786 48.2244C151.688 48.3403 151.033 47.8867 150.133 47.9273C149.234 47.9544 148.595 48.4568 148.492 48.3479C148.442 48.2997 148.539 48.0938 148.816 47.8671C149.09 47.6415 149.564 47.4135 150.124 47.3921C150.685 47.3718 151.165 47.563 151.446 47.7681C151.733 47.974 151.835 48.1723 151.786 48.2244Z" fill="#495560"/>
<path d="M150.542 50.9159C150.556 51.3007 150.241 51.6288 149.839 51.6502C149.439 51.6713 149.102 51.3773 149.089 50.9927C149.076 50.6081 149.391 50.2793 149.792 50.2579C150.193 50.2366 150.529 50.5313 150.542 50.9159Z" fill="#495560"/>
<path d="M152.909 38.1748C153.401 38.7507 154.136 39.2585 154.883 39.1332C155.104 39.0962 155.67 38.8507 155.67 38.8507C155.942 38.9943 155.934 39.8977 155.767 40.1565C155.601 40.4149 155.238 40.7732 155.238 40.7732C156.149 41.1948 156.938 40.9137 157.858 40.5137C157.787 42.1246 156.785 43.6614 155.339 44.3746C154.876 44.6029 154.308 44.7454 153.859 44.4913C153.464 44.268 153.28 43.806 153.139 43.3751C152.622 41.7913 152.301 40.1432 152.187 38.481L152.909 38.1748Z" fill="#495560"/>
<path d="M150.949 68.9058L147.86 67.7639L136.04 67.415L133.297 68.1618L133.657 74.845L139.86 78.8008L145.875 78.6809L149.659 75.2346L150.498 71.8185L150.949 68.9058Z" fill="#C4C4C4"/>
<path d="M115.892 79.1449C116.773 77.3305 117.617 75.8742 118.366 74.7235C119.843 72.4563 122.1 70.8118 124.734 70.244L134.651 67.5557C134.651 67.5557 135.325 74.2435 142.145 74.2435C148.965 74.2435 149.104 68.0497 149.104 68.0497L161.589 72.6144C161.984 72.7676 164.645 73.688 167.742 80.3289C170.692 86.6538 171.982 89.8899 171.982 89.8899L160.204 93.0556L159.421 103.936L160.115 119.828L124.235 119.749L123.992 102.986L123.829 91.508L123.076 92.925L111.874 88.4317C111.874 88.4317 112.988 85.1245 115.892 79.1449Z" fill="#6B7A88"/>
<path d="M123.658 85.5693C123.606 85.5704 123.638 89.4149 123.73 94.1555C123.822 98.8976 123.94 102.74 123.992 102.739C124.045 102.738 124.013 98.894 123.92 94.1518C123.828 89.4112 123.711 85.5683 123.658 85.5693Z" fill="#495560"/>
<path d="M146.585 57.5575C146.593 57.588 146.388 57.6756 146.033 57.6735C145.683 57.674 145.179 57.5573 144.743 57.2175C144.308 56.8769 144.073 56.4154 143.988 56.0762C143.901 55.7322 143.936 55.5123 143.968 55.5118C144.008 55.5086 144.04 55.7166 144.164 56.0175C144.285 56.3169 144.52 56.7106 144.904 57.0111C145.288 57.3107 145.727 57.4439 146.047 57.4892C146.369 57.5369 146.579 57.5176 146.585 57.5575Z" fill="#495560"/>
<path d="M179.059 66.9078C179.059 66.9078 179.734 65.2378 178.911 64.7648C178.088 64.2921 172.823 62.693 172.253 62.9038C171.683 63.1146 171.472 63.4031 171.324 64.0261C171.176 64.6489 171.021 65.0613 171.021 65.0613C171.021 65.0613 170.506 64.5665 169.597 65.0428C169.597 65.0428 168.646 65.5442 168.512 65.9627C168.378 66.3809 168.588 66.9508 168.765 67.3737C168.941 67.7966 169.989 69.3621 169.989 69.3621C169.989 69.3621 169.988 70.678 170.87 72.0655C171.752 73.4531 173.462 73.8262 173.743 74.8284L173.395 79.3009L179.528 82.7352C179.528 82.7352 179.428 77.1498 179.318 74.6992C179.209 72.2482 179.205 69.7881 179.36 68.9937C179.514 68.1989 179.307 67.0308 179.059 66.9078Z" fill="#C4C4C4"/>
<path d="M175.942 69.2504C175.939 69.2524 175.924 69.2371 175.898 69.2053C175.871 69.174 175.835 69.1235 175.799 69.051C175.728 68.914 175.655 68.6451 175.823 68.3657L175.839 68.4217C175.62 68.3407 175.366 68.2469 175.084 68.1424L175.147 68.0814C175.215 68.2717 175.289 68.4798 175.368 68.6998L175.356 68.6794C175.44 68.766 175.521 68.8629 175.589 68.9752C175.654 69.0899 175.703 69.2256 175.703 69.3694C175.707 69.6582 175.522 69.9469 175.242 70.0792C175.102 70.146 174.938 70.171 174.779 70.1426C174.618 70.1076 174.486 70.0472 174.343 69.9841C174.062 69.857 173.791 69.6889 173.539 69.4862C173.369 69.3468 173.212 69.2003 173.075 69.0289L173.12 69.0549C172.758 69.0059 172.399 68.877 172.142 68.6323C171.882 68.39 171.751 68.0572 171.743 67.7349L171.788 67.7945C171.555 67.7218 171.348 67.6215 171.171 67.4832C171.084 67.4138 171.005 67.3336 170.948 67.2398C170.894 67.1319 170.884 67.0277 170.879 66.93C170.867 66.5381 170.926 66.2074 170.969 65.9346C171.017 65.6623 171.064 65.4499 171.099 65.3058C171.134 65.1615 171.158 65.0856 171.164 65.0869C171.171 65.0885 171.159 65.1669 171.136 65.3134C171.113 65.4596 171.077 65.6732 171.04 65.9455C171.007 66.2165 170.958 66.5508 170.978 66.9232C170.984 67.0149 171 67.1108 171.038 67.1843C171.088 67.2632 171.159 67.3336 171.239 67.3959C171.401 67.5191 171.606 67.6142 171.819 67.6781L171.862 67.6908L171.864 67.738C171.874 68.0158 171.996 68.3261 172.231 68.538C172.463 68.7558 172.793 68.8754 173.138 68.9213L173.165 68.9249L173.183 68.9476C173.307 69.1016 173.462 69.2483 173.625 69.3807C173.867 69.5761 174.128 69.7389 174.399 69.8624C174.532 69.9229 174.676 69.9854 174.802 70.0125C174.934 70.0373 175.07 70.0175 175.187 69.9625C175.424 69.8536 175.584 69.6086 175.582 69.3689C175.584 69.1276 175.432 68.921 175.277 68.7558L175.268 68.7464L175.264 68.7357C175.19 68.5142 175.12 68.3045 175.055 68.1132L175.022 68.0132L175.119 68.0522C175.398 68.1648 175.649 68.2659 175.866 68.3532L175.908 68.3701L175.882 68.4092C175.728 68.6448 175.775 68.9002 175.835 69.0351C175.895 69.1782 175.95 69.2444 175.942 69.2504Z" fill="#495560"/>
<path d="M177.774 66.3441C177.773 66.3532 177.672 66.3405 177.493 66.3095C177.313 66.2787 177.054 66.2295 176.735 66.1659C176.405 66.0981 176.028 66.0207 175.615 65.9358C175.403 65.8907 175.183 65.8438 174.955 65.7954C174.726 65.7477 174.491 65.687 174.262 65.7182C174.031 65.7435 173.856 65.9019 173.748 66.0961C173.637 66.2894 173.576 66.5072 173.517 66.7113C173.402 67.1217 173.341 67.5029 173.295 67.8236C173.21 68.4667 173.173 68.8691 173.151 68.867C173.142 68.8662 173.141 68.7654 173.147 68.583C173.154 68.4008 173.167 68.1374 173.2 67.8122C173.234 67.4875 173.286 67.0998 173.396 66.6784C173.454 66.4697 173.512 66.2464 173.632 66.0304C173.744 65.8165 173.968 65.6116 174.243 65.5838C174.511 65.5489 174.756 65.6174 174.983 65.6656C175.211 65.7167 175.431 65.7662 175.642 65.8136C176.052 65.909 176.428 65.996 176.756 66.0721C177.072 66.1476 177.328 66.2112 177.504 66.2579C177.68 66.3048 177.776 66.335 177.774 66.3441Z" fill="#495560"/>
<path d="M176.853 65.1429C176.851 65.152 176.748 65.133 176.564 65.0918C176.352 65.0421 176.093 64.9813 175.788 64.9094C175.46 64.8331 175.07 64.7437 174.634 64.6621C174.416 64.622 174.186 64.5814 173.949 64.5517C173.714 64.5243 173.465 64.516 173.237 64.5944C173.009 64.6731 172.826 64.8385 172.692 65.0285C172.557 65.2192 172.462 65.4298 172.385 65.6349C172.233 66.0489 172.124 66.4346 172.046 66.76C171.892 67.4125 171.849 67.8281 171.827 67.8255C171.818 67.8247 171.818 67.72 171.835 67.5316C171.852 67.3434 171.886 67.0714 171.953 66.7394C172.02 66.4072 172.119 66.0161 172.268 65.5916C172.344 65.3798 172.44 65.1585 172.584 64.9519C172.725 64.7463 172.931 64.5561 173.192 64.4659C173.454 64.3771 173.722 64.3901 173.965 64.4195C174.209 64.4521 174.438 64.4956 174.658 64.5394C175.096 64.6285 175.486 64.7278 175.811 64.8167C176.136 64.9055 176.398 64.9839 176.578 65.0408C176.757 65.0978 176.855 65.1338 176.853 65.1429Z" fill="#495560"/>
<path d="M179.055 65.7772C179.03 65.8085 178.745 65.6011 178.344 65.4606C177.945 65.3152 177.594 65.2957 177.594 65.2556C177.59 65.2209 177.963 65.1784 178.39 65.3327C178.818 65.4836 179.08 65.753 179.055 65.7772Z" fill="#495560"/>
<path d="M173.958 63.6647C173.957 63.691 173.642 63.6514 173.147 63.6826C172.903 63.7037 172.607 63.7621 172.338 63.9336C172.06 64.098 171.882 64.4135 171.794 64.7807C171.616 65.5218 171.499 66.2089 171.421 66.7042C171.343 67.2006 171.302 67.5094 171.282 67.5076C171.264 67.5063 171.272 67.1936 171.325 66.6915C171.38 66.1891 171.482 65.4999 171.663 64.7463C171.713 64.5576 171.778 64.3719 171.881 64.21C171.981 64.0467 172.123 63.9177 172.271 63.8275C172.571 63.6459 172.887 63.5967 173.141 63.5868C173.398 63.5782 173.602 63.6024 173.742 63.6201C173.882 63.6391 173.959 63.6555 173.958 63.6647Z" fill="#495560"/>
<path d="M176.725 64.3698C176.716 64.4063 176.405 64.3583 176.031 64.2632C175.657 64.1679 175.362 64.0613 175.371 64.0248C175.38 63.9886 175.691 64.0363 176.065 64.1316C176.439 64.227 176.734 64.3336 176.725 64.3698Z" fill="#495560"/>
<path d="M171.833 68.0531C171.844 68.0924 171.433 68.2105 171.026 68.5234C170.614 68.8306 170.39 69.1939 170.355 69.1723C170.322 69.1608 170.506 68.7434 170.944 68.415C171.379 68.0828 171.831 68.019 171.833 68.0531Z" fill="#495560"/>
<path d="M170.992 67.211C171.001 67.2248 170.932 67.2965 170.792 67.376C170.654 67.4547 170.433 67.5318 170.182 67.5261C169.932 67.5206 169.719 67.4458 169.575 67.3814C169.432 67.3147 169.352 67.2569 169.359 67.2407C169.376 67.1962 169.732 67.3726 170.185 67.3906C170.642 67.4012 170.971 67.1696 170.992 67.211Z" fill="#495560"/>
<path d="M176.869 69.728C176.87 69.7533 176.536 69.7429 176.024 69.875C175.516 70.0029 174.827 70.3093 174.264 70.8839C173.702 71.4593 173.41 72.1542 173.293 72.6647C173.172 73.1796 173.19 73.5139 173.164 73.5133C173.156 73.5136 173.143 73.431 173.14 73.2804C173.137 73.1298 173.149 72.9106 173.199 72.6446C173.295 72.1159 173.582 71.3876 174.167 70.7893C174.753 70.1913 175.475 69.8885 176.001 69.7817C176.266 69.7262 176.485 69.7087 176.636 69.709C176.787 69.709 176.869 69.7197 176.869 69.728Z" fill="#495560"/>
<path d="M177.797 75.4526C177.8 75.4682 177.606 75.5284 177.28 75.5656C176.955 75.6037 176.497 75.6068 176.003 75.5182C175.509 75.4283 175.081 75.2649 174.79 75.1156C174.498 74.9666 174.337 74.8423 174.346 74.8288C174.365 74.7891 175.059 75.2154 176.027 75.3848C176.993 75.5651 177.792 75.4088 177.797 75.4526Z" fill="#495560"/>
<path d="M0.390039 70.2015L5.59837 68.4277L7.24232 84.4188L17.1456 75.7824L23.2819 83.2009C23.2819 83.2009 12.9121 94.0264 9.16014 95.5122C9.16014 95.5122 3.46193 98.2915 1.03939 94.644C-0.827356 91.8329 0.390039 70.2015 0.390039 70.2015Z" fill="#C4C4C4"/>
<path d="M50.5139 60.6358C50.3529 56.9852 50.1895 53.3166 49.461 49.7358C48.7327 46.155 47.8277 42.6664 45.5576 39.8027L24.5585 41.1017C23.775 44.3458 22.9857 47.6697 23.3503 50.9873C23.7041 54.2069 25.137 57.3093 24.9372 60.542C24.7957 62.8262 23.8485 64.9691 23.1546 67.1498C22.4604 69.3306 22.0242 71.7495 22.888 73.8687C23.1056 74.4026 23.4196 74.9225 23.9053 75.2331C24.501 75.614 25.2525 75.6229 25.9596 75.6179C34.3582 75.5593 42.7551 75.2964 51.1409 74.8294C50.9319 70.098 50.7229 65.367 50.5139 60.6358Z" fill="#495560"/>
<path d="M29.9366 35.8836C31.8825 34.7991 34.2428 34.6259 36.4308 35.0449C38.6188 35.4639 40.6628 36.4355 42.6004 37.5352C43.6875 38.1519 44.772 38.831 45.5576 39.8029C46.9921 41.5769 48.4198 44.4982 48.5756 46.7743C48.7017 48.6144 48.0351 53.2302 47.2709 54.9091C46.5694 56.4496 43.237 57.6459 41.5901 58.0386L26.3047 40.5594C26.823 38.5993 28.1654 36.871 29.9366 35.8836Z" fill="#495560"/>
<path d="M27.3468 38.2799L30.9703 37.6006C29.0262 42.3414 28.5785 53.1497 27.4854 58.1561C26.1317 56.2263 22.9754 50.3405 23.1221 47.9875C23.2686 45.6348 23.0312 37.9151 27.3468 38.2799Z" fill="#495560"/>
<path d="M25.3358 45.9996C25.5419 42.3727 27.9171 37.9094 31.532 38.2695L39.907 40.3317C42.5941 40.9933 44.3996 43.242 44.6179 46.0004C44.6289 46.138 44.6414 45.9702 44.6398 46.0736L42.9558 67.7309L29.7359 82.1812L31.1406 67.2222C31.1229 65.4571 31.1106 64.0524 31.1101 64.0615C31.1101 64.0615 26.4732 63.3209 25.4763 57.2832C24.9807 54.2806 25.1068 50.0294 25.3358 45.9996Z" fill="#C4C4C4"/>
<path d="M27.6102 50.8954C27.5982 51.3048 27.9348 51.6524 28.3624 51.673C28.7887 51.693 29.1452 51.3785 29.1569 50.9692C29.1689 50.5598 28.832 50.2114 28.4057 50.1914C27.9784 50.171 27.6222 50.4861 27.6102 50.8954Z" fill="#495560"/>
<path d="M26.2636 48.3602C26.3602 48.4608 26.9447 48.0225 27.7788 48.0194C28.6121 48.0045 29.2265 48.4298 29.3167 48.3273C29.3607 48.2817 29.2614 48.0999 28.9941 47.9076C28.7304 47.716 28.2817 47.5308 27.7624 47.5363C27.2428 47.5422 26.8069 47.7361 26.557 47.9334C26.3016 48.1319 26.2159 48.3151 26.2636 48.3602Z" fill="#495560"/>
<path d="M34.847 50.8349C34.835 51.2443 35.1719 51.5919 35.599 51.6122C36.0256 51.6325 36.3818 51.318 36.3938 50.9086C36.4057 50.4993 36.0688 50.1512 35.6423 50.1308C35.2149 50.1103 34.8587 50.4255 34.847 50.8349Z" fill="#495560"/>
<path d="M34.1838 48.294C34.2808 48.3943 34.866 47.9563 35.6996 47.9535C36.5324 47.9383 37.1473 48.3636 37.2369 48.2609C37.281 48.2156 37.183 48.034 36.9144 47.8414C36.6509 47.6496 36.2022 47.4646 35.6826 47.4698C35.1633 47.4761 34.7274 47.67 34.4772 47.8672C34.2226 48.0655 34.1364 48.2489 34.1838 48.294Z" fill="#495560"/>
<path d="M31.6312 54.8656C31.6346 54.8184 31.1158 54.7319 30.2749 54.6295C30.062 54.6089 29.8601 54.5677 29.8233 54.4228C29.772 54.2691 29.8598 54.039 29.9617 53.7907C30.1587 53.274 30.3648 52.7325 30.5816 52.165C31.4418 49.8508 32.0632 47.9481 31.9699 47.9145C31.8764 47.8804 31.1028 49.7292 30.2426 52.0436C30.0357 52.614 29.8374 53.158 29.6493 53.6784C29.5701 53.921 29.4333 54.1964 29.544 54.5151C29.6021 54.6738 29.7592 54.7884 29.896 54.8244C30.0328 54.865 30.1527 54.8666 30.258 54.8723C31.1038 54.9125 31.6283 54.9132 31.6312 54.8656Z" fill="#495560"/>
<path d="M39.1081 61.8438C39.1081 61.8438 37.176 66.0111 31.1239 65.4826L31.1104 64.0612C31.1104 64.0612 35.095 64.2895 39.1081 61.8438Z" fill="#6B7A88"/>
<path d="M34.4206 45.2779C34.504 45.5041 35.3362 45.3918 36.3152 45.5036C37.2971 45.5958 38.0876 45.8772 38.2164 45.6732C38.2737 45.5755 38.1348 45.3628 37.8143 45.1455C37.4969 44.9282 36.9909 44.7229 36.403 44.6609C35.8152 44.6004 35.2779 44.6971 34.9225 44.8443C34.5642 44.9913 34.3844 45.1705 34.4206 45.2779Z" fill="#495560"/>
<path d="M26.5141 45.8066C26.6621 45.995 27.2353 45.7949 27.9261 45.7813C28.6164 45.7436 29.2029 45.9007 29.3363 45.7019C29.3947 45.6052 29.3014 45.416 29.0447 45.2383C28.7917 45.0611 28.3693 44.9178 27.8946 44.935C27.4201 44.953 27.0097 45.127 26.7707 45.3227C26.5279 45.5189 26.4489 45.7144 26.5141 45.8066Z" fill="#495560"/>
<path d="M26.9317 40.4663C27.2936 39.5537 28.2872 38.9995 29.267 38.9414C30.247 38.8835 31.2077 39.2468 32.0616 39.7309C35.6781 41.7811 37.5701 46.7906 41.1444 48.9135C42.0235 49.4354 43.1578 48.9411 43.9078 49.6361C44.6574 50.331 45.1494 51.4476 44.746 52.3869C45.2182 51.7277 45.6968 51.0562 45.9621 50.2896C46.2276 49.523 46.2542 48.6339 45.8428 47.9348C45.5306 47.4043 44.9837 47.0019 44.8294 46.4057C44.6939 45.8815 44.8966 45.3304 44.8693 44.7894C44.8416 44.2386 44.5782 43.7302 44.3028 43.2523C42.8892 40.8003 40.9542 38.588 38.4748 37.2229C36.8551 36.3312 35.0068 35.8171 33.1594 35.8955C31.3119 35.974 29.4718 36.6687 28.1298 37.9408C27.3405 38.6891 26.5109 39.4633 26.9317 40.4663Z" fill="#495560"/>
<path d="M43.8271 50.3859C43.8892 50.2118 47.0322 49.0478 47.102 52.3983C47.1698 55.6531 43.88 55.0397 43.8725 54.9464C43.8655 54.8531 43.8271 50.3859 43.8271 50.3859Z" fill="#C4C4C4"/>
<path d="M44.8549 53.6955C44.8693 53.6851 44.9125 53.7343 45.0089 53.7765C45.1033 53.8177 45.2645 53.8443 45.4331 53.7778C45.7747 53.6455 46.0546 53.0943 46.0601 52.5075C46.0629 52.211 45.996 51.9298 45.8868 51.6985C45.7831 51.4619 45.6262 51.2982 45.4527 51.2706C45.2797 51.2338 45.1588 51.3396 45.1207 51.4319C45.0788 51.5239 45.1004 51.5885 45.0832 51.5942C45.0743 51.6026 45.0123 51.5408 45.0365 51.4061C45.0485 51.3409 45.0855 51.2638 45.1608 51.2C45.2377 51.1348 45.3521 51.1004 45.4727 51.1114C45.7242 51.1244 45.9543 51.3511 46.0741 51.6054C46.2081 51.8608 46.2902 52.1766 46.2868 52.5094C46.2777 53.1657 45.9527 53.7854 45.4847 53.9297C45.2567 53.9936 45.0644 53.9279 44.9646 53.8529C44.8622 53.7742 44.8437 53.7017 44.8549 53.6955Z" fill="#495560"/>
<path d="M44.297 49.6304C44.3554 50.5186 44.4044 51.4572 44 52.2509C43.5958 53.0444 42.5645 53.5905 41.7877 53.1551C41.154 52.8 40.9586 51.994 40.8457 51.2764C40.5195 49.2056 40.3608 47.1109 40.0166 45.043L44.297 49.6304Z" fill="#495560"/>
<path d="M33.6949 56.4324C34.0117 56.8404 34.1146 57.4061 33.9612 57.8999C33.8079 58.3934 33.403 58.8015 32.9105 58.9581C32.7143 59.0206 32.4973 59.0441 32.3037 58.9729C31.9621 58.8468 31.7896 58.4753 31.6514 58.1383C31.5368 57.8582 31.4219 57.5784 31.3072 57.2982C31.2687 57.2042 31.2304 57.0963 31.2734 57.0043C31.3197 56.905 31.4393 56.868 31.5454 56.8415C32.2406 56.6679 32.9356 56.4941 33.6305 56.3203" fill="#6B7A88"/>
<path d="M32.3481 58.8707C32.3502 58.8913 32.7184 58.9312 33.2966 58.7435C33.578 58.6435 33.9204 58.4382 34.1226 58.0606C34.2261 57.8797 34.2698 57.6286 34.2448 57.4131C34.2284 57.1916 34.1755 56.962 34.0736 56.7463C33.9754 56.537 33.8368 56.3528 33.676 56.2058L33.6205 56.1553L33.5514 56.1803C32.172 56.6798 31.0919 56.9362 31.1036 56.9954C31.1133 57.0558 32.2277 56.8971 33.6335 56.4122L33.5092 56.3867C33.6447 56.5154 33.762 56.6728 33.8467 56.8528C34.0082 57.2252 34.0749 57.6567 33.917 57.9558C33.7615 58.2706 33.4811 58.4673 33.2296 58.5794C32.7124 58.7949 32.3382 58.8248 32.3481 58.8707Z" fill="#495560"/>
<path d="M47.2319 68.6226C46.9072 68.4176 42.6064 67.5605 42.6064 67.5605L32.2562 67.917L28.5543 68.632C28.5543 68.632 27.9636 80.1407 28.0681 80.3476C28.1728 80.5545 32.9939 84.4613 33.1982 84.6674C33.4022 84.8735 43.2657 81.467 43.2657 81.467L49.6909 69.71L47.2319 68.6226Z" fill="#C4C4C4"/>
<path d="M45.8494 67.5332C46.3687 67.5288 52.1226 69.0594 53.9852 71.5166C56.5453 74.8934 60.8529 79.9675 60.8529 79.9675L49.9755 88.8973L47.5983 102.733C47.5983 102.733 51.9058 114.721 52.57 119.598C52.57 119.598 16.9271 119.771 17.6525 119.598C17.6525 119.598 20.1548 100.366 19.6837 93.7213C19.2126 87.0772 19.5438 76.9983 19.5438 76.9983L24.0538 69.191L30.8266 68.1927C30.8266 68.1927 28.2148 73.1655 33.6514 74.0103C39.2282 74.8772 45.8494 67.5332 45.8494 67.5332Z" fill="#6B7A88"/>
<path d="M29.9738 68.3086C29.9738 68.3086 23.7323 69.1594 21.6616 69.6469C19.5908 70.1344 11.4922 78.9045 11.4922 78.9045L19.8469 87.8312L23.4319 80.316L29.9738 68.3086Z" fill="#6B7A88"/>
<path d="M19.7439 78.8271C19.7249 78.8266 19.6972 79.1117 19.6639 79.6279C19.6305 80.1441 19.5933 80.8911 19.5565 81.8149C19.482 83.6623 19.414 86.2157 19.3835 89.0364C19.3538 91.8581 19.3674 94.4125 19.4023 96.261C19.4192 97.1853 19.4406 97.9334 19.463 98.4501C19.4854 98.9665 19.5068 99.2521 19.526 99.2519C19.5451 99.2516 19.5602 98.9658 19.5714 98.4488C19.5784 97.881 19.5878 97.1451 19.599 96.2602C19.6154 94.3622 19.6376 91.8344 19.6618 89.0392C19.6972 86.2454 19.729 83.7181 19.7533 81.8201C19.7608 80.9352 19.7673 80.1991 19.7723 79.6313C19.7723 79.1143 19.7632 78.8279 19.7439 78.8271Z" fill="#495560"/>
<path d="M0.50116 59.8664C0.50116 59.8664 -0.143758 58.3061 0.623368 57.8563C1.39102 57.4066 6.31454 55.8663 6.85027 56.0597C7.38601 56.2528 7.58639 56.5214 7.73023 57.104C7.87406 57.6869 8.02259 58.0723 8.02259 58.0723C8.02259 58.0723 8.50048 57.6046 9.35724 58.0439C9.35724 58.0439 10.2523 58.5064 10.3813 58.8976C10.5105 59.2887 10.3172 59.8244 10.1551 60.2223C9.99304 60.6202 9.02319 62.0961 9.02319 62.0961C9.02319 62.0961 9.03466 63.3296 8.21854 64.6372C7.40243 65.945 5.80251 66.308 5.54689 67.2497L5.90804 71.44L0.186127 74.7073C0.186127 74.7073 0.235636 69.4706 0.31928 67.1721C0.402924 64.8738 0.386768 62.5677 0.235897 61.8241C0.085025 61.0804 0.269771 59.9836 0.50116 59.8664Z" fill="#C4C4C4"/>
<path d="M3.4423 62.0381C3.43396 62.0326 3.48529 61.9695 3.54002 61.8351C3.59421 61.7082 3.63538 61.469 3.48999 61.2506L3.46393 61.2118L3.50588 61.1943C3.70887 61.1104 3.94312 61.0135 4.20343 60.9056L4.29984 60.866L4.26701 60.9661C4.20838 61.1464 4.14454 61.3434 4.07679 61.5513L4.07315 61.5622L4.06455 61.5716C3.92045 61.7277 3.77974 61.9218 3.78443 62.1465C3.78469 62.3695 3.9353 62.5965 4.15705 62.6963C4.26701 62.7466 4.39365 62.7638 4.51612 62.7398C4.63338 62.7135 4.76783 62.6535 4.89161 62.5959C5.14384 62.4784 5.38722 62.3236 5.61235 62.1389C5.764 62.0136 5.90836 61.8749 6.02301 61.7301L6.04099 61.7074L6.06783 61.7035C6.39016 61.6579 6.69737 61.5435 6.91209 61.3382C7.13045 61.1388 7.24171 60.8475 7.24953 60.5885L7.25083 60.5413L7.2933 60.5283C7.4929 60.4671 7.6839 60.3764 7.83399 60.2599C7.90878 60.2013 7.97392 60.1351 8.02004 60.0611C8.05496 59.9931 8.06955 59.9034 8.07424 59.8175C8.09014 59.4691 8.04219 59.1559 8.0091 58.9021C7.97288 58.6472 7.93796 58.4468 7.91529 58.31C7.89262 58.173 7.88168 58.0992 7.88819 58.0977C7.89445 58.0964 7.9179 58.1672 7.95229 58.3022C7.98669 58.4369 8.03281 58.6358 8.07971 58.8906C8.12323 59.146 8.1816 59.4553 8.17378 59.8234C8.16935 59.9154 8.16127 60.0131 8.1102 60.1161C8.05756 60.2047 7.9846 60.2807 7.90304 60.3469C7.7381 60.4785 7.54398 60.5742 7.32614 60.6445L7.37017 60.5843C7.36522 60.8881 7.2451 61.2016 7.00198 61.432C6.76252 61.6641 6.42638 61.7882 6.08633 61.8372L6.13115 61.8106C6.00347 61.9729 5.85781 62.1113 5.69886 62.2436C5.46461 62.4359 5.21159 62.5959 4.94867 62.7174C4.81474 62.7776 4.69227 62.8351 4.53983 62.8693C4.39079 62.8977 4.23522 62.8753 4.10337 62.8133C3.83785 62.6908 3.66196 62.4201 3.66353 62.148C3.66196 62.0123 3.70808 61.8841 3.76828 61.7757C3.83055 61.6696 3.90612 61.5779 3.98481 61.4961L3.97257 61.5164C4.04474 61.3098 4.11301 61.1141 4.17555 60.9353L4.23913 60.9955C3.97543 61.0953 3.73831 61.1849 3.53272 61.2626L3.54861 61.2066C3.70887 61.4684 3.64164 61.7215 3.57571 61.8507C3.5421 61.9187 3.50901 61.9667 3.48373 61.9958C3.45898 62.0261 3.44517 62.0401 3.4423 62.0381Z" fill="#495560"/>
<path d="M1.70121 59.3278C1.69912 59.3186 1.78928 59.2889 1.95396 59.2431C2.11838 59.1975 2.35759 59.1354 2.65386 59.0617C2.96186 58.9872 3.31233 58.9025 3.69563 58.8097C3.89341 58.7636 4.099 58.7154 4.31189 58.6654C4.52399 58.6187 4.75382 58.5523 5.00657 58.583C5.26584 58.607 5.47873 58.7988 5.58556 58.9989C5.70048 59.2011 5.75676 59.4104 5.81226 59.6058C5.91858 60 5.97017 60.3633 6.00404 60.6676C6.03688 60.9725 6.05121 61.2192 6.0585 61.3902C6.06554 61.5609 6.06424 61.6557 6.05512 61.6565C6.03375 61.6586 5.99492 61.2818 5.90894 60.6799C5.86308 60.3797 5.80236 60.023 5.69188 59.6394C5.63455 59.4489 5.5754 59.2454 5.47039 59.0656C5.36825 58.885 5.20383 58.7394 4.98859 58.7175C4.77518 58.6901 4.555 58.7485 4.34133 58.7951C4.12792 58.8423 3.92155 58.8879 3.72351 58.9317C3.33786 59.014 2.98505 59.0893 2.67497 59.1553C2.37609 59.217 2.13376 59.2647 1.96569 59.2947C1.79736 59.3246 1.70329 59.3369 1.70121 59.3278Z" fill="#495560"/>
<path d="M2.55522 58.194C2.55287 58.1852 2.64434 58.15 2.8124 58.0948C2.98021 58.0395 3.22437 57.9634 3.52872 57.8772C3.83307 57.7909 4.19761 57.6945 4.60775 57.6072C4.81334 57.5642 5.02779 57.5218 5.25658 57.4894C5.48406 57.4595 5.73603 57.4451 5.98279 57.527C6.23008 57.6096 6.42472 57.787 6.55944 57.9791C6.69624 58.1724 6.7877 58.3793 6.86092 58.5776C7.00372 58.9747 7.09961 59.3405 7.16449 59.6517C7.22911 59.9625 7.26273 60.2174 7.27966 60.3938C7.29608 60.5702 7.2966 60.6684 7.288 60.6695C7.26611 60.6721 7.22129 60.2833 7.07094 59.673C6.99512 59.3687 6.89011 59.0083 6.74419 58.6216C6.66992 58.4301 6.57924 58.2339 6.45156 58.0567C6.32519 57.88 6.15321 57.7271 5.9398 57.6554C5.72587 57.5843 5.4937 57.5937 5.27377 57.6213C5.05229 57.6507 4.83627 57.6906 4.63277 57.7297C4.22471 57.8097 3.85965 57.8959 3.55321 57.9699C3.26945 58.0385 3.02738 58.0971 2.82648 58.1456C2.65424 58.1852 2.55783 58.2031 2.55522 58.194Z" fill="#495560"/>
<path d="M0.496428 58.8058C0.471152 58.7816 0.714006 58.5252 1.11451 58.3801C1.5137 58.2318 1.86469 58.2706 1.86131 58.3055C1.86183 58.3454 1.53351 58.3683 1.16115 58.5075C0.787227 58.6419 0.521964 58.8369 0.496428 58.8058Z" fill="#495560"/>
<path d="M5.25782 56.7864C5.25704 56.7773 5.32869 56.7606 5.45976 56.7413C5.59083 56.7231 5.78235 56.698 6.02286 56.704C6.26128 56.7108 6.55886 56.7543 6.84262 56.9224C6.98281 57.006 7.117 57.1264 7.2129 57.2791C7.31087 57.4305 7.37341 57.6046 7.42187 57.7812C7.59802 58.4863 7.69756 59.132 7.75254 59.6029C7.80622 60.0732 7.81404 60.3664 7.79658 60.3679C7.77678 60.37 7.73508 60.0808 7.65743 59.6162C7.579 59.1529 7.46383 58.5098 7.29081 57.8167C7.20586 57.4735 7.03779 57.1806 6.77696 57.029C6.52342 56.8705 6.24695 56.8182 6.01765 56.7999C5.55409 56.7736 5.25886 56.8122 5.25782 56.7864Z" fill="#495560"/>
<path d="M2.66967 57.4686C2.66029 57.4324 2.93597 57.3282 3.28566 57.2359C3.63535 57.1437 3.92667 57.0983 3.93605 57.1345C3.94569 57.1708 3.67 57.275 3.32032 57.3672C2.97063 57.4595 2.67931 57.5048 2.66967 57.4686Z" fill="#495560"/>
<path d="M7.2844 60.8831C7.28674 60.8485 7.712 60.9034 8.12266 61.212C8.53671 61.5171 8.71129 61.9085 8.67898 61.9207C8.64433 61.9421 8.42935 61.6052 8.04188 61.3209C7.65832 61.0314 7.27371 60.9225 7.2844 60.8831Z" fill="#495560"/>
<path d="M8.06579 60.0872C8.08715 60.0466 8.39776 60.2587 8.82379 60.2449C9.24696 60.2248 9.57997 60.0586 9.59691 60.1023C9.61229 60.124 9.30246 60.3546 8.82744 60.3806C8.59188 60.3879 8.38395 60.3165 8.2534 60.2433C8.12155 60.1688 8.05667 60.1013 8.06579 60.0872Z" fill="#495560"/>
<path d="M2.57617 62.493C2.57617 62.4846 2.65356 62.4734 2.79505 62.4719C2.93628 62.4698 3.14188 62.4841 3.39098 62.5339C3.88581 62.629 4.56617 62.9073 5.12067 63.4636C5.67464 64.0207 5.94955 64.7024 6.04231 65.1977C6.09104 65.4471 6.10433 65.6527 6.10146 65.7939C6.09912 65.9351 6.08765 66.0128 6.07931 66.0125C6.0543 66.0131 6.06707 65.6996 5.94877 65.2188C5.83437 64.7417 5.55556 64.0937 5.02451 63.5592C4.49269 63.0258 3.8462 62.7439 3.36962 62.6274C2.88912 62.5068 2.57539 62.5183 2.57617 62.493Z" fill="#495560"/>
<path d="M1.75199 67.8664C1.75642 67.8231 2.50635 67.9612 3.4095 67.7848C4.31499 67.6189 4.96199 67.2157 4.98231 67.2546C4.99091 67.2681 4.8416 67.3869 4.56904 67.5297C4.29753 67.6728 3.89755 67.8299 3.43477 67.9183C2.97173 68.0053 2.54205 68.0053 2.23718 67.9714C1.93127 67.9383 1.74887 67.8823 1.75199 67.8664Z" fill="#495560"/>
<path d="M22.1507 9.19264L22.6823 10.2701C22.7104 10.3272 22.7649 10.3665 22.8279 10.3756L24.0169 10.5484C24.1753 10.5716 24.2387 10.7662 24.124 10.878L23.2636 11.7166C23.218 11.7611 23.1971 11.8249 23.2078 11.8877L23.4111 13.0718C23.4382 13.2297 23.2725 13.3501 23.1307 13.2756L22.0673 12.7164C22.011 12.6867 21.9438 12.6867 21.8875 12.7164L20.8241 13.2756C20.6824 13.3501 20.5166 13.2297 20.5437 13.0718L20.747 11.8877C20.7577 11.8249 20.7368 11.7611 20.6912 11.7166L19.8311 10.878C19.7164 10.7662 19.7795 10.5716 19.9379 10.5484L21.1269 10.3756C21.19 10.3665 21.2444 10.3272 21.2726 10.2701L21.8041 9.19264C21.875 9.04907 22.0798 9.04907 22.1507 9.19264Z" fill="#34C5A5"/>
<path d="M8.64757 23.8847L8.51389 24.5547C8.50686 24.5901 8.5178 24.6266 8.54282 24.6526L9.01888 25.1425C9.0822 25.2076 9.04338 25.3174 8.95296 25.328L8.27469 25.4078C8.23873 25.4119 8.2072 25.4336 8.19026 25.4656L7.87158 26.0696C7.82911 26.1501 7.71263 26.147 7.67459 26.0642L7.389 25.4437C7.37415 25.4109 7.34366 25.3877 7.30822 25.3815L6.63516 25.265C6.54552 25.2493 6.51243 25.1378 6.5794 25.0761L7.08126 24.6128C7.10784 24.5883 7.12061 24.5523 7.1154 24.5166L7.0182 23.8404C7.00544 23.7503 7.10133 23.6846 7.1808 23.7292L7.77647 24.0632C7.808 24.0809 7.84604 24.082 7.87862 24.0661L8.49148 23.7646C8.5733 23.7245 8.66554 23.7956 8.64757 23.8847Z" fill="#34C5A5"/>
<path d="M89.1047 6.74605L88.971 7.41598C88.964 7.45142 88.9746 7.4879 88.9999 7.51396L89.476 8.00384C89.5393 8.06898 89.5002 8.17868 89.4101 8.18936L88.7315 8.2691C88.6958 8.27327 88.6643 8.29489 88.6474 8.32695L88.3284 8.93095C88.2859 9.01147 88.1697 9.00834 88.1317 8.92574L87.8461 8.30506C87.831 8.27223 87.8008 8.24903 87.7651 8.24278L87.0923 8.1263C87.0024 8.11067 86.9695 7.99915 87.0365 7.93739L87.5384 7.47409C87.5649 7.4496 87.5777 7.41364 87.5725 7.37794L87.4753 6.70175C87.4625 6.6116 87.5584 6.54593 87.6376 6.59049L88.2336 6.92454C88.2651 6.94226 88.3031 6.9433 88.3357 6.92741L88.9486 6.62593C89.0301 6.5858 89.1224 6.65694 89.1047 6.74605Z" fill="#34C5A5"/>
<path d="M160.962 30.0031L160.828 30.6728C160.821 30.7082 160.832 30.745 160.857 30.7708L161.333 31.2606C161.396 31.326 161.357 31.4357 161.267 31.4462L160.589 31.5262C160.553 31.5303 160.521 31.552 160.504 31.5837L160.185 32.188C160.143 32.2683 160.026 32.2651 159.988 32.1825L159.703 31.5621C159.688 31.5293 159.658 31.5058 159.622 31.4998L158.949 31.3831C158.859 31.3677 158.827 31.2562 158.893 31.1945L159.395 30.7312C159.422 30.7067 159.434 30.6704 159.429 30.6347L159.332 29.9588C159.319 29.8687 159.415 29.8027 159.495 29.8473L160.09 30.1813C160.122 30.1991 160.16 30.2001 160.192 30.1842L160.805 29.883C160.887 29.8429 160.979 29.9137 160.962 30.0031Z" fill="#34C5A5"/>
<path d="M158.579 14.1604L158.189 14.3468L158.15 14.3986L158.083 14.8257C158.073 14.8825 158.003 14.9044 157.963 14.8624L157.666 14.5492L157.605 14.5284L157.178 14.5959C157.121 14.605 157.078 14.5448 157.106 14.4942L157.312 14.1141L157.313 14.0494L157.116 13.6643C157.09 13.613 157.134 13.5541 157.191 13.5645L157.616 13.6429L157.678 13.6239L157.984 13.3183C158.024 13.2776 158.094 13.3011 158.102 13.3584L158.158 13.7868L158.195 13.8397L158.581 14.0359C158.632 14.062 158.631 14.1357 158.579 14.1604Z" fill="#34C5A5"/>
<path d="M29.8788 27.1996L29.4887 27.3859L29.4501 27.4378L29.3824 27.8646C29.3733 27.9214 29.3029 27.9433 29.2633 27.9016L28.9657 27.5881L28.9045 27.5676L28.4774 27.6351C28.4206 27.6439 28.3781 27.584 28.4055 27.5332L28.6116 27.1533L28.6124 27.0886L28.4162 26.7035C28.3901 26.6522 28.4341 26.593 28.4907 26.6034L28.9157 26.6821L28.9774 26.6629L29.2834 26.3575C29.324 26.3166 29.3938 26.3403 29.4014 26.3973L29.4579 26.826L29.4952 26.8786L29.8803 27.0751C29.9317 27.1011 29.9306 27.1749 29.8788 27.1996Z" fill="#34C5A5"/>
<path d="M143.209 18.7675L143.007 19.7753C142.997 19.8288 143.013 19.884 143.051 19.9228L143.767 20.66C143.863 20.7582 143.804 20.9234 143.668 20.9393L142.647 21.0594C142.593 21.0657 142.546 21.0983 142.52 21.1465L142.04 22.0554C141.977 22.1765 141.801 22.1718 141.744 22.0475L141.314 21.1136C141.292 21.0644 141.246 21.0292 141.193 21.0198L140.18 20.8445C140.045 20.8213 139.995 20.6532 140.096 20.5602L140.851 19.8632C140.891 19.8262 140.91 19.772 140.903 19.7183L140.757 18.7007C140.737 18.5652 140.881 18.4662 141.001 18.5332L141.897 19.0361C141.945 19.0627 142.002 19.0642 142.051 19.0403L142.974 18.5869C143.097 18.5264 143.235 18.633 143.209 18.7675Z" fill="#34C5A5"/>
<path d="M91.3967 25.9708L91.7148 51.6073C91.7695 55.9667 90.958 62.3816 84.0613 62.153C78.0929 61.5034 76.5092 55.853 76.4627 51.7845C76.4409 49.8546 76.4185 48.2455 76.4032 48.0476C76.4032 48.0476 69.8694 47.5146 69.3181 41.0609C69.0513 37.9424 69.0254 31.474 69.0696 25.6221C69.1173 19.3374 73.9915 14.1458 80.2597 13.6882L80.8822 13.6429C87.6316 13.5445 91.4857 19.2214 91.3967 25.9708Z" fill="#F9B299"/>
<path d="M76.4033 48.0471C76.4033 48.0471 80.4924 47.9882 84.6322 44.9463C84.6322 44.9463 82.9248 49.814 76.4375 49.7033L76.4033 48.0471Z" fill="#F79570"/>
<path d="M80.1038 28.2668C80.2316 28.3975 80.9772 27.7974 82.0579 27.7685C83.1381 27.7232 83.9467 28.2697 84.0604 28.1307C84.1163 28.0689 83.9832 27.8298 83.6304 27.5824C83.2835 27.3362 82.6963 27.1036 82.0226 27.1266C81.3494 27.1507 80.7905 27.421 80.4719 27.6914C80.1462 27.9623 80.0408 28.2085 80.1038 28.2668Z" fill="#2C343A"/>
<path d="M81.2057 30.2993C81.2228 30.761 81.6285 31.1273 82.1115 31.1179C82.5932 31.1085 82.9708 30.7274 82.9531 30.2657C82.936 29.804 82.5302 29.437 82.0485 29.4465C81.5655 29.4553 81.188 29.8375 81.2057 30.2993Z" fill="#2C343A"/>
<path d="M77.3948 35.7884C77.3959 35.7312 76.771 35.6694 75.7616 35.6152C75.506 35.607 75.2627 35.5746 75.2074 35.4044C75.1344 35.2259 75.2203 34.945 75.3216 34.6411C75.5154 34.0103 75.7174 33.3489 75.9306 32.6563C76.7705 29.8323 77.3588 27.5177 77.2452 27.4847C77.1309 27.4517 76.3576 29.7139 75.5178 32.5385C75.3163 33.2341 75.1238 33.8978 74.9412 34.5321C74.8664 34.8272 74.725 35.1658 74.8823 35.5369C74.9641 35.7212 75.1603 35.8449 75.3258 35.8767C75.4924 35.9144 75.635 35.9067 75.761 35.905C76.7711 35.8861 77.3953 35.8449 77.3948 35.7884Z" fill="#2C343A"/>
<path d="M80.5632 23.6658C80.668 23.9055 81.5332 23.7253 82.5703 23.7783C83.6074 23.8095 84.4585 24.0604 84.5786 23.8289C84.6316 23.7188 84.4703 23.498 84.1181 23.2842C83.7688 23.071 83.2229 22.8831 82.6009 22.8572C81.979 22.833 81.4219 22.975 81.0591 23.1599C80.6939 23.3442 80.5178 23.5515 80.5632 23.6658Z" fill="#2C343A"/>
<path d="M70.295 26.2055C70.408 26.401 71.252 26.1837 72.2744 26.1519C73.2969 26.1019 74.1455 26.2515 74.2533 26.0471C74.301 25.9499 74.132 25.7744 73.7757 25.6189C73.4223 25.464 72.8769 25.3456 72.2638 25.3692C71.6507 25.3945 71.1089 25.5565 70.7597 25.7397C70.4086 25.9234 70.2449 26.1119 70.295 26.2055Z" fill="#2C343A"/>
<path d="M91.2188 30.7918C91.3248 30.7365 95.5611 29.1551 95.7419 33.5817C95.9233 38.0082 91.4426 37.2768 91.4296 37.1507C91.4166 37.0235 91.2188 30.7918 91.2188 30.7918Z" fill="#F9B299"/>
<path d="M92.7133 35.4183C92.7321 35.4035 92.7928 35.4695 92.9253 35.5237C93.0549 35.5767 93.2751 35.6073 93.5025 35.5119C93.9624 35.3211 94.3258 34.5625 94.3146 33.7639C94.3099 33.3605 94.2092 32.9806 94.0537 32.6684C93.9053 32.3504 93.6868 32.1331 93.4495 32.1001C93.2127 32.0559 93.0519 32.2038 93.003 32.3304C92.9489 32.4564 92.9806 32.5436 92.9577 32.5524C92.9453 32.5636 92.8593 32.4823 92.8876 32.298C92.9023 32.2091 92.9494 32.1025 93.0502 32.0135C93.1532 31.9228 93.3075 31.8722 93.4718 31.8834C93.8146 31.8928 94.1344 32.1943 94.3058 32.5365C94.4954 32.8799 94.6174 33.3063 94.6238 33.7592C94.6321 34.6526 94.2092 35.506 93.5773 35.7169C93.2686 35.8111 93.0054 35.728 92.867 35.6285C92.725 35.5249 92.698 35.4271 92.7133 35.4183Z" fill="#F79570"/>
<path d="M78.4394 38.853C78.3911 38.7411 79.2587 38.4814 79.8682 37.6681C80.1727 37.2676 80.3488 36.8312 80.4807 36.5125C80.6097 36.191 80.7075 35.989 80.7552 36.0037C80.8 36.0178 80.7894 36.2357 80.7181 36.5856C80.6439 36.9307 80.4931 37.4248 80.1486 37.8801C79.8087 38.3395 79.3523 38.6139 79.0178 38.7458C78.6797 38.8825 78.4512 38.8913 78.4394 38.853Z" fill="#2C343A"/>
<path d="M60.4999 19.829C60.57 19.5693 60.759 19.3555 60.9905 19.2183C61.4958 18.9203 62.0783 18.9597 62.6407 18.9509C64.3534 18.9238 66.0531 18.4008 67.4937 17.4756C68.1686 16.5026 68.9284 15.5886 69.7523 14.7387C71.7088 12.7216 73.3184 11.3487 74.9834 10.6785C77.1372 9.81156 80.7386 9.45995 82.9837 10.0495C85.2294 10.6384 87.2465 12.4601 87.5581 14.7605C88.8178 13.6963 90.7078 13.7051 92.242 14.3217L92.2803 14.3053C93.9882 14.9136 94.9588 16.7182 95.463 18.4603C95.9665 20.2018 96.1815 22.0647 97.1044 23.626C97.2964 23.9523 97.5261 24.3433 97.3571 24.6832C97.2275 24.9458 96.8936 25.0542 96.6032 25.0118C96.3134 24.9688 96.0566 24.8086 95.8087 24.652C95.9989 25.1078 96.1892 25.5642 96.38 26.0201C95.7622 26.1279 95.1226 26.0784 94.5218 25.8964C94.159 27.5255 93.7262 29.3854 93.3074 30.4896C92.593 30.4879 91.9393 30.5385 91.4993 30.9343C90.901 31.472 90.6336 32.4844 89.6394 32.0998C89.1335 31.9043 88.6718 30.843 88.5022 30.3277C87.3784 26.9071 87.0056 23.2432 87.4114 19.6665C86.7041 18.912 85.8501 18.2954 84.9119 17.8619L84.9885 17.9303C83.1845 17.3042 81.1444 16.6876 79.4329 17.5345C78.106 18.1917 77.325 19.5687 76.3327 20.6683C74.4521 22.7508 71.9149 23.8828 69.1109 24.0035C69.0155 25.821 69.1681 28.3894 69.0732 30.2069L67.5443 27.2958L67.5425 27.3105C67.4177 27.0973 67.314 26.8823 67.2139 26.6668L67.1798 26.6014V26.5937C67.0207 26.248 66.8694 25.9017 66.6691 25.5595L66.6515 25.5754C65.6667 26.4441 64.2162 25.1155 64.9924 24.0571C65.1467 23.8469 65.331 23.6596 65.5413 23.5053C65.0913 23.9281 64.4205 24.1301 63.8304 23.9493C63.2403 23.7674 62.7826 23.1707 62.8339 22.5553C62.8686 22.1354 63.169 21.7602 63.5483 21.5941C62.7526 21.6554 61.9393 21.4822 61.2461 21.0864C60.792 20.8273 60.3456 20.4009 60.4999 19.829Z" fill="#2C343A"/>
<path d="M85.5268 15.502C85.5138 15.5184 85.7971 15.6727 86.1741 16.0944C86.548 16.5138 86.9668 17.2441 87.1653 18.2376C87.2666 18.7318 87.3308 19.2842 87.3302 19.8779C87.3331 20.4727 87.2848 21.1094 87.2395 21.7802C87.1959 22.451 87.1482 23.1601 87.1912 23.8975C87.2124 24.2656 87.2571 24.6395 87.3366 25.0141C87.4179 25.3822 87.5145 25.7809 87.7919 26.0972C88.0133 26.3552 88.3832 26.4694 88.7036 26.404C89.0258 26.3463 89.3126 26.1749 89.5228 25.9405C89.9386 25.4558 90.0423 24.841 90.1448 24.2991L90.0099 24.3156C90.2308 24.8027 90.4587 25.2838 90.795 25.6678C91.126 26.0548 91.5848 26.3104 92.0512 26.3522C92.2827 26.3728 92.5171 26.3357 92.7167 26.235C92.9199 26.1361 93.0677 25.9676 93.1684 25.7898C93.265 25.6084 93.3157 25.4099 93.3063 25.2173C93.2951 25.0259 93.2203 24.8445 93.0984 24.7155L93.03 24.7768C93.5283 25.3433 94.0536 25.6484 94.4164 25.8169C94.6002 25.9011 94.7474 25.9517 94.847 25.9841C94.9471 26.0136 94.9995 26.0259 95.0007 26.0224C95.0018 26.0177 94.9524 25.9977 94.8546 25.96C94.7586 25.9205 94.6161 25.8634 94.4382 25.7727C94.086 25.5925 93.5772 25.2797 93.0995 24.7167L93.0312 24.7779C93.2485 25.0082 93.2609 25.4122 93.0742 25.7373C92.98 25.8975 92.8439 26.0477 92.6655 26.1314C92.4876 26.2185 92.2744 26.2515 92.0618 26.2297C91.6342 26.1873 91.206 25.9476 90.8963 25.5801C90.5788 25.2126 90.3585 24.7444 90.14 24.2567L90.047 24.0494L90.0046 24.2726C89.9009 24.8139 89.7908 25.4046 89.4121 25.841C89.2236 26.0513 88.961 26.2061 88.6783 26.2556C88.3956 26.3098 88.097 26.2167 87.9038 25.9959C87.6612 25.722 87.5622 25.3445 87.4833 24.9823C87.405 24.6172 87.3608 24.2508 87.3384 23.8886C87.2942 23.1636 87.3384 22.4598 87.3785 21.7896C87.4197 21.1182 87.4633 20.4792 87.4556 19.8767C87.4503 19.2748 87.3796 18.7153 87.2695 18.2147C87.0545 17.2081 86.6116 16.469 86.2176 16.055C85.8207 15.638 85.5268 15.502 85.5268 15.502Z" fill="#335863"/>
<path d="M65.5557 21.7833L65.6075 21.8275C65.6511 21.8593 65.7041 21.8981 65.7689 21.9453C65.8389 21.9983 65.9291 22.0595 66.0421 22.1208C66.154 22.1844 66.2807 22.2621 66.435 22.3275C67.0345 22.6125 67.9963 22.8952 69.1983 22.8246C70.3886 22.7574 71.818 22.3357 73.0942 21.3858C74.3841 20.4582 75.516 19.0918 76.4418 17.5275C76.9112 16.746 77.2941 15.9444 77.7158 15.2041C78.1351 14.4638 78.5974 13.7794 79.1587 13.2388C79.7123 12.6958 80.3554 12.2941 81.0186 12.1098C81.349 12.012 81.6817 11.9896 81.9992 11.9973C82.3178 12.0138 82.6199 12.0786 82.8973 12.1698C83.4545 12.3559 83.9033 12.6634 84.2437 12.9802C84.5853 13.2994 84.815 13.6357 84.9722 13.9249C85.2655 14.5186 85.282 14.899 85.3056 14.8932L85.3003 14.8254C85.292 14.7718 85.282 14.707 85.2696 14.6275C85.2378 14.4544 85.1636 14.2041 85.0246 13.8984C84.8727 13.6004 84.6459 13.2512 84.302 12.919C83.9592 12.5892 83.5034 12.2676 82.9321 12.0685C82.647 11.9714 82.3361 11.9013 82.0057 11.8807C81.677 11.8695 81.3272 11.8901 80.985 11.9896C80.2965 12.1751 79.631 12.5862 79.0615 13.1393C78.4849 13.6899 78.0114 14.3861 77.5874 15.1311C77.1604 15.8767 76.7775 16.6759 76.3117 17.4504C75.3935 19.0029 74.278 20.3545 73.013 21.2733C71.7603 22.2144 70.3645 22.6373 69.1913 22.718C68.0092 22.801 67.0593 22.5389 66.4591 22.2739C65.8548 22.0042 65.5674 21.765 65.5557 21.7833Z" fill="#335863"/>
<path d="M64.9675 18.9463C64.9628 18.9557 65.0446 19.0122 65.1989 19.1076C65.3521 19.206 65.5865 19.3273 65.8851 19.4563C66.1825 19.5876 66.5518 19.7101 66.9705 19.8126C67.3904 19.9074 67.861 19.9781 68.3581 19.9964C68.8563 20.0099 69.3304 19.9699 69.7557 19.9015C70.1797 19.8262 70.556 19.7278 70.8617 19.6153C71.168 19.5058 71.4094 19.4003 71.5679 19.312C71.7281 19.226 71.814 19.1754 71.8093 19.1659C71.797 19.1406 71.4406 19.3238 70.8287 19.514C70.5236 19.6118 70.1508 19.6978 69.7339 19.7643C69.3151 19.8232 68.851 19.8586 68.3634 19.8456C67.8757 19.8273 67.4146 19.7626 67.0011 19.6772C66.5889 19.5835 66.2231 19.474 65.9245 19.3574C65.3261 19.1283 64.9816 18.9221 64.9675 18.9463Z" fill="#335863"/>
<path d="M70.2463 28.674C70.3747 28.8048 71.1197 28.2052 72.201 28.1758C73.2806 28.131 74.0898 28.6775 74.2029 28.5385C74.2588 28.4761 74.1257 28.2376 73.773 27.9902C73.4261 27.7435 72.8389 27.5108 72.1657 27.5338C71.4925 27.5579 70.9324 27.8283 70.6144 28.0986C70.2893 28.3695 70.1833 28.6157 70.2463 28.674Z" fill="#2C343A"/>
<path d="M71.8107 30.4897C71.8277 30.952 72.2329 31.3177 72.7159 31.3089C73.1976 31.2995 73.5752 30.9184 73.5581 30.4561C73.541 29.9944 73.1352 29.628 72.6529 29.6369C72.1705 29.6457 71.793 30.0279 71.8107 30.4897Z" fill="#2C343A"/>
<path d="M134.496 51.2375C134.404 51.1976 130.792 50.1378 130.906 53.8247C131.02 57.5115 134.698 56.6363 134.701 56.5305C134.704 56.4244 134.496 51.2375 134.496 51.2375Z" fill="#C4C4C4"/>
<path d="M133.532 55.169C133.515 55.1578 133.469 55.2162 133.362 55.2694C133.257 55.321 133.076 55.36 132.882 55.2941C132.488 55.1631 132.141 54.5549 132.102 53.8909C132.083 53.5558 132.143 53.234 132.253 52.9659C132.358 52.6926 132.526 52.499 132.721 52.4578C132.915 52.4067 133.058 52.5198 133.106 52.6222C133.159 52.7236 133.137 52.7981 133.157 52.8038C133.168 52.8127 133.235 52.7397 133.2 52.5883C133.182 52.5154 133.137 52.4296 133.048 52.3616C132.957 52.2926 132.826 52.2597 132.69 52.2788C132.406 52.3074 132.158 52.5769 132.036 52.8713C131.899 53.1676 131.823 53.5293 131.846 53.9058C131.892 54.6479 132.294 55.3314 132.832 55.469C133.093 55.5284 133.307 55.4437 133.416 55.353C133.528 55.2584 133.544 55.1753 133.532 55.169Z" fill="#495560"/>
<path d="M59.043 81.4521L73.7664 119.84L63.1101 119.857L50.3931 88.5535L59.043 81.4521Z" fill="#C4C4C4"/>
<path d="M84.8134 63.2748C84.8127 63.3124 84.1318 63.3296 83.293 63.3137C82.4537 63.2975 81.7741 63.254 81.7749 63.2167C81.7757 63.1792 82.4563 63.1617 83.2956 63.1779C84.1344 63.1941 84.814 63.2373 84.8134 63.2748Z" fill="#2C343A"/>
<path d="M36.605 62.0977C36.605 62.0977 37.6142 67.8241 38.5705 69.0404C39.527 70.2571 40.1467 74.0458 40.1467 74.0458L47.9712 71.2287L47.4461 68.3541L47.9219 61.1031C47.9219 61.1031 45.2448 56.6346 45.3482 56.787C45.4517 56.9395 36.605 62.0977 36.605 62.0977Z" fill="#FAB499"/>
<path d="M36.6122 62.1013C36.6456 62.2894 37.6423 67.8501 38.5757 69.0367C39.0705 69.6662 39.4731 70.9946 39.7235 71.9984C39.982 73.0331 40.1362 73.9443 40.1516 74.0376L47.9636 71.2247L47.4396 68.3558L47.9151 61.1054C47.8851 61.0554 47.2504 59.9959 46.6248 58.9489C46.2503 58.3222 45.952 57.8227 45.7388 57.4641C45.6119 57.2513 45.5142 57.0866 45.4477 56.9743C45.3907 56.8771 45.3625 56.8291 45.3495 56.8052C45.0986 57.1502 37.0151 61.8665 36.6122 62.1013ZM40.1414 74.0551L40.1401 74.0473C40.1339 74.0095 39.5101 70.2463 38.5655 69.045C38.0704 68.4158 37.562 66.5605 37.2228 65.1148C36.8551 63.549 36.601 62.1135 36.5984 62.099L36.5977 62.0948L36.6016 62.0924C36.6235 62.0797 38.8172 60.8003 40.9805 59.513C44.7609 57.2635 45.3391 56.8409 45.3425 56.7916L45.3417 56.7895L45.3407 56.7882L45.3409 56.788L45.3417 56.7783L45.3534 56.7838L45.3555 56.7898C45.4709 56.9998 47.9023 61.0585 47.9274 61.1002L47.9284 61.102L47.9281 61.1041L47.4523 68.355L47.9784 71.2333L47.9732 71.2354L40.1414 74.0551Z" fill="#F69270"/>
<path d="M62.3753 59.6797C62.3753 59.6797 58.3336 60.9192 57.7095 65.1739C57.4205 67.142 54.4706 85.2888 54.4706 85.2888L49.9001 72.3125L37.8989 76.7634C37.8989 76.7634 42.2687 90.2097 42.5392 90.999C44.7851 97.5545 46.655 106.792 56.8629 105.761C67.4846 104.69 65.4889 84.0552 65.4889 84.0552L62.3753 59.6797Z" fill="#34C5A5"/>
<path d="M45.1318 52.5168C45.2071 52.5632 46.2622 53.6096 47.2782 54.4156C48.2941 55.2218 48.6102 55.2828 48.8914 56.509C49.1728 57.7353 49.6343 61.6931 49.5165 62.5778C49.3987 63.4624 46.375 69.2065 46.375 69.2065C46.375 69.2065 43.4936 70.2602 43.2961 66.4332C43.0986 62.6062 46.4115 60.1891 46.4115 60.1891L45.9683 57.2449C45.9683 57.2449 44.3624 55.7117 44.1813 54.4833C44.0004 53.255 44.5552 52.1629 45.1318 52.5168Z" fill="#FAB499"/>
<path d="M38.7294 60.0384C37.4696 59.4034 36.9039 60.0994 36.6847 60.5043C36.4653 60.909 36.4458 61.4242 36.5617 61.8627C36.6777 62.3013 36.9153 62.6731 37.1798 63.0006C37.5454 63.4532 38.0032 63.853 38.5444 63.8905C39.0856 63.928 39.7431 63.2503 39.8116 62.604" fill="#FAB499"/>
<path d="M39.8114 62.6043C39.8161 62.6048 39.8158 62.6353 39.8109 62.6939C39.8051 62.7523 39.789 62.8383 39.7517 62.9441C39.6785 63.1539 39.517 63.4512 39.198 63.7055C39.0372 63.8238 38.8324 63.947 38.5768 63.9465C38.3313 63.9426 38.0794 63.8561 37.8516 63.7138C37.6234 63.5713 37.4173 63.3787 37.2283 63.1622C37.0405 62.9454 36.8615 62.7059 36.7161 62.4347C36.4211 61.8945 36.346 61.2624 36.5152 60.7472C36.684 60.2341 37.0819 59.8566 37.49 59.774C37.8957 59.6856 38.2222 59.8013 38.4241 59.8798C38.5291 59.9173 38.6029 59.9634 38.6547 59.9897C38.7058 60.0179 38.7313 60.0345 38.7292 60.0387C38.7238 60.0504 38.6133 59.9973 38.4064 59.9293C38.2031 59.8667 37.8829 59.7732 37.5131 59.867C37.1447 59.9519 36.7854 60.3076 36.6342 60.785C36.4841 61.2657 36.555 61.8565 36.8359 62.3708C36.9743 62.6296 37.1476 62.8633 37.3289 63.0752C37.5103 63.2862 37.7062 63.4717 37.9183 63.608C38.1291 63.744 38.361 63.8261 38.5789 63.8339C38.7926 63.8405 38.9869 63.7355 39.1404 63.6286C39.4482 63.3991 39.6178 63.121 39.7025 62.9248C39.7877 62.7255 39.7986 62.6022 39.8114 62.6043Z" fill="#F69270"/>
<path d="M40.3752 57.5458C40.0297 57.4299 39.6693 57.3343 39.3045 57.3869C38.9395 57.4398 38.5655 57.6655 38.379 58.0519C38.2211 58.3797 38.2169 58.7703 38.2458 59.134C38.379 60.816 39.1523 62.362 40.3025 63.287C40.6298 63.5502 41.0759 63.5729 41.4318 63.3126C41.6622 63.1443 41.8839 62.9024 42.0614 61.8932" fill="#FAB499"/>
<path d="M42.0613 61.8938C42.0657 61.8946 42.0633 61.9331 42.0542 62.0056C42.0451 62.0783 42.0284 62.1851 41.9995 62.3214C41.9703 62.4574 41.931 62.6242 41.8572 62.8107C41.7866 62.9944 41.6647 63.211 41.4502 63.3585C41.2444 63.5125 40.9405 63.6021 40.638 63.5205C40.489 63.4825 40.3415 63.4028 40.2221 63.2975C40.0999 63.1985 39.9806 63.0896 39.862 62.9731C39.3938 62.5035 38.9763 61.8909 38.678 61.1871C38.3757 60.4836 38.2295 59.7607 38.1806 59.102C38.1579 58.7726 38.1699 58.4461 38.2738 58.159C38.3757 57.87 38.5824 57.6504 38.8023 57.5201C39.0238 57.388 39.2593 57.3371 39.46 57.3361C39.6622 57.3332 39.8326 57.3671 39.9678 57.4015C40.1033 57.4364 40.2052 57.4729 40.2735 57.499C40.342 57.5253 40.3767 57.5422 40.3751 57.5464C40.3717 57.5576 40.2253 57.5086 39.9561 57.4528C39.6955 57.4044 39.2661 57.3418 38.8526 57.6019C38.6517 57.7283 38.4687 57.9313 38.3799 58.1965C38.2884 58.4618 38.2796 58.7716 38.3054 59.0931C38.3604 59.7386 38.5071 60.4458 38.8028 61.1342C39.0949 61.8229 39.4991 62.4225 39.9509 62.8853C40.0653 62.9997 40.1802 63.1075 40.2982 63.2055C40.4103 63.3069 40.5346 63.3746 40.6669 63.4119C40.9327 63.488 41.2029 63.4158 41.3945 63.2803C41.5961 63.1484 41.7105 62.9582 41.7874 62.7813C41.8651 62.6041 41.9117 62.4415 41.9482 62.3089C42.0196 62.0423 42.0503 61.8917 42.0613 61.8938Z" fill="#F69270"/>
<path d="M42.6607 56.2685C42.2829 55.9193 41.7899 55.708 41.2992 55.8098C40.8086 55.9115 40.3406 56.3753 40.2535 56.9582C40.2022 57.3037 40.2814 57.6466 40.3679 57.9721C40.6853 59.1694 41.1056 60.3217 41.6205 61.4059C41.7471 61.6727 41.8868 61.9445 42.1047 62.1079C42.4551 62.3703 42.9497 62.2861 43.3137 61.9964C43.6777 61.7063 43.9268 61.2876 44.0764 60.4355" fill="#FAB499"/>
<path d="M44.076 60.4355C44.0807 60.4362 44.0776 60.4774 44.0672 60.5556C44.0567 60.6335 44.0367 60.7482 44.0023 60.8941C43.9671 61.0397 43.915 61.2172 43.8241 61.4124C43.7336 61.6067 43.5953 61.8196 43.3863 61.9979C43.1815 62.1764 42.8933 62.3283 42.5577 62.3207C42.3917 62.3168 42.2176 62.2639 42.072 62.1579C41.9271 62.0513 41.8174 61.9038 41.7264 61.7488C41.3908 61.1179 41.0917 60.4047 40.8137 59.6368C40.6758 59.253 40.5547 58.8736 40.4473 58.5044C40.3446 58.1341 40.2334 57.7807 40.1888 57.4201C40.1414 57.0613 40.2159 56.6968 40.3897 56.4213C40.5612 56.1444 40.8051 55.944 41.0599 55.8369C41.3171 55.728 41.5779 55.7269 41.7898 55.7686C42.0034 55.8106 42.1731 55.8942 42.3021 55.9716C42.4308 56.0508 42.5212 56.1253 42.5788 56.1793C42.6366 56.2335 42.6632 56.2653 42.6603 56.2684C42.6517 56.2788 42.5337 56.1595 42.2757 56.0175C42.1468 55.9492 41.98 55.876 41.7762 55.8431C41.5745 55.8106 41.3317 55.8194 41.0979 55.925C40.8647 56.0292 40.6406 56.2204 40.4861 56.4794C40.3298 56.7385 40.2657 57.0657 40.3131 57.4058C40.3577 57.7451 40.471 58.1002 40.5747 58.4671C40.6834 58.8332 40.8045 59.21 40.9416 59.5909C41.216 60.3508 41.5149 61.0705 41.8346 61.686C41.9195 61.8342 42.0191 61.9684 42.1431 62.062C42.2669 62.1542 42.4149 62.2021 42.5618 62.2081C42.8586 62.2201 43.1289 62.088 43.3243 61.9246C43.7287 61.5898 43.8626 61.1552 43.9512 60.88C44.0343 60.596 44.0648 60.4331 44.076 60.4355Z" fill="#F69270"/>
<path d="M45.4646 56.6042C45.685 57.2087 45.877 57.8398 45.938 58.4902C45.999 59.1409 45.8958 59.8343 45.5404 60.3124C45.185 60.7908 44.5432 60.9844 44.0674 60.6449C43.7719 60.4341 43.5814 60.0641 43.4274 59.6969C43.1379 59.0075 42.9326 58.2755 42.7413 57.5423C42.6441 57.1691 42.5495 56.7897 42.5388 56.4028C42.5282 56.0161 42.5649 55.651 42.7022 55.3128C42.8429 54.9657 43.5814 54.375 44.2612 54.8633C44.2612 54.8633 45.0177 55.3793 45.4646 56.6042Z" fill="#FAB499"/>
<path d="M45.4649 56.6045C45.4527 56.6095 45.3816 56.4075 45.2002 56.0706C45.1082 55.9033 44.9871 55.7027 44.82 55.4893C44.6525 55.2813 44.4461 55.0372 44.1662 54.8613C43.8885 54.6818 43.483 54.6862 43.1584 54.9056C42.9984 55.0088 42.8399 55.1547 42.7599 55.3311C42.6818 55.5239 42.6346 55.7371 42.6148 55.9586C42.5697 56.4052 42.632 56.8721 42.7605 57.3479C42.884 57.8258 43.0156 58.3206 43.1766 58.8173C43.3428 59.3095 43.5101 59.801 43.7618 60.2108C43.8903 60.4117 44.0537 60.5892 44.2569 60.678C44.4589 60.7679 44.69 60.7739 44.894 60.707C45.3151 60.5803 45.5895 60.2147 45.7268 59.8507C45.8709 59.4825 45.9074 59.1055 45.9058 58.7675C45.8894 58.0867 45.7336 57.5454 45.6322 57.1778C45.5801 57.0055 45.5376 56.8653 45.5043 56.7543C45.4746 56.6577 45.4605 56.6061 45.4649 56.6045C45.4694 56.603 45.492 56.6514 45.5301 56.7455C45.5681 56.8393 45.621 56.9792 45.6825 57.1621C45.8 57.5277 45.9723 58.0676 46.0017 58.7657C46.0095 59.1125 45.9785 59.5018 45.8318 59.8911C45.7591 60.0855 45.6549 60.2773 45.5069 60.4477C45.3565 60.6147 45.1611 60.7541 44.9313 60.8263C44.7043 60.9027 44.4385 60.8995 44.2043 60.7964C43.9669 60.6934 43.7871 60.4954 43.6501 60.2828C43.3817 59.8479 43.217 59.3585 43.0473 58.8593C42.8848 58.3571 42.7539 57.861 42.6315 57.3802C42.5713 57.1392 42.5186 56.8982 42.4926 56.6569C42.4665 56.4146 42.4689 56.1777 42.4902 55.9466C42.5129 55.7154 42.564 55.4911 42.6497 55.2852C42.7524 55.0687 42.9218 54.9238 43.0984 54.8105C43.2767 54.6982 43.4781 54.6317 43.6766 54.6283C43.8754 54.6223 44.0649 54.6836 44.2158 54.7789C44.5157 54.9765 44.7127 55.225 44.8805 55.4434C45.0449 55.6654 45.1611 55.8731 45.2471 56.0464C45.3334 56.2194 45.3883 56.3596 45.4212 56.4557C45.4543 56.5519 45.4694 56.603 45.4649 56.6045Z" fill="#F69270"/>
<path d="M45.9683 57.2451C45.9748 57.2441 45.9923 57.3176 46.0191 57.4557C46.0475 57.6141 46.0832 57.8129 46.1262 58.0542C46.2138 58.5941 46.3318 59.3219 46.471 60.1802L46.4788 60.2284L46.4319 60.2461C46.0913 60.3741 45.7424 60.563 45.4216 60.8238C45.0998 61.0831 44.8062 61.4083 44.5445 61.7728C43.5945 62.9751 43.4165 64.3856 43.3493 65.3594C43.3225 65.8518 43.3433 66.2516 43.3741 66.5257C43.404 66.8001 43.446 66.9481 43.4322 66.9515C43.4277 66.9528 43.4147 66.9165 43.3936 66.8462C43.3704 66.7761 43.3464 66.6706 43.3219 66.5332C43.2743 66.2581 43.2386 65.8539 43.2534 65.3549C43.2727 64.857 43.3316 64.2626 43.4937 63.6203C43.5765 63.3003 43.6823 62.9663 43.8499 62.6413C44.0187 62.3229 44.2123 62.0055 44.4343 61.6936C44.7014 61.3215 45.0047 60.9872 45.3393 60.7209C45.6726 60.4533 46.0371 60.2605 46.391 60.1325L46.3519 60.1982C46.2323 59.3367 46.1309 58.6066 46.0556 58.0649C46.0259 57.8215 46.0014 57.6211 45.9819 57.4614C45.9668 57.3215 45.9621 57.2462 45.9683 57.2451Z" fill="#F69270"/>
<path d="M56.1341 95.0014C56.1247 95.0027 56.094 94.8682 56.046 94.6233C55.9957 94.3536 55.9306 94.0047 55.8524 93.5854C55.6901 92.6836 55.4743 91.4837 55.2356 90.1574C54.9975 88.8175 54.7929 87.6024 54.6577 86.7209C54.5899 86.28 54.5381 85.923 54.5065 85.6755C54.4748 85.428 54.4615 85.2906 54.4706 85.2891C54.48 85.2875 54.5107 85.4222 54.5587 85.6669C54.609 85.9369 54.6741 86.2858 54.7523 86.705C54.9143 87.6066 55.1304 88.8068 55.369 90.1336C55.6072 91.473 55.8118 92.6878 55.947 93.5696C56.0147 94.0102 56.0663 94.3674 56.0981 94.615C56.1299 94.8623 56.1432 94.9998 56.1341 95.0014Z" fill="#2C343A"/>
<path d="M38.5196 76.5336L37.3491 72.5494L48.2205 69.0986L49.2135 72.5272L38.5196 76.5336Z" fill="#335863"/>
<path d="M56.9615 98.3942C56.9584 98.3942 56.9553 98.3942 56.9522 98.3939C56.6231 98.3861 56.4928 97.9702 56.4542 97.6435C56.0571 94.2956 55.2446 90.5858 54.7209 87.1278C54.853 87.9598 55.032 89.0128 55.2352 90.1569C55.4739 91.4833 55.6897 92.6832 55.852 93.585C55.9302 94.0043 55.9953 94.3532 56.0456 94.6229C56.0933 94.8665 56.1241 95.001 56.1334 95.001C56.1426 94.9994 56.1295 94.8618 56.0977 94.6146C56.066 94.367 56.0144 94.0098 55.9466 93.5691C55.8114 92.6874 55.6068 91.4726 55.3687 90.1332C55.13 88.8064 54.914 87.6062 54.7519 86.7046C54.6737 86.2854 54.6086 85.9364 54.5583 85.6665C54.5197 85.469 54.4921 85.3434 54.478 85.3027C56.4824 88.9706 57.3889 93.3685 57.4358 97.5476C57.4397 97.9092 57.319 98.3942 56.9615 98.3942Z" fill="#20A789"/>
<path d="M56.1334 95.0014C56.1241 95.0014 56.0933 94.8669 56.0456 94.6233C55.9953 94.3536 55.9302 94.0047 55.852 93.5854C55.6897 92.6836 55.4739 91.4837 55.2353 90.1573C55.032 89.0132 54.853 87.9602 54.7209 87.1282C54.6266 86.5057 54.5416 85.8915 54.4702 85.2891C54.4728 85.2938 54.4754 85.2984 54.478 85.3031C54.4921 85.3438 54.5197 85.4694 54.5583 85.6669C54.6086 85.9368 54.6737 86.2858 54.7519 86.705C54.914 87.6066 55.13 88.8068 55.3687 90.1336C55.6068 91.473 55.8114 92.6878 55.9466 93.5695C56.0144 94.0102 56.066 94.3674 56.0977 94.615C56.1295 94.8622 56.1426 94.9998 56.1334 95.0014Z" fill="#335863"/>
<path d="M138.645 40.2699C138.647 40.2683 138.648 40.2665 138.649 40.2646L138.645 40.2699Z" fill="#929596"/>
<path d="M99.8869 77.947L93.9717 49.7856L91.6601 46.1162C87.4574 51.1028 82.5138 53.3909 76.3067 51.0757C76.3067 51.0757 75.1961 53.3419 75.199 53.6139L69.2988 57.6471L71.7185 88.6935L69.6308 98.2633L70.4407 119.673H103.499L99.8869 77.947Z" fill="#335863"/>
<path d="M73.5962 54.4795C73.2082 54.7382 62.1514 59.7819 62.1514 59.7819L65.0101 105.157L62.9003 119.741L72.1618 119.673C72.1618 119.673 73.5462 112.788 73.9342 101.148C74.3222 89.5072 73.5962 54.4795 73.5962 54.4795Z" fill="#34C5A5"/>
<path d="M93.387 48.7627C93.387 48.7627 92.039 97.3415 92.815 100.704C93.591 104.067 97.1996 119.673 97.1996 119.673H117.25L108.726 96.5481L110.302 73.2805L108.726 50.9648L98.8965 50.706L93.387 48.7627Z" fill="#34C5A5"/>
<path d="M61.9453 66.291C61.9476 66.2908 61.9526 66.3246 61.9604 66.3906C61.968 66.4635 61.9781 66.5607 61.9909 66.6847C62.0151 66.951 62.0495 67.331 62.0936 67.8164C62.1788 68.7995 62.2958 70.2228 62.4287 71.9822C62.561 73.7418 62.7109 75.8376 62.8498 78.1666C62.9183 79.3314 62.986 80.5542 63.0353 81.8232C63.0903 83.093 63.0991 84.4066 63.1794 85.7488C63.324 88.436 63.5489 90.9917 63.7654 93.314C63.9845 95.6365 64.2039 97.7257 64.3926 99.4796C64.5854 101.228 64.7418 102.645 64.8507 103.633C64.9041 104.118 64.9458 104.496 64.9752 104.762C64.9878 104.886 64.9974 104.983 65.0047 105.056C65.0107 105.123 65.0128 105.157 65.0104 105.157C65.0081 105.158 65.0016 105.124 64.9909 105.058C64.9805 104.986 64.9661 104.889 64.9481 104.766C64.9127 104.501 64.8627 104.123 64.7983 103.639C64.6725 102.661 64.4987 101.243 64.2972 99.4903C64.0963 97.7372 63.867 95.6484 63.6411 93.326C63.4173 91.0032 63.1885 88.447 63.0439 85.7558C62.9634 84.4107 62.9555 83.0946 62.9026 81.8284C62.855 80.5608 62.7901 79.3381 62.7249 78.1739C62.5928 75.8454 62.4532 73.7494 62.333 71.9892C62.21 70.2348 62.1105 68.8126 62.0409 67.8206C62.0078 67.3343 61.9818 66.9537 61.9638 66.6868C61.9565 66.5625 61.9508 66.4648 61.9466 66.3919C61.9435 66.3252 61.943 66.291 61.9453 66.291Z" fill="#335863"/>
<path d="M96.1331 49.7862C96.1346 49.7854 96.1445 49.8049 96.1628 49.8437C96.1826 49.8875 96.2086 49.9448 96.242 50.0183C96.3118 50.1786 96.4114 50.4074 96.5403 50.7031C96.796 51.3048 97.1618 52.191 97.5933 53.3299C98.4558 55.6068 99.5747 58.9049 100.528 62.949L100.54 63.0032L100.487 63.0196C99.9312 63.1905 99.3272 63.3763 98.7099 63.5663L98.7057 63.4467C99.1218 63.5444 99.5025 63.7854 99.7928 64.1085C100.082 64.433 100.297 64.8267 100.424 65.2517C100.678 66.1129 100.563 67.0395 100.372 67.9251C99.951 69.6944 99.514 71.5346 99.0656 73.4217C97.3505 80.5663 95.798 87.0332 94.6728 91.7204C94.1053 94.0562 93.6457 95.9482 93.3264 97.262C93.1657 97.9113 93.0403 98.4174 92.9538 98.7671C92.9108 98.9346 92.8775 99.0646 92.8535 99.1577C92.8303 99.2455 92.8149 99.2898 92.8149 99.2898C92.8149 99.2898 92.8212 99.2434 92.84 99.1545C92.8608 99.0605 92.8897 98.9297 92.9272 98.7608C93.008 98.4098 93.125 97.9017 93.2751 97.2497C93.5844 95.9336 94.0297 94.0382 94.5795 91.6982C95.6948 87.0087 97.2337 80.5384 98.9337 73.3901C99.3827 71.5044 99.8207 69.6655 100.242 67.8973C100.433 67.0191 100.543 66.1131 100.301 65.2887C100.18 64.8804 99.9729 64.5025 99.6988 64.1932C99.4231 63.8857 99.0663 63.6598 98.6778 63.5673L98.4553 63.5142L98.6737 63.4477C99.2912 63.2596 99.896 63.0754 100.452 62.9057L100.412 62.9761C99.4715 58.9356 98.3704 55.6365 97.5277 53.3547C97.1061 52.2129 96.7509 51.3233 96.5062 50.7172C96.3845 50.4188 96.2905 50.1877 96.2245 50.0259C96.1948 49.9506 96.1716 49.8922 96.1542 49.8477C96.1388 49.8075 96.1318 49.7867 96.1331 49.7862Z" fill="#335863"/>
<path d="M73.1703 100.705C73.1703 100.705 73.1622 100.662 73.1528 100.577C73.1437 100.487 73.1312 100.362 73.1153 100.202C73.0843 99.8657 73.0395 99.3805 72.9821 98.7585C72.8644 97.5052 72.6916 95.6919 72.4607 93.4528C72.0034 88.9746 71.2947 82.7961 70.558 75.9663C70.3642 74.1425 70.1789 72.3644 70.0142 70.656C69.9332 69.8076 69.8292 68.9472 70.0335 68.1298C70.1346 67.7238 70.3219 67.3431 70.5859 67.0297C70.8483 66.717 71.1995 66.4736 71.5935 66.3816L71.6162 66.503C70.9028 66.6 70.2159 66.6935 69.5509 66.7839L69.46 66.7964L69.4865 66.7086C70.5825 63.1145 71.4969 60.1154 72.1392 58.0086C72.462 56.9635 72.7163 56.1403 72.892 55.5718C72.9793 55.2958 73.047 55.0819 73.0947 54.931C73.1174 54.8625 73.1353 54.8088 73.1489 54.7674C73.1617 54.7309 73.1687 54.7124 73.1703 54.7129C73.1718 54.7134 73.1677 54.7327 73.158 54.77C73.1465 54.8122 73.1317 54.8666 73.1124 54.9365C73.0689 55.0884 73.0069 55.3039 72.9266 55.5824C72.7586 56.1528 72.5147 56.9794 72.2051 58.0284C71.574 60.1388 70.6758 63.1427 69.5994 66.7425L69.535 66.6672C70.1995 66.575 70.8863 66.4796 71.5995 66.3806L71.6222 66.5017C71.2584 66.5877 70.9306 66.8144 70.6826 67.1112C70.4329 67.4085 70.2544 67.7725 70.1586 68.1608C69.9626 68.9472 70.0629 69.7928 70.1463 70.6433C70.3219 72.35 70.5051 74.1279 70.693 75.9519C71.4294 82.7808 72.1233 88.9615 72.5561 93.4434C72.775 95.6838 72.9331 97.4989 73.0348 98.7539C73.0811 99.3769 73.1174 99.8631 73.1424 100.2C73.1528 100.361 73.1609 100.486 73.1666 100.576C73.1713 100.661 73.1703 100.705 73.1703 100.705Z" fill="#335863"/>
<path d="M98.9795 105.123C98.98 105.261 101.443 109.611 101.443 109.611L114.567 109.541L111.657 105.09L98.9795 105.123Z" fill="#34C5A5"/>
<path d="M98.9796 105.123C98.978 105.121 98.9976 105.12 99.0369 105.118C99.0828 105.117 99.1411 105.116 99.2144 105.114C99.3803 105.111 99.6125 105.108 99.9101 105.104C100.53 105.098 101.419 105.09 102.534 105.079C104.796 105.066 107.97 105.047 111.657 105.025L111.692 105.024L111.711 105.054C112.618 106.439 113.602 107.943 114.624 109.503L114.692 109.607L114.567 109.608C114.528 109.608 114.486 109.608 114.443 109.609C109.337 109.628 104.725 109.645 101.443 109.657H101.415L101.402 109.633C100.625 108.247 100.007 107.126 99.5896 106.348C99.3809 105.959 99.2214 105.656 99.1187 105.448C99.0661 105.344 99.0309 105.263 99.0062 105.209C98.9837 105.149 98.9791 105.12 98.9796 105.123C98.99 105.145 99.0012 105.167 99.0187 105.203C99.0497 105.261 99.0906 105.338 99.1427 105.435C99.2589 105.645 99.4241 105.943 99.6349 106.323C100.074 107.098 100.704 108.21 101.484 109.587L101.443 109.563C104.725 109.54 109.336 109.508 114.443 109.473C114.485 109.473 114.527 109.473 114.567 109.472L114.51 109.577C113.491 108.016 112.508 106.51 111.603 105.125L111.657 105.154C107.988 105.151 104.829 105.149 102.578 105.147C101.457 105.142 100.562 105.139 99.939 105.136C99.636 105.133 99.3991 105.131 99.23 105.13C99.1536 105.128 99.0929 105.127 99.045 105.126C99.003 105.125 98.9809 105.124 98.9796 105.123Z" fill="#335863"/>
<path d="M93.3872 97.1133C93.3872 97.1133 97.153 82.2171 99.1917 72.892C99.5961 71.19 99.9909 69.5288 100.372 67.9252C100.563 67.0396 100.678 66.113 100.424 65.2518C100.298 64.8268 100.082 64.4331 99.7931 64.1086C99.5503 63.8384 99.2441 63.6255 98.9069 63.5059C99.4554 63.3371 99.9906 63.1724 100.488 63.0197L100.541 63.0033L100.528 62.9491C99.8137 59.9173 99.0059 57.3048 98.2828 55.2275L101.727 63.1523L100.506 63.8918C100.506 63.8918 102.222 65.4889 100.901 71.1863C99.58 76.8835 93.3872 97.1133 93.3872 97.1133ZM100.087 68.5498C100.265 67.593 100.389 66.8251 100.44 66.3061C100.443 66.8306 100.357 67.3689 100.242 67.8974C100.191 68.1139 100.139 68.3312 100.087 68.5498ZM100.121 61.769L98.3123 55.5791C98.896 57.3147 99.5307 59.3988 100.121 61.769Z" fill="#20A789"/>
<path d="M99.1915 72.8918C99.5553 71.228 99.8641 69.7425 100.087 68.5496C100.139 68.3309 100.19 68.1136 100.242 67.8971C100.357 67.3686 100.443 66.8303 100.44 66.3058C100.47 66.0038 100.476 65.7859 100.454 65.6642C100.09 63.6104 98.692 63.5067 98.692 63.5067L100.47 62.9624L100.121 61.7687C99.5305 59.3985 98.8958 57.3144 98.3121 55.5788L98.0591 54.7129L98.2827 55.2273C99.0057 57.3045 99.8135 59.917 100.528 62.9488L100.541 63.003L100.487 63.0194C99.9904 63.1721 99.4552 63.3368 98.9067 63.5057C99.2439 63.6253 99.5501 63.8381 99.7929 64.1084C100.082 64.4328 100.297 64.8265 100.424 65.2515C100.678 66.1127 100.563 67.0393 100.372 67.925C99.9907 69.5285 99.5959 71.1897 99.1915 72.8918Z" fill="#335863"/>
<path d="M126.849 37.2275C126.849 37.2275 126.163 36.5667 124.947 37.203C124.947 37.203 123.676 37.8727 123.497 38.4319C123.318 38.9908 123.6 39.7519 123.836 40.3171C124.071 40.8823 125.471 42.9742 125.471 42.9742C125.471 42.9742 125.469 44.7325 126.648 46.5865C127.827 48.4405 129.804 48.4941 130.18 49.8332C130.556 51.1723 130.691 51.5746 130.472 52.4945C130.254 53.4145 129.879 54.9913 129.879 54.9913L137.59 58.9309C137.59 58.9309 138.084 53.3796 137.937 50.105C137.79 46.8304 137.785 43.5433 137.992 42.4817C138.198 41.4198 137.921 39.859 137.59 39.6946C137.59 39.6946 138.492 37.4633 137.392 36.8314C136.293 36.1998 129.257 34.0631 128.496 34.3448C127.735 34.6265 127.452 35.0118 127.254 35.8441C127.056 36.6764 126.849 37.2275 126.849 37.2275Z" fill="#FAB499"/>
<path d="M133.425 42.8244C133.425 42.8244 133.337 42.7481 133.24 42.5555C133.147 42.3726 133.054 42.0159 133.276 41.6498L133.292 41.7058C133.003 41.5977 132.664 41.4708 132.284 41.329L132.347 41.268C132.437 41.5216 132.536 41.8001 132.641 42.0948L132.628 42.0748C132.74 42.1897 132.847 42.3184 132.936 42.4667C133.021 42.6181 133.086 42.7953 133.085 42.9837C133.09 43.3612 132.848 43.7396 132.481 43.9126C132.298 43.9999 132.082 44.0325 131.875 43.9947C131.772 43.9728 131.671 43.9418 131.58 43.903C131.485 43.8683 131.391 43.8276 131.298 43.7847C130.924 43.6155 130.564 43.3914 130.229 43.122C130.003 42.9367 129.794 42.7413 129.613 42.5149L129.658 42.5412C129.176 42.4763 128.702 42.3054 128.363 41.9831C128.02 41.6644 127.846 41.2235 127.835 40.8003L127.88 40.8597C127.572 40.7644 127.295 40.6312 127.062 40.4488C126.946 40.3571 126.843 40.2515 126.768 40.1288C126.698 39.9905 126.684 39.8529 126.676 39.7231C126.659 39.2027 126.737 38.7605 126.793 38.3963C126.855 38.0322 126.916 37.7485 126.96 37.5554C127.005 37.3623 127.035 37.2602 127.042 37.2617C127.048 37.263 127.031 37.3678 126.997 37.5627C126.965 37.7579 126.915 38.0435 126.864 38.407C126.817 38.7694 126.751 39.2158 126.776 39.7163C126.783 39.8398 126.804 39.9693 126.858 40.0733C126.926 40.1815 127.021 40.2771 127.13 40.3612C127.349 40.5288 127.622 40.6567 127.911 40.7435L127.954 40.7563L127.956 40.8032C127.97 41.1818 128.134 41.6003 128.452 41.8885C128.766 42.1842 129.211 42.3455 129.675 42.4075L129.702 42.4109L129.72 42.4336C129.888 42.6426 130.096 42.8383 130.315 43.0165C130.64 43.2789 130.991 43.4975 131.354 43.663C131.445 43.7052 131.535 43.7448 131.628 43.7789C131.72 43.8185 131.809 43.8451 131.898 43.8649C132.079 43.8985 132.265 43.8714 132.426 43.7959C132.75 43.6463 132.967 43.3115 132.964 42.9834C132.967 42.6514 132.758 42.3723 132.549 42.1509L132.541 42.1417L132.537 42.1308C132.437 41.8345 132.342 41.5544 132.256 41.2998L132.222 41.2003L132.319 41.2389C132.695 41.3887 133.032 41.5229 133.319 41.6373L133.362 41.6542L133.335 41.6936C133.232 41.8468 133.197 42.0247 133.197 42.1709C133.199 42.3197 133.235 42.4448 133.276 42.5399C133.358 42.7309 133.435 42.8182 133.425 42.8244Z" fill="#F69270"/>
<path d="M135.874 38.9407C135.872 38.9498 135.738 38.9297 135.499 38.8857C135.236 38.8338 134.896 38.7669 134.488 38.6866C134.054 38.5959 133.549 38.4906 132.993 38.3744C132.711 38.314 132.416 38.2509 132.111 38.1855C131.806 38.1217 131.49 38.0393 131.177 38.0815C130.862 38.1159 130.619 38.3353 130.474 38.598C130.325 38.8604 130.244 39.1522 130.165 39.4256C130.012 39.9757 129.932 40.4864 129.873 40.9155C129.815 41.3455 129.78 41.6954 129.752 41.937C129.725 42.1788 129.706 42.3122 129.697 42.3114C129.687 42.3106 129.688 42.1759 129.7 41.9328C129.711 41.6897 129.732 41.3379 129.778 40.9041C129.825 40.471 129.896 39.9538 130.044 39.3928C130.121 39.1147 130.199 38.8171 130.359 38.5323C130.439 38.3919 130.54 38.2538 130.678 38.1472C130.813 38.0386 130.984 37.9703 131.158 37.9471C131.51 37.9012 131.836 37.9914 132.139 38.0555C132.444 38.1238 132.738 38.1894 133.02 38.2522C133.574 38.3789 134.077 38.494 134.509 38.5931C134.912 38.6902 135.249 38.7713 135.51 38.8341C135.746 38.894 135.876 38.9315 135.874 38.9407Z" fill="#F69270"/>
<path d="M134.643 37.3354C134.64 37.3445 134.504 37.3166 134.259 37.2587C133.99 37.1936 133.642 37.1094 133.223 37.0081C132.786 36.9039 132.265 36.7829 131.682 36.6725C131.391 36.6185 131.083 36.5635 130.765 36.5234C130.45 36.4864 130.115 36.4747 129.803 36.581C129.493 36.6881 129.245 36.9132 129.065 37.1699C128.883 37.4273 128.756 37.7106 128.653 37.9857C128.45 38.5408 128.307 39.0567 128.205 39.4929C128.103 39.9294 128.041 40.2874 127.999 40.5352C127.959 40.7833 127.938 40.9208 127.928 40.9198C127.919 40.919 127.922 40.7793 127.947 40.5284C127.972 40.2775 128.02 39.9148 128.111 39.4721C128.203 39.0296 128.336 38.5079 128.536 37.9425C128.638 37.6606 128.766 37.3669 128.957 37.0933C129.145 36.8212 129.415 36.5711 129.759 36.4528C130.103 36.3358 130.458 36.3522 130.781 36.3916C131.106 36.4343 131.413 36.4919 131.706 36.5497C132.291 36.6678 132.812 36.7986 133.247 36.9151C133.682 37.0321 134.032 37.1345 134.272 37.2077C134.514 37.2812 134.645 37.3265 134.643 37.3354Z" fill="#F69270"/>
<path d="M137.584 38.1836C137.559 38.2162 137.183 37.9287 136.643 37.739C136.105 37.5434 135.632 37.5277 135.633 37.4865C135.629 37.4529 136.124 37.4068 136.689 37.6114C137.256 37.8112 137.61 38.1606 137.584 38.1836Z" fill="#F69270"/>
<path d="M130.774 35.3618C130.774 35.3712 130.669 35.3702 130.481 35.3639C130.294 35.3592 130.022 35.3441 129.69 35.3696C129.362 35.396 128.964 35.4723 128.598 35.7032C128.417 35.8181 128.251 35.9742 128.13 36.1727C128.007 36.3702 127.926 36.6029 127.861 36.8474C127.622 37.8396 127.469 38.7581 127.368 39.421C127.323 39.7306 127.285 39.9938 127.254 40.2087C127.226 40.3948 127.208 40.4975 127.199 40.4967C127.19 40.4959 127.19 40.3914 127.201 40.2033C127.212 40.0151 127.234 39.7431 127.273 39.4083C127.35 38.7383 127.488 37.8175 127.73 36.8127C127.796 36.5618 127.882 36.3158 128.018 36.1024C128.15 35.8871 128.336 35.717 128.532 35.5974C128.927 35.3564 129.346 35.2889 129.684 35.274C130.025 35.2602 130.298 35.2902 130.485 35.3113C130.672 35.3339 130.775 35.3527 130.774 35.3618Z" fill="#F69270"/>
<path d="M134.472 36.3034C134.462 36.3397 134.05 36.2659 133.55 36.1385C133.051 36.0113 132.654 35.8787 132.663 35.8422C132.672 35.806 133.084 35.8797 133.584 36.0072C134.084 36.1343 134.481 36.267 134.472 36.3034Z" fill="#F69270"/>
<path d="M127.936 41.2248C127.948 41.2652 127.393 41.414 126.844 41.8351C126.289 42.2492 125.996 42.7437 125.96 42.7205C125.928 42.7106 126.181 42.1621 126.762 41.727C127.338 41.2863 127.935 41.1915 127.936 41.2248Z" fill="#F69270"/>
<path d="M126.812 40.0992C126.82 40.1125 126.725 40.2032 126.538 40.3051C126.352 40.4056 126.061 40.5049 125.73 40.4974C125.4 40.4901 125.116 40.3936 124.924 40.3116C124.731 40.2269 124.622 40.1547 124.63 40.1391C124.646 40.0903 125.118 40.3368 125.732 40.3619C126.353 40.3754 126.791 40.0533 126.812 40.0992Z" fill="#F69270"/>
<path d="M134.664 43.4631C134.665 43.491 134.218 43.4709 133.53 43.6442C132.849 43.8115 131.923 44.2203 131.167 44.9919C130.412 45.7645 130.023 46.6986 129.87 47.3837C129.712 48.0747 129.741 48.5221 129.714 48.5211C129.706 48.5213 129.692 48.4108 129.691 48.2099C129.688 48.0093 129.708 47.7175 129.777 47.3636C129.908 46.6603 130.292 45.6928 131.07 44.8968C131.849 44.1023 132.808 43.6968 133.508 43.5509C133.861 43.4748 134.152 43.449 134.353 43.4467C134.554 43.4441 134.664 43.4553 134.664 43.4631Z" fill="#F69270"/>
<path d="M135.904 51.1118C135.907 51.1266 135.646 51.2012 135.212 51.247C134.779 51.2934 134.169 51.2952 133.511 51.1772C132.854 51.0573 132.283 50.8421 131.893 50.6469C131.502 50.452 131.285 50.291 131.293 50.2782C131.304 50.2592 131.538 50.39 131.933 50.5599C132.328 50.73 132.891 50.926 133.535 51.0435C134.18 51.1592 134.776 51.1728 135.205 51.1514C135.635 51.1305 135.9 51.0899 135.904 51.1118Z" fill="#F69270"/>
<path d="M126.423 66.3364L113.764 56.5816C113.764 56.5816 111.373 50.9228 108.727 50.9655V73.9889L120.356 80.9381C121.341 81.6276 125.888 84.3965 130.151 85.1863C132.468 85.6157 135.8 84.6914 137.021 82.6759C137.373 82.0959 138.386 79.5743 138.478 78.8371C138.847 75.888 139.569 53.3867 139.569 53.3867L126.905 50.9512L126.423 66.3364Z" fill="#34C5A5"/>
<path d="M127.931 80.5326C127.927 80.5355 127.893 80.4933 127.832 80.4107C127.763 80.315 127.676 80.1939 127.569 80.0446C127.512 79.963 127.449 79.8742 127.382 79.778C127.317 79.6785 127.253 79.5654 127.181 79.4465C127.042 79.206 126.868 78.94 126.72 78.6218C126.641 78.4647 126.559 78.3003 126.474 78.1296C126.39 77.9576 126.321 77.7705 126.24 77.5814C126.071 77.2048 125.939 76.784 125.79 76.3449C125.524 75.4572 125.305 74.4576 125.195 73.3921C125.098 72.3251 125.121 71.3018 125.212 70.3797C125.273 69.9198 125.322 69.4815 125.416 69.0794C125.459 68.878 125.491 68.6812 125.54 68.4965C125.591 68.3123 125.64 68.1353 125.687 67.9662C125.771 67.6257 125.89 67.3312 125.981 67.0683C126.029 66.9378 126.069 66.8148 126.114 66.7045C126.162 66.5969 126.206 66.4976 126.247 66.4067C126.323 66.2397 126.385 66.1042 126.434 65.9971C126.478 65.9043 126.504 65.8564 126.508 65.8585C126.512 65.8603 126.495 65.9121 126.459 66.0086C126.416 66.1177 126.362 66.2564 126.296 66.4268C126.259 66.5188 126.218 66.6191 126.174 66.7277C126.133 66.8387 126.097 66.9625 126.053 67.0936C125.969 67.3573 125.857 67.652 125.779 67.992C125.735 68.1609 125.69 68.3373 125.642 68.5207C125.596 68.7047 125.567 68.9006 125.526 69.101C125.438 69.5007 125.394 69.9362 125.336 70.3922C125.253 71.3078 125.234 72.3214 125.33 73.3791C125.439 74.4352 125.653 75.4259 125.91 76.3085C126.054 76.7449 126.18 77.1637 126.344 77.5389C126.423 77.7278 126.489 77.9146 126.57 78.0864C126.651 78.257 126.73 78.4215 126.806 78.5788C126.947 78.8975 127.114 79.1651 127.246 79.408C127.315 79.5281 127.375 79.6422 127.436 79.7436C127.5 79.8416 127.559 79.9323 127.613 80.0154C127.711 80.1702 127.791 80.2958 127.854 80.3948C127.908 80.4826 127.934 80.53 127.931 80.5326Z" fill="#335863"/>
<path d="M111.318 57.6475C111.321 57.6475 111.321 57.6819 111.319 57.7483C111.315 57.8215 111.311 57.9192 111.306 58.0435C111.291 58.3106 111.27 58.6913 111.243 59.1781C111.182 60.1703 111.095 61.5931 110.987 63.348C110.757 66.8746 110.44 71.7343 110.09 77.1018C109.725 82.4701 109.394 87.329 109.154 90.8548C109.028 92.6088 108.926 94.0302 108.855 95.0217C108.817 95.5076 108.787 95.8875 108.766 96.1541C108.755 96.2781 108.747 96.3756 108.74 96.4483C108.733 96.5147 108.729 96.5486 108.727 96.5484C108.724 96.5481 108.724 96.514 108.726 96.4475C108.729 96.3743 108.734 96.2766 108.739 96.1523C108.754 95.8855 108.775 95.5048 108.802 95.0183C108.863 94.026 108.95 92.6036 109.058 90.8486C109.288 87.322 109.605 82.4618 109.955 77.0922C110.32 71.7259 110.651 66.8668 110.891 63.341C111.017 61.5873 111.119 60.1656 111.19 59.1739C111.228 58.6882 111.258 58.3083 111.278 58.0414C111.289 57.9177 111.298 57.8202 111.305 57.7473C111.311 57.6811 111.316 57.6472 111.318 57.6475Z" fill="#335863"/>
<path d="M125.63 79.7726C125.615 79.7726 125.599 79.772 125.583 79.771C125.071 79.7376 124.751 79.211 124.553 78.737C123.013 75.0533 123.712 70.4024 125.969 67.1035C125.88 67.3573 125.767 67.6406 125.687 67.966C125.64 68.1351 125.591 68.3121 125.54 68.4963C125.491 68.681 125.459 68.8778 125.416 69.0792C125.322 69.4812 125.274 69.9195 125.212 70.3794C125.121 71.3016 125.098 72.3249 125.195 73.3919C125.305 74.4574 125.524 75.457 125.79 76.3447C125.939 76.7838 126.071 77.2046 126.24 77.5812C126.322 77.7703 126.39 77.9574 126.474 78.1294C126.519 78.2188 126.563 78.3066 126.606 78.3923C126.607 78.588 126.582 78.7842 126.532 78.9713C126.421 79.3895 126.058 79.7726 125.63 79.7726ZM126.586 78.1205C126.581 78.1091 126.575 78.0976 126.57 78.0861C126.489 77.9144 126.423 77.7276 126.344 77.5387C126.181 77.1634 126.054 76.7447 125.91 76.3083C125.865 76.1548 125.822 75.9982 125.78 75.8384C125.942 76.3549 126.156 76.9154 126.458 77.6413C126.521 77.7938 126.564 77.9553 126.586 78.1205Z" fill="#20A789"/>
<path d="M126.605 78.3927C126.562 78.307 126.519 78.2191 126.474 78.1298C126.39 77.9578 126.321 77.7707 126.24 77.5815C126.071 77.205 125.939 76.7842 125.79 76.3451C125.524 75.4573 125.305 74.4578 125.195 73.3923C125.098 72.3253 125.121 71.302 125.212 70.3798C125.273 69.9199 125.322 69.4816 125.416 69.0796C125.459 68.8781 125.491 68.6814 125.54 68.4967C125.591 68.3124 125.64 68.1355 125.687 67.9664C125.767 67.6409 125.88 67.3577 125.969 67.1039C125.99 67.0721 126.012 67.0403 126.034 67.0088C125.343 68.6788 125.008 71.4041 125.246 73.1958C125.393 74.298 125.52 75.0125 125.78 75.8388C125.822 75.9985 125.865 76.1552 125.91 76.3086C126.054 76.7451 126.18 77.1638 126.344 77.539C126.423 77.728 126.489 77.9148 126.57 78.0865C126.575 78.098 126.58 78.1094 126.586 78.1209C126.598 78.2108 126.605 78.3017 126.605 78.3927Z" fill="#011721"/>
<path d="M3.64551 119.675C3.64551 119.638 41.4745 119.607 88.1277 119.607C134.797 119.607 172.618 119.638 172.618 119.675C172.618 119.713 134.797 119.743 88.1277 119.743C41.4745 119.743 3.64551 119.713 3.64551 119.675Z" fill="#2C343A"/>
</g>
<defs>
<clipPath id="clip0_559_7783">
<rect width="180" height="120" fill="white"/>
</clipPath>
</defs>
</svg>
