<svg width="180" height="121" viewBox="0 0 180 121" fill="none" xmlns="http://www.w3.org/2000/svg">
<g clip-path="url(#clip0_29_6036)">
<path d="M65.106 49.7005L65.6375 50.7779C65.6657 50.835 65.7201 50.8746 65.7829 50.8837L66.9719 51.0565C67.1303 51.0794 67.1937 51.2741 67.079 51.3858L66.2189 52.2246C66.1733 52.2689 66.1524 52.333 66.1631 52.3956L66.3663 53.5799C66.3934 53.7375 66.2277 53.8579 66.086 53.7834L65.0226 53.2242C64.9663 53.1947 64.8991 53.1947 64.8428 53.2242L63.7794 53.7834C63.6376 53.8579 63.4719 53.7375 63.499 53.5799L63.702 52.3956C63.7129 52.333 63.6921 52.2689 63.6465 52.2246L62.7861 51.3858C62.6714 51.2741 62.7347 51.0794 62.8932 51.0565L64.0822 50.8837C64.1452 50.8746 64.1994 50.835 64.2276 50.7779L64.7594 49.7005C64.8303 49.5569 65.0351 49.5569 65.106 49.7005Z" fill="#C1C7D2"/>
<path d="M172.528 19.2151L173.06 20.2926C173.088 20.3496 173.142 20.389 173.205 20.3984L174.394 20.5711C174.553 20.5941 174.616 20.7887 174.501 20.9005L173.641 21.7393C173.596 21.7836 173.575 21.8474 173.585 21.9102L173.789 23.0942C173.816 23.2522 173.65 23.3725 173.508 23.298L172.445 22.7388C172.389 22.7094 172.321 22.7094 172.265 22.7388L171.201 23.298C171.06 23.3725 170.894 23.2522 170.921 23.0942L171.124 21.9102C171.135 21.8474 171.114 21.7836 171.069 21.7393L170.208 20.9005C170.094 20.7887 170.157 20.5941 170.316 20.5711L171.505 20.3984C171.568 20.389 171.622 20.3496 171.65 20.2926L172.182 19.2151C172.253 19.0715 172.457 19.0715 172.528 19.2151Z" fill="#C1C7D2"/>
<path d="M66.35 8.38875L66.216 9.05842C66.209 9.09386 66.2199 9.1306 66.245 9.1564L66.721 9.64628C66.7843 9.71168 66.7455 9.82138 66.6551 9.83206L65.9768 9.9118C65.9409 9.91597 65.9093 9.9376 65.8924 9.96965L65.5737 10.5737C65.5313 10.6542 65.4148 10.651 65.3767 10.5682L65.0914 9.94776C65.0763 9.91493 65.0458 9.89174 65.0104 9.88548L64.3373 9.76901C64.2477 9.75337 64.2146 9.64185 64.2815 9.58009L64.7834 9.11679C64.81 9.0923 64.8228 9.05634 64.8175 9.02038L64.7206 8.34445C64.7076 8.2543 64.8035 8.18863 64.8829 8.23293L65.4786 8.56724C65.5101 8.58496 65.5485 8.58601 65.5808 8.56985L66.1936 8.26863C66.2754 8.2285 66.3677 8.29938 66.35 8.38875Z" fill="#C1C7D2"/>
<path d="M12.7302 45.9608L12.5306 46.9606C12.5199 47.0137 12.536 47.0685 12.5736 47.107L13.2842 47.8385C13.379 47.9359 13.3206 48.0996 13.1859 48.1154L12.1731 48.2345C12.1194 48.2408 12.0725 48.2731 12.0472 48.3208L11.5714 49.2226C11.5078 49.3427 11.3343 49.3381 11.2775 49.2145L10.8512 48.2882C10.8285 48.2392 10.7834 48.2046 10.7303 48.1954L9.72551 48.0214C9.59158 47.9982 9.54233 47.8314 9.64239 47.7394L10.3915 47.0476C10.4311 47.0111 10.4502 46.9575 10.4426 46.904L10.2977 45.8946C10.2782 45.7601 10.4215 45.6619 10.5401 45.7283L11.4294 46.2271C11.4766 46.2537 11.5334 46.2552 11.5818 46.2312L12.497 45.7815C12.6189 45.7216 12.7568 45.8276 12.7302 45.9608Z" fill="#C1C7D2"/>
<path d="M113.771 89.6924L102.376 120.5L113.103 120.328L123.829 92.0081L113.771 89.6924Z" fill="#EAECF0"/>
<path d="M179.388 75.9355L173.719 76.193L172.083 90.9492L165.381 77.087L155.356 82.2604C155.356 82.2604 161.614 97.265 164.915 102.023C164.915 102.023 169.777 109.01 176.32 106.293C182.034 103.919 179.388 75.9355 179.388 75.9355Z" fill="#EAECF0"/>
<path d="M134.059 47.7451L135.328 69.0545C135.544 72.6783 136.602 77.9575 142.316 77.355C147.234 76.4584 148.211 71.6712 148.006 68.2897C147.909 66.6856 147.831 65.3478 147.832 65.1824C147.832 65.1824 153.226 64.3491 153.298 58.9565C153.333 56.3505 152.967 50.9773 152.58 46.1202C152.165 40.9035 147.807 36.8837 142.574 36.8785L142.054 36.8779C136.443 37.2 133.582 42.1451 134.059 47.7451Z" fill="#EAECF0"/>
<path d="M147.832 65.1824C147.832 65.1824 144.432 65.3783 140.812 63.0996C140.812 63.0996 142.521 67.0402 147.903 66.5598L147.832 65.1824Z" fill="#C1C7D2"/>
<path d="M143.576 48.9761C143.477 49.0923 142.822 48.6386 141.922 48.6793C141.023 48.7064 140.384 49.2085 140.281 49.0998C140.231 49.0519 140.328 48.8458 140.606 48.6191C140.879 48.3934 141.353 48.1654 141.913 48.1441C142.474 48.1237 142.955 48.315 143.235 48.5201C143.522 48.7259 143.624 48.924 143.576 48.9761Z" fill="#C1C7D2"/>
<path d="M142.902 51.5868C142.915 51.9714 142.6 52.2997 142.199 52.3208C141.798 52.3419 141.462 52.048 141.449 51.6634C141.435 51.2788 141.75 50.9499 142.151 50.9288C142.552 50.9075 142.889 51.2019 142.902 51.5868Z" fill="#C1C7D2"/>
<path d="M146.275 55.0607C146.271 55.0135 146.786 54.9249 147.621 54.8191C147.833 54.7975 148.033 54.7555 148.069 54.6114C148.119 54.4585 148.03 54.2302 147.928 53.984C147.729 53.4717 147.522 52.9346 147.304 52.3718C146.437 50.0769 145.81 48.1899 145.903 48.1557C145.995 48.1216 146.773 49.9542 147.64 52.2493C147.849 52.8153 148.048 53.3547 148.238 53.8709C148.318 54.1114 148.455 54.3845 148.347 54.7016C148.29 54.8595 148.134 54.9741 147.999 55.0104C147.863 55.0518 147.744 55.0539 147.639 55.0601C146.799 55.1044 146.278 55.1078 146.275 55.0607Z" fill="#C1C7D2"/>
<path d="M143.588 46.1318C143.496 46.3293 142.779 46.1589 141.916 46.1794C141.051 46.1818 140.337 46.3707 140.243 46.1761C140.201 46.083 140.34 45.9027 140.638 45.7328C140.934 45.5632 141.393 45.4196 141.911 45.4123C142.429 45.4061 142.89 45.5374 143.187 45.6995C143.487 45.8615 143.629 46.038 143.588 46.1318Z" fill="#C1C7D2"/>
<path d="M151.818 47.4296C151.735 47.599 151.021 47.4689 150.17 47.5041C149.318 47.5236 148.622 47.6985 148.52 47.5351C148.475 47.4572 148.605 47.3014 148.892 47.1513C149.176 47.0012 149.622 46.8701 150.133 46.8532C150.643 46.8373 151.103 46.9394 151.403 47.0708C151.707 47.2021 151.853 47.3491 151.818 47.4296Z" fill="#C1C7D2"/>
<path d="M129.179 46.1384C129.852 44.7868 129.919 43.227 130.234 41.7501C130.548 40.2734 131.246 38.7168 132.628 38.1088L132.661 38.1206C133.898 37.5168 135.467 37.3962 136.577 38.205C136.699 36.276 138.264 34.6424 140.094 34.0186C141.923 33.3951 144.936 33.4714 146.776 34.0627C148.198 34.5197 149.618 35.5633 151.363 37.1215C152.098 37.7779 152.784 38.4919 153.402 39.2595L155.384 44.1502L154.184 46.8761C154.114 47.0608 154.041 47.2453 153.95 47.4298L153.948 47.4178L153.094 53.0417C152.906 51.5382 152.638 46.2809 152.45 44.7777C150.114 44.8452 147.939 44.0567 146.252 42.4393C145.363 41.5859 144.632 40.4886 143.491 40.0227C142.019 39.4219 140.361 40.0556 138.901 40.6838L138.96 40.6221C138.207 41.0385 137.535 41.6013 136.992 42.2699C137.543 45.2165 137.453 48.2816 136.724 51.1896C136.614 51.6276 136.294 52.5367 135.886 52.7293C135.083 53.1079 134.8 52.2835 134.272 51.8725C133.882 51.5703 133.336 51.5669 132.744 51.6112C132.329 50.7195 131.859 49.2006 131.46 47.8694C130.972 48.0565 130.444 48.1359 129.924 48.0836C130.055 47.6932 130.186 47.3031 130.317 46.9128C130.12 47.0579 129.917 47.2065 129.678 47.2594C129.44 47.312 129.156 47.2419 129.032 47.0316C128.872 46.7596 129.039 46.4211 129.179 46.1384Z" fill="#C1C7D2"/>
<path d="M151.786 48.7244C151.688 48.8403 151.033 48.3867 150.133 48.4273C149.234 48.4544 148.595 48.9568 148.492 48.8479C148.442 48.7997 148.539 48.5938 148.816 48.3671C149.09 48.1415 149.564 47.9135 150.124 47.8921C150.685 47.8718 151.165 48.063 151.446 48.2681C151.733 48.474 151.835 48.6723 151.786 48.7244Z" fill="#C1C7D2"/>
<path d="M150.542 51.4159C150.556 51.8007 150.241 52.1288 149.839 52.1502C149.439 52.1713 149.102 51.8773 149.089 51.4927C149.076 51.1081 149.391 50.7793 149.792 50.7579C150.193 50.7366 150.529 51.0313 150.542 51.4159Z" fill="#C1C7D2"/>
<path d="M152.909 38.6748C153.401 39.2507 154.136 39.7585 154.883 39.6332C155.104 39.5962 155.67 39.3507 155.67 39.3507C155.942 39.4943 155.934 40.3977 155.767 40.6565C155.601 40.9149 155.238 41.2732 155.238 41.2732C156.149 41.6948 156.938 41.4137 157.858 41.0137C157.787 42.6246 156.785 44.1614 155.339 44.8746C154.876 45.1029 154.308 45.2454 153.859 44.9913C153.464 44.768 153.28 44.306 153.139 43.8751C152.622 42.2913 152.301 40.6432 152.187 38.981L152.909 38.6748Z" fill="#C1C7D2"/>
<path d="M150.949 69.4058L147.86 68.2639L136.04 67.915L133.297 68.6618L133.657 75.345L139.86 79.3008L145.875 79.1809L149.659 75.7346L150.498 72.3185L150.949 69.4058Z" fill="#EAECF0"/>
<path d="M115.892 79.6449C116.773 77.8305 117.617 76.3742 118.366 75.2235C119.843 72.9563 122.1 71.3118 124.734 70.744L134.651 68.0557C134.651 68.0557 135.325 74.7435 142.145 74.7435C148.965 74.7435 149.104 68.5497 149.104 68.5497L161.59 73.1144C161.984 73.2676 164.645 74.188 167.742 80.8289C170.692 87.1538 171.982 90.3899 171.982 90.3899L160.204 93.5556L159.421 104.436L160.115 120.328L124.235 120.249L123.992 103.486L123.829 92.008L123.076 93.425L111.874 88.9317C111.874 88.9317 112.988 85.6245 115.892 79.6449Z" fill="#D6DAE1"/>
<path d="M123.658 86.0693C123.606 86.0704 123.638 89.9149 123.73 94.6555C123.822 99.3976 123.94 103.24 123.992 103.239C124.045 103.238 124.013 99.394 123.92 94.6518C123.828 89.9112 123.711 86.0683 123.658 86.0693Z" fill="#C1C7D2"/>
<path d="M146.585 58.0575C146.593 58.088 146.388 58.1756 146.033 58.1735C145.683 58.174 145.179 58.0573 144.743 57.7175C144.308 57.3769 144.073 56.9154 143.988 56.5762C143.901 56.2322 143.936 56.0123 143.968 56.0118C144.008 56.0086 144.04 56.2166 144.164 56.5175C144.285 56.8169 144.52 57.2106 144.904 57.5111C145.288 57.8107 145.727 57.9439 146.047 57.9892C146.369 58.0369 146.579 58.0176 146.585 58.0575Z" fill="#C1C7D2"/>
<path d="M179.059 67.4078C179.059 67.4078 179.734 65.7378 178.911 65.2648C178.088 64.7921 172.823 63.193 172.253 63.4038C171.683 63.6146 171.472 63.9031 171.324 64.5261C171.176 65.1489 171.021 65.5613 171.021 65.5613C171.021 65.5613 170.506 65.0665 169.597 65.5428C169.597 65.5428 168.646 66.0442 168.512 66.4627C168.378 66.8809 168.588 67.4508 168.765 67.8737C168.941 68.2966 169.989 69.8621 169.989 69.8621C169.989 69.8621 169.988 71.178 170.87 72.5655C171.752 73.9531 173.462 74.3262 173.743 75.3284L173.395 79.8009L179.528 83.2352C179.528 83.2352 179.428 77.6498 179.318 75.1992C179.209 72.7482 179.205 70.2881 179.36 69.4937C179.514 68.6989 179.307 67.5308 179.059 67.4078Z" fill="#EAECF0"/>
<path d="M175.942 69.7504C175.939 69.7524 175.924 69.7371 175.898 69.7053C175.871 69.674 175.835 69.6235 175.799 69.551C175.728 69.414 175.655 69.1451 175.823 68.8657L175.839 68.9217C175.62 68.8407 175.366 68.7469 175.084 68.6424L175.147 68.5814C175.215 68.7717 175.289 68.9798 175.368 69.1998L175.356 69.1794C175.44 69.266 175.521 69.3629 175.589 69.4752C175.654 69.5899 175.703 69.7256 175.703 69.8694C175.707 70.1582 175.522 70.4469 175.242 70.5792C175.102 70.646 174.938 70.671 174.779 70.6426C174.618 70.6076 174.486 70.5472 174.343 70.4841C174.062 70.357 173.791 70.1889 173.539 69.9862C173.369 69.8468 173.212 69.7003 173.075 69.5289L173.12 69.5549C172.758 69.5059 172.399 69.377 172.142 69.1323C171.882 68.89 171.751 68.5572 171.743 68.2349L171.788 68.2945C171.555 68.2218 171.348 68.1215 171.171 67.9832C171.084 67.9138 171.005 67.8336 170.948 67.7398C170.894 67.6319 170.884 67.5277 170.879 67.43C170.867 67.0381 170.926 66.7074 170.969 66.4346C171.017 66.1623 171.064 65.9499 171.099 65.8058C171.134 65.6615 171.158 65.5856 171.164 65.5869C171.171 65.5885 171.159 65.6669 171.136 65.8134C171.113 65.9596 171.077 66.1732 171.04 66.4455C171.007 66.7165 170.958 67.0508 170.978 67.4232C170.984 67.5149 171 67.6108 171.038 67.6843C171.088 67.7632 171.159 67.8336 171.239 67.8959C171.401 68.0191 171.606 68.1142 171.819 68.1781L171.862 68.1908L171.864 68.238C171.874 68.5158 171.996 68.8261 172.231 69.038C172.463 69.2558 172.793 69.3754 173.138 69.4213L173.165 69.4249L173.183 69.4476C173.307 69.6016 173.462 69.7483 173.625 69.8807C173.867 70.0761 174.128 70.2389 174.399 70.3624C174.532 70.4229 174.676 70.4854 174.802 70.5125C174.934 70.5373 175.07 70.5175 175.187 70.4625C175.424 70.3536 175.584 70.1086 175.582 69.8689C175.584 69.6276 175.432 69.421 175.277 69.2558L175.268 69.2464L175.264 69.2357C175.19 69.0142 175.12 68.8045 175.055 68.6132L175.022 68.5132L175.119 68.5522C175.398 68.6648 175.649 68.7659 175.866 68.8532L175.908 68.8701L175.882 68.9092C175.728 69.1448 175.775 69.4002 175.835 69.5351C175.895 69.6782 175.95 69.7444 175.942 69.7504Z" fill="#C1C7D2"/>
<path d="M177.774 66.8441C177.773 66.8532 177.672 66.8405 177.493 66.8095C177.313 66.7787 177.054 66.7295 176.735 66.6659C176.405 66.5981 176.028 66.5207 175.615 66.4358C175.403 66.3907 175.183 66.3438 174.955 66.2954C174.726 66.2477 174.491 66.187 174.262 66.2182C174.031 66.2435 173.856 66.4019 173.748 66.5961C173.637 66.7894 173.576 67.0072 173.517 67.2113C173.402 67.6217 173.341 68.0029 173.295 68.3236C173.21 68.9667 173.173 69.3691 173.151 69.367C173.142 69.3662 173.141 69.2654 173.147 69.083C173.154 68.9008 173.167 68.6374 173.2 68.3122C173.234 67.9875 173.286 67.5998 173.396 67.1784C173.454 66.9697 173.512 66.7464 173.632 66.5304C173.744 66.3165 173.968 66.1116 174.243 66.0838C174.511 66.0489 174.756 66.1174 174.983 66.1656C175.211 66.2167 175.431 66.2662 175.642 66.3136C176.052 66.409 176.428 66.496 176.756 66.5721C177.072 66.6476 177.328 66.7112 177.504 66.7579C177.68 66.8048 177.776 66.835 177.774 66.8441Z" fill="#C1C7D2"/>
<path d="M176.853 65.6429C176.851 65.652 176.748 65.633 176.564 65.5918C176.352 65.5421 176.093 65.4813 175.788 65.4094C175.46 65.3331 175.07 65.2437 174.634 65.1621C174.416 65.122 174.186 65.0814 173.949 65.0517C173.714 65.0243 173.465 65.016 173.237 65.0944C173.009 65.1731 172.826 65.3385 172.692 65.5285C172.557 65.7192 172.462 65.9298 172.385 66.1349C172.233 66.5489 172.124 66.9346 172.046 67.26C171.892 67.9125 171.849 68.3281 171.827 68.3255C171.818 68.3247 171.818 68.22 171.835 68.0316C171.852 67.8434 171.886 67.5714 171.953 67.2394C172.02 66.9072 172.119 66.5161 172.268 66.0916C172.344 65.8798 172.44 65.6585 172.584 65.4519C172.725 65.2463 172.931 65.0561 173.192 64.9659C173.454 64.8771 173.722 64.8901 173.965 64.9195C174.209 64.9521 174.438 64.9956 174.658 65.0394C175.096 65.1285 175.486 65.2278 175.811 65.3167C176.136 65.4055 176.398 65.4839 176.578 65.5408C176.757 65.5978 176.855 65.6338 176.853 65.6429Z" fill="#C1C7D2"/>
<path d="M179.055 66.2772C179.03 66.3085 178.745 66.1011 178.344 65.9606C177.945 65.8152 177.594 65.7957 177.594 65.7556C177.59 65.7209 177.963 65.6784 178.39 65.8327C178.818 65.9836 179.08 66.253 179.055 66.2772Z" fill="#C1C7D2"/>
<path d="M173.958 64.1647C173.957 64.191 173.642 64.1514 173.147 64.1826C172.903 64.2037 172.607 64.2621 172.338 64.4336C172.06 64.598 171.882 64.9135 171.794 65.2807C171.616 66.0218 171.499 66.7089 171.421 67.2042C171.343 67.7006 171.302 68.0094 171.282 68.0076C171.264 68.0063 171.272 67.6936 171.325 67.1915C171.38 66.6891 171.482 65.9999 171.663 65.2463C171.713 65.0576 171.778 64.8719 171.881 64.71C171.981 64.5467 172.123 64.4177 172.271 64.3275C172.571 64.1459 172.887 64.0967 173.141 64.0868C173.398 64.0782 173.602 64.1024 173.742 64.1201C173.882 64.1391 173.959 64.1555 173.958 64.1647Z" fill="#C1C7D2"/>
<path d="M176.725 64.8698C176.716 64.9063 176.405 64.8583 176.031 64.7632C175.657 64.6679 175.362 64.5613 175.371 64.5248C175.38 64.4886 175.691 64.5363 176.065 64.6316C176.439 64.727 176.734 64.8336 176.725 64.8698Z" fill="#C1C7D2"/>
<path d="M171.833 68.5531C171.844 68.5924 171.433 68.7105 171.026 69.0234C170.614 69.3306 170.39 69.6939 170.355 69.6723C170.322 69.6608 170.506 69.2434 170.944 68.915C171.379 68.5828 171.831 68.519 171.833 68.5531Z" fill="#C1C7D2"/>
<path d="M170.992 67.711C171.001 67.7248 170.932 67.7965 170.792 67.876C170.654 67.9547 170.433 68.0318 170.182 68.0261C169.932 68.0206 169.719 67.9458 169.575 67.8814C169.432 67.8147 169.352 67.7569 169.359 67.7407C169.376 67.6962 169.732 67.8726 170.185 67.8906C170.642 67.9012 170.971 67.6696 170.992 67.711Z" fill="#C1C7D2"/>
<path d="M176.869 70.228C176.87 70.2533 176.536 70.2429 176.024 70.375C175.516 70.5029 174.827 70.8093 174.264 71.3839C173.702 71.9593 173.41 72.6542 173.293 73.1647C173.172 73.6796 173.19 74.0139 173.164 74.0133C173.156 74.0136 173.143 73.931 173.14 73.7804C173.137 73.6298 173.149 73.4106 173.199 73.1446C173.295 72.6159 173.582 71.8876 174.167 71.2893C174.753 70.6913 175.475 70.3885 176.001 70.2817C176.266 70.2262 176.485 70.2087 176.636 70.209C176.787 70.209 176.869 70.2197 176.869 70.228Z" fill="#C1C7D2"/>
<path d="M177.797 75.9526C177.8 75.9682 177.606 76.0284 177.28 76.0656C176.955 76.1037 176.497 76.1068 176.003 76.0182C175.509 75.9283 175.081 75.7649 174.79 75.6156C174.498 75.4666 174.337 75.3423 174.346 75.3288C174.365 75.2891 175.059 75.7154 176.027 75.8848C176.993 76.0651 177.792 75.9088 177.797 75.9526Z" fill="#C1C7D2"/>
<path d="M0.390039 70.7015L5.59837 68.9277L7.24232 84.9188L17.1456 76.2824L23.2819 83.7009C23.2819 83.7009 12.9121 94.5264 9.16014 96.0122C9.16014 96.0122 3.46193 98.7915 1.03939 95.144C-0.827356 92.3329 0.390039 70.7015 0.390039 70.7015Z" fill="#EAECF0"/>
<path d="M50.5139 61.1358C50.3529 57.4852 50.1895 53.8166 49.461 50.2358C48.7327 46.655 47.8277 43.1664 45.5576 40.3027L24.5585 41.6017C23.775 44.8458 22.9857 48.1697 23.3503 51.4873C23.7041 54.7069 25.137 57.8093 24.9372 61.042C24.7957 63.3262 23.8485 65.4691 23.1546 67.6498C22.4604 69.8306 22.0242 72.2495 22.888 74.3687C23.1056 74.9026 23.4196 75.4225 23.9053 75.7331C24.501 76.114 25.2525 76.1229 25.9596 76.1179C34.3582 76.0593 42.7551 75.7964 51.1409 75.3294C50.9319 70.598 50.7229 65.867 50.5139 61.1358Z" fill="#C1C7D2"/>
<path d="M29.9366 36.3836C31.8825 35.2991 34.2428 35.1259 36.4308 35.5449C38.6188 35.9639 40.6628 36.9355 42.6004 38.0352C43.6875 38.6519 44.772 39.331 45.5576 40.3029C46.9921 42.0769 48.4198 44.9982 48.5756 47.2743C48.7017 49.1144 48.0351 53.7302 47.2709 55.4091C46.5694 56.9496 43.237 58.1459 41.5901 58.5386L26.3047 41.0594C26.823 39.0993 28.1654 37.371 29.9366 36.3836Z" fill="#C1C7D2"/>
<path d="M27.3468 38.7799L30.9703 38.1006C29.0262 42.8414 28.5785 53.6497 27.4854 58.6561C26.1317 56.7263 22.9754 50.8405 23.1221 48.4875C23.2686 46.1348 23.0312 38.4151 27.3468 38.7799Z" fill="#C1C7D2"/>
<path d="M25.3358 46.4996C25.5419 42.8727 27.9171 38.4094 31.532 38.7695L39.907 40.8317C42.5941 41.4933 44.3996 43.742 44.6179 46.5004C44.6289 46.638 44.6414 46.4702 44.6398 46.5736L42.9558 68.2309L29.7359 82.6812L31.1406 67.7222C31.1229 65.9571 31.1106 64.5524 31.1101 64.5615C31.1101 64.5615 26.4732 63.8209 25.4763 57.7832C24.9807 54.7806 25.1068 50.5294 25.3358 46.4996Z" fill="#EAECF0"/>
<path d="M27.6102 51.3954C27.5982 51.8048 27.9348 52.1524 28.3624 52.173C28.7887 52.193 29.1452 51.8785 29.1569 51.4692C29.1689 51.0598 28.832 50.7114 28.4057 50.6914C27.9784 50.671 27.6222 50.9861 27.6102 51.3954Z" fill="#C1C7D2"/>
<path d="M26.2636 48.8602C26.3602 48.9608 26.9447 48.5225 27.7788 48.5194C28.6121 48.5045 29.2265 48.9298 29.3167 48.8273C29.3607 48.7817 29.2614 48.5999 28.9941 48.4076C28.7304 48.216 28.2817 48.0308 27.7624 48.0363C27.2428 48.0422 26.8069 48.2361 26.557 48.4334C26.3016 48.6319 26.2159 48.8151 26.2636 48.8602Z" fill="#C1C7D2"/>
<path d="M34.847 51.3349C34.835 51.7443 35.1719 52.0919 35.599 52.1122C36.0256 52.1325 36.3818 51.818 36.3938 51.4086C36.4057 50.9993 36.0688 50.6512 35.6423 50.6308C35.2149 50.6103 34.8587 50.9255 34.847 51.3349Z" fill="#C1C7D2"/>
<path d="M34.1838 48.794C34.2808 48.8943 34.866 48.4563 35.6996 48.4535C36.5324 48.4383 37.1473 48.8636 37.2369 48.7609C37.281 48.7156 37.183 48.534 36.9144 48.3414C36.6509 48.1496 36.2022 47.9646 35.6826 47.9698C35.1633 47.9761 34.7274 48.17 34.4772 48.3672C34.2226 48.5655 34.1364 48.7489 34.1838 48.794Z" fill="#C1C7D2"/>
<path d="M31.6312 55.3656C31.6346 55.3184 31.1158 55.2319 30.2749 55.1295C30.062 55.1089 29.8601 55.0677 29.8233 54.9228C29.772 54.7691 29.8598 54.539 29.9617 54.2907C30.1587 53.774 30.3648 53.2325 30.5816 52.665C31.4418 50.3508 32.0632 48.4481 31.9699 48.4145C31.8764 48.3804 31.1028 50.2292 30.2426 52.5436C30.0357 53.114 29.8374 53.658 29.6493 54.1784C29.5701 54.421 29.4333 54.6964 29.544 55.0151C29.6021 55.1738 29.7592 55.2884 29.896 55.3244C30.0328 55.365 30.1527 55.3666 30.258 55.3723C31.1038 55.4125 31.6283 55.4132 31.6312 55.3656Z" fill="#C1C7D2"/>
<path d="M39.1081 62.3438C39.1081 62.3438 37.176 66.5111 31.1239 65.9826L31.1104 64.5612C31.1104 64.5612 35.095 64.7895 39.1081 62.3438Z" fill="#D6DAE1"/>
<path d="M34.4206 45.7779C34.504 46.0041 35.3362 45.8918 36.3152 46.0036C37.2971 46.0958 38.0876 46.3772 38.2164 46.1732C38.2737 46.0755 38.1348 45.8628 37.8143 45.6455C37.4969 45.4282 36.9909 45.2229 36.403 45.1609C35.8152 45.1004 35.2779 45.1971 34.9225 45.3443C34.5642 45.4913 34.3844 45.6705 34.4206 45.7779Z" fill="#C1C7D2"/>
<path d="M26.5141 46.3066C26.6621 46.495 27.2353 46.2949 27.9261 46.2813C28.6164 46.2436 29.2029 46.4007 29.3363 46.2019C29.3947 46.1052 29.3014 45.916 29.0447 45.7383C28.7917 45.5611 28.3693 45.4178 27.8946 45.435C27.4201 45.453 27.0097 45.627 26.7707 45.8227C26.5279 46.0189 26.4489 46.2144 26.5141 46.3066Z" fill="#C1C7D2"/>
<path d="M26.9317 40.9663C27.2936 40.0537 28.2872 39.4995 29.267 39.4414C30.247 39.3835 31.2077 39.7468 32.0616 40.2309C35.6781 42.2811 37.5701 47.2906 41.1444 49.4135C42.0235 49.9354 43.1578 49.4411 43.9078 50.1361C44.6574 50.831 45.1494 51.9476 44.746 52.8869C45.2182 52.2277 45.6968 51.5562 45.9621 50.7896C46.2276 50.023 46.2542 49.1339 45.8428 48.4348C45.5306 47.9043 44.9837 47.5019 44.8294 46.9057C44.6939 46.3815 44.8966 45.8304 44.8693 45.2894C44.8416 44.7386 44.5782 44.2302 44.3028 43.7523C42.8892 41.3003 40.9542 39.088 38.4748 37.7229C36.8551 36.8312 35.0068 36.3171 33.1594 36.3955C31.3119 36.474 29.4718 37.1687 28.1298 38.4408C27.3405 39.1891 26.5109 39.9633 26.9317 40.9663Z" fill="#C1C7D2"/>
<path d="M43.8271 50.8859C43.8892 50.7118 47.0322 49.5478 47.102 52.8983C47.1698 56.1531 43.88 55.5397 43.8725 55.4464C43.8655 55.3531 43.8271 50.8859 43.8271 50.8859Z" fill="#EAECF0"/>
<path d="M44.8549 54.1955C44.8693 54.1851 44.9125 54.2343 45.0089 54.2765C45.1033 54.3177 45.2645 54.3443 45.4331 54.2778C45.7747 54.1455 46.0546 53.5943 46.0601 53.0075C46.0629 52.711 45.996 52.4298 45.8868 52.1985C45.7831 51.9619 45.6262 51.7982 45.4527 51.7706C45.2797 51.7338 45.1588 51.8396 45.1207 51.9319C45.0788 52.0239 45.1004 52.0885 45.0832 52.0942C45.0743 52.1026 45.0123 52.0408 45.0365 51.9061C45.0485 51.8409 45.0855 51.7638 45.1608 51.7C45.2377 51.6348 45.3521 51.6004 45.4727 51.6114C45.7242 51.6244 45.9543 51.8511 46.0741 52.1054C46.2081 52.3608 46.2902 52.6766 46.2868 53.0094C46.2777 53.6657 45.9527 54.2854 45.4847 54.4297C45.2567 54.4936 45.0644 54.4279 44.9646 54.3529C44.8622 54.2742 44.8437 54.2017 44.8549 54.1955Z" fill="#C1C7D2"/>
<path d="M44.297 50.1304C44.3554 51.0186 44.4044 51.9572 44 52.7509C43.5958 53.5444 42.5645 54.0905 41.7877 53.6551C41.154 53.3 40.9586 52.494 40.8457 51.7764C40.5195 49.7056 40.3608 47.6109 40.0166 45.543L44.297 50.1304Z" fill="#C1C7D2"/>
<path d="M33.6949 56.9324C34.0117 57.3404 34.1146 57.9061 33.9612 58.3999C33.8079 58.8934 33.403 59.3015 32.9105 59.4581C32.7143 59.5206 32.4973 59.5441 32.3037 59.4729C31.9621 59.3468 31.7896 58.9753 31.6514 58.6383C31.5368 58.3582 31.4219 58.0784 31.3072 57.7982C31.2687 57.7042 31.2304 57.5963 31.2734 57.5043C31.3197 57.405 31.4393 57.368 31.5454 57.3415C32.2406 57.1679 32.9356 56.9941 33.6305 56.8203" fill="#D6DAE1"/>
<path d="M32.3481 59.3707C32.3502 59.3913 32.7184 59.4312 33.2966 59.2435C33.578 59.1435 33.9204 58.9382 34.1226 58.5606C34.2261 58.3797 34.2698 58.1286 34.2448 57.9131C34.2284 57.6916 34.1755 57.462 34.0736 57.2463C33.9754 57.037 33.8368 56.8528 33.676 56.7058L33.6205 56.6553L33.5514 56.6803C32.172 57.1798 31.0919 57.4362 31.1036 57.4954C31.1133 57.5558 32.2277 57.3971 33.6335 56.9122L33.5092 56.8867C33.6447 57.0154 33.762 57.1728 33.8467 57.3528C34.0082 57.7252 34.0749 58.1567 33.917 58.4558C33.7615 58.7706 33.4811 58.9673 33.2296 59.0794C32.7124 59.2949 32.3382 59.3248 32.3481 59.3707Z" fill="#C1C7D2"/>
<path d="M47.2319 69.1226C46.9072 68.9176 42.6064 68.0605 42.6064 68.0605L32.2562 68.417L28.5543 69.132C28.5543 69.132 27.9636 80.6407 28.0681 80.8476C28.1728 81.0545 32.9939 84.9613 33.1982 85.1674C33.4022 85.3735 43.2657 81.967 43.2657 81.967L49.6909 70.21L47.2319 69.1226Z" fill="#EAECF0"/>
<path d="M45.8494 68.0332C46.3687 68.0288 52.1226 69.5594 53.9852 72.0166C56.5453 75.3934 60.8529 80.4675 60.8529 80.4675L49.9755 89.3973L47.5983 103.233C47.5983 103.233 51.9058 115.221 52.57 120.098C52.57 120.098 16.9271 120.271 17.6525 120.098C17.6525 120.098 20.1548 100.866 19.6837 94.2213C19.2126 87.5772 19.5438 77.4983 19.5438 77.4983L24.0538 69.691L30.8266 68.6927C30.8266 68.6927 28.2148 73.6655 33.6514 74.5103C39.2282 75.3772 45.8494 68.0332 45.8494 68.0332Z" fill="#D6DAE1"/>
<path d="M29.9738 68.8086C29.9738 68.8086 23.7323 69.6594 21.6616 70.1469C19.5908 70.6344 11.4922 79.4045 11.4922 79.4045L19.8469 88.3312L23.4319 80.816L29.9738 68.8086Z" fill="#D6DAE1"/>
<path d="M19.7439 79.3271C19.7249 79.3266 19.6972 79.6117 19.6639 80.1279C19.6305 80.6441 19.5933 81.3911 19.5565 82.3149C19.482 84.1623 19.414 86.7157 19.3835 89.5364C19.3538 92.3581 19.3674 94.9125 19.4023 96.761C19.4192 97.6853 19.4406 98.4334 19.463 98.9501C19.4854 99.4665 19.5068 99.7521 19.526 99.7519C19.5451 99.7516 19.5602 99.4658 19.5714 98.9488C19.5784 98.381 19.5878 97.6451 19.599 96.7602C19.6154 94.8622 19.6376 92.3344 19.6618 89.5392C19.6972 86.7454 19.729 84.2181 19.7533 82.3201C19.7608 81.4352 19.7673 80.6991 19.7723 80.1313C19.7723 79.6143 19.7632 79.3279 19.7439 79.3271Z" fill="#C1C7D2"/>
<path d="M0.50116 60.3664C0.50116 60.3664 -0.143758 58.8061 0.623368 58.3563C1.39102 57.9066 6.31454 56.3663 6.85027 56.5597C7.38601 56.7528 7.58639 57.0214 7.73023 57.604C7.87406 58.1869 8.02259 58.5723 8.02259 58.5723C8.02259 58.5723 8.50048 58.1046 9.35724 58.5439C9.35724 58.5439 10.2523 59.0064 10.3813 59.3976C10.5105 59.7887 10.3172 60.3244 10.1551 60.7223C9.99304 61.1202 9.02319 62.5961 9.02319 62.5961C9.02319 62.5961 9.03466 63.8296 8.21854 65.1372C7.40243 66.445 5.80251 66.808 5.54689 67.7497L5.90804 71.94L0.186127 75.2073C0.186127 75.2073 0.235636 69.9706 0.31928 67.6721C0.402924 65.3738 0.386768 63.0677 0.235897 62.3241C0.085025 61.5804 0.269771 60.4836 0.50116 60.3664Z" fill="#EAECF0"/>
<path d="M3.4423 62.5381C3.43396 62.5326 3.48529 62.4695 3.54002 62.3351C3.59421 62.2082 3.63538 61.969 3.48999 61.7506L3.46393 61.7118L3.50588 61.6943C3.70887 61.6104 3.94312 61.5135 4.20343 61.4056L4.29984 61.366L4.26701 61.4661C4.20838 61.6464 4.14454 61.8434 4.07679 62.0513L4.07315 62.0622L4.06455 62.0716C3.92045 62.2277 3.77974 62.4218 3.78443 62.6465C3.78469 62.8695 3.9353 63.0965 4.15705 63.1963C4.26701 63.2466 4.39365 63.2638 4.51612 63.2398C4.63338 63.2135 4.76783 63.1535 4.89161 63.0959C5.14384 62.9784 5.38722 62.8236 5.61235 62.6389C5.764 62.5136 5.90836 62.3749 6.02301 62.2301L6.04099 62.2074L6.06783 62.2035C6.39016 62.1579 6.69737 62.0435 6.91209 61.8382C7.13045 61.6388 7.24171 61.3475 7.24953 61.0885L7.25083 61.0413L7.2933 61.0283C7.4929 60.9671 7.6839 60.8764 7.83399 60.7599C7.90878 60.7013 7.97392 60.6351 8.02004 60.5611C8.05496 60.4931 8.06955 60.4034 8.07424 60.3175C8.09014 59.9691 8.04219 59.6559 8.0091 59.4021C7.97288 59.1472 7.93796 58.9468 7.91529 58.81C7.89262 58.673 7.88168 58.5992 7.88819 58.5977C7.89444 58.5964 7.9179 58.6672 7.95229 58.8022C7.98669 58.9369 8.03281 59.1358 8.07971 59.3906C8.12323 59.646 8.1816 59.9553 8.17378 60.3234C8.16935 60.4154 8.16127 60.5131 8.1102 60.6161C8.05756 60.7047 7.9846 60.7807 7.90304 60.8469C7.7381 60.9785 7.54398 61.0742 7.32614 61.1445L7.37017 61.0843C7.36522 61.3881 7.2451 61.7016 7.00198 61.932C6.76252 62.1641 6.42638 62.2882 6.08633 62.3372L6.13115 62.3106C6.00347 62.4729 5.85781 62.6113 5.69886 62.7436C5.46461 62.9359 5.21159 63.0959 4.94867 63.2174C4.81474 63.2776 4.69227 63.3351 4.53983 63.3693C4.39079 63.3977 4.23522 63.3753 4.10337 63.3133C3.83785 63.1908 3.66196 62.9201 3.66353 62.648C3.66196 62.5123 3.70808 62.3841 3.76828 62.2757C3.83055 62.1696 3.90612 62.0779 3.98481 61.9961L3.97257 62.0164C4.04474 61.8098 4.11301 61.6141 4.17555 61.4353L4.23913 61.4955C3.97543 61.5953 3.73831 61.6849 3.53272 61.7626L3.54861 61.7066C3.70887 61.9684 3.64164 62.2215 3.57571 62.3507C3.5421 62.4187 3.50901 62.4667 3.48373 62.4958C3.45898 62.5261 3.44517 62.5401 3.4423 62.5381Z" fill="#C1C7D2"/>
<path d="M1.70121 59.8278C1.69912 59.8186 1.78928 59.7889 1.95396 59.7431C2.11838 59.6975 2.35759 59.6354 2.65386 59.5617C2.96186 59.4872 3.31233 59.4025 3.69563 59.3097C3.89341 59.2636 4.099 59.2154 4.31189 59.1654C4.52399 59.1187 4.75382 59.0523 5.00657 59.083C5.26584 59.107 5.47873 59.2988 5.58556 59.4989C5.70048 59.7011 5.75676 59.9104 5.81226 60.1058C5.91858 60.5 5.97017 60.8633 6.00405 61.1676C6.03688 61.4725 6.05121 61.7192 6.0585 61.8902C6.06554 62.0609 6.06424 62.1557 6.05512 62.1565C6.03375 62.1586 5.99493 61.7818 5.90894 61.1799C5.86307 60.8797 5.80236 60.523 5.69188 60.1394C5.63455 59.9489 5.5754 59.7454 5.47039 59.5656C5.36825 59.385 5.20383 59.2394 4.98859 59.2175C4.77518 59.1901 4.555 59.2485 4.34133 59.2951C4.12792 59.3423 3.92155 59.3879 3.72351 59.4317C3.33786 59.514 2.98505 59.5893 2.67497 59.6553C2.37609 59.717 2.13376 59.7647 1.96569 59.7947C1.79736 59.8246 1.70329 59.8369 1.70121 59.8278Z" fill="#C1C7D2"/>
<path d="M2.55522 58.694C2.55287 58.6852 2.64434 58.65 2.8124 58.5948C2.98021 58.5395 3.22437 58.4634 3.52872 58.3772C3.83307 58.2909 4.19761 58.1945 4.60775 58.1072C4.81334 58.0642 5.02779 58.0218 5.25658 57.9894C5.48406 57.9595 5.73603 57.9451 5.98279 58.027C6.23008 58.1096 6.42472 58.287 6.55944 58.4791C6.69624 58.6724 6.7877 58.8793 6.86092 59.0776C7.00372 59.4747 7.09961 59.8405 7.16449 60.1517C7.22911 60.4625 7.26273 60.7174 7.27966 60.8938C7.29608 61.0702 7.2966 61.1684 7.288 61.1695C7.26611 61.1721 7.22129 60.7833 7.07094 60.173C6.99512 59.8687 6.89011 59.5083 6.74419 59.1216C6.66992 58.9301 6.57924 58.7339 6.45156 58.5567C6.32519 58.38 6.15321 58.2271 5.9398 58.1554C5.72587 58.0843 5.4937 58.0937 5.27377 58.1213C5.05229 58.1507 4.83627 58.1906 4.63277 58.2297C4.22471 58.3097 3.85965 58.3959 3.55321 58.4699C3.26945 58.5385 3.02738 58.5971 2.82648 58.6456C2.65424 58.6852 2.55783 58.7031 2.55522 58.694Z" fill="#C1C7D2"/>
<path d="M0.496428 59.3058C0.471152 59.2816 0.714006 59.0252 1.11451 58.8801C1.5137 58.7318 1.86469 58.7706 1.86131 58.8055C1.86183 58.8454 1.53351 58.8683 1.16115 59.0075C0.787227 59.1419 0.521964 59.3369 0.496428 59.3058Z" fill="#C1C7D2"/>
<path d="M5.25782 57.2864C5.25704 57.2773 5.32869 57.2606 5.45976 57.2413C5.59083 57.2231 5.78235 57.198 6.02286 57.204C6.26128 57.2108 6.55886 57.2543 6.84262 57.4224C6.98281 57.506 7.117 57.6264 7.2129 57.7791C7.31087 57.9305 7.37341 58.1046 7.42187 58.2812C7.59802 58.9863 7.69756 59.632 7.75254 60.1029C7.80622 60.5732 7.81404 60.8664 7.79658 60.8679C7.77678 60.87 7.73508 60.5808 7.65743 60.1162C7.579 59.6529 7.46383 59.0098 7.29081 58.3167C7.20586 57.9735 7.03779 57.6806 6.77696 57.529C6.52342 57.3705 6.24695 57.3182 6.01765 57.2999C5.55409 57.2736 5.25886 57.3122 5.25782 57.2864Z" fill="#C1C7D2"/>
<path d="M2.66967 57.9686C2.66029 57.9324 2.93597 57.8282 3.28566 57.7359C3.63535 57.6437 3.92667 57.5983 3.93605 57.6345C3.94569 57.6708 3.67 57.775 3.32032 57.8672C2.97063 57.9595 2.67931 58.0048 2.66967 57.9686Z" fill="#C1C7D2"/>
<path d="M7.2844 61.3831C7.28674 61.3485 7.712 61.4034 8.12266 61.712C8.53671 62.0171 8.71129 62.4085 8.67898 62.4207C8.64433 62.4421 8.42935 62.1052 8.04188 61.8209C7.65832 61.5314 7.27371 61.4225 7.2844 61.3831Z" fill="#C1C7D2"/>
<path d="M8.06579 60.5872C8.08715 60.5466 8.39776 60.7587 8.82379 60.7449C9.24696 60.7248 9.57997 60.5586 9.59691 60.6023C9.61229 60.624 9.30246 60.8546 8.82744 60.8806C8.59188 60.8879 8.38395 60.8165 8.2534 60.7433C8.12155 60.6688 8.05667 60.6013 8.06579 60.5872Z" fill="#C1C7D2"/>
<path d="M2.57617 62.993C2.57617 62.9846 2.65356 62.9734 2.79505 62.9719C2.93628 62.9698 3.14188 62.9841 3.39098 63.0339C3.88581 63.129 4.56617 63.4073 5.12067 63.9636C5.67464 64.5207 5.94955 65.2024 6.04231 65.6977C6.09104 65.9471 6.10433 66.1527 6.10146 66.2939C6.09912 66.4351 6.08765 66.5128 6.07931 66.5125C6.0543 66.5131 6.06707 66.1996 5.94877 65.7188C5.83437 65.2417 5.55556 64.5937 5.02451 64.0592C4.49269 63.5258 3.8462 63.2439 3.36962 63.1274C2.88912 63.0068 2.57539 63.0183 2.57617 62.993Z" fill="#C1C7D2"/>
<path d="M1.75199 68.3664C1.75642 68.3231 2.50635 68.4612 3.4095 68.2848C4.31499 68.1189 4.96199 67.7157 4.98231 67.7546C4.99091 67.7681 4.8416 67.8869 4.56904 68.0297C4.29753 68.1728 3.89755 68.3299 3.43477 68.4183C2.97173 68.5053 2.54205 68.5053 2.23718 68.4714C1.93127 68.4383 1.74887 68.3823 1.75199 68.3664Z" fill="#C1C7D2"/>
<path d="M22.1507 9.69264L22.6823 10.7701C22.7104 10.8272 22.7649 10.8665 22.8279 10.8756L24.0169 11.0484C24.1753 11.0716 24.2387 11.2662 24.124 11.378L23.2636 12.2166C23.218 12.2611 23.1971 12.3249 23.2078 12.3877L23.4111 13.5718C23.4382 13.7297 23.2725 13.8501 23.1307 13.7756L22.0673 13.2164C22.011 13.1867 21.9438 13.1867 21.8875 13.2164L20.8241 13.7756C20.6824 13.8501 20.5166 13.7297 20.5437 13.5718L20.747 12.3877C20.7577 12.3249 20.7368 12.2611 20.6912 12.2166L19.8311 11.378C19.7164 11.2662 19.7795 11.0716 19.9379 11.0484L21.1269 10.8756C21.19 10.8665 21.2444 10.8272 21.2726 10.7701L21.8041 9.69264C21.875 9.54907 22.0798 9.54907 22.1507 9.69264Z" fill="#20A789"/>
<path d="M8.64757 24.3847L8.51389 25.0547C8.50686 25.0901 8.5178 25.1266 8.54282 25.1526L9.01888 25.6425C9.0822 25.7076 9.04338 25.8174 8.95296 25.828L8.27469 25.9078C8.23873 25.9119 8.2072 25.9336 8.19026 25.9656L7.87158 26.5696C7.82911 26.6501 7.71263 26.647 7.67459 26.5642L7.389 25.9437C7.37415 25.9109 7.34366 25.8877 7.30822 25.8815L6.63516 25.765C6.54552 25.7493 6.51243 25.6378 6.5794 25.5761L7.08126 25.1128C7.10784 25.0883 7.12061 25.0523 7.1154 25.0166L7.0182 24.3404C7.00544 24.2503 7.10133 24.1846 7.1808 24.2292L7.77647 24.5632C7.808 24.5809 7.84604 24.582 7.87862 24.5661L8.49148 24.2646C8.5733 24.2245 8.66554 24.2956 8.64757 24.3847Z" fill="#20A789"/>
<path d="M89.1047 7.24605L88.971 7.91598C88.964 7.95142 88.9746 7.9879 88.9999 8.01396L89.476 8.50384C89.5393 8.56898 89.5002 8.67868 89.4101 8.68936L88.7315 8.7691C88.6958 8.77327 88.6643 8.79489 88.6474 8.82695L88.3284 9.43095C88.2859 9.51147 88.1697 9.50834 88.1317 9.42574L87.8461 8.80506C87.831 8.77223 87.8008 8.74903 87.7651 8.74278L87.0923 8.6263C87.0024 8.61067 86.9695 8.49915 87.0365 8.43739L87.5384 7.97409C87.5649 7.9496 87.5777 7.91364 87.5725 7.87794L87.4753 7.20175C87.4625 7.1116 87.5584 7.04593 87.6376 7.09049L88.2336 7.42454C88.2651 7.44226 88.3031 7.4433 88.3357 7.42741L88.9486 7.12593C89.0301 7.0858 89.1224 7.15694 89.1047 7.24605Z" fill="#20A789"/>
<path d="M160.962 30.5031L160.828 31.1728C160.821 31.2082 160.832 31.245 160.857 31.2708L161.333 31.7606C161.396 31.826 161.357 31.9357 161.267 31.9462L160.589 32.0262C160.553 32.0303 160.521 32.052 160.504 32.0837L160.185 32.688C160.143 32.7683 160.026 32.7651 159.988 32.6825L159.703 32.0621C159.688 32.0293 159.658 32.0058 159.622 31.9998L158.949 31.8831C158.859 31.8677 158.827 31.7562 158.893 31.6945L159.395 31.2312C159.422 31.2067 159.434 31.1704 159.429 31.1347L159.332 30.4588C159.319 30.3687 159.415 30.3027 159.495 30.3473L160.09 30.6813C160.122 30.6991 160.16 30.7001 160.192 30.6842L160.805 30.383C160.887 30.3429 160.979 30.4137 160.962 30.5031Z" fill="#20A789"/>
<path d="M158.579 14.6604L158.189 14.8468L158.15 14.8986L158.083 15.3257C158.073 15.3825 158.003 15.4044 157.963 15.3624L157.666 15.0492L157.605 15.0284L157.178 15.0959C157.121 15.105 157.078 15.0448 157.106 14.9942L157.312 14.6141L157.313 14.5494L157.116 14.1643C157.09 14.113 157.134 14.0541 157.191 14.0645L157.616 14.1429L157.678 14.1239L157.984 13.8183C158.024 13.7776 158.094 13.8011 158.102 13.8584L158.158 14.2868L158.195 14.3397L158.581 14.5359C158.632 14.562 158.631 14.6357 158.579 14.6604Z" fill="#20A789"/>
<path d="M29.8788 27.6996L29.4887 27.8859L29.4501 27.9378L29.3824 28.3646C29.3733 28.4214 29.3029 28.4433 29.2633 28.4016L28.9657 28.0881L28.9045 28.0676L28.4774 28.1351C28.4206 28.1439 28.3781 28.084 28.4055 28.0332L28.6116 27.6533L28.6124 27.5886L28.4162 27.2035C28.3901 27.1522 28.4341 27.093 28.4907 27.1034L28.9157 27.1821L28.9774 27.1629L29.2834 26.8575C29.324 26.8166 29.3938 26.8403 29.4014 26.8973L29.4579 27.326L29.4952 27.3786L29.8803 27.5751C29.9317 27.6011 29.9306 27.6749 29.8788 27.6996Z" fill="#20A789"/>
<path d="M143.209 19.2675L143.007 20.2753C142.997 20.3288 143.013 20.384 143.051 20.4228L143.767 21.16C143.863 21.2582 143.804 21.4234 143.668 21.4393L142.647 21.5594C142.593 21.5657 142.546 21.5983 142.52 21.6465L142.04 22.5554C141.977 22.6765 141.801 22.6718 141.744 22.5475L141.314 21.6136C141.292 21.5644 141.246 21.5292 141.193 21.5198L140.18 21.3445C140.045 21.3213 139.995 21.1532 140.096 21.0602L140.851 20.3632C140.891 20.3262 140.91 20.272 140.903 20.2183L140.757 19.2007C140.737 19.0652 140.881 18.9662 141.001 19.0332L141.897 19.5361C141.945 19.5627 142.002 19.5642 142.051 19.5403L142.974 19.0869C143.097 19.0264 143.235 19.133 143.209 19.2675Z" fill="#20A789"/>
<path d="M91.3967 26.4708L91.7148 52.1073C91.7695 56.4667 90.958 62.8815 84.0613 62.653C78.0929 62.0034 76.5092 56.353 76.4627 52.2845C76.4409 50.3546 76.4185 48.7455 76.4032 48.5476C76.4032 48.5476 69.8694 48.0146 69.3181 41.5609C69.0513 38.4424 69.0254 31.974 69.0696 26.1221C69.1173 19.8374 73.9915 14.6458 80.2597 14.1882L80.8822 14.1429C87.6316 14.0445 91.4857 19.7214 91.3967 26.4708Z" fill="#F9B299"/>
<path d="M76.4033 48.5471C76.4033 48.5471 80.4924 48.4882 84.6322 45.4463C84.6322 45.4463 82.9248 50.314 76.4375 50.2033L76.4033 48.5471Z" fill="#F79570"/>
<path d="M80.1038 28.7668C80.2316 28.8975 80.9772 28.2974 82.0579 28.2685C83.1381 28.2232 83.9467 28.7697 84.0604 28.6307C84.1163 28.5689 83.9832 28.3298 83.6304 28.0824C83.2835 27.8362 82.6963 27.6036 82.0226 27.6266C81.3494 27.6507 80.7905 27.921 80.4719 28.1914C80.1462 28.4623 80.0408 28.7085 80.1038 28.7668Z" fill="#2C343A"/>
<path d="M81.2057 30.7993C81.2228 31.261 81.6285 31.6273 82.1115 31.6179C82.5932 31.6085 82.9708 31.2274 82.9531 30.7657C82.936 30.304 82.5302 29.937 82.0485 29.9465C81.5655 29.9553 81.188 30.3375 81.2057 30.7993Z" fill="#2C343A"/>
<path d="M77.3948 36.2884C77.3959 36.2312 76.771 36.1694 75.7616 36.1152C75.506 36.107 75.2627 36.0746 75.2074 35.9044C75.1344 35.7259 75.2203 35.445 75.3216 35.1411C75.5154 34.5103 75.7174 33.8489 75.9306 33.1563C76.7705 30.3323 77.3588 28.0177 77.2452 27.9847C77.1309 27.9517 76.3576 30.2139 75.5178 33.0385C75.3163 33.7341 75.1238 34.3978 74.9412 35.0321C74.8664 35.3272 74.725 35.6658 74.8823 36.0369C74.9641 36.2212 75.1603 36.3449 75.3258 36.3767C75.4924 36.4144 75.635 36.4067 75.761 36.405C76.7711 36.3861 77.3953 36.3449 77.3948 36.2884Z" fill="#2C343A"/>
<path d="M80.5632 24.1658C80.668 24.4055 81.5332 24.2253 82.5703 24.2783C83.6074 24.3095 84.4585 24.5604 84.5786 24.3289C84.6316 24.2188 84.4703 23.998 84.1181 23.7842C83.7688 23.571 83.2229 23.3831 82.6009 23.3572C81.979 23.333 81.4219 23.475 81.0591 23.6599C80.6939 23.8442 80.5178 24.0515 80.5632 24.1658Z" fill="#2C343A"/>
<path d="M70.295 26.7055C70.408 26.901 71.252 26.6837 72.2744 26.6519C73.2969 26.6019 74.1455 26.7515 74.2533 26.5471C74.301 26.4499 74.132 26.2744 73.7757 26.1189C73.4223 25.964 72.8769 25.8456 72.2638 25.8692C71.6507 25.8945 71.1089 26.0565 70.7597 26.2397C70.4086 26.4234 70.2449 26.6119 70.295 26.7055Z" fill="#2C343A"/>
<path d="M91.2188 31.2918C91.3248 31.2365 95.5611 29.6551 95.7419 34.0817C95.9233 38.5082 91.4426 37.7768 91.4296 37.6507C91.4166 37.5235 91.2188 31.2918 91.2188 31.2918Z" fill="#F9B299"/>
<path d="M92.7133 35.9183C92.7321 35.9035 92.7928 35.9695 92.9253 36.0237C93.0549 36.0767 93.2751 36.1073 93.5025 36.0119C93.9624 35.8211 94.3258 35.0625 94.3146 34.2639C94.3099 33.8605 94.2092 33.4806 94.0537 33.1684C93.9053 32.8504 93.6868 32.6331 93.4495 32.6001C93.2127 32.5559 93.0519 32.7038 93.003 32.8304C92.9489 32.9564 92.9806 33.0436 92.9577 33.0524C92.9453 33.0636 92.8593 32.9823 92.8876 32.798C92.9023 32.7091 92.9494 32.6025 93.0502 32.5135C93.1532 32.4228 93.3075 32.3722 93.4718 32.3834C93.8146 32.3928 94.1344 32.6943 94.3058 33.0365C94.4954 33.3799 94.6174 33.8063 94.6238 34.2592C94.6321 35.1526 94.2092 36.006 93.5773 36.2169C93.2686 36.3111 93.0054 36.228 92.867 36.1285C92.725 36.0249 92.698 35.9271 92.7133 35.9183Z" fill="#F79570"/>
<path d="M78.4394 39.353C78.3911 39.2411 79.2587 38.9814 79.8682 38.1681C80.1727 37.7676 80.3488 37.3312 80.4807 37.0125C80.6097 36.691 80.7075 36.489 80.7552 36.5037C80.8 36.5178 80.7894 36.7357 80.7181 37.0856C80.6439 37.4307 80.4931 37.9248 80.1486 38.3801C79.8087 38.8395 79.3523 39.1139 79.0178 39.2458C78.6797 39.3825 78.4512 39.3913 78.4394 39.353Z" fill="#2C343A"/>
<path d="M60.4999 20.329C60.57 20.0693 60.759 19.8555 60.9905 19.7183C61.4958 19.4203 62.0783 19.4597 62.6407 19.4509C64.3534 19.4238 66.0531 18.9008 67.4937 17.9756C68.1686 17.0026 68.9284 16.0886 69.7523 15.2387C71.7088 13.2216 73.3184 11.8487 74.9834 11.1785C77.1372 10.3116 80.7386 9.95995 82.9837 10.5495C85.2294 11.1384 87.2465 12.9601 87.5581 15.2605C88.8178 14.1963 90.7078 14.2051 92.242 14.8217L92.2803 14.8053C93.9883 15.4136 94.9588 17.2182 95.463 18.9603C95.9665 20.7018 96.1815 22.5647 97.1044 24.126C97.2964 24.4523 97.5261 24.8433 97.3571 25.1832C97.2275 25.4458 96.8936 25.5542 96.6032 25.5118C96.3134 25.4688 96.0566 25.3086 95.8087 25.152C95.9989 25.6078 96.1892 26.0642 96.38 26.5201C95.7622 26.6279 95.1226 26.5784 94.5218 26.3964C94.159 28.0255 93.7262 29.8854 93.3074 30.9896C92.593 30.9879 91.9393 31.0385 91.4993 31.4343C90.901 31.972 90.6336 32.9844 89.6394 32.5998C89.1335 32.4043 88.6718 31.343 88.5022 30.8277C87.3784 27.4071 87.0056 23.7432 87.4114 20.1665C86.7041 19.412 85.8501 18.7954 84.9119 18.3619L84.9885 18.4303C83.1845 17.8042 81.1444 17.1876 79.4329 18.0345C78.106 18.6917 77.325 20.0687 76.3327 21.1683C74.4521 23.2508 71.9149 24.3828 69.1109 24.5035C69.0155 26.321 69.1681 28.8894 69.0732 30.7069L67.5443 27.7958L67.5425 27.8105C67.4177 27.5973 67.314 27.3823 67.2139 27.1668L67.1798 27.1014V27.0937C67.0207 26.748 66.8694 26.4017 66.6691 26.0595L66.6515 26.0754C65.6667 26.9441 64.2162 25.6155 64.9924 24.5571C65.1467 24.3469 65.331 24.1596 65.5413 24.0053C65.0913 24.4281 64.4205 24.6301 63.8304 24.4493C63.2403 24.2674 62.7826 23.6707 62.8339 23.0553C62.8686 22.6354 63.169 22.2602 63.5483 22.0941C62.7526 22.1554 61.9393 21.9822 61.2461 21.5864C60.792 21.3273 60.3456 20.9009 60.4999 20.329Z" fill="#2C343A"/>
<path d="M85.5268 16.002C85.5138 16.0184 85.7971 16.1727 86.1741 16.5944C86.548 17.0138 86.9668 17.7441 87.1653 18.7376C87.2666 19.2318 87.3308 19.7842 87.3302 20.3779C87.3331 20.9727 87.2848 21.6094 87.2395 22.2802C87.1959 22.951 87.1482 23.6601 87.1912 24.3975C87.2124 24.7656 87.2571 25.1395 87.3366 25.5141C87.4179 25.8822 87.5145 26.2809 87.7919 26.5972C88.0133 26.8552 88.3832 26.9694 88.7036 26.904C89.0258 26.8463 89.3126 26.6749 89.5228 26.4405C89.9386 25.9558 90.0423 25.341 90.1448 24.7991L90.0099 24.8156C90.2308 25.3027 90.4587 25.7838 90.795 26.1678C91.126 26.5548 91.5848 26.8104 92.0512 26.8522C92.2827 26.8728 92.5171 26.8357 92.7167 26.735C92.9199 26.6361 93.0677 26.4676 93.1684 26.2898C93.265 26.1084 93.3157 25.9099 93.3063 25.7173C93.2951 25.5259 93.2203 25.3445 93.0984 25.2155L93.03 25.2768C93.5283 25.8433 94.0536 26.1484 94.4164 26.3169C94.6002 26.4011 94.7474 26.4517 94.847 26.4841C94.9471 26.5136 94.9995 26.5259 95.0007 26.5224C95.0018 26.5177 94.9524 26.4977 94.8546 26.46C94.7586 26.4205 94.6161 26.3634 94.4382 26.2727C94.086 26.0925 93.5772 25.7797 93.0995 25.2167L93.0312 25.2779C93.2485 25.5082 93.2609 25.9122 93.0742 26.2373C92.98 26.3975 92.8439 26.5477 92.6655 26.6314C92.4876 26.7185 92.2744 26.7515 92.0618 26.7297C91.6342 26.6873 91.206 26.4476 90.8963 26.0801C90.5788 25.7126 90.3585 25.2444 90.14 24.7567L90.047 24.5494L90.0046 24.7726C89.9009 25.3139 89.7908 25.9046 89.4121 26.341C89.2236 26.5513 88.961 26.7061 88.6783 26.7556C88.3956 26.8098 88.097 26.7167 87.9038 26.4959C87.6612 26.222 87.5622 25.8445 87.4833 25.4823C87.405 25.1172 87.3608 24.7508 87.3384 24.3886C87.2942 23.6636 87.3384 22.9598 87.3785 22.2896C87.4197 21.6182 87.4633 20.9792 87.4556 20.3767C87.4503 19.7748 87.3796 19.2153 87.2695 18.7147C87.0545 17.7081 86.6116 16.969 86.2176 16.555C85.8207 16.138 85.5268 16.002 85.5268 16.002Z" fill="#335863"/>
<path d="M65.5557 22.2833L65.6075 22.3275C65.6511 22.3593 65.7041 22.3981 65.7689 22.4453C65.8389 22.4983 65.9291 22.5595 66.0421 22.6208C66.154 22.6844 66.2807 22.7621 66.435 22.8275C67.0345 23.1125 67.9963 23.3952 69.1983 23.3246C70.3886 23.2574 71.818 22.8357 73.0942 21.8858C74.3841 20.9582 75.516 19.5918 76.4418 18.0275C76.9112 17.246 77.2941 16.4444 77.7158 15.7041C78.1351 14.9638 78.5974 14.2794 79.1587 13.7388C79.7123 13.1958 80.3554 12.7941 81.0186 12.6098C81.349 12.512 81.6817 12.4896 81.9992 12.4973C82.3178 12.5138 82.6199 12.5786 82.8973 12.6698C83.4545 12.8559 83.9033 13.1634 84.2437 13.4802C84.5853 13.7994 84.815 14.1357 84.9722 14.4249C85.2655 15.0186 85.282 15.399 85.3056 15.3932L85.3003 15.3254C85.292 15.2718 85.282 15.207 85.2696 15.1275C85.2378 14.9544 85.1636 14.7041 85.0246 14.3984C84.8727 14.1004 84.6459 13.7512 84.302 13.419C83.9592 13.0892 83.5034 12.7676 82.9321 12.5685C82.647 12.4714 82.3361 12.4013 82.0057 12.3807C81.677 12.3695 81.3272 12.3901 80.985 12.4896C80.2965 12.6751 79.631 13.0862 79.0615 13.6393C78.4849 14.1899 78.0114 14.8861 77.5874 15.6311C77.1604 16.3767 76.7775 17.1759 76.3117 17.9504C75.3935 19.5029 74.278 20.8545 73.013 21.7733C71.7603 22.7144 70.3645 23.1373 69.1913 23.218C68.0092 23.301 67.0593 23.0389 66.4591 22.7739C65.8548 22.5042 65.5674 22.265 65.5557 22.2833Z" fill="#335863"/>
<path d="M64.9675 19.4463C64.9628 19.4557 65.0446 19.5122 65.1989 19.6076C65.3521 19.706 65.5865 19.8273 65.8851 19.9563C66.1825 20.0876 66.5518 20.2101 66.9705 20.3126C67.3904 20.4074 67.861 20.4781 68.3581 20.4964C68.8563 20.5099 69.3304 20.4699 69.7557 20.4015C70.1797 20.3262 70.556 20.2278 70.8617 20.1153C71.168 20.0058 71.4094 19.9003 71.5679 19.812C71.7281 19.726 71.814 19.6754 71.8093 19.6659C71.797 19.6406 71.4406 19.8238 70.8287 20.014C70.5236 20.1118 70.1508 20.1978 69.7339 20.2643C69.3151 20.3232 68.851 20.3586 68.3634 20.3456C67.8757 20.3273 67.4146 20.2626 67.0011 20.1772C66.5889 20.0835 66.2231 19.974 65.9245 19.8574C65.3261 19.6283 64.9816 19.4221 64.9675 19.4463Z" fill="#335863"/>
<path d="M70.2463 29.174C70.3747 29.3048 71.1197 28.7052 72.201 28.6758C73.2806 28.631 74.0898 29.1775 74.2029 29.0385C74.2588 28.9761 74.1257 28.7376 73.773 28.4902C73.4261 28.2435 72.8389 28.0108 72.1657 28.0338C71.4925 28.0579 70.9324 28.3283 70.6144 28.5986C70.2893 28.8695 70.1833 29.1157 70.2463 29.174Z" fill="#2C343A"/>
<path d="M71.8107 30.9897C71.8277 31.452 72.2329 31.8177 72.7159 31.8089C73.1976 31.7995 73.5752 31.4184 73.5581 30.9561C73.541 30.4944 73.1352 30.128 72.6529 30.1369C72.1705 30.1457 71.793 30.5279 71.8107 30.9897Z" fill="#2C343A"/>
<path d="M134.496 51.7375C134.404 51.6976 130.792 50.6378 130.906 54.3247C131.02 58.0115 134.698 57.1363 134.701 57.0305C134.704 56.9244 134.496 51.7375 134.496 51.7375Z" fill="#EAECF0"/>
<path d="M133.532 55.669C133.515 55.6578 133.469 55.7162 133.362 55.7694C133.257 55.821 133.076 55.86 132.882 55.7941C132.488 55.6631 132.141 55.0549 132.102 54.3909C132.083 54.0558 132.143 53.734 132.253 53.4659C132.358 53.1926 132.526 52.999 132.721 52.9578C132.915 52.9067 133.058 53.0198 133.106 53.1222C133.159 53.2236 133.137 53.2981 133.157 53.3038C133.168 53.3127 133.235 53.2397 133.2 53.0883C133.182 53.0154 133.137 52.9296 133.048 52.8616C132.957 52.7926 132.826 52.7597 132.69 52.7788C132.406 52.8074 132.158 53.0769 132.036 53.3713C131.899 53.6676 131.823 54.0293 131.846 54.4058C131.892 55.1479 132.294 55.8314 132.832 55.969C133.093 56.0284 133.307 55.9437 133.416 55.853C133.528 55.7584 133.544 55.6753 133.532 55.669Z" fill="#C1C7D2"/>
<path d="M59.043 81.9521L73.7664 120.34L63.1101 120.357L50.3931 89.0535L59.043 81.9521Z" fill="#EAECF0"/>
<path d="M84.8134 63.7748C84.8127 63.8124 84.1318 63.8296 83.293 63.8137C82.4537 63.7975 81.7741 63.754 81.7749 63.7167C81.7757 63.6792 82.4563 63.6617 83.2956 63.6779C84.1344 63.6941 84.814 63.7373 84.8134 63.7748Z" fill="#2C343A"/>
<path d="M36.605 62.5977C36.605 62.5977 37.6142 68.3241 38.5705 69.5404C39.527 70.7571 40.1467 74.5458 40.1467 74.5458L47.9712 71.7287L47.4461 68.8541L47.9219 61.6031C47.9219 61.6031 45.2448 57.1346 45.3482 57.287C45.4517 57.4395 36.605 62.5977 36.605 62.5977Z" fill="#FAB499"/>
<path d="M36.6122 62.6013C36.6456 62.7894 37.6423 68.3501 38.5757 69.5367C39.0705 70.1662 39.4731 71.4946 39.7235 72.4984C39.982 73.5331 40.1362 74.4443 40.1516 74.5376L47.9636 71.7247L47.4396 68.8558L47.9151 61.6054C47.8851 61.5554 47.2504 60.4959 46.6248 59.4489C46.2503 58.8222 45.952 58.3227 45.7388 57.9641C45.6119 57.7513 45.5142 57.5866 45.4477 57.4743C45.3907 57.3771 45.3625 57.3291 45.3495 57.3052C45.0986 57.6502 37.0151 62.3665 36.6122 62.6013ZM40.1414 74.5551L40.1401 74.5473C40.1339 74.5095 39.5101 70.7463 38.5655 69.545C38.0704 68.9158 37.562 67.0605 37.2228 65.6148C36.8551 64.049 36.601 62.6135 36.5984 62.599L36.5977 62.5948L36.6016 62.5924C36.6235 62.5797 38.8172 61.3003 40.9805 60.013C44.7609 57.7635 45.3391 57.3409 45.3425 57.2916L45.3417 57.2895L45.3407 57.2882L45.3409 57.288L45.3417 57.2783L45.3534 57.2838L45.3555 57.2898C45.4709 57.4998 47.9023 61.5585 47.9274 61.6002L47.9284 61.602L47.9281 61.6041L47.4523 68.855L47.9784 71.7333L47.9732 71.7354L40.1414 74.5551Z" fill="#F69270"/>
<path d="M62.3753 60.1797C62.3753 60.1797 58.3336 61.4192 57.7095 65.6739C57.4205 67.642 54.4706 85.7888 54.4706 85.7888L49.9001 72.8125L37.8989 77.2634C37.8989 77.2634 42.2687 90.7097 42.5392 91.499C44.7851 98.0545 46.655 107.292 56.8629 106.261C67.4846 105.19 65.4889 84.5552 65.4889 84.5552L62.3753 60.1797Z" fill="#20A789"/>
<path d="M45.1318 53.0168C45.2071 53.0632 46.2622 54.1096 47.2782 54.9156C48.2941 55.7218 48.6102 55.7828 48.8914 57.009C49.1728 58.2353 49.6343 62.1931 49.5165 63.0778C49.3987 63.9624 46.375 69.7065 46.375 69.7065C46.375 69.7065 43.4936 70.7602 43.2961 66.9332C43.0986 63.1062 46.4115 60.6891 46.4115 60.6891L45.9683 57.7449C45.9683 57.7449 44.3624 56.2117 44.1813 54.9833C44.0004 53.755 44.5552 52.6629 45.1318 53.0168Z" fill="#FAB499"/>
<path d="M38.7294 60.5384C37.4696 59.9034 36.9039 60.5994 36.6847 61.0043C36.4653 61.409 36.4458 61.9242 36.5617 62.3627C36.6777 62.8013 36.9153 63.1731 37.1798 63.5006C37.5454 63.9532 38.0032 64.353 38.5444 64.3905C39.0856 64.428 39.7431 63.7503 39.8116 63.104" fill="#FAB499"/>
<path d="M39.8114 63.1043C39.8161 63.1048 39.8158 63.1353 39.8109 63.1939C39.8051 63.2523 39.789 63.3383 39.7517 63.4441C39.6785 63.6539 39.517 63.9512 39.198 64.2055C39.0372 64.3238 38.8324 64.447 38.5768 64.4465C38.3313 64.4426 38.0794 64.3561 37.8516 64.2138C37.6234 64.0713 37.4173 63.8787 37.2283 63.6622C37.0405 63.4454 36.8615 63.2059 36.7161 62.9347C36.4211 62.3945 36.346 61.7624 36.5152 61.2472C36.684 60.7341 37.0819 60.3566 37.49 60.274C37.8957 60.1856 38.2222 60.3013 38.4241 60.3798C38.5291 60.4173 38.6029 60.4634 38.6547 60.4897C38.7058 60.5179 38.7313 60.5345 38.7292 60.5387C38.7238 60.5504 38.6133 60.4973 38.4064 60.4293C38.2031 60.3667 37.8829 60.2732 37.5131 60.367C37.1447 60.4519 36.7854 60.8076 36.6342 61.285C36.4841 61.7657 36.555 62.3565 36.8359 62.8708C36.9743 63.1296 37.1476 63.3633 37.3289 63.5752C37.5103 63.7862 37.7062 63.9717 37.9183 64.108C38.1291 64.244 38.361 64.3261 38.5789 64.3339C38.7926 64.3405 38.9869 64.2355 39.1404 64.1286C39.4482 63.8991 39.6178 63.621 39.7025 63.4248C39.7877 63.2255 39.7986 63.1022 39.8114 63.1043Z" fill="#F69270"/>
<path d="M40.3752 58.0458C40.0297 57.9299 39.6693 57.8343 39.3045 57.8869C38.9395 57.9398 38.5655 58.1655 38.379 58.5519C38.2211 58.8797 38.2169 59.2703 38.2458 59.634C38.379 61.316 39.1523 62.862 40.3025 63.787C40.6298 64.0502 41.0759 64.0729 41.4318 63.8126C41.6622 63.6443 41.8839 63.4024 42.0614 62.3932" fill="#FAB499"/>
<path d="M42.0613 62.3938C42.0657 62.3946 42.0633 62.4331 42.0542 62.5056C42.0451 62.5783 42.0284 62.6851 41.9995 62.8214C41.9703 62.9574 41.931 63.1242 41.8572 63.3107C41.7866 63.4944 41.6647 63.711 41.4502 63.8585C41.2444 64.0125 40.9405 64.1021 40.638 64.0205C40.489 63.9825 40.3415 63.9028 40.2221 63.7975C40.0999 63.6985 39.9806 63.5896 39.862 63.4731C39.3938 63.0035 38.9763 62.3909 38.678 61.6871C38.3757 60.9836 38.2295 60.2607 38.1806 59.602C38.1579 59.2726 38.1699 58.9461 38.2738 58.659C38.3757 58.37 38.5824 58.1504 38.8023 58.0201C39.0238 57.888 39.2593 57.8371 39.46 57.8361C39.6622 57.8332 39.8326 57.8671 39.9678 57.9015C40.1033 57.9364 40.2052 57.9729 40.2735 57.999C40.342 58.0253 40.3767 58.0422 40.3751 58.0464C40.3717 58.0576 40.2253 58.0086 39.9561 57.9528C39.6955 57.9044 39.2661 57.8418 38.8526 58.1019C38.6517 58.2283 38.4687 58.4313 38.3799 58.6965C38.2884 58.9618 38.2796 59.2716 38.3054 59.5931C38.3604 60.2386 38.5071 60.9458 38.8028 61.6342C39.0949 62.3229 39.4991 62.9225 39.9509 63.3853C40.0653 63.4997 40.1802 63.6075 40.2982 63.7055C40.4103 63.8069 40.5346 63.8746 40.6669 63.9119C40.9327 63.988 41.2029 63.9158 41.3945 63.7803C41.5961 63.6484 41.7105 63.4582 41.7874 63.2813C41.8651 63.1041 41.9117 62.9415 41.9482 62.8089C42.0196 62.5423 42.0503 62.3917 42.0613 62.3938Z" fill="#F69270"/>
<path d="M42.6607 56.7685C42.2829 56.4193 41.7899 56.208 41.2992 56.3098C40.8086 56.4115 40.3406 56.8753 40.2535 57.4582C40.2022 57.8037 40.2814 58.1466 40.3679 58.4721C40.6853 59.6694 41.1056 60.8217 41.6205 61.9059C41.7471 62.1727 41.8868 62.4445 42.1047 62.6079C42.4551 62.8703 42.9497 62.7861 43.3137 62.4964C43.6777 62.2063 43.9268 61.7876 44.0764 60.9355" fill="#FAB499"/>
<path d="M44.076 60.9355C44.0807 60.9362 44.0776 60.9774 44.0672 61.0556C44.0567 61.1335 44.0367 61.2482 44.0023 61.3941C43.9671 61.5397 43.915 61.7172 43.8241 61.9124C43.7336 62.1067 43.5953 62.3196 43.3863 62.4979C43.1815 62.6764 42.8933 62.8283 42.5577 62.8207C42.3917 62.8168 42.2176 62.7639 42.072 62.6579C41.9271 62.5513 41.8174 62.4038 41.7264 62.2488C41.3908 61.6179 41.0917 60.9047 40.8137 60.1368C40.6758 59.753 40.5547 59.3736 40.4473 59.0044C40.3446 58.6341 40.2334 58.2807 40.1888 57.9201C40.1414 57.5613 40.2159 57.1968 40.3897 56.9213C40.5612 56.6444 40.8051 56.444 41.0599 56.3369C41.3171 56.228 41.5779 56.2269 41.7898 56.2686C42.0034 56.3106 42.1731 56.3942 42.3021 56.4716C42.4308 56.5508 42.5212 56.6253 42.5788 56.6793C42.6366 56.7335 42.6632 56.7653 42.6603 56.7684C42.6517 56.7788 42.5337 56.6595 42.2757 56.5175C42.1468 56.4492 41.98 56.376 41.7762 56.3431C41.5745 56.3106 41.3317 56.3194 41.0979 56.425C40.8647 56.5292 40.6406 56.7204 40.4861 56.9794C40.3298 57.2385 40.2657 57.5657 40.3131 57.9058C40.3577 58.2451 40.471 58.6002 40.5747 58.9671C40.6834 59.3332 40.8045 59.71 40.9416 60.0909C41.216 60.8508 41.5149 61.5705 41.8346 62.186C41.9195 62.3342 42.0191 62.4684 42.1431 62.562C42.2669 62.6542 42.4149 62.7021 42.5618 62.7081C42.8586 62.7201 43.1289 62.588 43.3243 62.4246C43.7287 62.0898 43.8626 61.6552 43.9512 61.38C44.0343 61.096 44.0648 60.9331 44.076 60.9355Z" fill="#F69270"/>
<path d="M45.4646 57.1042C45.685 57.7087 45.877 58.3398 45.938 58.9902C45.999 59.6409 45.8958 60.3343 45.5404 60.8124C45.185 61.2908 44.5432 61.4844 44.0674 61.1449C43.7719 60.9341 43.5814 60.5641 43.4274 60.1969C43.1379 59.5075 42.9326 58.7755 42.7413 58.0423C42.6441 57.6691 42.5495 57.2897 42.5388 56.9028C42.5282 56.5161 42.5649 56.151 42.7022 55.8128C42.8429 55.4657 43.5814 54.875 44.2612 55.3633C44.2612 55.3633 45.0177 55.8793 45.4646 57.1042Z" fill="#FAB499"/>
<path d="M45.4649 57.1045C45.4527 57.1095 45.3816 56.9075 45.2002 56.5706C45.1082 56.4033 44.9871 56.2027 44.82 55.9893C44.6525 55.7813 44.4461 55.5372 44.1662 55.3613C43.8885 55.1818 43.483 55.1862 43.1584 55.4056C42.9984 55.5088 42.8399 55.6547 42.7599 55.8311C42.6818 56.0239 42.6346 56.2371 42.6148 56.4586C42.5697 56.9052 42.632 57.3721 42.7605 57.8479C42.884 58.3258 43.0156 58.8206 43.1766 59.3173C43.3428 59.8095 43.5101 60.301 43.7618 60.7108C43.8903 60.9117 44.0537 61.0892 44.2569 61.178C44.4589 61.2679 44.69 61.2739 44.894 61.207C45.3151 61.0803 45.5895 60.7147 45.7268 60.3507C45.8709 59.9825 45.9074 59.6055 45.9058 59.2675C45.8894 58.5867 45.7336 58.0454 45.6322 57.6778C45.5801 57.5055 45.5376 57.3653 45.5043 57.2543C45.4746 57.1577 45.4605 57.1061 45.4649 57.1045C45.4694 57.103 45.492 57.1514 45.5301 57.2455C45.5681 57.3393 45.621 57.4792 45.6825 57.6621C45.8 58.0277 45.9723 58.5676 46.0017 59.2657C46.0095 59.6125 45.9785 60.0018 45.8318 60.3911C45.7591 60.5855 45.6549 60.7773 45.5069 60.9477C45.3565 61.1147 45.1611 61.2541 44.9313 61.3263C44.7043 61.4027 44.4385 61.3995 44.2043 61.2964C43.9669 61.1934 43.7871 60.9954 43.6501 60.7828C43.3817 60.3479 43.217 59.8585 43.0473 59.3593C42.8848 58.8571 42.7539 58.361 42.6315 57.8802C42.5713 57.6392 42.5186 57.3982 42.4926 57.1569C42.4665 56.9146 42.4689 56.6777 42.4902 56.4466C42.5129 56.2154 42.564 55.9911 42.6497 55.7852C42.7524 55.5687 42.9218 55.4238 43.0984 55.3105C43.2767 55.1982 43.4781 55.1317 43.6766 55.1283C43.8754 55.1223 44.0649 55.1836 44.2158 55.2789C44.5157 55.4765 44.7127 55.725 44.8805 55.9434C45.0449 56.1654 45.1611 56.3731 45.2471 56.5464C45.3334 56.7194 45.3883 56.8596 45.4212 56.9557C45.4543 57.0519 45.4694 57.103 45.4649 57.1045Z" fill="#F69270"/>
<path d="M45.9683 57.7451C45.9748 57.7441 45.9923 57.8176 46.0191 57.9557C46.0475 58.1141 46.0832 58.3129 46.1262 58.5542C46.2138 59.0941 46.3318 59.8219 46.471 60.6802L46.4788 60.7284L46.4319 60.7461C46.0913 60.8741 45.7424 61.063 45.4216 61.3238C45.0998 61.5831 44.8062 61.9083 44.5445 62.2728C43.5945 63.4751 43.4165 64.8856 43.3493 65.8594C43.3225 66.3518 43.3433 66.7516 43.3741 67.0257C43.404 67.3001 43.446 67.4481 43.4322 67.4515C43.4277 67.4528 43.4147 67.4165 43.3936 67.3462C43.3704 67.2761 43.3464 67.1706 43.3219 67.0332C43.2743 66.7581 43.2386 66.3539 43.2534 65.8549C43.2727 65.357 43.3316 64.7626 43.4937 64.1203C43.5765 63.8003 43.6823 63.4663 43.8499 63.1413C44.0187 62.8229 44.2123 62.5055 44.4343 62.1936C44.7014 61.8215 45.0047 61.4872 45.3393 61.2209C45.6726 60.9533 46.0371 60.7605 46.391 60.6325L46.3519 60.6982C46.2323 59.8367 46.1309 59.1066 46.0556 58.5649C46.0259 58.3215 46.0014 58.1211 45.9819 57.9614C45.9668 57.8215 45.9621 57.7462 45.9683 57.7451Z" fill="#F69270"/>
<path d="M56.1341 95.5014C56.1247 95.5027 56.094 95.3682 56.046 95.1233C55.9957 94.8536 55.9306 94.5047 55.8524 94.0854C55.6901 93.1836 55.4743 91.9837 55.2356 90.6574C54.9975 89.3175 54.7929 88.1024 54.6577 87.2209C54.5899 86.78 54.5381 86.423 54.5065 86.1755C54.4748 85.928 54.4615 85.7906 54.4706 85.7891C54.48 85.7875 54.5107 85.9222 54.5587 86.1669C54.609 86.4369 54.6741 86.7858 54.7523 87.205C54.9143 88.1066 55.1304 89.3068 55.369 90.6336C55.6072 91.973 55.8118 93.1878 55.947 94.0696C56.0147 94.5102 56.0663 94.8674 56.0981 95.115C56.1299 95.3623 56.1432 95.4998 56.1341 95.5014Z" fill="#2C343A"/>
<path d="M38.5196 77.0336L37.3491 73.0494L48.2205 69.5986L49.2135 73.0272L38.5196 77.0336Z" fill="#335863"/>
<path d="M56.9615 98.8942C56.9584 98.8942 56.9553 98.8942 56.9522 98.8939C56.6231 98.8861 56.4928 98.4702 56.4542 98.1435C56.0571 94.7956 55.2446 91.0858 54.7209 87.6278C54.853 88.4598 55.032 89.5128 55.2352 90.6569C55.4739 91.9833 55.6897 93.1832 55.852 94.085C55.9302 94.5043 55.9953 94.8532 56.0456 95.1229C56.0933 95.3665 56.1241 95.501 56.1334 95.501C56.1426 95.4994 56.1295 95.3618 56.0977 95.1146C56.066 94.867 56.0144 94.5098 55.9466 94.0691C55.8114 93.1874 55.6068 91.9726 55.3687 90.6332C55.13 89.3064 54.914 88.1062 54.7519 87.2046C54.6737 86.7854 54.6086 86.4364 54.5583 86.1665C54.5197 85.969 54.4921 85.8434 54.478 85.8027C56.4824 89.4706 57.3889 93.8685 57.4358 98.0476C57.4397 98.4092 57.319 98.8942 56.9615 98.8942Z" fill="#038064"/>
<path d="M56.1334 95.5014C56.1241 95.5014 56.0933 95.3669 56.0456 95.1233C55.9953 94.8536 55.9302 94.5047 55.852 94.0854C55.6897 93.1836 55.4739 91.9837 55.2353 90.6573C55.032 89.5132 54.853 88.4602 54.7209 87.6282C54.6266 87.0057 54.5416 86.3915 54.4702 85.7891C54.4728 85.7938 54.4754 85.7984 54.478 85.8031C54.4921 85.8438 54.5197 85.9694 54.5583 86.1669C54.6086 86.4368 54.6737 86.7858 54.7519 87.205C54.914 88.1066 55.13 89.3068 55.3687 90.6336C55.6068 91.973 55.8114 93.1878 55.9466 94.0695C56.0144 94.5102 56.066 94.8674 56.0977 95.115C56.1295 95.3622 56.1426 95.4998 56.1334 95.5014Z" fill="#335863"/>
<path d="M138.645 40.7699C138.647 40.7683 138.648 40.7665 138.649 40.7646L138.645 40.7699Z" fill="#929596"/>
<path d="M99.8869 78.447L93.9717 50.2856L91.6601 46.6162C87.4574 51.6028 82.5138 53.8909 76.3067 51.5757C76.3067 51.5757 75.1961 53.8419 75.199 54.1139L69.2988 58.1471L71.7185 89.1935L69.6308 98.7633L70.4407 120.173H103.499L99.8869 78.447Z" fill="#335863"/>
<path d="M73.5962 54.9795C73.2082 55.2382 62.1514 60.2819 62.1514 60.2819L65.0101 105.657L62.9003 120.241L72.1618 120.173C72.1618 120.173 73.5462 113.288 73.9342 101.648C74.3222 90.0072 73.5962 54.9795 73.5962 54.9795Z" fill="#20A789"/>
<path d="M93.387 49.2627C93.387 49.2627 92.039 97.8415 92.815 101.204C93.591 104.567 97.1996 120.173 97.1996 120.173H117.25L108.726 97.0481L110.302 73.7805L108.726 51.4648L98.8965 51.206L93.387 49.2627Z" fill="#20A789"/>
<path d="M61.9453 66.791C61.9476 66.7908 61.9526 66.8246 61.9604 66.8906C61.968 66.9635 61.9781 67.0607 61.9909 67.1847C62.0151 67.451 62.0495 67.831 62.0936 68.3164C62.1788 69.2995 62.2958 70.7228 62.4287 72.4822C62.561 74.2418 62.7109 76.3376 62.8498 78.6666C62.9183 79.8314 62.986 81.0542 63.0353 82.3232C63.0903 83.593 63.0991 84.9065 63.1794 86.2488C63.324 88.936 63.5489 91.4917 63.7654 93.814C63.9845 96.1365 64.2039 98.2257 64.3926 99.9796C64.5854 101.728 64.7418 103.145 64.8507 104.133C64.9041 104.618 64.9458 104.996 64.9752 105.262C64.9878 105.386 64.9974 105.483 65.0047 105.556C65.0107 105.623 65.0128 105.657 65.0104 105.657C65.0081 105.658 65.0016 105.624 64.9909 105.558C64.9805 105.486 64.9661 105.389 64.9481 105.266C64.9127 105.001 64.8627 104.623 64.7983 104.139C64.6725 103.161 64.4987 101.743 64.2972 99.9903C64.0963 98.2372 63.867 96.1484 63.6411 93.826C63.4173 91.5032 63.1885 88.947 63.0439 86.2558C62.9634 84.9107 62.9555 83.5946 62.9026 82.3284C62.855 81.0608 62.7901 79.8381 62.7249 78.6739C62.5928 76.3454 62.4532 74.2494 62.333 72.4892C62.21 70.7348 62.1105 69.3126 62.0409 68.3206C62.0078 67.8343 61.9818 67.4537 61.9638 67.1868C61.9565 67.0625 61.9508 66.9648 61.9466 66.8919C61.9435 66.8252 61.943 66.791 61.9453 66.791Z" fill="#335863"/>
<path d="M96.1331 50.2862C96.1346 50.2854 96.1445 50.3049 96.1628 50.3437C96.1826 50.3875 96.2086 50.4448 96.242 50.5183C96.3118 50.6786 96.4114 50.9074 96.5403 51.2031C96.796 51.8048 97.1618 52.691 97.5933 53.8299C98.4558 56.1068 99.5747 59.4049 100.528 63.449L100.54 63.5032L100.487 63.5196C99.9312 63.6905 99.3272 63.8763 98.7099 64.0663L98.7057 63.9467C99.1218 64.0444 99.5025 64.2854 99.7928 64.6085C100.082 64.933 100.297 65.3267 100.424 65.7517C100.678 66.6129 100.563 67.5395 100.372 68.4251C99.951 70.1944 99.514 72.0346 99.0656 73.9217C97.3505 81.0663 95.798 87.5332 94.6728 92.2204C94.1053 94.5562 93.6457 96.4482 93.3264 97.762C93.1657 98.4113 93.0403 98.9174 92.9538 99.2671C92.9108 99.4346 92.8775 99.5646 92.8535 99.6577C92.8303 99.7455 92.8149 99.7898 92.8149 99.7898C92.8149 99.7898 92.8212 99.7434 92.84 99.6545C92.8608 99.5605 92.8897 99.4297 92.9272 99.2608C93.008 98.9098 93.125 98.4017 93.2751 97.7497C93.5844 96.4336 94.0297 94.5382 94.5795 92.1982C95.6948 87.5087 97.2337 81.0384 98.9337 73.8901C99.3827 72.0044 99.8207 70.1655 100.242 68.3973C100.433 67.5191 100.543 66.6131 100.301 65.7887C100.18 65.3804 99.9729 65.0025 99.6988 64.6932C99.4231 64.3857 99.0663 64.1598 98.6778 64.0673L98.4553 64.0142L98.6737 63.9477C99.2912 63.7596 99.896 63.5754 100.452 63.4057L100.412 63.4761C99.4715 59.4356 98.3704 56.1365 97.5277 53.8547C97.1061 52.7129 96.7509 51.8233 96.5062 51.2172C96.3845 50.9188 96.2905 50.6877 96.2245 50.5259C96.1948 50.4506 96.1716 50.3922 96.1542 50.3477C96.1388 50.3075 96.1318 50.2867 96.1331 50.2862Z" fill="#335863"/>
<path d="M73.1703 101.205C73.1703 101.205 73.1622 101.162 73.1528 101.077C73.1437 100.987 73.1312 100.862 73.1153 100.702C73.0843 100.366 73.0395 99.8805 72.9821 99.2585C72.8644 98.0052 72.6916 96.1919 72.4607 93.9528C72.0034 89.4746 71.2947 83.2961 70.558 76.4663C70.3642 74.6425 70.1789 72.8644 70.0142 71.156C69.9332 70.3076 69.8292 69.4472 70.0335 68.6298C70.1346 68.2238 70.3219 67.8431 70.5859 67.5297C70.8483 67.217 71.1995 66.9736 71.5935 66.8816L71.6162 67.003C70.9028 67.1 70.2159 67.1935 69.5509 67.2839L69.46 67.2964L69.4865 67.2086C70.5825 63.6145 71.4969 60.6154 72.1392 58.5086C72.462 57.4635 72.7163 56.6403 72.892 56.0718C72.9793 55.7958 73.047 55.5819 73.0947 55.431C73.1174 55.3625 73.1353 55.3088 73.1489 55.2674C73.1617 55.2309 73.1687 55.2124 73.1703 55.2129C73.1718 55.2134 73.1677 55.2327 73.158 55.27C73.1465 55.3122 73.1317 55.3666 73.1124 55.4365C73.0689 55.5884 73.0069 55.8039 72.9266 56.0824C72.7586 56.6528 72.5147 57.4794 72.2051 58.5284C71.574 60.6388 70.6758 63.6427 69.5994 67.2425L69.535 67.1672C70.1995 67.075 70.8863 66.9796 71.5995 66.8806L71.6222 67.0017C71.2584 67.0877 70.9306 67.3144 70.6826 67.6112C70.4329 67.9085 70.2544 68.2725 70.1586 68.6608C69.9626 69.4472 70.0629 70.2928 70.1463 71.1433C70.3219 72.85 70.5051 74.6279 70.693 76.4519C71.4294 83.2808 72.1233 89.4615 72.5561 93.9434C72.775 96.1838 72.9331 97.9989 73.0348 99.2539C73.0811 99.8769 73.1174 100.363 73.1424 100.7C73.1528 100.861 73.1609 100.986 73.1666 101.076C73.1713 101.161 73.1703 101.205 73.1703 101.205Z" fill="#335863"/>
<path d="M98.9795 105.623C98.98 105.761 101.443 110.111 101.443 110.111L114.567 110.041L111.657 105.59L98.9795 105.623Z" fill="#20A789"/>
<path d="M98.9796 105.623C98.978 105.621 98.9976 105.62 99.0369 105.618C99.0828 105.617 99.1411 105.616 99.2144 105.614C99.3803 105.611 99.6125 105.608 99.9101 105.604C100.53 105.598 101.419 105.59 102.534 105.579C104.796 105.566 107.97 105.547 111.657 105.525L111.692 105.524L111.711 105.554C112.618 106.939 113.602 108.443 114.624 110.003L114.692 110.107L114.567 110.108C114.528 110.108 114.486 110.108 114.443 110.109C109.337 110.128 104.725 110.145 101.443 110.157H101.415L101.402 110.133C100.625 108.747 100.007 107.626 99.5896 106.848C99.3809 106.459 99.2214 106.156 99.1187 105.948C99.0661 105.844 99.0309 105.763 99.0062 105.709C98.9837 105.649 98.9791 105.62 98.9796 105.623C98.99 105.645 99.0012 105.667 99.0187 105.703C99.0497 105.761 99.0906 105.838 99.1427 105.935C99.2589 106.145 99.4241 106.443 99.6349 106.823C100.074 107.598 100.704 108.71 101.484 110.087L101.443 110.063C104.725 110.04 109.336 110.008 114.443 109.973C114.485 109.973 114.527 109.973 114.567 109.972L114.51 110.077C113.491 108.516 112.508 107.01 111.603 105.625L111.657 105.654C107.988 105.651 104.829 105.649 102.578 105.647C101.457 105.642 100.562 105.639 99.939 105.636C99.636 105.633 99.3991 105.631 99.23 105.63C99.1536 105.628 99.0929 105.627 99.045 105.626C99.003 105.625 98.9809 105.624 98.9796 105.623Z" fill="#335863"/>
<path d="M93.3872 97.6133C93.3872 97.6133 97.153 82.7171 99.1917 73.392C99.5961 71.69 99.9909 70.0288 100.372 68.4252C100.563 67.5396 100.678 66.613 100.424 65.7518C100.298 65.3268 100.082 64.9331 99.7931 64.6086C99.5503 64.3384 99.2441 64.1255 98.9069 64.0059C99.4554 63.8371 99.9906 63.6724 100.488 63.5197L100.541 63.5033L100.528 63.4491C99.8137 60.4173 99.0059 57.8048 98.2828 55.7275L101.727 63.6523L100.506 64.3918C100.506 64.3918 102.222 65.9889 100.901 71.6863C99.58 77.3835 93.3872 97.6133 93.3872 97.6133ZM100.087 69.0498C100.265 68.093 100.389 67.3251 100.44 66.8061C100.443 67.3306 100.357 67.8689 100.242 68.3974C100.191 68.6139 100.139 68.8312 100.087 69.0498ZM100.121 62.269L98.3123 56.0791C98.896 57.8147 99.5307 59.8988 100.121 62.269Z" fill="#038064"/>
<path d="M99.1915 73.3918C99.5553 71.728 99.8641 70.2425 100.087 69.0496C100.139 68.8309 100.19 68.6136 100.242 68.3971C100.357 67.8686 100.443 67.3303 100.44 66.8058C100.47 66.5038 100.476 66.2859 100.454 66.1642C100.09 64.1104 98.692 64.0067 98.692 64.0067L100.47 63.4624L100.121 62.2687C99.5305 59.8985 98.8958 57.8144 98.3121 56.0788L98.0591 55.2129L98.2827 55.7273C99.0057 57.8045 99.8135 60.417 100.528 63.4488L100.541 63.503L100.487 63.5194C99.9904 63.6721 99.4552 63.8368 98.9067 64.0057C99.2439 64.1253 99.5501 64.3381 99.7929 64.6084C100.082 64.9328 100.297 65.3265 100.424 65.7515C100.678 66.6127 100.563 67.5393 100.372 68.425C99.9907 70.0285 99.5959 71.6897 99.1915 73.3918Z" fill="#335863"/>
<path d="M126.849 37.7275C126.849 37.7275 126.163 37.0667 124.947 37.703C124.947 37.703 123.676 38.3727 123.497 38.9319C123.318 39.4908 123.6 40.2519 123.836 40.8171C124.071 41.3823 125.471 43.4742 125.471 43.4742C125.471 43.4742 125.469 45.2325 126.648 47.0865C127.827 48.9405 129.804 48.9941 130.18 50.3332C130.556 51.6723 130.691 52.0746 130.472 52.9945C130.254 53.9145 129.879 55.4913 129.879 55.4913L137.59 59.4309C137.59 59.4309 138.084 53.8796 137.937 50.605C137.79 47.3304 137.785 44.0433 137.992 42.9817C138.198 41.9198 137.921 40.359 137.59 40.1946C137.59 40.1946 138.492 37.9633 137.392 37.3314C136.293 36.6998 129.257 34.5631 128.496 34.8448C127.735 35.1265 127.452 35.5118 127.254 36.3441C127.056 37.1764 126.849 37.7275 126.849 37.7275Z" fill="#FAB499"/>
<path d="M133.425 43.3244C133.425 43.3244 133.337 43.2481 133.24 43.0555C133.147 42.8726 133.054 42.5159 133.276 42.1498L133.292 42.2058C133.003 42.0977 132.664 41.9708 132.284 41.829L132.347 41.768C132.437 42.0216 132.536 42.3001 132.641 42.5948L132.628 42.5748C132.74 42.6897 132.847 42.8184 132.936 42.9667C133.021 43.1181 133.086 43.2953 133.085 43.4837C133.09 43.8612 132.848 44.2396 132.481 44.4126C132.298 44.4999 132.082 44.5325 131.875 44.4947C131.772 44.4728 131.671 44.4418 131.58 44.403C131.485 44.3683 131.391 44.3276 131.298 44.2847C130.924 44.1155 130.564 43.8914 130.229 43.622C130.003 43.4367 129.794 43.2413 129.613 43.0149L129.658 43.0412C129.176 42.9763 128.702 42.8054 128.363 42.4831C128.02 42.1644 127.846 41.7235 127.835 41.3003L127.88 41.3597C127.572 41.2644 127.295 41.1312 127.062 40.9488C126.946 40.8571 126.843 40.7515 126.768 40.6288C126.698 40.4905 126.684 40.3529 126.676 40.2231C126.659 39.7027 126.737 39.2605 126.793 38.8963C126.855 38.5322 126.916 38.2485 126.96 38.0554C127.005 37.8623 127.035 37.7602 127.042 37.7617C127.048 37.763 127.031 37.8678 126.997 38.0627C126.965 38.2579 126.915 38.5435 126.864 38.907C126.817 39.2694 126.751 39.7158 126.776 40.2163C126.783 40.3398 126.804 40.4693 126.858 40.5733C126.926 40.6815 127.021 40.7771 127.13 40.8612C127.349 41.0288 127.622 41.1567 127.911 41.2435L127.954 41.2563L127.956 41.3032C127.97 41.6818 128.134 42.1003 128.452 42.3885C128.766 42.6842 129.211 42.8455 129.675 42.9075L129.702 42.9109L129.72 42.9336C129.888 43.1426 130.096 43.3383 130.315 43.5165C130.64 43.7789 130.991 43.9975 131.354 44.163C131.445 44.2052 131.535 44.2448 131.628 44.2789C131.72 44.3185 131.809 44.3451 131.898 44.3649C132.079 44.3985 132.265 44.3714 132.426 44.2959C132.75 44.1463 132.967 43.8115 132.964 43.4834C132.967 43.1514 132.758 42.8723 132.549 42.6509L132.541 42.6417L132.537 42.6308C132.437 42.3345 132.342 42.0544 132.256 41.7998L132.222 41.7003L132.319 41.7389C132.695 41.8887 133.032 42.0229 133.319 42.1373L133.362 42.1542L133.335 42.1936C133.232 42.3468 133.197 42.5247 133.197 42.6709C133.199 42.8197 133.235 42.9448 133.276 43.0399C133.358 43.2309 133.435 43.3182 133.425 43.3244Z" fill="#F69270"/>
<path d="M135.874 39.4407C135.872 39.4498 135.738 39.4297 135.499 39.3857C135.236 39.3338 134.896 39.2669 134.488 39.1866C134.054 39.0959 133.549 38.9906 132.993 38.8744C132.711 38.814 132.416 38.7509 132.111 38.6855C131.806 38.6217 131.49 38.5393 131.177 38.5815C130.862 38.6159 130.619 38.8353 130.474 39.098C130.325 39.3604 130.244 39.6522 130.165 39.9256C130.012 40.4757 129.932 40.9864 129.873 41.4155C129.815 41.8455 129.78 42.1954 129.752 42.437C129.725 42.6788 129.706 42.8122 129.697 42.8114C129.687 42.8106 129.688 42.6759 129.7 42.4328C129.711 42.1897 129.732 41.8379 129.778 41.4041C129.825 40.971 129.896 40.4538 130.044 39.8928C130.121 39.6147 130.199 39.3171 130.359 39.0323C130.439 38.8919 130.54 38.7538 130.678 38.6472C130.813 38.5386 130.984 38.4703 131.158 38.4471C131.51 38.4012 131.836 38.4914 132.139 38.5555C132.444 38.6238 132.738 38.6894 133.02 38.7522C133.574 38.8789 134.077 38.994 134.509 39.0931C134.912 39.1902 135.249 39.2713 135.51 39.3341C135.746 39.394 135.876 39.4315 135.874 39.4407Z" fill="#F69270"/>
<path d="M134.643 37.8354C134.64 37.8445 134.504 37.8166 134.259 37.7587C133.99 37.6936 133.642 37.6094 133.223 37.5081C132.786 37.4039 132.265 37.2829 131.682 37.1725C131.391 37.1185 131.083 37.0635 130.765 37.0234C130.45 36.9864 130.115 36.9747 129.803 37.081C129.493 37.1881 129.245 37.4132 129.065 37.6699C128.883 37.9273 128.756 38.2106 128.653 38.4857C128.45 39.0408 128.307 39.5567 128.205 39.9929C128.103 40.4294 128.041 40.7874 127.999 41.0352C127.959 41.2833 127.938 41.4208 127.928 41.4198C127.919 41.419 127.922 41.2793 127.947 41.0284C127.972 40.7775 128.02 40.4148 128.111 39.9721C128.203 39.5296 128.336 39.0079 128.536 38.4425C128.638 38.1606 128.766 37.8669 128.957 37.5933C129.145 37.3212 129.415 37.0711 129.759 36.9528C130.103 36.8358 130.458 36.8522 130.781 36.8916C131.106 36.9343 131.413 36.9919 131.706 37.0497C132.291 37.1678 132.812 37.2986 133.247 37.4151C133.682 37.5321 134.032 37.6345 134.272 37.7077C134.514 37.7812 134.645 37.8265 134.643 37.8354Z" fill="#F69270"/>
<path d="M137.584 38.6836C137.559 38.7162 137.183 38.4287 136.643 38.239C136.105 38.0434 135.632 38.0277 135.633 37.9865C135.629 37.9529 136.124 37.9068 136.689 38.1114C137.256 38.3112 137.61 38.6606 137.584 38.6836Z" fill="#F69270"/>
<path d="M130.774 35.8618C130.774 35.8712 130.669 35.8702 130.481 35.8639C130.294 35.8592 130.022 35.8441 129.69 35.8696C129.362 35.896 128.964 35.9723 128.598 36.2032C128.417 36.3181 128.251 36.4742 128.13 36.6727C128.007 36.8702 127.926 37.1029 127.861 37.3474C127.622 38.3396 127.469 39.2581 127.368 39.921C127.323 40.2306 127.285 40.4938 127.254 40.7087C127.226 40.8948 127.208 40.9975 127.199 40.9967C127.19 40.9959 127.19 40.8914 127.201 40.7033C127.212 40.5151 127.234 40.2431 127.273 39.9083C127.35 39.2383 127.488 38.3175 127.73 37.3127C127.796 37.0618 127.882 36.8158 128.018 36.6024C128.15 36.3871 128.336 36.217 128.532 36.0974C128.927 35.8564 129.346 35.7889 129.684 35.774C130.025 35.7602 130.298 35.7902 130.485 35.8113C130.672 35.8339 130.775 35.8527 130.774 35.8618Z" fill="#F69270"/>
<path d="M134.472 36.8034C134.462 36.8397 134.05 36.7659 133.55 36.6385C133.051 36.5113 132.654 36.3787 132.663 36.3422C132.672 36.306 133.084 36.3797 133.584 36.5072C134.084 36.6343 134.481 36.767 134.472 36.8034Z" fill="#F69270"/>
<path d="M127.936 41.7248C127.948 41.7652 127.393 41.914 126.844 42.3351C126.289 42.7492 125.996 43.2437 125.96 43.2205C125.928 43.2106 126.181 42.6621 126.762 42.227C127.338 41.7863 127.935 41.6915 127.936 41.7248Z" fill="#F69270"/>
<path d="M126.812 40.5992C126.82 40.6125 126.725 40.7032 126.538 40.8051C126.352 40.9056 126.061 41.0049 125.73 40.9974C125.4 40.9901 125.116 40.8936 124.924 40.8116C124.731 40.7269 124.622 40.6547 124.63 40.6391C124.646 40.5903 125.118 40.8368 125.732 40.8619C126.353 40.8754 126.791 40.5533 126.812 40.5992Z" fill="#F69270"/>
<path d="M134.664 43.9631C134.665 43.991 134.218 43.9709 133.53 44.1442C132.849 44.3115 131.923 44.7203 131.167 45.4919C130.412 46.2645 130.023 47.1986 129.87 47.8837C129.712 48.5747 129.741 49.0221 129.714 49.0211C129.706 49.0213 129.692 48.9108 129.691 48.7099C129.688 48.5093 129.708 48.2175 129.777 47.8636C129.908 47.1603 130.292 46.1928 131.07 45.3968C131.849 44.6023 132.808 44.1968 133.508 44.0509C133.861 43.9748 134.152 43.949 134.353 43.9467C134.554 43.9441 134.664 43.9553 134.664 43.9631Z" fill="#F69270"/>
<path d="M135.904 51.6118C135.907 51.6266 135.646 51.7012 135.212 51.747C134.779 51.7934 134.169 51.7952 133.511 51.6772C132.854 51.5573 132.283 51.3421 131.893 51.1469C131.502 50.952 131.285 50.791 131.293 50.7782C131.304 50.7592 131.538 50.89 131.933 51.0599C132.328 51.23 132.891 51.426 133.535 51.5435C134.18 51.6592 134.776 51.6728 135.205 51.6514C135.635 51.6305 135.9 51.5899 135.904 51.6118Z" fill="#F69270"/>
<path d="M126.423 66.8364L113.764 57.0816C113.764 57.0816 111.373 51.4228 108.727 51.4655V74.4889L120.356 81.4381C121.341 82.1276 125.888 84.8965 130.151 85.6863C132.468 86.1157 135.8 85.1914 137.021 83.1759C137.373 82.5959 138.386 80.0743 138.478 79.3371C138.847 76.388 139.569 53.8867 139.569 53.8867L126.905 51.4512L126.423 66.8364Z" fill="#20A789"/>
<path d="M127.931 81.0326C127.927 81.0355 127.893 80.9933 127.832 80.9107C127.763 80.815 127.676 80.6939 127.569 80.5446C127.512 80.463 127.449 80.3742 127.382 80.278C127.317 80.1785 127.253 80.0654 127.181 79.9465C127.042 79.706 126.868 79.44 126.72 79.1218C126.641 78.9647 126.559 78.8003 126.474 78.6296C126.39 78.4576 126.321 78.2705 126.24 78.0814C126.071 77.7048 125.939 77.284 125.79 76.8449C125.524 75.9572 125.305 74.9576 125.195 73.8921C125.098 72.8251 125.121 71.8018 125.212 70.8797C125.273 70.4198 125.322 69.9815 125.416 69.5794C125.459 69.378 125.491 69.1812 125.54 68.9965C125.591 68.8123 125.64 68.6353 125.687 68.4662C125.771 68.1257 125.89 67.8312 125.981 67.5683C126.029 67.4378 126.069 67.3148 126.114 67.2045C126.162 67.0969 126.206 66.9976 126.247 66.9067C126.323 66.7397 126.385 66.6042 126.434 66.4971C126.478 66.4043 126.504 66.3564 126.508 66.3585C126.512 66.3603 126.495 66.4121 126.459 66.5086C126.416 66.6177 126.362 66.7564 126.296 66.9268C126.259 67.0188 126.218 67.1191 126.174 67.2277C126.133 67.3387 126.097 67.4625 126.053 67.5936C125.969 67.8573 125.857 68.152 125.779 68.492C125.735 68.6609 125.69 68.8373 125.642 69.0207C125.596 69.2047 125.567 69.4006 125.526 69.601C125.438 70.0007 125.394 70.4362 125.336 70.8922C125.253 71.8078 125.234 72.8214 125.33 73.8791C125.439 74.9352 125.653 75.9259 125.91 76.8085C126.054 77.2449 126.18 77.6637 126.344 78.0389C126.423 78.2278 126.489 78.4146 126.57 78.5864C126.651 78.757 126.73 78.9215 126.806 79.0788C126.947 79.3975 127.114 79.6651 127.246 79.908C127.315 80.0281 127.375 80.1422 127.436 80.2436C127.5 80.3416 127.559 80.4323 127.613 80.5154C127.711 80.6702 127.791 80.7958 127.854 80.8948C127.908 80.9826 127.934 81.03 127.931 81.0326Z" fill="#335863"/>
<path d="M111.318 58.1475C111.321 58.1475 111.321 58.1819 111.319 58.2483C111.315 58.3215 111.311 58.4192 111.306 58.5435C111.291 58.8106 111.27 59.1913 111.243 59.6781C111.182 60.6703 111.095 62.0931 110.987 63.848C110.757 67.3746 110.44 72.2343 110.09 77.6018C109.725 82.9701 109.394 87.829 109.154 91.3548C109.028 93.1088 108.926 94.5302 108.855 95.5217C108.817 96.0076 108.787 96.3875 108.766 96.6541C108.755 96.7781 108.747 96.8756 108.74 96.9483C108.733 97.0147 108.729 97.0486 108.727 97.0484C108.724 97.0481 108.724 97.014 108.726 96.9475C108.729 96.8743 108.734 96.7766 108.739 96.6523C108.754 96.3855 108.775 96.0048 108.802 95.5183C108.863 94.526 108.95 93.1035 109.058 91.3486C109.288 87.822 109.605 82.9618 109.955 77.5922C110.32 72.2259 110.651 67.3668 110.891 63.841C111.017 62.0873 111.119 60.6656 111.19 59.6739C111.228 59.1882 111.258 58.8083 111.278 58.5414C111.289 58.4177 111.298 58.3202 111.305 58.2473C111.311 58.1811 111.316 58.1472 111.318 58.1475Z" fill="#335863"/>
<path d="M125.63 80.2726C125.615 80.2726 125.599 80.272 125.583 80.271C125.071 80.2376 124.751 79.711 124.553 79.237C123.013 75.5533 123.712 70.9024 125.969 67.6035C125.88 67.8573 125.767 68.1406 125.687 68.466C125.64 68.6351 125.591 68.8121 125.54 68.9963C125.491 69.181 125.459 69.3778 125.416 69.5792C125.322 69.9812 125.274 70.4195 125.212 70.8794C125.121 71.8016 125.098 72.8249 125.195 73.8919C125.305 74.9574 125.524 75.957 125.79 76.8447C125.939 77.2838 126.071 77.7046 126.24 78.0812C126.322 78.2703 126.39 78.4574 126.474 78.6294C126.519 78.7188 126.563 78.8066 126.606 78.8923C126.607 79.088 126.582 79.2842 126.532 79.4713C126.421 79.8895 126.058 80.2726 125.63 80.2726ZM126.586 78.6205C126.581 78.6091 126.575 78.5976 126.57 78.5861C126.489 78.4144 126.423 78.2276 126.344 78.0387C126.181 77.6634 126.054 77.2447 125.91 76.8083C125.865 76.6548 125.822 76.4982 125.78 76.3384C125.942 76.8549 126.156 77.4154 126.458 78.1413C126.521 78.2938 126.564 78.4553 126.586 78.6205Z" fill="#038064"/>
<path d="M126.605 78.8927C126.562 78.807 126.519 78.7191 126.474 78.6298C126.39 78.4578 126.321 78.2707 126.24 78.0815C126.071 77.705 125.939 77.2842 125.79 76.8451C125.524 75.9573 125.305 74.9578 125.195 73.8923C125.098 72.8253 125.121 71.802 125.212 70.8798C125.273 70.4199 125.322 69.9816 125.416 69.5796C125.459 69.3781 125.491 69.1814 125.54 68.9967C125.591 68.8124 125.64 68.6355 125.687 68.4664C125.767 68.1409 125.88 67.8577 125.969 67.6039C125.99 67.5721 126.012 67.5403 126.034 67.5088C125.343 69.1788 125.008 71.9041 125.246 73.6958C125.393 74.798 125.52 75.5125 125.78 76.3388C125.822 76.4985 125.865 76.6552 125.91 76.8086C126.054 77.2451 126.18 77.6638 126.344 78.0391C126.423 78.228 126.489 78.4148 126.57 78.5865C126.575 78.598 126.58 78.6094 126.586 78.6209C126.598 78.7108 126.605 78.8017 126.605 78.8927Z" fill="#011721"/>
<path d="M3.64551 120.175C3.64551 120.138 41.4745 120.107 88.1277 120.107C134.797 120.107 172.618 120.138 172.618 120.175C172.618 120.213 134.797 120.243 88.1277 120.243C41.4745 120.243 3.64551 120.213 3.64551 120.175Z" fill="#2C343A"/>
</g>
<defs>
<clipPath id="clip0_29_6036">
<rect width="180" height="120" fill="white" transform="translate(0 0.5)"/>
</clipPath>
</defs>
</svg>
