<svg width="684" height="546" viewBox="0 0 684 546" fill="none" xmlns="http://www.w3.org/2000/svg">
<g clip-path="url(#clip0_549_8461)">
<path d="M240.872 46.126H176.826V249.331H240.872V46.126Z" fill="#495560"/>
<path d="M240.872 46.126H208.849V248.771H240.872V46.126Z" fill="#323D47"/>
<path d="M206.756 26.1758H184.139V46.126H206.756V26.1758Z" fill="#495560"/>
<path d="M206.756 26.1758H201.365V46.126H206.756V26.1758Z" fill="#323D47"/>
<path d="M171.489 46.1253V44.9609H242.746V46.1253" fill="#323D47"/>
<path d="M194.89 54.8262H189.469V66.2695H194.89V54.8262Z" fill="#6B7A88"/>
<path d="M208.849 70.7616C208.849 70.8826 201.681 70.9806 192.839 70.9806C183.995 70.9806 176.826 70.8826 176.826 70.7616C176.826 70.641 183.995 70.543 192.839 70.543C201.681 70.543 208.849 70.641 208.849 70.7616Z" fill="#323D47"/>
<path d="M227.191 54.8262H221.77V66.2695H227.191V54.8262Z" fill="#6B7A88"/>
<path d="M241.151 70.7616C241.151 70.8826 233.981 70.9806 225.14 70.9806C216.295 70.9806 209.127 70.8826 209.127 70.7616C209.127 70.641 216.295 70.543 225.14 70.543C233.981 70.543 241.151 70.641 241.151 70.7616Z" fill="#323D47"/>
<path d="M227.191 77.5469H221.77V88.9902H227.191V77.5469Z" fill="#6B7A88"/>
<path d="M241.151 93.4827C241.151 93.6033 233.981 93.7001 225.14 93.7001C216.295 93.7001 209.127 93.6033 209.127 93.4827C209.127 93.3617 216.295 93.2637 225.14 93.2637C233.981 93.2637 241.151 93.3617 241.151 93.4827Z" fill="#323D47"/>
<path d="M227.191 100.954H221.77V112.397H227.191V100.954Z" fill="#6B7A88"/>
<path d="M241.151 116.889C241.151 117.01 233.981 117.106 225.14 117.106C216.295 117.106 209.127 117.01 209.127 116.889C209.127 116.767 216.295 116.67 225.14 116.67C233.981 116.67 241.151 116.767 241.151 116.889Z" fill="#323D47"/>
<path d="M227.191 124.36H221.77V135.804H227.191V124.36Z" fill="#6B7A88"/>
<path d="M241.151 140.295C241.151 140.415 233.981 140.514 225.14 140.514C216.295 140.514 209.127 140.415 209.127 140.295C209.127 140.174 216.295 140.077 225.14 140.077C233.981 140.077 241.151 140.174 241.151 140.295Z" fill="#323D47"/>
<path d="M227.191 147.096H221.77V158.54H227.191V147.096Z" fill="#E4E7EC"/>
<path d="M241.151 163.031C241.151 163.153 233.981 163.25 225.14 163.25C216.295 163.25 209.127 163.153 209.127 163.031C209.127 162.912 216.295 162.813 225.14 162.813C233.981 162.813 241.151 162.912 241.151 163.031Z" fill="#E4E7EC"/>
<path d="M227.191 169.925H221.77V181.369H227.191V169.925Z" fill="#E4E7EC"/>
<path d="M227.191 193.054H221.77V204.498H227.191V193.054Z" fill="#E4E7EC"/>
<path d="M241.151 185.861C241.151 185.982 233.981 186.08 225.14 186.08C216.295 186.08 209.127 185.982 209.127 185.861C209.127 185.741 216.295 185.643 225.14 185.643C233.981 185.643 241.151 185.741 241.151 185.861Z" fill="#E4E7EC"/>
<path d="M194.89 77.8936H189.469V89.3381H194.89V77.8936Z" fill="#6B7A88"/>
<path d="M208.849 93.8287C208.849 93.9494 201.681 94.0477 192.839 94.0477C183.995 94.0477 176.826 93.9494 176.826 93.8287C176.826 93.7081 183.995 93.6113 192.839 93.6113C201.681 93.6113 208.849 93.7081 208.849 93.8287Z" fill="#323D47"/>
<path d="M194.89 100.962H189.469V112.405H194.89V100.962Z" fill="#6B7A88"/>
<path d="M208.849 116.898C208.849 117.018 201.681 117.116 192.839 117.116C183.995 117.116 176.826 117.018 176.826 116.898C176.826 116.777 183.995 116.679 192.839 116.679C201.681 116.679 208.849 116.777 208.849 116.898Z" fill="#323D47"/>
<path d="M194.89 124.03H189.469V135.474H194.89V124.03Z" fill="#6B7A88"/>
<path d="M208.849 139.964C208.849 140.085 201.681 140.183 192.839 140.183C183.995 140.183 176.826 140.085 176.826 139.964C176.826 139.843 183.995 139.745 192.839 139.745C201.681 139.745 208.849 139.843 208.849 139.964Z" fill="#323D47"/>
<path d="M194.89 147.096H189.469V158.54H194.89V147.096Z" fill="#6B7A88"/>
<path d="M208.849 163.031C208.849 163.153 201.681 163.25 192.839 163.25C183.995 163.25 176.826 163.153 176.826 163.031C176.826 162.912 183.995 162.813 192.839 162.813C201.681 162.813 208.849 162.912 208.849 163.031Z" fill="#E4E7EC"/>
<path d="M194.89 170.164H189.469V181.609H194.89V170.164Z" fill="#F9F9F9"/>
<path d="M208.849 186.1C208.849 186.22 201.681 186.319 192.839 186.319C183.995 186.319 176.826 186.22 176.826 186.1C176.826 185.979 183.995 185.881 192.839 185.881C201.681 185.881 208.849 185.979 208.849 186.1Z" fill="#E4E7EC"/>
<path d="M194.89 193.23H189.469V204.675H194.89V193.23Z" fill="#F9F9F9"/>
<path d="M475.422 89.2119H411.377V292.417H475.422V89.2119Z" fill="#495560"/>
<path d="M475.423 89.2119H443.401V291.858H475.423V89.2119Z" fill="#323D47"/>
<path d="M441.307 69.2617H418.689V89.2119H441.307V69.2617Z" fill="#495560"/>
<path d="M441.308 69.2617H435.916V89.2119H441.308V69.2617Z" fill="#323D47"/>
<path d="M477.297 88.0488H406.038V89.2119H477.297V88.0488Z" fill="#323D47"/>
<path d="M429.439 97.9121H424.018V109.357H429.439V97.9121Z" fill="#F9F9F9"/>
<path d="M443.401 113.848C443.401 113.969 436.229 114.067 427.389 114.067C418.545 114.067 411.378 113.969 411.378 113.848C411.378 113.727 418.545 113.629 427.389 113.629C436.229 113.629 443.401 113.727 443.401 113.848Z" fill="#E4E7EC"/>
<path d="M461.739 97.9121H456.319V109.357H461.739V97.9121Z" fill="#6B7A88"/>
<path d="M475.698 113.848C475.698 113.969 468.529 114.067 459.688 114.067C450.843 114.067 443.676 113.969 443.676 113.848C443.676 113.727 450.843 113.629 459.688 113.629C468.529 113.629 475.698 113.727 475.698 113.848Z" fill="#323D47"/>
<path d="M461.739 120.634H456.319V132.078H461.739V120.634Z" fill="#6B7A88"/>
<path d="M475.698 136.569C475.698 136.689 468.529 136.786 459.688 136.786C450.843 136.786 443.676 136.689 443.676 136.569C443.676 136.448 450.843 136.35 459.688 136.35C468.529 136.35 475.698 136.448 475.698 136.569Z" fill="#323D47"/>
<path d="M461.739 144.04H456.319V155.483H461.739V144.04Z" fill="#E4E7EC"/>
<path d="M475.698 159.976C475.698 160.096 468.529 160.193 459.688 160.193C450.843 160.193 443.676 160.096 443.676 159.976C443.676 159.854 450.843 159.757 459.688 159.757C468.529 159.757 475.698 159.854 475.698 159.976Z" fill="#E4E7EC"/>
<path d="M461.739 167.446H456.319V178.89H461.739V167.446Z" fill="#E4E7EC"/>
<path d="M475.698 183.382C475.698 183.503 468.529 183.599 459.688 183.599C450.843 183.599 443.676 183.503 443.676 183.382C443.676 183.261 450.843 183.163 459.688 183.163C468.529 183.163 475.698 183.261 475.698 183.382Z" fill="#E4E7EC"/>
<path d="M461.739 190.183H456.319V201.627H461.739V190.183Z" fill="#E4E7EC"/>
<path d="M475.698 206.118C475.698 206.239 468.529 206.336 459.688 206.336C450.843 206.336 443.676 206.239 443.676 206.118C443.676 205.997 450.843 205.899 459.688 205.899C468.529 205.899 475.698 205.997 475.698 206.118Z" fill="#323D47"/>
<path d="M461.739 213.012H456.319V224.455H461.739V213.012Z" fill="#E4E7EC"/>
<path d="M461.739 236.14H456.319V247.583H461.739V236.14Z" fill="#E4E7EC"/>
<path d="M475.698 228.947C475.698 229.068 468.529 229.166 459.688 229.166C450.843 229.166 443.676 229.068 443.676 228.947C443.676 228.826 450.843 228.729 459.688 228.729C468.529 228.729 475.698 228.826 475.698 228.947Z" fill="#323D47"/>
<path d="M429.439 120.979H424.018V132.424H429.439V120.979Z" fill="#F9F9F9"/>
<path d="M443.401 136.915C443.401 137.036 436.229 137.134 427.389 137.134C418.545 137.134 411.378 137.036 411.378 136.915C411.378 136.794 418.545 136.696 427.389 136.696C436.229 136.696 443.401 136.794 443.401 136.915Z" fill="#323D47"/>
<path d="M429.439 144.047H424.018V155.491H429.439V144.047Z" fill="#6B7A88"/>
<path d="M443.401 159.983C443.401 160.104 436.229 160.202 427.389 160.202C418.545 160.202 411.378 160.104 411.378 159.983C411.378 159.863 418.545 159.765 427.389 159.765C436.229 159.765 443.401 159.863 443.401 159.983Z" fill="#323D47"/>
<path d="M429.439 167.115H424.018V178.56H429.439V167.115Z" fill="#6B7A88"/>
<path d="M443.401 183.051C443.401 183.171 436.23 183.269 427.389 183.269C418.545 183.269 411.378 183.171 411.378 183.051C411.378 182.93 418.545 182.833 427.389 182.833C436.23 182.833 443.401 182.93 443.401 183.051Z" fill="#323D47"/>
<path d="M429.439 190.183H424.018V201.627H429.439V190.183Z" fill="#6B7A88"/>
<path d="M443.401 206.118C443.401 206.239 436.23 206.336 427.389 206.336C418.545 206.336 411.378 206.239 411.378 206.118C411.378 205.997 418.545 205.899 427.389 205.899C436.23 205.899 443.401 205.997 443.401 206.118Z" fill="#323D47"/>
<path d="M429.439 213.25H424.018V224.695H429.439V213.25Z" fill="#6B7A88"/>
<path d="M443.401 229.185C443.401 229.307 436.23 229.404 427.389 229.404C418.545 229.404 411.378 229.307 411.378 229.185C411.378 229.066 418.545 228.968 427.389 228.968C436.23 228.968 443.401 229.066 443.401 229.185Z" fill="#323D47"/>
<path d="M429.439 236.318H424.018V247.763H429.439V236.318Z" fill="#6B7A88"/>
<path d="M555.383 168.053H451.683V304.986H555.383V168.053Z" fill="#495560"/>
<path d="M555.382 168.053H506.758V304.986H555.382V168.053Z" fill="#323D47"/>
<path d="M482.752 186.593H473.428V209.271H482.752V186.593Z" fill="#ECF1F4"/>
<path d="M482.752 275.353H473.428V298.032H482.752V275.353Z" fill="#6B7A88"/>
<path d="M506.758 218.171C506.758 218.426 494.429 218.633 479.221 218.633C464.009 218.633 451.682 218.426 451.682 218.171C451.682 217.917 464.009 217.71 479.221 217.71C494.429 217.71 506.758 217.917 506.758 218.171Z" fill="#323D47"/>
<path d="M482.752 231.309H473.428V253.988H482.752V231.309Z" fill="#ECF1F4"/>
<path d="M506.758 262.889C506.758 263.144 494.429 263.351 479.221 263.351C464.009 263.351 451.682 263.144 451.682 262.889C451.682 262.635 464.009 262.428 479.221 262.428C494.429 262.428 506.758 262.635 506.758 262.889Z" fill="#323D47"/>
<path d="M526.408 186.593H517.085V209.271H526.408V186.593Z" fill="#6B7A88"/>
<path d="M546.637 186.593H537.313V209.271H546.637V186.593Z" fill="#6B7A88"/>
<path d="M526.408 229.626H517.085V252.306H526.408V229.626Z" fill="#6B7A88"/>
<path d="M546.637 229.626H537.313V252.306H546.637V229.626Z" fill="#6B7A88"/>
<path d="M526.408 272.66H517.085V295.34H526.408V272.66Z" fill="#6B7A88"/>
<path d="M546.637 272.66H537.313V295.34H546.637V272.66Z" fill="#6B7A88"/>
<path d="M563.178 163.286H443.887V168.224H563.178V163.286Z" fill="#323D47"/>
<path d="M556.107 168.689C556.107 168.944 532.929 169.151 504.344 169.151C475.749 169.151 452.575 168.944 452.575 168.689C452.575 168.434 475.749 168.228 504.344 168.228C532.929 168.228 556.107 168.434 556.107 168.689Z" fill="#323D47"/>
<path d="M217.113 307.724H122.868L122.457 158.605H216.701L217.113 307.724Z" fill="#495560"/>
<path d="M216.701 158.605H169.58V307.724H216.701V158.605Z" fill="#323D47"/>
<path d="M166.5 129.25H133.218V158.605H166.5V129.25Z" fill="#495560"/>
<path d="M166.5 129.25H158.567V158.605H166.5V129.25Z" fill="#323D47"/>
<path d="M219.461 156.894H114.604V158.606H219.461V156.894Z" fill="#323D47"/>
<path d="M149.038 171.408H141.06V188.249H149.038V171.408Z" fill="#6B7A88"/>
<path d="M169.58 194.859C169.58 195.036 159.029 195.179 146.02 195.179C133.004 195.179 122.457 195.036 122.457 194.859C122.457 194.681 133.004 194.536 146.02 194.536C159.029 194.536 169.58 194.681 169.58 194.859Z" fill="#323D47"/>
<path d="M196.571 171.408H188.593V188.249H196.571V171.408Z" fill="#6B7A88"/>
<path d="M217.112 194.859C217.112 195.036 206.562 195.179 193.552 195.179C180.537 195.179 169.99 195.036 169.99 194.859C169.99 194.681 180.537 194.536 193.552 194.536C206.562 194.536 217.112 194.681 217.112 194.859Z" fill="#323D47"/>
<path d="M196.571 204.843H188.593V221.684H196.571V204.843Z" fill="#6B7A88"/>
<path d="M217.112 228.293C217.112 228.47 206.562 228.614 193.552 228.614C180.537 228.614 169.99 228.47 169.99 228.293C169.99 228.115 180.537 227.971 193.552 227.971C206.562 227.971 217.112 228.115 217.112 228.293Z" fill="#323D47"/>
<path d="M196.571 239.287H188.593V256.127H196.571V239.287Z" fill="#6B7A88"/>
<path d="M217.112 262.736C217.112 262.914 206.562 263.058 193.552 263.058C180.537 263.058 169.99 262.914 169.99 262.736C169.99 262.558 180.537 262.415 193.552 262.415C206.562 262.415 217.112 262.558 217.112 262.736Z" fill="#323D47"/>
<path d="M196.571 273.73H188.593V290.569H196.571V273.73Z" fill="#6B7A88"/>
<path d="M217.112 297.178C217.112 297.356 206.562 297.502 193.552 297.502C180.537 297.502 169.99 297.356 169.99 297.178C169.99 297.002 180.537 296.857 193.552 296.857C206.562 296.857 217.112 297.002 217.112 297.178Z" fill="#F4FAFA"/>
<path d="M149.038 205.354H141.06V222.193H149.038V205.354Z" fill="#6B7A88"/>
<path d="M169.58 228.802C169.58 228.98 159.029 229.125 146.02 229.125C133.004 229.125 122.457 228.98 122.457 228.802C122.457 228.625 133.004 228.481 146.02 228.481C159.029 228.481 169.58 228.625 169.58 228.802Z" fill="#323D47"/>
<path d="M149.038 239.299H141.06V256.139H149.038V239.299Z" fill="#6B7A88"/>
<path d="M169.58 262.748C169.58 262.926 159.029 263.07 146.02 263.07C133.004 263.07 122.457 262.926 122.457 262.748C122.457 262.57 133.004 262.427 146.02 262.427C159.029 262.427 169.58 262.57 169.58 262.748Z" fill="#323D47"/>
<path d="M149.038 273.244H141.06V290.083H149.038V273.244Z" fill="#6B7A88"/>
<path d="M169.58 296.692C169.58 296.871 159.029 297.014 146.02 297.014C133.004 297.014 122.457 296.871 122.457 296.692C122.457 296.514 133.004 296.371 146.02 296.371C159.029 296.371 169.58 296.514 169.58 296.692Z" fill="#323D47"/>
<path d="M590.347 128.464C590.846 124.839 585.736 121.858 581.899 121.548C580.068 121.4 578.165 121.681 576.431 121.075C572.673 119.763 571.172 114.904 567.505 113.355C564.764 112.198 561.607 113.229 558.949 114.567C556.292 115.906 553.666 117.592 550.696 117.782C548.114 117.948 545.308 116.989 543.049 118.251C541.365 119.193 540.483 121.136 538.932 122.281C537.412 123.401 535.432 123.64 533.548 123.742C531.665 123.844 529.714 123.864 528 124.649C526.284 125.436 524.865 127.253 525.22 129.107L590.347 128.464Z" fill="#6B7A88"/>
<path d="M430.908 25.1691C431.689 19.4952 423.691 14.8294 417.682 14.3439C414.815 14.1132 411.838 14.5508 409.123 13.6039C403.241 11.552 400.891 3.94309 395.152 1.51979C390.86 -0.291725 385.921 1.32084 381.76 3.41629C377.6 5.51332 373.488 8.15117 368.842 8.44848C364.8 8.70695 360.41 7.20706 356.873 9.18314C354.238 10.6566 352.857 13.6981 350.428 15.4911C348.051 17.2457 344.95 17.6171 342.002 17.7776C339.053 17.938 335.999 17.9685 333.315 19.1995C330.63 20.43 328.408 23.2726 328.966 26.1756L430.908 25.1691Z" fill="#6B7A88"/>
<path d="M158.524 103.622C159.146 99.0994 152.771 95.3793 147.98 94.9932C145.695 94.8076 143.322 95.1577 141.158 94.403C136.468 92.7666 134.595 86.7011 130.019 84.769C126.598 83.3245 122.66 84.6098 119.344 86.2806C116.027 87.9518 112.75 90.0555 109.045 90.293C105.822 90.4986 102.322 89.3021 99.5025 90.879C97.4014 92.0529 96.3004 94.4775 94.3638 95.907C92.4691 97.3063 89.9971 97.602 87.6468 97.7306C85.2955 97.858 82.8617 97.8818 80.7209 98.8635C78.5814 99.8449 76.8101 102.11 77.254 104.425L158.524 103.622Z" fill="#6B7A88"/>
<path d="M112.338 252.299C100.589 252.299 91.065 242.763 91.065 231C91.065 219.237 100.589 209.702 112.338 209.702C124.087 209.702 133.612 219.237 133.612 231C133.612 242.763 124.087 252.299 112.338 252.299ZM111.665 203.376C96.6501 203.725 84.4065 215.976 84.0501 231.008C83.8965 237.446 85.8955 243.406 89.3691 248.234L89.3611 248.235L89.6368 248.611L89.6765 248.664L109.713 275.948C111.476 278.349 115.084 278.275 116.747 275.8L134.857 248.846C138.284 243.613 140.634 238.145 140.634 231.698C140.634 215.829 127.601 203.006 111.665 203.376Z" fill="#20A789"/>
<path d="M113.177 277.703C111.877 277.703 110.574 277.121 109.713 275.949L89.6765 248.664L89.6367 248.611L89.3611 248.235L89.369 248.234C86.0172 243.576 84.038 237.864 84.0421 231.686C84.0421 231.46 84.0447 231.235 84.0501 231.008C84.4065 215.976 96.6501 203.725 111.665 203.376C111.892 203.371 112.114 203.368 112.338 203.368C127.965 203.368 140.634 216.053 140.634 231.698C140.634 238.145 138.284 243.613 134.857 248.846L125.624 262.588L125.411 262.905L122.755 266.859L116.747 275.8C115.896 277.065 114.539 277.703 113.177 277.703ZM91.065 231C91.065 242.763 100.589 252.299 112.338 252.299C124.086 252.299 133.612 242.763 133.612 231C133.612 219.237 124.086 209.703 112.338 209.703C100.589 209.703 91.065 219.237 91.065 231Z" fill="#20A789"/>
<path d="M110.661 248.459C101.762 248.459 94.5492 241.237 94.5492 232.329C94.5492 223.42 101.762 216.199 110.661 216.199C119.558 216.199 126.773 223.42 126.773 232.329C126.773 241.237 119.558 248.459 110.661 248.459ZM109.988 203.376C94.973 203.725 82.7307 215.976 82.373 231.008C82.2194 237.446 84.2196 243.406 87.692 248.234L87.684 248.235L87.9609 248.611L87.9994 248.664L108.036 275.948C109.799 278.349 113.407 278.275 115.07 275.8L133.18 248.846C136.607 243.613 138.957 238.145 138.957 231.698C138.957 215.829 125.924 203.006 109.988 203.376Z" fill="#3AC7A5"/>
<path d="M556.021 213.808C547.068 213.808 539.808 206.54 539.808 197.576C539.808 188.613 547.068 181.345 556.021 181.345C564.975 181.345 572.235 188.613 572.235 197.576C572.235 206.54 564.975 213.808 556.021 213.808ZM555.51 176.524C544.066 176.789 534.735 186.127 534.463 197.582C534.346 202.488 535.87 207.031 538.516 210.71L538.511 210.712L538.721 210.997L538.75 211.038L554.021 231.83C555.364 233.66 558.114 233.604 559.381 231.719L573.182 211.177C575.795 207.189 577.587 203.02 577.587 198.108C577.587 186.013 567.654 176.241 555.51 176.524Z" fill="#20A789"/>
<path d="M556.66 233.169C556.226 233.169 555.79 233.084 555.383 232.912C554.862 232.693 554.39 232.332 554.021 231.831L538.75 211.038L538.721 210.997L538.512 210.712L538.516 210.711C535.964 207.161 534.456 202.807 534.457 198.099C534.457 197.928 534.459 197.755 534.463 197.583C534.735 186.127 544.067 176.789 555.51 176.524C555.681 176.52 555.852 176.519 556.023 176.519C567.931 176.519 577.588 186.185 577.588 198.108C577.588 203.021 575.796 207.189 573.183 211.177L559.381 231.719C558.733 232.683 557.699 233.169 556.66 233.169ZM539.809 197.576C539.809 206.541 547.069 213.809 556.022 213.809C564.976 213.809 572.236 206.541 572.236 197.576C572.236 188.613 564.976 181.345 556.022 181.345C547.069 181.345 539.809 188.613 539.809 197.576Z" fill="#20A789"/>
<path d="M554.743 210.881C547.96 210.881 542.463 205.379 542.463 198.588C542.463 191.8 547.96 186.296 554.743 186.296C561.523 186.296 567.021 191.8 567.021 198.588C567.021 205.379 561.523 210.881 554.743 210.881ZM554.23 176.524C542.787 176.789 533.455 186.127 533.183 197.582C533.067 202.488 534.592 207.031 537.237 210.71L537.232 210.712L537.443 210.997L537.47 211.038L552.741 231.83C554.084 233.661 556.836 233.604 558.103 231.719L571.904 211.177C574.516 207.189 576.308 203.02 576.308 198.108C576.308 186.013 566.375 176.241 554.23 176.524Z" fill="#3AC7A5"/>
<path d="M127.14 305.208L32.5227 540.442L209.93 511.235L340.029 540.442L473.28 511.235L651.477 545.267L556.07 305.208L449.628 278.37L342.001 298.893L232.008 278.37L127.14 305.208Z" fill="#425360"/>
<path d="M132.659 311.524L49.0812 528.602L209.142 502.552L342.001 533.338L473.28 501.763L636.495 533.338L550.551 311.524L451.204 287.054L342.001 307.577L230.431 287.054L132.659 311.524Z" fill="#A2AEC1"/>
<path d="M58.3666 504.483L185.591 474.985L180.892 447.546L191.464 440.882L175.019 376.8L124.145 333.64L58.3666 504.483Z" fill="#1E272E"/>
<path d="M49.0812 528.602L55.2837 512.491L268.596 462.874L280.184 494.799L276.428 501.245L236.361 508.86L209.142 502.552L49.0812 528.602Z" fill="#1E272E"/>
<path d="M280.183 459.785L288.647 491.371L313.209 502.062L348.166 486.511L421.486 465.13L398.606 430.629L280.183 459.785Z" fill="#1E272E"/>
<path d="M194.974 471.483L234.612 462.874L226.703 437.093L197.828 444.078L190.142 449.508L194.974 471.483Z" fill="#1E272E"/>
<path d="M186.884 386.039L201.276 433.316L223.765 428.364L219.716 410.196L269.19 399.095L186.884 386.039Z" fill="#1E272E"/>
<path d="M127.887 323.917L190.142 373.953L272.787 389.638L360.94 367.698L320.701 303.657L230.431 287.053L132.659 311.523L127.887 323.917Z" fill="#1E272E"/>
<path d="M332.738 305.872L461.979 504.481L473.28 501.762L348.195 306.412L342.001 307.576L332.738 305.872Z" fill="#1E272E"/>
<path d="M228.037 415.196L244.413 462.875L389.787 425.693L362.883 379.84L228.037 415.196Z" fill="#1E272E"/>
<path d="M308.911 525.67L310.326 523.564L319.875 509.354L342.788 502.062L358.544 490.175L426.872 471.482L448.091 507.822L342.001 533.337L308.911 525.67Z" fill="#1E272E"/>
<path d="M429.938 291.049L464.183 329.182L550.552 311.524L451.205 287.054L429.938 291.049Z" fill="#E4E7EC"/>
<path d="M568.729 358.438L505.293 376.083L473.28 333.637L552.718 317.113L568.729 358.438Z" fill="#E4E7EC"/>
<path d="M354.979 305.136L421.487 400.78L498.246 378.729L421.487 292.639L354.979 305.136Z" fill="#1E272E"/>
<path d="M540.922 514.85L617.67 484.751L636.495 533.339L540.922 514.85Z" fill="#E4E7EC"/>
<path d="M460.659 395.06L502.359 384.178L546.408 437.093L503.533 451.347L460.659 395.06Z" fill="#BEC1C0"/>
<path d="M511.756 379.839L558.154 433.097L593.109 421.356L570.128 362.041L511.756 379.839Z" fill="#E4E7EC"/>
<path d="M546.407 502.411L511.754 454.286L595.51 427.556L612.529 471.483L601.613 482.488L546.407 502.411Z" fill="#BEC1C0"/>
<path d="M425.563 407.811L489.233 504.48L528.438 512.431L535.833 509.043L455.159 398.883L425.563 407.811Z" fill="#1E272E"/>
<path d="M164.633 479.842L148.77 405.176L92.8348 414.96L58.3666 504.481L164.633 479.842Z" fill="#1E272E"/>
<path d="M216.062 290.649V324.834L228.037 326.348L261.473 365.347L290.216 362.041L303.898 381.896L272.787 389.639L190.142 373.954L127.887 323.918L132.659 311.524L216.062 290.649Z" fill="#1E272E"/>
<path d="M390.879 298.681L437.842 367.295L478.295 356.353L421.487 292.639L390.879 298.681Z" fill="#1E272E"/>
<path d="M528.744 369.56L511.755 342.966L557.699 329.965L568.731 358.438L528.744 369.56Z" fill="#F4FAFA"/>
<path d="M460.659 461.097L482.896 453.403L526.029 511.946L489.234 504.483L460.659 461.097Z" fill="#1E272E"/>
<path d="M255.507 513.297L276.192 510.777L283.081 500.676L308.911 508.806L302.156 524.106L255.507 513.297Z" fill="#BEC1C0"/>
<path d="M132.659 311.524C132.659 311.524 134.837 310.949 139.104 309.867C143.382 308.786 149.727 307.183 158.022 305.087C174.65 300.905 199.094 294.756 230.389 286.886L230.424 286.877L230.461 286.884C260.92 292.467 298.672 299.389 342.043 307.339L341.955 307.34C374.609 301.189 411.459 294.248 451.151 286.773L451.212 286.762L451.272 286.776C482.324 294.416 515.7 302.628 550.626 311.22L550.783 311.26L550.842 311.411C577.151 379.288 606.207 454.246 636.816 533.213L637.04 533.793L636.432 533.674C610.277 528.615 582.592 523.261 554.543 517.836C527.049 512.516 499.909 507.264 473.215 502.1L473.361 502.097C428.174 512.96 384.271 523.515 342.077 533.659L342.002 533.677L341.925 533.66C295.379 522.865 250.952 512.561 209.073 502.849L209.191 502.853C150.39 512.402 96.6275 521.133 49.1209 528.848L48.6917 528.917L48.8478 528.511C74.7183 461.46 95.6565 407.192 110.129 369.679C117.371 350.948 122.996 336.401 126.812 326.531C128.722 321.607 130.179 317.852 131.161 315.324C132.144 312.802 132.659 311.524 132.659 311.524C132.659 311.524 132.176 312.838 131.21 315.376C130.239 317.919 128.799 321.691 126.91 326.634C123.118 336.521 117.531 351.096 110.336 369.862C95.9242 407.373 75.0747 461.639 49.3129 528.692L49.0398 528.355C96.5429 520.608 150.299 511.841 209.093 502.252L209.152 502.243L209.211 502.256C251.091 511.953 295.523 522.239 342.073 533.015L341.922 533.017C384.114 522.865 428.016 512.301 473.201 501.428L473.272 501.412L473.346 501.426C500.04 506.589 527.181 511.838 554.674 517.157C582.723 522.584 610.406 527.941 636.56 533.001L636.176 533.462C605.588 454.486 576.553 379.52 550.262 311.636L550.478 311.826C515.555 303.214 482.185 294.985 451.135 287.329L451.256 287.332C411.559 294.776 374.703 301.689 342.044 307.813L342.001 307.822L341.955 307.814C298.595 299.81 260.851 292.843 230.399 287.222L230.472 287.22C199.186 295.011 174.749 301.098 158.125 305.237C149.81 307.298 143.451 308.875 139.164 309.939C134.878 310.996 132.659 311.524 132.659 311.524Z" fill="#425360"/>
<path d="M340.028 540.102C294.714 529.937 251.245 520.186 209.997 510.933L209.959 510.925L210.689 503.222C251.54 512.697 294.809 522.731 340.087 533.233L340.032 540.101L340.028 540.102Z" fill="#425360"/>
<path d="M309.105 525.383C306.826 524.857 304.556 524.33 302.289 523.807L308.912 508.806L283.081 500.676L276.192 510.777L256.417 513.185C249.928 511.684 243.497 510.195 237.116 508.717L276.428 501.246L280.184 494.8L268.596 462.875L213.296 475.739L214.093 467.331L234.612 462.875L226.703 437.093L216.732 439.506L217.66 429.707L223.765 428.363L219.716 410.196L269.19 399.095L221.282 391.495L222.366 380.07L272.787 389.639L283.958 386.86L292.378 398.325L228.037 415.196L244.413 462.875L324.714 442.336C326.351 444.424 328.273 446.123 330.371 447.43L280.184 459.786L288.648 491.372L313.209 502.063L340.442 489.949L340.335 502.843L319.875 509.355L310.326 523.565L309.105 525.383Z" fill="#A2AEC1"/>
<path d="M237.116 508.716C228.22 506.657 219.429 504.621 210.747 502.611L213.296 475.738L268.596 462.874L280.184 494.799L276.428 501.245L237.116 508.716Z" fill="#1E272E"/>
<path d="M313.209 502.064L288.647 491.372L280.183 459.787L330.37 447.431C333.55 449.414 337.136 450.501 340.762 450.704L340.441 489.949L313.209 502.064Z" fill="#1E272E"/>
<path d="M214.092 467.33L216.731 439.504L226.703 437.092L234.612 462.873L214.092 467.33Z" fill="#1E272E"/>
<path d="M217.66 429.705L221.282 391.493L269.19 399.093L219.716 410.194L223.765 428.361L217.66 429.705Z" fill="#1E272E"/>
<path d="M244.413 462.873L228.037 415.194L292.378 398.323L324.27 441.75C324.415 441.949 324.563 442.143 324.714 442.334L244.413 462.873Z" fill="#1E272E"/>
<path d="M340.093 532.558C329.654 530.142 319.324 527.75 309.105 525.384L310.326 523.566L319.875 509.356L340.335 502.844L340.093 532.558Z" fill="#1E272E"/>
<path d="M261.473 365.345L228.037 326.347L227.466 326.274L228.839 311.8L267.639 364.635L261.473 365.345Z" fill="#1E272E"/>
<path d="M272.787 389.639L222.366 380.07L227.466 326.275L228.037 326.348L261.473 365.347L267.639 364.637L283.958 386.859L272.787 389.639Z" fill="#1E272E"/>
<path d="M302.289 523.805C286.728 520.201 271.431 516.66 256.417 513.183L276.192 510.775L283.081 500.674L308.911 508.804L302.289 523.805Z" fill="#1E272E"/>
<path d="M340.087 533.236C294.809 522.734 251.54 512.7 210.689 503.225L210.747 502.613C219.428 504.622 228.22 506.658 237.116 508.718C243.497 510.196 249.928 511.685 256.417 513.186C271.431 516.663 286.728 520.204 302.289 523.807C304.555 524.331 306.826 524.858 309.105 525.384C319.324 527.751 329.654 530.142 340.093 532.558L340.087 533.236Z" fill="#425360"/>
<path d="M327.709 314.811L320.866 303.921C324.83 304.652 328.844 305.393 332.915 306.145L336.896 312.262C333.807 313.119 330.734 313.97 327.709 314.811Z" fill="#323D47"/>
<path d="M318.956 317.249C303.355 313.211 289.11 305.795 277.046 295.832C290.774 298.365 305.413 301.068 320.866 303.921L327.709 314.811C324.736 315.638 321.804 316.455 318.956 317.249Z" fill="#DCDFE2"/>
<path d="M336.896 312.263L332.915 306.146C335.889 306.695 338.897 307.249 341.928 307.809L341.903 310.874C340.233 311.337 338.561 311.801 336.896 312.263Z" fill="#DCDFE2"/>
<path d="M341.932 307.318C318.34 302.994 296.411 298.974 276.417 295.308C272.553 292.067 268.915 288.563 265.534 284.821C288.428 289.106 314.054 293.904 341.955 299.127L341.998 299.136L341.932 307.318Z" fill="#323D47"/>
<path d="M341.998 299.135L341.955 299.126C314.054 293.903 288.427 289.106 265.534 284.821C265.464 284.743 265.392 284.664 265.322 284.586L342.001 298.893L341.998 299.135Z" fill="#021E27"/>
<path d="M341.928 307.809C338.896 307.249 335.889 306.695 332.915 306.146C328.844 305.394 324.83 304.652 320.866 303.921C305.413 301.068 290.774 298.366 277.046 295.832C276.833 295.656 276.628 295.486 276.417 295.309C296.411 298.974 318.34 302.994 341.932 307.318L341.928 307.809Z" fill="#021E27"/>
<path d="M650.929 544.813C621.809 539.25 591.057 533.376 559.876 527.421C530.62 521.834 501.744 516.321 473.345 510.898L473.276 510.885L473.246 510.891L472.377 502.334C472.68 502.261 472.988 502.187 473.291 502.114C499.959 507.273 527.075 512.52 554.543 517.836C582.593 523.26 610.277 528.614 636.432 533.674L637.04 533.792L636.816 533.213C606.207 454.246 577.151 379.288 550.842 311.411L550.783 311.259L550.627 311.22C522.227 304.234 494.852 297.498 468.919 291.117C470.198 288.911 471.432 286.694 472.623 284.463C499.013 291.124 526.905 298.165 555.844 305.47C584.898 378.605 617.016 459.448 650.929 544.813Z" fill="#425360"/>
<path d="M541.523 514.614C537.334 513.804 533.149 512.995 528.977 512.187L535.834 509.045L462.95 409.522L461.606 396.307L503.532 451.347L546.407 437.094L502.358 384.178L461.459 394.852L460.911 389.454L498.246 378.73L478.295 356.354L454.882 330.093L453.59 317.39L464.182 329.183L549.84 311.671C550 311.709 550.16 311.749 550.321 311.789C551.016 313.583 551.709 315.375 552.409 317.179L473.28 333.639L505.294 376.085L568.421 358.526C568.888 359.729 569.352 360.928 569.82 362.135L511.755 379.84L558.153 433.099L592.797 421.462C593.595 423.521 594.396 425.589 595.197 427.658L511.755 454.288L546.407 502.412L601.614 482.49L612.272 471.744C613.961 476.104 615.657 480.483 617.358 484.875L541.523 514.614Z" fill="#A2AEC1"/>
<path d="M464.182 329.182L453.59 317.389L453.37 315.214L461.547 303.043C464.019 299.27 466.381 295.472 468.616 291.639C494.401 297.999 521.611 304.708 549.84 311.67L464.182 329.182Z" fill="#1E272E"/>
<path d="M491.071 504.855C485.142 503.708 479.234 502.566 473.347 501.427L473.273 501.413L473.202 501.429C473.163 501.438 473.124 501.448 473.085 501.457L472.138 499.978L469.561 474.614L489.234 504.482L491.071 504.855Z" fill="#A2AEC1"/>
<path d="M472.305 501.644L472.136 499.977L473.083 501.455C472.825 501.518 472.565 501.582 472.305 501.644Z" fill="#1E272E"/>
<path d="M505.292 376.086L473.279 333.64L552.407 317.18C554.058 321.442 555.722 325.738 557.392 330.054L511.753 342.969L528.742 369.563L568.42 358.527L505.292 376.086Z" fill="#1E272E"/>
<path d="M460.91 389.454L458.103 361.815L478.294 356.354L498.245 378.73L460.91 389.454Z" fill="#1E272E"/>
<path d="M635.953 532.882C609.978 527.857 582.507 522.541 554.675 517.157C550.282 516.306 545.9 515.459 541.524 514.613L617.359 484.873C623.486 500.69 629.686 516.7 635.953 532.882Z" fill="#1E272E"/>
<path d="M503.531 451.347L461.606 396.307L461.458 394.852L502.358 384.178L546.407 437.093L503.531 451.347Z" fill="#1E272E"/>
<path d="M558.151 433.098L511.753 379.84L569.819 362.135C577.304 381.464 584.972 401.258 592.796 421.461L558.151 433.098Z" fill="#1E272E"/>
<path d="M546.407 502.41L511.754 454.286L595.196 427.656C600.811 442.154 606.507 456.857 612.271 471.742L601.613 482.488L546.407 502.41Z" fill="#1E272E"/>
<path d="M528.976 512.186C527.898 511.978 526.821 511.77 525.744 511.562L482.895 453.402L467.932 458.58L462.949 409.521L535.833 509.044L528.976 512.186Z" fill="#1E272E"/>
<path d="M458.102 361.815L454.881 330.093L478.294 356.353L458.102 361.815Z" fill="#1E272E"/>
<path d="M528.744 369.56L511.755 342.966L557.394 330.051C561.023 339.417 564.7 348.915 568.422 358.523L528.744 369.56Z" fill="#1E272E"/>
<path d="M525.746 511.562C514.115 509.311 502.554 507.076 491.071 504.855L489.235 504.482L469.562 474.614L467.934 458.58L482.897 453.402L525.746 511.562Z" fill="#1E272E"/>
<path d="M637.041 533.793L636.433 533.674C610.277 528.615 582.593 523.261 554.544 517.836C527.075 512.52 499.96 507.273 473.292 502.114C472.988 502.187 472.681 502.261 472.378 502.334L472.307 501.644C472.567 501.582 472.827 501.519 473.085 501.456C473.124 501.447 473.163 501.437 473.202 501.428L473.273 501.412L473.347 501.426C479.234 502.565 485.142 503.707 491.071 504.854C502.554 507.076 514.114 509.311 525.745 511.561C526.823 511.77 527.899 511.978 528.978 512.186C533.15 512.994 537.335 513.803 541.524 514.613C545.9 515.459 550.282 516.307 554.675 517.157C582.507 522.542 609.978 527.857 635.953 532.883C629.685 516.701 623.485 500.691 617.359 484.874C615.657 480.482 613.962 476.103 612.273 471.743C606.509 456.858 600.813 442.155 595.197 427.657C594.397 425.588 593.596 423.52 592.798 421.46C584.974 401.257 577.306 381.463 569.821 362.134C569.353 360.927 568.889 359.728 568.422 358.525C564.701 348.916 561.023 339.418 557.395 330.052C555.724 325.736 554.06 321.44 552.41 317.178C551.71 315.374 551.017 313.582 550.322 311.787C550.161 311.748 550.001 311.708 549.841 311.67C521.612 304.708 494.402 297.998 468.617 291.638C468.717 291.466 468.819 291.291 468.92 291.117C494.853 297.498 522.228 304.234 550.627 311.22L550.784 311.26L550.843 311.411C577.152 379.288 606.208 454.246 636.817 533.213L637.041 533.793Z" fill="#425360"/>
<path d="M346.292 320.712C286.158 320.712 237.41 271.908 237.41 211.706C237.41 151.504 286.158 102.702 346.292 102.702C406.425 102.702 455.173 151.504 455.173 211.706C455.173 271.908 406.425 320.712 346.292 320.712ZM342.85 70.3242C266 72.1096 203.338 134.813 201.508 211.75C200.725 244.699 210.959 275.204 228.735 299.906L228.697 299.919L230.108 301.84L230.308 302.111L332.853 441.75C341.881 454.044 360.352 453.656 368.858 440.997L461.547 303.042C479.087 276.261 491.117 248.27 491.117 215.274C491.117 134.053 424.409 68.4305 342.85 70.3242Z" fill="#20A789"/>
<path d="M350.585 450.736C349.149 450.736 347.71 450.597 346.295 450.318C351.732 449.25 356.824 446.134 360.276 440.997L452.963 303.042C470.504 276.261 482.535 248.27 482.535 215.274C482.535 136.64 419.99 72.6266 341.998 70.3466C342.282 70.3373 342.565 70.3307 342.851 70.324C344.006 70.2975 345.144 70.2842 346.293 70.2842C426.271 70.2842 491.118 135.203 491.118 215.274C491.118 237.126 485.84 256.787 477.18 275.351C475.991 277.903 474.74 280.428 473.427 282.942C473.207 283.361 472.984 283.783 472.762 284.202C472.716 284.289 472.671 284.374 472.624 284.462C471.433 286.692 470.199 288.91 468.92 291.116C468.819 291.29 468.717 291.465 468.617 291.637C466.382 295.47 464.02 299.268 461.548 303.042L453.371 315.212L452.629 316.316L448.32 322.731L428.021 352.942L408.463 382.049L402.404 391.069L395.179 401.825L368.859 440.997C364.508 447.472 357.552 450.736 350.585 450.736Z" fill="#20A789"/>
<path d="M315.033 318.346C265.784 307.899 228.827 264.123 228.827 211.708C228.827 151.506 277.575 102.703 337.708 102.703C339.147 102.703 340.575 102.731 341.999 102.785C283.858 105.044 237.41 152.946 237.41 211.708C237.41 262.459 272.053 305.11 318.956 317.249C317.628 317.619 316.323 317.984 315.033 318.346Z" fill="#20A789"/>
<path d="M337.708 320.712C277.575 320.712 228.827 271.908 228.827 211.706C228.827 151.504 277.575 102.702 337.708 102.702C397.842 102.702 446.59 151.504 446.59 211.706C446.59 271.908 397.842 320.712 337.708 320.712ZM334.267 70.3242C257.416 72.1096 194.754 134.813 192.925 211.75C192.142 244.699 202.376 275.204 220.151 299.906L220.112 299.919L221.524 301.841L221.723 302.111L324.27 441.75C333.297 454.044 351.77 453.656 360.275 440.997L452.962 303.042C470.503 276.261 482.534 248.27 482.534 215.274C482.534 134.053 415.824 68.4305 334.267 70.3242Z" fill="#3AC7A5"/>
<path d="M380.545 300.072C392.035 296.795 399.902 294.426 400.348 293.921C400.745 294.649 401.095 295.391 401.397 296.144C394.319 297.478 387.364 298.787 380.545 300.072Z" fill="#A8ABAB"/>
<path d="M341.999 320.629C341.941 320.626 341.882 320.623 341.823 320.622L341.83 319.842L342.332 320.616C342.223 320.619 342.109 320.625 341.999 320.629ZM356.335 319.123L349.673 308.717C351.87 308.107 354.055 307.501 356.208 306.901L363.646 317.6C361.239 318.188 358.802 318.698 356.335 319.123Z" fill="#A8ABAB"/>
<path d="M342.332 320.616L341.83 319.843L341.903 310.873C344.502 310.151 347.097 309.433 349.672 308.718L356.335 319.124C351.759 319.913 347.084 320.417 342.332 320.616Z" fill="#999C9D"/>
<path d="M363.646 317.601L356.208 306.903C362.915 305.038 369.348 303.241 375.125 301.61C381.164 300.477 387.308 299.325 393.56 298.152L390.879 298.681L394.865 304.504C385.333 310.402 374.831 314.865 363.646 317.601Z" fill="#999C9D"/>
<path d="M394.866 304.503L390.88 298.681L393.561 298.152C396.219 297.653 398.899 297.15 401.592 296.646C401.927 297.546 402.197 298.462 402.407 299.39C399.97 301.195 397.451 302.904 394.866 304.503Z" fill="#929596"/>
<path d="M375.124 301.609C377.006 301.077 378.811 300.566 380.543 300.072C387.361 298.787 394.317 297.478 401.395 296.144C401.463 296.311 401.527 296.478 401.59 296.646C398.896 297.15 396.216 297.653 393.559 298.152C387.307 299.324 381.163 300.477 375.124 301.609Z" fill="#011721"/>
<path d="M341.823 320.623C338.073 320.47 334.366 320.128 330.723 319.607L327.709 314.811C330.735 313.97 333.807 313.119 336.896 312.262L341.83 319.843L341.823 320.623Z" fill="#838789"/>
<path d="M330.723 319.608C326.726 319.035 322.8 318.244 318.956 317.249C321.804 316.455 324.736 315.638 327.709 314.812L330.723 319.608Z" fill="#7A7D7F"/>
<path d="M341.83 319.843L336.896 312.262C338.561 311.8 340.233 311.336 341.903 310.873L341.83 319.843Z" fill="#7A7D7F"/>
<path d="M337.708 320.712C329.93 320.712 322.349 319.897 315.033 318.345C316.323 317.983 317.629 317.618 318.956 317.248C326.359 319.164 334.075 320.321 341.999 320.629C340.575 320.684 339.147 320.712 337.708 320.712Z" fill="#893730"/>
<path d="M347.019 339.773C325.595 339.771 301.661 334.394 281.721 328.307C282.326 327.622 296.592 323.508 315.033 318.346C322.349 319.898 329.93 320.714 337.708 320.714C339.147 320.714 340.575 320.686 341.999 320.63C342.109 320.626 342.223 320.621 342.332 320.617C347.084 320.418 351.759 319.914 356.335 319.125C358.802 318.699 361.239 318.19 363.646 317.601C374.831 314.865 385.333 310.402 394.865 304.504C397.45 302.904 399.969 301.196 402.406 299.391C404.756 309.821 399.347 321.726 390.644 328.504C380.37 336.507 366.82 338.826 353.824 339.58C351.589 339.71 349.32 339.773 347.019 339.773Z" fill="#20A789"/>
<path d="M290.394 73.9424C283.705 80.9281 280.786 91.3327 282.862 100.783C283.872 105.374 285.892 110.491 283.372 114.458C280.878 118.384 275.002 119.105 272.646 123.116C269.871 127.838 273.578 133.765 273.113 139.223C272.676 144.346 267.957 148.739 262.822 148.803C269.414 152.808 277.126 154.947 284.839 154.906C286.426 152.146 288.013 149.388 289.6 146.628C287.765 149.549 288.932 153.633 291.439 156.003C293.945 158.373 297.439 159.367 300.837 159.944C317.076 162.698 334.49 157.299 346.33 145.836" fill="#2C343A"/>
<path d="M383.292 102.72C381.633 99.3264 379.221 96.3012 377.929 92.7508C375.147 85.1192 377.734 75.7262 372.931 69.1782C369.512 64.5191 363.385 62.861 357.683 61.9433C351.981 61.0243 345.914 60.4195 341.276 56.9738C337.873 54.447 335.604 50.6286 332.21 48.09C327.375 44.4747 320.906 43.9268 314.887 44.3964C308.708 44.8792 302.456 46.3594 297.323 49.8395C292.191 53.3196 288.325 59.0466 288.193 65.2499C288.129 68.2751 288.926 71.3242 288.393 74.303C287.807 77.5791 285.69 80.3589 284.586 83.4984C282.251 90.1298 285.151 98.2111 291.168 101.838L340.85 150.335C350.156 152.437 371.001 145.39 376.918 137.899C382.833 130.407 387.484 111.299 383.292 102.72Z" fill="#2C343A"/>
<path d="M291.31 94.7718C291.315 82.1775 298.653 66.2657 311.222 66.8043L350.826 74.2248C354.644 74.3894 357.701 77.4506 357.865 81.2729L359.581 175.652L359.853 175.693C359.853 175.693 352.694 202.811 326.408 196.376C321.195 195.1 318.5 189.657 317.114 183.969L316.853 184.02C316.799 183.337 316.749 182.702 316.699 182.049C315.419 175.464 315.707 169.139 315.707 169.139C315.143 161.546 314.95 158.43 314.95 158.501C314.95 158.501 298.774 156.844 294.149 136.142C291.849 125.847 291.305 108.763 291.31 94.7718Z" fill="#F9B299"/>
<path d="M327.592 107.677C327.631 109.096 328.864 110.234 330.345 110.221C331.822 110.208 332.994 109.05 332.955 107.629C332.915 106.212 331.683 105.071 330.206 105.084C328.723 105.097 327.554 106.258 327.592 107.677Z" fill="#2C343A"/>
<path d="M300.234 109.767C300.274 111.187 301.506 112.324 302.987 112.31C304.465 112.297 305.635 111.139 305.597 109.72C305.558 108.301 304.326 107.162 302.848 107.175C301.365 107.187 300.195 108.347 300.234 109.767Z" fill="#2C343A"/>
<path d="M294.49 103.836C294.846 104.281 297.094 102.374 300.244 102.39C303.39 102.356 305.671 104.249 306.019 103.8C306.19 103.601 305.834 102.797 304.842 101.942C303.864 101.089 302.187 100.257 300.226 100.263C298.264 100.27 296.6 101.109 295.638 101.968C294.656 102.831 294.315 103.635 294.49 103.836Z" fill="#2C343A"/>
<path d="M323.598 103.125C324.026 103.52 326.205 101.417 329.545 101.093C332.877 100.718 335.501 102.318 335.823 101.843C335.982 101.63 335.521 100.885 334.371 100.158C333.244 99.4315 331.376 98.8028 329.296 99.0202C327.216 99.2405 325.543 100.238 324.616 101.18C323.67 102.128 323.393 102.949 323.598 103.125Z" fill="#2C343A"/>
<path d="M314.804 124.229C314.808 124.064 312.997 123.866 310.071 123.677C309.329 123.647 308.624 123.544 308.468 123.049C308.261 122.526 308.519 121.715 308.823 120.834C309.403 119.008 310.011 117.093 310.648 115.086C313.171 106.908 314.948 100.201 314.619 100.103C314.289 100.003 311.976 106.553 309.453 114.73C308.849 116.747 308.27 118.668 307.722 120.506C307.495 121.361 307.075 122.342 307.52 123.423C307.754 123.96 308.318 124.326 308.798 124.425C309.278 124.539 309.693 124.521 310.059 124.52C312.99 124.493 314.804 124.394 314.804 124.229Z" fill="#2C343A"/>
<path d="M314.95 158.5C314.95 158.5 329.058 158.527 342.454 149.277C342.454 149.277 336.568 164.067 315.539 163.421L314.95 158.5Z" fill="#F79570"/>
<path d="M316.459 131.107C317.41 129.67 319.179 128.802 320.995 128.883C322.254 128.94 323.554 129.464 324.378 130.437C325.202 131.408 325.451 132.847 324.822 133.861C324.113 135.005 322.504 135.361 321.103 135.055C319.703 134.749 318.463 133.918 317.281 133.085C316.954 132.854 316.62 132.614 316.405 132.284C316.189 131.954 316.12 131.508 316.342 131.209" fill="#F79570"/>
<path d="M323.412 125.693C322.942 125.695 323.132 128.827 320.592 131.219C318.059 133.617 314.702 133.474 314.705 133.912C314.674 134.113 315.486 134.475 316.896 134.426C318.279 134.386 320.268 133.816 321.821 132.353C323.37 130.887 323.958 129.024 323.985 127.732C324.022 126.415 323.624 125.662 323.412 125.693Z" fill="#2C343A"/>
<path d="M322.51 93.3577C322.843 94.1241 325.698 93.5712 329.105 93.7673C332.517 93.8946 335.305 94.7159 335.71 93.9838C335.889 93.6349 335.367 92.9251 334.218 92.2356C333.077 91.5458 331.288 90.9344 329.244 90.835C327.2 90.7408 325.361 91.1798 324.161 91.7581C322.95 92.3362 322.365 92.9929 322.51 93.3577Z" fill="#2C343A"/>
<path d="M296.107 94.9903C296.728 95.6085 298.954 94.7872 301.682 94.5832C304.402 94.2967 306.749 94.7076 307.238 93.9889C307.45 93.6416 307.045 93.0075 305.997 92.4505C304.963 91.8947 303.268 91.4943 301.394 91.6614C299.524 91.831 297.935 92.5275 297.028 93.2568C296.107 93.9917 295.832 94.6866 296.107 94.9903Z" fill="#2C343A"/>
<path d="M359.608 76.0278C357.289 73.3553 353.647 72.3236 350.204 71.5199C335.351 68.05 320.085 66.3604 304.834 66.4969C303.399 69.8366 305.711 73.7824 308.839 75.6286C311.966 77.4749 315.706 77.8514 319.251 78.6392C322.796 79.4299 326.52 80.8875 328.372 84.0133C330.342 87.3384 329.683 91.6954 331.483 95.116C334.582 100.999 343.499 101.787 346.564 107.688C348.881 112.152 346.864 117.533 346.874 122.562C346.889 128.264 349.785 133.885 354.416 137.199C358.07 139.815 362.724 140.916 367.175 140.377C365.71 122.452 364.246 104.526 362.781 86.5983C362.478 82.8661 362.06 78.8554 359.608 76.0278Z" fill="#2C343A"/>
<path d="M401.679 115.929C398.524 113.806 394.702 112.123 393.079 108.678C390.715 103.661 394.06 96.9061 390.682 92.5105C387.601 88.4998 380.35 89.7428 377.43 85.6124C375.149 82.3882 376.779 79.0236 375.67 76.0659C374.558 73.1094 369.856 71.0391 366.804 71.839L347.474 110.439C346.874 122.562 345.489 129.166 348.987 135.717C350.907 139.31 353.234 142.75 354.339 146.671C355.443 150.594 355.057 155.269 352.122 158.092C366.786 157.196 379.313 147.689 390.845 138.578C394.913 135.365 398.981 132.151 403.05 128.936C404.321 127.933 405.64 126.867 406.275 125.378C407.772 121.876 404.838 118.052 401.679 115.929Z" fill="#2C343A"/>
<path d="M390.71 134.968C390.71 134.968 390.22 135.233 389.202 135.484C388.19 135.732 386.635 135.997 384.64 135.797C382.663 135.599 380.207 134.947 377.862 133.286C375.521 131.655 373.431 128.889 372.526 125.38C372.081 123.631 371.931 121.707 372.221 119.745C372.514 117.772 373.319 115.868 374.159 113.971C374.985 112.07 375.9 110.112 376.154 107.981C376.404 105.887 376.072 103.488 374.516 101.934C372.948 100.349 370.435 100.26 368.035 99.6617C366.827 99.3647 365.544 98.8182 364.621 97.8021C363.699 96.789 363.247 95.4441 363.091 94.1352C362.75 91.4719 363.54 88.8827 363.681 86.3404C363.754 85.0659 363.666 83.7713 363.185 82.6279C362.71 81.4848 361.819 80.5484 360.678 79.9767C358.376 78.7738 355.671 78.9104 353.067 79.0444C350.454 79.2207 347.669 79.0167 345.284 77.8905C342.885 76.835 340.838 75.1253 339.39 73.0575C337.95 70.9605 337.204 68.5958 336.529 66.3625C335.857 64.121 335.233 61.9364 334.193 60.0345C333.156 58.1405 331.689 56.577 330.061 55.3661C326.745 52.9905 322.844 52.0251 319.39 52.2241C315.913 52.4163 312.92 53.7666 310.67 55.3594C308.397 56.9564 306.789 58.7918 305.68 60.4018C303.471 63.6699 303.038 65.8955 302.92 65.8411C302.906 65.837 302.935 65.7033 303.006 65.4445C303.085 65.1886 303.169 64.7961 303.359 64.3094C303.699 63.321 304.322 61.894 305.404 60.2162C306.488 58.5518 308.09 56.6444 310.393 54.9695C312.673 53.3009 315.736 51.8618 319.354 51.6218C322.936 51.378 326.991 52.3342 330.476 54.7919C332.187 56.0451 333.743 57.679 334.851 59.6738C335.954 61.6674 336.6 63.9061 337.281 66.133C337.962 68.357 338.704 70.6342 340.059 72.5893C341.425 74.5269 343.359 76.1359 345.622 77.1253C347.886 78.177 350.422 78.3667 353.03 78.1941C355.606 78.0668 358.496 77.8825 361.074 79.2194C362.35 79.8548 363.428 80.9689 363.97 82.2965C364.525 83.6242 364.606 85.0499 364.528 86.3869C364.363 89.0817 363.599 91.5871 363.92 94.0343C364.063 95.2397 364.465 96.3965 365.233 97.2464C366.004 98.0966 367.091 98.5849 368.24 98.8713C369.387 99.1776 370.598 99.3275 371.787 99.6471C372.968 99.9507 374.182 100.468 375.069 101.375C376.875 103.218 377.17 105.852 376.899 108.072C376.609 110.368 375.64 112.366 374.805 114.258C373.951 116.148 373.166 117.985 372.871 119.847C372.58 121.71 372.701 123.551 373.111 125.233C373.942 128.608 375.912 131.293 378.141 132.899C380.377 134.538 382.75 135.224 384.676 135.466C388.601 135.899 390.698 134.815 390.71 134.968Z" fill="#335863"/>
<path d="M406.554 107.232C406.554 107.232 406.894 107.547 407.197 108.352C407.503 109.142 407.668 110.492 407.079 112.04C406.771 112.796 406.28 113.606 405.496 114.254C404.719 114.897 403.683 115.369 402.514 115.515C400.209 115.862 397.293 114.852 395.597 112.368C394.744 111.158 394.168 109.68 393.944 108.086C393.722 106.483 393.906 104.8 394.291 103.145C395.003 99.8405 396.663 96.4864 396.195 92.8074C395.986 91.022 395.298 89.1468 393.812 88.0512C392.337 86.9212 390.296 86.8814 388.31 87.1427C386.313 87.355 384.182 87.9134 381.938 87.3722C380.837 87.0937 379.786 86.4558 379.051 85.5579C378.308 84.6666 377.834 83.5974 377.543 82.5033C376.958 80.2752 377.186 78.0587 377.163 75.9725C377.195 73.8784 376.786 71.8771 375.989 70.0373C374.39 66.3675 371.384 63.5186 367.998 62.1155C364.588 60.6592 360.923 60.9654 357.619 61.228C354.296 61.5158 351.079 61.7561 348.235 61.0663C345.397 60.4377 343.021 59.2201 341.162 57.8857C339.286 56.5597 337.935 55.0859 336.963 53.8088C335.031 51.212 334.591 49.4425 334.591 49.4425C334.688 49.391 335.246 51.1178 337.224 53.6045C338.22 54.8287 339.578 56.2372 341.436 57.4945C343.276 58.7627 345.608 59.9045 348.361 60.4762C351.11 61.1048 354.224 60.8422 357.558 60.5226C360.858 60.2346 364.653 59.8647 368.296 61.3888C371.884 62.8514 375.05 65.8276 376.756 69.7018C377.603 71.6289 378.045 73.8122 378.012 75.9671C378.031 78.1052 377.829 80.2631 378.367 82.2843C378.862 84.3018 380.192 86.1028 382.151 86.5497C384.086 87.0351 386.166 86.5379 388.212 86.311C390.227 86.0512 392.558 86.0592 394.302 87.3986C396.041 88.7079 396.761 90.81 396.977 92.7157C397.208 94.6587 396.892 96.5832 396.406 98.3129C395.934 100.056 395.363 101.693 394.982 103.305C394.591 104.911 394.405 106.504 394.596 108C394.788 109.495 395.314 110.886 396.092 112.021C397.635 114.346 400.298 115.315 402.456 115.04C403.544 114.928 404.511 114.51 405.241 113.937C405.976 113.361 406.458 112.617 406.772 111.913C407.374 110.471 407.277 109.18 407.034 108.405C406.796 107.613 406.513 107.257 406.554 107.232Z" fill="#2C343A"/>
<path d="M254.908 137.354C255.042 137.326 254.318 138.856 255.487 141.145C256.064 142.218 257.201 143.463 258.93 143.782C260.614 144.106 262.792 143.367 264.05 141.579C264.682 140.7 264.96 139.556 264.871 138.363C264.784 137.169 264.375 135.952 263.801 134.765C262.687 132.416 260.742 129.961 260.533 126.722C260.273 123.591 261.403 120.189 263.771 117.711C264.939 116.469 266.37 115.442 267.957 114.694C269.547 113.923 271.306 113.556 273.019 113.226C274.737 112.894 276.434 112.608 277.96 111.998C279.478 111.4 280.793 110.393 281.523 109.021C282.257 107.653 282.44 106.052 282.333 104.527C282.227 102.987 281.834 101.516 281.331 100.101C280.33 97.2825 279.066 94.5835 278.84 91.789C278.599 89.0105 279.302 86.4134 280.443 84.3695C281.584 82.2887 283.236 80.8815 284.611 79.7091C286.006 78.5339 287.194 77.5245 288.023 76.5658C289.732 74.6543 289.86 73.1213 289.972 73.1742C289.987 73.177 289.977 73.2659 289.946 73.4384C289.906 73.6068 289.882 73.8719 289.756 74.1902C289.556 74.8428 289.106 75.7738 288.278 76.7791C287.466 77.7977 286.285 78.8643 284.923 80.0698C283.575 81.2793 282.02 82.6653 280.973 84.6601C279.918 86.6257 279.286 89.1073 279.545 91.7225C279.783 94.354 281.025 96.9683 282.071 99.8369C282.594 101.273 283.026 102.833 283.146 104.468C283.266 106.093 283.09 107.852 282.259 109.418C281.434 110.992 279.916 112.143 278.277 112.786C276.63 113.446 274.89 113.731 273.179 114.065C271.467 114.394 269.806 114.744 268.317 115.465C266.822 116.165 265.476 117.128 264.379 118.286C262.16 120.59 261.099 123.749 261.317 126.663C261.471 129.63 263.286 131.992 264.441 134.461C265.024 135.705 265.449 137.006 265.529 138.322C265.615 139.627 265.274 140.948 264.542 141.928C263.095 143.905 260.704 144.651 258.838 144.251C256.924 143.841 255.757 142.451 255.191 141.297C254.604 140.105 254.57 139.036 254.639 138.361C254.729 137.676 254.908 137.354 254.908 137.354Z" fill="#2C343A"/>
<path d="M259.803 218.226C259.803 218.226 262.03 200.394 270.617 191.479C279.204 182.564 315.129 171.4 315.129 171.4C315.129 171.4 316.614 184.119 325.215 187.187C334.343 190.441 344.651 189.219 351.334 181.458C357.796 173.952 359.682 164.302 359.682 164.302C359.682 164.302 402.588 168.254 409.584 180.036C416.581 191.817 425.632 237.447 425.632 237.447L385.516 245.971L390.969 324.578H284.371L286.456 250.811L257.438 254.958L259.803 218.226Z" fill="#335863"/>
<path d="M377.55 248.568C377.488 248.567 377.44 247.936 377.407 246.795C377.376 245.654 377.361 244.005 377.361 241.967C377.362 237.891 377.427 232.263 377.554 226.048C377.684 219.83 377.852 214.201 378.019 210.128C378.104 208.091 378.189 206.442 378.267 205.303C378.344 204.165 378.418 203.535 378.484 203.535C378.548 203.535 378.596 204.165 378.626 205.303C378.658 206.444 378.674 208.092 378.674 210.131C378.672 214.205 378.606 219.837 378.479 226.057C378.349 232.276 378.182 237.905 378.012 241.979C377.93 244.015 377.845 245.664 377.768 246.803C377.688 247.941 377.615 248.57 377.55 248.568Z" fill="#2C343A"/>
<path d="M276.573 216.206C276.819 216.135 279.322 224.106 282.165 234.008C285.008 243.913 287.112 251.997 286.867 252.067C286.622 252.138 284.119 244.168 281.276 234.263C278.435 224.362 276.33 216.276 276.573 216.206Z" fill="#2C343A"/>
<path d="M405.104 177.207C405.136 177.371 403.201 177.727 400.274 178.842C397.347 179.945 393.471 181.972 389.862 185.101C386.266 188.247 383.722 191.808 382.226 194.556C380.716 197.306 380.096 199.173 379.938 199.12C379.877 199.1 379.987 198.62 380.242 197.765C380.479 196.904 380.952 195.694 381.646 194.255C383.022 191.372 385.557 187.637 389.256 184.403C392.965 181.184 397.012 179.191 400.054 178.225C401.575 177.736 402.836 177.435 403.721 177.32C404.603 177.187 405.093 177.145 405.104 177.207Z" fill="#2C343A"/>
<path d="M269.969 195.08C270.217 195.018 271.06 197.497 271.851 200.616C272.644 203.738 273.085 206.318 272.839 206.382C272.591 206.444 271.749 203.965 270.956 200.844C270.164 197.725 269.722 195.143 269.969 195.08Z" fill="#2C343A"/>
<path d="M418.492 238.966C418.492 238.966 406.477 300.053 405.101 305.281C403.726 310.506 401.507 324.579 386.956 327.488C367.312 331.416 290.166 328.675 290.166 328.675L304.719 310.231L372.215 291.282L381.441 246.836L418.492 238.966Z" fill="#F9B299"/>
<path d="M303.447 299.919C303.501 299.902 303.729 300.393 304.023 301.327C304.317 302.26 304.634 303.65 304.796 305.402C305.146 308.871 304.661 313.94 302.04 318.708C300.744 321.042 299.287 323.173 297.624 324.834C295.975 326.508 294.125 327.638 292.471 328.268C290.815 328.91 289.387 329.101 288.414 329.183C287.434 329.227 286.896 329.194 286.893 329.134C286.863 328.936 289.091 329.005 292.22 327.664C293.769 326.985 295.474 325.866 297.016 324.237C298.569 322.624 299.964 320.547 301.232 318.26C303.742 313.694 304.321 308.836 304.145 305.445C303.99 302.019 303.281 299.965 303.447 299.919Z" fill="#F79570"/>
<path d="M238.851 227.621C238.851 227.621 249.728 264.263 254.241 280.098C259.039 296.921 269.515 335.124 291.855 328.337C308.845 323.174 303.844 301.128 303.844 301.128L286.456 250.811L272.935 253.068L259.803 219.138L238.851 227.621Z" fill="#F9B299"/>
<path d="M297.904 302.711C297.692 302.701 299.084 299.512 297.91 294.421C297.342 291.916 296.156 289.038 294.288 286.185C292.425 283.319 289.913 280.487 287.242 277.531C284.56 274.584 282.069 271.647 280.168 268.726C278.236 265.825 276.796 263.029 275.724 260.63C274.658 258.227 273.971 256.211 273.546 254.808C273.121 253.403 272.967 252.603 273.019 252.587C273.089 252.567 273.359 253.33 273.887 254.691C274.413 256.05 275.186 258.013 276.316 260.355C277.452 262.692 278.931 265.419 280.872 268.25C282.787 271.103 285.244 273.962 287.929 276.913C290.598 279.869 293.132 282.759 295.004 285.724C296.885 288.683 298.044 291.679 298.549 294.287C299.081 296.899 298.907 299.093 298.625 300.538C298.458 301.261 298.31 301.814 298.157 302.174C298.02 302.537 297.933 302.721 297.904 302.711Z" fill="#F79570"/>
<path d="M259.803 219.138C259.803 219.138 259.88 204.505 258.595 200.378L248.266 177.273C248.266 177.273 245.606 175.64 244.336 180.248C243.085 184.782 247.095 189.59 247.095 189.59L247.41 195.641L243.228 192.237L235.183 177.143C235.183 177.143 229.643 166.153 228.201 167.897C226.761 169.641 227.238 173.175 229.628 177.918C232.021 182.66 235.053 188.675 235.053 188.675C235.053 188.675 235.871 190.585 233.024 187.814C230.177 185.044 223.99 171.622 222.71 169.946C221.43 168.271 219.675 163.352 216.901 164.463C214.127 165.575 217.68 171.473 217.68 171.473L226.555 191.374C226.555 191.374 221.411 183.837 220.479 182.566C219.548 181.294 217.412 176.98 215.725 174.783C214.038 172.587 212.201 171.73 210.976 172.26C208.773 173.213 209.441 175.293 209.441 175.293L218.915 191.751C218.915 191.751 223.652 199.133 223.644 199.693C223.636 200.251 219.515 197.254 219.515 197.254L215.543 192.186C215.543 192.186 211.247 184.594 208.992 185.008C206.736 185.423 207.146 187.101 207.146 187.101L215.13 200.921L226.706 215.828L239.086 228.142L246.237 225.833L259.803 219.138Z" fill="#F9B299"/>
</g>
<defs>
<clipPath id="clip0_549_8461">
<rect width="684" height="544.532" fill="white" transform="translate(0 0.734375)"/>
</clipPath>
</defs>
</svg>
