<svg width="65" height="64" viewBox="0 0 65 64" fill="none" xmlns="http://www.w3.org/2000/svg">
<path fill-rule="evenodd" clip-rule="evenodd" d="M45.9089 30.8109C45.9743 31.2608 45.8179 31.7339 45.4511 32.0552C44.8768 32.5582 44.0029 32.4997 43.5005 31.9246C42.5537 30.8396 41.1215 30.1399 39.5149 30.088C37.9084 30.1399 36.4762 30.8396 35.5293 31.9246C35.027 32.4997 34.1531 32.5582 33.5787 32.0552C33.2119 31.7339 33.0555 31.2608 33.1209 30.8109C33.1589 30.5565 33.2669 30.3094 33.4479 30.1016C34.8886 28.4519 37.0658 27.372 39.5149 27.3181C41.9641 27.372 44.1403 28.4519 45.5819 30.1016C45.763 30.3094 45.871 30.5565 45.9089 30.8109Z" fill="#98A2B3"/>
<path d="M28.9423 23.6961C30.0329 23.6961 30.9169 22.8107 30.9169 21.7184C30.9169 20.6262 30.0329 19.7407 28.9423 19.7407C27.8518 19.7407 26.9678 20.6262 26.9678 21.7184C26.9678 22.8107 27.8518 23.6961 28.9423 23.6961Z" fill="#98A2B3"/>
<path d="M50.0908 23.6961C51.1813 23.6961 52.0653 22.8107 52.0653 21.7184C52.0653 20.6262 51.1813 19.7407 50.0908 19.7407C49.0002 19.7407 48.1162 20.6262 48.1162 21.7184C48.1162 22.8107 49.0002 23.6961 50.0908 23.6961Z" fill="#98A2B3"/>
<path fill-rule="evenodd" clip-rule="evenodd" d="M50.7549 47.3198C47.3586 49.0567 43.5134 50.0363 39.4413 50.0363C34.452 50.0363 29.8038 48.5654 25.9051 46.0345L10.2126 62.2293C10.2099 62.2321 10.2071 62.2349 10.2043 62.2376C10.1896 62.2524 10.1748 62.2672 10.1592 62.282C9.14783 63.2506 7.77789 63.8461 6.26966 63.8461C3.16287 63.8461 0.639648 61.318 0.639648 58.2026C0.639648 56.8074 1.14577 55.5294 1.98377 54.5442C1.99852 54.5267 2.01328 54.5091 2.02803 54.4916C2.05384 54.4629 2.08149 54.4362 2.11007 54.4094L14.6534 42.7427C14.6562 42.7399 14.6589 42.7372 14.6626 42.7344L18.7263 38.9541C16.0722 34.9892 14.5234 30.2219 14.5234 25.0954C14.5234 22.4047 14.9502 19.8128 15.7394 17.3835H6.96018C4.61211 17.3835 2.70378 15.4721 2.70378 13.1166C2.70378 10.8904 4.40929 9.06029 6.57943 8.8673C6.97677 5.4601 9.86783 2.81365 13.371 2.81365C15.7348 2.81365 17.821 4.01965 19.049 5.85067C19.3551 5.78604 19.6731 5.75188 19.9986 5.75188C21.0062 5.75188 21.9391 6.07783 22.6979 6.62907C27.123 2.60663 32.9982 0.153809 39.4413 0.153809C53.1942 0.153809 64.3593 11.3299 64.3593 25.0954C64.3593 29.8138 63.0474 34.2275 60.7694 37.9911C60.9713 38.3401 61.129 38.7168 61.235 39.1157C62.9654 39.6273 64.2302 41.233 64.2302 43.1324C64.2302 45.4445 62.3578 47.3198 60.0531 47.3198H50.7549ZM3.99812 56.3281C3.57958 56.8378 3.3279 57.4916 3.3279 58.2026C3.3279 59.8304 4.64528 61.1536 6.26966 61.1536C7.0542 61.1536 7.76683 60.8452 8.29416 60.342C8.35131 60.2875 8.4057 60.2312 8.45917 60.1721L19.1126 49.1767L15.5375 45.5959L4.57983 55.787C4.36227 55.9403 4.16683 56.1231 3.99812 56.3281ZM43.7466 44.6264H60.0531C60.8745 44.6264 61.541 43.9569 61.541 43.1324C61.541 42.4546 61.0912 41.8812 60.4735 41.6984C59.8466 41.5137 59.3193 41.1093 58.9745 40.5746C58.8242 40.342 58.709 40.0834 58.6362 39.8073C58.4555 39.1287 57.9134 38.5968 57.2293 38.4334C57.0864 38.3992 56.9371 38.3817 56.7841 38.3817C56.6485 38.3817 56.5158 38.3955 56.3876 38.4223C55.6787 38.5709 54.9569 38.426 54.3724 38.0465C54.0728 37.8526 53.81 37.5968 53.6026 37.2884C53.3002 36.836 52.9112 36.4472 52.4594 36.1444C51.8003 35.7011 51.0084 35.4426 50.1565 35.4426C48.0316 35.4426 46.2772 37.0483 46.0366 39.1148C45.8891 40.3826 44.8732 41.3724 43.6037 41.486C43.2515 41.5174 42.9335 41.6651 42.6873 41.8923C42.3748 42.1804 42.1785 42.594 42.1785 43.0529C42.1785 43.7335 42.6099 44.3143 43.2138 44.5331C43.3806 44.594 43.5595 44.6264 43.7466 44.6264ZM20.9859 47.2441L23.7101 44.4325C22.4886 43.4361 21.3639 42.3263 20.3507 41.1185L17.5094 43.7612L20.9859 47.2441ZM56.0899 35.7408C56.3157 35.7058 56.5481 35.6882 56.7841 35.6882C57.4856 35.6882 58.1503 35.8452 58.7459 36.1268C60.6062 32.8747 61.671 29.1083 61.671 25.0954C61.671 12.8156 51.7099 2.84689 39.4413 2.84689C33.6067 2.84689 28.2938 5.10183 24.3259 8.7879C23.6253 9.43887 22.9671 10.1342 22.3549 10.8692C21.3749 12.0464 20.5139 13.3262 19.7911 14.691C19.332 15.5561 18.9292 16.4555 18.5853 17.3835C17.6975 19.787 17.2117 22.3844 17.2117 25.0954C17.2117 29.7796 18.6618 34.1287 21.1371 37.715C21.4173 38.1213 21.7105 38.5183 22.0166 38.9043C23.0961 40.2662 24.3315 41.4999 25.6968 42.5765C26.2748 43.0326 26.8768 43.4611 27.5 43.86C30.9507 46.065 35.0476 47.3429 39.4413 47.3429C40.4794 47.3429 41.5009 47.2718 42.5011 47.1342C41.3552 46.7824 40.4139 45.9588 39.9041 44.8895C39.7502 44.8932 39.5962 44.8951 39.4413 44.8951C28.5436 44.8951 19.6952 36.0234 19.6952 25.0954C19.6952 14.1665 28.5436 5.29481 39.4413 5.29481C50.3391 5.29481 59.1874 14.1665 59.1874 25.0954C59.1874 29.0123 58.0507 32.6651 56.0899 35.7408ZM39.575 42.2016C39.9447 40.3752 41.4797 38.9708 43.3659 38.8027C43.7623 35.3964 46.6543 32.7501 50.1565 32.7501C51.5947 32.7501 52.9296 33.1951 54.0313 33.9569C55.5967 31.3715 56.4983 28.3382 56.4983 25.0954C56.4983 15.654 48.8558 7.98826 39.4413 7.98826C30.0269 7.98826 22.3844 15.654 22.3844 25.0954C22.3844 34.5359 30.0269 42.2016 39.4413 42.2016C39.4856 42.2016 39.5308 42.2016 39.575 42.2016ZM20.7554 8.60137C20.5231 8.50073 20.2668 8.44533 19.9986 8.44533C19.8621 8.44533 19.7294 8.45918 19.6021 8.48595C18.53 8.71125 17.4283 8.26342 16.8171 7.35206C16.0713 6.24033 14.8064 5.50719 13.371 5.50719C11.2461 5.50719 9.4917 7.11199 9.25109 9.1794C9.10358 10.4472 8.08765 11.437 6.8182 11.5497C6.01799 11.6208 5.39295 12.2967 5.39295 13.1166C5.39295 13.9846 6.09451 14.691 6.96018 14.691H16.7913C17.8146 12.4657 19.155 10.4158 20.7554 8.60137Z" fill="#98A2B3"/>
</svg>
