<?xml version="1.0" encoding="UTF-8" standalone="no"?>
<!DOCTYPE svg PUBLIC "-//W3C//DTD SVG 1.1//EN" "http://www.w3.org/Graphics/SVG/1.1/DTD/svg11.dtd">
<svg width="100%" height="100%" viewBox="0 0 64 64" version="1.1" xmlns="http://www.w3.org/2000/svg" xmlns:xlink="http://www.w3.org/1999/xlink" xml:space="preserve" xmlns:serif="http://www.serif.com/" style="fill-rule:evenodd;clip-rule:evenodd;stroke-linejoin:round;stroke-miterlimit:2;">
    <g id="Oportunidad" transform="matrix(0.903224,0,0,0.88836,88.0203,25.343)">
        <rect x="-97.451" y="-28.528" width="70.857" height="72.043" style="fill:none;"/>
        <g transform="matrix(1.10715,0,0,1.12567,-97.4605,-29.9974)">
            <g>
                <g transform="matrix(1,0,0,1,0.00460029,1.30227)">
                    <path d="M44.235,36.978C51.534,31.717 54.468,22.938 51.766,14.499C50.846,11.587 49.295,8.915 47.223,6.673C45.152,4.431 42.612,2.673 39.783,1.526C36.955,0.379 33.909,-0.129 30.862,0.037C27.815,0.204 24.842,1.041 22.155,2.489C13.881,6.922 9.589,16.548 11.884,25.651C13.106,30.498 15.927,34.259 19.974,37.129C20.114,37.209 20.228,37.329 20.302,37.473C20.375,37.617 20.406,37.779 20.39,37.94C20.359,38.752 20.376,39.564 20.39,40.377C20.398,40.488 20.382,40.6 20.341,40.704C20.299,40.808 20.235,40.902 20.152,40.977C18.124,42.931 17.965,45.858 19.78,47.997C19.99,48.246 19.969,48.355 19.78,48.59C18.417,50.232 18.109,52.077 19,54.008C19.89,55.938 21.482,56.849 23.584,56.889C23.951,56.889 24.085,56.99 24.14,57.354C24.414,58.911 25.144,60.351 26.237,61.493C27.33,62.635 28.737,63.426 30.279,63.768C30.525,63.825 30.821,63.759 31.013,64L32.743,64C32.765,63.9 32.84,63.888 32.927,63.878C34.635,63.691 36.235,62.953 37.486,61.776C38.738,60.598 39.571,59.045 39.862,57.351C39.937,56.923 40.134,56.903 40.487,56.893C42.56,56.831 44.14,55.902 45.007,54.006C45.874,52.111 45.607,50.267 44.27,48.641C44.038,48.356 44.028,48.233 44.27,47.95C45.804,46.172 45.971,43.437 44.453,41.687C43.707,40.831 43.555,40.002 43.617,38.998C43.645,38.728 43.645,38.457 43.617,38.187C43.529,37.619 43.786,37.303 44.235,36.978ZM37.077,57.371C36.477,59.591 34.299,61.242 31.968,61.215C29.638,61.189 27.505,59.544 26.921,57.371C26.813,56.968 26.921,56.879 27.317,56.884C28.878,56.906 30.44,56.894 31.995,56.894C33.55,56.894 35.117,56.906 36.673,56.884C37.087,56.873 37.186,56.966 37.077,57.366L37.077,57.371ZM42.635,52.564C42.361,53.528 41.557,54.133 40.492,54.137L31.992,54.137C29.158,54.137 26.367,54.147 23.555,54.137C21.915,54.137 20.917,52.756 21.383,51.195C21.674,50.228 22.458,49.682 23.634,49.669C24.945,49.655 26.258,49.669 27.57,49.669L40.32,49.669C42.024,49.665 43.079,51.002 42.635,52.559L42.635,52.564ZM42.491,45.674C42.344,46.021 42.102,46.321 41.793,46.537C41.483,46.753 41.119,46.877 40.742,46.896C40.68,46.896 40.619,46.907 40.557,46.907C34.877,46.907 29.187,46.921 23.502,46.907C21.928,46.907 20.996,45.634 21.367,44.101C21.611,43.08 22.369,42.476 23.505,42.464C25.129,42.446 26.754,42.464 28.378,42.464L37.012,42.464C38.172,42.464 39.334,42.469 40.497,42.478C42.214,42.468 43.226,44.128 42.491,45.669L42.491,45.674ZM42.04,35.143C41.187,35.732 40.744,36.357 40.856,37.398C40.923,38.017 40.856,38.648 40.874,39.272C40.874,39.568 40.837,39.73 40.477,39.722C39.27,39.693 38.063,39.696 36.855,39.688C35.949,39.749 35.039,39.749 34.133,39.688L29.862,39.688C28.956,39.75 28.046,39.75 27.14,39.688C25.932,39.698 24.725,39.698 23.518,39.72C23.219,39.72 23.118,39.633 23.126,39.33C23.146,38.643 23.079,37.95 23.144,37.269C23.24,36.286 22.81,35.693 22.003,35.18C19.887,33.843 18.077,32.135 16.759,29.998C12.942,23.8 12.987,17.462 16.746,11.358C20.623,5.046 26.531,2.255 33.913,2.868C41.853,3.527 48.701,10.111 49.767,18C50.747,25.303 48.061,30.993 42.04,35.133L42.04,35.143Z" style="fill:rgb(44,63,77);fill-rule:nonzero;"/>
                    <path d="M6.734,19.667C6.732,20.035 6.585,20.388 6.325,20.648C6.066,20.909 5.714,21.057 5.346,21.061C4.036,21.098 2.726,21.079 1.417,21.061C0.748,21.061 0.324,20.64 0.008,20.093L0.008,19.222C0.439,18.514 1.057,18.263 1.888,18.306C3.007,18.365 4.133,18.306 5.256,18.323C6.114,18.333 6.729,18.9 6.734,19.667Z" style="fill:rgb(152,162,179);fill-rule:nonzero;"/>
                    <path d="M7.534,28.703C6.153,29.54 4.686,30.228 3.159,30.756C3.104,30.769 3.048,30.773 2.992,30.767L2.965,30.767C2.743,30.767 2.523,30.717 2.324,30.619C2.163,30.536 2.021,30.422 1.906,30.283C1.791,30.143 1.706,29.982 1.656,29.808C1.488,29.25 1.689,28.543 2.215,28.283C3.534,27.632 4.87,27.019 6.225,26.445C6.796,26.202 7.461,26.53 7.763,27.072C8.066,27.613 8.042,28.387 7.534,28.703Z" style="fill:rgb(152,162,179);fill-rule:nonzero;"/>
                    <path d="M8.007,11.624C8.007,12.573 7.08,13.263 6.188,12.894C4.886,12.356 3.61,11.749 2.345,11.119C1.689,10.784 1.492,9.997 1.809,9.344C1.947,9.038 2.199,8.797 2.51,8.673C2.821,8.548 3.169,8.549 3.48,8.675C4.775,9.233 6.047,9.845 7.322,10.454C7.797,10.674 8.007,11.1 8.007,11.624Z" style="fill:rgb(152,162,179);fill-rule:nonzero;"/>
                    <path d="M61.812,11.05C60.493,11.751 59.139,12.383 57.755,12.944C57.655,12.974 57.55,12.986 57.445,12.981C57.143,12.993 56.846,12.902 56.603,12.722C56.36,12.543 56.185,12.285 56.108,11.993C55.941,11.411 56.118,10.768 56.676,10.489C57.971,9.837 59.286,9.224 60.62,8.65C61.235,8.388 61.945,8.747 62.248,9.344C62.55,9.94 62.398,10.726 61.812,11.05Z" style="fill:rgb(152,162,179);fill-rule:nonzero;"/>
                    <path d="M62.291,29.724C62.227,30.022 62.061,30.287 61.823,30.476C61.585,30.665 61.289,30.766 60.985,30.761C60.755,30.765 60.527,30.719 60.316,30.627C59.147,30.084 57.978,29.562 56.822,28.999C56.06,28.63 55.787,27.881 56.105,27.182C56.422,26.483 57.206,26.179 57.991,26.525C59.184,27.057 60.368,27.605 61.541,28.18C61.832,28.302 62.069,28.527 62.207,28.811C62.344,29.095 62.374,29.42 62.291,29.724Z" style="fill:rgb(152,162,179);fill-rule:nonzero;"/>
                    <path d="M63.998,19.628C64.025,20.432 63.429,21.017 62.528,21.074L60.659,21.074C60.036,21.074 59.413,21.088 58.791,21.074C57.891,21.048 57.266,20.462 57.266,19.677C57.266,18.891 57.896,18.34 58.806,18.328C60.031,18.321 61.256,18.321 62.481,18.328C63.368,18.331 63.972,18.858 63.998,19.628Z" style="fill:rgb(152,162,179);fill-rule:nonzero;"/>
                    <path d="M40.946,26.436C39.721,27.654 38.486,28.864 37.242,30.065C37.113,30.181 37.011,30.325 36.945,30.485C36.879,30.646 36.85,30.82 36.86,30.993C36.87,33.888 36.86,36.783 36.86,39.685C35.954,39.746 35.045,39.746 34.138,39.685C34.138,36.415 34.133,33.145 34.122,29.875C34.121,29.686 34.16,29.5 34.236,29.327C34.312,29.154 34.422,28.999 34.561,28.872C36.065,27.396 37.548,25.91 39.062,24.449C39.785,23.749 40.565,23.73 41.152,24.339C41.704,24.917 41.636,25.749 40.946,26.436Z" style="fill:rgb(152,162,179);fill-rule:nonzero;"/>
                    <path d="M29.878,29.938C29.871,33.184 29.865,36.43 29.862,39.676C28.956,39.738 28.046,39.738 27.14,39.676C27.14,36.826 27.12,33.975 27.14,31.123C27.151,30.9 27.112,30.677 27.026,30.47C26.939,30.264 26.807,30.08 26.639,29.932C25.411,28.75 24.213,27.533 23.016,26.318C22.434,25.728 22.374,25.037 22.817,24.462C23.305,23.829 24.213,23.683 24.8,24.25C26.4,25.796 27.961,27.384 29.528,28.967C29.648,29.098 29.74,29.251 29.8,29.417C29.861,29.584 29.887,29.761 29.878,29.938Z" style="fill:rgb(152,162,179);fill-rule:nonzero;"/>
                </g>
                <g transform="matrix(1.07912,0,0,0.307184,-2.58175,44.9569)">
                    <path d="M21.201,-18.212C21.201,-19.417 21.033,-20.544 20.75,-21.229C15.85,-33.31 12.659,-53.037 12.659,-75.278C12.659,-111.966 21.34,-141.813 32.054,-141.813C42.768,-141.813 51.449,-111.966 51.449,-75.278C51.449,-53.037 48.259,-33.31 43.359,-21.223C43.078,-20.539 42.91,-19.414 42.91,-18.212C42.907,-15.206 42.907,-9.743 42.907,-9.743C43.061,-9.324 43.208,-8.87 43.347,-8.382C44.218,-5.32 44.708,-1.168 44.708,3.161C44.708,7.491 44.218,11.643 43.347,14.705C43.324,14.786 43.3,14.866 43.277,14.945C43.3,15.024 43.324,15.104 43.347,15.185C44.218,18.247 44.708,22.399 44.708,26.728C44.708,31.058 44.218,35.21 43.347,38.272C42.475,41.333 41.293,43.053 40.061,43.053L39.38,43.053C38.974,56.001 35.85,66.073 32.056,66.073L32.052,66.073C28.258,66.073 25.134,56.001 24.728,43.053L24.047,43.053C22.815,43.053 21.633,41.333 20.762,38.272C19.89,35.21 19.401,31.058 19.401,26.729C19.401,22.399 19.89,18.247 20.762,15.185C20.785,15.104 20.808,15.024 20.831,14.945C20.808,14.866 20.785,14.786 20.762,14.705C19.89,11.643 19.401,7.491 19.401,3.161C19.401,-1.168 19.89,-5.32 20.762,-8.382C20.901,-8.87 21.047,-9.324 21.201,-9.743L21.201,-18.212ZM27.457,43.053C27.843,50.739 29.754,56.578 32.052,56.578L32.056,56.578C34.355,56.578 36.265,50.739 36.651,43.053L27.457,43.053ZM40.204,9.972C40.667,9.852 41.105,9.152 41.435,7.991C41.8,6.71 42.005,4.973 42.005,3.161C42.005,1.35 41.8,-0.387 41.435,-1.668C41.105,-2.829 40.667,-3.529 40.204,-3.649C40.157,-3.662 40.109,-3.668 40.061,-3.668L24.047,-3.668C23.999,-3.668 23.952,-3.662 23.904,-3.649C23.441,-3.529 23.003,-2.829 22.673,-1.668C22.308,-0.387 22.103,1.35 22.103,3.161C22.103,4.973 22.308,6.71 22.673,7.991C23.003,9.152 23.441,9.852 23.904,9.972C23.952,9.985 23.999,9.991 24.047,9.991L40.061,9.991C40.109,9.991 40.157,9.985 40.204,9.972ZM24.047,-13.163L40.061,-13.163C40.109,-13.163 40.156,-13.16 40.204,-13.155L40.204,-20.888C40.204,-23.661 40.606,-26.243 41.27,-27.741C41.843,-29.025 42.389,-30.436 42.907,-31.953C46.479,-42.413 48.746,-57.939 48.746,-75.278C48.746,-106.793 41.257,-132.318 32.054,-132.318C22.851,-132.318 15.362,-106.793 15.362,-75.278C15.362,-57.939 17.629,-42.413 21.201,-31.953C21.72,-30.436 22.266,-29.025 22.836,-27.73C23.499,-26.234 23.9,-23.656 23.9,-20.888C23.904,-17.381 23.904,-13.155 23.904,-13.155C23.952,-13.16 23.999,-13.163 24.047,-13.163ZM24.047,33.558L40.061,33.558C40.576,33.558 41.071,32.838 41.435,31.558C41.8,30.277 42.005,28.54 42.005,26.729C42.005,24.917 41.8,23.18 41.435,21.899C41.071,20.619 40.576,19.899 40.061,19.899L24.047,19.899C23.532,19.899 23.037,20.619 22.673,21.899C22.308,23.18 22.103,24.917 22.103,26.729C22.103,28.54 22.308,30.277 22.673,31.558C23.037,32.838 23.532,33.558 24.047,33.558Z" style="fill:rgb(84,95,114);"/>
                </g>
                <g transform="matrix(1,0,0,1,-0.0227072,0)">
                    <g transform="matrix(1.05005,0,0,1.16896,-1.64826,-5.60253)">
                        <path d="M27.276,39.793L27.276,32.878C27.276,32.26 27.004,31.668 26.52,31.229L23.406,28.409C22.866,27.921 22.87,27.13 23.414,26.645C23.958,26.16 24.838,26.163 25.378,26.652L29.651,30.521C29.92,30.765 30.054,31.082 30.054,31.4L30.054,39.793L27.276,39.793Z" style="fill:rgb(152,162,179);"/>
                    </g>
                    <g transform="matrix(-1.05005,0,0,1.16896,65.6796,-5.60253)">
                        <path d="M27.276,39.793L27.276,32.878C27.276,32.26 27.004,31.668 26.52,31.229L23.406,28.409C22.866,27.921 22.87,27.13 23.414,26.645C23.958,26.16 24.838,26.163 25.378,26.652L29.651,30.521C29.92,30.765 30.054,31.082 30.054,31.4L30.054,39.793L27.276,39.793Z" style="fill:rgb(152,162,179);"/>
                    </g>
                </g>
                <g>
                    <g transform="matrix(0.884075,0,0,1,0.103928,1.20488)">
                        <path d="M5.855,18.331C6.765,18.331 7.505,18.984 7.505,19.789C7.505,20.594 6.765,21.248 5.855,21.248L1.547,21.248C0.636,21.248 -0.103,20.594 -0.103,19.789C-0.103,18.984 0.636,18.331 1.547,18.331L5.855,18.331Z" style="fill:rgb(152,162,179);"/>
                    </g>
                    <g transform="matrix(-0.801244,-0.373626,-0.422618,0.906308,16.1089,-4.46258)">
                        <path d="M5.855,18.331C6.765,18.331 7.505,18.984 7.505,19.789C7.505,20.594 6.765,21.248 5.855,21.248L1.547,21.248C0.636,21.248 -0.103,20.594 -0.103,19.789C-0.103,18.984 0.636,18.331 1.547,18.331L5.855,18.331Z" style="fill:rgb(152,162,179);"/>
                    </g>
                    <g transform="matrix(-0.801244,0.373626,-0.422618,-0.906308,16.1089,46.4816)">
                        <path d="M5.855,18.331C6.765,18.331 7.505,18.984 7.505,19.789C7.505,20.594 6.765,21.248 5.855,21.248L1.547,21.248C0.636,21.248 -0.103,20.594 -0.103,19.789C-0.103,18.984 0.636,18.331 1.547,18.331L5.855,18.331Z" style="fill:rgb(152,162,179);"/>
                    </g>
                    <g transform="matrix(-0.884075,0,0,1,63.913,1.37025)">
                        <path d="M5.855,18.331C6.765,18.331 7.505,18.984 7.505,19.789C7.505,20.594 6.765,21.248 5.855,21.248L1.547,21.248C0.636,21.248 -0.103,20.594 -0.103,19.789C-0.103,18.984 0.636,18.331 1.547,18.331L5.855,18.331Z" style="fill:rgb(152,162,179);"/>
                    </g>
                    <g transform="matrix(0.801244,-0.373626,0.422618,0.906308,47.9081,-4.29721)">
                        <path d="M5.855,18.331C6.765,18.331 7.505,18.984 7.505,19.789C7.505,20.594 6.765,21.248 5.855,21.248L1.547,21.248C0.636,21.248 -0.103,20.594 -0.103,19.789C-0.103,18.984 0.636,18.331 1.547,18.331L5.855,18.331Z" style="fill:rgb(152,162,179);"/>
                    </g>
                    <g transform="matrix(0.801244,0.373626,0.422618,-0.906308,47.9081,46.647)">
                        <path d="M5.855,18.331C6.765,18.331 7.505,18.984 7.505,19.789C7.505,20.594 6.765,21.248 5.855,21.248L1.547,21.248C0.636,21.248 -0.103,20.594 -0.103,19.789C-0.103,18.984 0.636,18.331 1.547,18.331L5.855,18.331Z" style="fill:rgb(152,162,179);"/>
                    </g>
                </g>
            </g>
        </g>
    </g>
</svg>
