<svg width="708" height="457" viewBox="0 0 708 457" fill="none" xmlns="http://www.w3.org/2000/svg">
<path d="M633.446 104.874C633.446 110.835 628.603 115.666 622.63 115.666C616.657 115.666 611.814 110.835 611.814 104.874C611.814 98.9131 616.657 94.082 622.63 94.082C628.603 94.082 633.446 98.9131 633.446 104.874Z" fill="#414F5C"/>
<path d="M602.036 104.874C602.036 111.224 596.879 116.37 590.515 116.37C584.153 116.37 578.993 111.224 578.993 104.874C578.993 98.5243 584.153 93.3778 590.515 93.3778C596.879 93.3778 602.036 98.5243 602.036 104.874Z" fill="#414F5C"/>
<path d="M578.06 84.5344C578.06 91.2742 572.583 96.7371 565.829 96.7371C559.076 96.7371 553.599 91.2742 553.599 84.5344C553.599 77.7935 559.076 72.3306 565.829 72.3306C572.583 72.3306 578.06 77.7935 578.06 84.5344Z" fill="#414F5C"/>
<path d="M573.592 53.261C573.592 60.3005 567.873 66.0075 560.819 66.0075C553.765 66.0075 548.046 60.3005 548.046 53.261C548.046 46.2215 553.765 40.5157 560.819 40.5157C567.873 40.5157 573.592 46.2215 573.592 53.261Z" fill="#414F5C"/>
<path d="M589.662 25.884C589.662 33.1597 583.752 39.0572 576.462 39.0572C569.171 39.0572 563.261 33.1597 563.261 25.884C563.261 18.6094 569.171 12.7119 576.462 12.7119C583.752 12.7119 589.662 18.6094 589.662 25.884Z" fill="#414F5C"/>
<path d="M620.911 15.0673C620.911 22.996 614.47 29.4238 606.525 29.4238C598.579 29.4238 592.138 22.996 592.138 15.0673C592.138 7.1387 598.579 0.710876 606.525 0.710876C614.47 0.710876 620.911 7.1387 620.911 15.0673Z" fill="#414F5C"/>
<path d="M656.938 84.2803C656.938 90.0385 652.262 94.7059 646.493 94.7059C640.723 94.7059 636.045 90.0385 636.045 84.2803C636.045 78.5233 640.723 73.857 646.493 73.857C652.262 73.857 656.938 78.5233 656.938 84.2803Z" fill="#414F5C"/>
<path d="M661.778 52.9112C661.778 58.2549 657.436 62.5869 652.082 62.5869C646.727 62.5869 642.386 58.2549 642.386 52.9112C642.386 47.5675 646.727 43.2366 652.082 43.2366C657.436 43.2366 661.778 47.5675 661.778 52.9112Z" fill="#414F5C"/>
<path d="M644.816 25.523C644.816 30.4043 640.849 34.3608 635.958 34.3608C631.066 34.3608 627.1 30.4043 627.1 25.523C627.1 20.6405 631.066 16.684 635.958 16.684C640.849 16.684 644.816 20.6405 644.816 25.523Z" fill="#414F5C"/>
<path fill-rule="evenodd" clip-rule="evenodd" d="M346.985 210.123C341.342 210.887 337.388 216.071 338.154 221.702C338.92 227.332 344.115 231.277 349.757 230.513C355.4 229.749 359.354 224.565 358.588 218.935C357.822 213.304 352.628 209.359 346.985 210.123ZM350.895 196.928C353 197.192 355.035 197.735 356.952 198.524L361.405 194.801L369.053 200.609L366.644 205.884C367.916 207.518 368.985 209.33 369.801 211.286L375.585 211.794L376.877 221.298L371.438 223.326C371.174 225.429 370.628 227.459 369.837 229.372L373.568 233.816L367.748 241.446L362.461 239.042C360.825 240.313 359.009 241.377 357.048 242.192L356.539 247.964L347.014 249.253L344.982 243.825C342.875 243.563 340.841 243.019 338.924 242.229L334.471 245.953L326.823 240.144L329.233 234.869C327.959 233.236 326.894 231.423 326.076 229.467L320.293 228.958L319 219.455L324.44 217.427C324.702 215.325 325.248 213.294 326.04 211.381L322.308 206.938L328.128 199.306L333.415 201.711C335.052 200.44 336.867 199.376 338.828 198.562L339.338 192.79L348.861 191.5L350.895 196.928Z" fill="#414F5C"/>
<path fill-rule="evenodd" clip-rule="evenodd" d="M65.8181 313.329C57.3868 314.47 51.4779 322.216 52.6224 330.632C53.7658 339.046 61.5305 344.941 69.9618 343.799C78.3942 342.657 84.302 334.911 83.1575 326.498C82.013 318.083 74.2505 312.187 65.8181 313.329ZM71.6623 293.61C74.8088 294.006 77.8493 294.818 80.7144 295.997L87.3681 290.433L98.7963 299.113L95.1953 306.994C97.098 309.436 98.6947 312.143 99.9129 315.066L108.557 315.826L110.487 330.029L102.359 333.061C101.966 336.202 101.151 339.236 99.9676 342.094L105.544 348.734L96.8467 360.137L88.9469 356.546C86.5005 358.444 83.7872 360.034 80.8562 361.251L80.0969 369.877L65.8628 371.805L62.8257 363.693C59.6769 363.3 56.6376 362.487 53.7725 361.307L47.1176 366.871L35.6883 358.19L39.2904 350.309C37.3878 347.867 35.7955 345.16 34.574 342.237L25.9306 341.476L24 327.274L32.1276 324.244C32.5206 321.102 33.3357 318.068 34.5193 315.209L28.9431 308.568L37.6401 297.166L45.5399 300.758C47.9864 298.859 50.6996 297.269 53.6295 296.053L54.391 287.428L68.623 285.5L71.6623 293.61Z" fill="#414F5C"/>
<path d="M706.852 440.953C706.852 441.114 550.872 441.243 358.507 441.243C166.073 441.243 10.1262 441.114 10.1262 440.953C10.1262 440.793 166.073 440.664 358.507 440.664C550.872 440.664 706.852 440.793 706.852 440.953Z" fill="#2C3F4D"/>
<path d="M297.959 341.375C297.97 341.369 297.926 341.267 297.825 341.073C297.7 340.843 297.549 340.563 297.365 340.223C296.944 339.485 296.29 338.414 295.356 337.095C293.472 334.502 290.436 330.764 285.43 327.734C282.936 326.252 279.942 324.969 276.524 324.468C273.126 323.986 269.345 324.237 265.704 325.602C262.087 326.927 258.565 329.455 256.449 333.166C254.321 336.87 253.635 341.222 252.393 345.379C251.76 347.459 250.962 349.462 249.807 351.205C248.648 352.943 247.068 354.315 245.412 355.527C243.756 356.746 242.025 357.843 240.456 359.122C238.886 360.405 237.53 361.886 236.43 363.475C234.219 366.663 232.972 370.189 232.304 373.531C231.628 376.885 231.561 380.094 231.753 382.978C232.161 388.763 233.383 393.303 234.176 396.418C234.587 397.976 234.932 399.178 235.169 399.992C235.411 400.805 235.549 401.229 235.575 401.221C235.599 401.215 235.51 400.779 235.317 399.953C235.106 399.066 234.82 397.864 234.459 396.347C233.755 393.217 232.619 388.671 232.284 382.947C232.127 380.092 232.226 376.939 232.916 373.654C233.596 370.381 234.84 366.947 236.998 363.872C238.074 362.335 239.384 360.916 240.909 359.678C242.438 358.439 244.16 357.354 245.848 356.12C247.532 354.893 249.2 353.459 250.427 351.622C251.647 349.79 252.469 347.713 253.113 345.596C254.37 341.366 255.055 337.078 257.089 333.531C259.097 329.989 262.454 327.55 265.948 326.249C269.46 324.912 273.133 324.642 276.437 325.086C279.751 325.541 282.698 326.767 285.16 328.19C290.105 331.105 293.178 334.745 295.12 337.267C296.083 338.551 296.776 339.591 297.236 340.301C297.688 341.018 297.937 341.389 297.959 341.375Z" fill="#414F5C"/>
<path d="M243.467 356.624C244.616 355.559 245.174 356.3 246.716 356.58C248.258 356.86 249.655 357.679 250.881 358.654C256.217 362.898 258.576 370.521 256.568 377.027C251.661 377.296 246.702 374.697 244.138 370.513C241.575 366.329 241.517 360.738 243.993 356.502" fill="#414F5C"/>
<path d="M290.604 335.213C291.179 333.759 292.004 334.188 293.517 333.779C295.031 333.37 296.645 333.51 298.172 333.863C304.818 335.404 310.234 341.273 311.226 348.009C306.913 350.357 301.314 350.14 297.197 347.462C293.08 344.786 290.618 339.764 291.025 334.878" fill="#414F5C"/>
<path d="M233.086 385.6C236.209 381.998 241.036 379.937 245.804 380.168C250.571 380.399 255.175 382.919 257.932 386.807C254.45 389.99 249.769 391.833 245.047 391.878C240.325 391.923 235.608 389.755 232.066 386.639" fill="#414F5C"/>
<path d="M236.956 363.96C232.167 364.099 227.362 361.959 224.267 358.311C221.172 354.661 219.851 349.579 220.779 344.89C225.792 343.742 231.371 345.536 234.773 349.385C238.174 353.236 239.256 358.983 237.487 363.803" fill="#414F5C"/>
<path d="M253.546 338.522C249.075 340.24 243.832 339.815 239.696 337.4C235.563 334.985 232.624 330.63 231.937 325.898C236.285 323.155 242.143 322.994 246.633 325.499C251.123 328.003 254.058 333.064 253.995 338.198" fill="#414F5C"/>
<path d="M259.109 330.217C263.58 328.499 268.823 328.923 272.958 331.338C277.092 333.752 280.03 338.109 280.717 342.841C276.37 345.584 270.512 345.743 266.022 343.238C261.532 340.735 258.596 335.673 258.66 330.541" fill="#414F5C"/>
<path d="M265.737 325.744C261.199 324.213 257.438 320.54 255.808 316.045C254.177 311.55 254.709 306.326 257.213 302.25C262.313 302.915 266.919 306.531 268.767 311.321C270.615 316.111 269.628 321.875 266.29 325.781" fill="#414F5C"/>
<path d="M282.727 326.554C281.093 322.059 281.623 316.835 284.125 312.758C286.626 308.681 291.049 305.837 295.803 305.246C298.466 309.637 298.51 315.485 295.911 319.916C293.314 324.345 288.185 327.172 283.043 327.008" fill="#414F5C"/>
<path d="M214.237 441.153L205.186 384.46L274.555 385.3L267.712 440.412L214.237 441.153Z" fill="#2C3F4D"/>
<path d="M244.169 374.104C247.894 376.427 252.263 376.796 255.681 375.078C259.098 373.359 261.49 369.589 261.979 365.147C258.157 363.323 253.981 363.109 250.487 364.56C246.994 366.01 244.216 369.111 242.844 373.092" fill="#3AC7A5"/>
<path d="M275.88 386.312C279.605 388.635 283.974 389.004 287.391 387.286C290.808 385.567 293.199 381.797 293.689 377.355C289.867 375.531 285.69 375.317 282.197 376.768C278.704 378.219 275.927 381.319 274.554 385.3" fill="#3AC7A5"/>
<path d="M258.081 359.049C259.912 363.032 263.358 365.738 267.16 366.177C270.96 366.617 275.035 364.78 277.892 361.338C275.705 357.717 272.334 355.247 268.618 354.543C264.901 353.838 260.872 354.903 257.531 357.475" fill="#3AC7A5"/>
<path d="M269.654 373.175C265.262 373.112 261.332 375.053 259.3 378.288C257.268 381.523 257.176 385.983 259.061 390.038C263.279 389.625 266.963 387.651 269.2 384.605C271.436 381.561 272.204 377.473 271.313 373.356" fill="#3AC7A5"/>
<path d="M280.827 395.491C278.916 399.436 279.021 403.811 281.101 407.015C283.183 410.22 287.196 412.184 291.675 412.191C293.08 408.202 292.842 404.036 291.02 400.728C289.196 397.417 285.911 395.782 281.797 394.85" fill="#3AC7A5"/>
<path d="M299.263 398.114C299.197 398.201 298.51 397.117 296.52 396.37C295.54 395.995 294.257 395.763 292.759 395.713C291.256 395.649 289.555 395.858 287.64 396.011C285.742 396.142 283.551 396.272 281.338 395.473C279.104 394.702 277.262 392.758 276.136 390.455C274.95 388.149 274.412 385.476 273.892 382.799C273.353 380.131 272.776 377.325 271.22 374.942C269.685 372.543 267.446 370.756 265.355 368.993C263.25 367.24 261.188 365.465 259.742 363.308C256.866 358.973 256.376 354.061 256.948 350.28C257.526 346.446 259.043 343.596 260.353 341.905C261.031 341.066 261.58 340.439 262.018 340.076C262.432 339.692 262.656 339.501 262.674 339.519C262.691 339.539 262.501 339.768 262.126 340.182C261.726 340.576 261.22 341.227 260.591 342.076C259.375 343.791 257.971 346.611 257.475 350.351C256.981 354.04 257.528 358.791 260.315 362.92C261.706 364.965 263.716 366.686 265.827 368.429C267.92 370.184 270.226 372 271.854 374.536C273.504 377.073 274.083 379.984 274.615 382.656C275.126 385.351 275.638 387.932 276.755 390.147C277.823 392.358 279.505 394.153 281.558 394.89C283.597 395.659 285.721 395.581 287.603 395.483C289.497 395.364 291.241 395.189 292.777 395.294C294.31 395.385 295.629 395.667 296.628 396.099C297.634 396.517 298.315 397.044 298.715 397.446C298.926 397.637 299.052 397.817 299.144 397.929C299.233 398.044 299.272 398.106 299.263 398.114Z" fill="#3AC7A5"/>
<path d="M299.263 398.114C299.197 398.201 298.51 397.117 296.52 396.37C295.54 395.995 294.257 395.763 292.759 395.713C291.256 395.649 289.555 395.858 287.64 396.011C285.742 396.142 283.551 396.272 281.338 395.473C279.104 394.702 277.262 392.758 276.136 390.455C274.95 388.149 274.412 385.476 273.892 382.799C273.353 380.131 272.776 377.325 271.22 374.942C269.685 372.543 267.446 370.756 265.355 368.993C263.25 367.24 261.188 365.465 259.742 363.308C256.866 358.973 256.376 354.061 256.948 350.28C257.526 346.446 259.043 343.596 260.353 341.905C261.031 341.066 261.58 340.439 262.018 340.076C262.432 339.692 262.656 339.501 262.674 339.519C262.691 339.539 262.501 339.768 262.126 340.182C261.726 340.576 261.22 341.227 260.591 342.076C259.375 343.791 257.971 346.611 257.475 350.351C256.981 354.04 257.528 358.791 260.315 362.92C261.706 364.965 263.716 366.686 265.827 368.429C267.92 370.184 270.226 372 271.854 374.536C273.504 377.073 274.083 379.984 274.615 382.656C275.126 385.351 275.638 387.932 276.755 390.147C277.823 392.358 279.505 394.153 281.558 394.89C283.597 395.659 285.721 395.581 287.603 395.483C289.497 395.364 291.241 395.189 292.777 395.294C294.31 395.385 295.629 395.667 296.628 396.099C297.634 396.517 298.315 397.044 298.715 397.446C298.926 397.637 299.052 397.817 299.144 397.929C299.233 398.044 299.272 398.106 299.263 398.114Z" fill="#3AC7A5"/>
<path d="M166.849 403.922C167.137 398.142 164.337 392.294 159.646 388.889C154.957 385.483 148.522 384.622 143.097 386.673C147.099 395.857 156.251 402.598 166.225 403.707L166.849 403.922Z" fill="#3AC7A5"/>
<path d="M162.267 406.337C158.876 410.05 159.094 416.032 161.52 420.436C163.946 424.839 168.123 427.98 172.307 430.775C173.717 426.04 173.525 420.845 171.768 416.226C170.01 411.607 166.7 407.593 162.496 404.985L162.267 406.337Z" fill="#3AC7A5"/>
<path d="M178.7 388.904C179.239 394.311 182.072 399.453 186.357 402.806C190.642 406.157 196.323 407.674 201.713 406.905C200.398 401.465 198.21 395.983 193.998 392.291C189.785 388.596 183.144 387.225 178.481 390.332L178.7 388.904Z" fill="#3AC7A5"/>
<path d="M178.591 383.355C177.74 378.402 172.843 374.81 167.831 374.343C162.817 373.878 157.86 376.014 153.84 379.04C156.849 382.478 161.202 384.717 165.755 385.164C170.307 385.612 175.015 384.269 178.639 381.483L178.591 383.355Z" fill="#3AC7A5"/>
<path d="M152.749 425.481C147.986 429.539 146.793 436.766 148.773 442.696C150.752 448.625 155.389 453.352 160.598 456.822C162.6 450.944 163.854 444.642 162.798 438.524C161.742 432.404 158.05 426.496 152.352 424.004L152.749 425.481Z" fill="#3AC7A5"/>
<path d="M177.819 369.459C180.329 365.769 184.614 363.341 189.076 363.08C193.539 362.819 198.078 364.732 201.002 368.106C199.07 372.432 194.52 375.462 189.775 375.584C185.031 375.706 180.33 372.913 178.177 368.692L177.819 369.459Z" fill="#3AC7A5"/>
<path d="M183.656 355.178C178.529 356.734 172.747 355.995 168.179 353.2C163.61 350.404 160.327 345.597 159.392 340.333C163.209 339.994 167.08 339.826 170.853 340.499C174.625 341.171 178.327 342.748 181.001 345.487C183.676 348.225 184.436 351.434 183.656 355.178Z" fill="#3AC7A5"/>
<path d="M194.659 351.482C191.121 348.596 188.969 344.089 188.951 339.53C188.932 334.97 191.048 330.446 194.562 327.532C197.99 331.69 200.351 336.716 201.364 342.005C201.742 343.986 201.929 346.072 201.311 347.994C200.694 349.915 199.114 351.637 197.111 351.913L194.659 351.482Z" fill="#3AC7A5"/>
<path d="M166.849 403.922L166.225 403.707C166.203 403.704 166.181 403.702 166.158 403.699C166.393 403.609 166.628 403.52 166.866 403.432C166.863 403.595 166.857 403.758 166.849 403.922Z" fill="#20A789"/>
<path d="M164.851 403.518C155.418 401.971 146.915 395.434 143.097 386.673C145.053 385.933 147.137 385.572 149.225 385.572C152.932 385.572 156.647 386.711 159.646 388.889C164.015 392.061 166.745 397.352 166.865 402.734C166.188 402.994 165.514 403.249 164.851 403.518Z" fill="#20A789"/>
<path d="M172.307 430.775C168.123 427.98 163.946 424.839 161.52 420.436C160.363 418.338 159.709 415.881 159.707 413.481C159.705 410.846 160.491 408.281 162.267 406.337L162.431 405.366C162.55 405.3 162.67 405.236 162.792 405.172C166.855 407.783 170.052 411.716 171.768 416.226C172.749 418.806 173.243 421.565 173.242 424.324C173.239 426.505 172.93 428.685 172.307 430.775Z" fill="#20A789"/>
<path d="M198.929 407.101C194.42 407.101 189.909 405.583 186.357 402.806C182.475 399.768 179.784 395.261 178.912 390.419C178.943 390.283 178.973 390.146 179.001 390.008C180.66 389.047 182.535 388.612 184.445 388.612C187.863 388.612 191.394 390.008 193.998 392.291C198.209 395.983 200.398 401.465 201.713 406.905C200.791 407.036 199.86 407.101 198.929 407.101Z" fill="#20A789"/>
<path d="M167.489 385.249C166.911 385.249 166.331 385.221 165.755 385.165C161.202 384.717 156.849 382.478 153.84 379.04C157.489 376.293 161.91 374.28 166.444 374.28C166.905 374.28 167.367 374.3 167.831 374.343C172.309 374.76 176.695 377.673 178.186 381.82C175.098 384.039 171.294 385.249 167.489 385.249Z" fill="#20A789"/>
<path d="M178.591 383.355C178.501 382.827 178.365 382.314 178.186 381.82C178.339 381.71 178.491 381.598 178.639 381.483L178.591 383.355Z" fill="#20A789"/>
<path d="M160.598 456.822C155.389 453.352 150.752 448.625 148.773 442.696C148.166 440.878 147.858 438.937 147.859 437.004C147.861 432.922 149.242 428.871 152.113 426.061C152.346 427.324 152.678 428.448 153.034 429.419C153.694 431.226 154.453 432.521 155.011 433.357C155.278 433.786 155.526 434.081 155.679 434.288C155.832 434.485 155.918 434.586 155.934 434.586L155.935 434.585C155.938 434.584 155.94 434.579 155.94 434.574C155.94 434.411 154.522 432.787 153.31 429.322C152.961 428.294 152.639 427.1 152.432 425.759C152.536 425.665 152.642 425.572 152.749 425.481L152.352 424.004C158.05 426.496 161.742 432.404 162.798 438.524C163.062 440.052 163.181 441.594 163.181 443.137C163.18 447.766 162.098 452.413 160.598 456.822Z" fill="#20A789"/>
<path d="M189.477 375.588C185.372 375.588 181.341 373.428 179.006 370.072C179.013 369.328 179.044 368.585 179.097 367.849C181.652 365.073 185.301 363.301 189.076 363.08C189.346 363.064 189.616 363.057 189.887 363.057C194.082 363.057 198.254 364.936 201.002 368.106C199.071 372.432 194.52 375.462 189.775 375.584C189.676 375.587 189.576 375.588 189.477 375.588Z" fill="#20A789"/>
<path d="M177.819 369.459L178.177 368.692C178.204 368.745 178.231 368.797 178.259 368.848C178.107 369.048 177.959 369.252 177.819 369.459Z" fill="#20A789"/>
<path d="M178.285 368.898C178.276 368.882 178.267 368.865 178.259 368.848C178.269 368.836 178.279 368.823 178.289 368.809C178.288 368.839 178.286 368.868 178.285 368.898Z" fill="#20A789"/>
<path d="M178.189 355.979C174.682 355.979 171.17 355.03 168.179 353.2C163.61 350.404 160.327 345.597 159.392 340.333C161.302 340.163 163.227 340.036 165.145 340.036C167.06 340.036 168.969 340.162 170.853 340.499C174.625 341.172 178.327 342.748 181.001 345.487C183.017 347.551 183.946 349.883 183.946 352.51C183.946 353.168 183.889 353.844 183.775 354.54C183.492 354.806 183.219 355.085 182.958 355.375C181.403 355.78 179.796 355.979 178.189 355.979Z" fill="#20A789"/>
<path d="M197.111 351.913L195.004 351.542C195.802 351.597 196.587 351.708 197.352 351.873C197.273 351.889 197.192 351.902 197.111 351.913Z" fill="#20A789"/>
<path d="M198.5 351.468C197.034 351.052 195.487 350.82 193.898 350.816C190.816 347.93 188.968 343.752 188.951 339.53C188.951 339.512 188.95 339.495 188.95 339.477C188.949 334.935 191.061 330.434 194.562 327.532C197.99 331.69 200.351 336.716 201.364 342.005C201.565 343.057 201.712 344.14 201.713 345.21C201.713 346.156 201.601 347.092 201.311 347.994C200.845 349.444 199.831 350.781 198.5 351.468Z" fill="#20A789"/>
<path d="M213.687 386.284C213.674 386.282 213.674 386.151 213.687 385.892C213.706 385.593 213.728 385.218 213.756 384.753C213.821 383.752 213.914 382.275 213.948 380.373C213.958 376.615 213.951 370.937 211.369 364.647C210.048 361.556 208.046 358.323 205.032 355.747C202.076 353.137 197.947 351.395 193.497 351.511C191.292 351.554 189.02 352.055 186.989 353.138C184.935 354.181 183.218 355.896 181.961 357.929C179.447 362.066 178.824 367.265 179.044 372.388C179.226 377.551 179.965 382.646 179.391 387.607C179.098 390.07 178.505 392.476 177.492 394.661C176.497 396.847 175.058 398.815 173.225 400.242C171.398 401.698 169.273 402.515 167.283 403.276C165.275 404.025 163.351 404.757 161.679 405.811C158.304 407.89 155.85 410.821 154.322 413.809C152.777 416.811 152.209 419.887 152.199 422.559C152.18 425.246 152.703 427.535 153.31 429.322C154.566 432.914 156.043 434.527 155.935 434.585C155.924 434.593 155.838 434.491 155.679 434.288C155.526 434.081 155.278 433.786 155.011 433.357C154.453 432.521 153.694 431.226 153.034 429.419C152.376 427.623 151.799 425.301 151.778 422.562C151.748 419.835 152.293 416.667 153.848 413.571C155.385 410.489 157.88 407.453 161.348 405.284C164.779 403.005 169.306 402.438 172.794 399.7C176.295 396.956 178.122 392.286 178.658 387.522C179.211 382.692 178.48 377.632 178.292 372.415C178.072 367.226 178.693 361.872 181.333 357.543C182.652 355.416 184.479 353.599 186.654 352.504C188.802 351.369 191.184 350.855 193.483 350.82C198.114 350.716 202.414 352.564 205.439 355.276C208.529 357.955 210.544 361.279 211.86 364.442C213.168 367.634 213.75 370.718 214.045 373.419C214.323 376.127 214.311 378.474 214.24 380.382C214.161 382.292 214.02 383.768 213.908 384.767C213.848 385.229 213.802 385.602 213.764 385.9C213.726 386.156 213.7 386.285 213.687 386.284Z" fill="#3AC7A5"/>
<path d="M155.934 434.586C155.918 434.586 155.832 434.485 155.679 434.288C155.526 434.081 155.278 433.786 155.011 433.357C154.453 432.521 153.694 431.226 153.034 429.419C152.376 427.623 151.799 425.301 151.778 422.561C151.777 422.487 151.777 422.412 151.777 422.336C151.778 419.662 152.335 416.583 153.848 413.571C155.385 410.489 157.88 407.453 161.348 405.284C164.779 403.005 169.306 402.438 172.794 399.7C176.294 396.956 178.122 392.286 178.658 387.522C178.806 386.24 178.861 384.941 178.861 383.626C178.86 379.993 178.429 376.246 178.292 372.415C178.265 371.786 178.251 371.156 178.251 370.525C178.253 365.945 179.012 361.347 181.332 357.543C182.652 355.416 184.479 353.599 186.654 352.504C188.802 351.369 191.184 350.855 193.483 350.82C193.607 350.817 193.732 350.816 193.856 350.816C198.345 350.816 202.495 352.638 205.439 355.276C208.529 357.955 210.544 361.279 211.86 364.441C213.168 367.634 213.75 370.718 214.045 373.419C214.225 375.175 214.284 376.779 214.283 378.211C214.283 378.986 214.265 379.712 214.24 380.382C214.161 382.292 214.02 383.768 213.908 384.767C213.848 385.229 213.801 385.602 213.764 385.9C213.726 386.155 213.7 386.284 213.688 386.284C213.682 386.283 213.678 386.249 213.678 386.181C213.678 386.116 213.681 386.019 213.686 385.892C213.705 385.593 213.728 385.218 213.756 384.753C213.82 383.752 213.914 382.275 213.948 380.373C213.948 380.154 213.949 379.927 213.949 379.694C213.949 375.948 213.8 370.568 211.368 364.646C210.048 361.556 208.046 358.323 205.032 355.747C202.954 353.911 200.294 352.506 197.352 351.873C196.587 351.708 195.802 351.597 195.004 351.542C194.643 351.518 194.279 351.506 193.914 351.506C193.775 351.506 193.636 351.508 193.496 351.511C191.292 351.554 189.02 352.055 186.989 353.138C186.343 353.467 185.728 353.861 185.152 354.312C183.899 355.293 182.823 356.536 181.961 357.929C180.191 360.841 179.358 364.281 179.097 367.849C179.043 368.585 179.013 369.328 179.006 370.072C179.003 370.223 179.002 370.375 179.002 370.526C179.002 371.147 179.017 371.767 179.043 372.388C179.176 376.16 179.606 379.895 179.605 383.568C179.604 384.923 179.545 386.27 179.391 387.607C179.295 388.416 179.166 389.218 179.001 390.008C178.973 390.146 178.943 390.283 178.912 390.419C178.579 391.891 178.114 393.317 177.491 394.661C176.497 396.847 175.058 398.815 173.225 400.242C171.398 401.698 169.273 402.515 167.283 403.276C167.143 403.328 167.005 403.379 166.866 403.432C166.628 403.52 166.393 403.609 166.158 403.699C164.984 404.149 163.849 404.616 162.792 405.172C162.67 405.236 162.55 405.3 162.431 405.366C162.175 405.509 161.924 405.656 161.678 405.811C158.304 407.89 155.85 410.821 154.322 413.809C152.777 416.811 152.209 419.887 152.199 422.559C152.198 422.613 152.198 422.665 152.198 422.716C152.2 425.335 152.715 427.571 153.31 429.322C154.522 432.787 155.94 434.411 155.94 434.574C155.94 434.579 155.938 434.584 155.935 434.585L155.934 434.586Z" fill="#20A789"/>
<path d="M314.688 373.913C314.562 373.888 315.648 372.21 315.724 368.84C315.737 367.18 315.446 365.098 314.373 362.986C313.322 360.888 311.401 358.815 308.715 357.533C307.383 356.893 305.867 356.45 304.259 356.333C302.652 356.21 300.962 356.447 299.273 356.918C295.876 357.809 292.511 359.736 288.493 360.534C286.505 360.917 284.334 361.036 282.241 360.379C280.135 359.753 278.334 358.202 277.148 356.321C274.727 352.572 274.043 347.867 271.118 344.41C269.682 342.695 267.714 341.516 265.639 340.838C263.561 340.134 261.35 339.987 259.236 340.19C254.947 340.543 251.214 342.819 248.587 345.718C245.941 348.639 244.293 352.116 243.303 355.474C242.302 358.853 241.987 362.145 242.122 365.141C242.373 371.148 243.379 375.958 243.922 379.283C244.202 380.897 244.423 382.175 244.585 383.113C244.646 383.517 244.694 383.845 244.734 384.116C244.763 384.341 244.773 384.458 244.76 384.46C244.748 384.463 244.713 384.351 244.659 384.128C244.599 383.863 244.525 383.539 244.436 383.142C244.239 382.211 243.973 380.941 243.634 379.337C243.002 376.024 241.914 371.23 241.591 365.161C241.419 362.131 241.709 358.748 242.703 355.302C243.689 351.866 245.35 348.289 248.074 345.254C249.441 343.752 251.063 342.4 252.94 341.366C254.817 340.329 256.947 339.677 259.161 339.459C261.368 339.242 263.68 339.39 265.871 340.127C268.058 340.838 270.153 342.088 271.689 343.922C274.786 347.627 275.447 352.364 277.767 355.921C278.893 357.706 280.525 359.109 282.458 359.696C284.38 360.31 286.442 360.218 288.361 359.853C292.232 359.114 295.614 357.214 299.11 356.317C300.848 355.847 302.614 355.61 304.304 355.756C305.991 355.894 307.568 356.374 308.949 357.058C311.729 358.42 313.696 360.605 314.75 362.8C315.823 365.004 316.076 367.151 316.017 368.847C315.961 370.558 315.574 371.846 315.267 372.682C314.956 373.521 314.688 373.913 314.688 373.913Z" fill="#3AC7A5"/>
<path d="M274.12 348.795C277.844 351.117 283.073 351.326 286.49 349.608C289.908 347.889 292.298 344.118 292.788 339.677C288.965 337.852 284.789 337.639 281.295 339.09C277.803 340.54 275.026 343.64 273.652 347.623" fill="#3AC7A5"/>
<path d="M287.268 360.698C287.22 365.081 289.761 369.644 293.01 371.662C296.261 373.678 300.73 373.754 304.787 371.86C304.358 367.653 302.367 363.983 299.308 361.762C296.248 359.54 292.149 358.787 288.028 359.691" fill="#3AC7A5"/>
<path d="M310.083 358.059C314.035 359.972 319.256 359.624 322.469 357.551C325.684 355.479 327.658 351.477 327.67 347.007C323.674 345.599 319.499 345.831 316.181 347.645C312.863 349.459 310.432 352.838 309.493 356.943" fill="#3AC7A5"/>
<path d="M254.96 340.913C251.636 338.048 249.408 333.028 250.043 329.262C250.679 325.496 253.581 322.103 257.69 320.323C260.566 323.428 262.004 327.345 261.649 331.105C261.293 334.864 259.145 338.427 255.739 340.913" fill="#3AC7A5"/>
<path d="M165.886 324.614C165.875 324.608 165.92 324.506 166.02 324.313C166.145 324.081 166.297 323.802 166.48 323.462C166.901 322.724 167.555 321.653 168.488 320.334C170.373 317.74 173.409 314.003 178.415 310.972C180.909 309.491 183.904 308.208 187.321 307.708C190.718 307.225 194.501 307.476 198.14 308.841C201.758 310.167 205.28 312.694 207.397 316.405C209.524 320.109 210.209 324.461 211.453 328.618C212.085 330.698 212.882 332.7 214.038 334.444C215.197 336.182 216.778 337.553 218.433 338.766C220.09 339.984 221.821 341.082 223.39 342.361C224.958 343.644 226.316 345.126 227.415 346.715C229.626 349.901 230.873 353.428 231.541 356.77C232.217 360.124 232.285 363.333 232.092 366.216C231.683 372.003 230.462 376.542 229.669 379.657C229.258 381.215 228.913 382.417 228.675 383.23C228.434 384.044 228.296 384.467 228.271 384.46C228.246 384.454 228.335 384.018 228.528 383.192C228.739 382.304 229.025 381.102 229.386 379.586C230.09 376.456 231.226 371.91 231.562 366.186C231.718 363.331 231.62 360.179 230.929 356.893C230.249 353.622 229.005 350.186 226.846 347.11C225.771 345.574 224.46 344.155 222.936 342.917C221.406 341.678 219.685 340.592 217.996 339.359C216.314 338.132 214.646 336.698 213.417 334.861C212.199 333.029 211.376 330.952 210.733 328.834C209.475 324.606 208.79 320.316 206.757 316.769C204.748 313.228 201.391 310.789 197.897 309.488C194.385 308.151 190.712 307.88 187.408 308.324C184.094 308.779 181.148 310.005 178.685 311.429C173.74 314.344 170.667 317.984 168.725 320.506C167.762 321.789 167.069 322.831 166.609 323.54C166.157 324.257 165.908 324.627 165.886 324.614Z" fill="#3AC7A5"/>
<path d="M220.378 339.862C219.229 338.797 218.671 339.539 217.129 339.819C215.587 340.098 214.19 340.917 212.964 341.893C207.629 346.137 205.27 353.76 207.277 360.267C212.185 360.535 217.143 357.935 219.707 353.751C222.27 349.567 222.328 343.977 219.852 339.741" fill="#3AC7A5"/>
<path d="M173.242 318.452C172.665 316.997 171.841 317.427 170.328 317.018C168.815 316.609 167.201 316.749 165.674 317.103C159.027 318.643 153.611 324.512 152.619 331.247C156.933 333.596 162.531 333.379 166.648 330.701C170.765 328.025 173.228 323.003 172.819 318.116" fill="#3AC7A5"/>
<path d="M230.759 368.839C227.637 365.236 222.809 363.175 218.041 363.406C213.274 363.638 208.67 366.157 205.913 370.046C209.394 373.229 214.077 375.071 218.798 375.117C223.52 375.162 228.238 372.994 231.778 369.878" fill="#3AC7A5"/>
<path d="M226.889 347.199C231.678 347.337 236.483 345.198 239.578 341.549C242.673 337.9 243.995 332.818 243.066 328.128C238.051 326.981 232.474 328.774 229.073 332.624C225.671 336.475 224.59 342.222 226.359 347.041" fill="#3AC7A5"/>
<path d="M210.299 321.76C214.769 323.479 220.014 323.055 224.149 320.639C228.283 318.223 231.221 313.868 231.908 309.137C227.561 306.393 221.702 306.233 217.213 308.737C212.722 311.241 209.787 316.302 209.85 321.436" fill="#3AC7A5"/>
<path d="M204.737 313.456C200.266 311.737 195.022 312.161 190.887 314.577C186.752 316.992 183.815 321.348 183.128 326.079C187.475 328.823 193.333 328.981 197.823 326.477C202.314 323.974 205.248 318.912 205.185 313.78" fill="#3AC7A5"/>
<path d="M198.108 308.983C202.646 307.451 206.406 303.779 208.037 299.284C209.668 294.788 209.136 289.565 206.632 285.489C201.531 286.156 196.926 289.769 195.078 294.56C193.23 299.351 194.218 305.114 197.555 309.019" fill="#3AC7A5"/>
<path d="M181.118 309.792C182.752 305.298 182.222 300.074 179.72 295.997C177.218 291.92 172.796 289.076 168.042 288.485C165.379 292.875 165.336 298.724 167.933 303.154C170.532 307.584 175.661 310.411 180.802 310.246" fill="#3AC7A5"/>
<path d="M204.304 434.586L209.612 441.153H274.891L279.338 434.586H204.304Z" fill="#2C3F4D"/>
<path d="M277.905 434.525C277.905 434.731 261.864 434.9 242.08 434.9C222.29 434.9 206.251 434.731 206.251 434.525C206.251 434.316 222.29 434.149 242.08 434.149C261.864 434.149 277.905 434.316 277.905 434.525Z" fill="#335863"/>
<path d="M270.566 409.791C270.585 409.807 270.444 409.99 270.159 410.325C269.876 410.664 269.446 411.151 268.829 411.719C267.617 412.869 265.696 414.402 263.001 415.756C260.304 417.072 256.814 418.206 252.81 418.367C250.815 418.46 248.705 418.299 246.575 417.845C244.449 417.382 242.326 416.63 240.22 415.744C236.011 413.955 232.187 411.92 228.46 410.735C224.759 409.513 221.183 409.168 218.304 409.758C215.407 410.296 213.305 411.571 212.074 412.642C210.836 413.728 210.362 414.539 210.298 414.491C210.275 414.478 210.388 414.276 210.625 413.903C210.871 413.535 211.274 413.017 211.877 412.427C213.079 411.258 215.216 409.861 218.199 409.239C221.165 408.557 224.886 408.864 228.67 410.077C232.484 411.25 236.353 413.287 240.511 415.052C242.594 415.928 244.67 416.667 246.735 417.128C248.797 417.577 250.841 417.747 252.782 417.676C256.678 417.558 260.098 416.506 262.77 415.277C268.131 412.706 270.442 409.626 270.566 409.791Z" fill="#335863"/>
<path d="M271.216 404.704C271.234 404.724 271.08 404.896 270.768 405.209C270.461 405.527 269.993 405.98 269.34 406.508C268.049 407.577 266.047 409.002 263.298 410.251C260.548 411.467 257.044 412.525 253.036 412.696C251.039 412.794 248.929 412.659 246.784 412.277C244.644 411.88 242.486 411.229 240.331 410.456C236.024 408.894 232.069 407.101 228.289 406.048C224.526 404.966 220.96 404.641 218.048 405.122C215.121 405.551 212.935 406.656 211.583 407.587C210.23 408.537 209.634 409.259 209.579 409.206C209.56 409.189 209.699 409.005 209.986 408.666C210.28 408.334 210.747 407.873 211.411 407.351C212.739 406.324 214.959 405.108 217.961 404.597C220.95 404.034 224.64 404.317 228.474 405.382C232.33 406.417 236.322 408.205 240.585 409.749C242.719 410.514 244.835 411.157 246.921 411.555C249.008 411.934 251.057 412.083 253.007 412.006C256.917 411.876 260.36 410.896 263.085 409.764C268.551 407.393 271.104 404.543 271.216 404.704Z" fill="#335863"/>
<path d="M624.742 167.616C628.964 182.951 635.354 195.247 641.583 201.414C647.814 207.581 654.483 214.805 654.26 223.559C654.171 226.997 653.023 230.643 654.528 233.736C656.483 237.754 661.693 238.624 665.596 240.812C671.365 244.05 674.584 250.904 674.351 257.507C674.116 264.108 670.787 270.351 666.12 275.037C661.273 279.904 653.593 283.31 647.57 279.995C643.931 277.993 641.862 274.07 640.029 270.349C630.535 251.086 621.932 231.384 614.255 211.331" fill="#2C3F4D"/>
<path d="M585.898 101.957C575.215 90.1236 556.965 85.8054 542.095 91.5927C527.225 97.3801 516.723 112.889 516.892 128.813C516.999 139.082 521.025 149.843 516.958 159.277C514.082 165.95 507.427 170.99 506.513 178.198C505.451 186.558 512.616 194.143 512.241 202.561C511.997 208.058 508.542 212.913 504.569 216.726C500.595 220.542 495.976 223.685 492.331 227.815C482.204 239.293 481.557 257.424 489.212 270.673C496.866 283.924 511.645 292.234 526.864 294.033C542.084 295.832 557.596 291.645 571.068 284.351C579.842 279.597 588.083 273.333 593.3 264.836C598.516 256.34 600.306 245.339 596.183 236.264" fill="#2C3F4D"/>
<path d="M537.616 95.7777C537.625 95.9306 540.248 95.5069 544.425 96.094C548.618 96.6039 554.169 98.4346 560.296 100.514C566.432 102.588 572.335 103.717 576.632 103.397C578.772 103.267 580.479 102.904 581.613 102.529C582.75 102.161 583.343 101.868 583.328 101.831C583.284 101.666 580.825 102.754 576.609 102.857C572.4 103.031 566.642 101.85 560.534 99.7873C554.43 97.716 548.769 95.9366 544.492 95.5584C542.366 95.339 540.629 95.3556 539.441 95.4767C538.253 95.5901 537.608 95.7354 537.616 95.7777Z" fill="#49657B"/>
<path d="M671.013 440.244L645.352 368.158L656.068 299.634C659.203 281.158 660.894 264.869 655.837 255.661C642.321 231.042 626.272 228.983 604.316 223.517C599.787 222.391 565.416 221.572 561.647 222.532C531.866 226.158 512.927 242.118 502.759 267.85L491.845 313.61L476.724 361.502C473.816 367.363 468.985 371.438 463.089 372.797L403.104 393.864L403.72 405.608L403.375 421.463L483.291 405.684C499.32 402.52 515.577 396.454 520.021 380.952L528.394 355.418C532.717 366.151 537.393 375.985 537.393 375.985L532.174 440.244H671.013Z" fill="#3AC7A5"/>
<path d="M648.779 312.746L626.647 389.301C623.218 401.163 614.059 410.521 602.257 414.225L507.284 440.479L494.346 407.796L580.103 375.028L600.477 298.371C600.477 298.371 604.936 255.593 643.69 257.41" fill="#3AC7A5"/>
<path d="M643.69 257.41C643.69 257.41 643.298 257.431 642.533 257.434C641.771 257.471 640.633 257.363 639.146 257.505C636.186 257.637 631.722 258.103 626.447 260.227C623.826 261.289 621.015 262.783 618.282 264.895C615.547 267.001 612.903 269.717 610.533 272.985C605.838 279.533 602.175 288.306 600.745 298.399L600.742 298.427L600.738 298.44C595.097 319.759 588.189 345.877 580.452 375.121L580.405 375.299L580.232 375.366C553.917 385.43 524.949 396.512 494.487 408.164L494.713 407.652C495.44 409.487 496.226 411.471 497.013 413.464C500.657 422.669 504.25 431.746 507.65 440.335L507.18 440.102C536.368 432.05 563.897 424.453 588.776 417.59C591.887 416.733 594.956 415.888 597.981 415.054C599.488 414.629 601.006 414.243 602.475 413.794C603.926 413.318 605.342 412.762 606.713 412.129C612.19 409.578 616.824 405.744 620.259 401.269C621.976 399.029 623.398 396.63 624.522 394.154C625.662 391.681 626.409 389.122 627.133 386.583C628.603 381.528 630.012 376.685 631.355 372.067C636.743 353.616 641.072 338.787 644.062 328.545C645.564 323.454 646.73 319.508 647.526 316.81C647.925 315.489 648.23 314.477 648.442 313.773C648.653 313.091 648.779 312.746 648.779 312.746C648.779 312.746 648.701 313.105 648.515 313.793C648.318 314.503 648.036 315.519 647.669 316.849C646.902 319.558 645.783 323.517 644.338 328.624C641.401 338.882 637.151 353.734 631.86 372.212C630.532 376.835 629.139 381.684 627.686 386.744C626.975 389.266 626.22 391.888 625.068 394.401C623.933 396.919 622.494 399.362 620.754 401.647C617.271 406.207 612.566 410.12 606.995 412.727C605.602 413.373 604.161 413.943 602.672 414.434C601.189 414.892 599.684 415.276 598.174 415.706C595.149 416.546 592.083 417.396 588.973 418.258C564.099 425.149 536.574 432.773 507.389 440.857L507.05 440.951L506.921 440.624C503.518 432.033 499.925 422.956 496.28 413.753C495.491 411.762 494.706 409.776 493.979 407.94L493.832 407.57L494.205 407.428C524.676 395.798 553.652 384.737 579.974 374.692L579.753 374.936C587.558 345.709 594.527 319.608 600.216 298.303L600.208 298.343C601.693 288.126 605.414 279.337 610.187 272.735C612.598 269.448 615.285 266.718 618.062 264.609C620.836 262.491 623.685 261.003 626.338 259.955C631.674 257.855 636.167 257.437 639.138 257.352C640.632 257.236 641.772 257.369 642.536 257.357C643.301 257.38 643.69 257.41 643.69 257.41Z" fill="#2C3F4D"/>
<path d="M584.676 357.821C584.676 357.875 584.276 357.91 583.539 357.923C582.803 357.964 581.736 357.854 580.441 357.606C577.859 357.091 574.381 355.627 571.35 352.94C568.305 350.274 566.335 347.095 565.391 344.642C565.13 344.038 564.948 343.471 564.818 342.966C564.666 342.465 564.554 342.032 564.507 341.666C564.388 340.94 564.351 340.539 564.404 340.53C564.549 340.499 564.83 342.094 565.903 344.423C566.952 346.753 568.928 349.77 571.871 352.346C574.802 354.943 578.097 356.426 580.568 357.063C583.054 357.698 584.679 357.663 584.676 357.821Z" fill="#2C3F4D"/>
<path d="M527.568 300.312C527.618 300.332 527.337 301.135 526.788 302.569C526.252 304.007 525.428 306.069 524.493 308.644C522.669 313.772 520.096 321.03 519.9 329.358C519.827 333.505 520.446 337.446 521.587 340.854C522.697 344.276 524.189 347.183 525.589 349.52C527.004 351.856 528.324 353.639 529.254 354.854C530.183 356.073 530.726 356.727 530.677 356.769C530.656 356.789 530.497 356.645 530.213 356.356C529.927 356.067 529.516 355.633 529.016 355.047C528.007 353.885 526.606 352.139 525.114 349.814C523.636 347.485 522.068 344.56 520.896 341.082C519.694 337.619 519.034 333.574 519.11 329.344C519.315 320.839 522.009 313.542 523.971 308.447C524.976 305.886 525.88 303.854 526.505 302.451C527.14 301.053 527.518 300.291 527.568 300.312Z" fill="#2C3F4D"/>
<path d="M588.579 385.12C588.347 385.199 587.549 382.099 585.002 379.254C582.5 376.369 579.519 375.184 579.627 374.963C579.642 374.766 582.932 375.679 585.595 378.734C588.291 381.758 588.779 385.131 588.579 385.12Z" fill="#2C3F4D"/>
<path d="M496.148 412.346C496.148 412.346 468.932 415.037 469.49 432.688L503.392 430.646L496.148 412.346Z" fill="#F9B299"/>
<path d="M619.319 325.587C619.192 325.587 619.089 320.467 619.089 314.153C619.089 307.836 619.192 302.718 619.319 302.718C619.447 302.718 619.55 307.836 619.55 314.153C619.55 320.467 619.447 325.587 619.319 325.587Z" fill="#F9F9F9"/>
<path d="M626.889 312.745C626.889 312.872 623.3 312.976 618.872 312.976C614.445 312.976 610.856 312.872 610.856 312.745C610.856 312.617 614.445 312.515 618.872 312.515C623.3 312.515 626.889 312.617 626.889 312.745Z" fill="#F9F9F9"/>
<path d="M625.381 320.824C625.283 320.907 622.657 317.983 619.515 314.295C616.372 310.605 613.902 307.549 613.999 307.467C614.097 307.384 616.722 310.307 619.865 313.997C623.008 317.685 625.477 320.742 625.381 320.824Z" fill="#F9F9F9"/>
<path d="M613.383 319.523C613.338 319.483 613.853 318.768 614.784 317.689C615.711 316.607 617.048 315.168 618.551 313.607C620 312.11 621.309 310.759 622.411 309.623C623.398 308.605 624.001 307.968 624.053 308.009C624.1 308.05 623.582 308.765 622.652 309.842C621.727 310.924 620.388 312.363 618.884 313.926C617.438 315.421 616.126 316.772 615.025 317.908C614.038 318.927 613.435 319.564 613.383 319.523Z" fill="#F9F9F9"/>
<path d="M642.996 289.533C642.868 289.533 642.765 284.413 642.765 278.099C642.765 271.782 642.868 266.664 642.996 266.664C643.123 266.664 643.226 271.782 643.226 278.099C643.226 284.413 643.123 289.533 642.996 289.533Z" fill="#F9F9F9"/>
<path d="M650.565 276.691C650.565 276.818 646.976 276.922 642.548 276.922C638.121 276.922 634.532 276.818 634.532 276.691C634.532 276.563 638.121 276.461 642.548 276.461C646.976 276.461 650.565 276.563 650.565 276.691Z" fill="#F9F9F9"/>
<path d="M649.056 284.77C648.961 284.853 646.333 281.929 643.19 278.241C640.047 274.551 637.578 271.495 637.675 271.412C637.772 271.33 640.398 274.253 643.542 277.942C646.685 281.631 649.155 284.687 649.056 284.77Z" fill="#F9F9F9"/>
<path d="M637.06 283.469C637.013 283.43 637.531 282.714 638.461 281.635C639.386 280.553 640.724 279.114 642.227 277.553C643.675 276.057 644.987 274.705 646.087 273.569C647.074 272.551 647.678 271.914 647.73 271.955C647.775 271.994 647.259 272.71 646.328 273.789C645.402 274.87 644.065 276.309 642.561 277.872C641.113 279.366 639.803 280.718 638.702 281.853C637.715 282.873 637.111 283.51 637.06 283.469Z" fill="#F9F9F9"/>
<path d="M558.667 418.655C558.54 418.655 558.437 413.536 558.437 407.222C558.437 400.905 558.54 395.787 558.667 395.787C558.795 395.787 558.898 400.905 558.898 407.222C558.898 413.536 558.795 418.655 558.667 418.655Z" fill="#F9F9F9"/>
<path d="M566.235 405.814C566.235 405.941 562.646 406.044 558.22 406.044C553.791 406.044 550.204 405.941 550.204 405.814C550.204 405.685 553.791 405.584 558.22 405.584C562.646 405.584 566.235 405.685 566.235 405.814Z" fill="#F9F9F9"/>
<path d="M564.728 413.893C564.631 413.977 562.003 411.052 558.862 407.363C555.718 403.674 553.25 400.618 553.347 400.535C553.444 400.453 556.07 403.376 559.213 407.065C562.357 410.754 564.825 413.81 564.728 413.893Z" fill="#F9F9F9"/>
<path d="M552.731 412.592C552.684 412.551 553.202 411.837 554.133 410.759C555.057 409.677 556.396 408.238 557.899 406.675C559.347 405.18 560.657 403.829 561.759 402.693C562.745 401.674 563.35 401.036 563.4 401.078C563.447 401.117 562.928 401.833 562 402.912C561.074 403.994 559.735 405.433 558.232 406.994C556.784 408.489 555.473 409.84 554.374 410.976C553.385 411.995 552.783 412.633 552.731 412.592Z" fill="#F9F9F9"/>
<path d="M611.673 389.007C611.546 389.007 611.442 383.887 611.442 377.573C611.442 371.256 611.546 366.138 611.673 366.138C611.8 366.138 611.903 371.256 611.903 377.573C611.903 383.887 611.8 389.007 611.673 389.007Z" fill="#F9F9F9"/>
<path d="M619.242 376.165C619.242 376.292 615.653 376.396 611.226 376.396C606.798 376.396 603.211 376.292 603.211 376.165C603.211 376.036 606.798 375.935 611.226 375.935C615.653 375.935 619.242 376.036 619.242 376.165Z" fill="#F9F9F9"/>
<path d="M617.735 384.244C617.636 384.327 615.01 381.403 611.869 377.715C608.725 374.025 606.255 370.969 606.352 370.886C606.451 370.804 609.076 373.727 612.219 377.417C615.362 381.105 617.83 384.162 617.735 384.244Z" fill="#F9F9F9"/>
<path d="M605.737 382.943C605.691 382.904 606.207 382.188 607.138 381.109C608.064 380.027 609.401 378.588 610.904 377.027C612.354 375.531 613.664 374.179 614.764 373.043C615.752 372.025 616.355 371.388 616.407 371.429C616.454 371.47 615.935 372.185 615.006 373.263C614.081 374.344 612.742 375.783 611.239 377.346C609.791 378.841 608.48 380.192 607.379 381.328C606.392 382.347 605.788 382.984 605.737 382.943Z" fill="#F9F9F9"/>
<path d="M629.935 431.779C629.807 431.779 629.703 426.659 629.703 420.347C629.703 414.031 629.807 408.913 629.935 408.913C630.062 408.913 630.165 414.031 630.165 420.347C630.165 426.659 630.062 431.779 629.935 431.779Z" fill="#F9F9F9"/>
<path d="M637.504 418.938C637.504 419.065 633.915 419.168 629.487 419.168C625.06 419.168 621.471 419.065 621.471 418.938C621.471 418.811 625.06 418.708 629.487 418.708C633.915 418.708 637.504 418.811 637.504 418.938Z" fill="#F9F9F9"/>
<path d="M635.995 427.017C635.898 427.099 633.272 424.177 630.129 420.487C626.986 416.798 624.517 413.742 624.614 413.66C624.711 413.577 627.337 416.5 630.481 420.189C633.622 423.878 636.092 426.936 635.995 427.017Z" fill="#F9F9F9"/>
<path d="M623.999 425.715C623.952 425.677 624.469 424.961 625.4 423.881C626.324 422.801 627.663 421.36 629.166 419.799C630.614 418.305 631.924 416.953 633.026 415.817C634.013 414.8 634.617 414.161 634.668 414.204C634.715 414.241 634.197 414.957 633.267 416.036C632.341 417.118 631.004 418.557 629.5 420.12C628.051 421.613 626.741 422.966 625.641 424.102C624.652 425.12 624.05 425.759 623.999 425.715Z" fill="#F9F9F9"/>
<path d="M542.707 361.985C542.581 361.985 542.477 356.866 542.477 350.552C542.477 344.237 542.581 339.118 542.707 339.118C542.835 339.118 542.939 344.237 542.939 350.552C542.939 356.866 542.835 361.985 542.707 361.985Z" fill="#F9F9F9"/>
<path d="M550.277 349.143C550.277 349.27 546.688 349.373 542.262 349.373C537.834 349.373 534.245 349.27 534.245 349.143C534.245 349.016 537.834 348.913 542.262 348.913C546.688 348.913 550.277 349.016 550.277 349.143Z" fill="#F9F9F9"/>
<path d="M548.769 357.224C548.672 357.306 546.045 354.383 542.903 350.694C539.76 347.005 537.29 343.948 537.388 343.866C537.485 343.783 540.112 346.706 543.255 350.395C546.398 354.085 548.866 357.141 548.769 357.224Z" fill="#F9F9F9"/>
<path d="M536.771 355.92C536.726 355.882 537.243 355.167 538.172 354.088C539.099 353.006 540.438 351.569 541.94 350.006C543.388 348.511 544.698 347.158 545.801 346.024C546.786 345.005 547.39 344.367 547.441 344.409C547.488 344.447 546.971 345.163 546.042 346.241C545.115 347.323 543.776 348.762 542.274 350.325C540.826 351.82 539.516 353.171 538.413 354.307C537.428 355.326 536.824 355.964 536.771 355.92Z" fill="#F9F9F9"/>
<path d="M576.558 324.493C576.431 324.493 576.326 319.375 576.326 313.059C576.326 306.745 576.431 301.627 576.558 301.627C576.687 301.627 576.788 306.745 576.788 313.059C576.788 319.375 576.687 324.493 576.558 324.493Z" fill="#F9F9F9"/>
<path d="M584.127 311.652C584.127 311.779 580.538 311.882 576.112 311.882C571.683 311.882 568.096 311.779 568.096 311.652C568.096 311.525 571.683 311.421 576.112 311.421C580.538 311.421 584.127 311.525 584.127 311.652Z" fill="#F9F9F9"/>
<path d="M582.62 319.733C582.521 319.813 579.895 316.892 576.753 313.203C573.609 309.514 571.14 306.456 571.237 306.373C571.334 306.291 573.96 309.215 577.105 312.903C580.247 316.592 582.715 319.65 582.62 319.733Z" fill="#F9F9F9"/>
<path d="M570.623 318.429C570.575 318.391 571.093 317.675 572.023 316.597C572.949 315.515 574.288 314.076 575.791 312.514C577.239 311.02 578.549 309.667 579.65 308.531C580.637 307.512 581.242 306.874 581.292 306.918C581.339 306.956 580.82 307.671 579.891 308.75C578.966 309.832 577.627 311.271 576.124 312.834C574.676 314.327 573.365 315.68 572.264 316.816C571.277 317.834 570.673 318.473 570.623 318.429Z" fill="#F9F9F9"/>
<path d="M487.306 390.538C487.179 390.538 487.076 385.42 487.076 379.106C487.076 372.791 487.179 367.67 487.306 367.67C487.434 367.67 487.538 372.791 487.538 379.106C487.538 385.42 487.434 390.538 487.306 390.538Z" fill="#F9F9F9"/>
<path d="M494.875 377.697C494.875 377.824 491.286 377.927 486.859 377.927C482.431 377.927 478.843 377.824 478.843 377.697C478.843 377.57 482.431 377.467 486.859 377.467C491.286 377.467 494.875 377.57 494.875 377.697Z" fill="#F9F9F9"/>
<path d="M493.367 385.777C493.27 385.86 490.644 382.935 487.501 379.247C484.357 375.558 481.889 372.502 481.986 372.42C482.083 372.337 484.709 375.26 487.854 378.949C490.996 382.637 493.465 385.694 493.367 385.777Z" fill="#F9F9F9"/>
<path d="M481.37 384.476C481.323 384.436 481.842 383.721 482.771 382.642C483.698 381.56 485.035 380.121 486.539 378.558C487.987 377.065 489.297 375.712 490.398 374.577C491.385 373.558 491.988 372.921 492.04 372.961C492.087 373.002 491.568 373.716 490.641 374.795C489.713 375.877 488.375 377.316 486.871 378.877C485.423 380.374 484.113 381.725 483.012 382.861C482.025 383.879 481.422 384.518 481.37 384.476Z" fill="#F9F9F9"/>
<path d="M509.412 327.602C509.283 327.602 509.18 322.484 509.18 316.168C509.18 309.853 509.283 304.734 509.412 304.734C509.538 304.734 509.641 309.853 509.641 316.168C509.641 322.484 509.538 327.602 509.412 327.602Z" fill="#F9F9F9"/>
<path d="M516.979 314.76C516.979 314.887 513.39 314.991 508.965 314.991C504.536 314.991 500.947 314.887 500.947 314.76C500.947 314.633 504.536 314.53 508.965 314.53C513.39 314.53 516.979 314.633 516.979 314.76Z" fill="#F9F9F9"/>
<path d="M515.472 322.841C515.375 322.923 512.748 319.999 509.604 316.312C506.461 312.622 503.993 309.566 504.09 309.482C504.187 309.399 506.814 312.324 509.958 316.013C513.099 319.701 515.569 322.759 515.472 322.841Z" fill="#F9F9F9"/>
<path d="M503.474 321.538C503.427 321.499 503.946 320.785 504.875 319.706C505.802 318.624 507.139 317.185 508.643 315.624C510.091 314.127 511.401 312.776 512.502 311.64C513.489 310.622 514.092 309.983 514.144 310.026C514.191 310.065 513.674 310.781 512.743 311.858C511.818 312.94 510.479 314.379 508.975 315.943C507.527 317.436 506.219 318.789 505.116 319.924C504.129 320.942 503.526 321.581 503.474 321.538Z" fill="#F9F9F9"/>
<path d="M537.567 284.533C537.439 284.533 537.335 279.413 537.335 273.099C537.335 266.783 537.439 261.666 537.567 261.666C537.695 261.666 537.798 266.783 537.798 273.099C537.798 279.413 537.695 284.533 537.567 284.533Z" fill="#F9F9F9"/>
<path d="M545.136 271.691C545.136 271.819 541.546 271.921 537.12 271.921C532.693 271.921 529.104 271.819 529.104 271.691C529.104 271.564 532.693 271.46 537.12 271.46C541.546 271.46 545.136 271.564 545.136 271.691Z" fill="#F9F9F9"/>
<path d="M543.628 279.77C543.531 279.853 540.905 276.928 537.761 273.241C534.618 269.552 532.15 266.496 532.247 266.413C532.344 266.331 534.97 269.253 538.113 272.943C541.255 276.63 543.725 279.689 543.628 279.77Z" fill="#F9F9F9"/>
<path d="M531.631 278.468C531.584 278.431 532.101 277.713 533.032 276.635C533.957 275.553 535.296 274.114 536.799 272.552C538.248 271.059 539.557 269.706 540.657 268.57C541.646 267.55 542.249 266.913 542.299 266.957C542.348 266.995 541.829 267.711 540.9 268.789C539.974 269.87 538.635 271.31 537.132 272.872C535.684 274.367 534.374 275.719 533.273 276.855C532.285 277.874 531.681 278.511 531.631 278.468Z" fill="#F9F9F9"/>
<path d="M555.823 439.995L555.62 435.838L494.149 429.978L465.416 357.002C464.47 354.599 462.161 353.009 459.575 352.976L354.734 351.638C350.058 351.579 346.917 356.404 348.872 360.644L385.584 440.244C442.557 440.128 500.254 440.989 555.823 439.995Z" fill="#D6DAE1"/>
<path d="M605.414 115.096L605.474 122.902L607.133 239.736C607.326 253.301 595.792 264.267 581.235 264.364C566.534 264.458 554.287 253.438 553.867 239.739C553.426 225.361 552.696 210.235 552.696 210.235C552.696 210.235 534.048 207.669 529.533 183.608C527.288 171.641 527.349 151.916 527.921 135.779C528.435 121.256 540.953 110.08 555.473 111.211L605.414 115.096Z" fill="#F9B299"/>
<path d="M536.124 149.844C536.11 151.483 537.492 152.845 539.205 152.888C540.917 152.934 542.316 151.646 542.328 150.008C542.342 148.369 540.962 147.004 539.252 146.96C537.537 146.915 536.136 148.206 536.124 149.844Z" fill="#2C3F4D"/>
<path d="M532.488 145.915C532.883 146.307 535.19 144.505 538.533 144.422C541.87 144.29 544.371 145.939 544.722 145.52C544.895 145.335 544.483 144.615 543.394 143.869C542.321 143.126 540.507 142.423 538.424 142.489C536.344 142.559 534.614 143.372 533.628 144.183C532.621 144.997 532.294 145.736 532.488 145.915Z" fill="#2C3F4D"/>
<path d="M568.834 149.524C568.82 151.162 570.2 152.525 571.915 152.569C573.627 152.613 575.027 151.326 575.04 149.687C575.052 148.048 573.671 146.684 571.961 146.64C570.247 146.596 568.846 147.886 568.834 149.524Z" fill="#2C3F4D"/>
<path d="M565.362 145.632C565.759 146.025 568.065 144.223 571.406 144.14C574.743 144.01 577.245 145.658 577.596 145.239C577.769 145.053 577.36 144.335 576.265 143.588C575.193 142.844 573.38 142.141 571.298 142.207C569.216 142.276 567.486 143.089 566.501 143.901C565.498 144.717 565.168 145.456 565.362 145.632Z" fill="#2C3F4D"/>
<path d="M553.914 170.7C553.925 170.511 551.837 170.21 548.457 169.874C547.603 169.809 546.789 169.662 546.63 169.084C546.412 168.474 546.744 167.547 547.13 166.544C547.875 164.46 548.656 162.277 549.474 159.989C552.725 150.658 555.053 142.996 554.675 142.869C554.298 142.742 551.356 150.201 548.107 159.532C547.326 161.832 546.578 164.023 545.869 166.123C545.573 167.1 545.047 168.212 545.519 169.477C545.766 170.107 546.406 170.552 546.956 170.685C547.508 170.835 547.989 170.83 548.412 170.845C551.805 170.934 553.907 170.891 553.914 170.7Z" fill="#2C3F4D"/>
<path d="M552.697 210.235C552.697 210.235 569.019 210.836 584.894 200.708C584.894 200.708 577.484 217.527 553.182 215.93L552.697 210.235Z" fill="#F79570"/>
<path d="M555.55 178.701C556.708 177.08 558.79 176.153 560.887 176.319C562.343 176.436 563.827 177.092 564.742 178.248C565.654 179.401 565.886 181.07 565.116 182.217C564.249 183.506 562.372 183.851 560.764 183.443C559.156 183.034 557.755 182.023 556.42 181.016C556.052 180.736 555.676 180.445 555.439 180.055C555.204 179.666 555.142 179.149 555.411 178.814" fill="#F79570"/>
<path d="M563.814 172.738C563.269 172.72 563.363 176.342 560.329 178.997C557.301 181.66 553.421 181.359 553.408 181.866C553.364 182.096 554.287 182.547 555.92 182.545C557.524 182.556 559.849 181.979 561.705 180.354C563.556 178.726 564.313 176.602 564.395 175.113C564.493 173.596 564.062 172.711 563.814 172.738Z" fill="#2C3F4D"/>
<path d="M564.137 132.585C564.491 133.482 567.817 132.96 571.751 133.324C575.692 133.61 578.887 134.667 579.386 133.84C579.605 133.443 579.032 132.608 577.728 131.764C576.438 130.921 574.391 130.145 572.03 129.948C569.669 129.756 567.524 130.187 566.112 130.807C564.688 131.425 563.983 132.159 564.137 132.585Z" fill="#2C3F4D"/>
<path d="M533.451 136.227C534.06 136.968 536.341 136.118 539.108 136.006C541.872 135.796 544.236 136.374 544.754 135.567C544.979 135.175 544.589 134.427 543.544 133.738C542.516 133.051 540.811 132.513 538.909 132.623C537.009 132.736 535.379 133.467 534.438 134.269C533.481 135.076 533.181 135.864 533.451 136.227Z" fill="#2C3F4D"/>
<path d="M574.955 107.443C568.485 116.031 575.222 128.188 582.678 135.941C590.133 143.691 599.22 152.692 597.185 163.242C594.827 175.473 578.061 183.308 580.55 195.515C581.459 199.971 584.981 203.769 584.997 208.318C585.028 216.523 574.385 220.51 571.322 228.127C567.124 238.564 578.667 248.973 578.843 260.22C578.942 266.605 575.316 272.561 575.122 278.945C574.728 292.022 590.227 301.593 602.936 298.378C615.647 295.162 624.352 282.785 627.121 269.994C629.891 257.206 625.692 239.228 623.639 226.305L645.66 231.401C649.761 227.5 644.154 223.349 643.228 217.77C640.911 203.785 631.7 191.943 627.315 178.457C623.482 166.672 623.456 154.049 621.782 141.771C620.106 129.496 616.293 116.7 606.897 108.601C597.501 100.5 581.236 99.5028 573.635 109.3" fill="#2C3F4D"/>
<path d="M609.997 293.644C610.008 293.635 609.905 293.473 609.693 293.163C609.461 292.824 609.15 292.372 608.753 291.797C607.981 290.56 606.869 288.707 605.876 286.124C604.898 283.548 604.013 280.239 603.829 276.32C603.675 272.425 604.142 267.873 606.085 263.337C607.973 258.766 611.323 254.437 614.866 249.804C616.625 247.469 618.44 245.03 619.993 242.298C621.536 239.561 622.726 236.508 623.34 233.232C623.895 229.968 623.85 226.388 622.423 223.128C621.703 221.516 620.661 220.022 619.385 218.766C618.103 217.51 616.657 216.44 615.197 215.402C612.302 213.357 609.194 211.282 607.568 208.037C605.928 204.82 605.926 200.941 606.794 197.341C608.48 189.955 613.55 184.216 616.766 177.793C618.396 174.594 619.595 171.139 619.718 167.622C619.896 164.112 619.036 160.706 617.712 157.668C614.986 151.563 610.543 146.871 606.166 143.022C601.764 139.15 597.422 135.858 593.846 132.428C590.244 129.033 587.434 125.495 585.677 121.983C583.877 118.499 583.032 115.163 582.826 112.42C582.599 109.667 582.994 107.52 583.396 106.13C583.789 104.729 584.129 104.031 584.08 104.013C584.08 104.013 583.693 104.686 583.249 106.086C582.796 107.475 582.344 109.643 582.53 112.441C582.693 115.226 583.505 118.626 585.295 122.176C587.038 125.754 589.866 129.375 593.472 132.817C597.05 136.3 601.387 139.625 605.743 143.494C610.075 147.339 614.423 151.982 617.066 157.951C618.346 160.918 619.165 164.214 618.987 167.591C618.863 170.969 617.703 174.31 616.096 177.454C614.489 180.616 612.464 183.638 610.555 186.811C608.621 189.967 606.939 193.42 606.048 197.166C605.154 200.87 605.136 204.947 606.889 208.38C608.639 211.853 611.89 213.98 614.763 216.015C616.219 217.042 617.632 218.089 618.861 219.291C620.088 220.495 621.065 221.895 621.753 223.42C623.112 226.502 623.177 229.939 622.645 233.109C622.059 236.291 620.905 239.285 619.406 241.97C617.893 244.655 616.102 247.088 614.358 249.423C610.847 254.063 607.477 258.457 605.587 263.126C603.638 267.768 603.203 272.395 603.402 276.343C603.629 280.311 604.568 283.647 605.599 286.232C606.643 288.824 607.806 290.668 608.624 291.881C609.045 292.481 609.405 292.912 609.63 293.21C609.864 293.506 609.988 293.652 609.997 293.644Z" fill="#49657B"/>
<path fill-rule="evenodd" clip-rule="evenodd" d="M420.488 399.608L425.966 394.141C426.986 393.124 428.601 393.082 429.57 394.049C430.539 395.016 430.498 396.628 429.478 397.645L422.151 404.956C421.131 405.974 419.516 406.015 418.547 405.049L411.587 398.103C410.618 397.136 410.659 395.524 411.679 394.507C412.699 393.488 414.315 393.447 415.283 394.414L420.488 399.608Z" fill="#2D3F4D"/>
<path d="M418.868 390.87C419.862 391.861 421.516 391.819 422.562 390.775C423.608 389.731 423.65 388.081 422.656 387.09C421.663 386.098 420.009 386.14 418.963 387.184C417.917 388.228 417.874 389.878 418.868 390.87Z" fill="#1EA788"/>
</svg>
