<svg width="227" height="201" viewBox="0 0 227 201" fill="none" xmlns="http://www.w3.org/2000/svg">
<g clip-path="url(#clip0_12703_6404)">
<path d="M13.3721 143.199L14.6696 142.497L17.6993 148.105L16.4023 148.806L13.3721 143.199Z" fill="#F9F9F9"/>
<path d="M21.1189 177.592L0.952343 92.3023C0.108454 88.7333 1.24744 84.8858 4.0367 82.6665C5.43285 81.5547 7.11444 80.912 8.9086 80.912L64.7364 79.1462C67.6909 79.0526 70.4304 80.7635 71.7658 83.5366L77.3321 95.0951L148.233 95.1628C153.44 95.1628 158.907 102.392 158.288 108.458L164.337 179.525C163.463 188.092 155.902 194.541 148.549 194.541H36.5426C28.849 194.541 22.3491 187.83 21.1189 177.592Z" fill="#20A789"/>
<path d="M163.734 182.546C163.953 181.538 164.147 180.447 164.315 179.266L164.337 179.525C164.231 180.565 164.025 181.576 163.734 182.546ZM21.9581 181.761C21.5779 180.45 21.2937 179.056 21.1181 177.591L14.4756 149.498L13.8893 147.019L10.6648 133.382L10.6207 133.196L8.48122 124.148L8.29741 123.369L0.951577 92.302C0.768816 91.5282 0.678711 90.7412 0.678711 89.9604C0.679252 87.1409 1.85111 84.4041 4.0359 82.6658C5.43209 81.554 7.11364 80.9113 8.9078 80.9113L64.7356 79.1456C64.8122 79.1436 64.8896 79.1421 64.9661 79.1421C67.8317 79.1421 70.464 80.8355 71.7649 83.5359L72.3462 84.744L16.7465 85.5855L17.3942 97.057C13.7669 97.5957 9.99621 98.1561 6.09488 98.7354L5.93207 98.7593L5.95794 98.9136C8.32587 113.029 11.0413 129.21 13.9141 146.333L13.9153 146.338L13.9438 146.511L14.1261 146.483C16.1415 146.18 18.1449 145.877 20.1339 145.578L22.081 180.068C22.023 180.655 21.9824 181.22 21.9581 181.761Z" fill="#188972"/>
<path d="M22.0825 180.076L16.7471 85.5857L148.98 83.5845L153.616 178.282L22.0817 180.076H22.0825Z" fill="#F4F7F9"/>
<path d="M21.4798 89.4595C21.4798 89.9877 21.0834 90.4154 20.595 90.4154C20.1069 90.4154 19.7109 89.9877 19.7109 89.4595C19.7109 88.932 20.1069 88.5039 20.595 88.5039C21.0834 88.5039 21.4798 88.932 21.4798 89.4595Z" fill="#D4DDE4"/>
<path d="M24.911 89.4595C24.911 89.9877 24.5154 90.4154 24.0266 90.4154C23.5386 90.4154 23.1426 89.9877 23.1426 89.4595C23.1426 88.932 23.5386 88.5039 24.0266 88.5039C24.5154 88.5039 24.911 88.932 24.911 89.4595Z" fill="#D4DDE4"/>
<path d="M28.343 89.4595C28.343 89.9877 27.9471 90.4154 27.4586 90.4154C26.9698 90.4154 26.5742 89.9877 26.5742 89.4595C26.5742 88.932 26.9698 88.5039 27.4586 88.5039C27.9471 88.5039 28.343 88.932 28.343 89.4595Z" fill="#D4DDE4"/>
<path d="M68.8793 89.4595L76.8561 136.882L14.0973 146.312L6.12109 98.8899L68.8793 89.4595Z" fill="white"/>
<path d="M15.7586 143.002L74.1078 134.235L67.1358 92.7832L8.78613 101.55L15.7586 143.002Z" fill="#335863"/>
<path d="M15.7588 143.002L24.7758 126.802L25.0635 141.604L15.7588 143.002Z" fill="#193A42"/>
<path d="M25.8976 184.557L24.1113 92.6192L159.358 92.333L158.8 183.19L25.8964 184.557H25.8976Z" fill="#E4E7EC"/>
<path d="M31.9515 96.2186C31.9515 96.7461 31.5551 97.1742 31.0666 97.1742C30.5786 97.1742 30.1826 96.7461 30.1826 96.2186C30.1826 95.6912 30.5786 95.2627 31.0666 95.2627C31.5551 95.2627 31.9515 95.6912 31.9515 96.2186Z" fill="#D3DDE4"/>
<path d="M35.1214 96.2186C35.1214 96.7461 34.7258 97.1742 34.237 97.1742C33.7489 97.1742 33.3525 96.7461 33.3525 96.2186C33.3525 95.6912 33.7489 95.2627 34.237 95.2627C34.7258 95.2627 35.1214 95.6912 35.1214 96.2186Z" fill="#D3DDE4"/>
<path d="M28.5852 96.2186C28.5852 96.7461 28.1889 97.1742 27.7008 97.1742C27.2124 97.1742 26.8164 96.7461 26.8164 96.2186C26.8164 95.6912 27.2124 95.2627 27.7008 95.2627C28.1889 95.2627 28.5852 95.6912 28.5852 96.2186Z" fill="#D3DDE4"/>
<path d="M29.0424 186.799V99.383L163.731 99.1011L156.499 188.678L29.0424 186.799Z" fill="#F9F9F9"/>
<path d="M22.4875 177.122L30.5431 111.436C31.1739 106.299 34.8295 102.495 39.1359 102.495H162.157C167.363 102.495 171.399 107.98 170.781 114.213L164.338 179.109C162.452 192.608 157.271 194.54 149.918 194.54H34.9532C27.2596 194.54 19.8145 192.608 22.4875 177.122Z" fill="#20A789"/>
<path fill-rule="evenodd" clip-rule="evenodd" d="M90.3336 143.427C91.7071 138.424 96.2856 134.749 101.725 134.749C107.165 134.749 111.744 138.424 113.117 143.427C117.227 144.383 120.288 148.067 120.288 152.467C120.288 155.687 118.647 158.522 116.164 160.184C115.389 160.703 114.341 160.495 113.823 159.721C113.305 158.946 113.512 157.898 114.287 157.38C115.874 156.317 116.913 154.513 116.913 152.467C116.913 149.392 114.562 146.864 111.56 146.586C110.796 146.516 110.175 145.938 110.051 145.18C109.393 141.177 105.914 138.123 101.725 138.123C97.5368 138.123 94.0582 141.177 93.4002 145.18C93.2756 145.938 92.6553 146.516 91.8907 146.586C88.8892 146.864 86.538 149.392 86.538 152.467C86.538 154.513 87.5771 156.317 89.1642 157.38C89.9387 157.898 90.1463 158.946 89.6278 159.721C89.1094 160.495 88.0613 160.703 87.2869 160.184C84.8038 158.522 83.1631 155.687 83.1631 152.467C83.1631 148.067 86.224 144.383 90.3336 143.427ZM100.038 155.697L96.1687 159.567C95.5097 160.226 94.4412 160.226 93.7822 159.567C93.1232 158.908 93.1232 157.839 93.7822 157.18L100.532 150.43C101.191 149.771 102.26 149.771 102.919 150.43L109.669 157.18C110.328 157.839 110.328 158.908 109.669 159.567C109.01 160.226 107.941 160.226 107.282 159.567L103.413 155.697V166.811C103.413 167.743 102.657 168.498 101.725 168.498C100.793 168.498 100.038 167.743 100.038 166.811V155.697Z" fill="#F3F4F6"/>
<path d="M185.426 13.6643C185.4 13.6429 185.107 13.8986 184.653 14.3287C184.199 14.759 183.585 15.3638 182.918 16.0417C182.25 16.7196 181.656 17.3418 181.233 17.8011C180.811 18.2609 180.562 18.5565 180.586 18.5801C180.609 18.6031 180.901 18.349 181.355 17.9187C181.808 17.4886 182.424 16.8822 183.094 16.2023C183.763 15.5229 184.358 14.8986 184.781 14.4393C185.202 13.98 185.451 13.6855 185.426 13.6643Z" fill="#D3DDE4"/>
<path d="M138.442 41.0967C138.442 41.0967 133.299 36.4584 132.557 36.1727C131.813 35.8873 125.835 35.5388 125.42 35.8227C125.004 36.1062 118.816 39.1894 119.798 39.7378C120.78 40.2869 125.077 38.0734 125.077 38.0734L125.779 38.1944C125.779 38.1944 122.038 40.0069 121.355 40.7347C120.726 41.4045 121.268 42.2588 121.965 41.9672C122.663 41.6752 125.879 39.9837 126.124 40.063C126.369 40.1419 122.687 42.1049 122.34 42.4815C121.874 42.9885 122.121 44.0152 122.822 43.7496C123.236 43.5929 126.643 41.5236 126.643 41.5236C126.643 41.5236 124.054 43.5373 123.861 43.8749C123.545 44.4279 124.089 44.9607 124.681 44.6289C125.088 44.4012 126.86 42.7901 127.404 42.4869C127.404 42.4869 127.994 42.4684 128.822 43.4224C129.217 43.8779 131.309 46.4361 133.019 45.3003L134.888 46.7648L138.442 41.0967Z" fill="#F9B299"/>
<path d="M119.816 39.7503C119.816 39.7886 120.311 39.8397 121.104 39.7202C121.499 39.6591 121.965 39.5504 122.465 39.371C122.946 39.1641 123.469 38.9232 124.018 38.671C124.422 38.4815 124.812 38.299 125.181 38.1261L125.106 38.1412C126.887 38.2298 128.179 38.2472 128.185 38.1756C128.19 38.1037 126.905 37.9645 125.122 37.8357L125.086 37.833L125.046 37.8512C124.679 38.0182 124.291 38.1954 123.888 38.3783C123.354 38.6285 122.845 38.8671 122.36 39.0941C121.885 39.2828 121.439 39.4104 121.061 39.4974C120.302 39.6707 119.814 39.7004 119.816 39.7503Z" fill="#F79570"/>
<path d="M217.541 176.525L220.73 189.187L226.139 198.473C226.529 199.143 226.271 200.002 225.577 200.345C225.188 200.538 224.734 200.533 224.352 200.326C221.923 199.015 213.013 194.148 212.831 193.209C212.621 192.121 208.581 180.077 208.581 180.077L217.541 176.525Z" fill="#20A789"/>
<path d="M224.954 200.5C225.168 200.5 225.382 200.448 225.577 200.345C225.389 200.439 225.185 200.485 224.982 200.485C224.766 200.485 224.549 200.432 224.353 200.325C222.518 199.336 216.987 196.318 214.311 194.495H214.263C215.723 195.442 218.717 197.284 224.314 200.337C224.513 200.445 224.734 200.5 224.954 200.5ZM214.077 194.334C213.594 193.996 213.226 193.706 213.018 193.488C213.159 193.698 213.34 193.88 213.552 194.024C213.678 194.11 213.832 194.213 214.016 194.334H214.077ZM212.794 193.049C212.753 192.89 212.685 192.656 212.598 192.362L212.744 192.892C212.759 192.946 212.775 192.997 212.794 193.049Z" fill="white"/>
<path d="M214.263 194.495H214.311C214.23 194.44 214.152 194.386 214.077 194.334H214.016C214.093 194.384 214.175 194.438 214.263 194.495Z" fill="#9DA7AA"/>
<path d="M224.982 200.486C225.185 200.486 225.389 200.439 225.577 200.345L212.597 192.36L212.598 192.362C212.686 192.656 212.753 192.89 212.794 193.049C212.851 193.204 212.926 193.353 213.018 193.489C213.226 193.707 213.594 193.996 214.077 194.334C214.152 194.387 214.231 194.44 214.311 194.495C216.987 196.318 222.519 199.336 224.353 200.326C224.55 200.432 224.766 200.486 224.982 200.486Z" fill="#E1E5E2"/>
<path d="M213.813 189.077C214.134 189.077 214.457 188.858 214.551 188.546C214.659 188.189 214.46 187.773 214.126 187.614C214.042 187.563 213.946 187.539 213.845 187.539C213.541 187.539 213.204 187.752 213.086 188.025C212.929 188.391 213.227 188.921 213.605 189.045C213.672 189.067 213.742 189.077 213.813 189.077Z" fill="#E1E5E2"/>
<path d="M221.181 195.642C221.262 195.657 221.364 194.919 222.014 194.358C222.647 193.777 223.391 193.762 223.385 193.68C223.388 193.647 223.202 193.592 222.895 193.633C222.592 193.67 222.178 193.829 221.823 194.144C221.469 194.459 221.264 194.852 221.191 195.15C221.116 195.449 221.147 195.64 221.181 195.642Z" fill="#2C343A"/>
<path d="M222.544 197.079C222.619 197.117 222.91 196.596 223.509 196.23C224.1 195.85 224.695 195.816 224.693 195.732C224.712 195.657 224.033 195.558 223.357 195.987C222.676 196.408 222.469 197.064 222.544 197.079Z" fill="#2C343A"/>
<path d="M218.917 193.943C218.992 193.987 219.435 193.183 220.317 192.531C221.189 191.866 222.083 191.665 222.063 191.58C222.065 191.507 221.082 191.591 220.145 192.302C219.201 193.004 218.846 193.924 218.917 193.943Z" fill="#2C343A"/>
<path d="M217.625 190.175C217.679 190.241 218.295 189.758 219.189 189.476C220.081 189.181 220.862 189.212 220.867 189.127C220.885 189.055 220.06 188.888 219.102 189.203C218.14 189.509 217.569 190.128 217.625 190.175Z" fill="#2C343A"/>
<path d="M216.596 186.483C216.655 186.545 217.238 185.932 218.205 185.711C219.167 185.469 219.964 185.751 219.989 185.669C220.002 185.636 219.821 185.517 219.484 185.43C219.151 185.341 218.658 185.309 218.138 185.433C217.619 185.558 217.194 185.81 216.937 186.04C216.676 186.271 216.57 186.46 216.596 186.483Z" fill="#2C343A"/>
<path d="M217.988 185.014C218.004 185.01 217.986 184.833 217.873 184.533C217.761 184.236 217.549 183.812 217.151 183.391C216.95 183.195 216.726 182.933 216.329 182.865C216.131 182.829 215.88 182.934 215.776 183.142C215.673 183.345 215.684 183.565 215.735 183.765C215.969 184.56 216.868 185.143 217.797 185.01C218.727 184.859 219.401 184.118 219.568 183.33C219.597 183.129 219.59 182.896 219.433 182.71C219.278 182.522 218.999 182.507 218.828 182.588C218.469 182.747 218.293 183.028 218.118 183.248C217.78 183.717 217.614 184.157 217.53 184.463C217.445 184.772 217.44 184.949 217.456 184.952C217.509 184.972 217.603 184.246 218.28 183.371C218.454 183.164 218.65 182.91 218.912 182.811C219.039 182.761 219.167 182.782 219.242 182.875C219.319 182.962 219.336 183.128 219.307 183.287C219.161 183.935 218.543 184.611 217.755 184.726C216.973 184.847 216.184 184.333 215.989 183.695C215.945 183.541 215.943 183.373 216 183.258C216.057 183.146 216.173 183.086 216.303 183.101C216.575 183.132 216.812 183.352 217.007 183.534C217.792 184.312 217.935 185.042 217.988 185.014Z" fill="#2C343A"/>
<path d="M174.855 178.191L175.56 188.827C175.56 188.827 164.977 192.34 164.916 194.319L185.593 194.469L185.175 177.851L174.855 178.191Z" fill="#20A789"/>
<path d="M181.752 189.317C182.111 189.317 182.465 189.042 182.535 188.685C182.61 188.304 182.362 187.893 181.999 187.762C181.926 187.725 181.845 187.709 181.762 187.709C181.428 187.709 181.06 187.979 180.96 188.296C180.834 188.691 181.198 189.21 181.603 189.3C181.652 189.311 181.702 189.317 181.752 189.317Z" fill="#E1E5E2"/>
<path d="M164.916 194.291C164.94 194.003 165.181 193.683 165.576 193.347C165.531 193.367 165.003 193.621 164.842 194.291H164.916Z" fill="white"/>
<path d="M164.809 194.469H185.591L164.914 194.319C164.914 194.31 164.915 194.301 164.916 194.291H164.841C164.828 194.347 164.817 194.407 164.809 194.469Z" fill="#9DA7AA"/>
<path d="M185.592 194.469L185.588 194.303L185.55 192.794L165.579 193.345C165.579 193.345 165.578 193.346 165.576 193.347C165.181 193.683 164.939 194.003 164.917 194.291C164.915 194.301 164.915 194.31 164.915 194.319L185.592 194.469Z" fill="#E1E5E2"/>
<path d="M175.22 188.734C175.227 188.834 175.732 188.864 176.239 189.174C176.753 189.471 177.023 189.9 177.114 189.857C177.206 189.834 177.038 189.235 176.418 188.872C175.802 188.502 175.196 188.641 175.22 188.734Z" fill="#2C343A"/>
<path d="M173.081 189.695C173.061 189.793 173.503 189.952 173.858 190.368C174.226 190.775 174.327 191.234 174.427 191.226C174.522 191.239 174.574 190.646 174.122 190.136C173.675 189.623 173.08 189.599 173.081 189.695Z" fill="#2C343A"/>
<path d="M171.927 192.327C172.02 192.346 172.145 191.838 171.869 191.292C171.597 190.745 171.114 190.542 171.075 190.627C171.02 190.712 171.335 190.999 171.555 191.45C171.785 191.896 171.827 192.32 171.927 192.327Z" fill="#2C343A"/>
<path d="M175.328 186.291C175.374 186.381 175.832 186.228 176.404 186.25C176.976 186.259 177.426 186.438 177.476 186.349C177.532 186.274 177.087 185.914 176.414 185.898C175.74 185.877 175.277 186.212 175.328 186.291Z" fill="#2C343A"/>
<path d="M175.227 184.142C175.227 184.185 175.627 184.234 176.261 184.106C176.577 184.041 176.947 183.927 177.334 183.74C177.527 183.648 177.724 183.537 177.919 183.407C178.012 183.343 178.123 183.278 178.224 183.154C178.333 183.045 178.388 182.775 178.254 182.616C178.143 182.46 177.954 182.397 177.805 182.398C177.652 182.398 177.53 182.433 177.418 182.463C177.19 182.526 176.976 182.609 176.781 182.704C176.392 182.896 176.078 183.132 175.846 183.359C175.381 183.818 175.229 184.2 175.263 184.219C175.31 184.251 175.534 183.927 176.01 183.546C176.248 183.357 176.553 183.158 176.917 182.998C177.1 182.919 177.297 182.849 177.506 182.796C177.724 182.732 177.91 182.725 177.968 182.821C177.99 182.857 177.993 182.872 177.949 182.938C177.903 182.999 177.817 183.059 177.725 183.123C177.546 183.247 177.365 183.357 177.188 183.452C176.833 183.641 176.492 183.774 176.199 183.866C175.612 184.048 175.223 184.088 175.227 184.142Z" fill="#2C343A"/>
<path d="M175.362 184.283C175.399 184.297 175.588 183.929 175.606 183.275C175.613 182.95 175.567 182.558 175.431 182.145C175.361 181.939 175.267 181.73 175.147 181.525C175.02 181.324 174.864 181.055 174.471 181.022C174.267 181.021 174.101 181.186 174.048 181.324C173.983 181.466 173.974 181.586 173.953 181.707C173.922 181.949 173.934 182.186 173.973 182.404C174.052 182.842 174.243 183.203 174.448 183.46C174.868 183.983 175.292 184.092 175.3 184.057C175.333 184.005 174.975 183.821 174.65 183.316C174.49 183.067 174.344 182.736 174.294 182.353C174.267 182.162 174.264 181.959 174.294 181.754C174.32 181.533 174.397 181.354 174.48 181.374C174.582 181.368 174.762 181.529 174.852 181.702C174.963 181.884 175.055 182.07 175.125 182.254C175.266 182.625 175.333 182.981 175.357 183.282C175.403 183.888 175.308 184.269 175.362 184.283Z" fill="#2C343A"/>
<path d="M174.856 85.7825L206.361 85.5454L221.585 185.574L208.509 187.234L191.752 104.986L186.737 187.526L186.723 187.772L172.583 187.525L174.856 85.7825Z" fill="#2C343A"/>
<path d="M190.696 102.833C190.734 102.827 190.685 102.362 190.615 101.612C190.543 100.862 190.462 99.826 190.426 98.679C190.392 97.532 190.412 96.4925 190.437 95.7396C190.462 94.9871 190.482 94.5199 190.444 94.5156C190.411 94.5122 190.325 94.9739 190.253 95.728C190.18 96.4817 190.131 97.5301 190.166 98.6868C190.202 99.8438 190.313 100.886 190.431 101.635C190.549 102.383 190.663 102.839 190.696 102.833Z" fill="#335863"/>
<path d="M188.101 94.8037C188.105 94.7906 188.045 94.7457 187.915 94.7326C187.787 94.7179 187.589 94.7531 187.393 94.8888C187.207 95.0226 187.005 95.2678 186.999 95.6097C186.987 95.9569 187.267 96.2914 187.619 96.4047C187.966 96.5285 188.392 96.4338 188.593 96.1499C188.796 95.8746 188.785 95.5578 188.718 95.3374C188.645 95.1112 188.51 94.9631 188.399 94.8966C188.287 94.8281 188.213 94.827 188.208 94.8397C188.183 94.8753 188.461 94.9882 188.54 95.3834C188.576 95.5702 188.556 95.8197 188.405 96.0002C188.261 96.1847 187.971 96.2489 187.702 96.158C187.433 96.0664 187.241 95.8398 187.24 95.6054C187.23 95.3703 187.366 95.1599 187.507 95.0338C187.809 94.767 188.099 94.8467 188.101 94.8037Z" fill="#335863"/>
<path d="M196.169 92.7903C196.158 92.8054 196.26 92.8971 196.457 93.0529C196.649 93.213 196.957 93.4094 197.356 93.6167C197.753 93.8279 198.256 94.0193 198.831 94.1748C199.41 94.3163 200.062 94.4118 200.751 94.4168C201.44 94.4122 202.092 94.3171 202.671 94.1763C203.246 94.0216 203.749 93.8294 204.147 93.6187C204.545 93.4122 204.853 93.2161 205.046 93.056C205.243 92.9005 205.345 92.8077 205.334 92.7938C205.305 92.754 204.866 93.0908 204.067 93.4528C203.67 93.6376 203.174 93.8058 202.613 93.9431C202.05 94.0665 201.418 94.1519 200.751 94.1566C200.084 94.1515 199.452 94.0661 198.889 93.9416C198.328 93.8039 197.832 93.6353 197.435 93.45C196.637 93.0881 196.198 92.7505 196.169 92.7903Z" fill="#335863"/>
<path d="M176.667 94.907C176.661 94.936 176.984 95.0423 177.531 95.0891C178.075 95.1378 178.844 95.0999 179.652 94.8702C180.46 94.6386 181.132 94.2643 181.569 93.9355C182.008 93.6072 182.227 93.3466 182.206 93.3249C182.157 93.2561 181.153 94.1834 179.581 94.62C178.015 95.0798 176.673 94.8231 176.667 94.907Z" fill="#335863"/>
<path d="M216.596 186.483C216.598 186.477 216.551 186.418 216.505 186.27C216.458 186.122 216.397 185.901 216.327 185.608C216.186 185.022 215.999 184.151 215.773 183.028C215.322 180.781 214.71 177.52 213.976 173.486C212.508 165.419 210.551 154.262 208.394 141.938C206.227 129.618 204.265 118.465 202.842 110.379C202.114 106.354 201.525 103.091 201.115 100.823C200.906 99.7061 200.742 98.8337 200.629 98.2281C200.572 97.9411 200.528 97.7172 200.495 97.5548C200.464 97.4032 200.441 97.3267 200.441 97.3267C200.441 97.3267 200.446 97.4059 200.469 97.5587C200.495 97.7234 200.531 97.9485 200.577 98.237C200.679 98.8449 200.827 99.72 201.015 100.841C201.406 103.112 201.967 106.38 202.661 110.411C204.065 118.5 205.999 129.658 208.137 141.984C210.294 154.307 212.281 165.46 213.795 173.52C214.552 177.549 215.192 180.806 215.674 183.048C216.149 185.29 216.501 186.524 216.596 186.483Z" fill="#335863"/>
<path d="M176.444 185.356C176.444 185.356 176.453 185.277 176.457 185.125C176.46 184.961 176.465 184.736 176.47 184.448C176.476 183.84 176.484 182.965 176.494 181.844C176.5 180.714 176.509 179.331 176.537 177.726C176.563 176.121 176.575 174.292 176.63 172.272C176.708 168.231 176.863 163.421 177.096 158.083C177.343 152.745 177.679 146.879 178.133 140.73C178.6 134.58 179.145 128.728 179.696 123.412C180.262 118.099 180.828 113.318 181.352 109.311C181.599 107.306 181.86 105.496 182.074 103.905C182.285 102.313 182.483 100.945 182.646 99.8262C182.803 98.7168 182.925 97.8509 183.01 97.2488C183.048 96.9626 183.077 96.7403 183.099 96.5782C183.117 96.4266 183.12 96.3481 183.12 96.3481C183.12 96.3481 183.1 96.4235 183.072 96.5736C183.045 96.7352 183.007 96.9564 182.958 97.2411C182.862 97.8412 182.724 98.7052 182.546 99.8108C182.367 100.928 182.155 102.294 181.93 103.884C181.702 105.474 181.429 107.282 181.169 109.287C180.621 113.293 180.037 118.072 179.457 123.387C178.892 128.704 178.341 134.557 177.874 140.71C177.418 146.863 177.091 152.732 176.856 158.072C176.636 163.413 176.501 168.226 176.446 172.269C176.403 174.29 176.403 176.119 176.391 177.725C176.377 179.331 176.383 180.714 176.393 181.844C176.404 182.965 176.412 183.84 176.418 184.448C176.423 184.736 176.427 184.961 176.431 185.125C176.435 185.277 176.444 185.356 176.444 185.356Z" fill="#335863"/>
<path d="M174.05 72.793C174.052 72.6697 174.053 72.5397 174.055 72.3936L174.05 72.793Z" fill="#20A789"/>
<path d="M175.867 32.8269C176.256 32.4994 182.768 31.6695 182.768 31.6695C186.191 31.5701 191.357 30.891 195.045 31.2828C195.082 31.2909 201.715 33.6266 206.673 36.1109C208.94 37.6415 210.171 39.787 210.746 42.3215L205.093 73.9428V73.9606L207.484 88.2071C207.853 91.4474 195.802 92.898 188.606 93.4746C185.295 93.7395 181.973 93.1358 178.971 91.7135L173.893 89.3085L173.815 89.2315L174.05 72.7931L171.073 41.335C170.674 38.5364 173.703 34.6452 175.867 32.8269Z" fill="#20A789"/>
<path d="M182.352 32.5328C182.352 32.5328 175.646 32.1674 172.279 33.8218C168.912 35.4757 154.069 45.6908 154.069 45.6908L138.86 40.0533L133.478 47.3548L146.653 56.9593C149.81 59.0967 153.837 59.4795 157.34 57.9752L174.408 51.1965L182.352 32.5328Z" fill="#20A789"/>
<path d="M171.657 45.605C171.568 45.6139 171.99 50.6025 172.597 56.7466C173.205 62.8931 173.77 67.8666 173.859 67.8577C173.948 67.8488 173.527 62.861 172.918 56.7145C172.311 50.5708 171.746 45.5957 171.657 45.605Z" fill="#2C343A"/>
<path d="M179.546 87.1713C180.08 87.1713 180.624 87.1087 181.151 87.0441C186.138 86.4304 191.125 85.8174 196.112 85.2037C199.757 84.7555 203.134 84.4488 206.779 84.0006L206.778 83.9983L206.433 82.233C205.189 82.3532 203.838 82.395 202.406 82.395C201.623 82.395 200.816 82.3826 199.989 82.3637C196.907 82.2774 193.521 82.011 190.001 81.4897C189.786 81.4572 189.572 81.4251 189.375 81.3957L189.278 81.381L189.266 81.2824C189.16 80.3995 189.056 79.5275 188.954 78.669C184.209 78 179.445 77.3924 174.555 76.8286C175.487 78.377 175.357 80.3087 175.449 82.1138C175.542 83.9202 176.062 85.9613 177.672 86.7827C178.252 87.0781 178.892 87.1713 179.546 87.1713Z" fill="#188972"/>
<path d="M197.681 69.311C198.176 69.1768 198.642 69.0473 199.078 68.9239C199.47 68.8129 199.838 68.707 200.179 68.6072C198.754 62.7682 196.854 57.0444 194.504 51.5117C195.104 57.5147 196.168 63.4712 197.681 69.311ZM199.616 68.9123C199.822 68.8605 200.022 68.8095 200.217 68.7603C200.215 68.7499 200.212 68.7398 200.209 68.729C200.02 68.789 199.822 68.8501 199.616 68.9123Z" fill="#188972"/>
<path d="M200.648 44.4682C200.725 44.5088 201.225 42.8529 202.702 41.4186C204.157 39.9615 205.82 39.485 205.78 39.4065C205.773 39.3794 205.353 39.4552 204.724 39.7271C204.095 39.9974 203.27 40.4955 202.519 41.233C201.772 41.9731 201.262 42.791 200.983 43.4156C200.702 44.0417 200.62 44.4605 200.648 44.4682Z" fill="#2C343A"/>
<path d="M171.594 40.2614C171.665 40.2687 171.85 39.0931 172.006 37.6356C172.162 36.1777 172.231 34.9897 172.16 34.982C172.088 34.9739 171.904 36.1495 171.747 37.6078C171.591 39.0657 171.522 40.2537 171.594 40.2614Z" fill="#2C343A"/>
<path d="M153.189 52.8598C153.216 52.8737 153.442 52.5187 153.699 51.8903C153.957 51.2634 154.224 50.355 154.338 49.3225C154.449 48.2888 154.383 47.3437 154.266 46.6762C154.15 46.0076 154.007 45.6124 153.977 45.6197C153.892 45.6333 154.311 47.2671 154.079 49.2939C153.87 51.3226 153.11 52.8281 153.189 52.8598Z" fill="#2C343A"/>
<path d="M153.637 54.2775C153.676 54.2775 153.714 54.2729 153.754 54.2644C154 54.2083 154.178 53.9941 154.305 53.776C154.649 53.1866 154.761 52.4925 154.835 51.8142C154.971 50.5751 155.002 49.3253 154.93 48.0816C154.881 47.2494 154.745 46.3371 154.116 45.7896L154.114 45.9814C154.163 46.1569 154.217 46.3917 154.266 46.6763C154.384 47.3438 154.449 48.2885 154.338 49.3222C154.224 50.3547 153.957 51.2631 153.7 51.89C153.447 52.5064 153.225 52.8602 153.191 52.8602C153.191 52.8602 153.19 52.8602 153.19 52.8595C153.148 52.8436 153.333 52.4314 153.549 51.7554C153.484 51.9039 153.415 52.0512 153.342 52.1963C153.142 52.5946 152.907 53.0025 152.918 53.448C152.929 53.8529 153.252 54.2775 153.637 54.2775Z" fill="#188972"/>
<path d="M153.191 52.8603C153.225 52.8603 153.447 52.5065 153.699 51.8904C153.957 51.2636 154.224 50.3548 154.338 49.3227C154.449 48.289 154.383 47.3438 154.266 46.6764C154.217 46.3917 154.163 46.157 154.114 45.9814L154.112 46.1644C154.512 48.0256 154.309 50.0114 153.549 51.7559C153.333 52.4318 153.148 52.8437 153.189 52.8599L153.191 52.8603Z" fill="#011721"/>
<path d="M175.441 33.4653C175.434 33.4665 175.443 33.5872 175.468 33.8172C175.496 34.0462 175.524 34.388 175.597 34.8246C175.726 35.6998 175.968 36.967 176.407 38.5147C177.27 41.5987 179.064 45.8371 182.333 49.8195L182.395 49.8937L182.483 49.8555C183.724 49.309 185.01 48.7324 186.296 48.082C191.788 45.3568 196.376 42.1873 199.51 39.6887C201.083 38.4431 202.296 37.3626 203.129 36.6124C203.524 36.2404 203.837 35.9446 204.068 35.7268C204.164 35.6329 204.242 35.5555 204.307 35.4917C204.36 35.4376 204.386 35.4082 204.383 35.4047C204.38 35.4016 204.348 35.424 204.289 35.472C204.219 35.5304 204.135 35.6015 204.032 35.6882C203.794 35.8974 203.47 36.1805 203.061 36.537C202.209 37.2625 200.98 38.3194 199.397 39.5437C196.24 41.999 191.653 45.1333 186.179 47.8488C184.898 48.4965 183.617 49.0731 182.381 49.6203L182.531 49.6563C179.28 45.7153 177.469 41.5233 176.567 38.4675C176.108 36.9342 175.842 35.6777 175.685 34.8096C175.599 34.3768 175.557 34.0377 175.514 33.8107C175.473 33.5829 175.449 33.4646 175.441 33.4653Z" fill="#F9F9F9"/>
<path d="M177.797 33.208C177.789 33.2107 177.809 33.3055 177.852 33.4869C177.898 33.6675 177.962 33.9351 178.06 34.2769C178.252 34.9626 178.555 35.9522 178.989 37.1676C179.853 39.5969 181.296 42.9266 183.456 46.4159L183.527 46.53L183.638 46.4538C184.406 45.9275 185.206 45.3779 186.024 44.8176C189.942 42.1102 193.487 39.6592 196.082 37.8652C197.343 36.9781 198.373 36.2542 199.113 35.7341C199.451 35.49 199.722 35.294 199.93 35.1432C200.115 35.0063 200.21 34.9305 200.205 34.9227C200.199 34.9158 200.095 34.9765 199.9 35.1002C199.685 35.2402 199.405 35.4227 199.056 35.6501C198.304 36.1536 197.259 36.8548 195.978 37.7133C193.371 39.491 189.811 41.9195 185.877 44.603C185.06 45.1641 184.259 45.7144 183.493 46.2419L183.674 46.2805C181.516 42.8144 180.051 39.5157 179.148 37.1092C178.693 35.9058 178.367 34.9266 178.148 34.2506C178.046 33.9316 177.962 33.6744 177.898 33.4737C177.839 33.2974 177.804 33.2061 177.797 33.208Z" fill="#F9F9F9"/>
<path d="M140.881 52.3527C140.888 52.3662 141.033 52.3082 141.278 52.1678C141.522 52.0282 141.859 51.7927 142.232 51.4505C142.985 50.7745 143.819 49.6058 144.352 48.1553C144.884 46.7055 145.082 45.3199 145.204 44.3295C145.318 43.3349 145.352 42.7177 145.318 42.7134C145.28 42.7084 145.182 43.3198 145.021 44.3036C144.854 45.2839 144.628 46.6471 144.108 48.0644C143.587 49.4801 142.804 50.6264 142.104 51.3182C141.409 52.0205 140.854 52.3113 140.881 52.3527Z" fill="#F9F9F9"/>
<path d="M138.247 50.9292C138.26 50.94 138.367 50.8383 138.55 50.643C138.733 50.4489 138.983 50.1542 139.277 49.7779C139.866 49.0265 140.609 47.9279 141.275 46.6285C141.938 45.3265 142.393 44.0805 142.656 43.1628C142.789 42.7041 142.882 42.329 142.931 42.0661C142.983 41.8043 143.003 41.6577 142.985 41.6534C142.946 41.6438 142.788 42.2107 142.481 43.1067C142.175 44.0035 141.699 45.2236 141.043 46.5098C140.385 47.7945 139.676 48.8951 139.129 49.6685C138.583 50.4419 138.216 50.9021 138.247 50.9292Z" fill="#F9F9F9"/>
<path d="M173.754 86.7031C173.75 86.712 173.853 86.7731 174.054 86.8829C174.28 87.002 174.574 87.1575 174.939 87.3512C175.135 87.4522 175.349 87.5639 175.582 87.6842C175.821 87.7991 176.088 87.907 176.371 88.0315C176.941 88.2701 177.577 88.576 178.319 88.8161C178.687 88.9457 179.072 89.0806 179.473 89.2218C179.875 89.3598 180.306 89.4627 180.745 89.5919C181.621 89.8641 182.583 90.0474 183.591 90.2628C185.618 90.6244 187.878 90.8653 190.258 90.8611C192.639 90.8313 194.896 90.5583 196.919 90.1677C197.923 89.9376 198.883 89.7411 199.755 89.4558C200.193 89.3212 200.621 89.2121 201.022 89.0683C201.42 88.9217 201.803 88.7809 202.169 88.646C202.908 88.3958 203.54 88.0806 204.106 87.8339C204.387 87.7055 204.653 87.5937 204.889 87.4758C205.121 87.3516 205.334 87.2376 205.528 87.1335C205.89 86.9344 206.182 86.775 206.406 86.6524C206.605 86.5399 206.708 86.4765 206.704 86.4691C206.699 86.461 206.588 86.509 206.381 86.6064C206.152 86.7174 205.853 86.8624 205.482 87.0426C205.285 87.1401 205.07 87.2476 204.836 87.3636C204.597 87.4742 204.33 87.5786 204.047 87.7005C203.477 87.9336 202.843 88.2357 202.105 88.4727C201.739 88.6019 201.357 88.7369 200.959 88.8776C200.56 89.0153 200.131 89.1185 199.695 89.2489C198.826 89.5223 197.871 89.7106 196.871 89.9322C194.86 90.3073 192.62 90.571 190.256 90.6004C187.894 90.6039 185.651 90.373 183.634 90.0265C182.632 89.8193 181.674 89.6445 180.802 89.3834C180.364 89.2597 179.934 89.1622 179.533 89.0304C179.133 88.8954 178.748 88.7658 178.381 88.6417C177.639 88.4151 177.001 88.1227 176.429 87.8973C176.144 87.7797 175.875 87.6788 175.634 87.5717C175.399 87.4588 175.182 87.3547 174.984 87.26C174.61 87.0852 174.309 86.9444 174.078 86.8358C173.87 86.7414 173.759 86.6958 173.754 86.7031Z" fill="#F9F9F9"/>
<g filter="url(#filter0_d_12703_6404)">
<path d="M178.962 84.7803L199.545 79.6605C200.546 79.4115 201.154 78.3987 200.906 77.3986L194.01 49.6542C193.761 48.6542 192.749 48.0447 191.749 48.2933L177.356 51.8735L171.292 61.6543L176.702 83.4194C176.95 84.4198 177.962 85.0289 178.962 84.7803Z" fill="#335863"/>
</g>
<path d="M177.339 51.8071L178.71 57.3205C179.049 58.6837 178.219 60.0631 176.856 60.4022L171.292 61.6544L177.339 51.8071Z" fill="#284C51"/>
<path d="M180.688 78.5302C180.691 78.5252 180.673 78.4355 180.636 78.2676C180.594 78.0828 180.538 77.8391 180.467 77.5305C180.31 76.8735 180.09 75.9431 179.811 74.7675C179.235 72.39 178.419 69.0244 177.441 64.9894L177.357 65.1294C181.431 64.1224 186.252 62.9298 191.402 61.6555C191.439 61.676 191.096 61.4703 191.241 61.5596L191.242 61.5631L191.244 61.5705L191.247 61.5844L191.254 61.6134L191.269 61.6714L191.298 61.787L191.355 62.0175L191.47 62.4777C191.546 62.784 191.621 63.0887 191.697 63.3923C191.848 63.9994 191.998 64.6004 192.147 65.1959C192.443 66.3862 192.734 67.551 193.017 68.6852C193.585 70.9521 194.122 73.0942 194.617 75.0656L194.702 74.9237C190.53 75.9868 187.043 76.8755 184.577 77.5035C183.36 77.8198 182.396 78.07 181.716 78.2471C181.397 78.3322 181.145 78.3995 180.956 78.4502C180.782 78.4977 180.691 78.5252 180.688 78.5302C180.684 78.5356 180.769 78.519 180.937 78.4823C181.123 78.4397 181.369 78.3825 181.682 78.3109C182.359 78.1501 183.319 77.9219 184.532 77.6338C187.023 77.029 190.545 76.174 194.758 75.1515L194.872 75.1236L194.844 75.0092C194.357 73.0358 193.829 70.8911 193.27 68.6226C192.989 67.488 192.7 66.3224 192.406 65.1313C192.258 64.5362 192.109 63.9348 191.958 63.3273C191.882 63.0241 191.807 62.719 191.731 62.4127L191.616 61.9525L191.559 61.722L191.531 61.6064L191.516 61.5484L191.509 61.5194L191.505 61.5055L191.503 61.4978L191.502 61.4943C191.648 61.5809 191.303 61.3717 191.337 61.3937C186.19 62.6815 181.372 63.8869 177.301 64.9051L177.188 64.9333L177.217 65.0455C178.249 69.0979 179.11 72.4785 179.719 74.8665C180.02 76.0247 180.259 76.942 180.427 77.5897C180.506 77.8863 180.569 78.1211 180.617 78.2982C180.661 78.4567 180.684 78.5356 180.688 78.5302Z" fill="white"/>
<path d="M187.882 76.9114C187.955 76.8932 187.261 73.8532 186.334 70.1226C185.407 66.39 184.596 63.3799 184.524 63.398C184.452 63.4158 185.145 66.455 186.073 70.1876C187 73.9182 187.81 76.9288 187.882 76.9114Z" fill="white"/>
<path d="M179.919 75.2047C179.937 75.277 183.107 74.5504 186.999 73.5825C190.892 72.6145 194.032 71.7711 194.015 71.6988C193.996 71.6268 190.827 72.3527 186.934 73.3214C183.042 74.2894 179.901 75.1328 179.919 75.2047Z" fill="white"/>
<path d="M178.9 71.8003C178.919 71.8722 182.089 71.146 185.981 70.1781C189.874 69.2093 193.014 68.3663 192.996 68.294C192.978 68.222 189.809 68.9483 185.915 69.9166C182.024 70.8842 178.883 71.7276 178.9 71.8003Z" fill="white"/>
<path d="M178.152 68.328C178.17 68.3999 181.317 67.6795 185.179 66.7193C189.042 65.7579 192.159 64.9207 192.141 64.8488C192.123 64.7764 188.977 65.4969 185.114 66.4579C181.252 67.4185 178.135 68.2561 178.152 68.328Z" fill="white"/>
<path d="M189.257 72.2326L185.735 71.8451C185.735 71.8451 184.287 69.4405 183.335 68.6021C182.383 67.7629 177.465 65.4082 177.465 65.4082C177.465 65.4082 176.744 66.2698 177.465 67.1353C177.788 67.5231 180.113 68.8326 180.113 68.8326C180.39 69.7901 179.564 70.7039 178.583 70.524C177.143 70.2599 175.466 69.9606 175.244 69.9606C174.997 69.9606 173.559 68.5994 172.503 67.5668C171.87 66.9481 170.741 67.5394 170.993 68.3886C171.019 68.4768 171.06 68.5499 171.119 68.6021C171.119 68.6021 169.602 68.5479 170.956 70.5886C170.956 70.5886 170.643 72.4727 171.753 73.3359C171.753 73.3359 172.233 75.6121 172.947 76.3971C173.661 77.1821 180.636 78.6733 180.636 78.6733L190.638 79.8852L189.257 72.2326Z" fill="#F9B299"/>
<path d="M177.96 72.6849C177.958 72.7263 177.484 72.7538 176.712 72.7151C175.952 72.6648 174.841 72.5596 173.78 71.9448C172.725 71.3086 172.123 70.3569 171.737 69.7014C171.355 69.0297 171.169 68.592 171.204 68.5719C171.246 68.5475 171.504 68.9493 171.93 69.5804C172.359 70.1984 172.971 71.0843 173.944 71.6679C174.924 72.2383 175.987 72.3829 176.733 72.4885C177.489 72.584 177.963 72.6374 177.96 72.6849Z" fill="#F79570"/>
<path d="M177.24 74.3028C177.248 74.3449 176.807 74.4424 176.101 74.3917C175.747 74.3685 175.329 74.3155 174.87 74.2127C174.419 74.0986 173.9 73.9733 173.433 73.626C172.986 73.2842 172.659 72.8835 172.363 72.527C172.098 72.1963 171.843 71.8784 171.596 71.5706C171.164 71.0219 170.915 70.6676 170.948 70.6386C170.982 70.6096 171.293 70.9113 171.769 71.4229C172.006 71.6774 172.289 71.9871 172.59 72.3352C172.893 72.677 173.223 73.0614 173.626 73.3685C174.018 73.6643 174.51 73.8016 174.942 73.9246C175.38 74.0386 175.784 74.1137 176.124 74.1651C176.807 74.2718 177.234 74.2567 177.24 74.3028Z" fill="#F79570"/>
<path d="M176.261 76.0996C176.24 76.2288 174.994 75.9658 173.52 75.554C173.275 75.5002 173.123 75.344 172.98 75.2272C172.838 75.1004 172.713 74.97 172.601 74.8413C172.375 74.5841 172.195 74.3335 172.062 74.1123C171.791 73.6695 171.716 73.3489 171.754 73.3358C171.799 73.318 171.943 73.5922 172.249 73.9831C172.401 74.1792 172.592 74.4054 172.819 74.6402C172.932 74.7577 173.055 74.8768 173.187 74.9894C173.322 75.0973 173.457 75.2195 173.598 75.2415C174.351 75.4441 175.011 75.6557 175.493 75.8107C175.974 75.9716 176.261 76.0644 176.261 76.0996Z" fill="#F79570"/>
<path d="M203.512 67.9235L200.318 50.6392L200.315 50.6257C200.278 50.3469 202.183 42.7789 210.653 41.937L214.476 54.9391C215.46 59.0371 216.956 64.7547 217.611 72.209C218.018 76.8407 213.566 81.1151 208.367 81.8363C208.297 81.846 208.227 81.8575 208.156 81.8664C199.253 82.957 190.678 81.5339 189.498 81.2241L188.249 71.772C188.147 71.8273 203.512 67.9235 203.512 67.9235Z" fill="#20A789"/>
<path d="M211.873 69.6759C211.88 69.6744 211.871 69.602 211.845 69.4628C211.822 69.324 211.77 69.121 211.678 68.8665C211.495 68.3622 211.129 67.6329 210.404 66.9472C209.692 66.2709 208.576 65.6382 207.208 65.6061C205.865 65.562 204.307 66.0938 203.225 67.3166L203.446 67.3808C203.29 66.3451 203.124 65.2511 202.954 64.1258C202.348 60.2494 201.8 56.7419 201.397 54.1598C201.19 52.913 201.02 51.8917 200.895 51.1445C200.835 50.8127 200.786 50.5417 200.746 50.3267C200.709 50.1403 200.685 50.0424 200.677 50.044C200.668 50.0455 200.674 50.1457 200.694 50.3348C200.721 50.5521 200.754 50.8244 200.795 51.1596C200.899 51.9102 201.041 52.9358 201.215 54.188C201.599 56.7728 202.12 60.2842 202.696 64.1648C202.869 65.2898 203.037 66.3838 203.196 67.419L203.237 67.6882L203.417 67.4829C204.433 66.3219 205.919 65.7975 207.203 65.8258C208.509 65.8409 209.587 66.4271 210.294 67.0667C211.012 67.7149 211.391 68.4129 211.596 68.8982C211.799 69.3901 211.85 69.6809 211.873 69.6759Z" fill="#2C343A"/>
<path d="M203.236 67.6899C203.233 67.6837 203.137 67.7092 202.952 67.7645C202.75 67.8272 202.481 67.9103 202.141 68.0159C201.433 68.2367 200.395 68.5511 199.077 68.9239C196.442 69.6718 192.678 70.6312 188.222 71.6556L188.117 71.68L188.13 71.7863C188.479 74.7041 188.862 77.9123 189.265 81.2825L189.277 81.3811L189.374 81.3958C189.572 81.4252 189.785 81.4573 190 81.4898C193.521 82.0111 196.907 82.2775 199.988 82.3637C203.066 82.4357 205.858 82.4136 208.167 81.9995C210.477 81.6042 212.245 80.7941 213.295 80.0141C213.56 79.8219 213.792 79.6463 213.974 79.4715C214.164 79.3056 214.322 79.1629 214.433 79.031C214.54 78.9135 214.626 78.8176 214.696 78.7414C214.754 78.6745 214.782 78.6397 214.778 78.6366C214.775 78.6335 214.74 78.6633 214.676 78.7232C214.602 78.7948 214.51 78.8837 214.396 78.9939C214.279 79.1188 214.117 79.2546 213.924 79.4127C213.738 79.5802 213.504 79.7472 213.237 79.9309C212.18 80.6761 210.428 81.4492 208.135 81.8181C205.847 82.2052 203.067 82.2087 199.995 82.1236C196.923 82.0246 193.548 81.752 190.038 81.2322C189.825 81.2001 189.611 81.168 189.414 81.1386L189.524 81.2516C189.113 77.8817 188.723 74.6747 188.367 71.7577L188.276 71.8892C192.731 70.8443 196.491 69.852 199.118 69.0631C200.432 68.6698 201.464 68.333 202.165 68.089C202.516 67.9699 202.784 67.8693 202.965 67.8024C203.145 67.7343 203.237 67.6961 203.236 67.6899Z" fill="#2C343A"/>
<mask id="mask0_12703_6404" style="mask-type:luminance" maskUnits="userSpaceOnUse" x="203" y="67" width="6" height="7">
<path d="M207.661 73.1952C207.722 73.1952 207.785 73.1882 207.845 73.1735C208.191 73.0888 208.442 72.7675 208.531 72.4233C208.62 72.0787 208.57 71.7133 208.49 71.3672C208.104 69.7175 206.961 68.2611 205.45 67.4954C205.024 67.2796 204.536 67.1191 204.066 67.1191C203.956 67.1191 203.848 67.1276 203.741 67.1466C203.633 67.2475 203.529 67.3546 203.429 67.4676C204.78 68.4146 205.802 69.8254 206.277 71.407C206.403 71.8266 206.496 72.2667 206.738 72.6325C206.944 72.9458 207.297 73.1952 207.661 73.1952Z" fill="white"/>
</mask>
<g mask="url(#mask0_12703_6404)">
<path d="M208.619 67.1191H203.428V73.1952H208.619V67.1191Z" fill="#188972"/>
</g>
<path d="M203.428 67.4679C203.528 67.355 203.633 67.2479 203.741 67.147C203.589 67.1733 203.441 67.2201 203.3 67.2908L203.323 67.396C203.358 67.4196 203.393 67.4436 203.428 67.4679Z" fill="#011721"/>
<path d="M197.113 81.7866C197.13 81.7904 197.186 81.6299 197.272 81.3337C197.361 81.039 197.46 80.6028 197.554 80.0599C197.744 78.9744 197.858 77.4387 197.686 75.7581C197.51 74.0782 197.083 72.5982 196.673 71.5754C196.47 71.0626 196.284 70.6569 196.136 70.3862C195.992 70.114 195.904 69.9678 195.888 69.9759C195.849 69.9956 196.142 70.6082 196.501 71.6396C196.862 72.6678 197.253 74.1304 197.427 75.7851C197.596 77.4399 197.513 78.9516 197.371 80.0324C197.231 81.1152 197.069 81.7753 197.113 81.7866Z" fill="#F9F9F9"/>
<path d="M193.667 81.8444C193.666 81.8553 193.856 81.8255 194.054 81.5768C194.253 81.332 194.379 80.8854 194.416 80.3533C194.515 79.294 194.569 77.8176 194.435 76.1957C194.306 74.5734 194.026 73.1225 193.757 72.093C193.625 71.5775 193.497 71.1661 193.402 70.8842C193.304 70.6034 193.243 70.4507 193.225 70.4557C193.187 70.4673 193.357 71.1011 193.578 72.1352C193.799 73.1685 194.048 74.6094 194.176 76.2162C194.309 77.8226 194.284 79.2844 194.233 80.3401C194.218 80.8649 194.126 81.2794 193.971 81.5188C193.818 81.7597 193.653 81.8228 193.667 81.8444Z" fill="#F9F9F9"/>
<path d="M195.696 12.3224L195.016 32.1143C194.9 35.4895 192.074 38.1339 188.699 38.0248C185.464 37.92 182.869 35.3128 182.779 32.076C182.728 30.3033 182.694 28.8249 182.694 28.8249C182.694 28.8249 177.768 28.2962 177.477 23.4078C177.336 21.0515 177.44 16.181 177.587 11.768C177.751 6.82839 181.804 2.91016 186.744 2.91016C191.845 2.96673 195.893 7.22353 195.696 12.3224Z" fill="#F9B299"/>
<path d="M182.69 28.8378C182.69 28.8378 185.793 28.9426 188.979 26.7236C188.979 26.7236 187.638 30.3147 182.739 30.1055L182.69 28.8378Z" fill="#F79570"/>
<path d="M179.195 15.1751C179.2 15.5443 179.516 15.8455 179.901 15.8479C180.286 15.85 180.596 15.5538 180.591 15.1841C180.587 14.8144 180.271 14.5132 179.886 14.5108C179.5 14.5082 179.191 14.8053 179.195 15.1751Z" fill="#2C343A"/>
<path d="M178.759 14.1687C178.85 14.2552 179.36 13.8385 180.111 13.805C180.861 13.761 181.431 14.1212 181.508 14.0256C181.546 13.9827 181.451 13.8225 181.202 13.6589C180.958 13.4963 180.547 13.3457 180.078 13.3703C179.61 13.3948 179.225 13.5859 179.007 13.773C178.785 13.9611 178.714 14.1297 178.759 14.1687Z" fill="#2C343A"/>
<path d="M186.315 15.1512C186.319 15.521 186.635 15.8217 187.021 15.8241C187.406 15.8266 187.715 15.5299 187.711 15.1603C187.707 14.791 187.39 14.4894 187.005 14.4868C186.619 14.4844 186.31 14.782 186.315 15.1512Z" fill="#2C343A"/>
<path d="M186.15 13.9591C186.241 14.0461 186.752 13.6295 187.503 13.596C188.253 13.5519 188.823 13.9121 188.9 13.8161C188.938 13.7736 188.843 13.6134 188.593 13.4499C188.349 13.2867 187.938 13.1367 187.47 13.1608C187.002 13.1858 186.617 13.3768 186.399 13.564C186.177 13.7521 186.106 13.9202 186.15 13.9591Z" fill="#2C343A"/>
<path d="M183.688 19.662C183.69 19.6195 183.219 19.561 182.458 19.5C182.265 19.489 182.081 19.4595 182.043 19.3299C181.991 19.1933 182.061 18.9831 182.144 18.7551C182.302 18.2822 182.468 17.7864 182.642 17.2667C183.331 15.1491 183.821 13.4111 183.736 13.3841C183.65 13.3565 183.021 15.0516 182.332 17.1696C182.167 17.6919 182.008 18.1898 181.858 18.6655C181.796 18.8872 181.683 19.1407 181.794 19.4234C181.853 19.5645 181.998 19.662 182.123 19.6896C182.248 19.721 182.356 19.718 182.451 19.7191C183.214 19.7241 183.687 19.7051 183.688 19.662Z" fill="#2C343A"/>
<path d="M185.923 20.0778C185.801 20.0764 185.838 20.8924 185.167 21.5042C184.498 22.1183 183.624 22.068 183.623 22.1825C183.614 22.2339 183.824 22.3317 184.192 22.324C184.553 22.3194 185.072 22.179 185.483 21.8043C185.891 21.4291 186.053 20.9465 186.065 20.6105C186.079 20.2679 185.979 20.0703 185.923 20.0778Z" fill="#2C343A"/>
<path d="M185.818 11.0229C185.901 11.2239 186.647 11.0919 187.534 11.1565C188.421 11.203 189.144 11.4276 189.252 11.239C189.3 11.1485 189.167 10.9619 188.871 10.7777C188.577 10.5942 188.113 10.4275 187.581 10.3936C187.049 10.3609 186.568 10.468 186.254 10.6137C185.936 10.7598 185.781 10.9278 185.818 11.0229Z" fill="#2C343A"/>
<path d="M178.932 11.9799C179.072 12.1445 179.581 11.9429 180.204 11.905C180.824 11.8454 181.358 11.9654 181.471 11.7809C181.52 11.6918 181.429 11.5247 181.191 11.3741C180.957 11.2235 180.571 11.1099 180.144 11.143C179.717 11.177 179.354 11.3491 179.145 11.5343C178.934 11.7203 178.869 11.8994 178.932 11.9799Z" fill="#2C343A"/>
<path d="M190.142 7.29267L190.169 7.31274C190.977 7.891 191.534 8.75646 191.717 9.73299L191.735 9.83114C191.992 11.2169 192.025 12.6376 192.295 14.0214C192.566 15.4046 193.115 16.7988 194.19 17.7104C194.632 18.0851 195.394 18.3213 195.721 17.842C195.847 17.6569 195.858 17.4187 195.865 17.1947C195.966 13.8138 196.745 10.7822 196.572 7.26019C196.525 6.30113 196.031 5.42325 195.225 4.90142C194.463 4.40813 193.537 3.90289 192.736 4.32912C191.933 4.75683 190.947 6.34073 190.343 7.0205" fill="#2C343A"/>
<path d="M194.159 14.6961C194.241 14.6561 197.471 13.5435 197.523 16.8918C197.574 20.2407 194.202 19.6013 194.196 19.5053C194.188 19.4097 194.159 14.6961 194.159 14.6961Z" fill="#F9B299"/>
<path d="M195.197 18.2206C195.212 18.2096 195.256 18.2606 195.356 18.3046C195.452 18.3467 195.618 18.3747 195.791 18.3066C196.143 18.171 196.432 17.6053 196.439 17.0014C196.443 16.6963 196.375 16.4071 196.263 16.1685C196.157 15.9253 195.996 15.7562 195.818 15.7277C195.64 15.6893 195.515 15.7978 195.476 15.8928C195.432 15.987 195.455 16.0534 195.438 16.0595C195.428 16.0679 195.364 16.0044 195.39 15.8658C195.402 15.7994 195.441 15.7197 195.518 15.6542C195.598 15.5871 195.714 15.5522 195.839 15.5637C196.098 15.5777 196.334 15.8118 196.456 16.0735C196.593 16.3365 196.677 16.6613 196.673 17.0039C196.661 17.6793 196.326 18.3157 195.844 18.4633C195.61 18.5283 195.412 18.4603 195.31 18.3827C195.204 18.3017 195.186 18.2271 195.197 18.2206Z" fill="#F79570"/>
<path d="M193.241 5.35571C194.205 4.1135 192.17 1.95687 190.584 1.26001C188.999 0.563154 186.749 1.12741 185.056 1.49111C183.988 1.72071 182.908 2.08596 181.828 1.9223C181.103 1.81274 180.438 1.47263 179.778 1.15448C179.118 0.836716 178.428 0.53156 177.696 0.502015C176.964 0.472006 176.173 0.777162 175.824 1.42158C175.475 2.06589 175.769 3.03298 176.479 3.21203C175.614 2.60516 174.21 3.12502 173.947 4.14908C173.683 5.17264 174.662 6.30521 175.714 6.19267C175.28 5.78249 174.49 6.29577 174.483 6.89305C174.477 7.48983 174.967 7.9786 175.484 8.27679C176.804 9.03777 178.442 9.01975 179.932 8.69309C181.42 8.3664 182.834 7.75902 184.314 7.39478C185.794 7.03107 188.28 6.36024 189.653 7.02005C190.665 7.50588 191.259 8.85361 191.883 8.63856C192.487 8.4309 192.917 7.86908 193.099 7.25726C193.283 6.64548 193.262 5.99406 193.241 5.35571Z" fill="#2C343A"/>
<path d="M176.658 3.45503C176.661 3.46253 176.595 3.48597 176.49 3.56002C176.385 3.63164 176.244 3.76862 176.148 3.99326C176.051 4.21392 176.001 4.5231 176.076 4.85977C176.141 5.19849 176.377 5.53965 176.746 5.77079C177.113 6.00243 177.59 6.12645 178.103 6.142C178.617 6.1495 179.17 6.07297 179.726 5.90529C180.848 5.58068 181.963 4.91581 183.134 4.24095C184.308 3.56911 185.508 3.00172 186.696 2.85825C187.286 2.79209 187.86 2.81811 188.371 2.9617C188.884 3.09833 189.329 3.3254 189.694 3.58605C190.427 4.11086 190.85 4.73119 191.061 5.17997C191.277 5.63223 191.319 5.90788 191.319 5.90788C191.304 5.91384 191.24 5.64271 191.012 5.20445C190.79 4.76874 190.362 4.16937 189.638 3.6671C189.278 3.41694 188.841 3.20084 188.342 3.07331C187.846 2.93865 187.286 2.91715 186.711 2.98525C185.554 3.13185 184.371 3.69209 183.203 4.36153C182.034 5.03441 180.908 5.7037 179.762 6.02846C179.193 6.19548 178.629 6.27004 178.099 6.25751C177.571 6.23601 177.076 6.10252 176.693 5.85324C176.503 5.72779 176.344 5.57616 176.224 5.40759C176.105 5.23798 176.036 5.05243 175.999 4.87582C175.928 4.52012 175.99 4.19837 176.099 3.97126C176.206 3.73961 176.361 3.60264 176.475 3.53659C176.588 3.46799 176.658 3.45503 176.658 3.45503Z" fill="#335863"/>
<path d="M188.485 1.76372C188.486 1.75518 188.563 1.74922 188.702 1.75711C188.841 1.76511 189.042 1.79362 189.284 1.86121C189.764 1.99119 190.413 2.31893 190.91 2.91478C191.407 3.51156 191.612 4.20946 191.653 4.70472C191.676 4.95489 191.668 5.15803 191.65 5.29605C191.633 5.43461 191.613 5.50971 191.605 5.50816C191.579 5.50673 191.625 5.19999 191.556 4.71675C191.49 4.23757 191.278 3.57463 190.803 3.00388C190.328 2.43402 189.714 2.10527 189.255 1.95468C188.792 1.79969 188.483 1.78921 188.485 1.76372Z" fill="#335863"/>
<path d="M196.501 10.3428C196.503 10.3478 196.412 10.3988 196.228 10.4198C196.046 10.4423 195.768 10.4103 195.474 10.2557C195.178 10.1067 194.878 9.82107 194.675 9.43533C194.463 9.05259 194.335 8.59179 194.215 8.11709C194.095 7.64229 193.969 7.19405 193.768 6.82891C193.575 6.45964 193.297 6.19497 193.021 6.04891C192.745 5.89987 192.486 5.86232 192.311 5.87334C192.136 5.88239 192.041 5.91789 192.037 5.90532C192.034 5.90041 192.123 5.84627 192.307 5.81935C192.488 5.79035 192.768 5.81429 193.066 5.9619C193.364 6.10343 193.672 6.38311 193.88 6.76638C194.097 7.14652 194.229 7.60733 194.349 8.08252C194.469 8.55733 194.591 9.0065 194.787 9.37477C194.976 9.74648 195.247 10.0166 195.521 10.1698C195.792 10.3258 196.051 10.3714 196.225 10.3658C196.401 10.3623 196.497 10.3303 196.501 10.3428Z" fill="#335863"/>
<path d="M196.327 12.5555C196.328 12.5606 196.299 12.5681 196.245 12.5786C196.19 12.5886 196.109 12.6051 196.003 12.6102C195.794 12.6271 195.483 12.6241 195.112 12.541C194.374 12.3901 193.381 11.8618 192.72 10.8931C192.05 9.93512 191.815 8.87853 191.735 8.13573C191.714 7.9481 191.703 7.78197 191.658 7.64538C191.617 7.50837 191.542 7.40882 191.464 7.34575C191.305 7.21771 191.173 7.25213 191.176 7.23817C191.168 7.23465 191.307 7.1751 191.497 7.30225C191.587 7.36374 191.68 7.47379 191.731 7.6204C191.787 7.76592 191.806 7.94006 191.832 8.12367C191.935 8.85406 192.184 9.88372 192.834 10.8131C193.475 11.7516 194.423 12.2734 195.135 12.4455C195.856 12.6282 196.327 12.5226 196.327 12.5555Z" fill="#335863"/>
<g filter="url(#filter1_dd_12703_6404)">
<path d="M128.423 71.3378L95.2254 73.5161C92.9311 73.6669 90.9488 71.9283 90.7987 69.6339L87.7854 23.6663C87.635 21.3711 89.3725 19.3894 91.6665 19.2381L112.721 17.8574L130.119 33.5909L132.304 66.9095C132.454 69.2046 130.717 71.1873 128.423 71.3378Z" fill="#FBFBFB"/>
</g>
<path d="M112.722 17.8574L113.571 30.7942C113.709 32.9281 115.552 34.5454 117.686 34.4054L130.12 33.5909L112.722 17.8574Z" fill="#ECECEC"/>
<path d="M113.813 31.9189C113.813 31.9189 113.856 35.0664 117.493 35.8638C117.631 35.8936 117.771 35.9137 117.91 35.9296C119.552 36.1125 130.364 37.3136 130.349 37.0688C130.33 36.8028 130.12 33.5911 130.12 33.5911L117.686 34.4075C117.686 34.4075 114.574 34.5057 113.813 31.9189Z" fill="#D9D1D1"/>
<path d="M131.988 38.521C131.982 38.4997 131.768 38.5369 131.386 38.6227C131.004 38.7078 130.454 38.8416 129.776 39.0133C129.072 39.1966 128.273 39.405 127.4 39.6324C127.176 39.6927 126.947 39.7539 126.714 39.8161C126.501 39.8907 126.19 39.8938 125.975 40.2179C125.875 40.3846 125.924 40.6212 126.038 40.7458C126.147 40.8761 126.277 40.9523 126.412 41.0118C126.674 41.1104 126.937 41.1859 127.213 41.2238C128.316 41.38 129.332 41.1634 130.236 41.1804C130.689 41.182 131.115 41.2303 131.491 41.3502C131.867 41.4682 132.206 41.6476 132.536 41.7806C133.189 42.0815 133.847 42.0602 134.208 41.8599C134.582 41.6631 134.647 41.4082 134.633 41.4117C134.609 41.3904 134.507 41.6058 134.157 41.7458C133.809 41.8904 133.242 41.8839 132.626 41.573C132.313 41.4326 131.979 41.2385 131.574 41.0973C131.168 40.9561 130.712 40.8947 130.241 40.8854C129.299 40.8548 128.282 41.0559 127.261 40.907C127.007 40.8734 126.762 40.8007 126.537 40.7183C126.321 40.6313 126.178 40.467 126.252 40.3649C126.315 40.2415 126.563 40.1727 126.796 40.1112C127.027 40.0454 127.256 39.9809 127.478 39.917C128.345 39.6657 129.138 39.4344 129.836 39.2318C130.506 39.0319 131.047 38.8652 131.419 38.7426C131.791 38.6204 131.994 38.5427 131.988 38.521Z" fill="#F79570"/>
<path d="M134.632 41.4113C134.346 41.9009 133.665 42.0068 133.116 41.8668C132.567 41.7272 132.08 41.4055 131.543 41.2268C129.934 40.692 128.09 41.4906 126.509 40.8792C126.289 40.7941 126.043 40.6201 126.08 40.3865C126.113 40.1696 126.362 40.0713 126.574 40.0133C128.378 39.516 130.182 39.0183 131.986 38.521" fill="#F9B299"/>
</g>
<defs>
<filter id="filter0_d_12703_6404" x="167.292" y="48.2378" width="37.6689" height="44.5981" filterUnits="userSpaceOnUse" color-interpolation-filters="sRGB">
<feFlood flood-opacity="0" result="BackgroundImageFix"/>
<feColorMatrix in="SourceAlpha" type="matrix" values="0 0 0 0 0 0 0 0 0 0 0 0 0 0 0 0 0 0 127 0" result="hardAlpha"/>
<feOffset dy="4"/>
<feGaussianBlur stdDeviation="2"/>
<feComposite in2="hardAlpha" operator="out"/>
<feColorMatrix type="matrix" values="0 0 0 0 0 0 0 0 0 0 0 0 0 0 0 0 0 0 0.25 0"/>
<feBlend mode="normal" in2="BackgroundImageFix" result="effect1_dropShadow_12703_6404"/>
<feBlend mode="normal" in="SourceGraphic" in2="effect1_dropShadow_12703_6404" result="shape"/>
</filter>
<filter id="filter1_dd_12703_6404" x="83.7764" y="15.8574" width="52.5361" height="63.668" filterUnits="userSpaceOnUse" color-interpolation-filters="sRGB">
<feFlood flood-opacity="0" result="BackgroundImageFix"/>
<feColorMatrix in="SourceAlpha" type="matrix" values="0 0 0 0 0 0 0 0 0 0 0 0 0 0 0 0 0 0 127 0" result="hardAlpha"/>
<feOffset dy="2"/>
<feGaussianBlur stdDeviation="2"/>
<feComposite in2="hardAlpha" operator="out"/>
<feColorMatrix type="matrix" values="0 0 0 0 0.219608 0 0 0 0 0.25098 0 0 0 0 0.298039 0 0 0 0.04 0"/>
<feBlend mode="normal" in2="BackgroundImageFix" result="effect1_dropShadow_12703_6404"/>
<feColorMatrix in="SourceAlpha" type="matrix" values="0 0 0 0 0 0 0 0 0 0 0 0 0 0 0 0 0 0 127 0" result="hardAlpha"/>
<feOffset dy="2"/>
<feGaussianBlur stdDeviation="2"/>
<feComposite in2="hardAlpha" operator="out"/>
<feColorMatrix type="matrix" values="0 0 0 0 0.219608 0 0 0 0 0.25098 0 0 0 0 0.298039 0 0 0 0.16 0"/>
<feBlend mode="normal" in2="effect1_dropShadow_12703_6404" result="effect2_dropShadow_12703_6404"/>
<feBlend mode="normal" in="SourceGraphic" in2="effect2_dropShadow_12703_6404" result="shape"/>
</filter>
<clipPath id="clip0_12703_6404">
<rect width="225.642" height="200" fill="white" transform="translate(0.678711 0.5)"/>
</clipPath>
</defs>
</svg>
