<svg width="153" height="201" viewBox="0 0 153 201" fill="none" xmlns="http://www.w3.org/2000/svg">
<path d="M10.4037 7.27441C1.71002 20.9494 2.27938 39.9078 11.7781 53.0362C18.1099 61.7878 27.6086 67.6537 35.1506 75.3864C42.6931 83.1196 48.4214 94.516 44.4413 104.558C40.3892 114.781 28.5203 118.939 19.6327 125.415C9.95139 132.468 3.15157 143.362 1.06861 155.159C-1.0149 166.954 1.6423 179.519 8.32186 189.461H100.645C100.645 189.461 116.863 158.553 96.0115 134.999C75.1597 111.444 63.9621 111.058 64.7341 95.6125C65.5066 80.1666 76.3185 75.1469 82.4964 69.3548C88.6748 63.5626 118.794 50.048 101.031 7.27441H10.4037Z" fill="#FAFAFA"/>
<path d="M10.4031 7.27502C10.4031 7.27502 10.9394 7.26635 11.9925 7.26201C13.0495 7.2593 14.6172 7.25498 16.6726 7.24956C20.793 7.2436 26.8658 7.23493 34.6884 7.22356C50.3494 7.21218 73.0117 7.19593 101.031 7.1748H101.099L101.123 7.23655C102.384 10.4404 103.66 13.7384 104.563 17.2337C105.493 20.7138 106.255 24.3396 106.525 28.097C106.808 31.8469 106.686 35.7192 105.939 39.5644C105.168 43.3999 103.794 47.1985 101.766 50.7122C100.757 52.4728 99.5706 54.1446 98.2883 55.7579C96.992 57.3614 95.5558 58.8691 94.0357 60.3079C92.5129 61.7451 90.8915 63.0989 89.2084 64.3942C87.5279 65.6943 85.7749 66.9225 84.0624 68.2194C83.2049 68.8662 82.4215 69.5916 81.6046 70.3186C80.7833 71.0315 79.9377 71.7195 79.0839 72.401C77.3785 73.7656 75.6548 75.1297 74.0285 76.6233C70.745 79.5611 67.9719 83.2297 66.4458 87.4991C65.7058 89.6297 65.1749 91.8622 65.0021 94.1467C64.9561 94.7177 64.8797 95.287 64.858 95.8607C64.8472 96.4344 64.8141 97.0097 64.8418 97.5845C64.8494 98.7351 64.9788 99.8852 65.1885 101.019C65.6219 103.287 66.5737 105.46 67.9594 107.344C69.3241 109.245 71.0061 110.918 72.7478 112.528C76.2534 115.733 79.9707 118.792 83.5321 122.095C87.1108 125.38 90.586 128.847 93.9328 132.492C95.5938 134.32 97.2823 136.16 98.7347 138.2C100.236 140.203 101.496 142.39 102.605 144.653C104.789 149.202 106.139 154.192 106.581 159.294C107.056 164.397 106.693 169.596 105.681 174.684C105.181 177.232 104.517 179.754 103.701 182.235C102.884 184.717 101.942 187.164 100.77 189.527L100.732 189.603H98.2672C66.7519 189.601 36.3429 189.599 8.32123 189.597H8.24918L8.20909 189.536C3.81076 182.933 1.19853 175.347 0.478568 167.744C-0.2869 160.141 0.883242 152.515 3.67262 145.747C6.4257 138.954 10.7054 132.998 15.8768 128.315C18.4543 125.956 21.3288 124.025 24.2081 122.238C27.0906 120.448 29.9976 118.793 32.7463 116.983C35.4826 115.168 38.1198 113.235 40.2607 110.87C42.4092 108.525 44.0512 105.77 44.9109 102.809C45.7744 99.8451 45.7826 96.7372 45.2777 93.8108C44.7657 90.8741 43.7321 88.0971 42.4244 85.5396C41.1128 82.9783 39.5223 80.6267 37.7774 78.4803C36.0368 76.3275 34.1017 74.4168 32.1542 72.6133C28.2456 69.0157 24.2465 65.8688 20.6462 62.6352C18.8427 61.0219 17.1341 59.3935 15.562 57.72C14.0007 56.0374 12.5733 54.3126 11.3473 52.5248C8.87488 48.9592 7.17925 45.2022 6.06545 41.5759C4.94948 37.9452 4.39475 34.4353 4.26744 31.206C4.1916 30.4005 4.2214 29.6096 4.22302 28.8376C4.23277 28.0656 4.21002 27.311 4.28965 26.5786C4.34599 25.8456 4.40125 25.1311 4.45488 24.4355C4.53831 23.7426 4.65262 23.0725 4.74579 22.4191C5.55839 17.1887 7.13646 13.3679 8.36673 10.9214C8.66089 10.3001 8.92092 9.75399 9.20154 9.3114C9.46536 8.8623 9.68639 8.48471 9.86462 8.18134C10.22 7.57731 10.4031 7.27502 10.4031 7.27502C10.3657 7.34166 10.2146 7.60765 9.87979 8.19976C9.70535 8.50367 9.48866 8.88125 9.23025 9.33143C8.95559 9.77186 8.69935 10.3196 8.40844 10.9425C7.19334 13.3923 5.63207 17.212 4.83518 22.4327C4.74417 23.0855 4.63149 23.7545 4.55023 24.4458C4.49876 25.1403 4.44513 25.8532 4.39096 26.5845C4.31295 27.3148 4.33787 28.0678 4.3292 28.8381C4.32974 29.6079 4.30157 30.3967 4.37904 31.2006C4.51285 34.4212 5.07246 37.9203 6.19113 41.5374C7.30819 45.1502 9.00381 48.8909 11.4714 52.4387C12.6952 54.2172 14.1199 55.935 15.679 57.6106C17.249 59.2775 18.9565 60.9006 20.7589 62.509C24.3576 65.7339 28.3604 68.8759 32.2804 72.4763C34.2328 74.2808 36.1776 76.1964 37.928 78.3579C39.6826 80.5113 41.2829 82.8721 42.6042 85.447C43.9217 88.0186 44.9651 90.8129 45.4841 93.775C45.996 96.7259 45.9911 99.8684 45.1195 102.869C44.2522 105.865 42.5917 108.654 40.4259 111.021C38.2671 113.409 35.6164 115.353 32.8731 117.175C30.1173 118.994 27.2093 120.651 24.3332 122.439C21.4588 124.225 18.6017 126.147 16.0387 128.496C10.8977 133.156 6.6424 139.085 3.90719 145.843C1.13569 152.576 -0.0247011 160.157 0.739683 167.719C1.45856 175.28 4.05888 182.823 8.43336 189.386L8.32123 189.327C36.3429 189.325 66.7519 189.323 98.2672 189.321H100.644L100.52 189.396C101.678 187.061 102.622 184.615 103.433 182.147C104.245 179.676 104.907 177.165 105.405 174.63C106.412 169.564 106.774 164.391 106.301 159.32C105.862 154.248 104.521 149.292 102.353 144.774C101.253 142.526 100.002 140.353 98.5104 138.363C97.0689 136.337 95.3906 134.507 93.7297 132.678C90.3877 129.039 86.9201 125.576 83.3474 122.296C79.7914 118.996 76.08 115.941 72.5647 112.725C70.8187 111.11 69.1247 109.425 67.7422 107.499C66.3397 105.591 65.3673 103.373 64.9279 101.07C64.7161 99.9183 64.5861 98.7525 64.5785 97.5899C64.5509 97.0086 64.5839 96.429 64.5958 95.8499C64.6175 95.2713 64.6944 94.6971 64.741 94.1212C64.9165 91.8183 65.4529 89.5631 66.2015 87.4108C67.7444 83.0959 70.5538 79.3877 73.8567 76.4363C75.4928 74.9352 77.2225 73.5679 78.9274 72.2054C79.7806 71.5245 80.6241 70.8386 81.4405 70.1306C82.2433 69.4166 83.0483 68.6728 83.9113 68.0227C85.6324 66.7204 87.3827 65.4966 89.0588 64.2008C90.7387 62.9098 92.3542 61.562 93.8705 60.1324C95.3841 58.7006 96.8137 57.2022 98.1041 55.6084C99.3794 54.0048 100.56 52.3439 101.563 50.5952C103.581 47.1048 104.948 43.3327 105.717 39.5211C106.462 35.6997 106.587 31.8475 106.308 28.1138C106.042 24.3726 105.285 20.7593 104.361 17.2884C103.464 13.8029 102.194 10.5113 100.938 7.31348L101.031 7.3747C73.029 7.35411 50.3792 7.33786 34.728 7.32594C26.8994 7.31511 20.8217 7.30644 16.6986 7.30048C14.6373 7.29507 13.0657 7.2902 12.0061 7.28749C10.9486 7.2837 10.4031 7.27502 10.4031 7.27502Z" fill="#263238"/>
<path d="M97.3467 32.3541C110.945 34.5893 89.5046 58.6726 77.3692 68.1756C70.3419 73.678 62.7955 79.6452 59.4585 87.9229C55.6723 97.3143 58.4785 107.87 56.6436 117.318C56.3392 118.886 54.0206 118.639 54.0439 117.042C54.1343 110.841 53.9691 104.642 52.9414 98.5376C51.4842 89.8796 48.1552 81.3132 42.0868 74.9679C37.1332 69.7878 30.6372 66.3462 25.3532 61.5037C17.6389 54.4341 9.71392 45.3156 8.94141 34.8802C8.94141 34.8802 23.7535 22.9491 31.9753 24.4546C41.5835 26.2147 51.0432 41.0414 65.9322 39.3436C76.3275 38.1583 81.5736 29.7614 97.3467 32.3541Z" fill="#1EA788"/>
<path d="M98.5541 161.256C98.2101 157.856 97.3032 154.008 94.2858 152.403C92.4574 151.432 90.2314 151.539 88.2292 152.066C86.2269 152.593 84.345 153.503 82.3606 154.093C78.4553 155.252 74.1772 155.117 70.3531 153.712C66.6639 152.357 63.4969 149.907 60.071 147.981C56.6457 146.055 52.6358 144.62 48.8214 145.569C42.2448 147.206 38.8227 155.124 32.3203 157.035C29.4307 157.884 26.3271 157.408 23.3893 156.742C20.4515 156.076 17.5023 155.222 14.4924 155.334C12.1337 155.423 9.67964 156.238 8.02628 157.854L8.04361 157.832C8.02682 157.848 8.01219 157.867 7.99594 157.884C7.72399 158.153 7.47426 158.444 7.25052 158.758C5.23365 161.446 4.91132 165.061 5.5316 168.344C6.2261 172.02 7.9434 175.418 9.78637 178.673C11.9565 182.508 14.4225 186.325 18.0115 188.882C22.4385 192.036 28.0064 189.859 33.4254 190.287C46.0656 191.284 59.6647 191.965 72.3066 190.985C78.984 190.468 85.2432 191.191 90.5418 187.094C94.2706 184.212 96.6937 179.868 97.8639 175.303C99.033 170.738 99.0275 165.945 98.5541 161.256Z" fill="#1EA788"/>
<path d="M1.54596 193.654C1.54596 193.654 1.29194 189.417 6.81825 187.058L103.925 187.058C103.925 187.058 108.989 189.621 109.612 193.567L1.54596 193.654Z" fill="#263238"/>
<path d="M101.867 7.7913C101.816 7.81514 101.765 7.83897 101.713 7.86227L10.4036 7.27449C10.4036 7.27449 10.0797 7.06755 9.59376 6.68725C6.99291 4.65304 8.45234 0.473581 11.7553 0.500126L100.378 1.21575C104.036 1.24555 105.174 6.22786 101.867 7.7913Z" fill="#263238"/>
<g opacity="0.24">
<path d="M87.2536 42.623C87.4378 42.9751 86.7519 43.7368 85.4431 44.8982C84.1294 46.0613 82.2128 47.6567 79.7761 49.6211C77.3258 51.5697 74.3571 53.9186 70.5764 56.1099C68.6825 57.2048 66.574 58.1978 64.2684 59.0055C63.1091 59.3945 61.9076 59.7558 60.6437 60.0072C59.3874 60.2764 58.0759 60.4552 56.7275 60.5175C54.0384 60.6719 51.3032 60.278 48.8551 59.4416C46.4211 58.597 44.3451 57.4074 42.5298 56.2129C40.7101 55.0059 39.1407 53.8146 37.6618 52.6743C36.1888 51.5312 34.8464 50.4299 33.6465 49.3935C28.8505 45.2374 26.3282 42.182 26.8141 41.5921C27.3169 40.9788 30.7119 42.9225 36.0036 46.174C37.3259 46.9861 38.7723 47.8745 40.3249 48.828C41.8759 49.7728 43.5445 50.815 45.2455 51.7793C46.952 52.7436 48.7326 53.6207 50.5794 54.19C52.4137 54.7383 54.3699 54.9983 56.4507 54.8818C60.6096 54.6695 64.646 53.2041 68.1424 51.5166C71.6571 49.7966 74.8002 47.8507 77.5414 46.316C80.2793 44.7639 82.6212 43.6165 84.3261 43.0076C86.0331 42.3949 87.0775 42.2844 87.2536 42.623Z" fill="black"/>
</g>
<path d="M54.1117 128.636C55.1139 128.284 56.3122 129.292 56.1351 130.34C55.9585 131.387 54.4958 131.947 53.6653 131.285C52.8343 130.623 53.0526 129.073 54.0342 128.666" fill="#1EA788"/>
<path d="M21.4522 57.7333C21.4452 57.7398 21.3341 57.6276 21.1299 57.4082C20.9105 57.1677 20.6158 56.8448 20.2452 56.4385C19.872 56.0084 19.3795 55.5106 18.8768 54.8756C18.3665 54.2402 17.789 53.5219 17.1525 52.7298C16.5636 51.8972 15.8951 51.0001 15.2228 50.006C14.9037 49.4973 14.5733 48.9718 14.2336 48.4307C14.0662 48.1582 13.8847 47.8889 13.7228 47.6023C13.5657 47.3136 13.4069 47.0205 13.246 46.7237C11.9134 44.3763 10.7259 41.6276 9.88242 38.6248C9.03786 35.6203 8.64186 32.65 8.60556 29.9462C8.60339 29.2707 8.64077 28.6119 8.6554 27.9721C8.67057 27.6525 8.66515 27.3361 8.69657 27.0274C8.72962 26.7191 8.76212 26.4147 8.79408 26.1162C8.86234 25.5197 8.91001 24.9406 8.99019 24.3891C9.08933 23.8414 9.18413 23.3149 9.27514 22.8121C9.43062 21.8018 9.69715 20.915 9.88892 20.1279C9.99294 19.7362 10.0742 19.3678 10.1777 19.0363C10.2849 18.7091 10.3835 18.4079 10.4729 18.1343C10.6479 17.6126 10.7871 17.1982 10.89 16.8894C10.9886 16.6061 11.045 16.4592 11.0536 16.462C11.0629 16.4652 11.0249 16.6185 10.9442 16.9078C10.8537 17.2198 10.7313 17.6391 10.578 18.1662C10.4957 18.4409 10.4052 18.7437 10.3071 19.0731C10.2118 19.4057 10.1381 19.7746 10.0417 20.1669C9.86563 20.9545 9.61318 21.8408 9.47179 22.8484C9.38674 23.3495 9.29789 23.8745 9.20526 24.42C9.13158 24.9693 9.08987 25.5452 9.02649 26.1384C8.99723 26.4352 8.96744 26.7375 8.9371 27.0441C8.90839 27.3513 8.91597 27.6655 8.90351 27.983C8.89268 28.6179 8.85963 29.2723 8.86559 29.9424C8.91543 32.6256 9.31631 35.5683 10.1538 38.5484C10.9908 41.5268 12.1609 44.2582 13.4741 46.5985C13.6323 46.8948 13.7889 47.1868 13.9432 47.4756C14.1025 47.7611 14.2813 48.0303 14.446 48.3023C14.7802 48.8435 15.1047 49.3689 15.4189 49.8776C16.0793 50.8722 16.7359 51.7726 17.3123 52.6101C17.9347 53.4097 18.4998 54.1346 18.9987 54.7754C19.4884 55.419 19.9679 55.9255 20.3281 56.3665C20.6819 56.7869 20.963 57.1211 21.1721 57.3703C21.3623 57.6016 21.4592 57.7268 21.4522 57.7333Z" fill="#263238"/>
<path d="M16.3109 138.214C16.3066 138.211 16.3412 138.151 16.4122 138.036C16.4924 137.909 16.5991 137.74 16.7345 137.526C16.8814 137.299 17.059 137.024 17.2671 136.702C17.3732 136.539 17.4876 136.364 17.6089 136.177C17.7422 135.998 17.8982 135.818 18.0558 135.622C18.3765 135.23 18.7314 134.796 19.1192 134.323C19.5358 133.874 20.0142 133.409 20.5148 132.897C21.5435 131.902 22.7873 130.84 24.2337 129.767C27.1098 127.587 30.8196 125.421 34.8403 122.894C36.8361 121.61 38.9369 120.257 40.9223 118.61C42.911 116.975 44.8282 115.09 46.3803 112.842C49.4416 108.291 50.6844 103.019 50.7932 98.3066C50.9168 93.5583 49.907 89.3301 48.7168 85.9589C47.5125 82.5753 46.1311 80.0004 45.1278 78.2636C44.6262 77.393 44.2145 76.73 43.9306 76.2836C43.7962 76.0685 43.6911 75.8995 43.6115 75.7722C43.5411 75.6563 43.5069 75.5956 43.5107 75.5929C43.5151 75.5902 43.5568 75.6454 43.6353 75.7565C43.7209 75.88 43.8342 76.0436 43.9783 76.2522C44.2778 76.6893 44.7053 77.3443 45.2226 78.2078C46.2568 79.9311 47.6702 82.5005 48.9048 85.8917C50.1242 89.2705 51.1627 93.5231 51.0527 98.3131C51.0327 99.5066 50.9368 100.729 50.7542 101.967C50.5825 103.205 50.3214 104.459 49.9611 105.708C49.2645 108.213 48.1458 110.701 46.6143 112.999C45.0417 115.279 43.1023 117.18 41.0968 118.824C39.094 120.48 36.9829 121.832 34.9795 123.114C30.9431 125.634 27.2317 127.776 24.3529 129.927C22.9038 130.986 21.6578 132.032 20.6242 133.011C20.1209 133.514 19.6393 133.972 19.2184 134.413C18.8262 134.879 18.4665 135.305 18.142 135.689C17.9816 135.882 17.8229 136.059 17.6869 136.235C17.5623 136.418 17.4448 136.59 17.3359 136.75C17.1197 137.065 16.935 137.334 16.7828 137.557C16.6376 137.764 16.5233 137.928 16.4371 138.05C16.358 138.16 16.3152 138.216 16.3109 138.214Z" fill="#263238"/>
<path d="M11.2726 147.785C11.2807 147.791 11.2395 147.878 11.1539 148.037C11.0499 148.223 10.9226 148.451 10.7682 148.726C10.5938 149.021 10.3868 149.385 10.1777 149.826C9.96428 150.262 9.69449 150.747 9.46642 151.315C9.34399 151.596 9.21723 151.89 9.0845 152.196C8.95395 152.502 8.84722 152.833 8.72046 153.17C8.45555 153.839 8.25024 154.579 8.01621 155.353C7.59907 156.913 7.25074 158.659 7.0698 160.516C6.90945 162.375 6.93437 164.155 7.06059 165.766C7.15052 166.569 7.21769 167.334 7.35638 168.041C7.41976 168.394 7.46418 168.739 7.53732 169.065C7.61153 169.389 7.68358 169.701 7.75184 170C7.87265 170.6 8.05034 171.126 8.18035 171.594C8.30603 172.065 8.44309 172.461 8.56119 172.783C8.66304 173.082 8.74646 173.329 8.81472 173.53C8.86998 173.702 8.8949 173.795 8.88569 173.799C8.87702 173.802 8.83476 173.717 8.76217 173.552C8.68037 173.354 8.57961 173.113 8.45826 172.82C8.32391 172.503 8.17114 172.11 8.03029 171.642C7.88457 171.175 7.69279 170.65 7.55844 170.049C7.48368 169.749 7.40567 169.436 7.32442 169.11C7.24532 168.784 7.19494 168.436 7.1256 168.081C6.97608 167.37 6.8997 166.599 6.80219 165.789C6.65971 164.165 6.62666 162.367 6.78918 160.49C6.97121 158.615 7.33092 156.853 7.76593 155.282C8.00916 154.504 8.22477 153.759 8.50106 153.088C8.63378 152.751 8.74646 152.419 8.88352 152.112C9.02275 151.807 9.15655 151.514 9.28494 151.232C9.52601 150.665 9.81042 150.184 10.0385 149.751C10.2622 149.316 10.4838 148.958 10.6739 148.67C10.8468 148.405 10.9892 148.185 11.1057 148.006C11.207 147.856 11.2644 147.78 11.2726 147.785Z" fill="#263238"/>
<path d="M78.2513 160.805C78.254 160.81 78.2166 160.837 78.1413 160.885C78.0508 160.942 77.9403 161.011 77.8033 161.097C77.4831 161.289 77.0443 161.553 76.489 161.887C76.2008 162.058 75.8823 162.246 75.535 162.452C75.1802 162.647 74.781 162.833 74.3584 163.047C73.5063 163.458 72.5604 163.981 71.4444 164.403C70.8924 164.629 70.3149 164.866 69.7131 165.113C69.109 165.355 68.4573 165.542 67.7953 165.771C66.4767 166.253 65.0168 166.596 63.4913 166.994C60.4148 167.679 56.9726 168.18 53.3322 168.297C49.6895 168.371 46.2252 168.049 43.1167 167.526C41.5717 167.208 40.096 166.941 38.7541 166.529C38.0808 166.335 37.4199 166.183 36.8044 165.972C36.1907 165.757 35.6013 165.551 35.0384 165.354C33.9018 164.991 32.9294 164.518 32.0578 164.152C31.6249 163.96 31.2159 163.795 30.8513 163.618C30.4943 163.432 30.1666 163.259 29.8692 163.104C29.2977 162.8 28.8453 162.559 28.5159 162.384C28.3751 162.306 28.2608 162.242 28.1676 162.191C28.0901 162.146 28.0511 162.121 28.0538 162.116C28.056 162.112 28.0993 162.129 28.1817 162.166C28.2781 162.211 28.3968 162.265 28.543 162.334C28.8778 162.497 29.3372 162.721 29.9185 163.006C30.2181 163.154 30.5485 163.318 30.9088 163.497C31.2755 163.665 31.6862 163.823 32.1206 164.006C32.9955 164.358 33.969 164.816 35.1056 165.166C35.6679 165.356 36.2568 165.557 36.8695 165.764C37.4843 165.968 38.1436 166.115 38.8148 166.303C40.1534 166.705 41.6237 166.96 43.1611 167.27C46.256 167.776 49.702 168.088 53.3246 168.015C56.945 167.899 60.3693 167.408 63.4327 166.741C64.9523 166.352 66.4074 166.019 67.7222 165.549C68.3831 165.326 69.0337 165.145 69.6372 164.909C70.2385 164.669 70.8155 164.439 71.3675 164.219C72.484 163.811 73.432 163.302 74.2885 162.906C74.7122 162.699 75.1141 162.521 75.4717 162.333C75.8222 162.136 76.1434 161.955 76.4349 161.791C77.0004 161.477 77.4479 161.229 77.7735 161.048C77.9165 160.973 78.0319 160.911 78.1261 160.861C78.2063 160.82 78.2486 160.801 78.2513 160.805Z" fill="#263238"/>
<path d="M83.901 46.1527C83.9042 46.1565 83.8652 46.1928 83.7856 46.2599C83.6935 46.3358 83.5765 46.4322 83.4308 46.5525C83.0987 46.8179 82.6355 47.1874 82.0472 47.6565C80.8424 48.6094 79.1001 49.9914 76.8975 51.6377C74.6915 53.2748 72.0181 55.1817 68.8397 56.9646C67.2351 57.8216 65.5265 58.697 63.6489 59.3525C61.7783 60.0124 59.7663 60.5183 57.6595 60.6852C53.4269 60.9712 49.4143 59.8991 46.1504 58.2913C44.5181 57.4733 43.0457 56.5566 41.7055 55.6476C40.3825 54.7142 39.1745 53.8111 38.1062 52.9455C35.9615 51.2244 34.281 49.7677 33.1136 48.7692C32.5448 48.2774 32.0968 47.89 31.775 47.6121C31.6341 47.4864 31.5209 47.3857 31.4315 47.306C31.3551 47.2361 31.3177 47.1982 31.3204 47.1944C31.3237 47.1906 31.3676 47.221 31.4499 47.2838C31.5442 47.358 31.6628 47.4518 31.8118 47.5688C32.1412 47.8364 32.6006 48.2102 33.184 48.6853C34.3736 49.6577 36.0736 51.0911 38.2302 52.7889C39.3045 53.6432 40.5153 54.5338 41.8376 55.4542C43.1768 56.3502 44.6438 57.2533 46.2647 58.0578C49.5031 59.6369 53.4665 60.6852 57.6383 60.4035C59.7148 60.2393 61.7019 59.7426 63.5557 59.0925C65.416 58.4473 67.1159 57.5827 68.7146 56.7365C71.8821 54.9764 74.5615 53.0912 76.7794 51.4768C78.9934 49.8538 80.7541 48.4957 81.98 47.5699C82.5819 47.118 83.0553 46.7627 83.3955 46.5075C83.5488 46.3965 83.6713 46.3076 83.7683 46.2372C83.8528 46.1771 83.8977 46.1489 83.901 46.1527Z" fill="#263238"/>
<g opacity="0.24">
<path d="M35.0439 165.355C37.6107 163.374 41.2175 163.854 44.3915 164.521C47.565 165.188 50.7623 166.273 53.9737 165.824C56.3947 165.485 58.6153 164.294 61.0038 163.777C63.3928 163.259 66.2905 163.642 67.6151 165.696C57.106 169.113 45.4793 168.992 35.0439 165.355Z" fill="black"/>
</g>
<g opacity="0.24">
<path d="M63.9831 154.744C63.2691 155.836 62.9652 157.3 63.6532 158.41C64.3412 159.518 65.2713 160.527 65.5698 161.798C66.0384 163.794 64.8369 165.746 63.9408 167.59C62.3378 170.888 61.6087 174.651 62.1493 178.278C62.69 181.906 64.5508 185.371 67.454 187.612C68.7379 188.603 70.4053 189.371 71.9531 188.886C73.4098 188.429 74.3518 186.951 74.6411 185.452C74.9304 183.953 74.692 182.409 74.5014 180.894C73.6183 173.864 73.7993 166.701 75.036 159.725C75.243 158.559 75.4402 157.227 74.7013 156.301C74.2294 155.71 73.4764 155.432 72.7586 155.193C69.9411 154.256 66.9009 155.297 63.9831 154.744Z" fill="black"/>
</g>
<path d="M113.914 150.655L102.247 137.593L102.129 153.471L105.641 163.656L70.7419 169.71L69.2613 142.173L66.7493 121.026C66.4416 118.434 67.92 115.961 70.3475 115.005L79.9519 111.223L93.4784 113.704L98.9201 115.773C101.205 116.641 103.241 118.057 104.85 119.897L121.23 138.629" fill="#6ED6BF"/>
<path d="M101.429 134.469C101.431 134.413 102.196 134.527 103.4 134.331C104.59 134.145 106.236 133.562 107.601 132.306C108.964 131.047 109.678 129.453 109.959 128.281C110.252 127.098 110.201 126.326 110.257 126.329C110.274 126.328 110.301 126.518 110.306 126.864C110.312 127.212 110.278 127.715 110.153 128.326C109.916 129.537 109.209 131.205 107.792 132.514C106.374 133.819 104.655 134.39 103.428 134.528C102.81 134.603 102.304 134.596 101.959 134.562C101.614 134.529 101.427 134.486 101.429 134.469Z" fill="white"/>
<path d="M102.449 152.797C102.531 152.796 102.552 147.296 102.497 140.511C102.44 133.726 102.33 128.227 102.248 128.228C102.167 128.228 102.145 133.728 102.201 140.514C102.257 147.298 102.368 152.798 102.449 152.797Z" fill="#263238"/>
<path d="M101.171 156.831L80.0839 148.342C78.3834 147.657 77.2181 146.067 77.0789 144.239L75.536 124.022C75.536 124.022 75.7186 115.423 70.3478 115.004L67.2919 116.208C63.3433 118.305 62.3649 124.054 62.9023 128.492C63.6667 134.8 63.9841 143.726 64.8395 149.2C65.5389 153.678 68.1035 157.617 72.4861 158.77L98.4589 164.393L101.171 156.831Z" fill="#6ED6BF"/>
<path d="M75.8384 127.106C75.8481 127.105 75.8709 127.265 75.905 127.569C75.9386 127.899 75.9835 128.342 76.0404 128.901C76.1477 130.086 76.2999 131.754 76.4863 133.804C76.6645 135.883 76.8763 138.346 77.1114 141.078C77.1688 141.763 77.2274 142.465 77.288 143.181C77.3509 143.897 77.3942 144.632 77.5573 145.344C77.7117 146.059 78.0551 146.729 78.605 147.239C79.1521 147.75 79.8369 148.125 80.5509 148.449C86.3658 150.965 91.7246 153.043 95.6148 154.5C97.5456 155.212 99.1171 155.79 100.233 156.201C100.76 156.395 101.178 156.55 101.489 156.664C101.775 156.773 101.924 156.834 101.921 156.844C101.918 156.852 101.762 156.809 101.47 156.718C101.156 156.616 100.731 156.479 100.197 156.305C99.0933 155.94 97.5022 155.391 95.546 154.687C91.6331 153.277 86.2656 151.23 80.4339 148.706C79.709 148.376 78.9967 147.99 78.4127 147.443C77.8227 146.898 77.4446 146.153 77.288 145.407C77.1195 144.659 77.08 143.919 77.0199 143.205C76.9624 142.488 76.9072 141.786 76.8525 141.101C76.6401 138.366 76.4489 135.901 76.2874 133.82C76.1385 131.767 76.0171 130.096 75.931 128.909C75.8958 128.349 75.8687 127.904 75.8481 127.573C75.8324 127.267 75.8286 127.107 75.8384 127.106Z" fill="#263238"/>
<path d="M63.7569 138.096C63.7671 138.096 63.7801 138.189 63.7986 138.368C63.8175 138.578 63.8403 138.836 63.8684 139.148C63.9307 139.868 64.0158 140.838 64.1182 142.017C64.2341 143.227 64.3804 144.667 64.5911 146.258C64.8078 147.847 65.0635 149.6 65.5429 151.38C65.7705 152.279 66.089 153.109 66.5722 153.822C67.056 154.54 67.5923 155.186 68.147 155.757C69.2625 156.898 70.4527 157.733 71.522 158.289C73.6792 159.41 75.2475 159.426 75.2259 159.501C75.2248 159.511 75.1305 159.508 74.9512 159.495C74.7719 159.483 74.507 159.462 74.1711 159.394C73.4988 159.276 72.5318 159.011 71.431 158.466C70.3324 157.925 69.1081 157.091 67.9623 155.94C67.3919 155.362 66.8398 154.708 66.3431 153.976C65.8387 153.242 65.4964 152.355 65.271 151.455C64.7845 149.648 64.5369 147.889 64.3327 146.292C64.1366 144.693 64.0098 143.248 63.9199 142.034C63.8311 140.819 63.7839 139.835 63.759 139.154C63.752 138.841 63.746 138.582 63.7422 138.37C63.7417 138.191 63.7471 138.097 63.7569 138.096Z" fill="#263238"/>
<path d="M72.7737 152.244C72.7445 152.236 72.8344 151.785 73.1573 151.121C73.4769 150.457 74.0679 149.6 74.9282 148.862C75.7912 148.127 76.7311 147.678 77.4354 147.467C78.1429 147.252 78.6022 147.234 78.606 147.264C78.6142 147.311 78.1716 147.399 77.5014 147.655C76.8313 147.909 75.944 148.369 75.1108 149.076C74.2819 149.788 73.6887 150.593 73.3334 151.215C72.9747 151.836 72.8187 152.26 72.7737 152.244Z" fill="#263238"/>
<path d="M76.9219 136.871C76.9246 136.866 76.9695 136.886 77.0557 136.93C77.1554 136.982 77.2789 137.047 77.4327 137.128C77.7713 137.287 78.2648 137.537 78.9377 137.766C80.2633 138.226 82.3408 138.694 84.848 138.271C87.3226 137.866 90.2014 136.408 92.1944 133.706C93.1814 132.372 93.9447 130.729 94.1186 128.928C94.2058 128.034 94.1327 127.102 93.8375 126.226C93.5476 125.35 93.0184 124.538 92.3168 123.903C91.6191 123.265 90.7518 122.816 89.8416 122.7C88.944 122.558 87.983 122.795 87.3605 123.397C87.0599 123.699 86.8724 124.103 86.8767 124.519C86.8751 124.935 87.0349 125.345 87.2841 125.678C87.7831 126.36 88.6249 126.678 89.4294 126.797C91.0719 127.022 92.6868 126.725 94.0384 126.137C95.3966 125.545 96.506 124.665 97.3051 123.695C98.1058 122.72 98.5993 121.665 98.8945 120.709C99.1903 119.749 99.2808 118.878 99.2954 118.171C99.3057 117.463 99.232 116.914 99.1768 116.545C99.1454 116.374 99.1204 116.237 99.0998 116.126C99.0831 116.031 99.0771 115.982 99.0814 115.981C99.0814 115.981 99.3805 116.733 99.4048 118.172C99.4076 118.887 99.3323 119.773 99.0451 120.754C98.7602 121.731 98.2699 122.813 97.46 123.82C96.6512 124.823 95.5217 125.735 94.1327 126.351C92.748 126.964 91.0958 127.28 89.3909 127.054C88.5529 126.933 87.6341 126.603 87.068 125.839C86.7901 125.468 86.6037 125.007 86.6032 124.518C86.5967 124.029 86.8199 123.546 87.1644 123.202C87.8714 122.517 88.9164 122.274 89.879 122.422C90.8547 122.546 91.7729 123.023 92.5064 123.694C93.2448 124.363 93.7985 125.214 94.1035 126.137C94.4122 127.058 94.4859 128.028 94.3938 128.955C94.2091 130.819 93.4176 132.501 92.4035 133.86C90.353 136.614 87.4055 138.08 84.8805 138.467C82.3251 138.872 80.227 138.365 78.9003 137.869C77.559 137.357 76.9219 136.871 76.9219 136.871Z" fill="white"/>
<path d="M63.1084 131.478C63.0954 131.466 63.2129 131.308 63.4546 131.045C63.6978 130.786 64.0743 130.428 64.5938 130.055C65.6177 129.285 67.3128 128.585 69.2592 128.402C70.2316 128.298 71.1764 128.345 72.0085 128.517C72.8417 128.69 73.5584 128.971 74.1267 129.261C74.6971 129.551 75.1278 129.837 75.4155 130.046C75.701 130.257 75.8489 130.387 75.838 130.402C75.8088 130.447 75.1782 129.97 74.0411 129.441C72.9159 128.903 71.1932 128.454 69.2885 128.682C67.381 128.864 65.7374 129.51 64.707 130.219C63.6631 130.914 63.1469 131.517 63.1084 131.478Z" fill="white"/>
<path d="M66.4812 117.02C66.5246 116.972 67.023 117.663 68.1877 118.261C68.7641 118.559 69.5084 118.81 70.3606 118.898C71.21 118.988 72.1689 118.891 73.0806 118.522C73.9864 118.139 74.7335 117.529 75.2714 116.865C75.8126 116.201 76.162 115.498 76.3581 114.879C76.7601 113.633 76.6246 112.793 76.6891 112.795C76.7037 112.794 76.746 112.996 76.7595 113.37C76.7742 113.743 76.7303 114.29 76.5488 114.937C76.3706 115.585 76.0271 116.326 75.474 117.029C74.9247 117.73 74.1451 118.379 73.1884 118.783C72.2258 119.173 71.216 119.265 70.3319 119.156C69.4445 119.05 68.678 118.769 68.0945 118.437C67.5084 118.107 67.0907 117.751 66.8377 117.476C66.5826 117.202 66.4699 117.03 66.4812 117.02Z" fill="white"/>
<path d="M84.8564 150.265C84.8466 150.264 84.8618 150.127 84.9003 149.866C84.9599 149.611 85.0433 149.224 85.2741 148.774C85.6999 147.866 86.759 146.728 88.4307 146.034C90.0792 145.294 92.3453 145.151 94.6303 145.812C95.7452 146.144 97.0248 146.553 97.8612 147.642C98.2702 148.177 98.4111 148.974 98.0985 149.625C97.8 150.278 97.2128 150.728 96.5957 151.043C95.9668 151.35 95.2842 151.524 94.5989 151.538C93.9201 151.551 93.2126 151.382 92.6823 150.943C92.1476 150.511 91.8659 149.843 91.8242 149.206C91.7749 148.562 91.9054 147.942 92.1113 147.379C93.01 145.123 94.8275 143.689 96.4576 142.979C98.1153 142.254 99.6153 142.178 100.606 142.266C101.604 142.369 102.121 142.586 102.121 142.586C102.113 142.622 101.585 142.444 100.598 142.376C99.6186 142.322 98.15 142.428 96.5394 143.161C95.7409 143.526 94.9158 144.05 94.1731 144.767C93.4342 145.481 92.7689 146.394 92.3556 147.467C92.1616 148.006 92.0446 148.595 92.0923 149.183C92.1356 149.769 92.3876 150.35 92.8583 150.729C93.3226 151.113 93.9607 151.27 94.5951 151.257C95.2322 151.245 95.8801 151.079 96.4695 150.791C97.0508 150.496 97.5876 150.073 97.8428 149.509C98.1088 148.949 97.9977 148.285 97.6369 147.803C97.2799 147.311 96.7582 146.956 96.2257 146.683C95.6905 146.413 95.1157 146.229 94.5594 146.062C92.322 145.401 90.1253 145.521 88.5066 146.218C86.8651 146.874 85.8169 147.954 85.371 148.825C84.91 149.7 84.8959 150.277 84.8564 150.265Z" fill="white"/>
<path d="M70.8175 157.878C70.8088 157.824 71.6214 157.756 72.8392 157.322C74.0505 156.898 75.6638 156.029 76.9851 154.568C78.3058 153.106 79.0079 151.413 79.3086 150.166C79.6179 148.91 79.6043 148.095 79.658 148.098C79.6753 148.098 79.6948 148.3 79.6883 148.668C79.6824 149.034 79.6352 149.566 79.503 150.211C79.2473 151.494 78.5556 153.251 77.1942 154.757C75.8333 156.263 74.154 157.127 72.9037 157.511C72.2753 157.708 71.7514 157.808 71.3868 157.85C71.0222 157.894 70.8191 157.895 70.8175 157.878Z" fill="white"/>
<path d="M63.9835 142.163C63.9808 142.153 64.068 142.118 64.2381 142.061C64.4082 142.005 64.6606 141.927 64.9905 141.843C65.6487 141.684 66.6309 141.466 67.8633 141.552C68.4766 141.6 69.1478 141.74 69.8163 142.034C70.4805 142.329 71.1452 142.791 71.6381 143.464C72.1214 144.136 72.4182 145.01 72.3467 145.922C72.3126 146.377 72.1734 146.834 71.928 147.242C71.6809 147.643 71.3104 148.007 70.8228 148.166C70.3418 148.316 69.7778 148.24 69.3981 147.884C69.0237 147.521 68.93 147.012 68.9067 146.57C68.8726 145.671 69.0671 144.809 69.404 144.062C70.0747 142.549 71.3223 141.557 72.4794 141.143C73.6447 140.712 74.6778 140.744 75.3474 140.859C75.6854 140.917 75.9406 140.993 76.1101 141.052C76.2781 141.116 76.3642 141.154 76.3615 141.163C76.3528 141.19 75.9996 141.05 75.3317 140.968C74.6713 140.888 73.6664 140.889 72.551 141.329C71.4442 141.752 70.2708 142.716 69.6413 144.167C69.3255 144.883 69.1473 145.708 69.183 146.556C69.2041 146.971 69.3011 147.405 69.5915 147.68C69.877 147.951 70.3412 148.023 70.7378 147.897C71.1387 147.768 71.4669 147.455 71.6891 147.095C71.9095 146.729 72.0379 146.316 72.071 145.899C72.1419 145.064 71.8716 144.245 71.4269 143.616C70.974 142.986 70.351 142.537 69.7199 142.247C69.085 141.956 68.4392 141.81 67.846 141.75C66.6509 141.641 65.6753 141.825 65.0149 141.95C64.3529 142.086 63.99 142.184 63.9835 142.163Z" fill="white"/>
<g opacity="0.3">
<path d="M95.1117 154.422C92.857 153.148 90.6511 152.17 88.2929 151.098C85.9358 150.027 83.6259 148.652 82.083 146.572C79.1728 142.649 79.5038 136.988 76.5254 133.118C76.7199 135.721 76.9144 138.323 77.1094 140.926C77.2876 143.311 76.9219 145.67 78.4583 147.292C79.7525 148.657 82.277 149.704 84.0631 150.294C87.6542 151.478 91.5205 153.237 95.1117 154.422Z" fill="black"/>
</g>
<path d="M131.753 184.136C131.753 184.136 149.396 189.02 150.104 189.269C151.168 189.643 150.989 193.537 149.335 193.476C148.553 193.448 135.782 193.952 134.169 193.852C132.555 193.75 127.688 191.832 127.688 191.832L131.753 184.136Z" fill="#1EA788"/>
<path d="M139.105 190.869C139.193 190.881 139.313 189.948 139.882 188.975C140.438 187.993 141.185 187.422 141.129 187.351C141.099 187.282 140.222 187.78 139.626 188.828C139.02 189.869 139.03 190.877 139.105 190.869Z" fill="#263238"/>
<path d="M137.264 190.035C137.35 190.05 137.529 189.216 137.998 188.294C138.459 187.367 139.023 186.728 138.96 186.667C138.911 186.609 138.222 187.186 137.735 188.162C137.242 189.133 137.188 190.03 137.264 190.035Z" fill="#263238"/>
<path d="M135.539 189.573C135.627 189.567 135.559 188.685 135.951 187.709C136.325 186.725 136.973 186.123 136.912 186.059C136.877 185.991 136.085 186.537 135.676 187.601C135.255 188.66 135.466 189.598 135.539 189.573Z" fill="#263238"/>
<path d="M135.851 187.294C135.883 187.302 136.039 186.808 136.041 185.981C136.04 185.568 135.992 185.074 135.862 184.542C135.797 184.276 135.71 184.001 135.6 183.723C135.543 183.583 135.478 183.422 135.317 183.29C135.153 183.143 134.853 183.173 134.711 183.321C134.55 183.462 134.498 183.66 134.476 183.82C134.458 183.982 134.449 184.133 134.453 184.286C134.458 184.589 134.497 184.88 134.562 185.149C134.692 185.688 134.902 186.14 135.105 186.498C135.516 187.214 135.873 187.58 135.897 187.56C135.938 187.532 135.642 187.121 135.29 186.402C135.117 186.041 134.936 185.6 134.827 185.09C134.773 184.835 134.742 184.564 134.742 184.283C134.75 184.012 134.746 183.673 134.905 183.543C134.989 183.473 135.065 183.469 135.139 183.524C135.216 183.583 135.282 183.704 135.331 183.832C135.441 184.096 135.53 184.357 135.599 184.611C135.738 185.118 135.805 185.589 135.832 185.988C135.884 186.787 135.803 187.286 135.851 187.294Z" fill="#263238"/>
<path d="M135.829 187.114C135.837 187.081 135.412 186.936 134.691 186.93C134.333 186.93 133.902 186.967 133.439 187.083C133.211 187.146 132.965 187.205 132.719 187.349C132.477 187.472 132.224 187.807 132.319 188.156C132.395 188.484 132.676 188.714 132.955 188.786C133.236 188.864 133.509 188.836 133.746 188.783C134.231 188.672 134.607 188.434 134.893 188.22C135.458 187.776 135.735 187.437 135.713 187.412C135.683 187.374 135.348 187.665 134.773 188.049C134.485 188.233 134.122 188.433 133.692 188.517C133.477 188.558 133.245 188.571 133.037 188.508C132.829 188.451 132.657 188.293 132.608 188.088C132.557 187.892 132.676 187.711 132.869 187.597C133.058 187.479 133.292 187.412 133.51 187.347C133.946 187.222 134.354 187.165 134.698 187.139C135.389 187.091 135.822 187.162 135.829 187.114Z" fill="#263238"/>
<path d="M141.814 191.058C141.901 191.048 141.815 190.294 142.162 189.467C142.492 188.632 143.082 188.154 143.026 188.086C142.997 188.014 142.259 188.431 141.889 189.355C141.508 190.275 141.743 191.089 141.814 191.058Z" fill="#263238"/>
<path d="M129.503 191.872C129.495 191.891 129.738 192.004 130.186 192.193C130.639 192.364 131.302 192.604 132.149 192.802C133.836 193.227 136.242 193.468 138.885 193.44C141.529 193.411 143.912 193.291 145.64 193.221C146.458 193.178 147.144 193.142 147.685 193.113C148.167 193.081 148.433 193.054 148.433 193.033C148.432 193.013 148.165 193.001 147.681 192.998C147.139 193.002 146.452 193.007 145.633 193.013C143.847 193.048 141.49 193.094 138.883 193.145C136.253 193.173 133.875 192.967 132.195 192.598C130.508 192.252 129.523 191.817 129.503 191.872Z" fill="#263238"/>
<path d="M128.981 192.274C129.005 192.315 129.488 192.033 130.302 191.676C131.108 191.33 132.315 190.915 133.642 191.12C134.971 191.324 135.914 192.217 136.527 192.837C137.146 193.48 137.508 193.906 137.544 193.876C137.571 193.854 137.27 193.385 136.681 192.695C136.383 192.354 136.005 191.959 135.511 191.602C135.022 191.242 134.392 190.936 133.688 190.828C132.266 190.611 131.012 191.086 130.215 191.486C129.405 191.901 128.963 192.245 128.981 192.274Z" fill="#263238"/>
<path d="M113.025 179.265C113.025 179.265 96.3288 190.197 95.7302 190.65C94.8309 191.329 95.8618 194.564 97.4199 194.004C98.1566 193.739 112.167 189.841 113.673 189.255C115.181 188.669 119.235 185.363 119.235 185.363L113.025 179.265Z" fill="#1EA788"/>
<path d="M108.067 187.912C108.14 187.897 107.844 186.934 106.949 186.126C106.064 185.308 105.077 185.101 105.069 185.175C105.037 185.26 105.923 185.577 106.751 186.343C107.589 187.098 107.986 187.951 108.067 187.912Z" fill="#263238"/>
<path d="M109.565 186.559C109.636 186.531 109.312 185.692 108.547 184.916C107.787 184.135 106.955 183.795 106.927 183.864C106.885 183.941 107.615 184.38 108.336 185.124C109.064 185.858 109.487 186.598 109.565 186.559Z" fill="#263238"/>
<path d="M111.07 185.595C111.146 185.598 111.062 184.64 110.34 183.758C109.626 182.869 108.707 182.59 108.694 182.664C108.654 182.744 109.455 183.121 110.11 183.944C110.78 184.757 110.984 185.617 111.07 185.595Z" fill="#263238"/>
<path d="M110.079 183.517C110.123 183.496 109.894 183.045 109.702 182.268C109.606 181.88 109.527 181.409 109.505 180.885C109.494 180.622 109.5 180.346 109.523 180.062C109.533 179.924 109.558 179.789 109.614 179.709C109.667 179.634 109.741 179.616 109.842 179.657C110.033 179.733 110.132 180.057 110.222 180.313C110.307 180.58 110.361 180.848 110.386 181.107C110.437 181.626 110.399 182.101 110.343 182.497C110.226 183.29 110.069 183.771 110.117 183.785C110.146 183.797 110.374 183.34 110.549 182.533C110.633 182.13 110.696 181.635 110.657 181.083C110.637 180.807 110.587 180.517 110.498 180.227C110.455 180.079 110.401 179.939 110.335 179.79C110.266 179.645 110.157 179.471 109.959 179.386C109.779 179.289 109.485 179.351 109.373 179.541C109.26 179.714 109.247 179.888 109.235 180.039C109.213 180.337 109.214 180.626 109.233 180.899C109.271 181.446 109.376 181.931 109.5 182.324C109.753 183.113 110.052 183.535 110.079 183.517Z" fill="#263238"/>
<path d="M110.046 183.341C110.067 183.384 110.458 183.185 111.131 183.021C111.466 182.942 111.872 182.872 112.326 182.858C112.553 182.854 112.796 182.847 113.012 182.901C113.231 182.952 113.399 183.088 113.411 183.291C113.426 183.5 113.309 183.704 113.129 183.821C112.949 183.944 112.725 184.003 112.508 184.029C112.072 184.079 111.666 183.999 111.335 183.911C110.671 183.719 110.264 183.545 110.246 183.59C110.233 183.62 110.6 183.859 111.274 184.11C111.611 184.228 112.042 184.34 112.537 184.299C112.78 184.277 113.047 184.221 113.291 184.061C113.535 183.907 113.733 183.603 113.705 183.268C113.691 182.907 113.348 182.664 113.081 182.621C112.801 182.558 112.55 182.576 112.313 182.586C111.837 182.616 111.415 182.711 111.074 182.82C110.389 183.044 110.028 183.313 110.046 183.341Z" fill="#263238"/>
<path d="M99.546 193.394C99.565 193.42 99.8272 193.225 99.9545 192.748C100.094 192.281 100.007 191.564 99.6419 190.935C99.4675 190.619 99.267 190.344 99.0829 190.102C98.9003 189.86 98.7107 189.64 98.5157 189.494C98.3228 189.343 98.1207 189.276 97.9821 189.271C97.8423 189.265 97.7713 189.299 97.7735 189.316C97.774 189.362 98.0714 189.34 98.3808 189.653C98.5379 189.802 98.6933 190.012 98.8624 190.262C99.0336 190.511 99.2194 190.781 99.383 191.077C99.721 191.666 99.8218 192.275 99.7497 192.706C99.6896 193.138 99.507 193.366 99.546 193.394Z" fill="#263238"/>
<path d="M105.54 188.916C105.618 188.924 105.594 188.076 104.952 187.316C104.319 186.548 103.489 186.374 103.483 186.452C103.451 186.534 104.157 186.811 104.726 187.505C105.307 188.188 105.454 188.933 105.54 188.916Z" fill="#263238"/>
<path d="M117.518 185.953C117.503 185.935 117.248 186.123 116.784 186.457C116.314 186.781 115.625 187.237 114.725 187.718C113.828 188.2 112.719 188.7 111.456 189.173C110.191 189.645 108.773 190.089 107.274 190.524C104.27 191.389 101.55 192.179 99.5887 192.77C98.6477 193.059 97.8671 193.299 97.2685 193.482C96.7224 193.657 96.4234 193.762 96.4288 193.782C96.4347 193.801 96.7446 193.733 97.3004 193.593C97.905 193.432 98.6948 193.223 99.6461 192.97C101.623 192.431 104.349 191.673 107.356 190.808C108.859 190.372 110.284 189.917 111.552 189.427C112.821 188.937 113.932 188.411 114.826 187.901C115.722 187.391 116.4 186.905 116.852 186.549C117.298 186.185 117.529 185.966 117.518 185.953Z" fill="#263238"/>
<path d="M118.137 186.178C118.146 186.144 117.619 185.95 116.722 185.802C115.841 185.663 114.502 185.591 113.213 186.23C112.574 186.547 112.068 187.029 111.711 187.52C111.349 188.011 111.109 188.502 110.928 188.918C110.577 189.753 110.432 190.291 110.464 190.304C110.508 190.321 110.723 189.806 111.118 189.006C111.514 188.229 112.141 187.092 113.346 186.494C114.547 185.896 115.823 185.924 116.696 186.009C117.581 186.101 118.126 186.224 118.137 186.178Z" fill="#263238"/>
<path d="M147.721 152.605C147.721 152.605 152.73 154.394 152.751 160.01C152.791 170.768 131.014 182.626 131.014 182.626L102.035 163.425L100.218 162.689C100.218 162.689 139.338 147.994 147.721 152.605Z" fill="#263238"/>
<path d="M116.714 173.122C116.726 173.139 116.995 172.955 117.469 172.61C117.945 172.266 118.622 171.756 119.451 171.114C121.11 169.831 123.368 168.013 125.796 165.929C128.225 163.843 130.363 161.886 131.882 160.44C132.641 159.717 133.249 159.124 133.661 158.707C134.074 158.291 134.295 158.053 134.282 158.038C134.267 158.024 134.019 158.233 133.582 158.624C133.109 159.051 132.488 159.612 131.74 160.287C130.187 161.692 128.029 163.622 125.604 165.705C123.179 167.786 120.946 169.627 119.321 170.95C118.54 171.588 117.893 172.116 117.399 172.52C116.947 172.892 116.702 173.106 116.714 173.122Z" fill="#455A64"/>
<path d="M139.54 156.627C139.551 156.555 138.258 156.428 136.748 156.88C135.233 157.321 134.217 158.129 134.265 158.184C134.313 158.261 135.37 157.587 136.832 157.164C138.288 156.726 139.542 156.717 139.54 156.627Z" fill="#455A64"/>
<path d="M137.044 154.93C137.018 154.86 136.089 155.269 135.326 156.222C134.554 157.169 134.35 158.163 134.424 158.174C134.508 158.203 134.825 157.301 135.555 156.408C136.274 155.506 137.09 155.006 137.044 154.93Z" fill="#455A64"/>
<path d="M149.315 188.992C149.33 188.959 148.969 188.889 148.567 189.219C148.174 189.534 147.838 190.165 147.73 190.901C147.621 191.643 147.786 192.323 147.994 192.756C148.199 193.196 148.425 193.403 148.45 193.382C148.49 193.355 148.332 193.11 148.188 192.678C148.04 192.252 147.923 191.622 148.022 190.943C148.122 190.267 148.399 189.682 148.708 189.374C149.015 189.052 149.321 189.04 149.315 188.992Z" fill="#263238"/>
<path d="M141.056 135.03L130.735 161.194L86.2921 161.919L85.4697 159.514L101.045 158.949L108.531 135.739L141.056 135.03Z" fill="#455A64"/>
<path d="M120.302 146.358C120.872 145.971 121.926 146.126 122.438 146.586C122.952 147.046 123.118 147.841 122.857 148.479C122.596 149.117 121.939 149.564 121.252 149.6C120.521 149.64 119.759 149.182 119.554 148.48C119.35 147.777 119.577 146.728 120.302 146.358Z" fill="#EBEBEB"/>
<path d="M133.759 183.933C133.759 183.933 92.8135 157.076 91.1368 156.517C89.4607 155.957 85.4086 153.303 81.3575 154.42C77.3053 155.539 73.673 159.171 71.856 164.48C70.8186 167.513 70.3284 172.689 70.0987 176.57C69.8235 181.211 71.2607 185.837 74.2955 189.358C75.6769 190.96 77.3806 192.354 79.4007 192.982C79.8271 193.115 80.2702 193.23 80.7247 193.328C88.4661 195.007 96.4214 191.531 100.77 184.911L101.726 183.457C101.726 183.457 128.511 193.297 128.93 193.158L133.759 183.933Z" fill="#263238"/>
<path d="M83.1025 176.541C83.1025 176.541 83.1768 176.579 83.3268 176.64C83.4888 176.704 83.7114 176.793 83.9969 176.906C84.6015 177.139 85.4732 177.475 86.5929 177.906C88.8704 178.763 92.156 180.001 96.2401 181.54C100.338 183.068 105.246 184.886 110.754 186.89C116.261 188.892 122.365 191.09 128.883 193.297L129.001 193.337L129.059 193.226C130.083 191.271 131.163 189.21 132.258 187.117C132.817 186.05 133.371 184.991 133.889 184.001L133.952 183.882L133.838 183.81C121.543 176.005 110.543 169.022 102.605 163.983C98.6421 161.483 95.4432 159.465 93.2237 158.065C92.1245 157.379 91.2686 156.845 90.6754 156.475C90.3915 156.301 90.1705 156.166 90.0107 156.068C89.8601 155.978 89.7788 155.938 89.7788 155.938C89.7788 155.938 89.8493 155.994 89.995 156.093C90.1516 156.196 90.3672 156.339 90.6451 156.524C91.2318 156.904 92.078 157.453 93.1647 158.159C95.3722 159.577 98.5538 161.621 102.497 164.154C110.422 169.213 121.404 176.222 133.678 184.057L133.628 183.865C133.11 184.854 132.556 185.913 131.997 186.98C130.902 189.073 129.823 191.135 128.8 193.09L128.976 193.019C122.461 190.818 116.355 188.63 110.842 186.645C105.338 184.642 100.422 182.852 96.3078 181.356C92.2107 179.852 88.9148 178.644 86.6308 177.806C85.503 177.395 84.6253 177.075 84.0164 176.854C83.7261 176.752 83.5007 176.672 83.3371 176.614C83.1833 176.561 83.1025 176.541 83.1025 176.541Z" fill="#455A64"/>
<path d="M87.352 81.1678C88.0497 79.2804 89.5931 78.4602 91.5493 77.9873C93.505 77.5138 95.6811 78.0745 97.1644 79.4337C98.1568 80.3433 98.8844 81.599 100.11 82.1548C102.128 83.0704 104.715 81.7328 106.628 82.851C107.761 83.5135 108.316 85.0201 107.885 86.259C107.454 87.4979 106.083 88.3338 104.785 88.1497C106.1 88.7716 106.346 90.7505 105.44 91.8892C104.535 93.0269 102.86 93.3351 101.46 92.9391C100.061 92.5436 98.8984 91.5664 97.9098 90.4997C96.9211 89.4325 96.0554 88.2493 94.9855 87.2645C93.9145 86.2796 92.5791 85.4865 91.1262 85.4329C89.1581 85.3592 87.3427 86.6816 86.3097 88.3582C85.2771 90.0343 84.8914 92.022 84.6037 93.9695C84.3161 95.917 84.0989 97.9046 83.3475 99.7243C83.2592 99.9383 83.1335 100.175 82.907 100.222C82.5798 100.291 82.3409 99.9285 82.2098 99.6219C80.7298 96.1537 79.94 92.3925 79.8999 88.6215C79.8766 86.4318 80.122 84.3824 81.4817 82.6657C82.842 80.9489 85.9787 79.8796 87.352 81.1678Z" fill="#263238"/>
<path d="M82.7352 89.9054L79.7253 111.779C79.2134 115.498 81.9183 118.89 85.6584 119.217C89.1499 119.523 92.2659 117.031 92.7399 113.559C92.9653 111.913 93.1554 110.54 93.1901 110.372C93.1901 110.372 98.8306 110.615 99.991 105.158C100.552 102.522 101.265 96.9972 101.851 91.9921C102.482 86.6165 98.8712 81.6591 93.5639 80.599L93.0362 80.4933C87.2798 79.6889 83.3799 84.1284 82.7352 89.9054Z" fill="#FFBE9D"/>
<path d="M93.2149 110.295C93.2149 110.295 89.7023 109.885 86.4893 106.843C86.4893 106.843 87.388 111.116 92.9445 111.715L93.2149 110.295Z" fill="#EB996E"/>
<path d="M99.5268 95.3374C99.4591 95.753 99.0511 96.0383 98.6152 95.9753C98.1821 95.9122 97.8832 95.5258 97.9515 95.1099C98.0197 94.6944 98.4266 94.4089 98.8609 94.4717C99.2963 94.5346 99.5945 94.9219 99.5268 95.3374Z" fill="#263238"/>
<path d="M100.14 94.4425C100.023 94.5248 99.5191 93.969 98.6778 93.8027C97.8403 93.6255 97.1366 93.9349 97.0661 93.8135C97.0304 93.7588 97.1658 93.5952 97.4735 93.4533C97.7769 93.3108 98.2655 93.2122 98.7889 93.3189C99.3122 93.4262 99.7136 93.7073 99.927 93.9549C100.146 94.2052 100.197 94.4067 100.14 94.4425Z" fill="#263238"/>
<path d="M91.226 93.9761C91.1583 94.3916 90.7503 94.677 90.315 94.6141C89.8813 94.5509 89.5824 94.1645 89.6507 93.7485C89.719 93.3331 90.1264 93.0477 90.5607 93.1104C90.9955 93.1732 91.2937 93.5606 91.226 93.9761Z" fill="#263238"/>
<path d="M91.8464 92.9473C91.7294 93.0296 91.2245 92.4738 90.3843 92.308C89.5462 92.1303 88.843 92.4396 88.7721 92.3183C88.7369 92.2636 88.8712 92.1 89.18 91.958C89.4834 91.8161 89.972 91.717 90.4953 91.8237C91.0181 91.931 91.4201 92.2121 91.6335 92.4597C91.8518 92.7094 91.9028 92.9115 91.8464 92.9473Z" fill="#263238"/>
<path d="M93.6514 99.7914C93.6574 99.7427 94.1975 99.7568 95.0653 99.818C95.2847 99.8386 95.4966 99.8364 95.5616 99.6972C95.6434 99.5525 95.6 99.3028 95.5459 99.0325C95.4473 98.4723 95.3454 97.8856 95.2376 97.2713C94.821 94.7685 94.5653 92.7272 94.6661 92.7115C94.7674 92.6953 95.1867 94.7116 95.6033 97.2144C95.7008 97.8309 95.7945 98.4181 95.8828 98.9799C95.9153 99.2399 95.9998 99.5449 95.8259 99.8451C95.736 99.9935 95.5551 100.079 95.4099 100.088C95.2642 100.102 95.1428 100.081 95.0356 100.066C94.1742 99.9409 93.6449 99.8396 93.6514 99.7914Z" fill="#263238"/>
<path d="M90.3864 100.81C90.5063 100.739 90.9375 101.564 91.9483 101.782C92.9589 102.002 93.7906 101.452 93.8578 101.564C93.896 101.61 93.7449 101.827 93.3791 102.03C93.0211 102.232 92.428 102.392 91.8098 102.258C91.1918 102.123 90.7572 101.741 90.5528 101.416C90.3416 101.088 90.3278 100.835 90.3864 100.81Z" fill="#263238"/>
<path d="M92.7222 89.6979C92.5932 89.9098 91.7757 89.634 90.766 89.5555C89.7573 89.4574 88.9046 89.5869 88.8146 89.3561C88.7762 89.2461 88.9577 89.0587 89.3239 88.9016C89.6863 88.7445 90.2367 88.6362 90.8418 88.6887C91.4469 88.7423 91.9697 88.9444 92.3001 89.1627C92.6328 89.3805 92.779 89.5966 92.7222 89.6979Z" fill="#263238"/>
<path d="M100.317 91.9479C100.13 92.1093 99.5914 91.7956 98.8969 91.6467C98.2078 91.4744 97.5854 91.5183 97.4895 91.2918C97.4494 91.1829 97.5805 91.0101 97.8741 90.8807C98.1639 90.7517 98.6179 90.6894 99.0935 90.7994C99.5692 90.9099 99.9489 91.1661 100.152 91.4099C100.359 91.6553 100.4 91.8682 100.317 91.9479Z" fill="#263238"/>
<path d="M82.3716 94.045C82.2865 93.9865 78.8362 92.1825 78.2078 95.9459C77.5805 99.7088 81.488 99.5631 81.5124 99.4558C81.5368 99.3491 82.3716 94.045 82.3716 94.045Z" fill="#FFBE9D"/>
<path d="M80.6021 97.8387C80.5875 97.8241 80.5284 97.8734 80.4098 97.9059C80.2933 97.9373 80.1015 97.94 79.9179 97.8338C79.5446 97.622 79.3149 96.9351 79.4103 96.2536C79.4574 95.9096 79.5836 95.5954 79.7499 95.3457C79.9108 95.0894 80.121 94.9269 80.3269 94.9247C80.5338 94.9123 80.6557 95.0553 80.6839 95.169C80.7169 95.2823 80.6806 95.3538 80.6996 95.3635C80.7083 95.3744 80.7906 95.3142 80.7863 95.1533C80.783 95.0759 80.7538 94.98 80.6774 94.8933C80.5994 94.8039 80.4732 94.7449 80.3307 94.7362C80.0376 94.7086 79.7321 94.9318 79.549 95.2059C79.3496 95.4789 79.2001 95.8305 79.1465 96.2168C79.0441 96.979 79.3139 97.7537 79.8318 98.0018C80.0853 98.115 80.3193 98.0716 80.4482 98.0018C80.5799 97.9281 80.6135 97.8479 80.6021 97.8387Z" fill="#EB996E"/>
<path d="M103.236 91.089C100.699 91.2488 98.1139 90.0982 96.5342 88.1057C95.4296 86.7118 94.727 84.8851 93.1619 84.0384C92.1088 83.469 90.813 83.4625 89.6721 83.8249C88.5301 84.1873 87.5241 84.8883 86.6232 85.6771C87.1249 88.668 85.7949 91.6286 84.4986 94.3708C84.3555 94.6731 84.1919 94.9981 83.8913 95.146C83.381 95.3979 82.7721 94.9998 82.4665 94.5192C81.9784 93.75 81.921 92.7895 81.9394 91.8783C81.9806 89.8035 82.3452 87.7167 83.1876 85.8201C84.03 83.9235 85.3691 82.2219 87.1216 81.1097C89.3113 79.7197 92.0704 79.3226 94.6057 79.8703C97.141 80.4174 99.4433 81.8703 101.167 83.8087C101.966 84.7079 102.662 85.7405 102.934 86.9128" fill="#263238"/>
</svg>
