<svg width="684" height="576" viewBox="0 0 684 576" fill="none" xmlns="http://www.w3.org/2000/svg">
<g filter="url(#filter0_dd_72_12314)">
<rect x="272.5" y="10.4121" width="127" height="40" rx="4" fill="#545F72"/>
<path d="M286.912 36.5381C286.612 36.5381 286.378 36.4541 286.21 36.2861C286.054 36.1181 285.976 35.8841 285.976 35.5841V24.6761C285.976 24.3641 286.06 24.1301 286.228 23.9741C286.396 23.8061 286.63 23.7221 286.93 23.7221H291.232C292.6 23.7221 293.656 24.0641 294.4 24.7481C295.144 25.4201 295.516 26.3681 295.516 27.5921C295.516 28.8281 295.144 29.7881 294.4 30.4721C293.656 31.1441 292.6 31.4801 291.232 31.4801H287.848V35.5841C287.848 35.8841 287.77 36.1181 287.614 36.2861C287.458 36.4541 287.224 36.5381 286.912 36.5381ZM287.848 29.9861H290.962C291.862 29.9861 292.54 29.7881 292.996 29.3921C293.464 28.9841 293.698 28.3841 293.698 27.5921C293.698 26.8121 293.464 26.2241 292.996 25.8281C292.54 25.4201 291.862 25.2161 290.962 25.2161H287.848V29.9861ZM298.069 36.5381C297.769 36.5381 297.541 36.4601 297.385 36.3041C297.229 36.1361 297.151 35.9081 297.151 35.6201V28.4201C297.151 28.1201 297.229 27.8921 297.385 27.7361C297.541 27.5801 297.757 27.5021 298.033 27.5021C298.321 27.5021 298.537 27.5801 298.681 27.7361C298.837 27.8921 298.915 28.1201 298.915 28.4201V29.7341H298.735C298.927 29.0141 299.281 28.4681 299.797 28.0961C300.313 27.7241 300.973 27.5081 301.777 27.4481C301.993 27.4361 302.161 27.4901 302.281 27.6101C302.413 27.7301 302.485 27.9161 302.497 28.1681C302.521 28.4201 302.467 28.6241 302.335 28.7801C302.203 28.9241 301.999 29.0081 301.723 29.0321L301.381 29.0681C300.601 29.1401 300.007 29.3861 299.599 29.8061C299.191 30.2261 298.987 30.8021 298.987 31.5341V35.6201C298.987 35.9081 298.909 36.1361 298.753 36.3041C298.609 36.4601 298.381 36.5381 298.069 36.5381ZM307.865 36.5741C306.905 36.5741 306.077 36.3941 305.381 36.0341C304.697 35.6621 304.163 35.1401 303.779 34.4681C303.407 33.7841 303.221 32.9741 303.221 32.0381C303.221 31.1261 303.407 30.3281 303.779 29.6441C304.151 28.9601 304.661 28.4261 305.309 28.0421C305.957 27.6581 306.695 27.4661 307.523 27.4661C308.135 27.4661 308.681 27.5681 309.161 27.7721C309.641 27.9641 310.049 28.2521 310.385 28.6361C310.733 29.0081 310.991 29.4641 311.159 30.0041C311.339 30.5441 311.429 31.1501 311.429 31.8221C311.429 32.0261 311.369 32.1821 311.249 32.2901C311.129 32.3861 310.949 32.4341 310.709 32.4341H304.661V31.3181H310.205L309.899 31.5701C309.899 30.9701 309.809 30.4601 309.629 30.0401C309.461 29.6201 309.203 29.3021 308.855 29.0861C308.519 28.8581 308.099 28.7441 307.595 28.7441C307.031 28.7441 306.551 28.8761 306.155 29.1401C305.771 29.4041 305.477 29.7701 305.273 30.2381C305.069 30.7061 304.967 31.2521 304.967 31.8761V31.9841C304.967 33.0401 305.213 33.8381 305.705 34.3781C306.209 34.9061 306.935 35.1701 307.883 35.1701C308.243 35.1701 308.621 35.1221 309.017 35.0261C309.425 34.9301 309.809 34.7681 310.169 34.5401C310.373 34.4201 310.553 34.3661 310.709 34.3781C310.877 34.3901 311.009 34.4441 311.105 34.5401C311.213 34.6361 311.279 34.7561 311.303 34.9001C311.327 35.0441 311.303 35.1941 311.231 35.3501C311.159 35.4941 311.033 35.6261 310.853 35.7461C310.445 36.0221 309.971 36.2321 309.431 36.3761C308.891 36.5081 308.369 36.5741 307.865 36.5741ZM316.489 36.5741C315.961 36.5741 315.415 36.5141 314.851 36.3941C314.299 36.2741 313.789 36.0701 313.321 35.7821C313.165 35.6741 313.057 35.5541 312.997 35.4221C312.937 35.2901 312.913 35.1581 312.925 35.0261C312.949 34.8821 313.003 34.7621 313.087 34.6661C313.183 34.5581 313.297 34.4921 313.429 34.4681C313.573 34.4441 313.723 34.4741 313.879 34.5581C314.347 34.8221 314.797 35.0081 315.229 35.1161C315.661 35.2121 316.087 35.2601 316.507 35.2601C317.143 35.2601 317.623 35.1461 317.947 34.9181C318.271 34.6901 318.433 34.3841 318.433 34.0001C318.433 33.6881 318.325 33.4481 318.109 33.2801C317.893 33.1001 317.569 32.9621 317.137 32.8661L315.427 32.5241C314.683 32.3681 314.119 32.0921 313.735 31.6961C313.351 31.3001 313.159 30.7961 313.159 30.1841C313.159 29.6321 313.309 29.1521 313.609 28.7441C313.909 28.3361 314.329 28.0241 314.869 27.8081C315.409 27.5801 316.033 27.4661 316.741 27.4661C317.269 27.4661 317.767 27.5321 318.235 27.6641C318.703 27.7961 319.135 27.9941 319.531 28.2581C319.687 28.3421 319.789 28.4561 319.837 28.6001C319.885 28.7321 319.891 28.8641 319.855 28.9961C319.831 29.1281 319.771 29.2481 319.675 29.3561C319.579 29.4521 319.459 29.5121 319.315 29.5361C319.183 29.5481 319.033 29.5121 318.865 29.4281C318.505 29.2001 318.145 29.0381 317.785 28.9421C317.437 28.8461 317.089 28.7981 316.741 28.7981C316.105 28.7981 315.625 28.9181 315.301 29.1581C314.989 29.3861 314.833 29.6981 314.833 30.0941C314.833 30.3941 314.929 30.6401 315.121 30.8321C315.313 31.0241 315.613 31.1621 316.021 31.2461L317.731 31.5881C318.511 31.7441 319.099 32.0081 319.495 32.3801C319.903 32.7521 320.107 33.2561 320.107 33.8921C320.107 34.7201 319.777 35.3741 319.117 35.8541C318.457 36.3341 317.581 36.5741 316.489 36.5741ZM325.262 36.5741C324.554 36.5741 323.96 36.4421 323.48 36.1781C323.012 35.9141 322.658 35.5241 322.418 35.0081C322.19 34.4801 322.076 33.8201 322.076 33.0281V28.4201C322.076 28.1081 322.154 27.8801 322.31 27.7361C322.466 27.5801 322.688 27.5021 322.976 27.5021C323.264 27.5021 323.486 27.5801 323.642 27.7361C323.81 27.8801 323.894 28.1081 323.894 28.4201V33.0461C323.894 33.7541 324.038 34.2761 324.326 34.6121C324.614 34.9481 325.07 35.1161 325.694 35.1161C326.378 35.1161 326.93 34.8881 327.35 34.4321C327.782 33.9641 327.998 33.3521 327.998 32.5961V28.4201C327.998 28.1081 328.076 27.8801 328.232 27.7361C328.388 27.5801 328.616 27.5021 328.916 27.5021C329.204 27.5021 329.426 27.5801 329.582 27.7361C329.738 27.8801 329.816 28.1081 329.816 28.4201V35.6201C329.816 36.2321 329.522 36.5381 328.934 36.5381C328.658 36.5381 328.442 36.4601 328.286 36.3041C328.13 36.1361 328.052 35.9081 328.052 35.6201V34.0901L328.286 34.4861C328.046 35.1581 327.662 35.6741 327.134 36.0341C326.606 36.3941 325.982 36.5741 325.262 36.5741ZM333.278 39.7781C332.99 39.7781 332.768 39.7001 332.612 39.5441C332.456 39.3881 332.378 39.1601 332.378 38.8601V28.4201C332.378 28.1201 332.456 27.8921 332.612 27.7361C332.768 27.5801 332.984 27.5021 333.26 27.5021C333.548 27.5021 333.77 27.5801 333.926 27.7361C334.082 27.8921 334.16 28.1201 334.16 28.4201V29.9861L333.962 29.6081C334.154 28.9601 334.532 28.4441 335.096 28.0601C335.66 27.6641 336.326 27.4661 337.094 27.4661C337.874 27.4661 338.552 27.6521 339.128 28.0241C339.716 28.3961 340.166 28.9181 340.478 29.5901C340.802 30.2621 340.964 31.0721 340.964 32.0201C340.964 32.9441 340.802 33.7541 340.478 34.4501C340.166 35.1341 339.722 35.6621 339.146 36.0341C338.57 36.3941 337.886 36.5741 337.094 36.5741C336.338 36.5741 335.678 36.3821 335.114 35.9981C334.55 35.6141 334.172 35.1041 333.98 34.4681H334.196V38.8601C334.196 39.1601 334.112 39.3881 333.944 39.5441C333.788 39.7001 333.566 39.7781 333.278 39.7781ZM336.644 35.1701C337.148 35.1701 337.586 35.0501 337.958 34.8101C338.33 34.5701 338.618 34.2161 338.822 33.7481C339.026 33.2801 339.128 32.7041 339.128 32.0201C339.128 30.9881 338.9 30.2081 338.444 29.6801C338 29.1521 337.4 28.8881 336.644 28.8881C336.152 28.8881 335.714 29.0081 335.33 29.2481C334.958 29.4761 334.67 29.8241 334.466 30.2921C334.262 30.7601 334.16 31.3361 334.16 32.0201C334.16 33.0401 334.388 33.8201 334.844 34.3601C335.3 34.9001 335.9 35.1701 336.644 35.1701ZM346.144 36.5741C345.436 36.5741 344.842 36.4421 344.362 36.1781C343.894 35.9141 343.54 35.5241 343.3 35.0081C343.072 34.4801 342.958 33.8201 342.958 33.0281V28.4201C342.958 28.1081 343.036 27.8801 343.192 27.7361C343.348 27.5801 343.57 27.5021 343.858 27.5021C344.146 27.5021 344.368 27.5801 344.524 27.7361C344.692 27.8801 344.776 28.1081 344.776 28.4201V33.0461C344.776 33.7541 344.92 34.2761 345.208 34.6121C345.496 34.9481 345.952 35.1161 346.576 35.1161C347.26 35.1161 347.812 34.8881 348.232 34.4321C348.664 33.9641 348.88 33.3521 348.88 32.5961V28.4201C348.88 28.1081 348.958 27.8801 349.114 27.7361C349.27 27.5801 349.498 27.5021 349.798 27.5021C350.086 27.5021 350.308 27.5801 350.464 27.7361C350.62 27.8801 350.698 28.1081 350.698 28.4201V35.6201C350.698 36.2321 350.404 36.5381 349.816 36.5381C349.54 36.5381 349.324 36.4601 349.168 36.3041C349.012 36.1361 348.934 35.9081 348.934 35.6201V34.0901L349.168 34.4861C348.928 35.1581 348.544 35.6741 348.016 36.0341C347.488 36.3941 346.864 36.5741 346.144 36.5741ZM357.382 36.5741C356.422 36.5741 355.594 36.3941 354.898 36.0341C354.214 35.6621 353.68 35.1401 353.296 34.4681C352.924 33.7841 352.738 32.9741 352.738 32.0381C352.738 31.1261 352.924 30.3281 353.296 29.6441C353.668 28.9601 354.178 28.4261 354.826 28.0421C355.474 27.6581 356.212 27.4661 357.04 27.4661C357.652 27.4661 358.198 27.5681 358.678 27.7721C359.158 27.9641 359.566 28.2521 359.902 28.6361C360.25 29.0081 360.508 29.4641 360.676 30.0041C360.856 30.5441 360.946 31.1501 360.946 31.8221C360.946 32.0261 360.886 32.1821 360.766 32.2901C360.646 32.3861 360.466 32.4341 360.226 32.4341H354.178V31.3181H359.722L359.416 31.5701C359.416 30.9701 359.326 30.4601 359.146 30.0401C358.978 29.6201 358.72 29.3021 358.372 29.0861C358.036 28.8581 357.616 28.7441 357.112 28.7441C356.548 28.7441 356.068 28.8761 355.672 29.1401C355.288 29.4041 354.994 29.7701 354.79 30.2381C354.586 30.7061 354.484 31.2521 354.484 31.8761V31.9841C354.484 33.0401 354.73 33.8381 355.222 34.3781C355.726 34.9061 356.452 35.1701 357.4 35.1701C357.76 35.1701 358.138 35.1221 358.534 35.0261C358.942 34.9301 359.326 34.7681 359.686 34.5401C359.89 34.4201 360.07 34.3661 360.226 34.3781C360.394 34.3901 360.526 34.4441 360.622 34.5401C360.73 34.6361 360.796 34.7561 360.82 34.9001C360.844 35.0441 360.82 35.1941 360.748 35.3501C360.676 35.4941 360.55 35.6261 360.37 35.7461C359.962 36.0221 359.488 36.2321 358.948 36.3761C358.408 36.5081 357.886 36.5741 357.382 36.5741ZM366.006 36.5741C365.478 36.5741 364.932 36.5141 364.368 36.3941C363.816 36.2741 363.306 36.0701 362.838 35.7821C362.682 35.6741 362.574 35.5541 362.514 35.4221C362.454 35.2901 362.43 35.1581 362.442 35.0261C362.466 34.8821 362.52 34.7621 362.604 34.6661C362.7 34.5581 362.814 34.4921 362.946 34.4681C363.09 34.4441 363.24 34.4741 363.396 34.5581C363.864 34.8221 364.314 35.0081 364.746 35.1161C365.178 35.2121 365.604 35.2601 366.024 35.2601C366.66 35.2601 367.14 35.1461 367.464 34.9181C367.788 34.6901 367.95 34.3841 367.95 34.0001C367.95 33.6881 367.842 33.4481 367.626 33.2801C367.41 33.1001 367.086 32.9621 366.654 32.8661L364.944 32.5241C364.2 32.3681 363.636 32.0921 363.252 31.6961C362.868 31.3001 362.676 30.7961 362.676 30.1841C362.676 29.6321 362.826 29.1521 363.126 28.7441C363.426 28.3361 363.846 28.0241 364.386 27.8081C364.926 27.5801 365.55 27.4661 366.258 27.4661C366.786 27.4661 367.284 27.5321 367.752 27.6641C368.22 27.7961 368.652 27.9941 369.048 28.2581C369.204 28.3421 369.306 28.4561 369.354 28.6001C369.402 28.7321 369.408 28.8641 369.372 28.9961C369.348 29.1281 369.288 29.2481 369.192 29.3561C369.096 29.4521 368.976 29.5121 368.832 29.5361C368.7 29.5481 368.55 29.5121 368.382 29.4281C368.022 29.2001 367.662 29.0381 367.302 28.9421C366.954 28.8461 366.606 28.7981 366.258 28.7981C365.622 28.7981 365.142 28.9181 364.818 29.1581C364.506 29.3861 364.35 29.6981 364.35 30.0941C364.35 30.3941 364.446 30.6401 364.638 30.8321C364.83 31.0241 365.13 31.1621 365.538 31.2461L367.248 31.5881C368.028 31.7441 368.616 32.0081 369.012 32.3801C369.42 32.7521 369.624 33.2561 369.624 33.8921C369.624 34.7201 369.294 35.3741 368.634 35.8541C367.974 36.3341 367.098 36.5741 366.006 36.5741ZM375.303 36.5741C374.583 36.5741 373.977 36.4481 373.485 36.1961C372.993 35.9441 372.627 35.5721 372.387 35.0801C372.147 34.5881 372.027 33.9881 372.027 33.2801V29.0321H370.947C370.707 29.0321 370.521 28.9721 370.389 28.8521C370.257 28.7201 370.191 28.5461 370.191 28.3301C370.191 28.1021 370.257 27.9281 370.389 27.8081C370.521 27.6881 370.707 27.6281 370.947 27.6281H372.027V25.7741C372.027 25.4741 372.105 25.2461 372.261 25.0901C372.429 24.9341 372.657 24.8561 372.945 24.8561C373.233 24.8561 373.455 24.9341 373.611 25.0901C373.767 25.2461 373.845 25.4741 373.845 25.7741V27.6281H375.951C376.191 27.6281 376.377 27.6881 376.509 27.8081C376.641 27.9281 376.707 28.1021 376.707 28.3301C376.707 28.5461 376.641 28.7201 376.509 28.8521C376.377 28.9721 376.191 29.0321 375.951 29.0321H373.845V33.1361C373.845 33.7721 373.977 34.2521 374.241 34.5761C374.517 34.9001 374.961 35.0621 375.573 35.0621C375.789 35.0621 375.975 35.0441 376.131 35.0081C376.299 34.9601 376.437 34.9301 376.545 34.9181C376.677 34.9181 376.785 34.9661 376.869 35.0621C376.953 35.1461 376.995 35.3141 376.995 35.5661C376.995 35.7461 376.959 35.9141 376.887 36.0701C376.827 36.2261 376.713 36.3281 376.545 36.3761C376.401 36.4241 376.203 36.4661 375.951 36.5021C375.711 36.5501 375.495 36.5741 375.303 36.5741ZM381.862 36.5741C380.974 36.5741 380.206 36.3881 379.558 36.0161C378.922 35.6441 378.424 35.1161 378.064 34.4321C377.704 33.7481 377.524 32.9441 377.524 32.0201C377.524 31.3121 377.626 30.6821 377.83 30.1301C378.034 29.5781 378.322 29.1041 378.694 28.7081C379.078 28.3001 379.534 27.9941 380.062 27.7901C380.602 27.5741 381.202 27.4661 381.862 27.4661C382.738 27.4661 383.494 27.6521 384.13 28.0241C384.778 28.3961 385.282 28.9241 385.642 29.6081C386.002 30.2801 386.182 31.0841 386.182 32.0201C386.182 32.7161 386.08 33.3461 385.876 33.9101C385.672 34.4741 385.378 34.9541 384.994 35.3501C384.622 35.7461 384.166 36.0521 383.626 36.2681C383.098 36.4721 382.51 36.5741 381.862 36.5741ZM381.862 35.1701C382.354 35.1701 382.786 35.0501 383.158 34.8101C383.53 34.5701 383.818 34.2161 384.022 33.7481C384.238 33.2801 384.346 32.7041 384.346 32.0201C384.346 30.9881 384.118 30.2081 383.662 29.6801C383.206 29.1521 382.606 28.8881 381.862 28.8881C381.358 28.8881 380.92 29.0081 380.548 29.2481C380.176 29.4761 379.882 29.8241 379.666 30.2921C379.462 30.7601 379.36 31.3361 379.36 32.0201C379.36 33.0401 379.588 33.8201 380.044 34.3601C380.5 34.9001 381.106 35.1701 381.862 35.1701Z" fill="white"/>
<path d="M383.5 50.4121H369.5C371.82 52.5815 373.275 53.942 375.333 55.8667C375.7 56.2098 375.917 56.4121 376.5 56.4121C377.083 56.4121 377.667 55.8667 377.667 55.8667L383.5 50.4121Z" fill="#545F72"/>
</g>
<path d="M85.7505 417.414L89.1058 415.6L96.9403 430.101L93.5863 431.915L85.7505 417.414Z" fill="#F9F9F9"/>
<path d="M105.781 506.35L53.6325 285.801C51.4503 276.572 54.3956 266.623 61.6083 260.884C65.2186 258.009 69.567 256.347 74.2065 256.347L218.571 251.781C226.211 251.539 233.295 255.963 236.748 263.134L251.142 293.023L434.484 293.198C447.948 293.198 462.086 311.892 460.486 327.577L476.128 511.35C473.867 533.502 454.314 550.178 435.301 550.178H145.665C125.77 550.178 108.962 532.824 105.781 506.35Z" fill="#20A789"/>
<path d="M474.569 519.163C475.134 516.556 475.636 513.733 476.071 510.68L476.129 511.349C475.854 514.04 475.322 516.653 474.569 519.163ZM107.952 517.133C106.969 513.742 106.234 510.138 105.78 506.349L88.6031 433.704L87.0872 427.294L78.749 392.03L78.6349 391.549L73.1024 368.15L72.6271 366.138L53.6316 285.801C53.159 283.8 52.926 281.765 52.926 279.746C52.9274 272.455 55.9577 265.378 61.6073 260.883C65.2177 258.008 69.566 256.346 74.2055 256.346L218.57 251.78C218.768 251.775 218.968 251.771 219.166 251.771C226.576 251.771 233.383 256.15 236.747 263.133L238.25 266.257L94.4756 268.433L96.1504 298.097C86.7706 299.49 77.02 300.939 66.9316 302.437L66.5106 302.499L66.5775 302.898C72.7007 339.399 79.7226 381.242 87.1511 425.519L87.1542 425.533L87.2281 425.979L87.6994 425.908C92.9109 425.123 98.0916 424.341 103.235 423.566L108.27 512.754C108.12 514.273 108.015 515.733 107.952 517.133Z" fill="#188972"/>
<path d="M108.273 512.775L94.4763 268.434L436.416 263.259L448.404 508.135L108.271 512.775H108.273Z" fill="#F4F7F9"/>
<path d="M106.716 278.45C106.716 279.816 105.691 280.922 104.428 280.922C103.166 280.922 102.142 279.816 102.142 278.45C102.142 277.086 103.166 275.979 104.428 275.979C105.691 275.979 106.716 277.086 106.716 278.45Z" fill="#D4DDE4"/>
<path d="M115.588 278.45C115.588 279.816 114.565 280.922 113.301 280.922C112.039 280.922 111.015 279.816 111.015 278.45C111.015 277.086 112.039 275.979 113.301 275.979C114.565 275.979 115.588 277.086 115.588 278.45Z" fill="#D4DDE4"/>
<path d="M124.462 278.45C124.462 279.816 123.438 280.922 122.175 280.922C120.911 280.922 119.888 279.816 119.888 278.45C119.888 277.086 120.911 275.979 122.175 275.979C123.438 275.979 124.462 277.086 124.462 278.45Z" fill="#D4DDE4"/>
<path d="M229.285 278.45L249.912 401.079L87.6248 425.463L66.9993 302.836L229.285 278.45Z" fill="white"/>
<path d="M91.9213 416.905L242.806 394.234L224.777 287.045L73.8914 309.716L91.9213 416.905Z" fill="#335863"/>
<path d="M91.9211 416.906L115.238 375.014L115.982 413.289L91.9211 416.906Z" fill="#193A42"/>
<path d="M118.139 524.363L113.52 286.621L463.252 285.881L461.81 520.826L118.136 524.363H118.139Z" fill="#E4E7EC"/>
<path d="M133.794 295.93C133.794 297.294 132.769 298.401 131.506 298.401C130.244 298.401 129.22 297.294 129.22 295.93C129.22 294.566 130.244 293.458 131.506 293.458C132.769 293.458 133.794 294.566 133.794 295.93Z" fill="#D3DDE4"/>
<path d="M141.991 295.93C141.991 297.294 140.968 298.401 139.704 298.401C138.442 298.401 137.417 297.294 137.417 295.93C137.417 294.566 138.442 293.458 139.704 293.458C140.968 293.458 141.991 294.566 141.991 295.93Z" fill="#D3DDE4"/>
<path d="M125.089 295.93C125.089 297.294 124.064 298.401 122.802 298.401C121.539 298.401 120.515 297.294 120.515 295.93C120.515 294.566 121.539 293.458 122.802 293.458C124.064 293.458 125.089 294.566 125.089 295.93Z" fill="#D3DDE4"/>
<path d="M126.272 530.159V304.112L474.561 303.383L455.86 535.019L126.271 530.159H126.272Z" fill="#F9F9F9"/>
<path d="M109.319 505.137L130.15 335.281C131.781 321.997 141.234 312.16 152.37 312.16H470.488C483.951 312.16 494.388 326.344 492.789 342.462L476.128 510.276C471.252 545.181 457.854 550.178 438.839 550.178H141.554C121.659 550.178 102.407 545.181 109.319 505.137Z" fill="#20A789"/>
<path d="M47.5869 550.177C47.5869 549.974 178.347 549.812 339.611 549.812C500.932 549.812 631.664 549.974 631.664 550.177C631.664 550.376 500.932 550.539 339.611 550.539C178.347 550.539 47.5869 550.376 47.5869 550.177Z" fill="#2C343A"/>
<path d="M530.661 82.4534C530.596 82.3979 529.836 83.0591 528.663 84.1714C527.489 85.284 525.901 86.848 524.176 88.6011C522.449 90.3539 520.912 91.963 519.82 93.1507C518.729 94.3396 518.084 95.104 518.145 95.1649C518.205 95.2245 518.961 94.5673 520.135 93.4547C521.307 92.3424 522.899 90.7744 524.631 89.0163C526.361 87.2595 527.901 85.645 528.993 84.4574C530.084 83.2697 530.726 82.508 530.661 82.4534Z" fill="#D3DDE4"/>
<path d="M409.167 153.389C409.167 153.389 395.867 141.395 393.947 140.656C392.025 139.918 376.566 139.017 375.492 139.751C374.416 140.484 358.415 148.457 360.954 149.875C363.495 151.295 374.605 145.571 374.605 145.571L376.42 145.884C376.42 145.884 366.747 150.571 364.981 152.453C363.354 154.185 364.756 156.394 366.559 155.64C368.364 154.885 376.679 150.511 377.313 150.716C377.946 150.92 368.425 155.996 367.529 156.97C366.323 158.281 366.962 160.936 368.775 160.249C369.845 159.844 378.656 154.493 378.656 154.493C378.656 154.493 371.959 159.7 371.461 160.573C370.645 162.003 372.05 163.381 373.581 162.523C374.633 161.934 379.216 157.768 380.624 156.984C380.624 156.984 382.149 156.936 384.289 159.403C385.311 160.581 390.72 167.196 395.143 164.259L399.975 168.046L409.167 153.389Z" fill="#F9B299"/>
<path d="M361.001 149.909C361 150.008 362.281 150.14 364.331 149.831C365.351 149.673 366.558 149.392 367.849 148.928C369.095 148.393 370.445 147.77 371.866 147.118C372.911 146.628 373.919 146.156 374.873 145.709L374.679 145.748C379.285 145.977 382.627 146.022 382.641 145.837C382.655 145.651 379.332 145.291 374.72 144.958L374.627 144.951L374.525 144.998C373.574 145.43 372.571 145.888 371.53 146.361C370.15 147.008 368.832 147.625 367.579 148.212C366.349 148.7 365.198 149.03 364.22 149.255C362.257 149.703 360.995 149.78 361.001 149.909Z" fill="#F79570"/>
<path d="M613.708 503.594L621.955 536.335L635.941 560.349C636.95 562.08 636.283 564.302 634.488 565.19C633.482 565.688 632.309 565.674 631.322 565.139C625.041 561.75 602 549.165 601.53 546.736C600.986 543.922 590.539 512.779 590.539 512.779L613.708 503.594Z" fill="#20A789"/>
<path d="M632.876 565.589C633.43 565.589 633.983 565.456 634.486 565.189C634 565.431 633.474 565.551 632.949 565.551C632.389 565.551 631.83 565.414 631.321 565.138C626.577 562.58 612.275 554.775 605.354 550.061H605.23C609.007 552.511 616.749 557.273 631.222 565.168C631.736 565.448 632.306 565.589 632.876 565.589ZM604.75 549.645C603.501 548.77 602.548 548.022 602.011 547.458C602.376 547.999 602.843 548.471 603.391 548.844C603.718 549.065 604.115 549.332 604.591 549.645H604.75ZM601.431 546.321C601.325 545.91 601.151 545.306 600.924 544.545L601.303 545.917C601.34 546.055 601.383 546.188 601.431 546.321Z" fill="white"/>
<path d="M605.231 550.06H605.355C605.146 549.918 604.945 549.779 604.751 549.644H604.592C604.791 549.774 605.004 549.912 605.231 550.06Z" fill="#9DA7AA"/>
<path d="M632.95 565.552C633.475 565.552 634.001 565.431 634.487 565.189L600.922 544.54L600.925 544.545C601.153 545.306 601.326 545.91 601.432 546.322C601.579 546.724 601.774 547.107 602.012 547.459C602.549 548.023 603.502 548.77 604.751 549.645C604.945 549.781 605.147 549.919 605.355 550.062C612.276 554.776 626.579 562.58 631.322 565.139C631.831 565.414 632.39 565.552 632.95 565.552Z" fill="#E1E5E2"/>
<path d="M604.066 536.051C604.897 536.051 605.731 535.483 605.976 534.676C606.255 533.754 605.74 532.679 604.876 532.268C604.659 532.134 604.41 532.073 604.15 532.073C603.364 532.073 602.491 532.623 602.186 533.33C601.78 534.276 602.551 535.646 603.528 535.967C603.702 536.024 603.883 536.051 604.066 536.051Z" fill="#E1E5E2"/>
<path d="M623.12 553.026C623.329 553.065 623.592 551.158 625.273 549.707C626.91 548.205 628.835 548.166 628.82 547.954C628.827 547.867 628.345 547.726 627.553 547.831C626.769 547.928 625.697 548.339 624.78 549.153C623.866 549.969 623.334 550.985 623.145 551.755C622.951 552.527 623.032 553.023 623.12 553.026Z" fill="#2C343A"/>
<path d="M626.644 556.743C626.838 556.841 627.59 555.494 629.14 554.547C630.667 553.565 632.206 553.476 632.202 553.259C632.25 553.066 630.494 552.809 628.746 553.92C626.986 555.008 626.45 556.703 626.644 556.743Z" fill="#2C343A"/>
<path d="M617.266 548.633C617.461 548.746 618.607 546.668 620.887 544.982C623.141 543.263 625.454 542.743 625.401 542.523C625.407 542.334 622.865 542.552 620.442 544.39C618.002 546.204 617.084 548.584 617.266 548.633Z" fill="#2C343A"/>
<path d="M613.926 538.89C614.067 539.06 615.658 537.812 617.972 537.083C620.278 536.319 622.297 536.401 622.31 536.18C622.356 535.994 620.224 535.563 617.745 536.376C615.258 537.168 613.783 538.768 613.926 538.89Z" fill="#2C343A"/>
<path d="M611.262 529.341C611.416 529.502 612.922 527.917 615.423 527.346C617.911 526.72 619.973 527.45 620.036 527.238C620.071 527.153 619.603 526.844 618.732 526.618C617.87 526.389 616.595 526.306 615.25 526.626C613.908 526.95 612.81 527.602 612.144 528.197C611.47 528.794 611.195 529.283 611.262 529.341Z" fill="#2C343A"/>
<path d="M614.863 525.545C614.904 525.533 614.858 525.076 614.567 524.301C614.277 523.533 613.729 522.437 612.698 521.348C612.179 520.84 611.599 520.164 610.572 519.987C610.061 519.895 609.411 520.166 609.144 520.703C608.878 521.228 608.905 521.796 609.036 522.315C609.641 524.371 611.966 525.878 614.37 525.533C616.773 525.144 618.517 523.228 618.948 521.189C619.023 520.67 619.006 520.066 618.601 519.586C618.2 519.1 617.478 519.062 617.034 519.27C616.107 519.683 615.652 520.408 615.199 520.978C614.326 522.189 613.896 523.329 613.678 524.119C613.46 524.917 613.445 525.375 613.488 525.383C613.625 525.436 613.868 523.558 615.617 521.295C616.067 520.761 616.575 520.102 617.253 519.846C617.582 519.718 617.911 519.773 618.107 520.013C618.305 520.239 618.349 520.668 618.274 521.079C617.897 522.754 616.298 524.502 614.261 524.8C612.239 525.111 610.197 523.783 609.694 522.132C609.58 521.734 609.575 521.301 609.722 521.004C609.869 520.713 610.171 520.559 610.505 520.598C611.208 520.678 611.821 521.245 612.326 521.717C614.357 523.728 614.727 525.617 614.863 525.545Z" fill="#2C343A"/>
<path d="M503.326 507.899L505.147 535.405C505.147 535.405 477.781 544.489 477.624 549.606L531.092 549.994L530.012 507.02L503.326 507.899Z" fill="#20A789"/>
<path d="M521.159 536.67C522.089 536.67 523.002 535.961 523.184 535.037C523.379 534.051 522.737 532.99 521.799 532.651C521.609 532.555 521.4 532.513 521.186 532.513C520.323 532.513 519.37 533.21 519.111 534.03C518.786 535.052 519.727 536.395 520.775 536.628C520.901 536.656 521.031 536.67 521.159 536.67Z" fill="#E1E5E2"/>
<path d="M477.625 549.534C477.685 548.789 478.308 547.961 479.331 547.092C479.215 547.145 477.849 547.801 477.432 549.534H477.625Z" fill="white"/>
<path d="M477.347 549.993H531.089L477.62 549.606C477.62 549.581 477.622 549.558 477.624 549.533H477.431C477.397 549.678 477.368 549.832 477.347 549.993Z" fill="#9DA7AA"/>
<path d="M531.089 549.993L531.079 549.564L530.981 545.662L479.338 547.088C479.338 547.088 479.336 547.089 479.33 547.091C478.308 547.961 477.684 548.789 477.625 549.534C477.622 549.558 477.621 549.582 477.621 549.606L531.089 549.993Z" fill="#E1E5E2"/>
<path d="M504.273 535.161C504.29 535.421 505.596 535.499 506.906 536.299C508.237 537.067 508.933 538.178 509.169 538.066C509.408 538.008 508.973 536.458 507.37 535.518C505.776 534.563 504.209 534.922 504.273 535.161Z" fill="#2C343A"/>
<path d="M498.738 537.648C498.686 537.903 499.829 538.312 500.748 539.39C501.7 540.44 501.96 541.628 502.219 541.608C502.466 541.641 502.6 540.108 501.431 538.789C500.274 537.462 498.735 537.399 498.738 537.648Z" fill="#2C343A"/>
<path d="M495.756 544.455C495.995 544.503 496.318 543.189 495.604 541.779C494.901 540.365 493.654 539.838 493.551 540.059C493.41 540.278 494.225 541.021 494.792 542.186C495.387 543.339 495.496 544.436 495.756 544.455Z" fill="#2C343A"/>
<path d="M504.551 528.846C504.669 529.08 505.855 528.684 507.333 528.74C508.812 528.764 509.975 529.226 510.104 528.997C510.249 528.803 509.1 527.871 507.358 527.832C505.617 527.777 504.418 528.644 504.551 528.846Z" fill="#2C343A"/>
<path d="M504.287 523.29C504.287 523.399 505.323 523.528 506.962 523.196C507.778 523.029 508.737 522.732 509.736 522.25C510.235 522.011 510.745 521.724 511.249 521.389C511.49 521.222 511.777 521.054 512.038 520.734C512.319 520.452 512.462 519.755 512.116 519.342C511.829 518.94 511.34 518.777 510.954 518.779C510.56 518.778 510.243 518.869 509.955 518.948C509.364 519.111 508.812 519.325 508.307 519.57C507.301 520.067 506.489 520.678 505.889 521.265C504.685 522.451 504.292 523.439 504.381 523.487C504.502 523.57 505.081 522.734 506.313 521.747C506.929 521.258 507.718 520.744 508.659 520.331C509.131 520.126 509.642 519.946 510.181 519.809C510.744 519.643 511.225 519.625 511.377 519.873C511.433 519.967 511.441 520.006 511.328 520.175C511.209 520.332 510.985 520.488 510.748 520.653C510.285 520.975 509.816 521.258 509.359 521.504C508.44 521.994 507.559 522.337 506.801 522.574C505.284 523.047 504.278 523.149 504.287 523.29Z" fill="#2C343A"/>
<path d="M504.638 523.653C504.733 523.69 505.222 522.739 505.268 521.046C505.285 520.207 505.167 519.194 504.814 518.126C504.633 517.593 504.391 517.053 504.082 516.521C503.753 516.002 503.349 515.307 502.334 515.221C501.804 515.218 501.377 515.644 501.239 516.001C501.072 516.368 501.047 516.679 500.993 516.992C500.914 517.619 500.944 518.231 501.046 518.795C501.249 519.927 501.743 520.86 502.273 521.526C503.359 522.879 504.457 523.159 504.477 523.069C504.561 522.935 503.635 522.459 502.795 521.152C502.382 520.508 502.005 519.653 501.874 518.662C501.805 518.169 501.798 517.644 501.876 517.113C501.943 516.543 502.141 516.079 502.356 516.13C502.621 516.117 503.085 516.531 503.318 516.979C503.606 517.45 503.842 517.932 504.025 518.408C504.389 519.366 504.563 520.287 504.624 521.065C504.744 522.632 504.496 523.618 504.638 523.653Z" fill="#2C343A"/>
<path d="M503.326 268.942L584.794 268.329L624.162 526.991L590.349 531.283L547.018 318.601L534.049 532.04L534.014 532.675L497.449 532.036L503.326 268.942Z" fill="#2C343A"/>
<path d="M544.289 313.033C544.388 313.018 544.26 311.815 544.079 309.876C543.895 307.936 543.683 305.258 543.591 302.292C543.502 299.326 543.554 296.638 543.62 294.691C543.683 292.745 543.737 291.537 543.639 291.526C543.552 291.517 543.331 292.711 543.144 294.661C542.956 296.61 542.828 299.321 542.918 302.312C543.011 305.304 543.3 308 543.605 309.935C543.909 311.87 544.203 313.048 544.289 313.033Z" fill="#335863"/>
<path d="M537.579 292.27C537.591 292.236 537.434 292.12 537.098 292.086C536.767 292.048 536.255 292.139 535.749 292.49C535.267 292.836 534.746 293.47 534.731 294.354C534.698 295.252 535.422 296.117 536.332 296.41C537.231 296.73 538.332 296.485 538.851 295.751C539.377 295.039 539.348 294.22 539.176 293.65C538.987 293.065 538.636 292.682 538.35 292.51C538.061 292.333 537.869 292.33 537.857 292.363C537.792 292.455 538.511 292.747 538.714 293.769C538.808 294.252 538.756 294.897 538.365 295.364C537.994 295.841 537.243 296.007 536.548 295.772C535.853 295.535 535.356 294.949 535.352 294.343C535.326 293.735 535.678 293.191 536.043 292.865C536.825 292.175 537.574 292.381 537.579 292.27Z" fill="#335863"/>
<path d="M558.44 287.064C558.412 287.103 558.677 287.34 559.185 287.743C559.683 288.157 560.479 288.665 561.509 289.201C562.536 289.747 563.838 290.242 565.325 290.644C566.821 291.01 568.508 291.257 570.288 291.27C572.07 291.258 573.757 291.012 575.253 290.648C576.741 290.248 578.042 289.751 579.07 289.206C580.101 288.672 580.897 288.165 581.395 287.751C581.905 287.349 582.168 287.109 582.14 287.073C582.066 286.97 580.931 287.841 578.865 288.777C577.838 289.255 576.556 289.69 575.105 290.045C573.647 290.364 572.013 290.585 570.288 290.597C568.564 290.584 566.931 290.363 565.473 290.041C564.023 289.685 562.741 289.249 561.715 288.77C559.65 287.834 558.515 286.961 558.44 287.064Z" fill="#335863"/>
<path d="M508.012 292.538C507.995 292.613 508.832 292.888 510.245 293.009C511.652 293.135 513.64 293.037 515.731 292.443C517.819 291.844 519.559 290.876 520.689 290.026C521.824 289.177 522.389 288.503 522.335 288.447C522.208 288.269 519.613 290.667 515.546 291.796C511.497 292.985 508.028 292.321 508.012 292.538Z" fill="#335863"/>
<path d="M611.262 529.342C611.268 529.328 611.146 529.176 611.026 528.792C610.905 528.411 610.747 527.839 610.566 527.081C610.201 525.565 609.719 523.314 609.134 520.409C607.967 514.598 606.384 506.165 604.488 495.735C600.691 474.875 595.629 446.024 590.053 414.156C584.448 382.296 579.375 353.457 575.696 332.546C573.814 322.138 572.291 313.702 571.231 307.836C570.689 304.948 570.266 302.692 569.973 301.126C569.825 300.384 569.711 299.805 569.627 299.385C569.546 298.993 569.488 298.795 569.488 298.795C569.488 298.795 569.501 299 569.559 299.395C569.627 299.821 569.719 300.403 569.839 301.149C570.103 302.721 570.485 304.984 570.972 307.882C571.982 313.756 573.434 322.205 575.228 332.629C578.857 353.548 583.86 382.4 589.389 414.273C594.965 446.14 600.103 474.98 604.02 495.822C605.977 506.242 607.631 514.664 608.877 520.462C610.107 526.258 611.015 529.449 611.262 529.342Z" fill="#335863"/>
<path d="M507.433 526.429C507.433 526.429 507.456 526.225 507.468 525.832C507.476 525.408 507.487 524.825 507.501 524.08C507.516 522.508 507.536 520.246 507.564 517.348C507.578 514.426 507.601 510.85 507.673 506.699C507.741 502.548 507.773 497.819 507.914 492.596C508.117 482.147 508.518 469.708 509.119 455.904C509.759 442.1 510.626 426.932 511.802 411.031C513.01 395.127 514.417 379.996 515.842 366.25C517.307 352.509 518.769 340.148 520.125 329.786C520.764 324.6 521.438 319.92 521.991 315.805C522.539 311.69 523.049 308.151 523.472 305.259C523.877 302.39 524.193 300.151 524.413 298.594C524.51 297.854 524.587 297.279 524.642 296.86C524.689 296.468 524.697 296.265 524.697 296.265C524.697 296.265 524.644 296.46 524.574 296.848C524.503 297.266 524.404 297.838 524.279 298.574C524.03 300.126 523.672 302.36 523.213 305.219C522.75 308.107 522.202 311.641 521.619 315.752C521.031 319.864 520.323 324.539 519.653 329.724C518.235 340.082 516.725 352.44 515.225 366.184C513.765 379.933 512.339 395.07 511.131 410.98C509.953 426.89 509.106 442.067 508.498 455.875C507.931 469.688 507.58 482.132 507.438 492.587C507.327 497.813 507.328 502.544 507.297 506.696C507.261 510.849 507.275 514.425 507.302 517.348C507.33 520.246 507.35 522.508 507.366 524.08C507.38 524.827 507.39 525.408 507.399 525.832C507.41 526.225 507.433 526.429 507.433 526.429Z" fill="#335863"/>
<path d="M501.245 235.353C501.25 235.034 501.254 234.698 501.259 234.32L501.245 235.353Z" fill="#20A789"/>
<path d="M505.944 132.005C506.949 131.158 523.788 129.012 523.788 129.012C532.639 128.755 545.999 126.999 555.536 128.012C555.632 128.033 572.784 134.073 585.604 140.497C591.466 144.455 594.649 150.003 596.137 156.557L581.518 238.326V238.372L587.701 275.212C588.656 283.591 557.492 287.342 538.884 288.833C530.322 289.518 521.734 287.957 513.971 284.279L500.84 278.06L500.638 277.861L501.245 235.353L493.546 154.006C492.515 146.769 500.348 136.707 505.944 132.005Z" fill="#20A789"/>
<path d="M522.712 131.246C522.712 131.246 505.372 130.301 496.664 134.579C487.957 138.856 449.575 165.271 449.575 165.271L410.246 150.693L396.328 169.574L430.398 194.41C438.562 199.937 448.976 200.927 458.034 197.037L502.17 179.508L522.712 131.246Z" fill="#20A789"/>
<path d="M495.056 165.047C494.826 165.07 495.915 177.97 497.486 193.858C499.059 209.752 500.519 222.613 500.748 222.59C500.979 222.567 499.89 209.669 498.317 193.775C496.746 177.888 495.285 165.023 495.056 165.047Z" fill="#2C343A"/>
<path d="M585.875 264.336L585.874 264.329V264.336" fill="#A8ABAB"/>
<path d="M515.456 272.533C516.837 272.533 518.244 272.371 519.607 272.204C532.502 270.617 545.399 269.032 558.294 267.445C567.72 266.286 576.451 265.493 585.877 264.334L585.876 264.328L584.984 259.763C581.765 260.074 578.273 260.182 574.569 260.182C572.545 260.182 570.458 260.15 568.318 260.101C560.35 259.878 551.594 259.189 542.491 257.841C541.936 257.757 541.383 257.674 540.873 257.598L540.621 257.56L540.591 257.305C540.317 255.022 540.048 252.767 539.783 250.547C527.514 248.817 515.195 247.246 502.549 245.788C504.959 249.792 504.624 254.787 504.862 259.455C505.101 264.126 506.448 269.404 510.61 271.528C512.109 272.292 513.764 272.533 515.456 272.533Z" fill="#188972"/>
<path d="M562.353 226.349C563.632 226.002 564.837 225.667 565.964 225.348C566.979 225.061 567.93 224.787 568.813 224.529C565.127 209.43 560.213 194.629 554.137 180.322C555.69 195.845 558.44 211.248 562.353 226.349ZM567.356 225.318C567.888 225.184 568.406 225.052 568.911 224.925C568.904 224.898 568.897 224.872 568.891 224.844C568.4 224.999 567.889 225.157 567.356 225.318Z" fill="#188972"/>
<path d="M570.021 162.108C570.221 162.213 571.514 157.931 575.334 154.222C579.097 150.454 583.396 149.222 583.294 149.019C583.274 148.949 582.189 149.145 580.561 149.848C578.936 150.547 576.802 151.835 574.861 153.742C572.928 155.656 571.61 157.771 570.888 159.386C570.162 161.005 569.95 162.088 570.021 162.108Z" fill="#2C343A"/>
<path d="M494.892 151.23C495.077 151.249 495.554 148.209 495.959 144.44C496.362 140.67 496.541 137.598 496.356 137.578C496.171 137.557 495.694 140.597 495.289 144.368C494.886 148.138 494.707 151.21 494.892 151.23Z" fill="#2C343A"/>
<path d="M447.302 183.808C447.372 183.844 447.955 182.926 448.62 181.301C449.286 179.68 449.977 177.331 450.272 174.661C450.559 171.988 450.389 169.544 450.086 167.818C449.786 166.089 449.415 165.067 449.338 165.086C449.12 165.121 450.202 169.346 449.603 174.587C449.061 179.833 447.096 183.726 447.302 183.808Z" fill="#2C343A"/>
<path d="M448.46 187.475C448.56 187.475 448.66 187.463 448.762 187.441C449.4 187.296 449.859 186.742 450.188 186.178C451.077 184.654 451.366 182.859 451.558 181.105C451.909 177.901 451.99 174.669 451.803 171.453C451.677 169.301 451.326 166.942 449.7 165.526L449.695 166.022C449.82 166.476 449.961 167.083 450.088 167.819C450.391 169.545 450.561 171.988 450.274 174.661C449.979 177.331 449.288 179.68 448.622 181.301C447.969 182.895 447.396 183.81 447.308 183.81C447.306 183.81 447.305 183.81 447.304 183.808C447.196 183.767 447.674 182.701 448.232 180.953C448.064 181.337 447.887 181.718 447.698 182.093C447.181 183.123 446.572 184.178 446.602 185.33C446.629 186.377 447.464 187.475 448.46 187.475Z" fill="#188972"/>
<path d="M447.305 183.81C447.393 183.81 447.966 182.895 448.619 181.302C449.285 179.681 449.977 177.331 450.272 174.662C450.559 171.989 450.388 169.545 450.085 167.819C449.959 167.083 449.818 166.476 449.692 166.022L449.687 166.495C450.722 171.308 450.197 176.443 448.23 180.954C447.671 182.702 447.194 183.767 447.301 183.809C447.302 183.81 447.304 183.81 447.305 183.81Z" fill="#011721"/>
<path d="M504.842 133.655C504.823 133.658 504.847 133.97 504.911 134.565C504.985 135.157 505.057 136.041 505.246 137.17C505.578 139.433 506.204 142.71 507.341 146.712C509.571 154.687 514.211 165.647 522.665 175.945L522.824 176.137L523.051 176.038C526.261 174.625 529.586 173.134 532.912 171.452C547.114 164.405 558.978 156.209 567.082 149.748C571.149 146.527 574.285 143.733 576.439 141.793C577.461 140.831 578.271 140.066 578.869 139.503C579.116 139.26 579.319 139.06 579.487 138.895C579.624 138.755 579.69 138.679 579.683 138.67C579.675 138.662 579.593 138.72 579.441 138.844C579.26 138.995 579.042 139.179 578.776 139.403C578.159 139.944 577.321 140.676 576.265 141.598C574.06 143.474 570.883 146.207 566.789 149.373C558.627 155.722 546.765 163.827 532.61 170.849C529.297 172.524 525.985 174.015 522.789 175.43L523.175 175.523C514.77 165.332 510.086 154.492 507.755 146.59C506.567 142.625 505.879 139.376 505.473 137.131C505.251 136.012 505.142 135.135 505.031 134.548C504.926 133.959 504.864 133.653 504.842 133.655Z" fill="#F9F9F9"/>
<path d="M510.931 132.99C510.911 132.997 510.962 133.242 511.075 133.711C511.194 134.178 511.36 134.87 511.613 135.754C512.109 137.527 512.891 140.086 514.015 143.229C516.248 149.511 519.98 158.121 525.565 167.144L525.749 167.439L526.036 167.242C528.021 165.881 530.092 164.46 532.207 163.011C542.338 156.01 551.504 149.672 558.215 145.033C561.477 142.739 564.139 140.867 566.053 139.522C566.926 138.891 567.628 138.384 568.165 137.994C568.643 137.64 568.889 137.444 568.876 137.424C568.861 137.406 568.591 137.563 568.088 137.883C567.532 138.245 566.807 138.717 565.905 139.305C563.96 140.607 561.258 142.42 557.946 144.64C551.205 149.237 541.999 155.517 531.826 162.456C529.714 163.907 527.643 165.33 525.661 166.694L526.13 166.794C520.55 157.831 516.761 149.301 514.425 143.078C513.249 139.966 512.405 137.434 511.841 135.686C511.575 134.861 511.36 134.196 511.193 133.677C511.04 133.221 510.951 132.985 510.931 132.99Z" fill="#F9F9F9"/>
<path d="M415.473 182.497C415.492 182.532 415.867 182.382 416.499 182.019C417.132 181.658 418.003 181.049 418.968 180.164C420.914 178.416 423.072 175.394 424.448 171.643C425.824 167.894 426.338 164.311 426.651 161.75C426.947 159.178 427.035 157.582 426.948 157.571C426.85 157.558 426.595 159.139 426.179 161.683C425.747 164.218 425.162 167.743 423.817 171.408C422.471 175.069 420.447 178.033 418.637 179.822C416.839 181.638 415.404 182.39 415.473 182.497Z" fill="#F9F9F9"/>
<path d="M408.661 178.816C408.695 178.844 408.972 178.581 409.444 178.076C409.918 177.574 410.563 176.812 411.324 175.839C412.847 173.896 414.77 171.055 416.492 167.695C418.206 164.328 419.383 161.106 420.063 158.733C420.406 157.547 420.646 156.577 420.774 155.897C420.908 155.22 420.959 154.841 420.914 154.83C420.812 154.805 420.404 156.271 419.609 158.588C418.818 160.907 417.587 164.062 415.891 167.388C414.19 170.71 412.355 173.556 410.941 175.556C409.529 177.556 408.58 178.746 408.661 178.816Z" fill="#F9F9F9"/>
<path d="M500.478 271.323C500.468 271.346 500.734 271.504 501.254 271.788C501.837 272.096 502.598 272.498 503.543 272.999C504.05 273.26 504.603 273.549 505.206 273.86C505.823 274.157 506.513 274.436 507.245 274.758C508.72 275.375 510.365 276.166 512.283 276.787C513.235 277.122 514.23 277.471 515.266 277.836C516.305 278.193 517.42 278.459 518.555 278.793C520.821 279.497 523.309 279.971 525.915 280.528C531.158 281.463 537.002 282.086 543.156 282.075C549.313 281.998 555.149 281.292 560.379 280.282C562.976 279.687 565.458 279.179 567.713 278.441C568.845 278.093 569.954 277.811 570.99 277.439C572.02 277.06 573.01 276.696 573.957 276.347C575.866 275.7 577.5 274.885 578.965 274.247C579.692 273.915 580.379 273.626 580.99 273.321C581.589 273 582.139 272.705 582.642 272.436C583.579 271.921 584.334 271.509 584.912 271.192C585.428 270.901 585.692 270.737 585.682 270.718C585.67 270.697 585.383 270.821 584.848 271.073C584.256 271.36 583.483 271.735 582.523 272.201C582.014 272.453 581.457 272.731 580.852 273.031C580.234 273.317 579.543 273.587 578.812 273.902C577.339 274.505 575.7 275.286 573.79 275.899C572.845 276.233 571.856 276.582 570.826 276.946C569.794 277.302 568.687 277.569 567.558 277.906C565.311 278.613 562.841 279.1 560.257 279.673C555.056 280.643 549.263 281.325 543.151 281.401C537.042 281.41 531.241 280.813 526.027 279.917C523.436 279.381 520.959 278.929 518.703 278.254C517.57 277.934 516.459 277.682 515.422 277.341C514.388 276.992 513.393 276.657 512.443 276.336C510.525 275.75 508.875 274.994 507.394 274.411C506.658 274.107 505.962 273.846 505.34 273.569C504.731 273.277 504.171 273.008 503.658 272.763C502.692 272.311 501.914 271.947 501.317 271.666C500.778 271.422 500.49 271.304 500.478 271.323Z" fill="#F9F9F9"/>
<path d="M513.946 266.351L567.171 253.112C569.758 252.468 571.332 249.849 570.689 247.263L552.856 175.519C552.213 172.933 549.596 171.357 547.011 172L509.791 181.258L494.111 206.55L508.1 262.832C508.742 265.419 511.36 266.994 513.946 266.351Z" fill="#335863"/>
<path d="M509.749 181.085L513.294 195.342C514.169 198.867 512.024 202.434 508.5 203.311L494.111 206.549L509.749 181.085Z" fill="#284C51"/>
<path d="M518.411 250.19C518.419 250.177 518.372 249.945 518.276 249.511C518.166 249.033 518.022 248.403 517.838 247.605C517.434 245.906 516.863 243.5 516.143 240.46C514.652 234.312 512.544 225.609 510.014 215.175L509.797 215.537C520.331 212.933 532.797 209.849 546.116 206.554C546.212 206.607 545.323 206.075 545.7 206.306L545.703 206.315L545.707 206.334L545.716 206.37L545.734 206.445L545.771 206.595L545.846 206.894L545.995 207.49L546.291 208.68C546.488 209.472 546.683 210.26 546.878 211.045C547.27 212.615 547.657 214.169 548.041 215.709C548.808 218.787 549.56 221.799 550.292 224.732C551.761 230.594 553.15 236.133 554.428 241.231L554.649 240.864C543.861 243.613 534.843 245.911 528.466 247.535C525.32 248.353 522.828 249 521.068 249.458C520.244 249.678 519.593 249.852 519.103 249.983C518.654 250.106 518.419 250.177 518.411 250.19C518.401 250.204 518.621 250.161 519.053 250.066C519.534 249.956 520.172 249.808 520.98 249.623C522.732 249.207 525.215 248.617 528.35 247.872C534.791 246.308 543.899 244.097 554.795 241.453L555.089 241.381L555.015 241.085C553.758 235.982 552.391 230.436 550.945 224.57C550.219 221.636 549.472 218.622 548.711 215.542C548.328 214.003 547.943 212.448 547.553 210.877C547.358 210.093 547.163 209.304 546.966 208.512L546.67 207.322L546.521 206.726L546.448 206.427L546.41 206.277L546.392 206.202L546.382 206.166L546.378 206.146L546.375 206.137C546.751 206.361 545.86 205.82 545.948 205.877C532.637 209.207 520.178 212.324 509.652 214.957L509.361 215.03L509.435 215.32C512.104 225.799 514.331 234.541 515.905 240.716C516.683 243.711 517.3 246.083 517.736 247.758C517.94 248.525 518.103 249.132 518.226 249.59C518.34 250 518.401 250.204 518.411 250.19Z" fill="white"/>
<path d="M537.013 246.003C537.201 245.956 535.407 238.095 533.01 228.448C530.611 218.796 528.516 211.012 528.328 211.059C528.142 211.105 529.934 218.964 532.335 228.616C534.732 238.263 536.827 246.048 537.013 246.003Z" fill="white"/>
<path d="M516.42 241.59C516.466 241.777 524.664 239.898 534.727 237.395C544.794 234.892 552.915 232.711 552.87 232.524C552.822 232.338 544.627 234.215 534.559 236.72C524.495 239.223 516.373 241.404 516.42 241.59Z" fill="white"/>
<path d="M513.789 232.786C513.837 232.972 522.033 231.094 532.098 228.591C542.165 226.086 550.286 223.906 550.239 223.719C550.193 223.533 541.997 225.411 531.929 227.915C521.866 230.417 513.744 232.598 513.789 232.786Z" fill="white"/>
<path d="M511.854 223.808C511.899 223.994 520.036 222.131 530.023 219.648C540.014 217.162 548.074 214.997 548.026 214.811C547.981 214.624 539.846 216.487 529.855 218.972C519.868 221.456 511.808 223.622 511.854 223.808Z" fill="white"/>
<path d="M540.568 233.904L531.46 232.902C531.46 232.902 527.714 226.684 525.253 224.516C522.791 222.346 510.074 216.257 510.074 216.257C510.074 216.257 508.211 218.485 510.074 220.723C510.909 221.726 516.923 225.112 516.923 225.112C517.637 227.588 515.501 229.951 512.966 229.486C509.242 228.803 504.904 228.029 504.332 228.029C503.693 228.029 499.974 224.509 497.244 221.839C495.607 220.239 492.687 221.768 493.338 223.964C493.405 224.192 493.511 224.381 493.664 224.516C493.664 224.516 489.741 224.376 493.242 229.653C493.242 229.653 492.434 234.525 495.305 236.757C495.305 236.757 496.545 242.643 498.391 244.673C500.237 246.703 518.274 250.559 518.274 250.559L544.139 253.693L540.568 233.904Z" fill="#F9B299"/>
<path d="M511.355 235.074C511.348 235.181 510.122 235.252 508.128 235.152C506.161 235.022 503.288 234.75 500.544 233.16C497.816 231.515 496.26 229.054 495.261 227.359C494.274 225.622 493.793 224.49 493.885 224.438C493.992 224.375 494.66 225.414 495.76 227.046C496.871 228.644 498.454 230.935 500.968 232.444C503.502 233.919 506.253 234.293 508.182 234.566C510.136 234.813 511.362 234.951 511.355 235.074Z" fill="#F79570"/>
<path d="M509.495 239.257C509.515 239.366 508.377 239.618 506.549 239.487C505.636 239.427 504.554 239.29 503.368 239.024C502.2 238.729 500.859 238.405 499.65 237.507C498.496 236.623 497.65 235.587 496.885 234.665C496.199 233.81 495.539 232.988 494.901 232.192C493.785 230.773 493.139 229.857 493.226 229.782C493.314 229.707 494.118 230.487 495.349 231.81C495.962 232.468 496.693 233.269 497.471 234.169C498.255 235.053 499.109 236.047 500.149 236.841C501.163 237.606 502.435 237.961 503.552 238.279C504.685 238.574 505.73 238.768 506.611 238.901C508.376 239.177 509.479 239.138 509.495 239.257Z" fill="#F79570"/>
<path d="M506.961 243.904C506.907 244.238 503.683 243.558 499.872 242.493C499.238 242.354 498.845 241.95 498.476 241.648C498.109 241.32 497.786 240.983 497.495 240.65C496.911 239.985 496.447 239.337 496.101 238.765C495.402 237.62 495.208 236.791 495.307 236.757C495.423 236.711 495.795 237.42 496.586 238.431C496.978 238.938 497.472 239.523 498.059 240.13C498.351 240.434 498.669 240.742 499.012 241.033C499.361 241.312 499.709 241.628 500.074 241.685C502.021 242.209 503.727 242.756 504.974 243.157C506.218 243.573 506.961 243.813 506.961 243.904Z" fill="#F79570"/>
<path d="M577.428 222.762L569.17 178.067L569.162 178.032C569.067 177.311 573.993 157.741 595.894 155.564L605.781 189.186C608.326 199.783 612.194 214.568 613.887 233.844C614.939 245.821 603.427 256.874 589.982 258.739C589.802 258.764 589.621 258.794 589.437 258.817C566.414 261.637 544.24 257.957 541.19 257.156L537.959 232.714C537.697 232.857 577.428 222.762 577.428 222.762Z" fill="#20A789"/>
<path d="M599.049 227.292C599.068 227.288 599.043 227.101 598.977 226.741C598.918 226.382 598.782 225.857 598.544 225.199C598.071 223.895 597.126 222.009 595.251 220.236C593.409 218.487 590.524 216.851 586.986 216.768C583.514 216.654 579.484 218.029 576.687 221.191L577.259 221.357C576.854 218.679 576.425 215.85 575.985 212.94C574.419 202.916 573.002 193.846 571.96 187.169C571.423 183.945 570.985 181.304 570.662 179.372C570.506 178.514 570.379 177.813 570.277 177.257C570.181 176.775 570.119 176.522 570.097 176.526C570.074 176.53 570.091 176.789 570.142 177.278C570.211 177.84 570.298 178.544 570.404 179.411C570.673 181.352 571.04 184.004 571.489 187.242C572.482 193.926 573.829 203.006 575.319 213.041C575.767 215.95 576.2 218.779 576.611 221.456L576.717 222.152L577.182 221.621C579.811 218.619 583.652 217.263 586.973 217.336C590.35 217.375 593.139 218.891 594.965 220.545C596.822 222.221 597.803 224.026 598.333 225.281C598.859 226.553 598.99 227.305 599.049 227.292Z" fill="#2C343A"/>
<path d="M576.715 222.157C576.708 222.141 576.459 222.207 575.982 222.35C575.459 222.512 574.763 222.727 573.884 223C572.053 223.571 569.37 224.384 565.962 225.348C559.146 227.282 549.415 229.763 537.89 232.412L537.62 232.475L537.654 232.75C538.555 240.295 539.546 248.591 540.589 257.306L540.619 257.561L540.871 257.599C541.382 257.675 541.934 257.758 542.489 257.842C551.593 259.19 560.349 259.879 568.316 260.102C576.275 260.288 583.496 260.231 589.466 259.16C595.44 258.138 600.012 256.043 602.728 254.026C603.413 253.529 604.012 253.075 604.484 252.623C604.974 252.194 605.382 251.825 605.67 251.484C605.947 251.18 606.169 250.932 606.349 250.735C606.499 250.562 606.571 250.472 606.562 250.464C606.553 250.456 606.464 250.533 606.298 250.688C606.107 250.873 605.869 251.103 605.574 251.388C605.272 251.711 604.853 252.062 604.353 252.471C603.872 252.904 603.267 253.336 602.578 253.811C599.845 255.738 595.313 257.737 589.385 258.691C583.466 259.692 576.278 259.701 568.335 259.481C560.39 259.225 551.664 258.52 542.587 257.176C542.035 257.093 541.483 257.01 540.974 256.934L541.257 257.226C540.195 248.512 539.186 240.219 538.267 232.676L538.03 233.016C549.551 230.314 559.273 227.748 566.066 225.708C569.464 224.691 572.133 223.82 573.946 223.189C574.855 222.881 575.547 222.621 576.014 222.448C576.481 222.272 576.719 222.173 576.715 222.157Z" fill="#2C343A"/>
<mask id="mask0_72_12314" style="mask-type:luminance" maskUnits="userSpaceOnUse" x="577" y="220" width="14" height="17">
<path d="M588.161 236.394C588.319 236.394 588.48 236.376 588.637 236.338C589.531 236.119 590.18 235.288 590.409 234.398C590.639 233.507 590.512 232.562 590.303 231.667C589.307 227.401 586.35 223.635 582.443 221.655C581.34 221.097 580.08 220.682 578.863 220.682C578.58 220.682 578.3 220.704 578.024 220.753C577.745 221.014 577.475 221.291 577.216 221.583C580.711 224.032 583.352 227.68 584.582 231.77C584.908 232.855 585.148 233.993 585.773 234.939C586.306 235.749 587.219 236.394 588.161 236.394Z" fill="white"/>
</mask>
<g mask="url(#mask0_72_12314)">
<path d="M590.636 220.682H577.213V236.394H590.636V220.682Z" fill="#188972"/>
</g>
<path d="M577.213 221.583C577.472 221.291 577.742 221.014 578.021 220.753C577.63 220.821 577.247 220.942 576.881 221.125L576.941 221.397C577.032 221.458 577.123 221.52 577.213 221.583Z" fill="#011721"/>
<path d="M560.884 258.609C560.929 258.619 561.073 258.204 561.295 257.438C561.525 256.676 561.781 255.548 562.024 254.144C562.516 251.337 562.812 247.366 562.367 243.02C561.911 238.676 560.806 234.849 559.748 232.204C559.223 230.878 558.742 229.829 558.359 229.129C557.986 228.425 557.759 228.047 557.718 228.068C557.615 228.119 558.374 229.703 559.302 232.37C560.235 235.029 561.247 238.811 561.697 243.09C562.134 247.369 561.92 251.278 561.552 254.073C561.19 256.873 560.771 258.58 560.884 258.609Z" fill="#F9F9F9"/>
<path d="M551.971 258.759C551.968 258.787 552.458 258.71 552.97 258.067C553.486 257.434 553.811 256.279 553.908 254.903C554.164 252.164 554.304 248.346 553.957 244.152C553.623 239.957 552.899 236.205 552.202 233.543C551.861 232.21 551.532 231.146 551.285 230.417C551.033 229.691 550.873 229.296 550.828 229.309C550.728 229.339 551.17 230.978 551.739 233.652C552.312 236.324 552.955 240.05 553.286 244.205C553.63 248.359 553.565 252.139 553.433 254.869C553.396 256.226 553.158 257.298 552.756 257.917C552.361 258.54 551.934 258.703 551.971 258.759Z" fill="#F9F9F9"/>
<path d="M557.219 78.9834L555.461 130.163C555.161 138.891 547.854 145.729 539.127 145.447C530.762 145.176 524.052 138.434 523.817 130.064C523.687 125.48 523.598 121.657 523.598 121.657C523.598 121.657 510.86 120.29 510.107 107.649C509.743 101.556 510.013 88.9614 510.392 77.55C510.815 64.7766 521.296 54.6445 534.071 54.6445C547.262 54.7908 557.729 65.7984 557.219 78.9834Z" fill="#F9B299"/>
<path d="M523.585 121.69C523.585 121.69 531.607 121.961 539.846 116.223C539.846 116.223 536.38 125.509 523.711 124.968L523.585 121.69Z" fill="#F79570"/>
<path d="M514.549 86.3606C514.56 87.3152 515.377 88.094 516.374 88.1003C517.37 88.1057 518.171 87.3399 518.159 86.3837C518.147 85.4278 517.33 84.649 516.334 84.6426C515.336 84.6359 514.537 85.4043 514.549 86.3606Z" fill="#2C343A"/>
<path d="M513.421 83.7569C513.656 83.9806 514.975 82.9031 516.919 82.8164C518.858 82.7026 520.331 83.634 520.53 83.3869C520.629 83.2758 520.382 82.8616 519.739 82.4387C519.107 82.0182 518.044 81.6288 516.833 81.6924C515.623 81.7557 514.627 82.2499 514.064 82.7337C513.488 83.2202 513.306 83.6561 513.421 83.7569Z" fill="#2C343A"/>
<path d="M532.957 86.2981C532.968 87.2543 533.787 88.0318 534.784 88.0381C535.779 88.0445 536.579 87.2774 536.568 86.3215C536.557 85.3666 535.738 84.5868 534.742 84.5801C533.745 84.5738 532.945 85.3435 532.957 86.2981Z" fill="#2C343A"/>
<path d="M532.535 83.2156C532.77 83.4406 534.092 82.3632 536.034 82.2765C537.973 82.1626 539.447 83.0941 539.646 82.8457C539.744 82.7358 539.499 82.3217 538.853 81.8988C538.221 81.4769 537.158 81.0889 535.949 81.1511C534.739 81.2158 533.742 81.7099 533.178 82.1938C532.604 82.6803 532.421 83.1149 532.535 83.2156Z" fill="#2C343A"/>
<path d="M526.166 97.9612C526.17 97.8514 524.952 97.7001 522.984 97.5424C522.486 97.5139 522.011 97.4376 521.912 97.1024C521.777 96.7492 521.959 96.2058 522.173 95.6161C522.583 94.3934 523.011 93.1113 523.461 91.7674C525.244 86.2914 526.509 81.7971 526.289 81.7274C526.068 81.6561 524.442 86.0392 522.66 91.5163C522.232 92.8669 521.822 94.1543 521.434 95.3844C521.274 95.9577 520.98 96.6132 521.269 97.3442C521.42 97.7091 521.796 97.9612 522.118 98.0326C522.442 98.1139 522.721 98.1062 522.967 98.1089C524.941 98.1219 526.163 98.0727 526.166 97.9612Z" fill="#2C343A"/>
<path d="M531.946 99.0367C531.629 99.033 531.726 101.143 529.991 102.725C528.26 104.313 526.001 104.183 525.999 104.479C525.975 104.612 526.519 104.865 527.469 104.845C528.402 104.833 529.746 104.47 530.807 103.501C531.864 102.531 532.281 101.283 532.312 100.414C532.349 99.5282 532.09 99.0172 531.946 99.0367Z" fill="#2C343A"/>
<path d="M531.675 75.622C531.891 76.1419 533.819 75.8004 536.112 75.9675C538.407 76.0877 540.277 76.6686 540.556 76.1808C540.681 75.9467 540.336 75.4643 539.57 74.9881C538.809 74.5134 537.61 74.0824 536.234 73.9947C534.859 73.9103 533.616 74.1872 532.803 74.5639C531.981 74.9416 531.581 75.3762 531.675 75.622Z" fill="#2C343A"/>
<path d="M513.869 78.0971C514.231 78.5227 515.548 78.0014 517.157 77.9033C518.761 77.7492 520.142 78.0596 520.434 77.5825C520.561 77.3521 520.326 76.9199 519.711 76.5305C519.104 76.1411 518.107 75.8474 517.003 75.9328C515.898 76.0209 514.959 76.4659 514.42 76.9447C513.873 77.4258 513.707 77.8888 513.869 78.0971Z" fill="#2C343A"/>
<path d="M542.854 65.977L542.926 66.0289C545.013 67.5242 546.454 69.7622 546.927 72.2874L546.974 72.5412C547.64 76.1245 547.724 79.7985 548.423 83.3767C549.123 86.9536 550.544 90.5589 553.323 92.9161C554.466 93.8851 556.437 94.4958 557.282 93.2563C557.607 92.7778 557.636 92.1617 557.653 91.5825C557.915 82.84 559.929 75.0005 559.481 65.893C559.36 63.413 558.083 61.1429 556 59.7935C554.029 58.5179 551.634 57.2114 549.564 58.3136C547.487 59.4196 544.936 63.5154 543.374 65.2732" fill="#2C343A"/>
<path d="M553.243 85.121C553.454 85.0176 561.808 82.1405 561.941 90.7989C562.074 99.4588 553.355 97.8054 553.337 97.557C553.318 97.3099 553.243 85.121 553.243 85.121Z" fill="#F9B299"/>
<path d="M555.93 94.2355C555.968 94.2071 556.081 94.339 556.339 94.4528C556.589 94.5616 557.018 94.634 557.466 94.4578C558.375 94.1073 559.123 92.6444 559.141 91.0828C559.151 90.2937 558.974 89.546 558.686 88.9289C558.412 88.3001 557.995 87.8629 557.534 87.7892C557.074 87.6898 556.752 87.9703 556.65 88.2161C556.538 88.4595 556.596 88.6313 556.551 88.647C556.526 88.6688 556.362 88.5047 556.427 88.1461C556.459 87.9744 556.559 87.7684 556.758 87.599C556.965 87.4256 557.267 87.3352 557.589 87.365C558.258 87.4011 558.868 88.0065 559.185 88.6832C559.539 89.3635 559.757 90.2033 559.745 91.0892C559.715 92.8356 558.849 94.4813 557.602 94.863C556.996 95.0311 556.485 94.8553 556.22 94.6547C555.948 94.4451 555.9 94.2523 555.93 94.2355Z" fill="#F79570"/>
<path d="M550.87 60.9684C553.363 57.7562 548.1 52.1794 544 50.3774C539.9 48.5754 534.082 50.0345 529.704 50.975C526.942 51.5687 524.15 52.5132 521.357 52.09C519.483 51.8067 517.763 50.9272 516.055 50.1045C514.348 49.2828 512.565 48.4937 510.672 48.4173C508.778 48.3397 506.734 49.1288 505.832 50.7952C504.928 52.4613 505.689 54.9621 507.525 55.4251C505.288 53.8558 501.657 55.2001 500.977 57.8482C500.295 60.495 502.827 63.4237 505.546 63.1327C504.424 62.072 502.381 63.3993 502.364 64.9438C502.349 66.487 503.614 67.7509 504.951 68.522C508.366 70.4898 512.602 70.4432 516.453 69.5985C520.302 68.7537 523.958 67.1831 527.785 66.2412C531.612 65.3007 538.04 63.566 541.592 65.2722C544.209 66.5285 545.745 70.0136 547.359 69.4575C548.919 68.9205 550.032 67.4677 550.503 65.8856C550.977 64.3036 550.925 62.6191 550.87 60.9684Z" fill="#2C343A"/>
<path d="M507.985 56.0524C507.994 56.0718 507.824 56.1324 507.552 56.3239C507.279 56.5091 506.915 56.8633 506.666 57.4442C506.416 58.0148 506.286 58.8143 506.48 59.6849C506.649 60.5608 507.26 61.443 508.214 62.0407C509.163 62.6397 510.397 62.9604 511.723 63.0006C513.051 63.02 514.482 62.8221 515.92 62.3885C518.822 61.5491 521.703 59.8298 524.733 58.0847C527.768 56.3474 530.87 54.8802 533.942 54.5092C535.468 54.3381 536.953 54.4054 538.275 54.7767C539.6 55.13 540.753 55.7172 541.696 56.3912C543.591 57.7483 544.684 59.3524 545.231 60.5129C545.788 61.6824 545.898 62.3952 545.898 62.3952C545.858 62.4106 545.694 61.7095 545.105 60.5762C544.529 59.4495 543.422 57.8996 541.551 56.6008C540.62 55.9539 539.489 55.3951 538.2 55.0653C536.916 54.7171 535.469 54.6615 533.983 54.8376C530.989 55.2167 527.932 56.6654 524.911 58.3965C521.888 60.1365 518.975 61.8672 516.013 62.707C514.542 63.1389 513.082 63.3317 511.712 63.2993C510.347 63.2437 509.067 62.8985 508.076 62.2539C507.586 61.9295 507.173 61.5374 506.864 61.1015C506.555 60.6629 506.377 60.1831 506.282 59.7264C506.099 58.8066 506.258 57.9746 506.54 57.3873C506.818 56.7883 507.218 56.4341 507.512 56.2633C507.806 56.0859 507.985 56.0524 507.985 56.0524Z" fill="#335863"/>
<path d="M538.57 51.68C538.571 51.6579 538.77 51.6425 539.131 51.6629C539.49 51.6836 540.01 51.7573 540.635 51.9321C541.876 52.2682 543.555 53.1157 544.84 54.6565C546.124 56.1997 546.655 58.0044 546.762 59.2851C546.82 59.932 546.799 60.4573 546.754 60.8142C546.71 61.1725 546.658 61.3667 546.638 61.3627C546.571 61.359 546.688 60.5658 546.51 59.3162C546.34 58.0771 545.792 56.3628 544.563 54.8869C543.335 53.4133 541.747 52.5632 540.56 52.1738C539.362 51.773 538.563 51.7459 538.57 51.68Z" fill="#335863"/>
<path d="M559.3 73.8635C559.307 73.8765 559.07 74.0085 558.596 74.0627C558.125 74.121 557.405 74.0383 556.644 73.6385C555.881 73.2531 555.104 72.5145 554.578 71.517C554.031 70.5273 553.7 69.3357 553.389 68.1082C553.079 66.8804 552.754 65.7213 552.234 64.7771C551.734 63.8222 551.016 63.1378 550.301 62.7601C549.589 62.3747 548.918 62.2776 548.467 62.3061C548.014 62.3295 547.768 62.4213 547.758 62.3888C547.75 62.3761 547.981 62.2361 548.455 62.1665C548.923 62.0915 549.647 62.1534 550.418 62.5351C551.19 62.9011 551.985 63.6243 552.524 64.6154C553.084 65.5984 553.426 66.79 553.737 68.0188C554.047 69.2466 554.363 70.4081 554.869 71.3604C555.357 72.3216 556.058 73.0201 556.766 73.4162C557.468 73.8196 558.136 73.9375 558.587 73.9231C559.042 73.914 559.29 73.8313 559.3 73.8635Z" fill="#335863"/>
<path d="M558.849 79.585C558.851 79.5981 558.777 79.6175 558.637 79.6446C558.496 79.6704 558.287 79.7132 558.013 79.7263C557.47 79.7701 556.667 79.7624 555.708 79.5475C553.8 79.1571 551.232 77.791 549.522 75.2862C547.791 72.8089 547.182 70.0767 546.975 68.1559C546.922 67.6707 546.892 67.2411 546.776 66.8879C546.67 66.5336 546.477 66.2762 546.275 66.1131C545.863 65.782 545.523 65.871 545.53 65.8349C545.508 65.8258 545.868 65.6718 546.359 66.0006C546.593 66.1596 546.833 66.4442 546.966 66.8233C547.109 67.1996 547.159 67.6499 547.226 68.1247C547.493 70.0134 548.135 72.676 549.816 75.0793C551.474 77.5061 553.925 78.8554 555.766 79.3004C557.632 79.7728 558.849 79.4999 558.849 79.585Z" fill="#335863"/>
<path d="M383.258 231.59L297.414 237.223C291.481 237.613 286.355 233.117 285.967 227.184L278.175 108.317C277.786 102.382 282.279 97.2575 288.211 96.8661L342.655 93.2959L387.646 133.981L393.294 220.139C393.683 226.074 389.191 231.201 383.258 231.59Z" fill="white"/>
<path d="M342.655 93.2959L344.85 126.749C345.208 132.267 349.975 136.449 355.492 136.087L387.646 133.981L342.655 93.2959Z" fill="#ECECEC"/>
<path d="M345.478 129.657C345.478 129.657 345.587 137.796 354.994 139.858C355.35 139.935 355.711 139.987 356.07 140.028C360.317 140.501 388.276 143.607 388.236 142.974C388.189 142.286 387.646 133.981 387.646 133.981L355.492 136.092C355.492 136.092 347.445 136.346 345.478 129.657Z" fill="#D9D1D1"/>
<path d="M392.476 146.729C392.46 146.674 391.907 146.77 390.92 146.992C389.932 147.212 388.51 147.558 386.757 148.002C384.937 148.476 382.869 149.015 380.612 149.603C380.033 149.759 379.441 149.917 378.839 150.078C378.288 150.271 377.484 150.279 376.927 151.117C376.669 151.548 376.795 152.16 377.091 152.482C377.372 152.819 377.709 153.016 378.058 153.17C378.735 153.425 379.414 153.62 380.128 153.718C382.982 154.122 385.608 153.562 387.947 153.606C389.117 153.61 390.218 153.735 391.19 154.045C392.164 154.35 393.041 154.814 393.894 155.158C395.581 155.936 397.284 155.881 398.216 155.363C399.183 154.854 399.353 154.195 399.317 154.204C399.253 154.149 398.989 154.706 398.085 155.068C397.185 155.442 395.718 155.425 394.126 154.621C393.317 154.258 392.452 153.756 391.405 153.391C390.356 153.026 389.177 152.867 387.959 152.843C385.524 152.764 382.892 153.284 380.253 152.899C379.597 152.812 378.962 152.624 378.381 152.411C377.823 152.186 377.453 151.761 377.643 151.497C377.806 151.178 378.449 151 379.05 150.841C379.649 150.671 380.239 150.504 380.815 150.339C383.055 149.689 385.106 149.091 386.912 148.567C388.645 148.05 390.043 147.619 391.005 147.302C391.966 146.986 392.491 146.785 392.476 146.729Z" fill="#F79570"/>
<path d="M399.314 154.203C398.574 155.469 396.814 155.743 395.394 155.381C393.973 155.02 392.716 154.188 391.326 153.726C387.166 152.343 382.396 154.408 378.308 152.827C377.739 152.607 377.105 152.157 377.199 151.553C377.286 150.992 377.93 150.738 378.477 150.588C383.143 149.302 387.808 148.015 392.473 146.729" fill="#F9B299"/>
<g filter="url(#filter1_dd_72_12314)">
<rect x="94.8257" y="201.724" width="96" height="40" rx="4" fill="#545F72"/>
<path d="M109.238 227.85C108.938 227.85 108.704 227.766 108.536 227.598C108.38 227.43 108.302 227.196 108.302 226.896V215.988C108.302 215.676 108.386 215.442 108.554 215.286C108.722 215.118 108.956 215.034 109.256 215.034H113.558C114.926 215.034 115.982 215.376 116.726 216.06C117.47 216.732 117.842 217.68 117.842 218.904C117.842 220.14 117.47 221.1 116.726 221.784C115.982 222.456 114.926 222.792 113.558 222.792H110.174V226.896C110.174 227.196 110.096 227.43 109.94 227.598C109.784 227.766 109.55 227.85 109.238 227.85ZM110.174 221.298H113.288C114.188 221.298 114.866 221.1 115.322 220.704C115.79 220.296 116.024 219.696 116.024 218.904C116.024 218.124 115.79 217.536 115.322 217.14C114.866 216.732 114.188 216.528 113.288 216.528H110.174V221.298ZM120.395 227.85C120.095 227.85 119.867 227.772 119.711 227.616C119.555 227.448 119.477 227.22 119.477 226.932V219.732C119.477 219.432 119.555 219.204 119.711 219.048C119.867 218.892 120.083 218.814 120.359 218.814C120.647 218.814 120.863 218.892 121.007 219.048C121.163 219.204 121.241 219.432 121.241 219.732V221.046H121.061C121.253 220.326 121.607 219.78 122.123 219.408C122.639 219.036 123.299 218.82 124.103 218.76C124.319 218.748 124.487 218.802 124.607 218.922C124.739 219.042 124.811 219.228 124.823 219.48C124.847 219.732 124.793 219.936 124.661 220.092C124.529 220.236 124.325 220.32 124.049 220.344L123.707 220.38C122.927 220.452 122.333 220.698 121.925 221.118C121.517 221.538 121.313 222.114 121.313 222.846V226.932C121.313 227.22 121.235 227.448 121.079 227.616C120.935 227.772 120.707 227.85 120.395 227.85ZM129.885 227.886C128.997 227.886 128.229 227.7 127.581 227.328C126.945 226.956 126.447 226.428 126.087 225.744C125.727 225.06 125.547 224.256 125.547 223.332C125.547 222.624 125.649 221.994 125.853 221.442C126.057 220.89 126.345 220.416 126.717 220.02C127.101 219.612 127.557 219.306 128.085 219.102C128.625 218.886 129.225 218.778 129.885 218.778C130.761 218.778 131.517 218.964 132.153 219.336C132.801 219.708 133.305 220.236 133.665 220.92C134.025 221.592 134.205 222.396 134.205 223.332C134.205 224.028 134.103 224.658 133.899 225.222C133.695 225.786 133.401 226.266 133.017 226.662C132.645 227.058 132.189 227.364 131.649 227.58C131.121 227.784 130.533 227.886 129.885 227.886ZM129.885 226.482C130.377 226.482 130.809 226.362 131.181 226.122C131.553 225.882 131.841 225.528 132.045 225.06C132.261 224.592 132.369 224.016 132.369 223.332C132.369 222.3 132.141 221.52 131.685 220.992C131.229 220.464 130.629 220.2 129.885 220.2C129.381 220.2 128.943 220.32 128.571 220.56C128.199 220.788 127.905 221.136 127.689 221.604C127.485 222.072 127.383 222.648 127.383 223.332C127.383 224.352 127.611 225.132 128.067 225.672C128.523 226.212 129.129 226.482 129.885 226.482ZM138.158 231.09C137.942 231.09 137.762 231.03 137.618 230.91C137.486 230.802 137.408 230.652 137.384 230.46C137.372 230.28 137.408 230.082 137.492 229.866L138.716 227.112V227.886L135.35 220.056C135.266 219.84 135.236 219.636 135.26 219.444C135.284 219.252 135.374 219.102 135.53 218.994C135.686 218.874 135.896 218.814 136.16 218.814C136.388 218.814 136.568 218.868 136.7 218.976C136.832 219.084 136.952 219.27 137.06 219.534L139.778 226.248H139.274L142.028 219.534C142.136 219.258 142.262 219.072 142.406 218.976C142.55 218.868 142.748 218.814 143 218.814C143.216 218.814 143.384 218.874 143.504 218.994C143.636 219.102 143.714 219.252 143.738 219.444C143.774 219.624 143.744 219.822 143.648 220.038L139.148 230.388C139.028 230.664 138.89 230.85 138.734 230.946C138.59 231.042 138.398 231.09 138.158 231.09ZM149.403 227.886C148.443 227.886 147.615 227.706 146.919 227.346C146.235 226.974 145.701 226.452 145.317 225.78C144.945 225.096 144.759 224.286 144.759 223.35C144.759 222.438 144.945 221.64 145.317 220.956C145.689 220.272 146.199 219.738 146.847 219.354C147.495 218.97 148.233 218.778 149.061 218.778C149.673 218.778 150.219 218.88 150.699 219.084C151.179 219.276 151.587 219.564 151.923 219.948C152.271 220.32 152.529 220.776 152.697 221.316C152.877 221.856 152.967 222.462 152.967 223.134C152.967 223.338 152.907 223.494 152.787 223.602C152.667 223.698 152.487 223.746 152.247 223.746H146.199V222.63H151.743L151.437 222.882C151.437 222.282 151.347 221.772 151.167 221.352C150.999 220.932 150.741 220.614 150.393 220.398C150.057 220.17 149.637 220.056 149.133 220.056C148.569 220.056 148.089 220.188 147.693 220.452C147.309 220.716 147.015 221.082 146.811 221.55C146.607 222.018 146.505 222.564 146.505 223.188V223.296C146.505 224.352 146.751 225.15 147.243 225.69C147.747 226.218 148.473 226.482 149.421 226.482C149.781 226.482 150.159 226.434 150.555 226.338C150.963 226.242 151.347 226.08 151.707 225.852C151.911 225.732 152.091 225.678 152.247 225.69C152.415 225.702 152.547 225.756 152.643 225.852C152.751 225.948 152.817 226.068 152.841 226.212C152.865 226.356 152.841 226.506 152.769 226.662C152.697 226.806 152.571 226.938 152.391 227.058C151.983 227.334 151.509 227.544 150.969 227.688C150.429 227.82 149.907 227.886 149.403 227.886ZM158.819 227.886C157.919 227.886 157.139 227.7 156.479 227.328C155.831 226.944 155.327 226.41 154.967 225.726C154.607 225.03 154.427 224.214 154.427 223.278C154.427 222.582 154.529 221.958 154.733 221.406C154.937 220.842 155.225 220.368 155.597 219.984C155.981 219.6 156.443 219.306 156.983 219.102C157.535 218.886 158.147 218.778 158.819 218.778C159.239 218.778 159.677 218.844 160.133 218.976C160.601 219.096 161.033 219.3 161.429 219.588C161.585 219.684 161.681 219.804 161.717 219.948C161.765 220.08 161.771 220.218 161.735 220.362C161.711 220.506 161.645 220.632 161.537 220.74C161.441 220.836 161.321 220.896 161.177 220.92C161.033 220.932 160.877 220.89 160.709 220.794C160.421 220.59 160.127 220.446 159.827 220.362C159.527 220.266 159.239 220.218 158.963 220.218C158.531 220.218 158.147 220.29 157.811 220.434C157.487 220.566 157.211 220.764 156.983 221.028C156.755 221.28 156.581 221.598 156.461 221.982C156.353 222.366 156.299 222.804 156.299 223.296C156.299 224.28 156.527 225.054 156.983 225.618C157.451 226.17 158.111 226.446 158.963 226.446C159.239 226.446 159.527 226.404 159.827 226.32C160.127 226.236 160.421 226.092 160.709 225.888C160.877 225.792 161.033 225.756 161.177 225.78C161.321 225.804 161.435 225.87 161.519 225.978C161.615 226.074 161.675 226.194 161.699 226.338C161.735 226.47 161.729 226.608 161.681 226.752C161.633 226.896 161.531 227.016 161.375 227.112C160.991 227.388 160.571 227.586 160.115 227.706C159.671 227.826 159.239 227.886 158.819 227.886ZM167.113 227.886C166.393 227.886 165.787 227.76 165.295 227.508C164.803 227.256 164.437 226.884 164.197 226.392C163.957 225.9 163.837 225.3 163.837 224.592V220.344H162.757C162.517 220.344 162.331 220.284 162.199 220.164C162.067 220.032 162.001 219.858 162.001 219.642C162.001 219.414 162.067 219.24 162.199 219.12C162.331 219 162.517 218.94 162.757 218.94H163.837V217.086C163.837 216.786 163.915 216.558 164.071 216.402C164.239 216.246 164.467 216.168 164.755 216.168C165.043 216.168 165.265 216.246 165.421 216.402C165.577 216.558 165.655 216.786 165.655 217.086V218.94H167.761C168.001 218.94 168.187 219 168.319 219.12C168.451 219.24 168.517 219.414 168.517 219.642C168.517 219.858 168.451 220.032 168.319 220.164C168.187 220.284 168.001 220.344 167.761 220.344H165.655V224.448C165.655 225.084 165.787 225.564 166.051 225.888C166.327 226.212 166.771 226.374 167.383 226.374C167.599 226.374 167.785 226.356 167.941 226.32C168.109 226.272 168.247 226.242 168.355 226.23C168.487 226.23 168.595 226.278 168.679 226.374C168.763 226.458 168.805 226.626 168.805 226.878C168.805 227.058 168.769 227.226 168.697 227.382C168.637 227.538 168.523 227.64 168.355 227.688C168.211 227.736 168.013 227.778 167.761 227.814C167.521 227.862 167.305 227.886 167.113 227.886ZM173.672 227.886C172.784 227.886 172.016 227.7 171.368 227.328C170.732 226.956 170.234 226.428 169.874 225.744C169.514 225.06 169.334 224.256 169.334 223.332C169.334 222.624 169.436 221.994 169.64 221.442C169.844 220.89 170.132 220.416 170.504 220.02C170.888 219.612 171.344 219.306 171.872 219.102C172.412 218.886 173.012 218.778 173.672 218.778C174.548 218.778 175.304 218.964 175.94 219.336C176.588 219.708 177.092 220.236 177.452 220.92C177.812 221.592 177.992 222.396 177.992 223.332C177.992 224.028 177.89 224.658 177.686 225.222C177.482 225.786 177.188 226.266 176.804 226.662C176.432 227.058 175.976 227.364 175.436 227.58C174.908 227.784 174.32 227.886 173.672 227.886ZM173.672 226.482C174.164 226.482 174.596 226.362 174.968 226.122C175.34 225.882 175.628 225.528 175.832 225.06C176.048 224.592 176.156 224.016 176.156 223.332C176.156 222.3 175.928 221.52 175.472 220.992C175.016 220.464 174.416 220.2 173.672 220.2C173.168 220.2 172.73 220.32 172.358 220.56C171.986 220.788 171.692 221.136 171.476 221.604C171.272 222.072 171.17 222.648 171.17 223.332C171.17 224.352 171.398 225.132 171.854 225.672C172.31 226.212 172.916 226.482 173.672 226.482Z" fill="#F3F4F6"/>
<path d="M110.826 241.724H122.826C120.837 243.893 119.59 245.254 117.826 247.178C117.511 247.521 117.326 247.724 116.826 247.724C116.326 247.724 115.826 247.178 115.826 247.178L110.826 241.724Z" fill="#545F72"/>
</g>
<defs>
<filter id="filter0_dd_72_12314" x="266.5" y="8.41211" width="139" height="58" filterUnits="userSpaceOnUse" color-interpolation-filters="sRGB">
<feFlood flood-opacity="0" result="BackgroundImageFix"/>
<feColorMatrix in="SourceAlpha" type="matrix" values="0 0 0 0 0 0 0 0 0 0 0 0 0 0 0 0 0 0 127 0" result="hardAlpha"/>
<feMorphology radius="2" operator="erode" in="SourceAlpha" result="effect1_dropShadow_72_12314"/>
<feOffset dy="2"/>
<feGaussianBlur stdDeviation="2"/>
<feColorMatrix type="matrix" values="0 0 0 0 0.0627451 0 0 0 0 0.0941176 0 0 0 0 0.156863 0 0 0 0.06 0"/>
<feBlend mode="normal" in2="BackgroundImageFix" result="effect1_dropShadow_72_12314"/>
<feColorMatrix in="SourceAlpha" type="matrix" values="0 0 0 0 0 0 0 0 0 0 0 0 0 0 0 0 0 0 127 0" result="hardAlpha"/>
<feMorphology radius="2" operator="erode" in="SourceAlpha" result="effect2_dropShadow_72_12314"/>
<feOffset dy="4"/>
<feGaussianBlur stdDeviation="4"/>
<feColorMatrix type="matrix" values="0 0 0 0 0.0627451 0 0 0 0 0.0941176 0 0 0 0 0.156863 0 0 0 0.1 0"/>
<feBlend mode="normal" in2="effect1_dropShadow_72_12314" result="effect2_dropShadow_72_12314"/>
<feBlend mode="normal" in="SourceGraphic" in2="effect2_dropShadow_72_12314" result="shape"/>
</filter>
<filter id="filter1_dd_72_12314" x="88.8257" y="199.724" width="137.344" height="58" filterUnits="userSpaceOnUse" color-interpolation-filters="sRGB">
<feFlood flood-opacity="0" result="BackgroundImageFix"/>
<feColorMatrix in="SourceAlpha" type="matrix" values="0 0 0 0 0 0 0 0 0 0 0 0 0 0 0 0 0 0 127 0" result="hardAlpha"/>
<feMorphology radius="2" operator="erode" in="SourceAlpha" result="effect1_dropShadow_72_12314"/>
<feOffset dy="2"/>
<feGaussianBlur stdDeviation="2"/>
<feColorMatrix type="matrix" values="0 0 0 0 0.0627451 0 0 0 0 0.0941176 0 0 0 0 0.156863 0 0 0 0.06 0"/>
<feBlend mode="normal" in2="BackgroundImageFix" result="effect1_dropShadow_72_12314"/>
<feColorMatrix in="SourceAlpha" type="matrix" values="0 0 0 0 0 0 0 0 0 0 0 0 0 0 0 0 0 0 127 0" result="hardAlpha"/>
<feMorphology radius="2" operator="erode" in="SourceAlpha" result="effect2_dropShadow_72_12314"/>
<feOffset dy="4"/>
<feGaussianBlur stdDeviation="4"/>
<feColorMatrix type="matrix" values="0 0 0 0 0.0627451 0 0 0 0 0.0941176 0 0 0 0 0.156863 0 0 0 0.1 0"/>
<feBlend mode="normal" in2="effect1_dropShadow_72_12314" result="effect2_dropShadow_72_12314"/>
<feBlend mode="normal" in="SourceGraphic" in2="effect2_dropShadow_72_12314" result="shape"/>
</filter>
</defs>
</svg>
