<svg width="65" height="64" viewBox="0 0 65 64" fill="none" xmlns="http://www.w3.org/2000/svg">
<path fill-rule="evenodd" clip-rule="evenodd" d="M16.4759 28.12C15.7399 28.12 15.1426 27.5227 15.1426 26.7867C15.1426 26.0507 15.7399 25.4533 16.4759 25.4533H37.3799C38.1159 25.4533 38.7132 26.0507 38.7132 26.7867C38.7132 27.5227 38.1159 28.12 37.3799 28.12H16.4759Z" fill="#61E1C5"/>
<path fill-rule="evenodd" clip-rule="evenodd" d="M35.9842 58.8894H11.8167C10.5567 58.8894 9.34876 58.39 8.4577 57.4989C7.56925 56.6077 7.06787 55.399 7.06787 54.1391V18.4214C7.06787 17.1513 7.57704 15.9324 8.48368 15.0386L17.2487 6.39858C18.1372 5.5228 19.3348 5.03113 20.5817 5.03113H42.4242C43.6841 5.03113 44.8921 5.53304 45.7832 6.42419C46.6742 7.31278 47.1756 8.52147 47.1756 9.78137V32.078H44.5076V9.78137C44.5076 9.22824 44.2894 8.69816 43.8971 8.30892C43.5075 7.91712 42.9775 7.69946 42.4242 7.69946H22.1378V15.5662C22.1378 18.1577 20.0388 20.2575 17.4488 20.2575H9.73323V54.1391C9.73323 54.6923 9.95405 55.2223 10.3437 55.6141C10.736 56.0034 11.2659 56.2236 11.8167 56.2236H32.6876C33.0097 57.7473 34.3632 58.8894 35.9842 58.8894ZM19.4725 8.01955C19.3452 8.09894 19.2283 8.19113 19.1192 8.29868L10.3541 16.9387C10.1645 17.1257 10.0138 17.3485 9.90729 17.5892H17.4488C18.5658 17.5892 19.4725 16.6852 19.4725 15.5662V8.01955Z" fill="#F3F4F6"/>
<path fill-rule="evenodd" clip-rule="evenodd" d="M52.9667 32.0792C53.8814 32.0792 54.7561 32.4497 55.3907 33.1078L59.6441 37.5182C60.2494 38.1459 60.5881 38.9865 60.5881 39.8575V55.5193C60.5881 56.4125 60.2334 57.2697 59.6014 57.9029C58.9694 58.5333 58.1134 58.8901 57.2174 58.8901H35.9854C34.3641 58.8901 33.0121 57.7453 32.6867 56.2217C32.6387 55.9949 32.6147 55.7599 32.6147 55.5193V35.4499C32.6147 33.5862 34.1241 32.0792 35.9854 32.0792H52.9667ZM35.9854 56.2217H57.2174C57.4041 56.2217 57.5827 56.1498 57.7161 56.0171C57.8467 55.8843 57.9214 55.7046 57.9214 55.5193V39.8575C57.9214 39.675 57.8521 39.5008 57.7241 39.3709L53.4734 34.9605C53.3401 34.8222 53.1561 34.7448 52.9667 34.7448H35.9854C35.5961 34.7448 35.2814 35.06 35.2814 35.4499V55.5193C35.2814 55.9092 35.5961 56.2217 35.9854 56.2217Z" fill="#61E1C5"/>
<path fill-rule="evenodd" clip-rule="evenodd" d="M41.6706 34.744H39.0039V39.3653L39.0519 39.8587L39.1959 40.3307L39.4279 40.7653L39.7426 41.1493L40.1266 41.464L40.5612 41.696L41.0332 41.84L41.5266 41.888H51.2519L51.7452 41.84L52.2172 41.696L52.6519 41.464L53.0359 41.1493L53.3506 40.7653L53.5826 40.3307L53.7266 39.8587L53.7746 39.3653V35.2747L53.4732 34.96C53.3399 34.824 53.1559 34.744 52.9666 34.744H51.1079V39.2213H41.6706V34.744Z" fill="#F3F4F6"/>
<path fill-rule="evenodd" clip-rule="evenodd" d="M39.0039 56.224V48.8907L39.0546 48.384L39.2012 47.9067L39.4359 47.4773L39.7426 47.1067L40.1159 46.7973L40.5452 46.5653L41.0199 46.4187L41.5266 46.368H51.2519L51.7586 46.4187L52.2332 46.5653L52.6626 46.7973L53.0359 47.1067L53.3426 47.4773L53.5772 47.9067L53.7239 48.384L53.7746 48.8907V56.224H51.1079V49.0347H41.6706V56.224H39.0039Z" fill="#F3F4F6"/>
<path fill-rule="evenodd" clip-rule="evenodd" d="M16.4759 35.0667C15.7399 35.0667 15.1426 34.4693 15.1426 33.7333C15.1426 32.9973 15.7399 32.4 16.4759 32.4H27.1212C27.8572 32.4 28.4546 32.9973 28.4546 33.7333C28.4546 34.4693 27.8572 35.0667 27.1212 35.0667H16.4759Z" fill="#F3F4F6"/>
<path fill-rule="evenodd" clip-rule="evenodd" d="M16.4759 41.8139C15.7399 41.8139 15.1426 41.2166 15.1426 40.4806C15.1426 39.7446 15.7399 39.1473 16.4759 39.1473H27.1212C27.8572 39.1473 28.4546 39.7446 28.4546 40.4806C28.4546 41.2166 27.8572 41.8139 27.1212 41.8139H16.4759Z" fill="#61E1C5"/>
<path fill-rule="evenodd" clip-rule="evenodd" d="M16.4759 48.4951C15.7399 48.4951 15.1426 47.8978 15.1426 47.1618C15.1426 46.4258 15.7399 45.8284 16.4759 45.8284H27.1212C27.8572 45.8284 28.4546 46.4258 28.4546 47.1618C28.4546 47.8978 27.8572 48.4951 27.1212 48.4951H16.4759Z" fill="#F3F4F6"/>
</svg>
