<svg width="64" height="64" viewBox="0 0 64 64" fill="none" xmlns="http://www.w3.org/2000/svg">
<path fill-rule="evenodd" clip-rule="evenodd" d="M15.9759 28.12C15.2399 28.12 14.6426 27.5227 14.6426 26.7867C14.6426 26.0507 15.2399 25.4533 15.9759 25.4533H36.8799C37.6159 25.4533 38.2132 26.0507 38.2132 26.7867C38.2132 27.5227 37.6159 28.12 36.8799 28.12H15.9759Z" fill="#3AC7A5"/>
<path fill-rule="evenodd" clip-rule="evenodd" d="M35.4842 58.8894H11.3167C10.0567 58.8894 8.84876 58.39 7.9577 57.4989C7.06925 56.6077 6.56787 55.399 6.56787 54.1391V18.4214C6.56787 17.1513 7.07704 15.9324 7.98368 15.0386L16.7487 6.39858C17.6372 5.5228 18.8348 5.03113 20.0817 5.03113H41.9242C43.1841 5.03113 44.3921 5.53304 45.2832 6.42419C46.1742 7.31278 46.6756 8.52147 46.6756 9.78137V32.078H44.0076V9.78137C44.0076 9.22824 43.7894 8.69816 43.3971 8.30892C43.0075 7.91712 42.4775 7.69946 41.9242 7.69946H21.6378V15.5662C21.6378 18.1577 19.5388 20.2575 16.9488 20.2575H9.23323V54.1391C9.23323 54.6923 9.45405 55.2223 9.84372 55.6141C10.236 56.0034 10.7659 56.2236 11.3167 56.2236H32.1876C32.5097 57.7473 33.8632 58.8894 35.4842 58.8894ZM18.9725 8.01955C18.8452 8.09894 18.7283 8.19113 18.6192 8.29868L9.85411 16.9387C9.66447 17.1257 9.5138 17.3485 9.40729 17.5892H16.9488C18.0658 17.5892 18.9725 16.6852 18.9725 15.5662V8.01955Z" fill="#545F72"/>
<path fill-rule="evenodd" clip-rule="evenodd" d="M52.4667 32.0792C53.3814 32.0792 54.2561 32.4497 54.8907 33.1078L59.1441 37.5182C59.7494 38.1459 60.0881 38.9865 60.0881 39.8575V55.5193C60.0881 56.4125 59.7334 57.2697 59.1014 57.9029C58.4694 58.5333 57.6134 58.8901 56.7174 58.8901H35.4854C33.8641 58.8901 32.5121 57.7453 32.1867 56.2217C32.1387 55.9949 32.1147 55.7599 32.1147 55.5193V35.4499C32.1147 33.5862 33.6241 32.0792 35.4854 32.0792H52.4667ZM35.4854 56.2217H56.7174C56.9041 56.2217 57.0827 56.1498 57.2161 56.0171C57.3467 55.8843 57.4214 55.7046 57.4214 55.5193V39.8575C57.4214 39.675 57.3521 39.5008 57.2241 39.3709L52.9734 34.9605C52.8401 34.8222 52.6561 34.7448 52.4667 34.7448H35.4854C35.0961 34.7448 34.7814 35.06 34.7814 35.4499V55.5193C34.7814 55.9092 35.0961 56.2217 35.4854 56.2217Z" fill="#3AC7A5"/>
<path fill-rule="evenodd" clip-rule="evenodd" d="M41.1706 34.744H38.5039V39.3653L38.5519 39.8587L38.6959 40.3307L38.9279 40.7653L39.2426 41.1493L39.6266 41.464L40.0612 41.696L40.5332 41.84L41.0266 41.888H50.7519L51.2452 41.84L51.7172 41.696L52.1519 41.464L52.5359 41.1493L52.8506 40.7653L53.0826 40.3307L53.2266 39.8587L53.2746 39.3653V35.2747L52.9732 34.96C52.8399 34.824 52.6559 34.744 52.4666 34.744H50.6079V39.2213H41.1706V34.744Z" fill="#545F72"/>
<path fill-rule="evenodd" clip-rule="evenodd" d="M38.5039 56.224V48.8907L38.5546 48.384L38.7012 47.9067L38.9359 47.4773L39.2426 47.1067L39.6159 46.7973L40.0452 46.5653L40.5199 46.4187L41.0266 46.368H50.7519L51.2586 46.4187L51.7332 46.5653L52.1626 46.7973L52.5359 47.1067L52.8426 47.4773L53.0772 47.9067L53.2239 48.384L53.2746 48.8907V56.224H50.6079V49.0347H41.1706V56.224H38.5039Z" fill="#545F72"/>
<path fill-rule="evenodd" clip-rule="evenodd" d="M15.9759 35.0667C15.2399 35.0667 14.6426 34.4693 14.6426 33.7333C14.6426 32.9973 15.2399 32.4 15.9759 32.4H26.6212C27.3572 32.4 27.9546 32.9973 27.9546 33.7333C27.9546 34.4693 27.3572 35.0667 26.6212 35.0667H15.9759Z" fill="#545F72"/>
<path fill-rule="evenodd" clip-rule="evenodd" d="M15.9759 41.8139C15.2399 41.8139 14.6426 41.2166 14.6426 40.4806C14.6426 39.7446 15.2399 39.1473 15.9759 39.1473H26.6212C27.3572 39.1473 27.9546 39.7446 27.9546 40.4806C27.9546 41.2166 27.3572 41.8139 26.6212 41.8139H15.9759Z" fill="#3AC7A5"/>
<path fill-rule="evenodd" clip-rule="evenodd" d="M15.9759 48.4951C15.2399 48.4951 14.6426 47.8978 14.6426 47.1618C14.6426 46.4258 15.2399 45.8284 15.9759 45.8284H26.6212C27.3572 45.8284 27.9546 46.4258 27.9546 47.1618C27.9546 47.8978 27.3572 48.4951 26.6212 48.4951H15.9759Z" fill="#545F72"/>
</svg>
