<svg width="24" height="24" viewBox="0 0 24 24" fill="none" xmlns="http://www.w3.org/2000/svg">
<path d="M12 22C6.48372 22 2 17.5163 2 12C2 6.48372 6.48372 2 12 2C17.5163 2 22 6.48372 22 12C22 17.5163 17.5163 22 12 22ZM12 3.39535C7.25581 3.39535 3.39535 7.25581 3.39535 12C3.39535 16.7442 7.25581 20.6047 12 20.6047C16.7442 20.6047 20.6047 16.7442 20.6047 12C20.6047 7.25581 16.7442 3.39535 12 3.39535Z" fill="#4EC275"/>
<path d="M10.679 15.3299C10.493 15.3299 10.3162 15.2555 10.186 15.1252L7.55343 12.4927C7.28367 12.2229 7.28367 11.7764 7.55343 11.5066C7.8232 11.2368 8.26971 11.2368 8.53948 11.5066L10.679 13.6461L15.4604 8.86475C15.7302 8.59499 16.1767 8.59499 16.4465 8.86475C16.7162 9.13452 16.7162 9.58103 16.4465 9.8508L11.172 15.1252C11.0418 15.2555 10.8651 15.3299 10.679 15.3299Z" fill="#4EC275"/>
</svg>
