<svg width="61" height="60" viewBox="0 0 61 60" fill="none" xmlns="http://www.w3.org/2000/svg">
<path d="M29.344 0.737828C29.344 0.330337 29.6744 0 30.0819 0C30.4894 0 30.8197 0.330337 30.8197 0.737827V5.44952C30.8197 5.85701 30.4894 6.18735 30.0819 6.18735C29.6744 6.18735 29.344 5.85701 29.344 5.44952V0.737828Z" fill="#98A2B3"/>
<path d="M1.43385 29.8297H58.7077V58.233C58.7077 59.2089 57.9166 60 56.9407 60H3.20088C2.22498 60 1.43385 59.2089 1.43385 58.233V29.8297Z" fill="#C7CFDD"/>
<path d="M3.14333 34.1866C3.14333 33.6987 3.53889 33.3031 4.02684 33.3031H8.23077C8.71872 33.3031 9.11428 33.6987 9.11428 34.1866V38.3603C9.11428 38.8482 8.71872 39.2438 8.23077 39.2438H4.02684C3.53889 39.2438 3.14333 38.8482 3.14333 38.3603V34.1866Z" fill="#83BEE9"/>
<path d="M3.14333 42.828C3.14333 42.34 3.53889 41.9445 4.02684 41.9445H8.23077C8.71872 41.9445 9.11428 42.34 9.11428 42.828V47.0016C9.11428 47.4896 8.71872 47.8851 8.23077 47.8851H4.02684C3.53889 47.8851 3.14333 47.4896 3.14333 47.0016V42.828Z" fill="#83BEE9"/>
<path d="M3.14333 51.4693C3.14333 50.9814 3.53889 50.5858 4.02684 50.5858H8.23077C8.71872 50.5858 9.11428 50.9814 9.11428 51.4693V55.643C9.11428 56.1309 8.71872 56.5265 8.23077 56.5265H4.02684C3.53889 56.5265 3.14333 56.1309 3.14333 55.643V51.4693Z" fill="#83BEE9"/>
<path d="M9.80677 34.1866C9.80677 33.6987 10.2023 33.3031 10.6903 33.3031H14.8942C15.3822 33.3031 15.7777 33.6987 15.7777 34.1866V38.3603C15.7777 38.8482 15.3822 39.2438 14.8942 39.2438H10.6903C10.2023 39.2438 9.80677 38.8482 9.80677 38.3603V34.1866Z" fill="#83BEE9"/>
<path d="M9.80677 42.828C9.80677 42.34 10.2023 41.9445 10.6903 41.9445H14.8942C15.3822 41.9445 15.7777 42.34 15.7777 42.828V47.0016C15.7777 47.4896 15.3822 47.8851 14.8942 47.8851H10.6903C10.2023 47.8851 9.80677 47.4896 9.80677 47.0016V42.828Z" fill="#83BEE9"/>
<path d="M9.80677 51.4693C9.80677 50.9814 10.2023 50.5858 10.6903 50.5858H14.8942C15.3822 50.5858 15.7777 50.9814 15.7777 51.4693V55.643C15.7777 56.1309 15.3822 56.5265 14.8942 56.5265H10.6903C10.2023 56.5265 9.80677 56.1309 9.80677 55.643V51.4693Z" fill="#83BEE9"/>
<path d="M44.3638 34.1866C44.3638 33.6987 44.7594 33.3031 45.2473 33.3031H49.4513C49.9392 33.3031 50.3348 33.6987 50.3348 34.1866V38.3603C50.3348 38.8482 49.9392 39.2438 49.4513 39.2438H45.2473C44.7594 39.2438 44.3638 38.8482 44.3638 38.3603V34.1866Z" fill="#83BEE9"/>
<path d="M44.3638 42.828C44.3638 42.34 44.7594 41.9445 45.2473 41.9445H49.4513C49.9392 41.9445 50.3348 42.34 50.3348 42.828V47.0016C50.3348 47.4896 49.9392 47.8851 49.4513 47.8851H45.2473C44.7594 47.8851 44.3638 47.4896 44.3638 47.0016V42.828Z" fill="#83BEE9"/>
<path d="M44.3638 51.4693C44.3638 50.9814 44.7594 50.5858 45.2473 50.5858H49.4513C49.9392 50.5858 50.3348 50.9814 50.3348 51.4693V55.643C50.3348 56.1309 49.9392 56.5265 49.4513 56.5265H45.2473C44.7594 56.5265 44.3638 56.1309 44.3638 55.643V51.4693Z" fill="#83BEE9"/>
<path d="M51.0273 34.1866C51.0273 33.6987 51.4228 33.3031 51.9108 33.3031H56.1147C56.6027 33.3031 56.9982 33.6987 56.9982 34.1866V38.3603C56.9982 38.8482 56.6027 39.2438 56.1147 39.2438H51.9108C51.4228 39.2438 51.0273 38.8482 51.0273 38.3603V34.1866Z" fill="#83BEE9"/>
<path d="M51.0273 42.828C51.0273 42.34 51.4228 41.9445 51.9108 41.9445H56.1147C56.6027 41.9445 56.9982 42.34 56.9982 42.828V47.0016C56.9982 47.4896 56.6027 47.8851 56.1147 47.8851H51.9108C51.4228 47.8851 51.0273 47.4896 51.0273 47.0016V42.828Z" fill="#83BEE9"/>
<path d="M51.0273 51.4693C51.0273 50.9814 51.4228 50.5858 51.9108 50.5858H56.1147C56.6027 50.5858 56.9982 50.9814 56.9982 51.4693V55.643C56.9982 56.1309 56.6027 56.5265 56.1147 56.5265H51.9108C51.4228 56.5265 51.0273 56.1309 51.0273 55.643V51.4693Z" fill="#83BEE9"/>
<path fill-rule="evenodd" clip-rule="evenodd" d="M4.56597 21.2534C4.23715 21.2534 3.93554 21.436 3.78311 21.7274L0.0825939 28.8009C-0.166958 29.2779 0.179062 29.8494 0.717411 29.8494H1.42164C1.42839 29.8494 1.43385 29.8549 1.43385 29.8616C1.43385 29.8684 1.43932 29.8738 1.44606 29.8738H58.6955C58.7022 29.8738 58.7077 29.8684 58.7077 29.8616C58.7077 29.8549 58.7132 29.8494 58.7199 29.8494H59.4241C59.9624 29.8494 60.3084 29.2779 60.0589 28.8009L56.3584 21.7274C56.206 21.436 55.9044 21.2534 55.5756 21.2534H4.56597Z" fill="#838AED"/>
<path d="M42.3185 21.2092H17.823V60H42.3185V21.2092Z" fill="#DEE5F3"/>
<path d="M10.5028 13.1205H11.8261V21.2534H10.5028V13.1205Z" fill="#98A2B3"/>
<path d="M1.43385 7.20028C1.43385 6.71233 1.82941 6.31677 2.31736 6.31677H10.9426C11.4305 6.31677 11.8261 6.71233 11.8261 7.20028V12.9506C11.8261 13.4385 11.4305 13.8341 10.9426 13.8341H2.31736C1.82941 13.8341 1.43385 13.4385 1.43385 12.9506V7.20028Z" fill="#838AED"/>
<path d="M49.6828 13.1205H48.3596V21.2534H49.6828V13.1205Z" fill="#98A2B3"/>
<path d="M58.7518 7.20028C58.7518 6.71233 58.3562 6.31677 57.8683 6.31677H49.2431C48.7551 6.31677 48.3596 6.71233 48.3596 7.20028V12.9506C48.3596 13.4385 48.7551 13.8341 49.2431 13.8341H57.8683C58.3562 13.8341 58.7518 13.4385 58.7518 12.9506V7.20028Z" fill="#838AED"/>
<path fill-rule="evenodd" clip-rule="evenodd" d="M32.4219 16.7146C32.6134 13.0383 32.1179 8.85798 30.8485 4.58568L30.8196 4.48883C30.9628 4.49733 31.1053 4.50828 31.2471 4.52166C31.3359 4.53007 31.4245 4.53939 31.5129 4.54965C35.7583 7.34592 37.8857 12.1574 37.2616 16.7146H32.4219Z" fill="#5B63D3"/>
<path d="M37.2616 16.7146C37.8857 12.1574 35.7583 7.34592 31.5129 4.54965C37.6028 5.25836 42.3295 10.4345 42.3295 16.7146C42.3295 16.8905 42.3258 17.0655 42.3185 17.2395V16.7146H37.2616Z" fill="#838AED"/>
<path fill-rule="evenodd" clip-rule="evenodd" d="M17.8341 16.7146C17.8341 10.7959 22.0325 5.85784 27.6135 4.71579C27.9543 4.64603 28.3003 4.59042 28.6508 4.54965C24.4053 7.34592 22.278 12.1574 22.9021 16.7146H17.8341Z" fill="#838AED"/>
<path fill-rule="evenodd" clip-rule="evenodd" d="M29.3151 4.58568C28.0458 8.85798 27.5503 13.0383 27.7417 16.7146H22.9021C22.278 12.1574 24.4053 7.34592 28.6508 4.54965C28.7391 4.53939 28.8277 4.53007 28.9166 4.52166C29.0584 4.50828 29.2009 4.49733 29.344 4.48883L29.3151 4.58568Z" fill="#5B63D3"/>
<path fill-rule="evenodd" clip-rule="evenodd" d="M30.8485 4.58568C32.1179 8.85798 32.6134 13.0383 32.4219 16.7146H27.7417C27.5503 13.0383 28.0458 8.85798 29.3151 4.58568L29.344 4.48883C29.5881 4.47433 29.8341 4.46696 30.0818 4.46696C30.1346 4.46696 30.1873 4.4673 30.24 4.46795C30.3142 4.4689 30.3883 4.47049 30.4621 4.47274C30.535 4.47498 30.6076 4.47783 30.6802 4.48132L30.7335 4.484C30.7622 4.48551 30.791 4.4871 30.8196 4.48883L30.8485 4.58568Z" fill="#838AED"/>
<path d="M17.8341 16.7146H17.823V21.2092H42.3185L42.3185 17.2395V16.7146H37.2616H32.4219H27.7417H22.9021H17.8341Z" fill="#C7CFDD"/>
<path d="M22.6175 45.5822C22.6175 41.4659 25.9544 38.129 30.0707 38.129C34.187 38.129 37.5239 41.4659 37.5239 45.5822V60H22.6175V45.5822Z" fill="#5F6263"/>
<path d="M21.5217 28.5088C21.5217 26.9 22.8258 25.5958 24.4346 25.5958C26.0434 25.5958 27.3476 26.9 27.3476 28.5088V32.9537H21.5217V28.5088Z" fill="#92C4E8"/>
<path d="M32.794 28.5088C32.794 26.9 34.0981 25.5958 35.7069 25.5958C37.3157 25.5958 38.6199 26.9 38.6199 28.5088V32.9537H32.794V28.5088Z" fill="#92C4E8"/>
</svg>
