<svg width="120" height="96" viewBox="0 0 120 96" fill="none" xmlns="http://www.w3.org/2000/svg">
<path d="M99.2974 94.3648H10.9912C8.07226 94.3648 5.70605 91.9986 5.70605 89.0797V28.474C5.70605 26.3448 7.43219 24.6187 9.56135 24.6187H100.939C102.951 24.6187 104.583 26.2499 104.583 28.2619V89.0797C104.583 91.9986 102.216 94.3648 99.2974 94.3648Z" fill="#0D5763"/>
<g opacity="0.3">
<path d="M99.2974 94.3648H10.9912C8.07226 94.3648 5.70605 91.9986 5.70605 89.0797V28.474C5.70605 26.3448 7.43219 24.6187 9.56135 24.6187H100.939C102.951 24.6187 104.583 26.2499 104.583 28.2619V89.0797C104.583 91.9986 102.216 94.3648 99.2974 94.3648Z" fill="black"/>
</g>
<path d="M104.48 95.4264H6.68158C3.85983 95.4264 1.57227 93.1389 1.57227 90.3171V89.5206C1.57227 89.4119 1.66045 89.3237 1.76914 89.3237H108.501C108.609 89.3237 108.697 89.4119 108.697 89.5206V91.2091C108.697 93.5382 106.809 95.4264 104.48 95.4264Z" fill="#0D5763"/>
<g opacity="0.3">
<path d="M104.48 95.4264H6.68158C3.85983 95.4264 1.57227 93.1389 1.57227 90.3171V89.5206C1.57227 89.4119 1.66045 89.3237 1.76914 89.3237H108.501C108.609 89.3237 108.697 89.4119 108.697 89.5206V91.2091C108.697 93.5382 106.809 95.4264 104.48 95.4264Z" fill="black"/>
</g>
<path d="M104.479 95.4263C104.479 95.4263 104.528 95.4221 104.623 95.4162C104.719 95.4052 104.864 95.4148 105.05 95.3774C105.423 95.33 105.989 95.2053 106.624 94.8228C106.944 94.6399 107.27 94.3779 107.577 94.0428C107.884 93.7075 108.168 93.289 108.37 92.7885C108.576 92.2894 108.685 91.7095 108.678 91.0874C108.677 90.7756 108.677 90.454 108.676 90.1224C108.676 89.9564 108.676 89.7881 108.676 89.6171C108.677 89.5306 108.684 89.4455 108.619 89.3921C108.563 89.332 108.474 89.3461 108.385 89.345C102.76 89.3492 94.6224 89.3551 84.5667 89.3624C64.4538 89.3663 36.6708 89.3719 5.98537 89.3784H1.77732C1.75064 89.3781 1.73294 89.3812 1.71188 89.3899C1.67284 89.4067 1.6411 89.4421 1.63071 89.484C1.62144 89.5182 1.62762 89.5921 1.62566 89.6474V90.0033C1.62116 90.2417 1.63183 90.4762 1.64559 90.7096C1.68604 91.1753 1.77479 91.6398 1.94611 92.0749C2.01688 92.2981 2.13176 92.5026 2.22978 92.7138C2.35307 92.9113 2.45923 93.1205 2.60724 93.3011C3.1521 94.0569 3.91743 94.6405 4.76927 94.9952C5.19813 95.1682 5.64862 95.2808 6.10557 95.337C6.56224 95.3811 7.02762 95.3721 7.49159 95.3721C8.4187 95.3721 9.34243 95.3724 10.2622 95.3724C12.1021 95.3724 13.9271 95.3727 15.7361 95.3727C22.972 95.3738 29.9516 95.3749 36.6005 95.376C49.8979 95.3802 61.8725 95.3845 71.9287 95.3878C81.9842 95.3951 90.1214 95.401 95.7461 95.405C98.5572 95.4095 100.74 95.4131 102.221 95.4154C102.961 95.4176 103.525 95.4196 103.905 95.4207C104.285 95.4227 104.479 95.4263 104.479 95.4263C104.479 95.4263 104.285 95.43 103.905 95.4319C103.525 95.4331 102.961 95.435 102.221 95.4373C100.74 95.4398 98.5572 95.4432 95.7461 95.4477C90.1214 95.4516 81.9842 95.4575 71.9287 95.4651C61.8725 95.4682 49.8979 95.4724 36.6005 95.4766C29.9516 95.4777 22.972 95.4788 15.7361 95.48C13.9271 95.48 12.1021 95.4802 10.2622 95.4802C9.34243 95.4805 8.4187 95.4805 7.49159 95.4805C7.02874 95.4805 6.56337 95.4901 6.0935 95.4448C5.62643 95.3876 5.16639 95.2724 4.72798 95.096C3.85761 94.7337 3.07627 94.1375 2.51934 93.3657C2.36852 93.1809 2.25954 92.9674 2.13372 92.7658C2.03345 92.5498 1.91634 92.3408 1.84388 92.1128C1.66919 91.6682 1.57791 91.1938 1.5369 90.7181C1.52258 90.4788 1.51219 90.2398 1.51668 90.0033V89.6474C1.51977 89.5845 1.50882 89.5379 1.52511 89.4559C1.54421 89.3817 1.59925 89.3194 1.66891 89.2893C1.70261 89.2742 1.74474 89.2683 1.77732 89.2691H5.98537C36.6708 89.2753 64.4538 89.2809 84.5667 89.2851C94.6224 89.2924 102.76 89.2983 108.385 89.3025L108.519 89.3034C108.567 89.3079 108.613 89.3281 108.648 89.3615C108.683 89.3941 108.707 89.4385 108.714 89.4854C108.72 89.5348 108.715 89.573 108.717 89.6171C108.717 89.7881 108.717 89.9564 108.716 90.1224C108.716 90.454 108.715 90.7756 108.715 91.0874C108.721 91.7128 108.609 92.299 108.4 92.8009C108.195 93.3044 107.907 93.7249 107.597 94.0614C107.287 94.3973 106.958 94.6593 106.635 94.8418C105.995 95.223 105.426 95.3446 105.051 95.3887C104.864 95.4241 104.719 95.4128 104.624 95.4218C104.528 95.4257 104.479 95.4263 104.479 95.4263Z" fill="#0D5763"/>
<path d="M99.1529 86.0091H10.8602C10.2524 86.0091 9.75977 85.5165 9.75977 84.9088V29.9769C9.75977 29.3691 10.2524 28.8765 10.8602 28.8765H99.1529C99.7607 28.8765 100.253 29.3691 100.253 29.9769V84.9088C100.253 85.5165 99.7607 86.0091 99.1529 86.0091Z" fill="white"/>
<path d="M99.1523 86.009C99.152 86.0045 99.2171 86.0118 99.3415 85.9888C99.4646 85.9666 99.653 85.9121 99.8479 85.754C100.038 85.5984 100.231 85.3193 100.242 84.946C100.242 84.575 100.242 84.1447 100.242 83.6563C100.239 81.7016 100.236 78.82 100.231 75.109C100.227 67.6858 100.221 56.9453 100.214 43.6738C100.213 40.3557 100.212 36.8796 100.211 33.2577C100.21 32.3519 100.21 31.4375 100.21 30.5137L100.209 30.1672C100.209 30.0506 100.214 29.9349 100.197 29.8262C100.169 29.6046 100.061 29.3965 99.9055 29.2358C99.7474 29.0777 99.5398 28.9662 99.3168 28.9342C99.2073 28.9151 99.0913 28.9207 98.9725 28.9202H98.62C96.7377 28.9207 94.8203 28.9213 92.8695 28.9216C85.0662 28.9233 76.7288 28.9249 67.9549 28.9266C50.4076 28.928 31.1159 28.9294 10.8665 28.9311C10.5638 28.9272 10.2672 29.0645 10.0703 29.292C9.97146 29.4049 9.89703 29.5394 9.85631 29.6838C9.81194 29.829 9.81222 29.9773 9.8139 30.138V35.7913C9.81362 38.2917 9.81362 40.7759 9.81362 43.2418C9.81334 48.1733 9.81306 53.033 9.81278 57.8078C9.81222 62.5826 9.81193 67.2732 9.81137 71.8666C9.81109 74.1634 9.81081 76.4358 9.81053 78.6826C9.81025 79.8061 9.81025 80.923 9.80997 82.0332C9.80997 82.5885 9.80996 83.1421 9.80968 83.6939V84.5202C9.81586 84.7971 9.78019 85.0732 9.89057 85.3136C9.9914 85.5555 10.186 85.7557 10.4239 85.8633C10.5424 85.9175 10.6711 85.9489 10.8011 85.956C10.932 85.9618 11.0724 85.9576 11.2072 85.959C11.7524 85.959 12.2955 85.959 12.837 85.9593C13.9203 85.9593 14.9962 85.9596 16.0649 85.9599C18.2028 85.9602 20.3114 85.9604 22.39 85.961C26.547 85.9618 30.5826 85.963 34.4842 85.9638C42.2881 85.9661 49.5569 85.9683 56.1929 85.9703C69.4645 85.9779 80.2041 85.9838 87.6265 85.9877C91.3369 85.9922 94.2182 85.9956 96.1727 85.9981C97.1489 86.0003 97.8937 86.0023 98.3951 86.0034C98.8958 86.0054 99.1523 86.009 99.1523 86.009C99.1523 86.009 98.8958 86.0127 98.3951 86.0146C97.8937 86.0158 97.1489 86.0177 96.1727 86.02C94.2182 86.0225 91.3369 86.0259 87.6265 86.0304C80.2041 86.0343 69.4645 86.0402 56.1929 86.0475C49.5569 86.0498 42.2881 86.052 34.4842 86.0543C30.5826 86.0551 26.547 86.0562 22.39 86.0571C20.3114 86.0573 18.2028 86.0579 16.0649 86.0582C14.9962 86.0585 13.9203 86.0585 12.837 86.0587C12.2955 86.059 11.7524 86.059 11.2072 86.059C11.0699 86.0576 10.9373 86.0624 10.7955 86.0559C10.6534 86.0484 10.5121 86.0141 10.3821 85.9545C10.1214 85.8369 9.90855 85.6175 9.79789 85.3524C9.74172 85.2204 9.71279 85.0769 9.70999 84.9336L9.70886 84.5202C9.70886 84.2453 9.70858 83.9697 9.70858 83.6939C9.70858 83.1421 9.70858 82.5885 9.7083 82.0332C9.7083 80.923 9.70801 79.8061 9.70801 78.6826C9.70773 76.4358 9.70746 74.1634 9.70717 71.8666C9.70661 67.2732 9.70605 62.5826 9.70577 57.8078C9.70549 53.033 9.70521 48.1733 9.70493 43.2418C9.70493 40.7759 9.70465 38.2917 9.70465 35.7913V30.138C9.70296 29.984 9.70212 29.8122 9.75127 29.6535C9.79677 29.4937 9.87878 29.3451 9.98803 29.2204C10.2046 28.9693 10.534 28.8177 10.8665 28.8219C31.1159 28.8233 50.4076 28.8247 67.9549 28.8261C76.7288 28.8278 85.0662 28.8294 92.8695 28.8311C94.8203 28.8317 96.7377 28.8323 98.62 28.8325L98.9725 28.8328C99.0885 28.8337 99.2084 28.8272 99.3303 28.848C99.5718 28.8831 99.7968 29.0036 99.9673 29.1749C100.135 29.3487 100.252 29.5743 100.283 29.8141C100.3 29.9352 100.295 30.0526 100.296 30.1672V30.5137C100.295 31.4375 100.295 32.3519 100.295 33.2577C100.293 36.8796 100.292 40.3557 100.291 43.6738C100.284 56.9453 100.278 67.6858 100.274 75.109C100.269 78.82 100.266 81.7016 100.264 83.6563C100.262 84.145 100.26 84.5756 100.259 84.9466C100.246 85.3254 100.048 85.6068 99.8549 85.7627C99.6569 85.9208 99.4665 85.9739 99.3427 85.9944C99.2798 86.0054 99.2323 86.0079 99.2003 86.0079C99.1683 86.009 99.1523 86.009 99.1523 86.009Z" fill="#243137"/>
<path d="M55.876 26.9419C55.876 27.3516 55.5437 27.6836 55.1342 27.6836C54.7245 27.6836 54.3919 27.3516 54.3919 26.9419C54.3919 26.5321 54.7245 26.2001 55.1342 26.2001C55.5437 26.2001 55.876 26.5321 55.876 26.9419Z" fill="#243137"/>
<path d="M35.1162 76.2192V78.6197H86.7753V4.23741L85.2767 2.73877L35.1162 76.2192Z" fill="#E4E8ED"/>
<path d="M72.3202 76.2593H33.9051V2.62158H85.3457V63.0919" fill="white"/>
<path d="M85.3459 63.0922C85.3459 63.0922 85.3434 62.9967 85.342 62.8091C85.3412 62.6204 85.3398 62.341 85.3381 61.9725C85.3364 61.2333 85.3339 60.1385 85.3308 58.7129C85.3277 55.8588 85.3229 51.6797 85.3173 46.3746C85.3125 35.7619 85.3055 20.6446 85.2974 2.62187L85.3459 2.67046C70.1475 2.67214 52.5595 2.67411 33.9054 2.67635L33.9598 2.62187V2.68731C33.9548 30.995 33.95 56.846 33.9464 76.2596L33.9054 76.2186C45.7392 76.2262 55.3425 76.2323 61.9886 76.2365C65.3106 76.2413 67.893 76.2453 69.6464 76.2475C70.5218 76.2503 71.19 76.2523 71.6405 76.2534C72.0899 76.2554 72.3204 76.2596 72.3204 76.2596C72.3204 76.2596 72.0899 76.2635 71.6405 76.2655C71.19 76.2669 70.5218 76.2688 69.6464 76.2714C67.893 76.2739 65.3106 76.2778 61.9886 76.2826C55.3425 76.2868 45.7392 76.293 33.9054 76.3006H33.8644V76.2596C33.8607 56.846 33.8559 30.995 33.8506 2.68731V2.56738H33.9054C52.5595 2.56963 70.1475 2.5716 85.3459 2.57356H85.3945L85.3943 2.62187C85.3861 20.6446 85.3794 35.7619 85.3746 46.3746C85.3687 51.6797 85.3642 55.8588 85.3611 58.7129C85.358 60.1385 85.3555 61.2333 85.3538 61.9725C85.3521 62.341 85.3507 62.6204 85.3499 62.8091C85.3485 62.9967 85.3459 63.0922 85.3459 63.0922Z" fill="#243137"/>
<path d="M37.1584 7.18945H59.626V19.3008H37.1584V7.18945Z" fill="#00A989"/>
<path d="M81.249 9.98653C81.249 10.0166 77.2095 10.041 72.2274 10.041C67.2436 10.041 63.2046 10.0166 63.2046 9.98653C63.2046 9.95648 67.2436 9.93204 72.2274 9.93204C77.2095 9.93204 81.249 9.95648 81.249 9.98653Z" fill="#243137"/>
<path d="M81.249 12.1589C81.249 12.1889 77.2095 12.2134 72.2274 12.2134C67.2436 12.2134 63.2046 12.1889 63.2046 12.1589C63.2046 12.1288 67.2436 12.1044 72.2274 12.1044C77.2095 12.1044 81.249 12.1288 81.249 12.1589Z" fill="#243137"/>
<path d="M81.249 14.331C81.249 14.361 77.2095 14.3857 72.2274 14.3857C67.2436 14.3857 63.2049 14.361 63.2049 14.331C63.2049 14.3009 67.2436 14.2765 72.2274 14.2765C77.2095 14.2765 81.249 14.3009 81.249 14.331Z" fill="#243137"/>
<path d="M74.0684 16.5033C74.0684 16.5334 71.6362 16.5581 68.6366 16.5581C65.636 16.5581 63.204 16.5334 63.204 16.5033C63.204 16.4733 65.636 16.4489 68.6366 16.4489C71.6362 16.4489 74.0684 16.4733 74.0684 16.5033Z" fill="#243137"/>
<path d="M81.9365 21.7514C81.9365 21.7814 71.9673 21.8062 59.6723 21.8062C47.3731 21.8062 37.4061 21.7814 37.4061 21.7514C37.4061 21.7213 47.3731 21.6969 59.6723 21.6969C71.9673 21.6969 81.9365 21.7213 81.9365 21.7514Z" fill="#243137"/>
<path d="M81.9375 23.0898C81.9375 23.1201 72.0772 23.1445 59.9168 23.1445C47.7518 23.1445 37.8935 23.1201 37.8935 23.0898C37.8935 23.0597 47.7518 23.0353 59.9168 23.0353C72.0772 23.0353 81.9375 23.0597 81.9375 23.0898Z" fill="#243137"/>
<path d="M37.4071 25.249H81.9375V27.8329H37.4071V25.249Z" fill="#E4E8ED"/>
<path d="M36.9276 48.9341H81.458V51.5179H36.9276V48.9341Z" fill="#E4E8ED"/>
<path d="M37.4061 36.207H55.166V38.7909H37.4061V36.207Z" fill="#E4E8ED"/>
<path d="M59.2542 36.207H81.458V38.7909H59.2542V36.207Z" fill="#E4E8ED"/>
<path d="M63.1357 30.1161C63.1357 30.1462 57.4212 30.1709 50.3734 30.1709C43.3231 30.1709 37.6097 30.1462 37.6097 30.1161C37.6097 30.0861 43.3231 30.0616 50.3734 30.0616C57.4212 30.0616 63.1357 30.0861 63.1357 30.1161Z" fill="#243137"/>
<path d="M81.6885 32.1493C81.6885 32.1797 71.8097 32.2041 59.6262 32.2041C47.4387 32.2041 37.5619 32.1797 37.5619 32.1493C37.5619 32.1193 47.4387 32.0948 59.6262 32.0948C71.8097 32.0948 81.6885 32.1193 81.6885 32.1493Z" fill="#243137"/>
<path d="M81.6885 34.0751C81.6885 34.1054 71.8097 34.1299 59.6262 34.1299C47.4387 34.1299 37.5619 34.1054 37.5619 34.0751C37.5619 34.0451 47.4387 34.0206 59.6262 34.0206C71.8097 34.0206 81.6885 34.0451 81.6885 34.0751Z" fill="#243137"/>
<path d="M55.0117 40.3676C55.0117 40.3976 51.039 40.4224 46.1395 40.4224C41.2383 40.4224 37.2662 40.3976 37.2662 40.3676C37.2662 40.3375 41.2383 40.3131 46.1395 40.3131C51.039 40.3131 55.0117 40.3375 55.0117 40.3676Z" fill="#243137"/>
<path d="M55.0117 42.3525C55.0117 42.3825 51.105 42.4072 46.2867 42.4072C41.4666 42.4072 37.5608 42.3825 37.5608 42.3525C37.5608 42.3224 41.4666 42.298 46.2867 42.298C51.105 42.298 55.0117 42.3224 55.0117 42.3525Z" fill="#243137"/>
<path d="M54.9395 44.3698C54.9395 44.3999 50.9991 44.4243 46.1397 44.4243C41.2784 44.4243 37.3391 44.3999 37.3391 44.3698C37.3391 44.3398 41.2784 44.3151 46.1397 44.3151C50.9991 44.3151 54.9395 44.3398 54.9395 44.3698Z" fill="#243137"/>
<path d="M54.9395 46.3276C54.9395 46.3576 50.9991 46.3823 46.1397 46.3823C41.2784 46.3823 37.3391 46.3576 37.3391 46.3276C37.3391 46.2975 41.2784 46.2731 46.1397 46.2731C50.9991 46.2731 54.9395 46.2975 54.9395 46.3276Z" fill="#243137"/>
<path d="M81.1162 40.8332C81.1162 40.8633 77.0014 40.8877 71.9263 40.8877C66.8502 40.8877 62.7362 40.8633 62.7362 40.8332C62.7362 40.8032 66.8502 40.7784 71.9263 40.7784C77.0014 40.7784 81.1162 40.8032 81.1162 40.8332Z" fill="#243137"/>
<path d="M61.3255 41.4657C61.3185 41.4587 61.3114 41.3253 61.3025 41.1025C61.2935 40.8793 61.2828 40.5692 61.2783 40.2001L61.3255 40.2473C60.9494 40.2496 60.5192 40.2521 60.06 40.2546C60.0479 40.2664 60.1633 40.1513 60.1144 40.2004V40.3723C60.1142 40.4293 60.1142 40.4858 60.1142 40.5417C60.1136 40.6529 60.113 40.7621 60.1125 40.8686C60.1105 41.0792 60.1088 41.2789 60.1071 41.4657L60.06 41.4185C60.429 41.423 60.7393 41.4337 60.9623 41.4427C61.1851 41.4516 61.3185 41.4587 61.3255 41.4657C61.3325 41.4727 61.2129 41.4797 60.9924 41.4887C60.7725 41.4977 60.4501 41.5084 60.06 41.5129L60.0131 41.5134L60.0128 41.4657C60.0111 41.2789 60.0091 41.0792 60.0072 40.8686C60.0069 40.7621 60.0063 40.6529 60.0057 40.5417C60.0057 40.4858 60.0055 40.4293 60.0055 40.3723L60.0052 40.2867V40.2004C59.9566 40.249 60.0718 40.1336 60.06 40.1454C60.5192 40.1482 60.9494 40.1507 61.3255 40.153L61.3732 40.1532L61.3727 40.2001C61.3682 40.59 61.3575 40.9127 61.3485 41.1326C61.3395 41.3531 61.3325 41.4727 61.3255 41.4657Z" fill="#243137"/>
<path d="M81.1162 43.2641C81.1162 43.2941 77.0014 43.3188 71.9266 43.3188C66.8505 43.3188 62.7365 43.2941 62.7365 43.2641C62.7365 43.234 66.8505 43.2093 71.9266 43.2093C77.0014 43.2093 81.1162 43.234 81.1162 43.2641Z" fill="#243137"/>
<path d="M61.3255 43.8968C61.3185 43.8898 61.3114 43.7564 61.3025 43.5337C61.2935 43.3107 61.2828 43.0003 61.2783 42.6313L61.3255 42.6785C60.9494 42.6807 60.5192 42.6833 60.06 42.6858C60.0479 42.6976 60.1633 42.5824 60.1144 42.6316V42.8035C60.1142 42.8605 60.1142 42.9169 60.1142 42.9728C60.1136 43.084 60.113 43.1933 60.1125 43.2997C60.1105 43.5104 60.1088 43.7101 60.1071 43.8968L60.06 43.8497C60.429 43.8541 60.7393 43.8648 60.9623 43.8738C61.1851 43.8828 61.3185 43.8898 61.3255 43.8968C61.3325 43.9039 61.2129 43.9109 60.9924 43.9201C60.7725 43.9289 60.4501 43.9395 60.06 43.944L60.0131 43.9446L60.0128 43.8968C60.0111 43.7101 60.0091 43.5104 60.0072 43.2997C60.0069 43.1933 60.0063 43.084 60.0057 42.9728C60.0057 42.9169 60.0055 42.8605 60.0055 42.8035L60.0052 42.7178V42.6316C59.9566 42.6802 60.0718 42.5647 60.06 42.5765C60.5192 42.5793 60.9494 42.5819 61.3255 42.5841L61.3732 42.5844L61.3727 42.6313C61.3682 43.0214 61.3575 43.3438 61.3485 43.5637C61.3395 43.7842 61.3325 43.9039 61.3255 43.8968Z" fill="#243137"/>
<path d="M81.1162 45.6952C81.1162 45.7253 77.0014 45.75 71.9266 45.75C66.8505 45.75 62.7362 45.7253 62.7362 45.6952C62.7362 45.6652 66.8505 45.6405 71.9266 45.6405C77.0014 45.6405 81.1162 45.6652 81.1162 45.6952Z" fill="#243137"/>
<path d="M61.3255 46.328C61.3185 46.321 61.3114 46.1876 61.3025 45.9648C61.2935 45.7418 61.2828 45.4315 61.2783 45.0625L61.3255 45.1096C60.9494 45.1119 60.5192 45.1144 60.06 45.1169C60.0479 45.1287 60.1633 45.0136 60.1144 45.0627V45.2346C60.1142 45.2916 60.1142 45.3481 60.1142 45.404C60.1136 45.5152 60.113 45.6244 60.1125 45.7309C60.1105 45.9415 60.1088 46.1412 60.1071 46.328L60.06 46.2808C60.429 46.2853 60.7393 46.296 60.9623 46.305C61.1851 46.3139 61.3185 46.321 61.3255 46.328C61.3325 46.335 61.2129 46.342 60.9924 46.3513C60.7725 46.36 60.4501 46.3707 60.06 46.3752L60.0131 46.3757L60.0128 46.328C60.0111 46.1412 60.0091 45.9415 60.0072 45.7309C60.0069 45.6244 60.0063 45.5152 60.0057 45.404C60.0057 45.3481 60.0055 45.2916 60.0055 45.2346L60.0052 45.149V45.0627C59.9566 45.1113 60.0718 44.9959 60.06 45.0077C60.5192 45.0105 60.9494 45.013 61.3255 45.0153L61.3732 45.0156L61.3727 45.0625C61.3682 45.4526 61.3575 45.775 61.3485 45.9949C61.3395 46.2154 61.3325 46.335 61.3255 46.328Z" fill="#243137"/>
<path d="M81.116 65.7951C81.116 65.7951 81.1138 65.7241 81.1127 65.5878C81.1118 65.4502 81.1107 65.2483 81.109 64.9829C81.1073 64.449 81.1045 63.6617 81.1009 62.638C81.0966 60.5917 81.0905 57.6034 81.0823 53.8248L81.116 53.8582C71.0783 53.8633 55.1566 53.8708 37.2712 53.8793H37.2686L37.3231 53.8248C37.3228 57.9435 37.3223 61.9581 37.322 65.7951L37.2686 65.7418C49.806 65.7516 60.7605 65.76 68.5831 65.7662C72.4971 65.7726 75.6273 65.7777 77.7809 65.7814C78.8574 65.7844 79.6893 65.7867 80.2544 65.7884C80.5355 65.7898 80.7495 65.7909 80.8958 65.7917C81.0405 65.7929 81.116 65.7951 81.116 65.7951C81.116 65.7951 81.045 65.7974 80.9026 65.7985C80.7579 65.7993 80.5459 65.8005 80.2678 65.8019C79.7053 65.8035 78.877 65.8058 77.8059 65.8089C75.6548 65.8125 72.5292 65.8176 68.6202 65.824C60.7883 65.8302 49.8209 65.8386 37.2686 65.8485H37.2153V65.7951C37.2147 61.9581 37.2144 57.9435 37.2139 53.8248V53.77H37.2712C55.1566 53.7787 71.0783 53.7863 81.116 53.7911H81.1497V53.8248C81.1416 57.6118 81.1354 60.6072 81.1309 62.658C81.1275 63.6783 81.1247 64.4633 81.1228 64.9952C81.1214 65.2581 81.1202 65.4581 81.1194 65.5946C81.1183 65.7286 81.116 65.7951 81.116 65.7951Z" fill="#243137"/>
<path d="M81.1162 56.8373C81.1162 56.8674 71.3273 56.8921 59.2547 56.8921C47.1782 56.8921 37.3913 56.8674 37.3913 56.8373C37.3913 56.8073 47.1782 56.7828 59.2547 56.7828C71.3273 56.7828 81.1162 56.8073 81.1162 56.8373Z" fill="#243137"/>
<path d="M81.1162 59.8098C81.1162 59.8398 71.3273 59.8643 59.2547 59.8643C47.1782 59.8643 37.3913 59.8398 37.3913 59.8098C37.3913 59.7797 47.1782 59.755 59.2547 59.755C71.3273 59.755 81.1162 59.7797 81.1162 59.8098Z" fill="#243137"/>
<path d="M81.1162 62.8147C81.1162 62.8447 71.3273 62.8691 59.2547 62.8691C47.1782 62.8691 37.3913 62.8447 37.3913 62.8147C37.3913 62.7846 47.1782 62.7599 59.2547 62.7599C71.3273 62.7599 81.1162 62.7846 81.1162 62.8147Z" fill="#243137"/>
<path d="M42.365 65.8996C42.335 65.8996 42.3105 63.1919 42.3105 59.8528C42.3105 56.5123 42.335 53.8052 42.365 53.8052C42.3951 53.8052 42.4198 56.5123 42.4198 59.8528C42.4198 63.1919 42.3951 65.8996 42.365 65.8996Z" fill="#243137"/>
<path d="M57.1925 65.5361C57.1624 65.5361 57.1377 62.9505 57.1377 59.762C57.1377 56.5723 57.1624 53.9873 57.1925 53.9873C57.2225 53.9873 57.2469 56.5723 57.2469 59.762C57.2469 62.9505 57.2225 65.5361 57.1925 65.5361Z" fill="#243137"/>
<path d="M72.8165 66.0814C72.7864 66.0814 72.7617 63.4144 72.7617 60.1253C72.7617 56.8354 72.7864 54.1689 72.8165 54.1689C72.8465 54.1689 72.871 56.8354 72.871 60.1253C72.871 63.4144 72.8465 66.0814 72.8165 66.0814Z" fill="#243137"/>
<path d="M72.3203 76.2591L85.3458 63.0918H72.3203V76.2591Z" fill="#F5F5F5"/>
<path d="M72.3205 76.2594C72.3188 75.8196 72.3 70.8159 72.2708 63.0921L72.2705 63.0424H72.3205C75.1063 63.041 78.2249 63.0393 81.5092 63.0376C82.8236 63.0379 84.1114 63.0379 85.346 63.0382L85.4755 63.0384L85.3842 63.13C81.6668 66.8704 78.3971 70.1601 76.0533 72.5181C73.7602 74.8167 72.5067 76.0726 72.3205 76.2594C72.507 76.0693 73.7624 74.7894 76.059 72.4477C78.3822 70.0882 81.623 66.7966 85.3078 63.0542L85.346 63.146C84.1114 63.1463 82.8236 63.1463 81.5092 63.1469C78.2249 63.1449 75.1063 63.1432 72.3205 63.1418L72.3702 63.0921C72.341 70.8162 72.3222 75.8199 72.3205 76.2594Z" fill="#243137"/>
<path d="M71.6768 68.4779C71.6768 68.508 64.0204 68.5327 54.578 68.5327C45.132 68.5327 37.4773 68.508 37.4773 68.4779C37.4773 68.4479 45.132 68.4232 54.578 68.4232C64.0204 68.4232 71.6768 68.4479 71.6768 68.4779Z" fill="#243137"/>
<path d="M71.6768 70.2079C71.6768 70.238 64.0204 70.2627 54.578 70.2627C45.1323 70.2627 37.4776 70.238 37.4776 70.2079C37.4776 70.1779 45.1323 70.1532 54.578 70.1532C64.0204 70.1532 71.6768 70.1779 71.6768 70.2079Z" fill="#243137"/>
<path d="M53.0391 71.9379C53.0391 71.968 49.5551 71.9927 45.2583 71.9927C40.96 71.9927 37.4769 71.968 37.4769 71.9379C37.4769 71.9079 40.96 71.8831 45.2583 71.8831C49.5551 71.8831 53.0391 71.9079 53.0391 71.9379Z" fill="#243137"/>
<path d="M42.3163 11.5046H40.3506V10.5728H45.3835V11.5046H43.4178V16.5036H42.3163V11.5046Z" fill="white"/>
<path d="M49.3991 14.2668L48.2807 11.6743L47.1708 14.2668H49.3991ZM49.7634 15.131H46.7981L46.2133 16.5036H45.0781L47.7468 10.5728H48.8315L51.5089 16.5036H50.3565L49.7634 15.131Z" fill="white"/>
<path d="M55.7017 16.5036L54.0919 14.25L52.4991 16.5036H51.2451L53.4479 13.4788L51.3636 10.5728H52.6092L54.1258 12.6825L55.6253 10.5728H56.8201L54.7443 13.4366L56.9726 16.5036H55.7017Z" fill="white"/>
<path d="M82.3467 5.18624C82.3467 5.21629 72.2334 5.24072 59.7611 5.24072C47.2844 5.24072 37.1737 5.21629 37.1737 5.18624C37.1737 5.15619 47.2844 5.13147 59.7611 5.13147C72.2334 5.13147 82.3467 5.15619 82.3467 5.18624Z" fill="#E4E8ED"/>
<path d="M59.915 6.00725C59.915 6.0373 54.8237 6.06201 48.5449 6.06201C42.2636 6.06201 37.1736 6.0373 37.1736 6.00725C37.1736 5.97719 42.2636 5.95276 48.5449 5.95276C54.8237 5.95276 59.915 5.97719 59.915 6.00725Z" fill="#E4E8ED"/>
<path d="M38.9284 9.32931C37.9937 9.32931 37.2334 8.52494 37.2334 7.53633V2.46184C37.2334 1.21624 38.1894 0.202637 39.3645 0.202637C40.5396 0.202637 41.4957 1.21624 41.4957 2.46184C41.4957 2.61715 41.3698 2.74269 41.2148 2.74269C41.0595 2.74269 40.9339 2.61715 40.9339 2.46184C40.9339 1.52575 40.2298 0.764347 39.3645 0.764347C38.4992 0.764347 37.7951 1.52575 37.7951 2.46184V7.53633C37.7951 8.21515 38.3035 8.7676 38.9284 8.7676C39.5476 8.7676 40.0563 8.22021 40.0616 7.54728L40.0835 4.88505C40.0849 4.73058 40.2105 4.60645 40.3644 4.60645H40.3669C40.5219 4.60757 40.6466 4.73452 40.6452 4.88955L40.6233 7.55177C40.6152 8.53196 39.8549 9.32931 38.9284 9.32931Z" fill="#243137"/>
<path d="M5.31915 74.9209H26.0117V79.0936H5.31915V74.9209Z" fill="#00A989"/>
<path d="M24.6809 74.9912C24.6332 74.9912 24.5913 75.8992 24.5913 77.0145C24.5913 78.1298 24.6332 79.0378 24.6809 79.0378C24.7287 79.0378 24.7705 78.1326 24.7705 77.0145C24.7705 75.8964 24.7315 74.9912 24.6809 74.9912Z" fill="#243137"/>
<path d="M22.7639 74.9912C22.7134 74.9912 22.6743 75.8992 22.6743 77.0145C22.6743 78.1298 22.7134 79.0378 22.7639 79.0378C22.8145 79.0378 22.8535 78.1326 22.8535 77.0145C22.8535 75.8964 22.8117 74.9912 22.7639 74.9912Z" fill="#243137"/>
<path d="M20.8665 74.9912C20.8159 74.9912 20.7769 75.8992 20.7769 77.0145C20.7769 78.1298 20.8159 79.0378 20.8665 79.0378C20.917 79.0378 20.9561 78.1326 20.9561 77.0145C20.9561 75.8964 20.917 74.9912 20.8665 74.9912Z" fill="#243137"/>
<path d="M18.9807 74.9912C18.9302 74.9912 18.8911 75.8992 18.8911 77.0145C18.8911 78.1298 18.9302 79.0378 18.9807 79.0378C19.0313 79.0378 19.0703 78.1326 19.0703 77.0145C19.0703 75.8964 19.0341 74.9912 18.9807 74.9912Z" fill="#243137"/>
<path d="M17.095 74.9912C17.0444 74.9912 17.0054 75.8992 17.0054 77.0145C17.0054 78.1298 17.0444 79.0378 17.095 79.0378C17.1455 79.0378 17.1846 78.1326 17.1846 77.0145C17.1846 75.8964 17.1455 74.9912 17.095 74.9912Z" fill="#243137"/>
<path d="M15.2092 74.9912C15.1587 74.9912 15.1196 75.8992 15.1196 77.0145C15.1196 78.1298 15.1587 79.0378 15.2092 79.0378C15.2598 79.0378 15.2988 78.1326 15.2988 77.0145C15.2988 75.8964 15.2598 74.9912 15.2092 74.9912Z" fill="#243137"/>
<path d="M13.3225 74.9912C13.272 74.9912 13.2329 75.8992 13.2329 77.0145C13.2329 78.1298 13.272 79.0378 13.3225 79.0378C13.3731 79.0378 13.4121 78.1326 13.4121 77.0145C13.4121 75.8964 13.3731 74.9912 13.3225 74.9912Z" fill="#243137"/>
<path d="M11.4368 74.9912C11.3862 74.9912 11.3472 75.8992 11.3472 77.0145C11.3472 78.1298 11.3862 79.0378 11.4368 79.0378C11.4873 79.0378 11.5264 78.1326 11.5264 77.0145C11.5264 75.8964 11.4873 74.9912 11.4368 74.9912Z" fill="#243137"/>
<path d="M9.55103 74.9912C9.50076 74.9912 9.46144 75.8992 9.46144 77.0145C9.46144 78.1298 9.50076 79.0378 9.55103 79.0378C9.60159 79.0378 9.64062 78.1326 9.64062 77.0145C9.64062 75.8964 9.60159 74.9912 9.55103 74.9912Z" fill="#243137"/>
<path d="M7.66529 74.9912C7.61474 74.9912 7.5757 75.8992 7.5757 77.0145C7.5757 78.1298 7.61474 79.0378 7.66529 79.0378C7.71584 79.0378 7.75488 78.1326 7.75488 77.0145C7.75488 75.8964 7.71584 74.9912 7.66529 74.9912Z" fill="#243137"/>
<path d="M5.77955 74.9912C5.72899 74.9912 5.68996 75.8992 5.68996 77.0145C5.68996 78.1298 5.72899 79.0378 5.77955 79.0378C5.82982 79.0378 5.86914 78.1326 5.86914 77.0145C5.86914 75.8964 5.82701 74.9912 5.77955 74.9912Z" fill="#243137"/>
<path d="M15.6295 74.8452C9.92393 74.8452 5.30273 74.8845 5.30273 74.9348C5.30273 74.9854 9.92673 75.0247 15.6295 75.0247C21.3323 75.0247 25.9588 74.9854 25.9588 74.9348" fill="#243137"/>
<path d="M4.85431 79.0234H25.5469V83.1961H4.85431V79.0234Z" fill="#00A989"/>
<path d="M24.219 79.0967C24.1684 79.0967 24.1294 80.0019 24.1294 81.1172C24.1294 82.2324 24.1684 83.1404 24.219 83.1404C24.2696 83.1404 24.3086 82.2352 24.3086 81.1172C24.3086 79.9991 24.2667 79.0967 24.219 79.0967Z" fill="#243137"/>
<path d="M22.2991 79.0967C22.2485 79.0967 22.2095 80.0019 22.2095 81.1172C22.2095 82.2324 22.2485 83.1404 22.2991 83.1404C22.3496 83.1404 22.3887 82.2352 22.3887 81.1172C22.3887 79.9991 22.3496 79.0967 22.2991 79.0967Z" fill="#243137"/>
<path d="M20.4016 79.0967C20.3539 79.0967 20.312 80.0019 20.312 81.1172C20.312 82.2324 20.3539 83.1404 20.4016 83.1404C20.4494 83.1404 20.4912 82.2352 20.4912 81.1172C20.4912 79.9991 20.4522 79.0967 20.4016 79.0967Z" fill="#243137"/>
<path d="M18.5159 79.0967C18.4653 79.0967 18.4263 80.0019 18.4263 81.1172C18.4263 82.2324 18.4653 83.1404 18.5159 83.1404C18.5661 83.1404 18.6055 82.2352 18.6055 81.1172C18.6055 79.9991 18.5661 79.0967 18.5159 79.0967Z" fill="#243137"/>
<path d="M16.6301 79.0967C16.5796 79.0967 16.5405 80.0019 16.5405 81.1172C16.5405 82.2324 16.5796 83.1404 16.6301 83.1404C16.6804 83.1404 16.7197 82.2352 16.7197 81.1172C16.7197 79.9991 16.6804 79.0967 16.6301 79.0967Z" fill="#243137"/>
<path d="M14.7434 79.0967C14.6931 79.0967 14.6538 80.0019 14.6538 81.1172C14.6538 82.2324 14.6931 83.1404 14.7434 83.1404C14.794 83.1404 14.833 82.2352 14.833 81.1172C14.833 79.9991 14.794 79.0967 14.7434 79.0967Z" fill="#243137"/>
<path d="M12.8694 79.0967C12.8188 79.0967 12.7798 80.0019 12.7798 81.1172C12.7798 82.2324 12.8188 83.1404 12.8694 83.1404C12.9199 83.1404 12.959 82.2352 12.959 81.1172C12.959 79.9991 12.9087 79.0967 12.8694 79.0967Z" fill="#243137"/>
<path d="M10.9719 79.0967C10.9214 79.0967 10.8823 80.0019 10.8823 81.1172C10.8823 82.2324 10.9214 83.1404 10.9719 83.1404C11.0225 83.1404 11.0615 82.2352 11.0615 81.1172C11.0615 79.9991 11.0225 79.0967 10.9719 79.0967Z" fill="#243137"/>
<path d="M9.08619 79.0967C9.03563 79.0967 8.9966 80.0019 8.9966 81.1172C8.9966 82.2324 9.03563 83.1404 9.08619 83.1404C9.13674 83.1404 9.17578 82.2352 9.17578 81.1172C9.17578 79.9991 9.13674 79.0967 9.08619 79.0967Z" fill="#243137"/>
<path d="M7.19947 79.0967C7.14892 79.0967 7.10988 80.0019 7.10988 81.1172C7.10988 82.2324 7.14892 83.1404 7.19947 83.1404C7.25002 83.1404 7.28906 82.2352 7.28906 81.1172C7.28906 79.9991 7.26379 79.0967 7.19947 79.0967Z" fill="#243137"/>
<path d="M5.30299 79.0967C5.25271 79.0967 5.21339 80.0019 5.21339 81.1172C5.21339 82.2324 5.25271 83.1404 5.30299 83.1404C5.35354 83.1404 5.39258 82.2352 5.39258 81.1172C5.39258 79.9991 5.36477 79.0967 5.30299 79.0967Z" fill="#243137"/>
<g opacity="0.3">
<path d="M25.2157 79.0293C18.5682 79.919 11.8319 79.919 5.18457 79.0293H25.2157Z" fill="black"/>
</g>
<path d="M4.84863 79.0378C4.84863 79.0884 9.47263 79.1274 15.1782 79.1274C20.8838 79.1274 25.505 79.0884 25.505 79.0378C25.505 78.9873 20.8838 78.9482 15.1782 78.9482C9.47235 78.9482 4.84863 79.0041 4.84863 79.0378Z" fill="#243137"/>
<path d="M6.8211 83.0615H27.5137V87.2342H6.8211V83.0615Z" fill="#00A989"/>
<path d="M26.1829 83.1318C26.1323 83.1318 26.0933 84.0398 26.0933 85.1551C26.0933 86.2704 26.1323 87.1784 26.1829 87.1784C26.2334 87.1784 26.2725 86.2732 26.2725 85.1551C26.2725 84.037 26.2306 83.1318 26.1829 83.1318Z" fill="#243137"/>
<path d="M24.2639 83.1318C24.2134 83.1318 24.1743 84.0398 24.1743 85.1551C24.1743 86.2704 24.2134 87.1784 24.2639 87.1784C24.3145 87.1784 24.3535 86.2732 24.3535 85.1551C24.3535 84.037 24.3145 83.1318 24.2639 83.1318Z" fill="#243137"/>
<path d="M22.3665 83.1318C22.3187 83.1318 22.2769 84.0398 22.2769 85.1551C22.2769 86.2704 22.3187 87.1784 22.3665 87.1784C22.4142 87.1784 22.4561 86.2732 22.4561 85.1551C22.4561 84.037 22.417 83.1318 22.3665 83.1318Z" fill="#243137"/>
<path d="M20.4797 83.1318C20.432 83.1318 20.3902 84.0398 20.3902 85.1551C20.3902 86.2704 20.432 87.1784 20.4797 87.1784C20.5275 87.1784 20.5693 86.2732 20.5693 85.1551C20.5693 84.037 20.5303 83.1318 20.4797 83.1318Z" fill="#243137"/>
<path d="M18.594 83.1318C18.5463 83.1318 18.5044 84.0398 18.5044 85.1551C18.5044 86.2704 18.5463 87.1784 18.594 87.1784C18.6417 87.1784 18.6836 86.2732 18.6836 85.1551C18.6836 84.037 18.6446 83.1318 18.594 83.1318Z" fill="#243137"/>
<path d="M16.7083 83.1318C16.6605 83.1318 16.6187 84.0398 16.6187 85.1551C16.6187 86.2704 16.6605 87.1784 16.7083 87.1784C16.756 87.1784 16.7979 86.2732 16.7979 85.1551C16.7979 84.037 16.7588 83.1318 16.7083 83.1318Z" fill="#243137"/>
<path d="M14.8303 83.1318C14.7798 83.1318 14.7407 84.0398 14.7407 85.1551C14.7407 86.2704 14.7798 87.1784 14.8303 87.1784C14.8809 87.1784 14.9199 86.2732 14.9199 85.1551C14.9199 84.037 14.8725 83.1318 14.8303 83.1318Z" fill="#243137"/>
<path d="M12.9358 83.1318C12.8852 83.1318 12.8462 84.0398 12.8462 85.1551C12.8462 86.2704 12.8852 87.1784 12.9358 87.1784C12.9864 87.1784 13.0254 86.2732 13.0254 85.1551C13.0254 84.037 12.9864 83.1318 12.9358 83.1318Z" fill="#243137"/>
<path d="M11.0501 83.1318C10.9995 83.1318 10.9605 84.0398 10.9605 85.1551C10.9605 86.2704 10.9995 87.1784 11.0501 87.1784C11.1006 87.1784 11.1396 86.2732 11.1396 85.1551C11.1396 84.037 11.1006 83.1318 11.0501 83.1318Z" fill="#243137"/>
<path d="M9.16431 83.1318C9.11376 83.1318 9.07472 84.0398 9.07472 85.1551C9.07472 86.2704 9.11376 87.1784 9.16431 87.1784C9.21487 87.1784 9.25391 86.2732 9.25391 85.1551C9.25391 84.037 9.22582 83.1318 9.16431 83.1318Z" fill="#243137"/>
<path d="M7.27857 83.1318C7.22802 83.1318 7.18898 84.0398 7.18898 85.1551C7.18898 86.2704 7.22802 87.1784 7.27857 87.1784C7.32913 87.1784 7.36816 86.2732 7.36816 85.1551C7.36816 84.037 7.32913 83.1318 7.27857 83.1318Z" fill="#243137"/>
<g opacity="0.3">
<path d="M27.1806 83.0674C20.5333 83.9571 13.7967 83.9571 7.14941 83.0674H27.1806Z" fill="black"/>
</g>
<path d="M6.81348 83.0759C6.81348 83.1265 11.4375 83.1655 17.143 83.1655C22.8486 83.1655 27.4698 83.1265 27.4698 83.0759C27.4698 83.0254 22.8486 82.9863 17.143 82.9863C11.4375 82.9863 6.81348 83.0282 6.81348 83.0759Z" fill="#243137"/>
<path d="M4.39727 87.2036H25.0898V91.2165H4.39727V87.2036Z" fill="#00A989"/>
<path d="M23.759 87.2734C23.7085 87.2734 23.6694 88.1421 23.6694 89.2184C23.6694 90.2943 23.7085 91.163 23.759 91.163C23.8096 91.163 23.8486 90.2915 23.8486 89.2184C23.8486 88.1449 23.7984 87.2734 23.759 87.2734Z" fill="#243137"/>
<path d="M21.8362 87.2734C21.7856 87.2734 21.7466 88.1421 21.7466 89.2184C21.7466 90.2943 21.7856 91.163 21.8362 91.163C21.8867 91.163 21.9258 90.2915 21.9258 89.2184C21.9258 88.1449 21.8896 87.2734 21.8362 87.2734Z" fill="#243137"/>
<path d="M19.9417 87.2734C19.8939 87.2734 19.8521 88.1421 19.8521 89.2184C19.8521 90.2943 19.8939 91.163 19.9417 91.163C19.9894 91.163 20.0312 90.2915 20.0312 89.2184C20.0312 88.1449 19.9922 87.2734 19.9417 87.2734Z" fill="#243137"/>
<path d="M18.0559 87.2734C18.0082 87.2734 17.9663 88.1421 17.9663 89.2184C17.9663 90.2943 18.0082 91.163 18.0559 91.163C18.1037 91.163 18.1455 90.2915 18.1455 89.2184C18.1455 88.1449 18.1065 87.2734 18.0559 87.2734Z" fill="#243137"/>
<path d="M16.1702 87.2734C16.1224 87.2734 16.0806 88.1421 16.0806 89.2184C16.0806 90.2943 16.1224 91.163 16.1702 91.163C16.2179 91.163 16.2598 90.2915 16.2598 89.2184C16.2598 88.1449 16.232 87.2734 16.1702 87.2734Z" fill="#243137"/>
<path d="M14.2844 87.2734C14.2339 87.2734 14.1948 88.1421 14.1948 89.2184C14.1948 90.2943 14.2339 91.163 14.2844 91.163C14.335 91.163 14.374 90.2915 14.374 89.2184C14.374 88.1449 14.335 87.2734 14.2844 87.2734Z" fill="#243137"/>
<path d="M12.3987 87.2734C12.3481 87.2734 12.3091 88.1421 12.3091 89.2184C12.3091 90.2943 12.3481 91.163 12.3987 91.163C12.4492 91.163 12.4883 90.2915 12.4883 89.2184C12.4883 88.1449 12.4492 87.2734 12.3987 87.2734Z" fill="#243137"/>
<path d="M10.512 87.2734C10.4614 87.2734 10.4224 88.1421 10.4224 89.2184C10.4224 90.2943 10.4614 91.163 10.512 91.163C10.5625 91.163 10.6016 90.2915 10.6016 89.2184C10.6016 88.1449 10.5625 87.2734 10.512 87.2734Z" fill="#243137"/>
<path d="M8.62623 87.2734C8.57567 87.2734 8.53663 88.1421 8.53663 89.2184C8.53663 90.2943 8.57567 91.163 8.62623 91.163C8.6765 91.163 8.71582 90.2915 8.71582 89.2184C8.71582 88.1449 8.66555 87.2734 8.62623 87.2734Z" fill="#243137"/>
<path d="M6.74049 87.2734C6.68993 87.2734 6.65089 88.1421 6.65089 89.2184C6.65089 90.2943 6.68993 91.163 6.74049 91.163C6.79104 91.163 6.83008 90.2915 6.83008 89.2184C6.83008 88.1449 6.79104 87.2734 6.74049 87.2734Z" fill="#243137"/>
<path d="M4.85474 87.2734C4.80419 87.2734 4.76515 88.1421 4.76515 89.2184C4.76515 90.2943 4.80419 91.163 4.85474 91.163C4.9053 91.163 4.94434 90.2915 4.94434 89.2184C4.94434 88.1449 4.9053 87.2734 4.85474 87.2734Z" fill="#243137"/>
<g opacity="0.3">
<path d="M24.7567 87.2095C18.128 88.3472 11.354 88.3472 4.72559 87.2095H24.7567Z" fill="black"/>
</g>
<path d="M4.38867 87.2176C4.38867 87.2682 9.01267 87.3072 14.7182 87.3072C20.4235 87.3072 25.045 87.2682 25.045 87.2176C25.045 87.1671 20.4348 87.1309 14.7182 87.1309C9.00144 87.1309 4.38867 87.1671 4.38867 87.2176Z" fill="#243137"/>
<path d="M5.7254 91.2192H26.418V95.2321H5.7254V91.2192Z" fill="#00A989"/>
<path d="M25.0873 91.2866C25.0395 91.2866 24.9977 92.1581 24.9977 93.2344C24.9977 94.3103 25.0395 95.179 25.0873 95.179C25.135 95.179 25.1797 94.3075 25.1797 93.2344C25.1797 92.1609 25.1376 91.2866 25.0873 91.2866Z" fill="#243137"/>
<path d="M23.1702 91.2866C23.1196 91.2866 23.0806 92.1581 23.0806 93.2344C23.0806 94.3103 23.1196 95.179 23.1702 95.179C23.2207 95.179 23.2598 94.3075 23.2598 93.2344C23.2598 92.1609 23.2176 91.2866 23.1702 91.2866Z" fill="#243137"/>
<path d="M21.2756 91.2866C21.2251 91.2866 21.186 92.1581 21.186 93.2344C21.186 94.3103 21.2251 95.179 21.2756 95.179C21.3262 95.179 21.3652 94.3075 21.3652 93.2344C21.3652 92.1609 21.3234 91.2866 21.2756 91.2866Z" fill="#243137"/>
<path d="M19.387 91.2866C19.3364 91.2866 19.2974 92.1581 19.2974 93.2344C19.2974 94.3103 19.3364 95.179 19.387 95.179C19.4375 95.179 19.4766 94.3075 19.4766 93.2344C19.4766 92.1609 19.4375 91.2866 19.387 91.2866Z" fill="#243137"/>
<path d="M17.5012 91.2866C17.4507 91.2866 17.4116 92.1581 17.4116 93.2344C17.4116 94.3103 17.4507 95.179 17.5012 95.179C17.5518 95.179 17.5908 94.3075 17.5908 93.2344C17.5908 92.1609 17.5518 91.2866 17.5012 91.2866Z" fill="#243137"/>
<path d="M15.6155 91.2866C15.5649 91.2866 15.5259 92.1581 15.5259 93.2344C15.5259 94.3103 15.5649 95.179 15.6155 95.179C15.666 95.179 15.7051 94.3075 15.7051 93.2344C15.7051 92.1609 15.6717 91.2866 15.6155 91.2866Z" fill="#243137"/>
<path d="M13.7297 91.2866C13.6792 91.2866 13.6402 92.1581 13.6402 93.2344C13.6402 94.3103 13.6792 95.179 13.7297 95.179C13.7803 95.179 13.8193 94.3075 13.8193 93.2344C13.8193 92.1609 13.7803 91.2866 13.7297 91.2866Z" fill="#243137"/>
<path d="M11.843 91.2866C11.7925 91.2866 11.7534 92.1581 11.7534 93.2344C11.7534 94.3103 11.7925 95.179 11.843 95.179C11.8936 95.179 11.9326 94.3075 11.9326 93.2344C11.9326 92.1609 11.8936 91.2866 11.843 91.2866Z" fill="#243137"/>
<path d="M9.95728 91.2866C9.90673 91.2866 9.86769 92.1581 9.86769 93.2344C9.86769 94.3103 9.90673 95.179 9.95728 95.179C10.0078 95.179 10.0469 94.3075 10.0469 93.2344C10.0469 92.1609 10.0078 91.2866 9.95728 91.2866Z" fill="#243137"/>
<path d="M8.07154 91.2866C8.02099 91.2866 7.98195 92.1581 7.98195 93.2344C7.98195 94.3103 8.02099 95.179 8.07154 95.179C8.12209 95.179 8.16113 94.3075 8.16113 93.2344C8.16113 92.1609 8.12209 91.2866 8.07154 91.2866Z" fill="#243137"/>
<path d="M6.1858 91.2866C6.13524 91.2866 6.09621 92.1581 6.09621 93.2344C6.09621 94.3103 6.13524 95.179 6.1858 95.179C6.23635 95.179 6.27539 94.3075 6.27539 93.2344C6.27539 92.1609 6.23354 91.2866 6.1858 91.2866Z" fill="#243137"/>
<g opacity="0.3">
<path d="M26.085 91.2251C19.4708 92.5128 12.6708 92.5128 6.05664 91.2251H26.085Z" fill="black"/>
</g>
<path d="M5.71973 91.2336C5.71973 91.2842 10.3437 91.3232 16.0465 91.3232C21.7493 91.3232 26.3761 91.2842 26.3761 91.2336C26.3761 91.1834 21.7518 91.144 16.0465 91.144C10.3409 91.144 5.71973 91.1831 5.71973 91.2336Z" fill="#243137"/>
<path d="M27.9768 58.4913C23.8068 60.6943 18.9384 59.6635 17.1024 56.1887C15.2662 52.7134 17.1582 48.1107 21.3281 45.9075C25.4982 43.7042 30.3668 44.7352 32.2026 48.2104C34.0385 51.6852 32.1469 56.288 27.9768 58.4913Z" fill="#00A989"/>
<g opacity="0.2">
<path d="M27.9768 58.4913C23.8068 60.6943 18.9384 59.6635 17.1024 56.1887C15.2662 52.7134 17.1582 48.1107 21.3281 45.9075C25.4982 43.7042 30.3668 44.7352 32.2026 48.2104C34.0385 51.6852 32.1469 56.288 27.9768 58.4913Z" fill="black"/>
</g>
<path d="M27.3323 57.2721C23.1625 59.4749 18.2938 58.4442 16.4578 54.9692C14.6217 51.4941 16.5139 46.8913 20.6835 44.6882C24.8536 42.4849 29.7222 43.516 31.5583 46.991C33.3942 50.4658 31.5024 55.0688 27.3323 57.2721Z" fill="#00A989"/>
<g opacity="0.1">
<path d="M32.2562 50.0548C32.2873 48.9971 32.066 47.9509 31.5588 46.9909C29.7228 43.5159 24.8542 42.4851 20.6841 44.6885C18.9799 45.5889 17.6568 46.8904 16.8125 48.3516C18.2662 49.8503 20.0168 51.0361 21.9662 51.8073C23.8951 52.5707 25.906 52.7743 27.8877 52.0724C29.2552 51.5882 31.0521 51.0695 32.2562 50.0548Z" fill="white"/>
</g>
<path d="M26.6005 55.548C23.3958 57.2411 19.6746 56.4879 18.2889 53.865C16.9033 51.2425 18.3778 47.7434 21.5824 46.0503C24.7873 44.357 28.5084 45.1106 29.8941 47.7335C31.28 50.3559 29.8054 53.8547 26.6005 55.548Z" fill="#00A989"/>
<g opacity="0.2">
<path d="M26.6005 55.548C23.3958 57.2411 19.6746 56.4879 18.2889 53.865C16.9033 51.2425 18.3778 47.7434 21.5824 46.0503C24.7873 44.357 28.5084 45.1106 29.8941 47.7335C31.28 50.3559 29.8054 53.8547 26.6005 55.548Z" fill="black"/>
</g>
<path d="M26.5818 55.8518C23.4543 57.5042 19.8309 56.7844 18.4888 54.2443C17.1466 51.7039 18.5938 48.3053 21.7215 46.6528C24.849 45.0007 28.472 45.7202 29.8141 48.2603C31.1563 50.8006 29.7092 54.1994 26.5818 55.8518Z" fill="#00A989"/>
<g opacity="0.2">
<path d="M26.5818 55.8513C23.4543 57.5037 19.8309 56.7839 18.4888 54.2438C17.1466 51.7034 18.5938 48.3049 21.7215 46.6524C24.849 45.0002 28.472 45.7197 29.8141 48.2598C31.1563 50.8002 29.7092 54.199 26.5818 55.8513Z" fill="white"/>
</g>
<path d="M22.7306 52.3097L24.0476 51.6138C24.1085 52.0356 24.0751 52.3861 23.7105 52.5788C23.3904 52.7479 23.0407 52.6982 22.7306 52.3097ZM24.848 50.5707C24.7932 50.1609 24.8227 49.82 25.1797 49.6312C25.5072 49.4582 25.8689 49.4942 26.1725 49.8708L24.848 50.5707ZM24.948 51.1383L26.4497 50.3446C26.4508 50.3466 26.4517 50.3485 26.4528 50.3505C26.5323 50.5738 26.5761 50.8251 26.58 51.0948C26.5581 51.3332 26.5014 51.5166 26.5014 51.5166L26.5559 51.5079L27.194 51.4065L27.3406 51.3832L27.5094 51.0217L27.3973 50.9501C27.4237 50.6024 27.3956 50.237 27.2546 49.9194L28.0806 49.4829L28.1798 49.1692L27.9725 49.2788L27.8245 48.9982L26.9836 49.4425C26.3846 48.5786 25.4912 48.491 24.732 48.892C23.6979 49.4386 23.8018 50.2837 23.9476 51.0465L22.4596 51.8326C22.2742 51.3557 22.2557 50.7982 22.4001 50.3511L21.5081 50.4819C21.3356 50.9664 21.3943 51.6539 21.6558 52.2572L21.0323 52.5867L20.9053 52.3586L20.8301 52.6937L21.0862 53.1787L21.9195 52.7383C22.5293 53.6039 23.4184 53.7014 24.1773 53.3003C25.2117 52.7541 25.094 51.9008 24.948 51.1383Z" fill="#00A989"/>
<g opacity="0.3">
<path d="M22.7306 52.3097L24.0476 51.6138C24.1085 52.0356 24.0751 52.3861 23.7105 52.5788C23.3904 52.7479 23.0407 52.6982 22.7306 52.3097ZM24.848 50.5707C24.7932 50.1609 24.8227 49.82 25.1797 49.6312C25.5072 49.4582 25.8689 49.4942 26.1725 49.8708L24.848 50.5707ZM24.948 51.1383L26.4497 50.3446C26.4508 50.3466 26.4517 50.3485 26.4528 50.3505C26.5323 50.5738 26.5761 50.8251 26.58 51.0948C26.5581 51.3332 26.5014 51.5166 26.5014 51.5166L26.5559 51.5079L27.194 51.4065L27.3406 51.3832L27.5094 51.0217L27.3973 50.9501C27.4237 50.6024 27.3956 50.237 27.2546 49.9194L28.0806 49.4829L28.1798 49.1692L27.9725 49.2788L27.8245 48.9982L26.9836 49.4425C26.3846 48.5786 25.4912 48.491 24.732 48.892C23.6979 49.4386 23.8018 50.2837 23.9476 51.0465L22.4596 51.8326C22.2742 51.3557 22.2557 50.7982 22.4001 50.3511L21.5081 50.4819C21.3356 50.9664 21.3943 51.6539 21.6558 52.2572L21.0323 52.5867L20.9053 52.3586L20.8301 52.6937L21.0862 53.1787L21.9195 52.7383C22.5293 53.6039 23.4184 53.7014 24.1773 53.3003C25.2117 52.7541 25.094 51.9008 24.948 51.1383Z" fill="black"/>
</g>
<path d="M23.8094 52.2699C24.174 52.0773 24.2077 51.7268 24.1465 51.3049L22.8295 52.0009C23.1396 52.3893 23.4895 52.439 23.8094 52.2699ZM24.9472 50.2621L26.2714 49.5619C25.9678 49.1853 25.6061 49.1493 25.2789 49.3224C24.9216 49.5111 24.8924 49.8518 24.9472 50.2621ZM22.0184 52.4295L21.1849 52.8698L20.9287 52.3851L21.7547 51.9483C21.4932 51.3451 21.4343 50.6575 21.607 50.1733L22.499 50.0419C22.3543 50.489 22.3729 51.0468 22.5588 51.5237L24.0468 50.7376C23.9007 49.9748 23.7965 49.1294 24.8312 48.5829C25.5901 48.1818 26.4835 48.2697 27.0825 49.1333L27.9234 48.6893L28.1795 49.1741L27.3536 49.6105C27.5552 50.0638 27.626 50.5938 27.5339 51.051L26.6545 51.2055C26.7194 50.7702 26.6711 50.3722 26.55 50.0352L25.0469 50.8291C25.1929 51.5919 25.3106 52.4452 24.2762 52.9917C23.5174 53.3928 22.6279 53.295 22.0184 52.4295Z" fill="#7AEBDB"/>
<path d="M30.3371 50.9634C30.3419 50.9643 30.3337 51.0171 30.3141 51.117C30.2902 51.2159 30.2731 51.3667 30.2121 51.551C30.1147 51.9256 29.9133 52.455 29.5684 53.0583C29.2258 53.6619 28.7087 54.3219 28.0198 54.9319C27.6701 55.2299 27.2834 55.5223 26.8492 55.7728C26.4144 56.0216 25.94 56.2373 25.4348 56.4022C24.426 56.7207 23.4104 56.8858 22.4889 56.8204C21.5654 56.7718 20.76 56.4713 20.1775 56.0907C19.5891 55.7104 19.2223 55.2706 18.9858 54.9662C18.8732 54.8086 18.7971 54.6783 18.742 54.5929C18.6884 54.5064 18.6622 54.4598 18.6665 54.4573C18.6704 54.4547 18.7044 54.4966 18.765 54.5777C18.8274 54.6578 18.9102 54.7825 19.0282 54.9336C19.2751 55.2251 19.6478 55.6475 20.2294 56.0087C20.806 56.3702 21.5921 56.653 22.4965 56.694C23.3986 56.7513 24.3967 56.5859 25.3929 56.2713C25.8886 56.1095 26.354 55.8989 26.7818 55.6562C27.2089 55.4119 27.5903 55.1268 27.9369 54.8364C28.6188 54.2413 29.1362 53.5981 29.485 53.0086C29.8358 52.4202 30.0487 51.9023 30.161 51.5355C30.2784 51.1696 30.3236 50.9603 30.3371 50.9634Z" fill="#243137"/>
<path d="M19.8958 45.2604C19.8904 45.2525 19.9621 45.1963 20.096 45.1011C20.2292 45.0045 20.4311 44.8778 20.6878 44.7337C21.2001 44.445 21.95 44.1114 22.8229 43.8875C23.6966 43.6659 24.5147 43.5999 25.1028 43.6081C25.3972 43.6115 25.6351 43.6261 25.7982 43.6474C25.9614 43.6665 26.051 43.6817 26.0502 43.6912C26.0482 43.7145 25.6865 43.6876 25.104 43.7053C24.522 43.7218 23.7179 43.8024 22.8568 44.0207C21.9966 44.2414 21.2523 44.5557 20.7333 44.8197C20.2134 45.0831 19.9087 45.28 19.8958 45.2604Z" fill="white"/>
<path d="M17.9559 47.1754C17.9275 47.1503 18.1213 46.8839 18.3888 46.5805C18.6565 46.277 18.8968 46.0512 18.9251 46.0765C18.9533 46.1014 18.7597 46.3676 18.492 46.6712C18.2245 46.9749 17.9841 47.2003 17.9559 47.1754Z" fill="white"/>
<path d="M30.0025 49.6553C29.9772 49.6617 29.907 49.3508 29.6953 48.8899C29.5916 48.6585 29.4416 48.3962 29.2529 48.1204C29.0583 47.8488 28.8218 47.5665 28.5409 47.3023C28.2564 47.0416 27.9573 46.8265 27.672 46.6524C27.3833 46.4844 27.1103 46.3541 26.8721 46.2679C26.3969 46.0906 26.0815 46.0437 26.086 46.0179C26.0874 46.0086 26.1666 46.0148 26.3098 46.0342C26.4533 46.0505 26.6578 46.0977 26.9041 46.1763C27.1515 46.2524 27.4358 46.3766 27.7357 46.5428C28.032 46.7153 28.3421 46.9335 28.6342 47.2017C28.9229 47.4733 29.1636 47.7662 29.3574 48.0488C29.5453 48.3358 29.6899 48.6099 29.7843 48.8512C29.8809 49.0907 29.943 49.2916 29.9697 49.4334C29.9997 49.5747 30.0118 49.6533 30.0025 49.6553Z" fill="white"/>
<path d="M25.0473 48.8884C25.0338 48.8783 25.0605 48.8095 25.145 48.728C25.2281 48.6469 25.3745 48.5629 25.5522 48.5345C25.73 48.507 25.8952 48.5421 25.9991 48.5938C26.1044 48.6452 26.151 48.7025 26.1415 48.7162C26.121 48.7497 25.8836 48.6165 25.5736 48.6705C25.2618 48.7143 25.0767 48.914 25.0473 48.8884Z" fill="white"/>
<path d="M21.8305 50.5445C21.8128 50.5479 21.7895 50.5285 21.7841 50.4855C21.7785 50.4431 21.7985 50.3825 21.8459 50.3398C21.8931 50.2971 21.9557 50.2836 21.997 50.2937C22.0394 50.3036 22.0563 50.3288 22.0509 50.346C22.0355 50.3816 21.9827 50.3976 21.9378 50.442C21.8892 50.4822 21.8675 50.5327 21.8305 50.5445Z" fill="white"/>
<path d="M17.1731 66.7973C16.2809 65.024 14.0649 62.9945 11.1642 61.333C8.26384 59.6714 5.39238 58.7865 3.41123 58.914L2.17041 58.2031L1.10204 60.0683C-0.0553675 62.0888 2.64253 65.8098 7.12807 68.3791C11.6136 70.9486 16.1879 71.3935 17.3453 69.373L18.4137 67.5081L17.1731 66.7973Z" fill="#00A989"/>
<g opacity="0.3">
<path d="M17.1731 66.7973C16.2809 65.024 14.0649 62.9945 11.1642 61.333C8.26384 59.6714 5.39238 58.7865 3.41123 58.914L2.17041 58.2031L1.10204 60.0683C-0.0553675 62.0888 2.64253 65.8098 7.12807 68.3791C11.6136 70.9486 16.1879 71.3935 17.3453 69.373L18.4137 67.5081L17.1731 66.7973Z" fill="black"/>
</g>
<path d="M8.12158 66.6461C3.63616 64.0763 0.937304 60.3574 2.09365 58.3389C3.24961 56.3204 7.82332 56.767 12.3089 59.3365C16.7942 61.906 19.4929 65.6251 18.3366 67.6436C17.1806 69.6621 12.6069 69.2155 8.12158 66.6461Z" fill="#00A989"/>
<g opacity="0.1">
<path d="M6.88723 59.7988C7.48095 60.5501 8.07159 61.3466 8.76811 62.008C11.254 64.368 14.8245 65.524 18.149 64.8657C17.2637 63.043 15.1441 60.9604 12.3091 59.3365C9.59495 57.7814 6.84959 57.0054 4.84766 57.0812C5.50064 58.0067 6.18509 58.9107 6.88723 59.7988Z" fill="white"/>
</g>
<path d="M9.11964 65.2523C5.67242 63.2776 3.26802 61.0142 4.04487 59.6582C4.86946 58.2188 8.48519 58.3671 11.9324 60.3421C15.3799 62.3168 17.5445 65.0169 16.7679 66.3726C16.5775 66.7051 16.3702 67.0672 15.4633 67.3292C14.0321 67.7432 11.7209 66.7425 9.11964 65.2523Z" fill="#00A989"/>
<g opacity="0.3">
<path d="M9.11964 65.2523C5.67242 63.2776 3.26802 61.0142 4.04487 59.6582C4.86946 58.2188 8.48519 58.3671 11.9324 60.3421C15.3799 62.3168 17.5445 65.0169 16.7679 66.3726C16.5775 66.7051 16.3702 67.0672 15.4633 67.3292C14.0321 67.7432 11.7209 66.7425 9.11964 65.2523Z" fill="black"/>
</g>
<path d="M8.64797 65.7262C5.2838 63.7987 3.18639 61.1375 3.963 59.7818C4.73975 58.4258 8.09652 58.8886 11.4608 60.8158C14.8247 62.7432 16.9222 65.4044 16.1454 66.7604C15.3688 68.1161 12.012 67.6533 8.64797 65.7262Z" fill="#00A989"/>
<g opacity="0.2">
<path d="M8.64797 65.7262C5.2838 63.7987 3.18639 61.1375 3.963 59.7818C4.73975 58.4258 8.09652 58.8886 11.4608 60.8158C14.8247 62.7432 16.9222 65.4044 16.1454 66.7604C15.3688 68.1161 12.012 67.6533 8.64797 65.7262Z" fill="white"/>
</g>
<path d="M8.32583 62.5816L9.65034 63.3172C9.3723 63.5183 9.08948 63.6222 8.72268 63.4186C8.40082 63.24 8.22444 62.958 8.32583 62.5816ZM10.9195 63.5357C11.1925 63.3436 11.4655 63.24 11.8247 63.4397C12.1539 63.6225 12.3477 63.9078 12.2513 64.2755L10.9195 63.5357ZM10.5558 63.8199L12.0663 64.6586C12.0657 64.6603 12.0646 64.6617 12.064 64.6631C11.9452 64.8052 11.784 64.9307 11.5849 65.0332C11.3931 65.1043 11.2212 65.129 11.2212 65.129L11.261 65.1672L11.7264 65.6101L11.8334 65.7121L12.2067 65.7062L12.1921 65.5952C12.4684 65.4871 12.7246 65.3312 12.8757 65.1082L13.7065 65.5694L14.0019 65.5287L13.7935 65.4129L13.9129 65.1978L13.0672 64.7282C13.3475 63.9592 12.8675 63.254 12.1042 62.8302C11.0642 62.2525 10.4952 62.642 10.0141 63.033L8.51737 62.2019C8.76088 61.8865 9.16671 61.6672 9.58912 61.6113L8.94652 60.9878C8.4789 61.0364 8.0006 61.3338 7.70907 61.7528L7.08164 61.4046L7.17489 61.2251L6.8783 61.2917L6.67188 61.6632L7.51023 62.1286C7.23499 62.9066 7.70458 63.6121 8.46794 64.0359C9.50823 64.6136 10.0747 64.2109 10.5558 63.8199Z" fill="#00A989"/>
<g opacity="0.3">
<path d="M8.32583 62.5816L9.65034 63.3172C9.3723 63.5183 9.08948 63.6222 8.72268 63.4186C8.40082 63.24 8.22444 62.958 8.32583 62.5816ZM10.9195 63.5357C11.1925 63.3436 11.4655 63.24 11.8247 63.4397C12.1539 63.6225 12.3477 63.9078 12.2513 64.2755L10.9195 63.5357ZM10.5558 63.8199L12.0663 64.6586C12.0657 64.6603 12.0646 64.6617 12.064 64.6631C11.9452 64.8052 11.784 64.9307 11.5849 65.0332C11.3931 65.1043 11.2212 65.129 11.2212 65.129L11.261 65.1672L11.7264 65.6101L11.8334 65.7121L12.2067 65.7062L12.1921 65.5952C12.4684 65.4871 12.7246 65.3312 12.8757 65.1082L13.7065 65.5694L14.0019 65.5287L13.7935 65.4129L13.9129 65.1978L13.0672 64.7282C13.3475 63.9592 12.8675 63.254 12.1042 62.8302C11.0642 62.2525 10.4952 62.642 10.0141 63.033L8.51737 62.2019C8.76088 61.8865 9.16671 61.6672 9.58912 61.6113L8.94652 60.9878C8.4789 61.0364 8.0006 61.3338 7.70907 61.7528L7.08164 61.4046L7.17489 61.2251L6.8783 61.2917L6.67188 61.6632L7.51023 62.1286C7.23499 62.9066 7.70458 63.6121 8.46794 64.0359C9.50823 64.6136 10.0747 64.2109 10.5558 63.8199Z" fill="black"/>
</g>
<path d="M11.1853 63.5602L12.4694 64.3814C12.5882 64.0205 12.4124 63.7234 12.095 63.5203C11.7487 63.299 11.4701 63.3852 11.1853 63.5602ZM8.9997 63.3066C9.3533 63.533 9.64202 63.4467 9.93214 63.2631L8.65566 62.4463C8.53096 62.8162 8.68936 63.1083 8.9997 63.3066ZM7.86926 61.9436L7.06152 61.4268L7.29042 61.069L8.09114 61.581C8.40794 61.1808 8.90421 60.9134 9.3738 60.894L9.9768 61.5566C9.5513 61.5861 9.13283 61.7796 8.86995 62.0793L10.3127 63.0021C10.8174 62.6418 11.4094 62.2882 12.4118 62.9294C13.1477 63.4001 13.583 64.134 13.2555 64.8844L14.0705 65.4057L13.8416 65.7635L13.0409 65.2515C12.8053 65.5562 12.4374 65.782 12.0341 65.8565L11.4198 65.2113C11.7917 65.1232 12.0706 64.9569 12.2618 64.7533L10.805 63.8211C10.3001 64.1815 9.70971 64.5485 8.70705 63.9073C7.97121 63.4366 7.54628 62.703 7.86926 61.9436Z" fill="#7AEBDB"/>
<path d="M14.7186 67.5884C14.7183 67.5921 14.679 67.5918 14.6049 67.5879C14.5184 67.5817 14.4111 67.5741 14.2799 67.5649C14.1387 67.5556 13.9665 67.5387 13.7674 67.5112C13.5677 67.4865 13.3402 67.4587 13.0913 67.4115C12.0957 67.2447 10.7221 66.8832 9.35204 66.1547C7.97838 65.4354 6.87406 64.5566 6.11519 63.8916C5.73828 63.554 5.43664 63.277 5.23808 63.0757C5.14539 62.9827 5.06928 62.9066 5.00805 62.8454C4.9561 62.792 4.93026 62.7625 4.93279 62.76C4.93559 62.7572 4.96649 62.7813 5.02322 62.8296C5.0881 62.8869 5.1687 62.958 5.267 63.0451C5.47427 63.2369 5.78293 63.5043 6.1649 63.8334C6.93472 64.4819 8.03989 65.3455 9.40203 66.0586C10.7605 66.781 12.1176 67.1509 13.1051 67.3362C13.352 67.3882 13.5775 67.4211 13.7755 67.4511C13.9732 67.4845 14.1443 67.5073 14.2844 67.523C14.4145 67.5404 14.5209 67.5547 14.6068 67.566C14.6804 67.5772 14.7189 67.5848 14.7186 67.5884Z" fill="#243137"/>
<path d="M6.26711 65.4533C6.26262 65.4589 6.16011 65.3881 5.98036 65.2522C5.80089 65.1162 5.54531 64.9137 5.23862 64.6523C4.6286 64.1282 3.80176 63.3713 3.04626 62.3942C2.66992 61.9058 2.35424 61.4036 2.13601 60.9127C1.91723 60.4234 1.7973 59.9432 1.79196 59.5345C1.78073 59.1253 1.87117 58.7995 1.96048 58.592C2.00008 58.4855 2.04754 58.4105 2.07675 58.3589C2.1068 58.3075 2.12394 58.2813 2.12702 58.2833C2.13826 58.2892 2.07338 58.3968 1.9998 58.6071C1.92397 58.8155 1.84785 59.1346 1.86864 59.5317C1.88324 59.9283 2.00738 60.3937 2.22701 60.8717C2.44608 61.3511 2.75951 61.8446 3.13192 62.3282C3.87984 63.2957 4.69404 64.0577 5.28917 64.5947C5.58828 64.8623 5.83572 65.0735 6.00676 65.2193C6.17808 65.3651 6.27189 65.4471 6.26711 65.4533Z" fill="#243137"/>
<path d="M7.03008 57.5835C7.02784 57.5995 6.73715 57.5681 6.26868 57.5212C5.80134 57.4776 5.15032 57.4158 4.44116 57.4953C3.73228 57.5748 3.12114 57.8211 2.73525 58.0806C2.34429 58.3373 2.16455 58.5741 2.14882 58.5592C2.14405 58.5553 2.18393 58.4935 2.27127 58.3927C2.35778 58.2918 2.49792 58.1573 2.69199 58.0174C3.07648 57.7346 3.70307 57.4689 4.4288 57.3878C5.15369 57.3069 5.81089 57.3821 6.27767 57.4451C6.51191 57.4779 6.70036 57.5099 6.83011 57.5344C6.95987 57.5588 7.03121 57.5762 7.03008 57.5835Z" fill="white"/>
<path d="M8.96623 61.2021C8.97038 61.2333 8.74147 61.2836 8.48006 61.3967C8.21756 61.5071 8.02243 61.6373 8.00289 61.613C7.98405 61.5917 8.15897 61.4148 8.43753 61.2969C8.71517 61.1776 8.96418 61.1737 8.96623 61.2021Z" fill="white"/>
<path d="M1.33401 61.7924C1.3114 61.8072 1.11684 61.427 1.13356 60.9153C1.14524 60.4028 1.36056 60.0343 1.38231 60.0504C1.41316 60.0627 1.25202 60.4328 1.24194 60.918C1.22511 61.403 1.36549 61.7817 1.33401 61.7924Z" fill="white"/>
<path d="M119.97 26.4008C119.756 25.1681 118.374 24.2764 117.163 24.5898C118.11 23.3175 117.555 21.2221 116.103 20.5851C114.65 19.9478 112.733 20.9592 112.438 22.5177C111.353 20.3483 108.434 19.3215 106.23 20.3337C104.025 21.3456 102.902 24.2283 103.839 26.4654L106.433 37.726C106.913 38.6918 107.933 39.3659 109.009 39.4279C110.086 39.49 111.177 38.9381 111.765 38.0341C112.8 38.6474 114.241 38.466 115.092 37.615C115.943 36.7643 116.125 35.323 115.511 34.2875C116.119 35.0185 117.355 34.9696 118.065 34.338C118.776 33.7061 119.009 32.6675 118.891 31.7241C118.773 30.781 118.355 29.9053 117.937 29.0515C119.183 28.9386 120.184 27.6334 119.97 26.4008Z" fill="#243137"/>
<path d="M110.3 31.3176C107.965 27.9066 104.618 25.7713 100.503 25.35C98.1812 25.1121 97.1777 25.5126 95.4644 25.8205C93.7512 26.1283 92.1633 26.8961 91.0427 28.2274C89.7114 29.808 88.5529 31.6066 88.1524 33.6333C87.7412 35.7153 87.3283 37.811 87.3056 39.9329C87.2831 42.0547 87.6732 44.2269 88.7686 46.0446L94.0568 47.4368C97.0128 47.7918 100.01 48.1465 102.957 47.7185C105.904 47.2901 108.844 45.9777 110.608 43.5809C113.06 40.2514 112.636 34.7286 110.3 31.3176Z" fill="#243137"/>
<path d="M105.526 30.8729L98.6138 27.417L96.7256 27.4737C92.5173 27.1283 89.2169 31.5152 88.8965 34.9175C88.5404 38.6973 88.255 43.326 88.6165 46.1655C89.3436 51.875 94.0915 52.7518 94.0915 52.7518L94.1238 56.6091C93.9081 57.6449 94.8621 60.2619 95.8639 60.9826C100.506 60.3009 102.913 59.3502 104.301 56.1712L107.253 32.9549C107.305 31.9183 106.555 31.0136 105.526 30.8729Z" fill="#FFC19D"/>
<path d="M97.1449 45.5744C97.1315 45.2756 96.9896 45.0004 96.7953 44.8029C96.4068 44.408 95.7974 44.3207 95.3219 44.5914C94.8467 44.8625 94.535 45.475 94.5689 46.0721C94.7911 46.4395 95.1562 46.706 95.5795 46.7796C95.6455 46.7911 95.7185 46.8324 95.7786 46.8029C96.4841 46.4577 96.7355 46.4602 96.7088 46.5243C96.5765 46.8422 97.1615 45.9432 97.1449 45.5744Z" fill="#FF9C6A"/>
<path d="M90.4393 39.9636C90.4138 40.3485 90.7183 40.6866 91.1199 40.7206C91.5204 40.7542 91.8663 40.4712 91.8918 40.0867C91.9176 39.7024 91.6128 39.3634 91.2123 39.3295C90.8108 39.2955 90.4648 39.5794 90.4393 39.9636Z" fill="#243137"/>
<path d="M90.0164 36.9181C90.104 37.0158 90.6691 36.6243 91.4538 36.6504C92.2379 36.6653 92.8016 37.0866 92.8895 36.9931C92.9328 36.9518 92.8457 36.7777 92.6008 36.5875C92.3596 36.3982 91.9442 36.2086 91.4549 36.1954C90.9662 36.1834 90.5494 36.3505 90.3073 36.5274C90.0605 36.7049 89.9734 36.8743 90.0164 36.9181Z" fill="#243137"/>
<path d="M94.5095 43.4693C94.5146 43.425 94.0296 43.3258 93.242 43.2005C93.0423 43.1736 92.8539 43.1278 92.8244 42.9902C92.7817 42.8441 92.8721 42.631 92.9763 42.401C93.18 41.9224 93.3929 41.4202 93.6164 40.8944C94.5064 38.7493 95.1577 36.9821 95.071 36.9473C94.9839 36.9122 94.1919 38.6229 93.3019 40.7683C93.0873 41.2975 92.882 41.8019 92.6865 42.2847C92.6036 42.5099 92.4655 42.7638 92.5582 43.0674C92.6079 43.2188 92.7514 43.3317 92.8789 43.3702C93.0061 43.4134 93.1187 43.4191 93.2176 43.428C94.0119 43.4952 94.505 43.514 94.5095 43.4693Z" fill="#243137"/>
<path d="M94.083 52.7445C94.083 52.7445 97.901 53.1085 101.761 50.9487C101.761 50.9487 99.7987 55.1194 94.1237 54.4128L94.083 52.7445Z" fill="#FF9C6A"/>
<path d="M96.802 44.0826C96.6748 44.0714 96.6467 44.9224 95.8988 45.504C95.1523 46.0879 94.2474 45.9646 94.237 46.0832C94.2232 46.1362 94.4341 46.2548 94.8169 46.277C95.1924 46.3014 95.7452 46.1975 96.2027 45.8416C96.6591 45.4849 96.8655 44.9965 96.9054 44.6483C96.9489 44.2936 96.8604 44.0795 96.802 44.0826Z" fill="#243137"/>
<path d="M90.5178 34.2078C90.6436 34.4033 91.2488 34.2937 91.949 34.3738C92.6517 34.4311 93.2252 34.6563 93.3848 34.4884C93.4564 34.4064 93.3853 34.2173 93.148 34.0174C92.9143 33.8183 92.5051 33.6281 92.0229 33.5804C91.5407 33.5337 91.1039 33.6408 90.8377 33.7913C90.5678 33.9415 90.4636 34.1134 90.5178 34.2078Z" fill="#243137"/>
<path d="M98.218 40.2588C98.2054 40.644 97.8687 40.9507 97.4657 40.9448C97.0641 40.9393 96.7479 40.623 96.7605 40.2378C96.7731 39.8529 97.1101 39.546 97.5116 39.5518C97.9144 39.5573 98.2305 39.8739 98.218 40.2588Z" fill="#243137"/>
<path d="M100.614 37.5226C100.517 37.6113 99.9935 37.1659 99.2099 37.1145C98.428 37.0519 97.8253 37.4153 97.7472 37.3136C97.7082 37.2684 97.8121 37.1035 98.0747 36.9384C98.3336 36.7741 98.7659 36.6264 99.2537 36.6615C99.7416 36.6977 100.14 36.9052 100.363 37.1047C100.591 37.306 100.661 37.483 100.614 37.5226Z" fill="#243137"/>
<path d="M100.358 34.9813C100.192 35.1484 99.6001 34.9229 98.8741 34.8645C98.1501 34.7836 97.524 34.8923 97.3951 34.6968C97.339 34.6025 97.4482 34.4309 97.7288 34.2809C98.0052 34.1315 98.4576 34.0245 98.9561 34.0719C99.4544 34.1202 99.8762 34.3107 100.116 34.5101C100.361 34.7103 100.432 34.899 100.358 34.9813Z" fill="#243137"/>
<path d="M106.575 40.9414L105.507 41.8733C101.623 37.4627 94.2238 26.6183 94.6335 27.262C94.6335 27.262 97.6356 26.3189 100.737 27.1241C103.837 27.9296 109.671 30.0153 109.26 33.7161C108.85 37.4169 106.575 40.9414 106.575 40.9414Z" fill="#243137"/>
<path d="M105.464 42.3749C105.478 41.9519 105.998 40.9689 106.418 40.9168C107.54 40.7771 109.551 40.9287 109.482 43.7631C109.387 47.6377 105.513 46.7446 105.509 46.633C105.506 46.5463 105.415 43.8358 105.464 42.3749Z" fill="#FFC19D"/>
<path d="M106.613 45.2441C106.631 45.2321 106.68 45.293 106.792 45.3481C106.903 45.4014 107.093 45.4413 107.297 45.3705C107.711 45.2304 108.071 44.5886 108.107 43.8907C108.126 43.5382 108.06 43.2006 107.942 42.9195C107.83 42.6333 107.651 42.4308 107.446 42.3895C107.242 42.337 107.093 42.4569 107.043 42.5645C106.988 42.6718 107.011 42.7499 106.99 42.7558C106.979 42.7653 106.909 42.6889 106.944 42.53C106.962 42.453 107.009 42.3628 107.102 42.2907C107.197 42.2174 107.335 42.182 107.478 42.2008C107.777 42.2289 108.039 42.5103 108.169 42.8187C108.316 43.129 108.398 43.5087 108.377 43.9045C108.333 44.6847 107.916 45.4056 107.351 45.5539C107.077 45.6182 106.851 45.5309 106.736 45.4365C106.618 45.3379 106.6 45.2509 106.613 45.2441Z" fill="#FF9C6A"/>
<path d="M112.242 39.8856C112.225 39.8839 112.241 39.6404 112.256 39.202C112.272 38.7633 112.269 38.1274 112.196 37.3481C112.057 35.7963 111.54 33.6411 110.288 31.6015C109.037 29.5614 107.35 28.1234 106.029 27.2968C105.368 26.8781 104.802 26.5877 104.404 26.4031C104.006 26.2178 103.782 26.122 103.788 26.106C103.791 26.0993 103.85 26.1153 103.96 26.1518C104.069 26.1911 104.234 26.2408 104.437 26.3282C104.847 26.4905 105.429 26.7629 106.108 27.1702C107.463 27.9728 109.195 29.4164 110.468 31.4914C111.741 33.5652 112.243 35.7635 112.344 37.3351C112.4 38.1252 112.379 38.7667 112.338 39.2065C112.324 39.427 112.294 39.5966 112.279 39.7115C112.262 39.8266 112.25 39.8864 112.242 39.8856Z" fill="#0D5763"/>
<path d="M82.9027 69.2129L81.3049 69.2817L75.5532 81.7677L66.4561 86.3026L66.8894 90.9859C66.8894 90.9859 78.0899 88.9197 80.8813 87.3564C83.673 85.7929 87.2346 75.6383 87.2346 75.6383C87.2525 75.7105 83.4503 69.2129 83.4503 69.2129" fill="#FFC19D"/>
<path d="M66.9855 80.6262L65.8197 79.4003C65.595 79.2559 65.3321 79.1829 65.065 79.191L61.3704 79.3034C60.6733 79.3719 60.0447 79.7525 59.6608 80.3383L58.3175 82.6251C58.3175 82.6251 57.4145 84.1894 57.5297 84.5697C57.7032 85.1438 58.3091 85.0267 58.3091 85.0267C58.3091 85.0267 58.4368 85.7496 58.6792 85.8967C59.0831 86.1419 59.5766 85.9546 59.5766 85.9546C59.7108 86.2321 59.9964 86.4163 60.304 86.3947C60.3652 86.3902 60.4295 86.3793 60.4958 86.3593C60.9345 86.2265 61.1322 85.3772 61.1322 85.3772L63.0055 85.0303C63.0055 85.0303 65.6958 86.8292 66.644 88.0074C67.5922 89.1858 70.076 88.2854 70.076 88.2854L71.0054 83.8423L66.9855 80.6262Z" fill="#FFC19D"/>
<path d="M64.2632 81.1564C64.266 81.1822 63.9655 81.2401 63.4551 81.2909C62.946 81.3474 62.225 81.3682 61.4136 81.4732L61.5012 81.4089C61.3692 81.6979 61.2069 81.997 61.0215 82.2936C60.4475 83.2111 59.7714 83.9273 59.2451 84.3949C58.7157 84.8629 58.3337 85.0805 58.3183 85.0572C58.2972 85.0277 58.641 84.7651 59.1325 84.2747C59.6212 83.7844 60.2641 83.0651 60.8238 82.17C61.0047 81.8807 61.1648 81.5915 61.297 81.3142L61.3246 81.2567L61.385 81.2499C62.2188 81.1558 62.937 81.1654 63.4464 81.1483C63.9562 81.137 64.2604 81.1286 64.2632 81.1564Z" fill="#FF9C6A"/>
<path d="M64.3482 82.9192C64.3541 82.9431 64.0999 83.0394 63.6519 83.1045C63.2062 83.17 62.5614 83.1899 61.8446 83.0416L61.9763 82.9669C61.9019 83.1854 61.8143 83.4121 61.7064 83.637C61.3158 84.4552 60.765 85.0812 60.3176 85.4612C59.8688 85.8448 59.5385 86.0047 59.5245 85.9816C59.5037 85.951 59.7983 85.7437 60.2058 85.3404C60.6131 84.9397 61.1209 84.3223 61.4961 83.5362C61.6 83.3202 61.6859 83.1031 61.7609 82.8942L61.7957 82.7979L61.8926 82.8195C63.2753 83.1279 64.3423 82.8509 64.3482 82.9192Z" fill="#FF9C6A"/>
<path d="M69.0386 83.831C67.9401 83.3204 66.8417 82.8098 65.7433 82.2992C65.2872 82.0869 64.812 81.8703 64.3087 81.8726C63.7672 81.8751 63.2628 82.1301 62.7819 82.3792C62.1907 82.6851 61.5998 82.9912 61.0086 83.2971C60.9126 83.3468 60.8078 83.4063 60.7738 83.5091C60.7292 83.6439 60.8266 83.7821 60.9266 83.8829C61.8122 84.78 63.4038 84.8451 64.3595 84.0236C64.6437 84.7974 64.9384 85.5886 65.4709 86.218C66.0034 86.8474 66.8313 87.2922 67.6424 87.1434" fill="#FFC19D"/>
<path d="M67.643 87.1432C67.6441 87.1488 67.6141 87.1586 67.5545 87.1721C67.495 87.1872 67.4046 87.1993 67.286 87.2027C67.0504 87.2089 66.6915 87.1639 66.2938 86.962C65.8975 86.7654 65.4661 86.4093 65.126 85.8973C64.7783 85.3895 64.519 84.7483 64.2632 84.0591L64.4275 84.1018C63.9416 84.5298 63.2333 84.7578 62.509 84.702C62.1469 84.6747 61.779 84.5784 61.4395 84.4028C61.2729 84.3093 61.1086 84.2051 60.964 84.0734C60.8926 84.0074 60.8163 83.9473 60.7511 83.856C60.6893 83.7712 60.6222 83.6457 60.657 83.4971C60.6868 83.3746 60.7803 83.2971 60.8539 83.2508C60.9325 83.2022 60.9996 83.1721 61.0687 83.1351C61.2066 83.064 61.3437 82.9932 61.4796 82.923C61.7518 82.7826 62.0197 82.6447 62.2834 82.5088C62.8109 82.2473 63.3097 81.9414 63.872 81.8165C64.4412 81.6788 64.9971 81.8555 65.4355 82.0532C65.8812 82.2563 66.2825 82.4546 66.6558 82.6318C67.368 82.9795 67.9584 83.2679 68.4095 83.4881C68.8215 83.6948 69.0459 83.8161 69.0391 83.8307C69.0324 83.8453 68.7951 83.7518 68.3713 83.5701C67.9123 83.3673 67.3113 83.1016 66.5861 82.7812C66.2075 82.6113 65.7972 82.4273 65.3591 82.2307C64.9224 82.0448 64.4264 81.8973 63.9183 82.026C63.4099 82.1425 62.9173 82.4439 62.3885 82.7115C62.1253 82.8483 61.8577 82.9876 61.5861 83.1289C61.4504 83.1994 61.3136 83.2704 61.1757 83.3418C61.0359 83.4131 60.8898 83.4828 60.8831 83.5533C60.855 83.6386 60.9822 83.79 61.1176 83.899C61.2476 84.0181 61.3965 84.1124 61.5473 84.1981C61.856 84.3588 62.193 84.4495 62.5264 84.4764C63.194 84.5323 63.8467 84.3279 64.2927 83.9448L64.407 83.8468L64.4573 83.9877C64.7038 84.6795 64.9459 85.3078 65.2686 85.8032C65.5846 86.3026 65.9798 86.6488 66.3511 86.8533C67.1113 87.2684 67.6517 87.1019 67.643 87.1432Z" fill="#FF9C6A"/>
<path d="M79.6826 68.1647C79.6826 68.1647 82.9638 61.8674 83.7764 60.4915C85.1613 58.1463 87.7454 56.817 87.7454 56.817L93.7933 55.4181C93.7933 55.4181 93.6465 58.4317 96.9297 58.6577C101.712 58.9869 104.69 54.334 104.69 54.334C104.69 54.334 110.151 54.8957 111.659 55.5293C113.167 56.1632 117.434 57.948 118.06 63.6207L119.521 72.8814L107.982 73.7605L114.407 73.893L112.078 89.2064L113.898 95.2658L87.6642 95.361C87.6642 95.361 87.9392 89.4336 86.9329 84.3069L85.0326 79.693C84.2718 77.8458 83.7991 75.8885 83.6871 73.8941C83.6135 72.5814 83.6494 71.588 83.6494 71.588C83.6494 71.588 80.6895 70.5708 79.6826 68.1647Z" fill="#00A989"/>
<path d="M88.7734 90.4236L108.118 84.617L107.982 73.7605L117.833 73.0098C117.833 73.0098 117.359 78.6648 116.932 81.52C115.871 88.6144 114.771 91.4662 113.436 92.6972C112.101 93.9281 88.2598 95.2659 88.2598 95.2659L88.7734 90.4236Z" fill="#FFC19D"/>
<path d="M77.8024 93.8377C77.9623 94.1014 78.2639 94.2581 78.5681 94.2078C78.6284 94.1977 78.6914 94.1806 78.7557 94.1545C79.18 93.9812 79.0705 93.0982 79.0705 93.0982L81.1295 92.596C81.1295 92.596 83.9768 94.1348 85.0311 95.2192C86.0857 96.3036 88.4741 95.174 88.4741 95.174L88.983 90.6634L84.8761 87.4895C84.8761 87.4895 85.1277 87.6782 84.8129 87.0494C84.4978 86.4206 83.3106 86.7595 83.3106 86.7595C83.0983 86.4528 82.3015 86.3989 82.3015 86.3989L78.9649 87.0477C78.2774 87.1811 77.6873 87.619 77.3601 88.2382L76.1109 90.6022C76.1109 90.6022 75.4845 92.2828 75.6345 92.6508C75.8612 93.206 76.4535 93.0327 76.4535 93.0327C76.4535 93.0327 76.7015 94.0865 76.9846 94.1019C77.2677 94.1177 77.8024 93.8377 77.8024 93.8377Z" fill="#FFC19D"/>
<path d="M84.72 90.0904C84.7191 90.1261 84.2681 90.1193 83.5516 90.2061C82.8368 90.2965 81.8538 90.4996 80.8439 90.9332C80.3389 91.1478 79.8766 91.3952 79.4741 91.6486C79.0852 91.9089 78.6751 92.1302 78.5678 92.4367C78.5136 92.5866 78.5543 92.7318 78.6355 92.8349C78.715 92.9377 78.8178 93.0015 78.9065 93.0301C79.0891 93.0891 79.1995 93.0304 79.2051 93.0506C79.2138 93.0545 79.1076 93.1511 78.8852 93.111C78.7779 93.0908 78.6504 93.0298 78.5428 92.9116C78.4339 92.8004 78.3594 92.5922 78.4226 92.3912C78.4805 92.1889 78.6358 92.0244 78.8049 91.8853C78.979 91.7511 79.1613 91.6135 79.3669 91.4817C79.7721 91.2138 80.2428 90.9546 80.7596 90.735C81.7934 90.2909 82.8068 90.1072 83.5364 90.0547C84.2697 90.0056 84.7216 90.0668 84.72 90.0904Z" fill="#FF9C6A"/>
<path d="M85.1221 92.2193C85.1232 92.2833 83.7487 92.3322 82.0731 92.5611C80.3961 92.7844 79.0578 93.1009 79.0421 93.0391C79.0351 93.0116 79.3612 92.897 79.9021 92.7583C80.4427 92.6192 81.1994 92.4622 82.0442 92.3479C82.889 92.2345 83.6602 92.1856 84.2183 92.1763C84.7766 92.1671 85.1215 92.1912 85.1221 92.2193Z" fill="#FF9C6A"/>
<path d="M77.815 93.7511C77.8037 93.75 77.779 93.627 77.745 93.3956C77.713 93.165 77.6726 92.8296 77.6664 92.41C77.6644 92.2002 77.6692 91.9691 77.7074 91.72C77.7419 91.4697 77.8391 91.2018 77.9815 90.9605C78.2494 90.478 78.6342 89.9694 79.1428 89.5712C79.6503 89.1771 80.1618 88.8378 80.6904 88.6325C81.2144 88.4284 81.7138 88.3494 82.1272 88.2986C82.5426 88.2517 82.8785 88.2348 83.1108 88.2256C83.343 88.2172 83.4719 88.2194 83.4733 88.2343C83.4776 88.2685 82.9639 88.3256 82.1486 88.4491C81.7433 88.5185 81.2602 88.6118 80.7639 88.8168C80.2713 89.0179 79.7689 89.3574 79.2785 89.7385C78.7876 90.1247 78.4275 90.5909 78.1531 91.06C77.8605 91.5099 77.8377 92.0017 77.8186 92.4114C77.8009 93.2329 77.8616 93.7489 77.815 93.7511Z" fill="#FF9C6A"/>
<path d="M82.2056 87.2666C82.2084 87.2987 81.7054 87.3509 80.9081 87.5059C80.1427 87.6845 78.9075 87.8373 78.2843 88.9596C77.5948 89.9901 77.0157 90.9579 76.7893 91.7322C76.5458 92.5029 76.6124 93.0177 76.5683 93.0174C76.5568 93.0185 76.5273 92.893 76.5211 92.6619C76.5127 92.431 76.5363 92.092 76.643 91.6907C76.8401 90.8765 77.4125 89.8749 78.1062 88.8386C78.2832 88.5779 78.4778 88.3291 78.7092 88.1263C78.9398 87.9202 79.2165 87.7893 79.4726 87.693C79.9919 87.502 80.4769 87.4205 80.8822 87.3559C81.6953 87.238 82.2039 87.2394 82.2056 87.2666Z" fill="#FF9C6A"/>
<path d="M84.2385 94.559C84.2343 94.5644 84.1618 94.5172 84.0267 94.422C83.8734 94.3172 83.6751 94.1816 83.4279 94.0128C82.9008 93.6668 82.1194 93.1767 81.0971 92.6602L81.1457 92.6655C80.5318 92.8197 79.8397 92.9933 79.0901 93.1814L79.1547 93.0879C79.1724 93.2578 79.1758 93.4249 79.1553 93.6005C79.1334 93.7726 79.0935 93.96 78.9578 94.1201C78.8868 94.1984 78.7803 94.2498 78.691 94.2683C78.6 94.2992 78.5001 94.3164 78.3992 94.3085C78.1981 94.2953 78.0029 94.2052 77.8583 94.0616C77.8212 94.0263 77.7889 93.9864 77.758 93.9454L77.7364 93.9133L77.7257 93.8971L77.7207 93.8892L77.7198 93.8881C77.6923 93.8799 77.9591 93.9546 77.8457 93.9235L77.8434 93.9246L77.8392 93.9265L77.7754 93.9586C77.6901 94.0004 77.6033 94.0389 77.5134 94.0748C77.4238 94.1102 77.3317 94.1431 77.2334 94.1681C77.1842 94.1804 77.1343 94.1917 77.0798 94.197C77.0295 94.2029 76.9683 94.2094 76.884 94.1745C76.7599 94.0998 76.7102 94.0043 76.6585 93.9148C76.6093 93.8235 76.5681 93.7305 76.5327 93.6361C76.4602 93.4474 76.4035 93.2561 76.3532 93.0565L76.4813 93.1312C76.2147 93.1997 75.8909 93.1593 75.6842 92.9264C75.5907 92.818 75.5106 92.6815 75.5084 92.5181C75.5039 92.3717 75.5266 92.2409 75.5511 92.1091C75.6572 91.5862 75.8255 91.0798 76.0097 90.5653L76.012 90.5591L76.0153 90.5524C76.2277 90.1505 76.4532 89.7233 76.6812 89.2913C76.8231 89.0228 76.9641 88.7566 77.1039 88.492C77.2449 88.2356 77.3671 87.9502 77.5746 87.7132C77.7743 87.4778 78.0206 87.2869 78.2917 87.1529C78.5599 87.0113 78.8666 86.9577 79.1365 86.908C80.2422 86.6962 81.2965 86.494 82.2823 86.3053L82.2958 86.3027L82.307 86.3039C82.5048 86.3218 82.6907 86.3533 82.8752 86.4072C83.0552 86.4642 83.2462 86.5291 83.3847 86.708L83.2653 86.6805C83.6102 86.5066 84.0231 86.4732 84.3514 86.6572C84.6808 86.8392 84.851 87.1613 84.9521 87.4683L84.9235 87.4262C86.1025 88.3322 87.0645 89.0714 87.7528 89.6003C88.0705 89.8505 88.3244 90.0505 88.5162 90.2016C88.6895 90.3412 88.7779 90.4175 88.7735 90.4237C88.7684 90.4302 88.6704 90.3661 88.4884 90.2384C88.2904 90.096 88.0278 89.9072 87.6995 89.671C87.0007 89.1562 86.0242 88.4361 84.8274 87.5539L84.8081 87.5396L84.7985 87.5118C84.7064 87.2411 84.5407 86.9479 84.2694 86.808C84.0048 86.658 83.6436 86.6912 83.3549 86.8392L83.2836 86.8757L83.2353 86.8116C83.1544 86.7049 82.9878 86.633 82.823 86.5867C82.6561 86.5392 82.4733 86.5097 82.2941 86.4948L82.3188 86.4932C81.3342 86.6875 80.281 86.8953 79.1764 87.1133C78.8944 87.1664 78.6309 87.2133 78.3857 87.3425C78.1406 87.4646 77.9181 87.6379 77.7381 87.8514C77.5544 88.0584 77.4393 88.3263 77.2938 88.5925C77.1542 88.8568 77.0135 89.1234 76.8717 89.3919C76.6433 89.8238 76.4175 90.2507 76.2049 90.6526L76.2105 90.64C76.0291 91.1433 75.8603 91.6511 75.7578 92.1487C75.7342 92.272 75.714 92.3984 75.7176 92.5094C75.7137 92.606 75.7704 92.7057 75.839 92.7877C75.9729 92.9492 76.2215 92.9843 76.424 92.9348L76.5276 92.9096L76.5523 93.0096C76.5987 93.1977 76.654 93.387 76.7211 93.5642C76.7846 93.7322 76.8761 93.9353 76.9739 93.9979C76.9787 94.0001 77.0155 94.0083 77.0593 94.0007C77.1 93.997 77.1432 93.9878 77.1859 93.9774C77.2716 93.9563 77.3575 93.9265 77.4421 93.8937C77.5266 93.8608 77.61 93.8243 77.6915 93.7853L77.7516 93.7558L77.7566 93.7533C77.644 93.7215 77.9114 93.796 77.8841 93.7886L77.8889 93.7957L77.8971 93.8083L77.9139 93.8339C77.9378 93.8662 77.9631 93.8982 77.9923 93.926C78.1055 94.0406 78.258 94.1114 78.4119 94.1226C78.4888 94.1296 78.5646 94.117 78.6399 94.092C78.7222 94.074 78.7759 94.0459 78.8242 93.9973C79.0067 93.7752 79.0064 93.4036 78.9851 93.109L78.9795 93.032L79.0497 93.0155C79.8018 92.8374 80.4961 92.6731 81.112 92.5273L81.1384 92.5211L81.1606 92.5329C82.1846 93.0719 82.955 93.5814 83.4718 93.949C83.729 94.1347 83.9231 94.2846 84.0509 94.3902C84.1784 94.4961 84.2427 94.5537 84.2385 94.559Z" fill="#FF9C6A"/>
<path d="M46.4411 95.0584L38.3477 75.1025C38.0432 74.3515 38.6339 73.5469 39.4899 73.5469H65.4794C65.9535 73.5469 66.3852 73.8044 66.5863 74.2077L74.3693 93.2424L90.6954 93.5028C91.3706 93.5028 91.9177 94.0164 91.9177 94.6501C91.9177 95.2839 91.3706 95.7976 90.6954 95.7976H47.583C47.0761 95.7976 46.6217 95.5033 46.4411 95.0584Z" fill="#0D5763"/>
<path d="M86.6366 61.2088C86.6697 61.2273 86.3563 61.8146 85.9162 62.792C85.4755 63.7685 84.9296 65.147 84.4889 66.7206C84.0513 68.2954 83.8047 69.7575 83.6767 70.8214C83.5472 71.8852 83.5112 72.5497 83.4733 72.5486C83.4573 72.5481 83.45 72.3815 83.4503 72.0799C83.4486 71.7782 83.4683 71.3418 83.5126 70.8042C83.5997 69.7294 83.8227 68.2476 84.2645 66.658C84.7094 65.0694 85.2854 63.6865 85.7674 62.7218C86.0078 62.2387 86.2164 61.8553 86.3743 61.5981C86.5302 61.3397 86.6226 61.2009 86.6366 61.2088Z" fill="#243137"/>
<path d="M119.521 72.8812C119.521 72.888 119.439 72.9006 119.282 72.9183C119.103 72.936 118.874 72.9585 118.589 72.9866C117.959 73.0394 117.085 73.1124 116.003 73.2031C113.774 73.3711 110.692 73.6033 107.16 73.8693L107.045 73.878L107.038 73.764C106.964 72.5897 106.886 71.3495 106.805 70.0744C106.68 67.8542 106.573 65.7385 106.539 63.8096C106.438 61.8709 106.913 60.1006 107.673 58.8421C108.426 57.5645 109.423 56.8219 110.152 56.4594C110.523 56.2847 110.82 56.1678 111.03 56.1181C111.238 56.0594 111.347 56.0327 111.349 56.0403C111.36 56.0721 110.91 56.1631 110.194 56.54C109.49 56.9214 108.533 57.6662 107.816 58.9253C107.09 60.1714 106.643 61.8889 106.753 63.8057C106.799 65.7281 106.913 67.8427 107.038 70.0609C107.116 71.3351 107.192 72.5748 107.265 73.7485L107.144 73.6432C110.678 73.4093 113.762 73.2054 115.993 73.0579C117.077 72.9953 117.952 72.9447 118.584 72.9082C118.869 72.8958 119.1 72.8857 119.279 72.8782C119.437 72.8734 119.52 72.8745 119.521 72.8812Z" fill="#243137"/>
<path d="M97.827 80.4225C97.8205 80.4371 97.6837 80.3863 97.4402 80.2804C97.3172 80.2298 97.1698 80.1616 97.008 80.0641C96.8454 79.9689 96.6522 79.8715 96.4615 79.7285C96.0635 79.467 95.6276 79.0997 95.1878 78.6478C94.7586 78.1866 94.332 77.6353 93.9675 77.0042C93.6113 76.3681 93.3558 75.7193 93.1788 75.1143C93.0154 74.5054 92.9221 73.9429 92.9013 73.4671C92.8761 73.2301 92.8909 73.0144 92.8923 72.8259C92.8912 72.6372 92.9081 72.4754 92.9275 72.3437C92.9612 72.0805 92.987 71.937 93.003 71.939C93.0491 71.9429 92.9735 72.5251 93.0654 73.4536C93.1066 73.9179 93.2145 74.4639 93.385 75.0542C93.5686 75.6409 93.8234 76.2692 94.17 76.8891C94.525 77.5036 94.935 78.0434 95.3448 78.5014C95.7652 78.9497 96.1792 79.3215 96.5569 79.5943C97.308 80.1481 97.8469 80.3809 97.827 80.4225Z" fill="#243137"/>
<path d="M56.6359 87.0614C56.0804 87.5307 55.105 87.2891 54.4564 86.522C53.8078 85.7552 53.7319 84.7528 54.2872 84.2833C54.8423 83.814 55.8181 84.0556 56.4667 84.8228C57.1153 85.5896 57.1912 86.592 56.6359 87.0614Z" fill="white"/>
</svg>
