<svg width="628" height="600" viewBox="0 0 628 600" fill="none" xmlns="http://www.w3.org/2000/svg">
<g clip-path="url(#clip0_4_104)">
<path d="M547.175 16C547.175 7.16343 540.011 0 531.175 0H97.6884C88.8518 0 81.6884 7.16344 81.6884 16V380.568C81.6884 389.405 88.8518 396.568 97.6884 396.568H531.175C540.011 396.568 547.175 389.405 547.175 380.568V16Z" fill="white"/>
<path d="M546.387 55.4348C546.387 55.7651 443.209 56.0331 315.959 56.0331C188.664 56.0331 85.5059 55.7651 85.5059 55.4348C85.5059 55.1069 188.664 54.8389 315.959 54.8389C443.209 54.8389 546.387 55.1069 546.387 55.4348Z" fill="#E5E5F3"/>
<path d="M112.131 26.4976C112.131 30.838 109.065 34.3551 105.281 34.3551C101.5 34.3551 98.4335 30.838 98.4335 26.4976C98.4335 22.1597 101.5 18.6426 105.281 18.6426C109.065 18.6426 112.131 22.1597 112.131 26.4976Z" fill="#E5E5F3"/>
<path d="M132.768 26.4976C132.768 30.838 129.702 34.3551 125.921 34.3551C122.137 34.3551 119.071 30.838 119.071 26.4976C119.071 22.1597 122.137 18.6426 125.921 18.6426C129.702 18.6426 132.768 22.1597 132.768 26.4976Z" fill="#E5E5F3"/>
<path d="M153.406 26.4976C153.406 30.838 150.34 34.3551 146.558 34.3551C142.774 34.3551 139.708 30.838 139.708 26.4976C139.708 22.1597 142.774 18.6426 146.558 18.6426C150.34 18.6426 153.406 22.1597 153.406 26.4976Z" fill="#E5E5F3"/>
<path d="M233.333 104H176C167.163 104 160 111.163 160 120V182C160 190.837 167.163 198 176 198H233.333C242.17 198 249.333 190.837 249.333 182V120C249.333 111.163 242.17 104 233.333 104Z" fill="#FAFAFB"/>
<path d="M218.667 140.08V157.499C218.666 158.796 218.238 160.058 217.448 161.087C216.658 162.116 215.55 162.856 214.297 163.192C213.043 163.527 211.714 163.44 210.515 162.943C209.316 162.447 208.315 161.568 207.666 160.444C207.018 159.321 206.758 158.014 206.928 156.728C207.097 155.441 207.686 154.247 208.604 153.329C209.521 152.412 210.716 151.823 212.003 151.653C213.289 151.484 214.595 151.744 215.719 152.393V145.976L200.982 148.431V158.973C200.982 159.061 200.975 159.147 200.96 159.229C201.066 160.362 200.794 161.499 200.187 162.461C199.579 163.424 198.67 164.158 197.602 164.551C196.533 164.943 195.365 164.971 194.279 164.63C193.194 164.289 192.251 163.598 191.598 162.665C190.946 161.733 190.62 160.611 190.672 159.474C190.724 158.337 191.15 157.249 191.885 156.379C192.619 155.51 193.621 154.908 194.733 154.667C195.846 154.427 197.007 154.56 198.035 155.048V142.536C198.035 141.839 198.282 141.164 198.733 140.631C199.184 140.099 199.809 139.744 200.497 139.629L215.234 137.174C215.657 137.103 216.089 137.126 216.502 137.239C216.914 137.353 217.297 137.555 217.624 137.832C217.95 138.108 218.213 138.453 218.393 138.841C218.573 139.229 218.666 139.652 218.667 140.08ZM195.824 157.499C195.238 157.499 194.676 157.732 194.261 158.146C193.847 158.561 193.614 159.123 193.614 159.709C193.614 160.296 193.847 160.858 194.261 161.273C194.676 161.687 195.238 161.92 195.824 161.92C196.411 161.92 196.973 161.687 197.387 161.273C197.802 160.858 198.035 160.296 198.035 159.709C198.035 159.123 197.802 158.561 197.387 158.146C196.973 157.732 196.411 157.499 195.824 157.499ZM212.772 154.552C211.99 154.552 211.24 154.862 210.688 155.415C210.135 155.968 209.824 156.717 209.824 157.499C209.824 158.281 210.135 159.03 210.688 159.583C211.24 160.136 211.99 160.446 212.772 160.446C213.554 160.446 214.303 160.136 214.856 159.583C215.409 159.03 215.719 158.281 215.719 157.499C215.719 156.717 215.409 155.968 214.856 155.415C214.303 154.862 213.554 154.552 212.772 154.552ZM215.719 140.08L200.982 142.536V145.444L215.719 142.987V140.08Z" fill="#98A2B3"/>
<path d="M346.666 104H289.333C280.496 104 273.333 111.163 273.333 120V182C273.333 190.837 280.496 198 289.333 198H346.666C355.503 198 362.666 190.837 362.666 182V120C362.666 111.163 355.503 104 346.666 104Z" fill="#FAFAFB"/>
<path d="M326.906 152.736L329.312 151.554C330.705 150.869 332.098 150.184 333.491 149.499C334.353 149.076 335.071 149.521 335.071 150.476C335.071 154.82 335.071 159.165 335.071 163.51C335.071 164.469 334.357 164.92 333.497 164.499C331.427 163.483 329.358 162.466 327.29 161.448C327.192 161.4 327.09 161.355 326.937 161.282V162.166C326.937 164.182 325.719 165.629 323.736 165.967C323.549 165.993 323.36 166.003 323.172 165.998C317.017 165.998 310.861 165.998 304.705 165.998C302.538 165.998 300.935 164.398 300.934 162.239C300.934 158.75 300.934 155.26 300.934 151.77C300.937 150.159 301.68 149.003 303.134 148.303C303.173 148.284 303.21 148.258 303.249 148.236C299.776 145.068 300.436 139.898 303.673 137.434C306.842 135.024 311.57 135.643 313.931 139.353C315.481 137.058 317.619 135.867 320.398 136.013C322.225 136.108 323.78 136.874 325.039 138.206C327.547 140.858 327.733 145.304 324.612 148.233C326.521 149.11 327.12 150.68 326.906 152.736ZM304.766 149.996C303.623 149.996 302.933 150.679 302.933 151.813C302.933 155.269 302.933 158.725 302.933 162.181C302.933 163.314 303.624 163.998 304.766 163.998C310.878 163.998 316.99 163.998 323.103 163.998C324.243 163.998 324.936 163.312 324.936 162.181C324.936 158.725 324.936 155.269 324.936 151.812C324.936 150.679 324.243 149.997 323.103 149.996H304.766ZM307.933 137.994C306.944 137.994 305.977 138.287 305.155 138.837C304.332 139.386 303.691 140.167 303.313 141.081C302.934 141.995 302.835 143 303.028 143.97C303.221 144.94 303.697 145.832 304.397 146.531C305.096 147.23 305.987 147.707 306.957 147.9C307.927 148.093 308.933 147.993 309.847 147.615C310.76 147.236 311.541 146.595 312.091 145.773C312.641 144.951 312.934 143.984 312.934 142.995C312.93 141.669 312.401 140.399 311.464 139.462C310.526 138.525 309.255 137.998 307.93 137.995L307.933 137.994ZM319.922 147.996C322.674 148 324.932 145.756 324.938 143.01C324.944 140.264 322.696 138.001 319.95 137.995C317.205 137.99 314.94 140.233 314.935 142.979C314.929 145.726 317.175 147.991 319.92 147.996H319.922ZM333.057 151.972C332.999 151.99 332.942 152.01 332.887 152.034C330.967 152.976 329.049 153.923 327.126 154.858C326.943 154.946 326.936 155.066 326.936 155.227C326.936 156.404 326.946 157.582 326.93 158.761C326.93 158.994 327.022 159.087 327.207 159.178C329.069 160.088 330.929 161.002 332.787 161.918C332.869 161.958 332.958 161.985 333.054 162.023L333.057 151.972ZM313.934 146.661L312.906 147.969H314.962L313.934 146.661Z" fill="#98A2B3"/>
<path d="M318.259 151.997C319.448 151.997 320.637 151.997 321.825 151.997C322.535 151.997 322.935 152.401 322.936 153.115C322.936 155.036 322.936 156.958 322.936 158.88C322.936 159.594 322.535 159.998 321.826 159.998C319.448 159.998 317.07 159.998 314.691 159.998C314.005 159.998 313.599 159.588 313.599 158.897C313.599 156.964 313.599 155.03 313.599 153.096C313.599 152.405 314.003 151.996 314.691 151.995C315.882 151.995 317.071 151.997 318.259 151.997ZM320.92 154.021H315.628V157.98H320.92V154.021Z" fill="#98A2B3"/>
<path d="M308.278 157.998C307.523 157.998 306.767 157.998 306.011 157.998C305.374 157.998 304.924 157.571 304.931 156.985C304.938 156.414 305.384 156 306.004 155.999C307.515 155.996 309.026 155.996 310.535 155.999C311.153 155.999 311.597 156.421 311.602 156.995C311.606 157.569 311.159 157.995 310.545 157.995C309.788 158.004 309.033 157.998 308.278 157.998Z" fill="#98A2B3"/>
<path d="M308.301 159.998C309.044 159.998 309.789 159.998 310.533 159.998C311.152 159.998 311.6 160.417 311.6 160.99C311.6 161.564 311.159 161.995 310.547 161.997C309.025 162.001 307.504 162.001 305.983 161.997C305.372 161.997 304.927 161.562 304.932 160.988C304.938 160.414 305.383 160.001 305.999 159.998C306.768 159.996 307.535 159.998 308.301 159.998Z" fill="#98A2B3"/>
<path d="M304.932 142.997C304.932 142.404 305.108 141.824 305.437 141.331C305.767 140.837 306.235 140.453 306.782 140.225C307.33 139.998 307.933 139.938 308.515 140.053C309.096 140.168 309.631 140.453 310.051 140.871C310.471 141.29 310.758 141.824 310.875 142.405C310.991 142.987 310.933 143.59 310.708 144.138C310.482 144.686 310.099 145.156 309.607 145.487C309.115 145.818 308.536 145.995 307.943 145.997C307.146 145.998 306.381 145.683 305.817 145.12C305.252 144.557 304.934 143.794 304.932 142.997ZM308.933 143.003C308.935 142.805 308.878 142.611 308.769 142.445C308.661 142.279 308.506 142.15 308.324 142.073C308.141 141.995 307.94 141.974 307.746 142.011C307.551 142.048 307.372 142.142 307.231 142.281C307.09 142.42 306.993 142.597 306.953 142.791C306.913 142.985 306.932 143.186 307.006 143.37C307.081 143.553 307.208 143.71 307.372 143.821C307.536 143.932 307.729 143.992 307.927 143.993C308.19 143.99 308.442 143.885 308.629 143.7C308.816 143.515 308.924 143.264 308.93 143.001L308.933 143.003Z" fill="#98A2B3"/>
<path d="M322.936 143.002C322.934 143.595 322.757 144.174 322.427 144.667C322.097 145.159 321.628 145.543 321.08 145.769C320.532 145.995 319.929 146.054 319.347 145.938C318.766 145.822 318.232 145.536 317.812 145.116C317.393 144.697 317.108 144.163 316.992 143.581C316.876 142.999 316.936 142.396 317.163 141.848C317.389 141.3 317.773 140.832 318.266 140.502C318.759 140.172 319.339 139.996 319.932 139.995C320.729 139.996 321.493 140.313 322.056 140.876C322.619 141.44 322.936 142.205 322.936 143.002ZM320.935 142.99C320.934 142.792 320.874 142.599 320.763 142.435C320.653 142.271 320.495 142.144 320.312 142.069C320.129 141.995 319.927 141.976 319.733 142.016C319.54 142.056 319.362 142.152 319.223 142.293C319.084 142.434 318.99 142.613 318.953 142.808C318.915 143.002 318.937 143.203 319.014 143.386C319.091 143.568 319.221 143.723 319.386 143.832C319.552 143.94 319.746 143.998 319.944 143.996C320.207 143.988 320.457 143.879 320.641 143.691C320.825 143.503 320.929 143.251 320.932 142.988L320.935 142.99Z" fill="#98A2B3"/>
<path d="M460 104H402.667C393.83 104 386.667 111.163 386.667 120V182C386.667 190.837 393.83 198 402.667 198H460C468.837 198 476 190.837 476 182V120C476 111.163 468.837 104 460 104Z" fill="#FAFAFB"/>
<path d="M418.736 142.004C418.736 141.498 418.736 140.991 418.736 140.485C418.742 139.305 419.634 138.403 420.81 138.406C421.338 138.406 421.871 138.379 422.385 138.465C423.342 138.628 424 139.47 424.009 140.444C424.013 140.921 424.009 141.399 424.009 141.918C424.456 141.918 424.892 141.925 425.326 141.908C425.385 141.908 425.46 141.788 425.487 141.709C425.663 141.213 425.821 140.713 425.996 140.216C426.395 139.08 427.349 138.403 428.557 138.403C430.412 138.403 432.268 138.403 434.123 138.403C435.311 138.403 436.268 139.077 436.667 140.199C436.836 140.676 436.997 141.157 437.143 141.641C437.206 141.85 437.302 141.925 437.529 141.924C439.355 141.913 441.181 141.917 443.007 141.918C444.931 141.918 446.333 143.316 446.333 145.237C446.333 150.255 446.333 155.273 446.333 160.291C446.333 162.192 444.927 163.596 443.022 163.596C435.231 163.596 427.441 163.596 419.65 163.596C417.732 163.597 416.333 162.191 416.333 160.267C416.333 155.267 416.333 150.269 416.333 145.272C416.333 143.728 417.134 142.595 418.592 142.068C418.637 142.053 418.677 142.03 418.736 142.004ZM442.934 161.839C443.977 161.839 444.574 161.248 444.574 160.215C444.574 155.237 444.574 150.258 444.574 145.279C444.574 144.281 443.97 143.676 442.97 143.676C440.891 143.676 438.811 143.676 436.732 143.676C436.179 143.676 435.906 143.482 435.731 142.959C435.497 142.256 435.263 141.553 435.028 140.854C434.862 140.366 434.581 140.161 434.07 140.161C432.245 140.161 430.42 140.161 428.593 140.161C428.084 140.161 427.804 140.365 427.638 140.856C427.401 141.559 427.169 142.262 426.935 142.961C426.763 143.482 426.484 143.676 425.931 143.676H419.72C418.683 143.676 418.091 144.27 418.091 145.313V160.191C418.091 161.254 418.677 161.839 419.737 161.839H442.934ZM420.493 141.896H422.251C422.251 141.416 422.251 140.959 422.251 140.502C422.251 140.294 422.144 140.169 421.934 140.165C421.554 140.158 421.172 140.141 420.797 140.177C420.688 140.187 420.517 140.357 420.51 140.463C420.478 140.935 420.493 141.411 420.493 141.896Z" fill="#98A2B3"/>
<path d="M431.333 160.181C435.75 160.181 439.343 156.588 439.343 152.172C439.343 147.754 435.751 144.162 431.333 144.162C426.915 144.162 423.323 147.754 423.323 152.172C423.323 156.589 426.916 160.181 431.333 160.181ZM425.281 152.176C425.281 148.848 427.996 146.125 431.322 146.119C434.652 146.12 437.377 148.829 437.385 152.154C437.392 155.495 434.668 158.224 431.329 158.224C428.003 158.224 425.281 155.504 425.281 152.176Z" fill="#98A2B3"/>
<path d="M420.77 147.29L423.423 146.301L423.523 146.3C423.52 146.042 423.415 145.795 423.23 145.615C423.046 145.434 422.798 145.334 422.54 145.336C421.954 145.329 421.367 145.328 420.781 145.336L420.776 145.337C420.528 145.351 420.294 145.46 420.123 145.641C419.952 145.822 419.857 146.062 419.856 146.31C419.855 146.559 419.949 146.799 420.119 146.981C420.289 147.163 420.521 147.274 420.77 147.29Z" fill="#98A2B3"/>
<path d="M441.872 147.291C442.129 147.291 442.377 147.191 442.561 147.011C442.745 146.832 442.852 146.587 442.858 146.33V146.329C442.861 146.135 442.807 145.945 442.702 145.782C442.597 145.619 442.445 145.491 442.267 145.414C442.089 145.337 441.892 145.315 441.701 145.35C441.511 145.385 441.335 145.476 441.196 145.612C441.057 145.747 440.961 145.921 440.921 146.111C440.882 146.301 440.899 146.498 440.971 146.678C441.044 146.858 441.168 147.012 441.328 147.122C441.489 147.231 441.678 147.29 441.872 147.291Z" fill="#98A2B3"/>
<path d="M435.827 152.152C435.827 149.683 433.801 147.677 431.32 147.677C430.431 147.68 429.563 147.946 428.825 148.442C428.087 148.939 427.513 149.642 427.175 150.465C426.837 151.288 426.751 152.192 426.928 153.063C427.104 153.935 427.535 154.735 428.166 155.361C428.797 155.988 429.6 156.413 430.473 156.583C431.346 156.753 432.249 156.661 433.069 156.317C433.889 155.973 434.589 155.394 435.08 154.653C435.571 153.912 435.831 153.041 435.827 152.152ZM429.919 150.066C430.335 149.786 430.824 149.637 431.325 149.635C432 149.636 432.646 149.904 433.123 150.381C433.6 150.858 433.868 151.505 433.869 152.179C433.868 152.68 433.718 153.17 433.439 153.586C433.16 154.002 432.763 154.326 432.3 154.517C431.837 154.708 431.328 154.757 430.836 154.659C430.345 154.561 429.893 154.32 429.539 153.965C429.185 153.611 428.943 153.16 428.845 152.668C428.747 152.177 428.797 151.668 428.988 151.204C429.179 150.741 429.503 150.345 429.919 150.066Z" fill="#98A2B3"/>
<path d="M435.827 152.152C435.827 149.683 433.801 147.677 431.32 147.677C430.431 147.68 429.563 147.946 428.825 148.442C428.087 148.939 427.513 149.642 427.175 150.465C426.837 151.288 426.751 152.192 426.928 153.063C427.104 153.935 427.535 154.735 428.166 155.361C428.797 155.988 429.6 156.413 430.473 156.583C431.346 156.753 432.249 156.661 433.069 156.317C433.889 155.973 434.589 155.394 435.08 154.653C435.571 153.912 435.831 153.041 435.827 152.152ZM435.827 152.152H435.727M418.736 142.004C418.736 141.498 418.736 140.991 418.736 140.485C418.742 139.305 419.634 138.403 420.81 138.406C421.338 138.406 421.871 138.379 422.385 138.465C423.342 138.628 424 139.47 424.009 140.444C424.013 140.921 424.009 141.399 424.009 141.918C424.456 141.918 424.892 141.925 425.326 141.908C425.385 141.908 425.46 141.788 425.487 141.709C425.663 141.213 425.821 140.713 425.996 140.216C426.395 139.08 427.349 138.403 428.557 138.403C430.412 138.403 432.268 138.403 434.123 138.403C435.311 138.403 436.268 139.077 436.667 140.199C436.836 140.676 436.997 141.157 437.143 141.641C437.206 141.85 437.302 141.925 437.529 141.924C439.355 141.913 441.181 141.917 443.007 141.918C444.931 141.918 446.333 143.316 446.333 145.237C446.333 150.255 446.333 155.273 446.333 160.291C446.333 162.192 444.927 163.596 443.022 163.596C435.231 163.596 427.441 163.596 419.65 163.596C417.732 163.597 416.333 162.191 416.333 160.267C416.333 155.267 416.333 150.269 416.333 145.272C416.333 143.728 417.134 142.595 418.592 142.068C418.637 142.053 418.677 142.03 418.736 142.004ZM442.934 161.839C443.977 161.839 444.574 161.248 444.574 160.215C444.574 155.237 444.574 150.258 444.574 145.279C444.574 144.281 443.97 143.676 442.97 143.676C440.891 143.676 438.811 143.676 436.732 143.676C436.179 143.676 435.906 143.482 435.731 142.959C435.497 142.256 435.263 141.553 435.028 140.854C434.862 140.366 434.581 140.161 434.07 140.161C432.245 140.161 430.42 140.161 428.593 140.161C428.084 140.161 427.804 140.365 427.638 140.856C427.401 141.559 427.169 142.262 426.935 142.961C426.763 143.482 426.484 143.676 425.931 143.676H419.72C418.683 143.676 418.091 144.27 418.091 145.313V160.191C418.091 161.254 418.677 161.839 419.737 161.839H442.934ZM420.493 141.896H422.251C422.251 141.416 422.251 140.959 422.251 140.502C422.251 140.294 422.144 140.169 421.934 140.165C421.554 140.158 421.172 140.141 420.797 140.177C420.688 140.187 420.517 140.357 420.51 140.463C420.478 140.935 420.493 141.411 420.493 141.896ZM431.333 160.181C435.75 160.181 439.343 156.588 439.343 152.172C439.343 147.754 435.751 144.162 431.333 144.162C426.915 144.162 423.323 147.754 423.323 152.172C423.323 156.589 426.916 160.181 431.333 160.181ZM425.281 152.176C425.281 148.848 427.996 146.125 431.322 146.119C434.652 146.12 437.377 148.829 437.385 152.154C437.392 155.495 434.668 158.224 431.329 158.224C428.003 158.224 425.281 155.504 425.281 152.176ZM420.77 147.29L423.423 146.301L423.523 146.3C423.52 146.042 423.415 145.795 423.23 145.615C423.046 145.434 422.798 145.334 422.54 145.336C421.954 145.329 421.367 145.328 420.781 145.336L420.776 145.337C420.528 145.351 420.294 145.46 420.123 145.641C419.952 145.822 419.857 146.062 419.856 146.31C419.855 146.559 419.949 146.799 420.119 146.981C420.289 147.163 420.521 147.274 420.77 147.29ZM441.872 147.291C442.129 147.291 442.377 147.191 442.561 147.011C442.745 146.832 442.852 146.587 442.858 146.33V146.329C442.861 146.135 442.807 145.945 442.702 145.782C442.597 145.619 442.445 145.491 442.267 145.414C442.089 145.337 441.892 145.315 441.701 145.35C441.511 145.385 441.335 145.476 441.196 145.612C441.057 145.747 440.961 145.921 440.921 146.111C440.882 146.301 440.899 146.498 440.971 146.678C441.044 146.858 441.168 147.012 441.328 147.122C441.489 147.231 441.678 147.29 441.872 147.291ZM429.919 150.066C430.335 149.786 430.824 149.637 431.325 149.635C432 149.636 432.646 149.904 433.123 150.381C433.6 150.858 433.868 151.505 433.869 152.179C433.868 152.68 433.718 153.17 433.439 153.586C433.16 154.002 432.763 154.326 432.3 154.517C431.837 154.708 431.328 154.757 430.836 154.659C430.345 154.561 429.893 154.32 429.539 153.965C429.185 153.611 428.943 153.16 428.845 152.668C428.747 152.177 428.797 151.668 428.988 151.204C429.179 150.741 429.503 150.345 429.919 150.066Z" stroke="#98A2B3" stroke-width="0.2"/>
<path d="M233.333 222H176C167.163 222 160 229.163 160 238V300C160 308.837 167.163 316 176 316H233.333C242.17 316 249.333 308.837 249.333 300V238C249.333 229.163 242.17 222 233.333 222Z" fill="#FAFAFB"/>
<path d="M209.661 259.005C209.654 261.768 207.398 264.018 204.65 264.002C203.323 263.993 202.054 263.458 201.121 262.514C200.188 261.571 199.668 260.296 199.674 258.969C199.686 256.189 201.928 253.985 204.73 253.995C207.45 254.006 209.669 256.26 209.661 259.005ZM201.554 258.979C201.549 259.807 201.874 260.603 202.456 261.193C203.038 261.782 203.831 262.116 204.659 262.121C206.358 262.132 207.767 260.736 207.781 259.024C207.784 258.615 207.706 258.209 207.552 257.831C207.399 257.452 207.172 257.107 206.885 256.816C206.305 256.228 205.516 255.894 204.69 255.888C203.864 255.882 203.07 256.204 202.482 256.784C201.894 257.363 201.56 258.153 201.554 258.979Z" fill="#98A2B3"/>
<path d="M194.411 271.496C194.459 271.289 194.496 271.099 194.546 270.913C194.885 269.649 195.63 268.532 196.668 267.735C197.705 266.938 198.976 266.506 200.284 266.505C203.204 266.501 206.123 266.501 209.043 266.505C210.411 266.506 211.737 266.98 212.795 267.847C213.853 268.714 214.579 269.92 214.85 271.261C214.886 271.442 214.949 271.503 215.133 271.499C215.678 271.488 216.222 271.495 216.856 271.495C216.725 270.934 216.643 270.406 216.477 269.907C216.025 268.524 215.161 267.312 214.001 266.434C213.83 266.302 213.699 266.271 213.483 266.362C213.25 266.459 213 266.507 212.748 266.504C212.496 266.501 212.248 266.446 212.018 266.344C211.787 266.242 211.58 266.093 211.409 265.909C211.238 265.724 211.107 265.506 211.022 265.268C210.936 265.032 210.899 264.78 210.912 264.528C210.926 264.277 210.99 264.031 211.101 263.804C211.211 263.578 211.367 263.377 211.557 263.212C211.747 263.047 211.969 262.922 212.209 262.845C213.216 262.517 214.318 263.085 214.57 264.123C214.663 264.511 214.859 264.731 215.151 264.96C217.202 266.565 218.388 268.665 218.667 271.263C218.684 271.425 218.743 271.492 218.901 271.531C219.508 271.678 219.801 272.198 219.589 272.785C218.772 275.057 217.947 277.326 217.116 279.593C216.947 280.056 216.623 280.26 216.093 280.261C214.687 280.264 213.281 280.266 211.875 280.258C211.637 280.258 211.527 280.29 211.489 280.574C211.32 281.829 211.113 283.079 210.921 284.331C210.845 284.825 210.592 285.13 210.166 285.232C209.81 285.317 209.416 285.157 209.194 284.842C209.003 284.571 209.018 284.27 209.068 283.968C209.409 281.763 209.751 279.558 210.093 277.352C210.098 277.282 210.098 277.212 210.093 277.142H199.196C199.267 277.623 199.332 278.084 199.404 278.544C199.687 280.374 199.971 282.204 200.256 284.033C200.327 284.485 200.225 284.87 199.815 285.124C199.655 285.22 199.469 285.265 199.283 285.253C199.097 285.241 198.918 285.173 198.772 285.057C198.53 284.873 198.435 284.614 198.391 284.325C198.196 283.037 197.993 281.745 197.805 280.452C197.776 280.246 197.659 280.261 197.519 280.261H193.335C192.637 280.261 192.374 280.077 192.137 279.423C191.346 277.246 190.556 275.069 189.766 272.891C189.479 272.095 189.894 271.5 190.738 271.498C191.851 271.494 192.964 271.498 194.077 271.498L194.411 271.496ZM197.479 278.383C197.385 277.742 197.3 277.146 197.208 276.551C197.073 275.672 197.442 275.245 198.337 275.245H210.987C211.084 275.242 211.182 275.244 211.279 275.252C211.859 275.316 212.225 275.779 212.152 276.354C212.131 276.518 212.098 276.68 212.073 276.845C211.997 277.343 211.922 277.84 211.838 278.383H212.162C213.196 278.383 214.231 278.376 215.267 278.388C215.488 278.391 215.591 278.326 215.666 278.116C216.194 276.631 216.737 275.15 217.274 273.667C217.305 273.58 217.332 273.492 217.36 273.399H191.954C191.992 273.509 192.018 273.591 192.048 273.672C192.516 274.961 192.985 276.25 193.454 277.539C193.553 277.812 193.593 278.183 193.791 278.323C193.989 278.462 194.351 278.378 194.641 278.381C195.569 278.385 196.496 278.383 197.479 278.383ZM196.357 271.477H212.963C212.957 271.429 212.956 271.4 212.949 271.373C212.499 269.644 210.884 268.388 209.068 268.38C206.209 268.372 203.35 268.372 200.491 268.38C200.199 268.38 199.907 268.4 199.617 268.438C198.088 268.644 196.685 269.948 196.357 271.477Z" fill="#98A2B3"/>
<path d="M346.666 222H289.333C280.496 222 273.333 229.163 273.333 238V300C273.333 308.837 280.496 316 289.333 316H346.666C355.503 316 362.666 308.837 362.666 300V238C362.666 229.163 355.503 222 346.666 222Z" fill="#FAFAFB"/>
<path d="M317.995 262.026C318.502 261.23 318.981 260.473 319.463 259.718C319.671 259.393 319.969 259.235 320.355 259.287C320.517 259.303 320.671 259.367 320.796 259.472C320.921 259.576 321.012 259.716 321.058 259.872C321.162 260.181 321.084 260.462 320.911 260.731C320.325 261.64 319.752 262.557 319.164 263.464C319.06 263.625 319.054 263.735 319.161 263.904C322.991 269.942 326.816 275.984 330.634 282.029C330.728 282.177 330.826 282.242 331.005 282.235C331.366 282.22 331.727 282.225 332.088 282.232C332.587 282.241 332.966 282.616 332.974 283.096C332.98 283.588 332.596 283.974 332.084 283.986C332.035 283.986 331.986 283.986 331.938 283.986C322.641 283.986 313.345 283.986 304.049 283.986C303.903 283.991 303.758 283.974 303.618 283.936C303.419 283.877 303.249 283.748 303.137 283.574C303.025 283.4 302.979 283.191 303.008 282.986C303.038 282.781 303.139 282.593 303.293 282.455C303.447 282.317 303.645 282.237 303.851 282.229C304.193 282.218 304.535 282.211 304.875 282.229C305.091 282.242 305.202 282.156 305.312 281.981C308.272 277.317 311.234 272.653 314.199 267.991C315.061 266.635 315.918 265.274 316.791 263.925C316.92 263.727 316.904 263.6 316.783 263.414C316.211 262.531 315.653 261.639 315.091 260.749C314.757 260.222 314.832 259.699 315.278 259.415C315.739 259.122 316.239 259.277 316.584 259.82C317.013 260.494 317.441 261.169 317.868 261.844C317.898 261.899 317.934 261.943 317.995 262.026ZM317.984 265.327L307.24 282.229H307.627C309.597 282.229 311.568 282.221 313.539 282.238C313.851 282.241 313.992 282.135 314.124 281.866C315.113 279.858 316.118 277.857 317.123 275.856C317.194 275.696 317.293 275.551 317.415 275.426C317.867 275.016 318.518 275.176 318.816 275.772C319.856 277.843 320.891 279.917 321.922 281.992C322.013 282.175 322.118 282.235 322.32 282.234C324.339 282.226 326.359 282.229 328.377 282.229H328.685L317.984 265.327ZM320.073 282.217C319.371 280.812 318.693 279.46 317.988 278.052L315.909 282.217H320.073Z" fill="#98A2B3"/>
<path d="M308.259 266.307C307.391 266.307 306.523 266.31 305.655 266.307C304.383 266.301 303.288 265.41 303.058 264.2C302.816 262.917 303.468 261.717 304.67 261.214C304.785 261.159 304.878 261.066 304.934 260.951C305.394 259.936 306.163 259.338 307.281 259.294C308.435 259.248 309.278 259.794 309.785 260.832C309.869 261.004 309.96 261.039 310.136 261.045C310.63 261.063 311.141 261.036 311.613 261.155C312.869 261.47 313.697 262.73 313.53 263.968C313.347 265.319 312.258 266.298 310.923 266.309C310.035 266.312 309.146 266.307 308.259 266.307ZM308.265 264.551C309.123 264.551 309.98 264.551 310.837 264.551C311.383 264.551 311.774 264.184 311.783 263.686C311.791 263.176 311.391 262.8 310.831 262.797C310.286 262.797 309.74 262.797 309.192 262.797C308.665 262.793 308.309 262.458 308.27 261.941C308.232 261.399 307.874 261.039 307.39 261.039C306.906 261.039 306.562 261.4 306.518 261.95C306.481 262.425 306.148 262.756 305.671 262.793C305.116 262.836 304.747 263.203 304.764 263.698C304.781 264.193 305.174 264.547 305.725 264.549C306.57 264.551 307.417 264.551 308.268 264.551H308.265Z" fill="#98A2B3"/>
<path d="M333 258.409C332.973 261.492 329.853 263.618 326.986 262.493C326.619 262.349 326.338 262.136 326.295 261.711C326.252 261.285 326.466 261 326.822 260.784C327.586 260.319 327.884 259.496 327.599 258.696C327.314 257.896 326.557 257.453 325.653 257.562C325.493 257.586 325.329 257.564 325.181 257.498C325.032 257.432 324.906 257.324 324.818 257.188C324.716 257.055 324.658 256.894 324.651 256.726C324.644 256.559 324.689 256.393 324.779 256.252C325.469 255.063 326.489 254.304 327.844 254.086C330.236 253.697 332.358 255.16 332.878 257.516C332.945 257.807 332.961 258.112 333 258.409ZM327.428 256.075C329.391 257.277 329.843 258.635 329.067 260.956C329.853 260.937 330.749 260.179 331.069 259.263C331.243 258.758 331.26 258.211 331.116 257.697C330.973 257.182 330.676 256.723 330.266 256.381C329.458 255.712 328.276 255.576 327.428 256.075Z" fill="#98A2B3"/>
<path d="M320.623 254.884C320.623 255.116 320.531 255.34 320.366 255.504C320.201 255.669 319.978 255.762 319.745 255.762C319.512 255.762 319.289 255.669 319.124 255.504C318.96 255.34 318.867 255.116 318.867 254.884C318.867 254.651 318.96 254.427 319.124 254.263C319.289 254.098 319.512 254.006 319.745 254.006C319.978 254.006 320.201 254.098 320.366 254.263C320.531 254.427 320.623 254.651 320.623 254.884Z" fill="#98A2B3"/>
<path d="M311.843 256.659C311.841 256.833 311.787 257.002 311.688 257.146C311.59 257.289 311.451 257.4 311.289 257.464C311.127 257.529 310.95 257.543 310.78 257.507C310.61 257.47 310.455 257.384 310.334 257.259C310.213 257.134 310.132 256.975 310.101 256.804C310.07 256.633 310.09 256.456 310.16 256.297C310.23 256.137 310.345 256.002 310.492 255.909C310.638 255.815 310.809 255.767 310.983 255.77C311.214 255.777 311.433 255.874 311.594 256.04C311.754 256.206 311.844 256.428 311.843 256.659Z" fill="#98A2B3"/>
<path d="M324.135 263.673C324.135 263.847 324.084 264.017 323.987 264.161C323.89 264.306 323.753 264.418 323.592 264.485C323.431 264.551 323.254 264.568 323.084 264.534C322.913 264.499 322.757 264.415 322.634 264.291C322.512 264.168 322.429 264.011 322.395 263.84C322.362 263.669 322.381 263.493 322.448 263.332C322.516 263.172 322.629 263.035 322.774 262.94C322.92 262.844 323.09 262.794 323.264 262.795C323.495 262.798 323.716 262.892 323.879 263.056C324.042 263.22 324.134 263.442 324.135 263.673Z" fill="#98A2B3"/>
<path d="M460 222H402.667C393.83 222 386.667 229.163 386.667 238V300C386.667 308.837 393.83 316 402.667 316H460C468.837 316 476 308.837 476 300V238C476 229.163 468.837 222 460 222Z" fill="#FAFAFB"/>
<path d="M437.681 269.624C436.964 270.402 436.386 271.256 436.095 272.27C436.003 272.592 435.945 272.921 435.885 273.263C435.864 273.382 435.843 273.503 435.82 273.625L437.681 269.624ZM437.681 269.624C439.484 267.664 440.859 265.45 441.647 262.889C441.762 262.514 441.858 262.131 441.957 261.733C441.986 261.619 442.015 261.503 442.045 261.386C442.112 261.48 442.173 261.566 442.232 261.654C443.805 264.002 444.536 266.594 444.462 269.415C444.452 269.535 444.395 269.646 444.305 269.725C441.808 271.634 438.919 272.965 435.845 273.622L437.681 269.624ZM418.518 272.35L418.599 272.328C418.568 272.307 418.536 272.287 418.504 272.266C418.508 272.301 418.511 272.326 418.518 272.35ZM446.432 269.042C446.439 260.661 439.7 253.895 431.347 253.895C422.993 253.895 416.233 260.642 416.233 268.987C416.233 277.329 422.972 284.097 431.291 284.105C439.649 284.114 446.428 277.37 446.432 269.042ZM428.578 272.156C428.264 270.73 427.543 269.512 426.565 268.453C424.968 266.72 423.708 264.787 422.969 262.54C422.651 261.571 422.435 260.583 422.384 259.566C422.382 259.465 422.419 259.367 422.487 259.292C424.615 257.355 427.116 256.243 429.973 255.923C430.072 255.911 430.169 255.909 430.276 255.906C430.296 255.905 430.317 255.905 430.338 255.904V274.085L428.842 273.968C428.818 273.79 428.796 273.613 428.775 273.437C428.722 273.001 428.67 272.572 428.578 272.156ZM433.876 273.893V273.894C433.876 273.912 433.874 273.928 433.87 273.957C433.87 273.957 433.87 273.959 433.87 273.961L432.332 274.082V255.886C432.475 255.905 432.617 255.922 432.757 255.939C433.137 255.986 433.511 256.031 433.881 256.105C436.258 256.58 438.351 257.633 440.154 259.255L440.159 259.259C440.209 259.298 440.247 259.35 440.27 259.409C440.293 259.468 440.3 259.531 440.291 259.594L440.29 259.601C440.042 262.621 438.786 265.212 436.898 267.538C436.706 267.774 436.505 268.003 436.303 268.234C436.261 268.282 436.219 268.33 436.176 268.378C435.932 268.658 435.689 268.941 435.464 269.24C434.429 270.611 433.884 272.164 433.876 273.893ZM418.371 269.763C418.332 269.733 418.29 269.686 418.257 269.634C418.224 269.579 418.207 269.53 418.206 269.496C418.117 266.526 418.903 263.82 420.621 261.388C420.625 261.383 420.629 261.378 420.632 261.373C420.894 262.671 421.318 263.93 421.893 265.123V265.124C422.691 266.767 423.731 268.281 424.978 269.615C425.881 270.592 426.534 271.688 426.752 273.011C426.778 273.165 426.792 273.319 426.809 273.492C426.813 273.539 426.818 273.587 426.823 273.636C426.691 273.604 426.561 273.573 426.434 273.543C426.078 273.458 425.739 273.378 425.403 273.281C422.86 272.557 420.475 271.364 418.371 269.763ZM440.056 278.837C439.971 278.914 439.892 278.955 439.813 278.972C439.734 278.99 439.646 278.986 439.539 278.959C438.316 278.651 437.435 277.881 436.759 276.845C436.577 276.565 436.43 276.265 436.273 275.941C436.215 275.823 436.156 275.702 436.093 275.578C438.925 274.987 441.624 273.878 444.053 272.308C444.052 272.317 444.051 272.325 444.05 272.333C443.359 274.894 442.028 277.061 440.056 278.837ZM418.619 272.34C421.04 273.895 423.726 274.994 426.544 275.582C425.87 277.242 424.864 278.481 423.1 278.963L423.094 278.965C423.016 278.991 422.932 278.995 422.852 278.976C422.772 278.957 422.698 278.916 422.64 278.858L422.636 278.854C420.648 277.082 419.31 274.911 418.619 272.34ZM432.334 276.055L434.17 275.907C434.803 277.878 435.973 279.414 437.846 280.424C436.158 281.389 434.274 281.962 432.334 282.102V276.055ZM430.34 276.055V282.103C428.398 281.964 426.513 281.39 424.823 280.423C426.691 279.409 427.858 277.881 428.494 275.91L430.34 276.055Z" fill="#98A2B3"/>
<path d="M437.681 269.624C436.964 270.402 436.386 271.256 436.095 272.27C436.003 272.592 435.945 272.921 435.885 273.263C435.864 273.382 435.843 273.503 435.82 273.625L437.681 269.624ZM437.681 269.624C439.484 267.664 440.859 265.45 441.647 262.889C441.762 262.514 441.858 262.131 441.957 261.733C441.986 261.619 442.015 261.503 442.045 261.386C442.112 261.48 442.173 261.566 442.232 261.654C443.805 264.002 444.536 266.594 444.462 269.415C444.452 269.535 444.395 269.646 444.305 269.725C441.808 271.634 438.919 272.965 435.845 273.622L437.681 269.624ZM418.518 272.35L418.599 272.328C418.568 272.307 418.536 272.287 418.504 272.266C418.508 272.301 418.511 272.326 418.518 272.35ZM418.518 272.35L418.6 272.328M446.432 269.042C446.439 260.661 439.7 253.895 431.347 253.895C422.993 253.895 416.233 260.642 416.233 268.987C416.233 277.329 422.972 284.097 431.291 284.105C439.649 284.114 446.428 277.37 446.432 269.042ZM446.432 269.042H446.332M435.464 269.24C435.689 268.941 435.932 268.658 436.176 268.378C436.219 268.33 436.261 268.282 436.303 268.234C436.505 268.003 436.706 267.774 436.898 267.538C438.786 265.212 440.042 262.621 440.29 259.601L440.291 259.594C440.3 259.531 440.293 259.468 440.27 259.409C440.247 259.35 440.209 259.298 440.159 259.259L440.154 259.255C438.351 257.633 436.258 256.58 433.881 256.105C433.511 256.031 433.137 255.986 432.757 255.939C432.617 255.922 432.475 255.905 432.332 255.886V274.082L433.87 273.961C433.87 273.959 433.87 273.957 433.87 273.957C433.874 273.928 433.876 273.912 433.876 273.894V273.893C433.884 272.164 434.429 270.611 435.464 269.24ZM435.464 269.24L435.543 269.3M428.578 272.156C428.264 270.73 427.543 269.512 426.565 268.453C424.968 266.72 423.708 264.787 422.969 262.54C422.651 261.571 422.435 260.583 422.384 259.566C422.382 259.465 422.419 259.367 422.487 259.292C424.615 257.355 427.116 256.243 429.973 255.923C430.072 255.911 430.169 255.909 430.276 255.906C430.296 255.905 430.317 255.905 430.338 255.904V274.085L428.842 273.968C428.818 273.79 428.796 273.613 428.775 273.437C428.722 273.001 428.67 272.572 428.578 272.156ZM418.371 269.763C418.332 269.733 418.29 269.686 418.257 269.634C418.224 269.579 418.207 269.53 418.206 269.496C418.117 266.526 418.903 263.82 420.621 261.388C420.625 261.383 420.629 261.378 420.632 261.373C420.894 262.671 421.318 263.93 421.893 265.123V265.124C422.691 266.767 423.731 268.281 424.978 269.615C425.881 270.592 426.534 271.688 426.752 273.011C426.778 273.165 426.792 273.319 426.809 273.492C426.813 273.539 426.818 273.587 426.823 273.636C426.691 273.604 426.561 273.573 426.434 273.543C426.078 273.458 425.739 273.378 425.403 273.281C422.86 272.557 420.475 271.364 418.371 269.763ZM440.056 278.837C439.971 278.914 439.892 278.955 439.813 278.972C439.734 278.99 439.646 278.986 439.539 278.959C438.316 278.651 437.435 277.881 436.759 276.845C436.577 276.565 436.43 276.265 436.273 275.941C436.215 275.823 436.156 275.702 436.093 275.578C438.925 274.987 441.624 273.878 444.053 272.308C444.052 272.317 444.051 272.325 444.05 272.333C443.359 274.894 442.028 277.061 440.056 278.837ZM418.619 272.34C421.04 273.895 423.726 274.994 426.544 275.582C425.87 277.242 424.864 278.481 423.1 278.963L423.094 278.965C423.016 278.991 422.932 278.995 422.852 278.976C422.772 278.957 422.698 278.916 422.64 278.858L422.636 278.854C420.648 277.082 419.31 274.911 418.619 272.34ZM432.334 276.055L434.17 275.907C434.803 277.878 435.973 279.414 437.846 280.424C436.158 281.389 434.274 281.962 432.334 282.102V276.055ZM430.34 276.055V282.103C428.398 281.964 426.513 281.39 424.823 280.423C426.691 279.409 427.858 277.881 428.494 275.91L430.34 276.055Z" stroke="#98A2B3" stroke-width="0.2"/>
<path d="M104.293 553.849L103.394 596.766L159.886 598.095C159.689 592.987 130.734 582.06 130.734 582.06L132.504 554.585L104.293 553.849Z" fill="#335863"/>
<path d="M113.807 583.405C112.828 583.405 111.864 582.704 111.666 581.786C111.454 580.803 112.128 579.74 113.116 579.395C113.319 579.298 113.542 579.255 113.773 579.255C114.682 579.255 115.687 579.944 115.966 580.757C116.316 581.777 115.327 583.123 114.221 583.362C114.084 583.392 113.945 583.405 113.807 583.405Z" fill="#A6B6BB"/>
<path d="M159.886 598.095C159.863 597.458 159.391 596.73 158.582 595.943H158.744C159.389 596.428 160.068 597.175 159.886 598.095Z" fill="white"/>
<path d="M158.744 595.944H158.582C158.455 595.82 158.318 595.695 158.176 595.569C158.343 595.667 158.541 595.792 158.744 595.944Z" fill="#9DA7AA"/>
<path d="M159.886 598.095L103.394 596.765L103.664 592.442L157.727 595.334C157.727 595.334 157.912 595.415 158.176 595.568C158.317 595.694 158.455 595.819 158.582 595.943C159.391 596.73 159.863 597.458 159.886 598.095Z" fill="#A6B6BB"/>
<path d="M131.657 581.809C131.641 582.071 130.259 582.156 128.879 582.962C127.479 583.736 126.748 584.848 126.499 584.739C126.245 584.68 126.696 583.133 128.385 582.184C130.064 581.222 131.724 581.572 131.657 581.809Z" fill="#2C3F4D"/>
<path d="M137.521 584.266C137.577 584.52 136.371 584.934 135.406 586.016C134.407 587.07 134.138 588.255 133.864 588.239C133.604 588.273 133.453 586.742 134.681 585.42C135.896 584.089 137.523 584.016 137.521 584.266Z" fill="#2C3F4D"/>
<path d="M140.709 591.049C140.458 591.097 140.108 589.785 140.856 588.374C141.59 586.957 142.906 586.426 143.016 586.646C143.167 586.864 142.309 587.611 141.716 588.778C141.093 589.931 140.985 591.028 140.709 591.049Z" fill="#2C3F4D"/>
<path d="M131.326 575.507C131.204 575.742 129.948 575.351 128.386 575.414C126.823 575.45 125.596 575.915 125.458 575.688C125.303 575.495 126.515 574.558 128.355 574.508C130.194 574.445 131.466 575.305 131.326 575.507Z" fill="#2C3F4D"/>
<path d="M130.147 569.139C130.147 569.247 129.053 569.382 127.318 569.058C126.456 568.897 125.441 568.604 124.381 568.131C123.852 567.89 123.312 567.608 122.778 567.276C122.522 567.112 122.218 566.946 121.941 566.627C121.643 566.349 121.486 565.653 121.851 565.238C122.15 564.834 122.667 564.67 123.074 564.671C123.492 564.667 123.827 564.754 124.133 564.834C124.757 564.993 125.342 565.204 125.876 565.445C126.943 565.934 127.805 566.541 128.443 567.126C129.724 568.304 130.144 569.288 130.049 569.335C129.921 569.419 129.305 568.587 127.997 567.61C127.343 567.123 126.507 566.615 125.508 566.206C125.008 566.004 124.469 565.828 123.897 565.694C123.303 565.532 122.792 565.515 122.633 565.765C122.574 565.858 122.566 565.896 122.688 566.065C122.813 566.221 123.051 566.376 123.303 566.538C123.796 566.859 124.291 567.139 124.778 567.381C125.75 567.867 126.685 568.203 127.486 568.436C129.093 568.901 130.156 568.997 130.147 569.139Z" fill="#2C3F4D"/>
<path d="M129.778 569.504C129.679 569.544 129.157 568.597 129.101 566.904C129.076 566.067 129.194 565.055 129.563 563.987C129.752 563.456 130.002 562.911 130.327 562.38C130.673 561.862 131.095 561.164 132.168 561.072C132.727 561.065 133.18 561.49 133.329 561.847C133.507 562.212 133.536 562.523 133.594 562.834C133.681 563.461 133.653 564.071 133.548 564.634C133.341 565.767 132.823 566.7 132.267 567.369C131.127 568.725 129.967 569.01 129.946 568.922C129.858 568.789 130.833 568.307 131.713 566.998C132.146 566.352 132.54 565.496 132.674 564.505C132.742 564.014 132.748 563.488 132.662 562.96C132.588 562.39 132.376 561.927 132.15 561.981C131.869 561.97 131.38 562.386 131.138 562.833C130.835 563.304 130.59 563.788 130.398 564.265C130.019 565.223 129.839 566.142 129.78 566.92C129.66 568.486 129.93 569.469 129.778 569.504Z" fill="#2C3F4D"/>
<path d="M61.4762 557.413L56.0801 599.998L0.0020752 593.038C0.943598 588.014 31.1879 581.447 31.1879 581.447L33.4622 554.008L61.4762 557.413Z" fill="#335863"/>
<path d="M48.0465 585.282C47.8043 585.282 47.5624 585.241 47.332 585.155C46.2739 584.757 45.493 583.281 45.9873 582.324C46.3417 581.638 47.2581 581.138 48.0922 581.138C48.4229 581.138 48.74 581.216 49.0043 581.392C49.9326 581.876 50.4435 583.029 50.0905 583.97C49.7954 584.757 48.9203 585.282 48.0465 585.282Z" fill="#A6B6BB"/>
<path d="M0.00185961 593.038C-0.0574302 591.802 1.31538 591.086 2.0665 590.788C0.885786 591.554 0.137379 592.311 0.00185961 593.038Z" fill="white"/>
<path d="M56.0801 600L19.5084 595.463L0.0020752 593.041C0.137595 592.315 0.886001 591.557 2.06672 590.791C2.3486 590.679 2.54205 590.626 2.54205 590.626L56.4463 595.686L56.0801 600Z" fill="#A6B6BB"/>
<path d="M30.3126 581.064C30.2902 581.325 31.6437 581.611 32.8908 582.612C34.1647 583.58 34.7227 584.789 34.987 584.717C35.2451 584.698 35.0253 583.099 33.4946 581.914C31.9744 580.715 30.2814 580.819 30.3126 581.064Z" fill="#2C3F4D"/>
<path d="M24.1518 582.636C24.0586 582.88 25.1909 583.467 25.9877 584.677C26.8215 585.866 26.9133 587.079 27.1877 587.102C27.4402 587.175 27.8135 585.681 26.792 584.193C25.7855 582.699 24.187 582.391 24.1518 582.636Z" fill="#2C3F4D"/>
<path d="M20.0044 588.874C20.2463 588.961 20.7836 587.714 20.2524 586.21C19.7327 584.7 18.5093 583.981 18.3673 584.183C18.1861 584.375 18.9253 585.24 19.3431 586.481C19.7889 587.714 19.7357 588.815 20.0044 588.874Z" fill="#2C3F4D"/>
<path d="M31.5642 574.878C31.6499 575.129 32.9502 574.926 34.485 575.218C36.0275 575.48 37.1713 576.122 37.3411 575.917C37.5213 575.75 36.4629 574.646 34.649 574.326C32.8394 573.994 31.4534 574.658 31.5642 574.878Z" fill="#2C3F4D"/>
<path d="M33.6611 568.753C33.6448 568.86 34.709 569.154 36.4714 569.088C37.3496 569.055 38.3961 568.915 39.5135 568.599C40.0715 568.443 40.6485 568.242 41.2241 567.991C41.5016 567.865 41.8278 567.746 42.148 567.471C42.4844 567.239 42.7399 566.574 42.4404 566.109C42.2025 565.668 41.717 565.429 41.3125 565.368C40.9009 565.306 40.557 565.341 40.2426 565.375C39.6006 565.44 38.9924 565.564 38.4287 565.725C37.3008 566.053 36.3593 566.528 35.6434 567.011C34.2045 567.988 33.6421 568.9 33.7305 568.962C33.8444 569.062 34.5762 568.33 36.014 567.556C36.7299 567.169 37.6332 566.789 38.6811 566.532C39.2048 566.406 39.7642 566.31 40.349 566.262C40.9615 566.187 41.4677 566.246 41.5886 566.516C41.633 566.618 41.6357 566.656 41.4914 566.805C41.345 566.941 41.0855 567.059 40.8124 567.183C40.2809 567.428 39.7483 567.632 39.2316 567.802C38.1983 568.138 37.2242 568.336 36.3976 568.448C34.7401 568.673 33.6729 568.614 33.6611 568.753Z" fill="#2C3F4D"/>
<path d="M33.9729 569.169C34.0657 569.22 34.721 568.36 35.0252 566.696C35.1726 565.87 35.2038 564.851 34.9941 563.741C34.8863 563.188 34.7183 562.613 34.4747 562.041C34.2091 561.476 33.893 560.725 32.8451 560.478C32.2932 560.388 31.7826 560.742 31.583 561.071C31.3543 561.408 31.2791 561.712 31.1771 562.01C30.9986 562.617 30.9366 563.225 30.959 563.798C30.9972 564.949 31.372 565.948 31.8253 566.691C32.7536 568.199 33.8591 568.651 33.893 568.565C34.0007 568.447 33.1063 567.828 32.4273 566.406C32.0939 565.703 31.8297 564.798 31.8415 563.801C31.8459 563.302 31.9181 562.782 32.079 562.271C32.2356 561.719 32.5144 561.293 32.7299 561.377C33.009 561.408 33.4312 561.891 33.6084 562.369C33.8371 562.881 34.0082 563.396 34.1291 563.895C34.3639 564.896 34.4066 565.833 34.3507 566.612C34.2385 568.178 33.8296 569.111 33.9729 569.169Z" fill="#2C3F4D"/>
<path d="M148.114 326.07L60.1537 328.882C60.1537 328.882 39.4249 467.318 39.9961 476.934L27.2129 577.35L64.4117 578.654C64.4117 578.654 70.2641 546.092 74.3453 523.805C77.0594 508.976 82.0143 487.22 83.359 474.84C84.702 462.456 106.456 375.985 106.456 375.985C106.456 375.985 104.849 476.362 104.886 480.485C104.923 484.609 100.587 578.576 100.587 578.576H137.524C139.433 561.617 143.965 493.748 144.941 480.032C146.703 455.273 152.265 385.313 153.074 367.437C153.884 349.562 148.114 326.07 148.114 326.07Z" fill="#1F3647"/>
<path d="M142.317 326.745C142.14 326.745 141.996 325.332 141.996 323.589C141.996 321.846 142.14 320.437 142.317 320.437C142.495 320.437 142.638 321.846 142.638 323.589C142.638 325.332 142.495 326.745 142.317 326.745Z" fill="#335863"/>
<path d="M145.97 328.404C145.805 328.431 145.416 326.619 145.61 324.361C145.793 322.102 146.475 320.38 146.634 320.436C146.814 320.487 146.426 322.234 146.25 324.413C146.063 326.595 146.156 328.382 145.97 328.404Z" fill="#335863"/>
<path d="M113.115 321.811C113.141 321.925 112.135 321.803 111.254 322.849C110.843 323.347 110.491 324.123 110.644 324.933C110.773 325.745 111.552 326.434 112.508 326.614C113.466 326.799 114.442 326.442 114.859 325.735C115.301 325.036 115.258 324.185 115.059 323.573C114.622 322.275 113.64 322.02 113.707 321.924C113.713 321.894 113.955 321.891 114.328 322.085C114.702 322.274 115.178 322.709 115.484 323.412C115.768 324.099 115.903 325.106 115.364 326.043C114.839 327.006 113.549 327.482 112.389 327.245C111.222 327.039 110.198 326.124 110.061 325.035C109.905 323.967 110.399 323.078 110.915 322.544C111.457 322.002 112.062 321.772 112.477 321.733C112.898 321.689 113.119 321.784 113.115 321.811Z" fill="#335863"/>
<path d="M72.5653 474.555C72.4989 474.719 68.2805 473.142 63.1457 471.033C58.0092 468.924 53.9016 467.082 53.9693 466.917C54.0357 466.753 58.2541 468.329 63.3907 470.438C68.5241 472.548 72.6331 474.391 72.5653 474.555Z" fill="#335863"/>
<path d="M67.7847 118.017C68.0753 112.897 71.2238 109.747 75.6353 107.133C80.0485 104.518 85.7695 104.258 90.3995 106.463C93.4961 107.937 96.2075 110.456 99.6098 110.894C105.212 111.617 110.514 106.428 116.012 107.722C119.267 108.491 121.746 111.746 121.621 115.087C121.497 118.427 118.781 121.49 115.478 122.011C119.147 122.542 121.224 127.183 119.867 130.632C118.511 134.083 114.66 136.085 110.954 136.164C107.248 136.245 103.686 134.732 100.48 132.871C97.2748 131.011 94.2815 128.772 90.9382 127.172C87.5936 125.573 83.7472 124.637 80.1651 125.592C75.3165 126.882 71.8804 131.46 70.614 136.318C69.3492 141.174 69.8954 146.303 70.6482 151.265C71.4024 156.225 72.3571 161.231 71.8865 166.227C71.832 166.813 71.7005 167.484 71.1852 167.769C70.4398 168.179 69.5854 167.477 69.0362 166.826C62.8402 159.48 58.1069 150.905 55.1932 141.748C53.5002 136.428 52.5675 131.251 54.5983 126.052C56.6307 120.852 63.4748 115.905 67.7847 118.017Z" fill="#2C3F4D"/>
<path d="M63.0611 142.762L71.2587 193.348C72.7894 202.794 78.9295 211.922 93.754 208.821C106.414 205.159 105.472 196.052 103.823 184.826C103.823 184.826 117.749 181.204 116.5 167.042C115.898 160.199 113.509 146.204 111.2 133.568C108.722 119.998 96.2221 110.617 82.497 111.997L81.1317 112.134C66.5033 114.473 60.3175 128.203 63.0611 142.762Z" fill="#F9B299"/>
<path d="M103.823 184.825C103.823 184.825 94.9601 186.243 84.8599 181.232C84.8599 181.232 90.4124 191.753 104.397 189.06L103.823 184.825Z" fill="#F79570"/>
<path d="M108.424 145.945C108.569 147.008 107.788 148.007 106.681 148.178C105.576 148.349 104.562 147.63 104.415 146.566C104.271 145.505 105.051 144.503 106.156 144.332C107.262 144.16 108.278 144.882 108.424 145.945Z" fill="#2C3F4D"/>
<path d="M108.859 140.815C108.636 141.104 106.992 140.126 104.819 140.35C102.644 140.542 101.162 141.821 100.899 141.578C100.772 141.472 100.979 140.971 101.622 140.396C102.256 139.825 103.373 139.216 104.728 139.087C106.083 138.958 107.271 139.34 107.977 139.786C108.697 140.231 108.971 140.685 108.859 140.815Z" fill="#2C3F4D"/>
<path d="M88.631 149.078C88.7757 150.14 87.9948 151.14 86.888 151.311C85.7838 151.484 84.7685 150.763 84.6238 149.699C84.4778 148.638 85.2586 147.637 86.3641 147.466C87.471 147.293 88.4863 148.015 88.631 149.078Z" fill="#2C3F4D"/>
<path d="M87.9448 143.363C87.7205 143.651 86.0749 142.674 83.9036 142.898C81.7295 143.09 80.2462 144.369 79.9833 144.126C79.8566 144.02 80.0616 143.52 80.708 142.944C81.3399 142.371 82.4572 141.765 83.8121 141.634C85.167 141.505 86.3551 141.889 87.0622 142.333C87.7794 142.779 88.0556 143.233 87.9448 143.363Z" fill="#2C3F4D"/>
<path d="M97.0453 158.694C97.0219 158.572 98.3504 158.203 100.511 157.702C101.06 157.589 101.574 157.426 101.63 157.038C101.72 156.623 101.428 156.049 101.094 155.431C100.436 154.139 99.7496 152.787 99.0276 151.369C96.1421 145.58 93.9961 140.8 94.2292 140.686C94.464 140.571 96.9924 145.17 99.8749 150.957C100.575 152.386 101.24 153.748 101.875 155.051C102.149 155.661 102.582 156.34 102.383 157.2C102.275 157.63 101.899 157.972 101.552 158.104C101.206 158.248 100.895 158.285 100.622 158.329C98.43 158.669 97.0646 158.817 97.0453 158.694Z" fill="#2C3F4D"/>
<path d="M87.2407 134.794C87.0858 135.407 84.8879 135.345 82.3686 135.909C79.8371 136.422 77.8566 137.376 77.4653 136.88C77.2881 136.641 77.5909 136.049 78.364 135.394C79.1317 134.74 80.3922 134.064 81.9066 133.739C83.4193 133.419 84.8452 133.521 85.8118 133.804C86.7859 134.087 87.3044 134.505 87.2407 134.794Z" fill="#2C3F4D"/>
<path d="M107.427 134.605C107.095 135.137 105.547 134.775 103.743 134.933C101.935 135.026 100.452 135.599 100.049 135.118C99.8705 134.882 100.059 134.364 100.679 133.829C101.289 133.298 102.349 132.806 103.59 132.719C104.831 132.634 105.949 132.973 106.626 133.417C107.312 133.86 107.572 134.347 107.427 134.605Z" fill="#2C3F4D"/>
<path d="M65.2693 153.119C65.0169 153.039 55.2605 151.222 56.5432 160.86C57.8228 170.498 67.235 167.225 67.216 166.945C67.1954 166.668 65.2693 153.119 65.2693 153.119Z" fill="#F9B299"/>
<path d="M63.786 163.685C63.7403 163.66 63.6342 163.825 63.3683 163.993C63.1071 164.155 62.6436 164.306 62.1154 164.185C61.0482 163.947 59.9752 162.443 59.6977 160.713C59.5575 159.84 59.6296 158.979 59.8482 158.247C60.0491 157.503 60.44 156.95 60.9404 156.79C61.4347 156.604 61.8393 156.863 61.9928 157.118C62.1567 157.37 62.1212 157.571 62.1757 157.581C62.2055 157.6 62.3603 157.392 62.2306 157.004C62.1655 156.818 62.0222 156.606 61.7715 156.451C61.5147 156.294 61.1617 156.243 60.809 156.328C60.0724 156.479 59.4955 157.252 59.2549 158.057C58.973 158.87 58.8697 159.84 59.0289 160.821C59.3494 162.755 60.5847 164.44 62.031 164.657C62.7324 164.744 63.271 164.464 63.5336 164.198C63.8009 163.921 63.8229 163.698 63.786 163.685Z" fill="#F79570"/>
<path d="M110.046 120.38C108.508 117.726 106.04 115.729 103.421 114.135C97.7734 110.701 91.0784 108.879 84.4912 109.44C77.9039 109.999 71.4776 113.027 67.1796 118.05C63.7421 122.069 61.7479 127.215 61.1117 132.467C60.4757 137.718 61.1459 143.073 62.5953 148.161C63.2312 150.394 64.0887 152.692 65.8525 154.202C66.9553 155.145 68.7367 155.66 69.792 154.665C70.4147 154.08 70.5713 153.168 70.6939 152.322C71.8038 144.673 72.8341 136.465 69.3773 129.552C70.9833 126.956 72.9107 124.497 75.4229 122.761C77.9334 121.025 81.0951 120.075 84.0866 120.675C88.531 121.568 91.6083 125.496 95.3426 128.067C100.678 131.742 107.837 132.614 113.9 130.33L110.046 120.38Z" fill="#2C3F4D"/>
<path d="M98.9582 164.567C98.802 165.475 98.6425 166.396 98.2366 167.222C97.8294 168.049 97.1372 168.782 96.2455 169.013C95.2951 169.259 94.2516 168.884 93.549 168.199C92.8463 167.515 92.4567 166.558 92.2988 165.59C92.1572 164.713 92.3371 163.594 93.1783 163.313C93.5283 163.195 93.9105 163.259 94.2737 163.324C95.9121 163.623 97.5519 163.918 99.1917 164.214" fill="#F79570"/>
<path d="M97.9283 168.675C97.8765 168.538 96.9658 169.15 95.4486 168.881C94.7151 168.75 93.8603 168.366 93.2746 167.603C92.6898 166.851 92.3727 165.733 92.5939 164.651C92.6427 164.383 92.743 164.123 92.848 163.891C92.9879 163.665 92.9571 163.68 93.1577 163.668C93.3528 163.68 93.6804 163.757 93.943 163.801C94.2174 163.851 94.4878 163.901 94.7517 163.949C95.8044 164.138 96.7533 164.297 97.5533 164.419C99.1534 164.663 100.154 164.759 100.178 164.647C100.2 164.535 99.2388 164.237 97.6684 163.846C96.8831 163.651 95.9443 163.432 94.9008 163.202C94.6382 163.144 94.3709 163.087 94.0982 163.026C93.8116 162.974 93.5842 162.897 93.2007 162.86C93.0117 162.846 92.7548 162.871 92.5306 163.019C92.312 163.167 92.1968 163.36 92.1142 163.519C91.9682 163.831 91.8472 164.146 91.7852 164.486C91.5108 165.837 91.9255 167.18 92.681 168.083C93.4531 169.004 94.52 169.391 95.3717 169.461C96.2397 169.541 96.9289 169.335 97.351 169.126C97.7762 168.914 97.9561 168.716 97.9283 168.675Z" fill="#2C3F4D"/>
<path d="M133.871 143.757L136.151 143.14L171.764 177.76L200.606 181.233C200.606 181.233 200.319 172.512 189.464 161.38C179.781 151.452 157.126 139.609 149.46 133.521C147.546 132.002 146.138 131.54 146.138 131.54L133.871 143.757Z" fill="#F9B299"/>
<path d="M133.853 127.285L130.211 126.264L121.62 122.188L111.846 125.825C111.846 125.825 112.064 129.169 114.639 128.257L104.397 131.634C104.397 131.634 105.237 134.06 105.698 134.221C106.158 134.382 99.689 134.928 99.689 134.928C99.689 134.928 99.6314 138.219 105.804 138.155C111.977 138.091 114.305 137.045 114.305 137.045L119.223 138.357L119.027 141.281L112.337 141.182L112.641 144.935C113.622 145.402 121.268 146.25 121.268 146.25C121.268 146.25 131.603 146.402 134.399 145.053C137.196 143.706 140.773 141.753 140.773 141.753L146.138 131.539L133.853 127.285Z" fill="#F9B299"/>
<path d="M124.633 129.025C124.568 129.106 124.047 128.824 123.157 128.418C122.276 127.986 121.012 127.487 119.683 126.573L120.127 126.581C120.001 126.663 119.867 126.752 119.733 126.84C118.295 127.751 116.788 128.178 115.702 128.316C114.605 128.457 113.928 128.351 113.926 128.254C113.897 128.024 116.62 127.912 119.324 126.19L119.693 125.949L119.919 125.803L120.137 125.956C121.33 126.796 122.589 127.406 123.411 127.961C124.254 128.497 124.695 128.948 124.633 129.025Z" fill="#F79570"/>
<path d="M121.477 134.222C121.495 134.287 120.826 134.458 119.824 134.042C118.813 133.673 117.73 132.615 116.331 131.971L116.686 131.942C116.099 132.34 115.435 132.727 114.716 133.065C112.685 134.036 110.644 134.378 109.19 134.424C107.727 134.473 106.84 134.259 106.851 134.168C106.836 133.934 110.486 134.235 114.388 132.37C115.072 132.048 115.708 131.691 116.277 131.328L116.461 131.211L116.632 131.298C118.218 132.101 119.156 133.187 120.027 133.624C120.868 134.11 121.482 134.114 121.477 134.222Z" fill="#F79570"/>
<path d="M130.637 137.427C130.597 137.55 129.877 137.324 128.712 137.339C127.557 137.344 125.935 137.663 124.46 138.62C123.548 139.213 122.837 139.97 122.357 140.704L122.271 140.835L122.138 140.86C120.072 141.248 118.66 141.428 118.628 141.285C118.598 141.144 119.954 140.714 121.994 140.199L121.777 140.355C122.255 139.508 123.028 138.633 124.041 137.976C125.676 136.913 127.499 136.657 128.737 136.795C129.993 136.927 130.672 137.353 130.637 137.427Z" fill="#F79570"/>
<path d="M140.773 141.753C140.78 141.765 140.678 141.833 140.474 141.955C140.225 142.097 139.924 142.267 139.556 142.475C138.678 142.951 137.487 143.597 135.983 144.411C135.204 144.802 134.37 145.375 133.279 145.626C132.221 145.895 131.055 146.053 129.802 146.183C127.294 146.432 124.435 146.537 121.265 146.534H121.253L121.241 146.532C120.02 146.407 118.735 146.277 117.398 146.14C116.038 145.948 114.711 145.886 113.181 145.422L113.032 145.377L113.001 145.182C112.79 143.893 112.561 142.492 112.326 141.057L112.26 140.65L112.674 140.667C114.686 140.748 116.832 140.835 119.042 140.925L118.671 141.256C118.73 140.346 118.795 139.346 118.862 138.333L119.13 138.708C117.58 138.298 115.908 137.855 114.209 137.405L114.457 137.386C112.068 138.219 109.609 138.388 107.067 138.507C105.81 138.547 104.492 138.573 103.176 138.314C101.894 138.069 100.464 137.498 99.6858 136.193C99.4764 135.805 99.3243 135.424 99.305 134.921L99.2917 134.577L99.6577 134.545C101.185 134.413 102.704 134.276 104.192 134.107C104.564 134.065 104.938 134.02 105.288 133.963L105.525 133.916L105.519 133.92L105.432 133.988L105.348 134.32L105.557 134.575L105.318 134.414C105.114 134.209 105.03 134.041 104.927 133.863C104.554 133.16 104.295 132.469 104.04 131.758L103.909 131.395L104.279 131.274C107.817 130.112 111.243 128.99 114.525 127.913L114.76 128.598C114.358 128.711 113.932 128.829 113.475 128.738C113.023 128.667 112.602 128.409 112.322 128.078C111.762 127.399 111.585 126.629 111.497 125.847L111.469 125.59L111.724 125.495C115.194 124.219 118.462 123.016 121.511 121.894L121.637 121.847L121.754 121.903C124.869 123.402 127.737 124.782 130.323 126.028L130.281 126.012C131.537 126.375 132.734 126.719 133.867 127.045C134.972 127.438 136.014 127.807 136.99 128.153C138.916 128.846 140.578 129.444 141.961 129.941C143.266 130.423 144.302 130.807 145.075 131.092C145.782 131.362 146.147 131.516 146.138 131.539C146.13 131.563 145.75 131.457 145.026 131.232C144.243 130.978 143.193 130.641 141.871 130.212C140.477 129.749 138.802 129.191 136.864 128.546C135.883 128.217 134.836 127.866 133.728 127.494C132.594 127.185 131.397 126.859 130.14 126.517L130.119 126.511L130.098 126.5C127.497 125.284 124.615 123.935 121.486 122.471L121.729 122.481C118.689 123.625 115.429 124.85 111.969 126.152L112.196 125.801C112.266 126.435 112.461 127.153 112.859 127.612C113.252 128.083 113.874 128.146 114.518 127.916L114.753 128.601C111.473 129.687 108.052 130.822 104.517 131.994L104.757 131.51C105 132.183 105.266 132.881 105.594 133.494C105.674 133.64 105.776 133.799 105.841 133.858L105.848 133.867L105.761 134.034L105.756 134.047L105.755 134.053C105.897 133.671 105.81 133.953 105.848 133.871L105.957 133.939L106.093 134.156L105.987 134.513L105.872 134.599L105.733 134.651L105.417 134.716C105.032 134.779 104.658 134.823 104.281 134.869C102.774 135.04 101.258 135.178 99.7213 135.311L100.073 134.934C100.083 135.185 100.195 135.539 100.355 135.814C100.936 136.804 102.136 137.341 103.329 137.561C104.539 137.8 105.786 137.784 107.041 137.744C109.51 137.646 112.028 137.439 114.152 136.705L114.295 136.657L114.401 136.686C116.099 137.142 117.77 137.589 119.316 138.006L119.607 138.084L119.586 138.38C119.516 139.394 119.446 140.395 119.383 141.304L119.357 141.653L119.011 141.637C116.801 141.533 114.657 141.434 112.645 141.341L112.993 140.95C113.217 142.388 113.436 143.791 113.637 145.08L113.457 144.839C114.682 145.214 116.172 145.353 117.47 145.536C118.801 145.687 120.079 145.831 121.294 145.968L121.272 145.967C124.419 146.005 127.275 145.939 129.762 145.732C131.002 145.626 132.157 145.49 133.186 145.253C134.212 145.045 135.044 144.504 135.843 144.13C137.373 143.372 138.587 142.773 139.479 142.332C139.862 142.152 140.175 142.004 140.434 141.882C140.652 141.786 140.767 141.741 140.773 141.753Z" fill="#F79570"/>
<path d="M128.429 130.641C128.586 130.765 127.104 132.749 124.638 134.497C122.18 136.257 119.823 137.01 119.757 136.821C119.668 136.615 121.82 135.573 124.192 133.869C126.574 132.184 128.261 130.489 128.429 130.641Z" fill="#F79570"/>
<path d="M200.355 180.163L171.764 177.76L138.064 190.588L130.637 195.1L141.183 231.11C141.183 231.11 194.007 199.988 196.253 197.325C203.169 189.128 200.355 180.163 200.355 180.163Z" fill="#3AC7A5"/>
<path d="M47.7404 206.653L37.9105 212.755L60.608 302.116L56.496 353.566C62.3556 358.673 77.1611 363.059 105.247 361.467C133.335 359.874 152.018 347.721 152.018 347.721L149.33 294.723L142.948 234.918L135.723 194.038L114.111 195.6L105.696 190.612L101.917 192.5L97.075 205.924L84.4598 196.816L69.7044 189.703L64.3142 199.763L47.7404 206.653Z" fill="#3AC7A5"/>
<path d="M135.723 204.435C135.773 204.419 136.048 205.127 136.501 206.425C136.96 207.719 137.564 209.611 138.257 211.967C139.649 216.675 141.313 223.265 142.628 230.647C143.937 238.033 144.647 244.793 144.963 249.693C145.122 252.143 145.208 254.128 145.224 255.502C145.245 256.875 145.232 257.633 145.178 257.635C145.125 257.638 145.038 256.884 144.925 255.517C144.793 254.007 144.624 252.066 144.421 249.736C143.968 244.86 143.175 238.139 141.872 230.781C140.56 223.429 138.988 216.846 137.735 212.113C137.123 209.856 136.612 207.974 136.215 206.513C135.85 205.191 135.673 204.451 135.723 204.435Z" fill="#2C3F4D"/>
<path d="M93.0412 205.146C93.028 205.189 92.2606 205.029 91.0104 204.398C89.7765 203.764 88.0436 202.603 86.5427 200.579L87.0739 200.432C86.8436 203.974 86.107 208.56 84.4438 213.341L84.2785 213.816L83.8621 213.53C83.5331 213.304 83.1805 213.06 82.8247 212.815C77.7427 209.31 73.1659 206.101 69.8758 203.748C68.3424 202.631 67.0465 201.689 66.0013 200.928C65.0967 200.247 64.6095 199.85 64.6407 199.808C64.6702 199.763 65.2146 200.078 66.171 200.681C67.2532 201.388 68.5962 202.263 70.1845 203.3C73.5542 205.54 78.1781 208.677 83.2614 212.182C83.6172 212.427 83.9699 212.67 84.2992 212.898L83.7191 213.088C85.3664 208.383 86.1588 203.878 86.4895 200.384L86.5647 199.586L87.0207 200.238C88.3963 202.212 90.014 203.407 91.1714 204.111C92.3416 204.814 93.0663 205.078 93.0412 205.146Z" fill="#2C3F4D"/>
<path d="M113.252 197.246C113.366 197.357 111.378 199.599 108.449 202.699L108.182 202.98L107.922 202.678C107.007 201.611 105.929 200.498 104.712 199.426C104.103 198.89 103.489 198.39 102.881 197.927C102.577 197.705 102.278 197.485 101.983 197.27L101.804 197.181C101.813 197.161 101.731 197.245 101.678 197.394C101.187 198.647 100.725 199.82 100.298 200.91C99.4896 202.904 98.9391 204.12 98.8401 204.083C98.7399 204.046 99.1102 202.765 99.7878 200.721C100.169 199.613 100.579 198.418 101.017 197.143C101.091 196.97 101.168 196.688 101.523 196.515C101.901 196.366 102.211 196.548 102.38 196.651C102.713 196.876 103.011 197.09 103.333 197.325C103.963 197.791 104.595 198.3 105.221 198.849C106.468 199.949 107.559 201.107 108.466 202.225L107.94 202.204C110.955 199.187 113.138 197.135 113.252 197.246Z" fill="#2C3F4D"/>
<path d="M53.3879 255.116L42.6384 290.672L48.0257 363.135L32.178 365.135C32.178 365.135 14.0133 303.383 15.8242 292.3C17.6368 281.217 24.9708 248.648 24.9708 248.648L53.3879 255.116Z" fill="#F9B299"/>
<path d="M47.9869 362.62L55.367 375.223L59.9781 387.074L53.0157 384.332C53.0157 384.332 50.0374 398.585 48.8668 398.966C47.6963 399.345 44.3472 398.181 44.6854 395.446C44.6854 395.446 43.0161 397.124 40.9247 396.689C38.8333 396.253 38.3342 394.903 38.5629 392.302C38.5629 392.302 36.1246 394.287 34.6681 393.049C33.2112 391.812 33.3468 389.657 33.3468 389.657C33.3468 389.657 30.1722 389.932 29.7365 388.281C29.3012 386.633 29.1877 381.933 29.561 380.14C29.933 378.348 31.4576 371.027 31.4576 371.027L32.1779 365.135L47.9869 362.62Z" fill="#F9B299"/>
<path d="M46.2533 387.227C46.0744 387.194 45.5788 389.005 45.1447 391.275C44.7121 393.546 44.5071 395.414 44.6857 395.447C44.8656 395.482 45.3602 393.67 45.7942 391.399C46.2265 389.129 46.4332 387.262 46.2533 387.227Z" fill="#F79570"/>
<path d="M39.7824 385.581C39.6038 385.544 39.1624 386.989 38.7978 388.806C38.4333 390.624 38.2828 392.125 38.4614 392.162C38.6399 392.198 39.0797 390.754 39.4442 388.936C39.8105 387.119 39.9609 385.616 39.7824 385.581Z" fill="#F79570"/>
<path d="M34.3906 384.067C34.1931 384.053 34.044 385.342 33.8123 386.859C33.5643 388.372 33.1672 389.582 33.3471 389.657C33.4992 389.728 34.1958 388.586 34.4644 386.967C34.708 385.359 34.5559 384.072 34.3906 384.067Z" fill="#F79570"/>
<path d="M53.5544 380.221C53.3728 380.189 52.9093 381.976 52.375 384.178C51.8438 386.383 51.4409 388.184 51.6178 388.239C51.7875 388.292 52.48 386.56 53.0157 384.333C53.5561 382.106 53.7316 380.252 53.5544 380.221Z" fill="#F79570"/>
<path d="M14.9531 316.246C14.9531 315.04 9.9863 298.146 11.495 289.396C13.0033 280.645 31.0115 221.505 33.4248 217.28C35.8397 213.056 41.1206 210.764 41.1206 210.764C41.1206 210.764 51.8304 215.772 55.4508 228.746C59.0715 241.719 59.0715 258.013 59.0715 258.013L44.5892 293.916L46.3174 314.311L14.9531 316.246Z" fill="#3AC7A5"/>
<path d="M58.143 256.821C57.9956 256.81 58.2761 254.172 58.1328 249.92C58.0752 247.794 57.8377 245.27 57.4169 242.496C56.9565 239.727 56.2877 236.708 55.3242 233.615C54.3308 230.53 53.1396 227.675 51.9219 225.145C50.6674 222.634 49.4067 220.434 48.2321 218.663C45.8998 215.103 44.154 213.109 44.2661 213.014C44.3057 212.981 44.7648 213.457 45.562 214.353C46.3721 215.236 47.4498 216.603 48.682 218.359C49.9278 220.11 51.2518 222.304 52.5552 224.83C53.8229 227.373 55.0511 230.257 56.056 233.383C57.0331 236.517 57.69 239.579 58.1179 242.389C58.5048 245.204 58.6878 247.762 58.6759 249.91C58.6803 252.056 58.5858 253.791 58.4323 254.981C58.2951 256.174 58.1948 256.827 58.143 256.821Z" fill="#2C3F4D"/>
<path d="M57.215 264.332C57.3082 264.369 56.7651 266.091 55.7168 268.811C54.672 271.533 53.0854 275.236 51.2521 279.28C49.4795 283.221 47.878 286.784 46.5896 289.646C45.416 292.306 44.6943 293.956 44.588 293.915C44.4965 293.881 45.0382 292.158 46.0878 289.438C47.1327 286.715 48.7179 283.013 50.5525 278.966C52.3238 275.027 53.9266 271.463 55.2137 268.603C56.3887 265.943 57.109 264.293 57.215 264.332Z" fill="#2C3F4D"/>
<path d="M45.4296 295.307C45.3012 295.519 41.2539 292.69 35.5078 290.992C29.7767 289.236 24.8411 289.364 24.8516 289.115C24.8485 289.024 26.075 288.87 28.0661 288.947C30.0542 289.019 32.8069 289.381 35.7294 290.256C38.6488 291.138 41.1448 292.355 42.8422 293.391C44.5453 294.427 45.4827 295.231 45.4296 295.307Z" fill="#2C3F4D"/>
<path d="M468.419 272.319C468.419 272.319 463.691 268.152 457.169 266.663C450.648 265.175 437.191 265.731 437.191 265.731C437.191 265.731 421.893 269.199 421.573 270.597C421.254 271.994 422.139 273.274 424.379 272.903C426.621 272.533 436.769 272.3 436.769 272.3C436.769 272.3 435.831 275.124 437.317 276.345C438.802 277.567 439.897 277.637 439.897 277.637C439.897 277.637 439.232 280.409 439.98 281.854C440.728 283.299 441.719 284.112 441.719 284.112C441.719 284.112 440.933 285.404 442.284 286.791C443.634 288.177 445.226 288.932 445.226 288.932C445.226 288.932 452.339 288.693 454.054 287.615C455.772 286.536 457.973 285.027 457.973 285.027L460.778 285.156L465.537 289.068L468.419 272.319Z" fill="#FBC8B9"/>
<path d="M519.229 550.695L521.059 578.34C521.059 578.34 493.543 587.471 493.385 592.613L547.145 593.003L546.06 549.811L519.229 550.695Z" fill="#335863"/>
<path d="M537.162 579.61C537.032 579.61 536.902 579.597 536.775 579.568C535.723 579.335 534.776 577.985 535.102 576.958C535.363 576.134 536.322 575.433 537.189 575.433C537.401 575.433 537.609 575.476 537.8 575.568C538.745 575.908 539.394 576.978 539.199 577.968C539.014 578.898 538.096 579.61 537.162 579.61Z" fill="#A6B6BB"/>
<path d="M493.504 592.049C494.016 590.33 495.699 589.579 495.791 589.538C494.613 590.421 493.796 591.272 493.504 592.049Z" fill="white"/>
<path d="M547.146 593.003L493.386 592.614C493.411 592.415 493.451 592.228 493.505 592.05C493.797 591.273 494.614 590.422 495.792 589.539C495.795 589.538 495.796 589.537 495.796 589.537L547.036 588.65L547.146 593.003Z" fill="#A6B6BB"/>
<path d="M520.181 578.093C520.198 578.355 521.513 578.434 522.831 579.239C524.168 580.01 524.867 581.125 525.107 581.014C525.347 580.956 524.907 579.398 523.296 578.453C521.695 577.493 520.118 577.854 520.181 578.093Z" fill="#2C3F4D"/>
<path d="M514.617 580.594C514.564 580.85 515.715 581.262 516.639 582.344C517.597 583.401 517.856 584.594 518.117 584.574C518.366 584.607 518.501 583.065 517.325 581.741C516.162 580.408 514.615 580.343 514.617 580.594Z" fill="#2C3F4D"/>
<path d="M511.62 587.437C511.859 587.486 512.185 586.164 511.468 584.749C510.759 583.326 509.505 582.796 509.402 583.019C509.26 583.24 510.08 583.985 510.652 585.159C511.249 586.316 511.358 587.42 511.62 587.437Z" fill="#2C3F4D"/>
<path d="M520.462 571.747C520.579 571.983 521.77 571.584 523.257 571.64C524.745 571.666 525.914 572.129 526.043 571.899C526.189 571.705 525.033 570.768 523.282 570.727C521.532 570.673 520.326 571.545 520.462 571.747Z" fill="#2C3F4D"/>
<path d="M546.311 559.826L546.205 555.611H546.216L546.311 559.826Z" fill="#A8ABAB"/>
<path d="M519.92 561.095L519.914 561.006L519.6 556.169L546.208 555.611L546.314 559.826L546.319 560.057L519.92 561.095Z" fill="#193A42"/>
<path d="M520.198 566.163C520.198 566.272 521.24 566.402 522.888 566.069C523.708 565.901 524.671 565.602 525.677 565.118C526.179 564.876 526.692 564.588 527.198 564.251C527.44 564.084 527.729 563.915 527.992 563.594C528.274 563.311 528.418 562.611 528.07 562.195C527.782 561.791 527.289 561.627 526.901 561.629C526.504 561.628 526.187 561.718 525.896 561.799C525.302 561.961 524.748 562.177 524.24 562.423C523.228 562.922 522.412 563.538 521.809 564.127C520.596 565.319 520.201 566.313 520.292 566.361C520.413 566.444 520.995 565.604 522.235 564.612C522.852 564.118 523.647 563.603 524.595 563.189C525.069 562.982 525.581 562.801 526.125 562.665C526.689 562.498 527.173 562.479 527.326 562.728C527.383 562.823 527.391 562.861 527.277 563.032C527.16 563.189 526.932 563.346 526.694 563.511C526.229 563.836 525.758 564.118 525.298 564.367C524.374 564.859 523.487 565.204 522.726 565.443C521.2 565.918 520.189 566.021 520.198 566.163Z" fill="#2C3F4D"/>
<path d="M520.55 566.53C520.644 566.568 521.136 565.611 521.181 563.91C521.2 563.065 521.082 562.047 520.726 560.976C520.543 560.44 520.302 559.895 519.989 559.361C519.658 558.839 519.253 558.141 518.232 558.054C517.701 558.05 517.271 558.479 517.132 558.839C516.964 559.207 516.938 559.521 516.884 559.834C516.805 560.465 516.834 561.08 516.937 561.647C517.141 562.784 517.638 563.722 518.17 564.391C519.263 565.752 520.368 566.032 520.387 565.942C520.471 565.808 519.541 565.329 518.697 564.016C518.28 563.368 517.902 562.509 517.769 561.513C517.701 561.018 517.694 560.489 517.772 559.955C517.838 559.383 518.038 558.916 518.254 558.969C518.521 558.955 518.988 559.373 519.223 559.821C519.512 560.294 519.747 560.779 519.933 561.259C520.298 562.219 520.474 563.144 520.535 563.928C520.656 565.504 520.406 566.494 520.55 566.53Z" fill="#2C3F4D"/>
<path d="M589.617 551.836L599.594 577.683C599.594 577.683 576.043 594.59 577.421 599.547L628.861 583.918L614.969 543.006L589.617 551.836Z" fill="#335863"/>
<path d="M614.824 574.183C613.78 574.183 612.582 573.215 612.587 572.182C612.592 571.172 613.556 570.038 614.553 570.038C614.619 570.038 614.685 570.043 614.751 570.053C615.754 570.097 616.69 570.925 616.798 571.929C616.912 573.002 616.036 574.088 614.961 574.177C614.917 574.181 614.871 574.183 614.824 574.183Z" fill="#A6B6BB"/>
<path d="M577.278 600C576.908 597.929 578.206 596.716 578.312 596.622C577.567 597.799 577.217 598.805 577.423 599.546L598.403 593.172C598.665 593.171 598.926 593.171 599.184 593.171L577.278 600ZM600.241 592.841C599.994 592.84 599.747 592.84 599.499 592.84L628.864 583.918L600.241 592.841Z" fill="white"/>
<path d="M598.403 593.17L599.498 592.838C599.746 592.838 599.993 592.838 600.24 592.839L599.183 593.169C598.925 593.169 598.665 593.169 598.403 593.17Z" fill="#9DA7AA"/>
<path d="M577.421 599.546C577.215 598.805 577.565 597.798 578.31 596.622C578.313 596.618 578.316 596.616 578.316 596.616L627.46 579.793L628.862 583.918L599.497 592.839L598.401 593.171L577.421 599.546Z" fill="#A6B6BB"/>
<path d="M598.68 577.706C598.774 577.952 600.053 577.636 601.55 578.013C603.057 578.35 604.057 579.207 604.25 579.03C604.463 578.903 603.58 577.547 601.761 577.123C599.946 576.684 598.548 577.498 598.68 577.706Z" fill="#2C3F4D"/>
<path d="M594.114 581.752C594.141 582.011 595.361 582.062 596.566 582.821C597.793 583.543 598.397 584.604 598.641 584.509C598.888 584.467 598.558 582.954 597.041 582.041C595.533 581.112 594.038 581.512 594.114 581.752Z" fill="#2C3F4D"/>
<path d="M593.29 589.175C593.534 589.15 593.451 587.791 592.344 586.653C591.246 585.506 589.891 585.373 589.857 585.618C589.787 585.87 590.793 586.339 591.688 587.287C592.604 588.215 593.035 589.236 593.29 589.175Z" fill="#2C3F4D"/>
<path d="M597.061 571.564C597.244 571.754 598.264 571.018 599.699 570.629C601.126 570.212 602.381 570.306 602.436 570.048C602.518 569.819 601.135 569.269 599.452 569.75C597.763 570.219 596.872 571.411 597.061 571.564Z" fill="#2C3F4D"/>
<path d="M618.253 552.666L616.838 548.5L616.849 548.496L618.253 552.666Z" fill="#A8ABAB"/>
<path d="M593.371 561.56L591.598 556.952L616.835 548.501L618.25 552.668L618.265 552.711L593.371 561.56Z" fill="#193A42"/>
<path d="M595.147 566.313C595.18 566.417 596.213 566.231 597.687 565.422C598.421 565.017 599.251 564.445 600.067 563.684C600.475 563.304 600.877 562.878 601.262 562.405C601.443 562.173 601.669 561.924 601.823 561.541C602.009 561.186 601.937 560.475 601.48 560.181C601.086 559.881 600.568 559.871 600.197 559.99C599.819 560.106 599.542 560.287 599.288 560.451C598.771 560.782 598.305 561.154 597.894 561.541C597.075 562.316 596.479 563.147 596.079 563.891C595.277 565.39 595.195 566.454 595.296 566.474C595.438 566.517 595.743 565.542 596.631 564.226C597.074 563.571 597.678 562.843 598.46 562.163C598.851 561.826 599.287 561.501 599.765 561.208C600.254 560.881 600.711 560.72 600.932 560.912C601.012 560.985 601.032 561.019 600.974 561.216C600.907 561.401 600.739 561.618 600.559 561.848C600.212 562.296 599.848 562.707 599.481 563.08C598.745 563.826 598.003 564.419 597.347 564.873C596.031 565.781 595.096 566.18 595.147 566.313Z" fill="#2C3F4D"/>
<path d="M595.59 566.557C595.692 566.564 595.876 565.505 595.412 563.866C595.18 563.055 594.763 562.117 594.104 561.2C593.771 560.744 593.379 560.296 592.922 559.879C592.45 559.48 591.855 558.933 590.855 559.155C590.346 559.309 590.063 559.845 590.037 560.232C589.988 560.633 590.056 560.939 590.098 561.254C590.209 561.88 590.421 562.458 590.688 562.969C591.222 563.996 591.975 564.742 592.682 565.222C594.129 566.196 595.268 566.136 595.259 566.044C595.299 565.891 594.268 565.711 593.072 564.708C592.482 564.213 591.865 563.505 591.441 562.594C591.229 562.141 591.065 561.64 590.981 561.107C590.873 560.541 590.925 560.035 591.147 560.019C591.398 559.929 591.969 560.187 592.325 560.547C592.743 560.912 593.112 561.306 593.432 561.707C594.066 562.516 594.51 563.347 594.801 564.077C595.387 565.545 595.442 566.565 595.59 566.557Z" fill="#2C3F4D"/>
<path d="M589.516 179.433C584.633 173.251 584.521 161.966 584.685 159.002C585.064 152.155 569.819 112.218 532.021 128.713L532.017 128.686C518.471 128.686 518.249 142.057 515.675 144.746C513.099 147.434 510.241 150.23 509.569 153.892C508.373 160.383 514.53 166.685 512.967 173.094C512.381 175.499 510.774 177.536 509.637 179.732L509.63 179.728C508.42 181.702 507.458 184.894 507.979 186.669C508.498 188.444 509.628 189.962 510.559 191.56C511.492 193.156 512.254 194.993 511.927 196.814C511.332 200.106 507.517 201.928 506.498 205.114C505.499 208.239 507.462 211.453 509.242 214.209C511.021 216.964 512.745 220.42 511.31 223.368C510.545 224.937 509.034 225.977 507.805 227.214C504.077 230.968 502.965 237.077 505.133 241.904C512.382 240.476 519.632 239.048 526.881 237.622C527.832 227.259 531.071 219.813 532.021 209.451C538.377 211.03 543.049 204.047 546.061 203.282L549.765 201.28C557.869 202.703 566.614 202.195 573.721 198.055C580.831 193.914 591.36 199.207 589.982 191.096C589.314 187.16 591.991 182.566 589.516 179.433Z" fill="#2C3F4D"/>
<path d="M564.726 141.645L535.15 132.888C525.62 131.489 518.782 143.016 517.791 152.595C516.687 163.239 515.76 176.274 516.705 184.287C518.6 200.399 530.79 202.93 530.79 202.93C530.791 202.91 528.656 225.751 528.454 231.462L564.931 212.793L569.534 147.559C569.708 144.638 567.619 142.069 564.726 141.645Z" fill="#FBC8B9"/>
<path d="M519.625 165.723C519.546 166.807 520.394 167.768 521.522 167.874C522.649 167.98 523.631 167.192 523.714 166.109C523.794 165.026 522.946 164.063 521.819 163.957C520.69 163.849 519.708 164.641 519.625 165.723Z" fill="#2C3F4D"/>
<path d="M518.528 161.022C518.727 161.291 520.481 160.909 522.657 161.557C524.839 162.181 526.219 163.477 526.508 163.35C526.646 163.298 526.483 162.872 525.886 162.294C525.299 161.722 524.224 161.016 522.868 160.62C521.51 160.223 520.272 160.254 519.517 160.435C518.747 160.615 518.427 160.899 518.528 161.022Z" fill="#2C3F4D"/>
<path d="M540.116 167.387C540.033 168.471 540.883 169.432 542.011 169.538C543.138 169.644 544.12 168.856 544.202 167.774C544.285 166.69 543.436 165.727 542.309 165.621C541.179 165.513 540.197 166.305 540.116 167.387Z" fill="#2C3F4D"/>
<path d="M540.485 163.932C540.804 164.083 542.395 163.011 544.865 162.665C547.332 162.295 549.296 162.851 549.528 162.619C549.643 162.514 549.293 162.21 548.431 161.954C547.586 161.698 546.195 161.531 544.656 161.753C543.118 161.977 541.889 162.524 541.214 163.001C540.524 163.482 540.328 163.867 540.485 163.932Z" fill="#2C3F4D"/>
<path d="M532.855 178.35C532.87 178.225 531.506 177.933 529.293 177.558C528.731 177.476 528.202 177.344 528.122 176.955C528.006 176.541 528.267 175.944 528.566 175.298C529.152 173.954 529.765 172.545 530.407 171.069C532.97 165.047 534.851 160.086 534.607 159.984C534.365 159.884 532.087 164.683 529.525 170.705C528.906 172.191 528.317 173.607 527.753 174.962C527.513 175.594 527.118 176.307 527.371 177.164C527.504 177.593 527.907 177.915 528.266 178.027C528.623 178.152 528.938 178.171 529.218 178.198C531.452 178.409 532.841 178.476 532.855 178.35Z" fill="#2C3F4D"/>
<path d="M530.792 202.93C530.792 202.93 541.314 204.278 552.241 198.295C552.059 198.327 545.679 209.44 530.399 207.178L530.792 202.93Z" fill="#F8A697"/>
<path d="M533.573 183.712C534.41 182.694 535.826 182.174 537.202 182.377C538.156 182.52 539.106 183.021 539.656 183.825C540.207 184.629 540.285 185.743 539.726 186.466C539.097 187.28 537.842 187.424 536.801 187.082C535.758 186.74 534.878 186.009 534.044 185.283C533.814 185.082 533.579 184.871 533.44 184.604C533.302 184.335 533.284 183.991 533.476 183.782" fill="#F8A697"/>
<path d="M539.296 180.14C538.937 180.105 538.837 182.503 536.714 184.121C534.597 185.748 532.052 185.375 532.02 185.709C531.979 185.859 532.569 186.198 533.648 186.27C534.704 186.35 536.263 186.072 537.563 185.081C538.857 184.088 539.451 182.717 539.573 181.736C539.705 180.738 539.461 180.133 539.296 180.14Z" fill="#2C3F4D"/>
<path d="M540.766 156.069C540.961 156.677 543.177 156.483 545.757 156.898C548.345 157.264 550.405 158.106 550.77 157.582C550.934 157.331 550.592 156.751 549.77 156.134C548.957 155.521 547.641 154.915 546.092 154.678C544.544 154.445 543.109 154.635 542.149 154.981C541.182 155.326 540.683 155.78 540.766 156.069Z" fill="#2C3F4D"/>
<path d="M520.902 154.642C521.271 155.159 522.815 154.7 524.645 154.748C526.478 154.735 528.012 155.222 528.39 154.712C528.557 154.463 528.332 153.951 527.674 153.448C527.026 152.949 525.925 152.517 524.666 152.504C523.408 152.494 522.299 152.904 521.641 153.391C520.975 153.882 520.741 154.39 520.902 154.642Z" fill="#2C3F4D"/>
<path d="M531.659 130.795C543.549 132.68 555.211 135.989 566.322 140.627C568.896 141.702 571.597 142.98 573.054 145.361C574.594 147.881 574.393 151.053 574.145 153.996C572.926 168.345 571.708 182.696 570.489 197.045L568.945 196.965C564.509 197.684 564.203 195.43 561.029 192.246C557.856 189.062 556.336 184.314 557.069 179.879C557.717 175.966 559.989 172.046 558.767 168.274C557.152 163.285 550.312 161.508 548.67 156.528C547.714 153.634 548.796 150.332 547.696 147.49C546.665 144.816 543.955 143.196 541.298 142.12C538.643 141.044 535.78 140.261 533.587 138.418C531.392 136.574 530.108 133.203 531.659 130.795Z" fill="#2C3F4D"/>
<path d="M573.948 154.755C573.959 154.768 574.095 154.658 574.344 154.439C574.584 154.212 574.941 153.872 575.341 153.385C576.132 152.419 577.224 150.853 577.667 148.593C577.877 147.473 577.888 146.183 577.537 144.874C577.192 143.573 576.497 142.235 575.359 141.195C574.244 140.147 572.618 139.487 570.938 139.575C569.278 139.627 567.501 140.374 566.457 141.879L566.888 142.088L566.918 141.988C567.943 138.667 567.82 135.079 566.344 132.377C564.907 129.668 562.311 128.031 559.997 127.854C557.664 127.666 555.878 128.624 554.947 129.465C554.459 129.885 554.179 130.302 553.99 130.577C553.826 130.869 553.748 131.025 553.763 131.034C553.811 131.07 554.102 130.401 555.068 129.609C556.005 128.838 557.75 127.972 559.965 128.194C562.15 128.406 564.597 129.988 565.95 132.588C567.335 135.169 567.45 138.618 566.453 141.847L566.425 141.945L566.006 143.385L566.856 142.154C567.791 140.804 569.412 140.104 570.957 140.049C572.52 139.964 574.004 140.556 575.059 141.525C576.128 142.486 576.806 143.745 577.15 144.98C577.499 146.224 577.51 147.449 577.33 148.533C576.946 150.718 575.929 152.282 575.194 153.266C574.438 154.258 573.916 154.722 573.948 154.755Z" fill="#2C3F4D"/>
<path d="M512.666 327.643C512.666 327.643 500.807 352.924 500.807 369.067C500.807 385.212 513.083 557.131 513.083 557.131L555.107 555.611L543.277 327.907L512.666 327.643Z" fill="#1F3647"/>
<path d="M533.614 363.068C533.614 365.944 546.317 482.445 546.317 482.445L581.552 561.628L620.807 548.401L587.556 470.73C587.556 470.73 589.441 414.427 590.96 393.659C592.101 378.036 593.571 363.378 592.828 356.953C591.79 347.938 587.89 341.407 585.77 338.625C581.975 333.65 580.953 334.744 577.046 329.488C571.629 322.2 533.614 327.643 533.614 327.643V363.068Z" fill="#1F3647"/>
<path d="M581.551 561.627C581.541 561.631 581.473 561.501 581.347 561.244C581.213 560.962 581.035 560.581 580.805 560.097C580.326 559.051 579.642 557.556 578.761 555.636C576.99 551.712 574.441 546.058 571.262 539.014C564.923 524.836 556.083 505.066 546.029 482.572L546.006 482.524L546.001 482.47C545.491 476.418 544.933 470.117 544.287 463.69C542.851 449.19 541.271 435.397 539.958 422.837C538.629 410.278 537.59 398.951 536.905 389.423C536.203 379.896 535.898 372.171 535.7 366.834C535.643 364.188 535.599 362.123 535.568 360.684C535.561 360.005 535.555 359.475 535.552 359.085C535.551 358.724 535.556 358.54 535.567 358.54C535.578 358.54 535.595 358.724 535.616 359.083C535.636 359.472 535.663 360.002 535.698 360.68C535.757 362.117 535.841 364.181 535.95 366.824C536.224 372.156 536.598 379.874 537.359 389.388C538.1 398.905 539.186 410.222 540.547 422.775C541.892 435.329 543.49 449.12 544.927 463.628C545.574 470.058 546.129 476.362 546.633 482.418L546.606 482.316C556.583 504.843 565.351 524.645 571.64 538.847C574.745 545.923 577.236 551.603 578.966 555.544C579.803 557.483 580.456 558.993 580.911 560.05C581.117 560.544 581.28 560.931 581.4 561.221C581.508 561.486 581.558 561.623 581.551 561.627Z" fill="#335863"/>
<path d="M528.515 221.654C528.515 221.654 505.129 260.907 504.98 267.726C504.832 274.546 512.526 296.883 512.526 296.883C512.526 296.883 507.33 325.564 507.709 329.857C507.874 331.744 508.439 333.928 509.065 334.605C512.169 337.967 517.439 337.933 521.915 338.887L561.865 345.553C567.087 346.668 579.576 345.474 584.296 342.982C586.909 341.604 589.312 339.796 588.674 337.152C587.932 334.08 575.738 305.72 575.738 305.72C575.738 305.72 579.086 252.191 580.435 242.206C581.783 232.222 566.511 214.849 566.511 214.849L528.577 222.221L528.515 221.654Z" fill="#3AC7A5"/>
<path d="M530.084 325.04C522.47 325.04 514.782 321.441 510.282 314.909L518.009 317.897C521.562 319.27 524.566 319.823 527.123 319.823C535.159 319.823 538.76 314.35 540.972 311.66C543.89 308.114 566.51 252.749 566.51 252.749C565.132 263.818 561.262 280.343 558.711 291.179C555.988 302.753 551.92 315.135 542.345 321.464C538.675 323.888 534.391 325.04 530.084 325.04Z" fill="#20A789"/>
<path d="M528.302 219.669L528.578 222.221L566.512 214.848L565.842 204.219C565.842 204.219 565.842 201.249 562.258 201.249C560.482 201.249 529.774 208.967 528.578 209.757C525.589 211.735 528.302 219.669 528.302 219.669Z" fill="#3AC7A5"/>
<path d="M467.013 269.736C467.013 269.736 517.965 285.189 518.791 284.54C519.618 283.89 532.144 242.091 532.144 242.091C532.144 242.091 538.123 220.892 547.812 220.937C567.283 221.025 569.359 245.604 569.359 245.604C569.359 245.604 549.75 307.33 537.67 318.605C525.589 329.88 468.176 291.22 468.176 291.22L463.645 289.993L467.013 269.736Z" fill="#3AC7A5"/>
<path d="M521.007 300.109C520.866 300.23 518.782 297.082 518.198 292.569C517.589 288.069 518.625 284.477 518.79 284.54C519.039 284.574 518.371 288.133 518.962 292.465C519.519 296.807 521.228 300.004 521.007 300.109Z" fill="#2C3F4D"/>
<path d="M547.813 220.936C547.815 220.981 547.367 220.959 546.553 221.132C545.74 221.29 544.559 221.714 543.286 222.654C540.688 224.489 537.96 228.347 535.619 233.514C533.17 238.658 531.546 245.277 529.317 252.49C527.137 259.714 524.733 267.653 522.102 275.956C521.438 278.032 520.783 280.082 520.092 282.093L519.558 283.595C519.462 283.843 519.374 284.09 519.257 284.345C519.206 284.447 519.158 284.643 518.926 284.823C518.643 284.921 518.671 284.857 518.553 284.872L518.339 284.846C517.27 284.667 516.279 284.401 515.278 284.15C511.294 283.114 507.489 282.017 503.862 280.972C496.612 278.871 490.104 276.917 484.641 275.263C479.222 273.596 474.822 272.243 471.722 271.288C470.238 270.814 469.069 270.44 468.221 270.169C467.853 270.043 467.555 269.943 467.316 269.862C467.113 269.789 467.011 269.747 467.014 269.736C467.017 269.726 467.126 269.747 467.334 269.799C467.58 269.864 467.884 269.944 468.258 270.045C469.115 270.288 470.297 270.624 471.795 271.049C474.907 271.956 479.328 273.243 484.771 274.827C490.267 276.419 496.788 278.307 504.026 280.402C507.655 281.43 511.465 282.517 515.433 283.54C516.421 283.786 517.438 284.053 518.427 284.216L518.602 284.238L518.669 284.239L518.687 284.241L518.698 284.411L518.73 284.457L518.597 284.278L518.598 284.259L518.611 284.231L518.679 284.081C518.78 283.859 518.869 283.612 518.961 283.37L519.487 281.884C520.172 279.884 520.827 277.834 521.489 275.761C524.118 267.465 526.541 259.531 528.749 252.317C531.004 245.136 532.681 238.499 535.206 233.323C537.616 228.142 540.438 224.266 543.141 222.451C544.465 221.521 545.692 221.124 546.529 221.004C547.366 220.87 547.813 220.936 547.813 220.936Z" fill="#2C3F4D"/>
<path d="M508.154 313.911C508.158 313.901 508.251 313.929 508.43 313.997C508.642 314.081 508.899 314.184 509.212 314.309C509.946 314.61 510.945 315.017 512.205 315.533C514.818 316.553 518.599 318.083 523.455 319.312C525.88 319.891 528.593 320.454 531.508 320.385C532.96 320.349 534.466 320.1 535.84 319.464C537.213 318.838 538.301 317.628 539.312 316.333C541.348 313.749 543.102 310.728 544.796 307.55C546.481 304.363 548.085 300.986 549.653 297.492C555.882 283.49 560.57 270.403 563.963 260.951C565.607 256.249 566.944 252.425 567.891 249.716C568.338 248.43 568.693 247.411 568.953 246.66C569.069 246.344 569.165 246.084 569.243 245.868C569.31 245.692 569.351 245.603 569.361 245.606C569.372 245.609 569.353 245.705 569.306 245.889C569.243 246.109 569.168 246.375 569.078 246.701C568.846 247.46 568.529 248.493 568.128 249.795C567.281 252.475 566.024 256.345 564.394 261.101C561.106 270.599 556.485 283.717 550.24 297.757C548.668 301.258 547.054 304.644 545.351 307.846C543.64 311.038 541.866 314.074 539.773 316.703C538.751 318.002 537.595 319.291 536.082 319.975C534.597 320.65 533.019 320.893 531.523 320.918C528.517 320.966 525.784 320.364 523.344 319.753C518.461 318.457 514.698 316.858 512.11 315.764C510.817 315.207 509.827 314.751 509.16 314.427C508.855 314.279 508.607 314.158 508.402 314.058C508.234 313.97 508.149 313.921 508.154 313.911Z" fill="#2C3F4D"/>
<path d="M567.403 311.659C567.434 311.69 567.146 312.023 566.595 312.602C566.05 313.185 565.212 313.981 564.134 314.918C561.984 316.795 558.784 319.152 554.927 321.204C551.063 323.246 547.315 324.569 544.555 325.295C543.174 325.661 542.045 325.908 541.257 326.031C540.469 326.162 540.03 326.213 540.023 326.17C540.001 326.065 541.723 325.693 544.429 324.86C547.133 324.027 550.809 322.653 554.626 320.636C558.437 318.608 561.637 316.342 563.844 314.568C566.054 312.797 567.327 311.582 567.403 311.659Z" fill="#2C3F4D"/>
<path d="M540.776 219.85L552.992 217.477C549.024 218.711 544.918 219.509 540.776 219.85Z" fill="#20A789"/>
<path d="M536.162 220.039C534.028 220.039 531.894 219.917 529.774 219.67L530.524 219.489C541.643 218.292 552.66 216.13 563.407 213.035C560.1 214.868 556.603 216.352 552.993 217.476L540.778 219.849C539.243 219.976 537.702 220.039 536.162 220.039Z" fill="#20A789"/>
<path d="M528.942 222.032C529.795 219.132 531.623 216.634 533.419 214.203C536.354 210.235 539.522 206.089 544.089 204.215C547.2 202.94 555.235 203.646 557.376 201.052C564.056 192.957 554.268 187.928 557.824 176.793C561.719 164.601 559.705 166.469 560.004 156.878L574.843 150.461C577.178 152.205 583.664 158.502 582.946 161.329C582.23 164.152 582.441 167.301 583.516 170.664C585.797 177.815 593.67 182.03 597.393 188.547C601.207 195.226 596.908 204.075 596.806 211.764C596.706 219.454 599.607 228.697 607.113 230.372C604.312 236.009 599.612 240.682 593.958 243.447C592.387 241.311 590.817 239.173 589.249 237.036C590.183 242.836 586.235 249.021 580.579 250.616C579.001 243.867 577.332 236.917 573.246 231.319C569.162 225.722 561.991 221.772 555.298 223.564C550.818 224.764 547.354 228.218 543.354 230.562C539.354 232.907 533.683 233.902 530.482 230.548C528.394 228.362 528.089 224.931 528.942 222.032Z" fill="#2C3F4D"/>
</g>
<defs>
<clipPath id="clip0_4_104">
<rect width="628" height="600" fill="white"/>
</clipPath>
</defs>
</svg>
