<svg width="114" height="101" viewBox="0 0 114 101" fill="none" xmlns="http://www.w3.org/2000/svg">
<path d="M106.2 49.8194L95.4644 60.2713L85.5719 79.1522L74.4448 100.5L60.7759 94.0929L46.0008 86.5275L55.4518 68.4742L61.3251 48.2581C57.1751 51.0114 49.4727 54.7608 40.2503 52.8056C30.2603 50.6871 35.0558 13.0115 35.0558 13.0115L46.0328 12.7292L47.1267 39.2937L59.5368 33.814L59.556 33.8592C60.3025 33.5259 60.9562 33.2292 61.3033 33.0399C68.165 29.297 72.6689 28.8434 80.0306 31.471L90.6526 34.999C93.3822 36.2863 103.445 41.2409 106.2 49.8194Z" fill="#22A687"/>
<path d="M68.6243 30.6831C68.632 30.6978 68.3754 30.8239 67.9587 31.1216C67.5423 31.4174 66.9774 31.9085 66.4209 32.6341C65.8624 33.3581 65.3299 34.3186 64.9048 35.4525C64.4711 36.5836 64.1375 37.8783 63.7737 39.234C63.0388 41.935 62.3738 44.3788 61.8859 46.172C61.6405 47.0426 61.4403 47.7544 61.295 48.2696C61.2257 48.5028 61.1702 48.6911 61.1266 48.8377C61.0861 48.967 61.0624 49.0344 61.0566 49.0328C61.0512 49.0312 61.0643 48.9612 61.0938 48.8288C61.1298 48.6802 61.1756 48.4894 61.2324 48.2526C61.3649 47.7339 61.5478 47.0179 61.7717 46.1415C62.2474 44.3448 62.8954 41.8965 63.6124 39.1907C63.9758 37.8363 64.3152 36.5368 64.7611 35.3974C65.198 34.2557 65.7491 33.2859 66.3275 32.5616C66.9043 31.8347 67.4894 31.3503 67.9215 31.068C68.1361 30.924 68.3129 30.8274 68.4344 30.7671C68.5567 30.7071 68.6215 30.6779 68.6243 30.6831Z" fill="#0C2B34"/>
<path d="M74.4468 100.496V30.8477C75.4614 47.0866 76.4764 63.3284 77.4907 79.567C76.8549 79.7781 76.214 79.9911 75.5705 80.2047C75.3366 80.2827 75.1028 80.3603 74.8869 80.4322L74.8077 80.4585L74.834 80.538C75.1714 81.554 75.4977 82.5638 75.8159 83.5627L78.2561 91.8137C78.2715 92.0639 78.2873 92.3138 78.303 92.564L74.4468 100.496Z" fill="#188972"/>
<path d="M86.4919 51.6958C86.4467 51.7125 86.054 50.7296 85.5067 49.5468C84.962 48.3622 84.469 47.4255 84.5113 47.4017C84.5309 47.3911 84.6794 47.6115 84.8934 47.9836C85.1074 48.3564 85.3836 48.8815 85.6582 49.4769C85.9324 50.0717 86.1528 50.6231 86.2972 51.0273C86.4415 51.4318 86.5131 51.6881 86.4919 51.6958Z" fill="#F9F9F9"/>
<path d="M95.2305 47.3038C95.2552 47.3429 94.3211 47.9691 93.1451 48.7021C91.9687 49.4354 90.9958 49.9978 90.9714 49.9586C90.947 49.9195 91.8805 49.2937 93.0569 48.5603C94.2329 47.8273 95.2061 47.2647 95.2305 47.3038Z" fill="#F9F9F9"/>
<path d="M91.438 44.1412C91.3921 44.1437 91.3145 43.3796 91.2654 42.4355C91.216 41.4905 91.2134 40.7228 91.2593 40.7206C91.3055 40.7183 91.3828 41.4818 91.4322 42.4265C91.4816 43.3713 91.4845 44.1389 91.438 44.1412Z" fill="#F9F9F9"/>
<path d="M100.162 43.5302C100.138 43.5697 99.4328 43.1783 98.5875 42.6564C97.7419 42.1345 97.0766 41.6796 97.101 41.6401C97.1254 41.601 97.8301 41.9924 98.6754 42.5143C99.5204 43.0362 100.186 43.4911 100.162 43.5302Z" fill="#F9F9F9"/>
<path d="M86.8252 60.832C86.7826 60.814 87.1707 59.8206 87.6917 58.6137C88.213 57.4066 88.6694 56.443 88.7121 56.4609C88.7544 56.4795 88.3663 57.4727 87.8453 58.6798C87.3244 59.8866 86.8676 60.8506 86.8252 60.832Z" fill="#F9F9F9"/>
<path d="M82.9409 64.7663C82.8999 64.7868 82.5489 64.169 82.1573 63.386C81.7659 62.6026 81.4817 61.9511 81.523 61.9306C81.5644 61.91 81.9154 62.5279 82.3067 63.3112C82.6981 64.0939 82.9823 64.7455 82.9409 64.7663Z" fill="#F9F9F9"/>
<path d="M86.189 70.0595C86.2018 70.1009 85.4752 70.3502 84.5404 70.4804C83.6056 70.6138 82.8386 70.5747 82.8396 70.5317C82.839 70.4826 83.5957 70.4467 84.517 70.3152C85.439 70.1869 86.1761 70.0124 86.189 70.0595Z" fill="#F9F9F9"/>
<path d="M90.3584 64.2702C90.3158 64.2522 90.5701 63.5551 90.9265 62.7131C91.2833 61.871 91.6063 61.2028 91.649 61.2211C91.6913 61.239 91.4369 61.9361 91.0805 62.7785C90.7241 63.6202 90.4008 64.2884 90.3584 64.2702Z" fill="#F9F9F9"/>
<path d="M80.2227 76.5034C80.182 76.5306 79.7104 75.8785 79.0618 75.132C78.4154 74.383 77.838 73.8232 77.8707 73.7869C77.8989 73.7536 78.5338 74.2643 79.1882 75.0229C79.8448 75.7787 80.2593 76.48 80.2227 76.5034Z" fill="#F9F9F9"/>
<path d="M78.3858 63.3499C78.4256 63.373 78.05 64.0948 77.5467 64.9616C77.0437 65.829 76.6032 66.5129 76.5634 66.4898C76.5237 66.4667 76.8993 65.7453 77.4023 64.8782C77.9056 64.0108 78.3461 63.3268 78.3858 63.3499Z" fill="#F9F9F9"/>
<path d="M79.6933 58.8175C79.6817 58.8624 78.8791 58.6936 77.9007 58.4412C76.9217 58.1884 76.138 57.9475 76.1495 57.9026C76.1611 57.8583 76.9637 58.0267 77.9424 58.2792C78.9208 58.532 79.7048 58.7729 79.6933 58.8175Z" fill="#F9F9F9"/>
<path d="M79.618 49.5237C79.6587 49.4993 80.06 50.1004 80.5678 50.8309C81.0743 51.5626 81.4968 52.149 81.4599 52.1785C81.425 52.2067 80.9406 51.663 80.4305 50.9262C79.9192 50.1903 79.5795 49.5468 79.618 49.5237Z" fill="#F9F9F9"/>
<path d="M76.6619 49.0684C76.692 49.1037 76.1951 49.5852 75.5523 50.1443C74.9088 50.7038 74.3628 51.1288 74.3326 51.0942C74.3022 51.0592 74.7991 50.5777 75.4426 50.0182C76.0857 49.4591 76.6317 49.0337 76.6619 49.0684Z" fill="#F9F9F9"/>
<path d="M78.9958 44.2019C78.9679 44.2347 78.2526 43.6428 77.5135 42.7722C76.7718 41.9038 76.3018 41.1035 76.3384 41.0807C76.3795 41.0534 76.9069 41.8053 77.6408 42.6641C78.3713 43.5251 79.0292 44.166 78.9958 44.2019Z" fill="#F9F9F9"/>
<path d="M87.199 42.7036C87.2125 42.7475 86.407 43.0324 85.4006 43.34C84.3934 43.6473 83.5664 43.861 83.5529 43.8167C83.5394 43.7728 84.3446 43.4876 85.3516 43.1803C86.3585 42.8726 87.1855 42.6593 87.199 42.7036Z" fill="#F9F9F9"/>
<path d="M75.6493 34.8899C75.5996 34.887 75.6217 34.1536 75.5078 33.2619C75.3988 32.3694 75.1967 31.664 75.2442 31.6489C75.2839 31.6335 75.5621 32.3296 75.6737 33.241C75.7898 34.152 75.6913 34.895 75.6493 34.8899Z" fill="#F9F9F9"/>
<path d="M68.3491 58.15C68.3619 58.1705 68.0665 58.3742 67.593 58.7068C67.1195 59.0392 66.4715 59.5059 65.7773 60.0497C65.0831 60.594 64.4749 61.1121 64.0393 61.4926C63.603 61.8724 63.3348 62.1107 63.3178 62.0931C63.3024 62.0777 63.5417 61.8092 63.9594 61.4053C64.3768 61.0014 64.9763 60.466 65.6743 59.9185C66.3724 59.3715 67.0355 58.9173 67.5275 58.6087C68.0196 58.2998 68.3375 58.1313 68.3491 58.15Z" fill="#F9F9F9"/>
<path d="M67.9275 55.5746C67.8855 55.6 67.3459 54.7598 66.6001 53.783C65.8574 52.8033 65.1921 52.0588 65.2274 52.0251C65.2438 52.01 65.4314 52.1772 65.7108 52.4713C65.9899 52.7655 66.3579 53.1889 66.7329 53.6817C67.1076 54.1744 67.4178 54.6421 67.6266 54.9898C67.8354 55.3372 67.9467 55.5628 67.9275 55.5746Z" fill="#F9F9F9"/>
<path d="M69.8823 45.4361C69.9045 45.4765 69.2183 45.898 68.3503 46.3773C67.4816 46.8569 66.7595 47.2126 66.7373 47.1725C66.7152 47.1321 67.4007 46.7106 68.2694 46.231C69.1375 45.7514 69.8596 45.3957 69.8823 45.4361Z" fill="#F9F9F9"/>
<path d="M67.9476 41.0092C67.9335 41.0256 67.7176 40.8668 67.3977 40.5762C67.0776 40.2858 66.6574 39.8592 66.2384 39.3491C65.8201 38.8381 65.4836 38.3425 65.2616 37.9723C65.0393 37.6015 64.9257 37.359 64.9444 37.3481C64.988 37.3224 65.5362 38.2344 66.3677 39.243C67.1937 40.2554 67.9813 40.9717 67.9476 41.0092Z" fill="#F9F9F9"/>
<path d="M71.2772 40.9163C71.2361 40.896 71.5004 40.2676 71.8677 39.5128C72.2353 38.7577 72.5667 38.1623 72.6084 38.1825C72.6498 38.2027 72.3855 38.8308 72.0179 39.586C71.6506 40.3408 71.3189 40.9365 71.2772 40.9163Z" fill="#F9F9F9"/>
<path d="M70.3887 35.8494C70.3367 35.8471 70.3945 34.8524 70.2026 33.6497C70.0185 32.4452 69.6599 31.5162 69.7086 31.4979C69.7282 31.4902 69.8433 31.7128 69.9806 32.0929C70.1189 32.4727 70.2716 33.0133 70.3675 33.6241C70.4621 34.2348 70.482 34.7959 70.4663 35.1994C70.4512 35.6036 70.4095 35.851 70.3887 35.8494Z" fill="#F9F9F9"/>
<path d="M71.2103 61.4139C71.1859 61.4117 71.2029 61.0531 71.2228 60.475C71.243 59.8966 71.2594 59.0982 71.2379 58.217C71.2154 57.3351 71.1593 56.5383 71.1102 55.9621C71.0618 55.3854 71.0268 55.0283 71.0512 55.0248C71.0724 55.0216 71.1487 55.3732 71.2276 55.949C71.3068 56.5245 71.3826 57.3255 71.405 58.2125C71.4265 59.0998 71.3912 59.9033 71.3408 60.4817C71.2905 61.0611 71.2321 61.4162 71.2103 61.4139Z" fill="#F9F9F9"/>
<path d="M70.7233 69.3841C70.6841 69.4191 70.1529 68.7781 69.299 68.2395C68.4505 67.6919 67.645 67.4809 67.6604 67.4308C67.6633 67.3904 68.5114 67.5338 69.3891 68.0987C70.2706 68.6559 70.7582 69.3645 70.7233 69.3841Z" fill="#F9F9F9"/>
<path d="M74.738 74.3266C74.7592 74.3677 73.7727 74.9201 72.5348 75.5607C71.2966 76.2016 70.2761 76.6876 70.255 76.6465C70.2338 76.6055 71.2199 76.0531 72.4582 75.4122C73.6961 74.7719 74.7165 74.2859 74.738 74.3266Z" fill="#F9F9F9"/>
<path d="M63.4392 76.5176C63.402 76.5452 62.6754 75.621 61.8166 74.453C60.9576 73.2857 60.2916 72.3169 60.3291 72.2897C60.366 72.2624 61.0923 73.1866 61.9514 74.3542C62.8101 75.5216 63.4761 76.4907 63.4392 76.5176Z" fill="#F9F9F9"/>
<path d="M59.9513 67.3953C59.9286 67.396 59.8987 67.1448 59.8801 66.7367C59.8615 66.3293 59.8577 65.7648 59.8862 65.1424C59.9151 64.5198 59.9709 63.9581 60.0274 63.5542C60.0835 63.1497 60.1367 62.9024 60.1589 62.9049C60.207 62.9113 60.1088 63.9125 60.053 65.1501C59.9943 66.3877 59.9995 67.3934 59.9513 67.3953Z" fill="#F9F9F9"/>
<path d="M56.1888 82.967C56.1596 83.0026 55.3204 82.3536 54.3151 81.5177C53.3097 80.6814 52.5187 79.9747 52.5482 79.9394C52.5774 79.9038 53.4165 80.5531 54.4219 81.389C55.4276 82.225 56.2186 82.9317 56.1888 82.967Z" fill="#F9F9F9"/>
<path d="M58.4471 82.4893C58.4012 82.4902 58.3377 81.3646 58.3053 79.9756C58.2726 78.5856 58.2841 77.4587 58.33 77.4574C58.3762 77.4564 58.4397 78.5818 58.4721 79.9714C58.5045 81.3607 58.4933 82.488 58.4471 82.4893Z" fill="#F9F9F9"/>
<path d="M62.9079 92.1495C62.8967 92.1745 62.5076 92.0161 61.8631 91.8104C61.219 91.6035 60.3134 91.3668 59.292 91.2256C58.2703 91.0874 57.3339 91.0729 56.658 91.0992C55.9818 91.1246 55.5641 91.173 55.5606 91.1458C55.5586 91.1345 55.6619 91.1108 55.8499 91.0778C56.0376 91.0431 56.3109 91.0091 56.6516 90.9812C57.331 90.9244 58.2802 90.9199 59.3144 91.0604C60.3487 91.2025 61.2616 91.4614 61.9013 91.6985C62.2211 91.8162 62.4761 91.9227 62.6474 92.0068C62.8197 92.0889 62.9124 92.1392 62.9079 92.1495Z" fill="#F9F9F9"/>
<path d="M66.5812 93.9119C66.594 93.8949 66.8757 94.0783 67.3036 94.412C67.7315 94.7453 68.3016 95.2345 68.888 95.8202C69.4737 96.4069 69.9633 96.977 70.2966 97.4049C70.6302 97.8328 70.8137 98.1142 70.7964 98.1273C70.7768 98.1424 70.5606 97.8864 70.2055 97.48C69.8503 97.0735 69.3515 96.5205 68.7699 95.9383C68.188 95.357 67.635 94.8582 67.2282 94.5031C66.8218 94.148 66.5661 93.9317 66.5812 93.9119Z" fill="#F9F9F9"/>
<path d="M68.1806 77.1996C68.1376 77.2166 67.7655 76.379 67.3494 75.329C66.933 74.2785 66.6305 73.4136 66.6735 73.3966C66.7165 73.3796 67.0886 74.2172 67.5047 75.2675C67.921 76.3177 68.2236 77.1826 68.1806 77.1996Z" fill="#F9F9F9"/>
<path d="M55.2951 44.6881C55.3102 44.7028 55.1305 44.9152 54.8043 45.2232C54.4784 45.5308 53.9998 45.9282 53.4297 46.309C52.8587 46.6888 52.3082 46.9779 51.8983 47.1604C51.4886 47.3432 51.224 47.427 51.2156 47.4077C51.1951 47.3599 52.2117 46.9253 53.3373 46.1701C54.4665 45.4217 55.2595 44.6506 55.2951 44.6881Z" fill="#F9F9F9"/>
<path d="M56.1144 41.2885C56.0685 41.2863 56.0617 40.6453 56.099 39.8568C56.1362 39.0684 56.2039 38.4306 56.2497 38.4329C56.2959 38.4351 56.3033 39.076 56.2661 39.8645C56.2282 40.653 56.1606 41.2908 56.1144 41.2885Z" fill="#F9F9F9"/>
<path d="M49.7198 44.1439C49.7009 44.1859 48.9547 43.885 48.0536 43.4721C47.1522 43.059 46.4375 42.6901 46.4564 42.648C46.4757 42.6063 47.2218 42.9069 48.1232 43.3201C49.024 43.7329 49.7394 44.1018 49.7198 44.1439Z" fill="#F9F9F9"/>
<path d="M61.1375 39.7925C61.0916 39.7889 61.115 38.9946 61.1895 38.0182C61.2645 37.0417 61.3621 36.2532 61.4082 36.2567C61.4541 36.2603 61.4307 37.0545 61.3563 38.031C61.2812 39.0072 61.1837 39.796 61.1375 39.7925Z" fill="#F9F9F9"/>
<path d="M46.3209 50.9427C46.3087 50.9828 45.4413 50.7169 44.4895 50.1423C43.5342 49.5726 42.8916 48.9327 42.9211 48.9031C42.9539 48.8653 43.6362 49.4395 44.5755 49.9993C45.5109 50.5639 46.3388 50.8959 46.3209 50.9427Z" fill="#F9F9F9"/>
<path d="M41.5611 44.4161C41.5954 44.4472 40.9836 45.1725 40.1951 46.0361C39.4063 46.8999 38.7397 47.5746 38.7057 47.5434C38.6714 47.5126 39.2831 46.787 40.072 45.9235C40.8601 45.0599 41.5271 44.385 41.5611 44.4161Z" fill="#F9F9F9"/>
<path d="M41.1533 38.5687C41.136 38.6078 40.4197 38.3043 39.6578 37.7301C38.8927 37.1595 38.4009 36.5564 38.4337 36.5291C38.4696 36.4951 39.0076 37.0369 39.7579 37.5967C40.505 38.16 41.1758 38.5247 41.1533 38.5687Z" fill="#F9F9F9"/>
<path d="M38.1619 39.7928C38.1972 39.8226 37.8908 40.2426 37.478 40.7305C37.0648 41.2187 36.7013 41.5902 36.6661 41.5604C36.6311 41.5305 36.9371 41.1109 37.3503 40.6227C37.7631 40.1345 38.1266 39.763 38.1619 39.7928Z" fill="#F9F9F9"/>
<path d="M44.581 28.9374C44.6166 28.9669 44.0552 29.7114 43.3276 30.6007C42.5995 31.4899 41.9803 32.187 41.9447 32.1581C41.9091 32.1286 42.4702 31.384 43.198 30.4948C43.9262 29.6056 44.545 28.9085 44.581 28.9374Z" fill="#F9F9F9"/>
<path d="M39.075 30.1724C39.04 30.2029 38.4292 29.5616 37.7106 28.7404C36.9918 27.9189 36.4371 27.2282 36.4718 27.1981C36.5064 27.1676 37.1172 27.8085 37.8361 28.6304C38.555 29.4516 39.1096 30.1423 39.075 30.1724Z" fill="#F9F9F9"/>
<path d="M41.8275 23.2068C41.7874 23.2293 41.3592 22.5476 40.8716 21.684C40.3834 20.8201 40.0205 20.1013 40.0606 20.0788C40.1007 20.056 40.529 20.7377 41.0169 21.6019C41.5048 22.4655 41.868 23.184 41.8275 23.2068Z" fill="#F9F9F9"/>
<path d="M41.6916 18.7115C41.6512 18.6801 42.1311 18.0716 42.5128 17.208C42.9019 16.3476 43.0354 15.5842 43.0861 15.5935C43.1271 15.5951 43.0652 16.3903 42.6655 17.2763C42.2716 18.1649 41.7202 18.7414 41.6916 18.7115Z" fill="#F9F9F9"/>
<path d="M36.3933 18.4441C36.3545 18.4534 36.3106 17.5103 36.7882 16.4812C37.0231 15.9711 37.3243 15.5567 37.5722 15.2882C37.8202 15.0184 38.0043 14.8853 38.0175 14.9C38.0573 14.936 37.3897 15.5528 36.9403 16.5508C36.4784 17.5424 36.4466 18.4508 36.3933 18.4441Z" fill="#F9F9F9"/>
<path d="M82.6456 10.8125C82.5417 9.47962 82.4378 8.13585 82.5975 6.80842C82.7573 5.48068 83.1996 4.15423 84.0738 3.14182C84.9476 2.13005 86.2962 1.47693 87.6223 1.64887C88.441 1.75505 89.2176 2.15957 90.043 2.13519C90.9983 2.10728 91.8295 1.51767 92.6985 1.12086C94.0561 0.500773 95.6174 0.338134 97.0737 0.664696C97.8382 0.835676 98.593 1.15165 99.1438 1.70886C99.6943 2.26575 100.009 3.09466 99.8142 3.85333C100.779 3.85365 101.756 3.85525 102.687 4.10547C103.618 4.35568 104.514 4.88755 104.994 5.72384C105.474 6.55981 105.439 7.72363 104.754 8.4021C105.645 8.22117 106.581 8.9083 106.793 9.79271C107.006 10.6771 106.566 11.644 105.832 12.1797C105.097 12.7157 103.727 12.9531 102.834 12.7831C101.94 12.6124 100.918 12.3622 100.193 11.8127" fill="#0C2B34"/>
<path d="M81.9479 41.0304C85.6321 41.9773 89.3918 39.7745 90.3634 36.0963C90.9062 34.0423 91.3473 32.32 91.3473 32.32C91.3473 32.32 96.7093 33.2384 98.4819 28.1645C100.255 23.0909 103.299 11.0951 103.299 11.0951C98.2519 6.58096 91.157 5.1512 84.7557 7.35951L83.8055 7.68735L76.9952 32.4923C75.9706 36.2221 78.2014 40.0677 81.9479 41.0304Z" fill="#C18573"/>
<path d="M91.3804 32.2499C91.3804 32.2499 88.0728 31.4309 85.3721 28.1326C85.3721 28.1326 85.7115 32.3262 90.9496 33.5738L91.3804 32.2499Z" fill="#B96653"/>
<path d="M82.6623 13.1754C82.5882 13.1086 79.5093 10.9648 78.4513 14.4855C77.3934 18.0058 81.146 18.342 81.1825 18.2428C81.2191 18.1434 82.6623 13.1754 82.6623 13.1754Z" fill="#C18573"/>
<path d="M80.508 16.5858C80.4961 16.5701 80.4335 16.6105 80.3158 16.6268C80.201 16.6426 80.0175 16.6223 79.8545 16.4985C79.5235 16.2502 79.3878 15.5657 79.5616 14.926C79.6489 14.6027 79.8077 14.3178 79.9969 14.0994C80.1817 13.8742 80.4027 13.7442 80.5997 13.7673C80.7989 13.7802 80.898 13.9322 80.9112 14.0442C80.9288 14.1568 80.8855 14.2203 80.9022 14.2318C80.9096 14.2437 80.9952 14.1956 81.0106 14.0419C81.0174 13.9675 81.001 13.8722 80.9388 13.7795C80.8746 13.6855 80.7611 13.613 80.6263 13.588C80.3495 13.5251 80.03 13.7016 79.8215 13.9412C79.5982 14.1779 79.4125 14.4958 79.314 14.8587C79.1234 15.575 79.2874 16.3478 79.7519 16.648C79.9803 16.7869 80.2093 16.7744 80.3408 16.7234C80.4759 16.6692 80.5182 16.596 80.508 16.5858Z" fill="#B96653"/>
<path d="M98.9783 18.4305C98.8631 18.819 98.4384 19.0419 98.0304 18.929C97.6227 18.8161 97.3849 18.41 97.5008 18.0212C97.6159 17.6324 98.0403 17.4091 98.448 17.5217C98.8561 17.635 99.0935 18.0417 98.9783 18.4305Z" fill="#0C2B34"/>
<path d="M99.9294 17.9388C99.8075 18.0033 99.393 17.4104 98.6093 17.1496C97.8305 16.8782 97.1206 17.088 97.0676 16.9636C97.0404 16.9071 97.1895 16.7666 97.501 16.6685C97.8083 16.5696 98.2876 16.5344 98.7745 16.7002C99.2615 16.8667 99.6115 17.184 99.7853 17.4467C99.964 17.7123 99.9878 17.9112 99.9294 17.9388Z" fill="#0C2B34"/>
<path d="M91.2818 15.8468C91.1663 16.2356 90.7419 16.4586 90.3339 16.3453C89.9265 16.2324 89.6888 15.8266 89.8039 15.4375C89.9194 15.049 90.3442 14.8258 90.7516 14.9384C91.1599 15.0513 91.3973 15.458 91.2818 15.8468Z" fill="#0C2B34"/>
<path d="M92.1839 15.5017C92.0616 15.5662 91.6465 14.973 90.8635 14.7125C90.0846 14.4408 89.3744 14.6506 89.3218 14.5262C89.2945 14.4697 89.4427 14.3292 89.7555 14.2314C90.0625 14.1326 90.5417 14.0973 91.0287 14.2628C91.5153 14.4293 91.8653 14.7465 92.0398 15.0093C92.2179 15.2749 92.2422 15.4741 92.1839 15.5017Z" fill="#0C2B34"/>
<path d="M93.0766 22.2617C93.0879 22.2161 93.6027 22.2954 94.4255 22.4593C94.6321 22.5058 94.8346 22.5295 94.9141 22.4044C95.0097 22.2758 94.9985 22.0323 94.9796 21.767C94.9539 21.2201 94.9276 20.6472 94.8994 20.0463C94.806 17.6029 94.8099 15.6214 94.908 15.6182C95.0065 15.6153 95.1621 17.5933 95.2558 20.0364C95.2737 20.6372 95.292 21.2105 95.3084 21.758C95.3077 22.0108 95.351 22.312 95.1486 22.5777C95.0443 22.7089 94.8612 22.7679 94.7213 22.7595C94.5802 22.7557 94.4669 22.7201 94.3662 22.6928C93.5581 22.4689 93.0644 22.3072 93.0766 22.2617Z" fill="#0C2B34"/>
<path d="M90.5904 22.0302C90.7203 22.0654 90.4367 22.9158 90.9615 23.7634C91.4847 24.6122 92.4224 24.8207 92.3894 24.9416C92.383 24.999 92.1321 25.0391 91.7462 24.9211C91.3667 24.8079 90.8595 24.5037 90.5381 23.9854C90.2186 23.4666 90.1936 22.9088 90.2818 22.5505C90.3684 22.1845 90.5339 22.0058 90.5904 22.0302Z" fill="#0C2B34"/>
<path d="M100.104 16.4645C99.9069 16.5961 99.4293 16.2304 98.7835 16.0042C98.1458 15.755 97.5456 15.7216 97.4818 15.4929C97.4567 15.3841 97.6027 15.235 97.8994 15.1474C98.192 15.0588 98.6337 15.0547 99.0748 15.2176C99.5159 15.3812 99.8479 15.6722 100.012 15.9301C100.18 16.1896 100.194 16.3981 100.104 16.4645Z" fill="#0C2B34"/>
<path d="M92.1155 12.3295C91.9955 12.3956 91.8079 12.2897 91.565 12.1512C91.3212 12.0091 91.0091 11.8368 90.6415 11.6976C90.2716 11.5622 89.9232 11.4884 89.6461 11.4361C89.3715 11.3819 89.1604 11.3392 89.1129 11.2106C89.0674 11.0926 89.2178 10.8937 89.5659 10.7615C89.9085 10.6284 90.4458 10.5995 90.977 10.7971C91.5076 10.995 91.8954 11.3684 92.0671 11.6934C92.2438 12.0212 92.2275 12.2699 92.1155 12.3295Z" fill="#0C2B34"/>
<path d="M103.027 12.7449C103.027 12.7449 99.232 12.7471 95.722 9.87256C93.4184 7.98633 90.5339 6.66565 89.7479 7.03616C88.9614 7.40731 88.213 10.0519 85.4622 10.2495C85.4622 10.2495 84.4799 15.3965 82.485 14.7524C80.49 14.1079 83.558 6.48665 83.558 6.48665L89.0919 5.18457L94.7609 5.39148L99.8537 6.54728L104.258 9.07733L103.027 12.7449Z" fill="#0C2B34"/>
<path d="M99.4491 71.8277C99.4154 71.8241 99.3814 71.8206 99.3474 71.8171L99.4244 71.7683C99.4327 71.7882 99.4411 71.8078 99.4491 71.8277Z" fill="#021E27"/>
<path d="M103.19 73.9128C102.735 73.5721 102.231 73.2966 101.698 73.097C101.193 72.8353 100.713 72.6575 100.326 72.5482C100.209 72.5145 100.101 72.4862 100.003 72.4619C99.9601 72.4253 99.9199 72.3852 99.8831 72.3425C100.017 72.3621 100.177 72.3926 100.356 72.4336C100.93 72.5642 101.706 72.8526 102.461 73.3514C102.728 73.5288 102.972 73.7194 103.19 73.9128Z" fill="#021E27"/>
<path d="M33.7199 35.8805C33.7199 35.9409 29.7839 35.9902 24.9298 35.9902C20.0736 35.9902 16.1387 35.9409 16.1387 35.8805C16.1387 35.8196 20.0736 35.7703 24.9298 35.7703C29.7839 35.7703 33.7199 35.8196 33.7199 35.8805Z" fill="#2C3F4D"/>
<path d="M33.7199 37.5634C33.7199 37.6243 29.7839 37.6736 24.9298 37.6736C20.0736 37.6736 16.1387 37.6243 16.1387 37.5634C16.1387 37.5029 20.0736 37.4536 24.9298 37.4536C29.7839 37.4536 33.7199 37.5029 33.7199 37.5634Z" fill="#2C3F4D"/>
<path d="M22.7114 39.2471C22.7114 39.3075 21.24 39.3568 19.4253 39.3568C17.6101 39.3568 16.1387 39.3075 16.1387 39.2471C16.1387 39.1862 17.6101 39.1368 19.4253 39.1368C21.24 39.1368 22.7114 39.1862 22.7114 39.2471Z" fill="#2C3F4D"/>
<path d="M33.992 34.0729C33.992 34.1333 26.5922 34.1826 17.4659 34.1826C8.33647 34.1826 0.938232 34.1333 0.938232 34.0729C0.938232 34.012 8.33647 33.9626 17.4659 33.9626C26.5922 33.9626 33.992 34.012 33.992 34.0729Z" fill="#2C3F4D"/>
<path d="M21.0403 45.6999C21.0403 45.7609 17.7391 45.8102 13.6687 45.8102C9.59682 45.8102 6.29663 45.7609 6.29663 45.6999C6.29663 45.639 9.59682 45.5902 13.6687 45.5902C17.7391 45.5902 21.0403 45.639 21.0403 45.6999Z" fill="white"/>
<path d="M43.9738 45.6999C43.9738 45.7609 42.2271 45.8102 40.0736 45.8102C37.9191 45.8102 36.1729 45.7609 36.1729 45.6999C36.1729 45.639 37.9191 45.5902 40.0736 45.5902C42.2271 45.5902 43.9738 45.639 43.9738 45.6999Z" fill="white"/>
<path d="M55.1338 45.6999C55.1338 45.7609 53.8386 45.8102 52.2413 45.8102C50.6431 45.8102 49.3484 45.7609 49.3484 45.6999C49.3484 45.639 50.6431 45.5902 52.2413 45.5902C53.8386 45.5902 55.1338 45.639 55.1338 45.6999Z" fill="white"/>
<path d="M64.7827 45.6999C64.7827 45.7609 63.4875 45.8102 61.8903 45.8102C60.2925 45.8102 58.9973 45.7609 58.9973 45.6999C58.9973 45.639 60.2925 45.5902 61.8903 45.5902C63.4875 45.5902 64.7827 45.639 64.7827 45.6999Z" fill="white"/>
<path d="M65.6377 78.0943C65.6377 78.1667 51.3446 78.2256 33.7176 78.2256C16.084 78.2256 1.79395 78.1667 1.79395 78.0943C1.79395 78.0218 16.084 77.9634 33.7176 77.9634C51.3446 77.9634 65.6377 78.0218 65.6377 78.0943Z" fill="#2C3F4D"/>
<path d="M30.9674 84.3045C30.9674 84.377 24.6177 84.4359 16.7871 84.4359C8.95341 84.4359 2.60522 84.377 2.60522 84.3045C2.60522 84.232 8.95341 84.1736 16.7871 84.1736C24.6177 84.1736 30.9674 84.232 30.9674 84.3045Z" fill="#2C3F4D"/>
<path d="M24.5926 86.6463C24.5926 86.7187 19.67 86.7771 13.5991 86.7771C7.52631 86.7771 2.60522 86.7187 2.60522 86.6463C2.60522 86.5738 7.52631 86.5154 13.5991 86.5154C19.67 86.5154 24.5926 86.5738 24.5926 86.6463Z" fill="#2C3F4D"/>
<path d="M21.0402 88.9879C21.0402 89.0604 16.9129 89.1193 11.8227 89.1193C6.73147 89.1193 2.60522 89.0604 2.60522 88.9879C2.60522 88.9155 6.73147 88.8571 11.8227 88.8571C16.9129 88.8571 21.0402 88.9155 21.0402 88.9879Z" fill="#2C3F4D"/>
<path d="M63.7929 85.7648C63.794 85.7693 63.7346 85.7869 63.6178 85.8166C63.4879 85.8479 63.3157 85.8891 63.0983 85.942C62.6412 86.0507 61.9652 86.2007 61.0923 86.388C59.3476 86.7585 56.814 87.2639 53.6654 87.7829C52.0913 88.0421 50.3626 88.3039 48.5031 88.552C47.5729 88.6759 46.6104 88.7992 45.6172 88.914C45.1209 88.9698 44.617 89.0267 44.1061 89.0841C43.8499 89.1103 43.5967 89.1465 43.3248 89.1576C43.0565 89.1657 42.7646 89.143 42.4993 88.9925C42.2481 88.8425 42.0321 88.5807 42.0271 88.2465C42.0286 87.9007 42.2969 87.656 42.5305 87.5161C43.0178 87.2427 43.5071 87.0112 44.0245 86.7993C45.0524 86.3724 46.1498 86.0537 47.2885 85.8519C48.4276 85.6535 49.6096 85.573 50.8031 85.639C51.3986 85.6656 52.0087 85.7376 52.5987 85.9198C53.1826 86.1006 53.7741 86.4081 54.1612 86.9372C54.5579 87.4597 54.6515 88.1594 54.5146 88.769C54.3832 89.3851 54.0575 89.9434 53.6372 90.3844C53.2194 90.8309 52.727 91.1807 52.2332 91.4978C51.7369 91.8094 51.2471 92.124 50.7145 92.3717C50.187 92.6143 49.6071 92.8061 49.005 92.7538C48.404 92.709 47.8422 92.3526 47.5336 91.8583C47.2115 91.3705 47.067 90.8137 46.9824 90.2721C46.9094 89.7274 46.8717 89.1903 46.8807 88.6567C46.8989 86.5214 47.5236 84.5224 48.4916 82.8985C48.7287 82.4938 48.9944 82.0906 49.3634 81.7881C49.7178 81.4775 50.2685 81.331 50.7095 81.5474C51.1464 81.7523 51.4117 82.1686 51.526 82.59C51.6332 83.0244 51.5713 83.4578 51.4585 83.8479C51.3427 84.2401 51.1786 84.5985 51.0155 84.9418C50.8555 85.2871 50.6893 85.6188 50.5227 85.938C50.1885 86.5768 49.8472 87.1647 49.5054 87.7003C48.8238 88.773 48.1598 89.6459 47.5845 90.329C47.0086 91.0126 46.5289 91.5144 46.1941 91.8442C46.029 92.0113 45.8951 92.1316 45.808 92.2141C45.7194 92.2957 45.6726 92.336 45.6691 92.3329C45.6661 92.3294 45.7068 92.2826 45.7889 92.195C45.881 92.0979 46.0023 91.97 46.1564 91.8074C46.478 91.4661 46.9442 90.9547 47.5054 90.264C48.0667 89.5739 48.7151 88.6965 49.381 87.6228C49.7148 87.0867 50.0485 86.4987 50.3747 85.8615C50.6868 85.2216 51.0503 84.5416 51.2803 83.7971C51.3855 83.4256 51.4354 83.0193 51.3387 82.6388C51.2355 82.2643 50.9899 81.8963 50.6254 81.7317C50.263 81.559 49.8185 81.6703 49.4958 81.9512C49.1631 82.227 48.9109 82.6066 48.6788 83.0098C47.7375 84.606 47.1334 86.5687 47.1224 88.6587C47.1148 89.1792 47.1541 89.7103 47.2256 90.2348C47.3076 90.7553 47.4501 91.2819 47.742 91.7188C48.0224 92.1618 48.5006 92.4593 49.0277 92.5016C49.5567 92.5474 50.0994 92.3742 50.6058 92.1386C51.1152 91.9021 51.6025 91.5894 52.0933 91.2799C52.5796 90.9673 53.0532 90.6275 53.4469 90.2062C53.8425 89.7904 54.1375 89.2779 54.2583 88.7151C54.3812 88.1569 54.2971 87.5513 53.9498 87.0922C53.6125 86.6286 53.0749 86.3412 52.5207 86.1695C51.9609 85.9969 51.3765 85.9264 50.7895 85.8997C49.6161 85.8338 48.4538 85.9113 47.3328 86.1051C46.2122 86.3024 45.132 86.613 44.1202 87.0308C43.6158 87.2352 43.1159 87.4718 42.6609 87.725C42.4439 87.8554 42.2697 88.0361 42.2712 88.248C42.2692 88.4584 42.4258 88.6698 42.6216 88.7841C43.0334 89.0131 43.5765 88.8933 44.0809 88.8495C44.5913 88.7937 45.0947 88.7388 45.5911 88.6849C46.5817 88.5651 47.5442 88.4488 48.4745 88.3366C50.3335 88.0975 52.0611 87.8473 53.6362 87.6001C56.7853 87.1048 59.3214 86.6276 61.0722 86.2878C61.935 86.1177 62.611 85.9843 63.0872 85.8901C63.3072 85.8484 63.4808 85.8151 63.6122 85.7905C63.7305 85.7693 63.7919 85.7603 63.7929 85.7648Z" fill="#2C3F4D"/>
<path d="M44.8058 94.6902C44.8058 94.7627 43.8413 94.8216 42.6523 94.8216C41.4623 94.8216 40.4983 94.7627 40.4983 94.6902C40.4983 94.6182 41.4623 94.5593 42.6523 94.5593C43.8413 94.5593 44.8058 94.6182 44.8058 94.6902Z" fill="#2C3F4D"/>
<path d="M74.3651 100.057H0.886563L0.82666 6.47937H74.3963L74.3651 100.057Z" fill="white"/>
<path d="M74.3653 6.14514H0.795654V24.1547H74.3653V6.14514Z" fill="#ECEEF1"/>
<path fill-rule="evenodd" clip-rule="evenodd" d="M14.7302 15.9138L17.1302 13.5138C17.577 13.067 18.2845 13.0487 18.7092 13.4733C19.1337 13.8978 19.1155 14.6055 18.6687 15.0523L15.4588 18.2623C15.012 18.7091 14.3043 18.7272 13.8798 18.3027L10.8302 15.2532C10.4058 14.8287 10.4239 14.121 10.8707 13.6742C11.3177 13.2272 12.0254 13.209 12.4499 13.6335L14.7302 15.9138Z" fill="#2D3F4D"/>
<path d="M14.0205 12.0776C14.4559 12.513 15.1804 12.4945 15.6388 12.0361C16.0971 11.5778 16.1157 10.8533 15.6802 10.4179C15.2448 9.98249 14.5203 10.0011 14.062 10.4594C13.6037 10.9177 13.5851 11.6422 14.0205 12.0776Z" fill="#1EA788"/>
<path d="M32.5082 21.4314H4.47168V25.9684H32.5082V21.4314Z" fill="#22A687"/>
<path d="M70.1991 44.0264H4.47168V50.5422H70.1991V44.0264Z" fill="#F9F9F9"/>
<path d="M70.1991 50.5331H4.47168V57.0489H70.1991V50.5331Z" fill="#E4E7EC"/>
<path d="M59.2568 29.5162C59.2568 29.5776 58.7413 29.6265 58.1061 29.6265C57.4703 29.6265 56.9548 29.5776 56.9548 29.5162C56.9548 29.4558 57.4703 29.4065 58.1061 29.4065C58.7413 29.4065 59.2568 29.4558 59.2568 29.5162Z" fill="#2C3F4D"/>
<path d="M59.6606 30.4772C59.6038 30.4551 59.7296 29.9885 59.942 29.4347C60.1545 28.8805 60.3729 28.4491 60.4293 28.4708C60.4862 28.4929 60.3603 28.9595 60.1474 29.5133C59.9355 30.0675 59.717 30.4989 59.6606 30.4772Z" fill="#2C3F4D"/>
<path d="M62.6212 29.5162C62.6212 29.5776 62.2376 29.6265 61.7654 29.6265C61.2923 29.6265 60.9092 29.5776 60.9092 29.5162C60.9092 29.4558 61.2923 29.4065 61.7654 29.4065C62.2376 29.4065 62.6212 29.4558 62.6212 29.5162Z" fill="#2C3F4D"/>
<path d="M63.3243 30.2427C63.2675 30.2221 63.3626 29.8199 63.5368 29.3457C63.7114 28.871 63.8987 28.5035 63.9561 28.5247C64.013 28.5453 63.9178 28.947 63.7432 29.4217C63.569 29.8959 63.3817 30.2639 63.3243 30.2427Z" fill="#2C3F4D"/>
<path d="M67.6379 29.5162C67.6379 29.5776 66.8717 29.6265 65.9263 29.6265C64.981 29.6265 64.2148 29.5776 64.2148 29.5162C64.2148 29.4558 64.981 29.4065 65.9263 29.4065C66.8717 29.4065 67.6379 29.4558 67.6379 29.5162Z" fill="#2C3F4D"/>
<path d="M70.1991 39.4893H4.47168V44.0263H70.1991V39.4893Z" fill="#22A687"/>
<path d="M24.2515 47.6265C24.2515 47.6874 21.0927 47.7367 17.1965 47.7367C13.2993 47.7367 10.1411 47.6874 10.1411 47.6265C10.1411 47.5661 13.2993 47.5167 17.1965 47.5167C21.0927 47.5167 24.2515 47.5661 24.2515 47.6265Z" fill="black"/>
<path d="M47.3331 47.777C47.3331 47.8374 45.9553 47.8872 44.2559 47.8872C42.556 47.8872 41.1782 47.8374 41.1782 47.777C41.1782 47.7161 42.556 47.6667 44.2559 47.6667C45.9553 47.6667 47.3331 47.7161 47.3331 47.777Z" fill="black"/>
<path d="M55.9915 47.4015C55.9915 47.4624 55.6889 47.5117 55.3159 47.5117C54.9429 47.5117 54.6404 47.4624 54.6404 47.4015C54.6404 47.3411 54.9429 47.2913 55.3159 47.2913C55.6889 47.2913 55.9915 47.3411 55.9915 47.4015Z" fill="black"/>
<path d="M67.7755 47.5519C67.7755 47.6123 66.5492 47.6616 65.0361 47.6616C63.5229 47.6616 62.2966 47.6123 62.2966 47.5519C62.2966 47.4905 63.5229 47.4417 65.0361 47.4417C66.5492 47.4417 67.7755 47.4905 67.7755 47.5519Z" fill="black"/>
<path d="M31.5324 53.9314C31.5324 53.9923 26.7432 54.0416 20.837 54.0416C14.9288 54.0416 10.1411 53.9923 10.1411 53.9314C10.1411 53.871 14.9288 53.8217 20.837 53.8217C26.7432 53.8217 31.5324 53.871 31.5324 53.9314Z" fill="black"/>
<path d="M46.207 54.0063C46.207 54.0673 45.0815 54.1166 43.6926 54.1166C42.3038 54.1166 41.1782 54.0673 41.1782 54.0063C41.1782 53.9459 42.3038 53.8966 43.6926 53.8966C45.0815 53.8966 46.207 53.9459 46.207 54.0063Z" fill="black"/>
<path d="M56.2917 53.9314C56.2917 53.9923 55.8553 54.0416 55.3161 54.0416C54.777 54.0416 54.3406 53.9923 54.3406 53.9314C54.3406 53.871 54.777 53.8217 55.3161 53.8217C55.8553 53.8217 56.2917 53.871 56.2917 53.9314Z" fill="black"/>
<path d="M67.0253 53.7814C67.0253 53.8423 65.8489 53.8916 64.3982 53.8916C62.9469 53.8916 61.771 53.8423 61.771 53.7814C61.771 53.7205 62.9469 53.6711 64.3982 53.6711C65.8489 53.6711 67.0253 53.7205 67.0253 53.7814Z" fill="black"/>
<path d="M70.0149 66.731H39.0461V70.7681H70.0149V66.731Z" fill="#22A687"/>
<path d="M63.2221 61.0311C63.2221 61.092 61.574 61.1409 59.5414 61.1409C57.5082 61.1409 55.8601 61.092 55.8601 61.0311C55.8601 60.9702 57.5082 60.9209 59.5414 60.9209C61.574 60.9209 63.2221 60.9702 63.2221 61.0311Z" fill="#2C3F4D"/>
<path d="M63.2221 63.7383C63.2221 63.7992 61.574 63.8485 59.5414 63.8485C57.5082 63.8485 55.8601 63.7992 55.8601 63.7383C55.8601 63.6774 57.5082 63.6285 59.5414 63.6285C61.574 63.6285 63.2221 63.6774 63.2221 63.7383Z" fill="#2C3F4D"/>
<path d="M49.5456 63.7383C49.5456 63.7992 47.897 63.8485 45.8644 63.8485C43.8312 63.8485 42.1831 63.7992 42.1831 63.7383C42.1831 63.6774 43.8312 63.6285 45.8644 63.6285C47.897 63.6285 49.5456 63.6774 49.5456 63.7383Z" fill="#2C3F4D"/>
<path d="M49.546 60.8945C49.546 60.9555 47.087 61.0048 44.0556 61.0048C41.0227 61.0048 38.5647 60.9555 38.5647 60.8945C38.5647 60.8336 41.0227 60.7843 44.0556 60.7843C47.087 60.7843 49.546 60.8336 49.546 60.8945Z" fill="#2C3F4D"/>
<path d="M63.2221 68.9539C63.2221 69.0148 61.574 69.0636 59.5414 69.0636C57.5082 69.0636 55.8601 69.0148 55.8601 68.9539C55.8601 68.893 57.5082 68.8436 59.5414 68.8436C61.574 68.8436 63.2221 68.893 63.2221 68.9539Z" fill="white"/>
<path d="M49.9521 68.9539C49.9521 69.0148 48.304 69.0636 46.2713 69.0636C44.2377 69.0636 42.5901 69.0148 42.5901 68.9539C42.5901 68.893 44.2377 68.8436 46.2713 68.8436C48.304 68.8436 49.9521 68.893 49.9521 68.9539Z" fill="white"/>
<path d="M74.3652 100.057C74.3642 99.1901 74.3249 61.8848 74.2665 6.14515L74.3652 6.24382C52.4146 6.24684 27.3284 6.25086 0.803596 6.25539H0.795543L0.905785 6.14515C0.898738 40.9607 0.892193 73.291 0.886655 100.057L0.795543 99.9658C45.1754 100.021 73.6071 100.056 74.3652 100.057C73.6076 100.058 45.1754 100.093 0.795543 100.148H0.704934L0.70443 100.057C0.699397 73.291 0.692854 40.9607 0.685303 6.14515V6.03491H0.803596C27.3284 6.03894 52.4146 6.04297 74.3652 6.04599H74.4639V6.14515C74.4055 61.8848 74.3662 99.1906 74.3652 100.057Z" fill="#2C3F4D"/>
<path d="M37.3393 31.9379C37.3393 31.9988 33.4033 32.0481 28.5492 32.0481C23.693 32.0481 19.7581 31.9988 19.7581 31.9379C19.7581 31.877 23.693 31.8276 28.5492 31.8276C33.4033 31.8276 37.3393 31.877 37.3393 31.9379Z" fill="#2C3F4D"/>
<path d="M37.3393 33.6212C37.3393 33.6821 33.4033 33.731 28.5492 33.731C23.693 33.731 19.7581 33.6821 19.7581 33.6212C19.7581 33.5603 23.693 33.511 28.5492 33.511C33.4033 33.511 37.3393 33.5603 37.3393 33.6212Z" fill="#2C3F4D"/>
<path d="M26.3307 35.3046C26.3307 35.3655 24.8589 35.4148 23.0442 35.4148C21.2289 35.4148 19.7581 35.3655 19.7581 35.3046C19.7581 35.2437 21.2289 35.1943 23.0442 35.1943C24.8589 35.1943 26.3307 35.2437 26.3307 35.3046Z" fill="#2C3F4D"/>
<path d="M37.6116 30.1304C37.6116 30.1913 30.2114 30.2406 21.0855 30.2406C11.9561 30.2406 4.55737 30.1913 4.55737 30.1304C4.55737 30.07 11.9561 30.0201 21.0855 30.0201C30.2114 30.0201 37.6116 30.07 37.6116 30.1304Z" fill="#2C3F4D"/>
<path d="M24.6589 41.7581C24.6589 41.8185 21.3582 41.8678 17.2878 41.8678C13.216 41.8678 9.91577 41.8185 9.91577 41.7581C9.91577 41.6972 13.216 41.6478 17.2878 41.6478C21.3582 41.6478 24.6589 41.6972 24.6589 41.7581Z" fill="white"/>
<path d="M47.5927 41.7581C47.5927 41.8185 45.8464 41.8678 43.6925 41.8678C41.5385 41.8678 39.7922 41.8185 39.7922 41.7581C39.7922 41.6972 41.5385 41.6478 43.6925 41.6478C45.8464 41.6478 47.5927 41.6972 47.5927 41.7581Z" fill="white"/>
<path d="M58.7532 41.7581C58.7532 41.8185 57.458 41.8678 55.8602 41.8678C54.2625 41.8678 52.9673 41.8185 52.9673 41.7581C52.9673 41.6972 54.2625 41.6478 55.8602 41.6478C57.458 41.6478 58.7532 41.6972 58.7532 41.7581Z" fill="white"/>
<path d="M68.4021 41.7581C68.4021 41.8185 67.1069 41.8678 65.5092 41.8678C63.9114 41.8678 62.6162 41.8185 62.6162 41.7581C62.6162 41.6972 63.9114 41.6478 65.5092 41.6478C67.1069 41.6478 68.4021 41.6972 68.4021 41.7581Z" fill="white"/>
<path d="M69.2573 74.1518C69.2573 74.2242 54.9642 74.2831 37.3367 74.2831C19.7037 74.2831 5.41357 74.2242 5.41357 74.1518C5.41357 74.0798 19.7037 74.0209 37.3367 74.0209C54.9642 74.0209 69.2573 74.0798 69.2573 74.1518Z" fill="#2C3F4D"/>
<path d="M34.5868 80.3621C34.5868 80.4346 28.2366 80.4935 20.406 80.4935C12.5728 80.4935 6.22412 80.4346 6.22412 80.3621C6.22412 80.2901 12.5728 80.2312 20.406 80.2312C28.2366 80.2312 34.5868 80.2901 34.5868 80.3621Z" fill="#2C3F4D"/>
<path d="M28.2115 82.7041C28.2115 82.7766 23.2889 82.835 17.2185 82.835C11.1457 82.835 6.22412 82.7766 6.22412 82.7041C6.22412 82.6317 11.1457 82.5728 17.2185 82.5728C23.2889 82.5728 28.2115 82.6317 28.2115 82.7041Z" fill="#2C3F4D"/>
<path d="M24.6591 85.0459C24.6591 85.1184 20.5318 85.1768 15.4421 85.1768C10.3509 85.1768 6.22412 85.1184 6.22412 85.0459C6.22412 84.9734 10.3509 84.9146 15.4421 84.9146C20.5318 84.9146 24.6591 84.9734 24.6591 85.0459Z" fill="#2C3F4D"/>
<path d="M67.4118 81.8228C67.4128 81.8269 67.3534 81.8445 67.2366 81.8742C67.1068 81.9059 66.9351 81.9472 66.7177 81.9995C66.2606 82.1087 65.584 82.2588 64.7117 82.4455C62.9664 82.8165 60.4334 83.3219 57.2847 83.8404C55.7101 84.1001 53.982 84.3614 52.122 84.6101C51.1918 84.7334 50.2293 84.8572 49.2366 84.9715C48.7398 85.0274 48.2359 85.0848 47.7255 85.1421C47.4692 85.1683 47.216 85.2046 46.9442 85.2151C46.6754 85.2232 46.3834 85.2005 46.1187 85.05C45.8675 84.9005 45.6515 84.6383 45.6465 84.3045C45.648 83.9587 45.9158 83.714 46.1499 83.5736C46.6371 83.3008 47.1264 83.0692 47.6439 82.8568C48.6718 82.4304 49.7692 82.1118 50.9079 81.9094C52.047 81.7111 53.229 81.631 54.4225 81.697C55.0175 81.7237 55.6281 81.7951 56.2181 81.9774C56.8015 82.1586 57.3935 82.4662 57.7806 82.9952C58.1772 83.5172 58.2709 84.2174 58.1334 84.827C58.0021 85.4432 57.6764 86.0014 57.2565 86.4424C56.8387 86.8884 56.3464 87.2387 55.8526 87.5559C55.3563 87.867 54.8665 88.1816 54.3339 88.4292C53.8063 88.6724 53.2264 88.8637 52.6239 88.8118C52.0234 88.7665 51.4611 88.4101 51.153 87.9158C50.8308 87.428 50.6864 86.8713 50.6023 86.3301C50.5288 85.7855 50.4916 85.2479 50.5001 84.7143C50.5187 82.5794 51.1429 80.5805 52.1109 78.9566C52.3475 78.5518 52.6138 78.1481 52.9828 77.8456C53.3372 77.5355 53.8874 77.389 54.3289 77.605C54.7658 77.8099 55.0311 78.2262 55.1454 78.6475C55.2521 79.0824 55.1907 79.5153 55.0774 79.9059C54.9621 80.2981 54.7975 80.6565 54.6349 80.9998C54.4748 81.3451 54.3087 81.6769 54.1421 81.996C53.8079 82.6343 53.4661 83.2227 53.1243 83.7583C52.4427 84.831 51.7792 85.7034 51.2033 86.387C50.628 87.0701 50.1477 87.572 49.8135 87.9022C49.6479 88.0688 49.5145 88.1891 49.4269 88.2717C49.3383 88.3532 49.2915 88.3935 49.2885 88.3905C49.2854 88.3875 49.3257 88.3406 49.4083 88.2526C49.5004 88.1559 49.6217 88.0275 49.7752 87.8654C50.0974 87.5241 50.5635 87.0127 51.1248 86.3221C51.6861 85.6314 52.3345 84.754 53.0004 83.6803C53.3342 83.1442 53.6679 82.5568 53.9936 81.9195C54.3062 81.2792 54.6692 80.5991 54.8992 79.8546C55.0049 79.4836 55.0547 79.0774 54.9576 78.6968C54.8549 78.3223 54.6087 77.9543 54.2448 77.7892C53.8819 77.6171 53.4379 77.7283 53.1152 78.0087C52.7825 78.2851 52.5303 78.6646 52.2977 79.0673C51.3569 80.664 50.7528 82.6262 50.7417 84.7163C50.7347 85.2373 50.7735 85.7678 50.8454 86.2929C50.927 86.8129 51.0694 87.3399 51.3609 87.7769C51.6413 88.2198 52.12 88.5168 52.647 88.5591C53.1761 88.6049 53.7188 88.4318 54.2252 88.1967C54.7341 87.9596 55.2214 87.647 55.7127 87.3379C56.1989 87.0253 56.6726 86.685 57.0658 86.2642C57.4614 85.8479 57.7564 85.3354 57.8777 84.7727C58.0005 84.2149 57.9165 83.6088 57.5686 83.1503C57.2314 82.6861 56.6943 82.3987 56.14 82.2275C55.5803 82.0544 54.9953 81.9839 54.4084 81.9572C53.235 81.8918 52.0727 81.9693 50.9517 82.1626C49.8316 82.3599 48.7509 82.671 47.7385 83.0883C47.2352 83.2927 46.7353 83.5298 46.2802 83.783C46.0628 83.9129 45.8891 84.0941 45.8901 84.306C45.8886 84.5159 46.0452 84.7274 46.2405 84.8416C46.6522 85.0712 47.1959 84.9509 47.7003 84.9071C48.2107 84.8517 48.7141 84.7968 49.2104 84.7425C50.2011 84.6232 51.1631 84.5069 52.0938 84.3946C53.9528 84.1555 55.6804 83.9048 57.255 83.6577C60.4047 83.1628 62.9408 82.6856 64.6915 82.3458C65.5543 82.1752 66.2304 82.0423 66.7066 81.9482C66.9266 81.9064 67.0997 81.8732 67.2311 81.848C67.3499 81.8269 67.4113 81.8183 67.4118 81.8228Z" fill="#2C3F4D"/>
<path d="M71.3031 96.7284C71.3031 96.8009 56.869 96.8598 39.0678 96.8598C21.2606 96.8598 6.83008 96.8009 6.83008 96.7284C6.83008 96.6559 21.2606 96.5975 39.0678 96.5975C56.869 96.5975 71.3031 96.6559 71.3031 96.7284Z" fill="#2C3F4D"/>
<path d="M48.4247 90.7483C48.4247 90.8208 47.4602 90.8792 46.2712 90.8792C45.0812 90.8792 44.1167 90.8208 44.1167 90.7483C44.1167 90.6758 45.0812 90.6169 46.2712 90.6169C47.4602 90.6169 48.4247 90.6758 48.4247 90.7483Z" fill="#2C3F4D"/>
<path d="M75.1407 91.1903L78.8756 89.3923L76.8238 83.3253L72.3132 82.2804C71.8917 82.1871 71.4253 82.0739 70.9027 81.9285C70.2929 81.7592 69.7158 81.4846 69.1952 81.125C68.5642 80.6897 67.7487 80.077 67.4042 79.6076C66.9782 79.0264 66.0726 79.2429 66.0749 79.8877C66.0774 80.5322 67.2121 82.1605 69.2346 83.3105C71.2579 84.4605 67.6817 85.0184 66.3835 85.2445C65.0846 85.4707 61.1036 86.358 60.8669 86.8103C60.5204 87.473 61.1832 87.9799 62.474 87.7239C63.7809 87.465 67.6981 86.9716 67.802 87.6591L67.7895 87.6783C67.1376 88.6879 67.2124 90.0073 67.9608 90.9478C68.6835 91.856 69.7713 92.9951 70.5717 92.8222C72.0804 92.4963 75.1407 91.1903 75.1407 91.1903Z" fill="#C18573"/>
<path d="M74.9131 80.5114L78.4129 92.344L105.587 84.0863C111.434 82.3091 114.675 76.0698 112.767 70.2642L106.104 49.5336L91.6342 53.1261L99.5753 72.3034L74.9131 80.5114Z" fill="#22A687"/>
<path d="M106.2 83.8797C106.2 83.8797 106.156 83.898 106.068 83.9265C105.975 83.9564 105.846 83.9978 105.677 84.0516C105.326 84.1607 104.817 84.3189 104.158 84.5238C102.824 84.9316 100.887 85.5244 98.4526 86.2693C93.567 87.7513 86.6845 89.8393 78.6731 92.2693L78.5997 92.2917L78.5746 92.2186C77.3637 88.6027 76.1909 84.623 74.8339 80.5381L74.8076 80.4585L74.8869 80.4322C75.1027 80.3603 75.3366 80.2827 75.5704 80.2048C84.6295 77.1964 92.9771 74.4245 99.5545 72.2406L99.5141 72.3288C97.6006 67.6761 96.0326 63.8635 94.9409 61.2093C94.4014 59.8864 93.9802 58.8531 93.6912 58.1442C93.5513 57.7955 93.4438 57.5276 93.3691 57.3409C93.2972 57.1594 93.2648 57.0641 93.2648 57.0641C93.2648 57.0641 93.3097 57.1542 93.3874 57.3335C93.4663 57.5183 93.5798 57.7836 93.7274 58.1291C94.0245 58.8352 94.4566 59.8636 95.0106 61.1804C96.1147 63.8298 97.701 67.6344 99.637 72.2781L99.6642 72.3439L99.5965 72.3663C93.022 74.5595 84.6783 77.3427 75.6231 80.3632C75.3892 80.4412 75.1554 80.5188 74.9398 80.5907L74.9927 80.4851C76.3503 84.5745 77.5202 88.5539 78.7254 92.1682L78.6272 92.1175C86.6457 89.7107 93.5343 87.6422 98.4238 86.1746C100.864 85.4484 102.806 84.8709 104.142 84.4728C104.805 84.2788 105.317 84.1286 105.669 84.0257C105.84 83.9772 105.971 83.94 106.064 83.9134C106.153 83.889 106.2 83.8797 106.2 83.8797Z" fill="#0C2B34"/>
<path d="M104.601 75.7562C104.575 75.7709 104.394 75.4566 104.031 75.0055C103.669 74.5539 103.103 73.9797 102.368 73.4901C101.632 73.0038 100.882 72.7052 100.326 72.548C99.7687 72.3889 99.4091 72.344 99.4126 72.3144C99.4139 72.3032 99.5047 72.3051 99.6686 72.3186C99.8329 72.3295 100.069 72.3674 100.356 72.4335C100.93 72.564 101.706 72.8524 102.461 73.3512C103.213 73.852 103.781 74.4554 104.124 74.9337C104.297 75.172 104.424 75.3748 104.497 75.5217C104.573 75.6676 104.611 75.7507 104.601 75.7562Z" fill="#0C2B34"/>
<path d="M98.0133 54.1327C97.9675 54.1327 97.9299 53.3468 97.9299 52.3777C97.9299 51.4079 97.9675 50.6223 98.0133 50.6223C98.0595 50.6223 98.0971 51.4079 98.0971 52.3777C98.0971 53.3468 98.0595 54.1327 98.0133 54.1327Z" fill="#F9F9F9"/>
<path d="M103.472 54.4127C103.427 54.4262 103.163 53.673 102.881 52.7308C102.599 51.7887 102.407 51.0143 102.451 51.0011C102.495 50.988 102.759 51.7406 103.041 52.683C103.323 53.6249 103.516 54.3993 103.472 54.4127Z" fill="#F9F9F9"/>
<path d="M100.085 59.3358C100.084 59.3785 99.3253 59.3547 98.4345 59.0907C97.5414 58.8312 96.8908 58.4414 96.9126 58.4049C96.9348 58.3603 97.6072 58.6766 98.4813 58.9303C99.3542 59.1892 100.091 59.2867 100.085 59.3358Z" fill="#F9F9F9"/>
<path d="M106.257 62.0478C106.212 62.0402 106.304 61.2892 106.463 60.3714C106.621 59.453 106.787 58.7155 106.832 58.7232C106.878 58.7309 106.786 59.4815 106.627 60.4C106.469 61.3177 106.303 62.0559 106.257 62.0478Z" fill="#F9F9F9"/>
<path d="M104.05 66.4626C104.008 66.4822 103.651 65.7922 103.254 64.9222C102.856 64.0519 102.568 63.3314 102.61 63.3122C102.652 63.2929 103.008 63.9829 103.406 64.8526C103.804 65.7226 104.092 66.4434 104.05 66.4626Z" fill="#F9F9F9"/>
<path d="M103.145 70.3334C103.125 70.3747 102.444 70.0864 101.624 69.6889C100.803 69.2908 100.155 68.9351 100.175 68.8934C100.195 68.852 100.876 69.1407 101.697 69.5385C102.517 69.9359 103.166 70.2917 103.145 70.3334Z" fill="#F9F9F9"/>
<path d="M110.087 69.3036C110.129 69.3267 109.82 69.9686 109.477 70.7748C109.131 71.5803 108.88 72.2472 108.835 72.2324C108.792 72.2193 108.974 71.5229 109.323 70.709C109.67 69.8945 110.049 69.2822 110.087 69.3036Z" fill="#F9F9F9"/>
<path d="M108.156 78.6201C108.11 78.6246 107.993 77.8223 107.896 76.8278C107.797 75.8334 107.755 75.0237 107.801 75.0196C107.846 75.0144 107.964 75.8167 108.061 76.8115C108.16 77.8056 108.202 78.6159 108.156 78.6201Z" fill="#F9F9F9"/>
<path d="M103.256 81.5636C103.225 81.5976 102.654 81.1234 101.98 80.5046C101.307 79.8858 100.786 79.3565 100.817 79.3225C100.849 79.2885 101.42 79.7626 102.094 80.3818C102.767 81.0002 103.288 81.5295 103.256 81.5636Z" fill="#F9F9F9"/>
<path d="M94.7861 82.4079C94.8233 82.4351 94.3835 83.0972 93.8042 83.887C93.2245 84.6771 92.7247 85.2949 92.6875 85.2677C92.6503 85.2404 93.0898 84.5783 93.6694 83.7885C94.2488 82.9987 94.7486 82.3806 94.7861 82.4079Z" fill="#F9F9F9"/>
<path d="M97.4735 78.4372C97.4462 78.4715 96.8239 78.0015 96.173 77.2981C95.5196 76.5968 95.0968 75.9418 95.133 75.9167C95.1722 75.8882 95.6498 76.4919 96.2956 77.1845C96.9384 77.879 97.5049 78.4003 97.4735 78.4372Z" fill="#F9F9F9"/>
<path d="M91.0825 79.3398C91.095 79.3802 90.5253 79.5522 89.8041 79.4973C89.082 79.4473 88.5438 79.1942 88.5617 79.156C88.5784 79.1092 89.1225 79.283 89.816 79.3305C90.5092 79.3838 91.0728 79.2904 91.0825 79.3398Z" fill="#F9F9F9"/>
<path d="M87.0395 86.3575C86.9939 86.3652 86.8499 85.7476 86.718 84.9787C86.5862 84.2091 86.5159 83.5794 86.5615 83.5717C86.607 83.564 86.7508 84.1809 86.8829 84.9505C87.0148 85.7194 87.085 86.3494 87.0395 86.3575Z" fill="#F9F9F9"/>
<path d="M82.2669 88.7783C82.2425 88.8171 81.5178 88.4043 80.6492 87.8557C79.7798 87.3072 79.0956 86.8308 79.1203 86.792C79.145 86.7529 79.8693 87.166 80.7383 87.7146C81.6074 88.2631 82.2916 88.7392 82.2669 88.7783Z" fill="#F9F9F9"/>
<path d="M83.9707 80.2374C84.0064 80.2704 83.5412 80.8215 83.0225 81.5404C82.5012 82.2577 82.1227 82.8714 82.0803 82.8479C82.0415 82.8277 82.3588 82.1695 82.8871 81.4422C83.4129 80.714 83.9393 80.2072 83.9707 80.2374Z" fill="#F9F9F9"/>
<path d="M80.2798 81.8577C80.259 81.8991 79.8394 81.731 79.3425 81.4824C78.8449 81.2338 78.459 80.9987 78.4795 80.9576C78.5001 80.9165 78.92 81.0843 79.4169 81.3329C79.9141 81.5815 80.3003 81.8167 80.2798 81.8577Z" fill="#F9F9F9"/>
<path d="M105.271 75.1549C105.01 75.1549 104.741 75.0753 104.509 74.9502C104.105 74.7308 103.781 74.393 103.426 74.0991C103.349 74.035 103.271 73.9727 103.19 73.9128C102.972 73.7193 102.728 73.5288 102.461 73.3514C101.706 72.8526 100.93 72.5642 100.356 72.4336C100.177 72.3925 100.017 72.3621 99.883 72.3425C99.7595 72.1994 99.6729 72.0272 99.6546 71.8488C101.004 71.9877 102.354 72.1289 103.7 72.2982C104.201 72.3617 104.71 72.431 105.173 72.6319C105.638 72.833 106.058 73.1865 106.228 73.6629C106.397 74.1392 106.255 74.7401 105.825 75.007C105.658 75.1106 105.467 75.1549 105.271 75.1549ZM101.698 73.097C101.534 73.0354 101.368 72.9812 101.199 72.9347C100.835 72.8336 100.454 72.764 100.135 72.561C100.089 72.5314 100.045 72.4984 100.003 72.4618C100.101 72.4862 100.209 72.5144 100.326 72.5481C100.713 72.6575 101.193 72.8352 101.698 73.097ZM99.6546 71.8488C99.5863 71.8417 99.5177 71.8347 99.449 71.8276C99.441 71.8077 99.4327 71.7882 99.4243 71.7683L99.6739 71.6095C99.6521 71.6891 99.6466 71.7696 99.6546 71.8488Z" fill="#1C8971"/>
</svg>
